<svg id="Grupo_150844" data-name="Grupo 150844" xmlns="http://www.w3.org/2000/svg" width="148" height="76" viewBox="0 0 148 76">
  <rect id="Rectángulo_42055" data-name="Rectángulo 42055" width="148" height="76" fill="none"/>
  <ellipse id="Elipse_4754" data-name="Elipse 4754" cx="58" cy="8.5" rx="58" ry="8.5" transform="translate(18 55)" fill="#f6e0a9"/>
  <g id="libro_5_" data-name="libro (5)" transform="translate(18 2)">
    <path id="Trazado_197963" data-name="Trazado 197963" d="M4,26.7l.373.051,41.966,5.03,41.238-4.86h.017l7.773-.915,8.552-1L64.578,20.283a25.355,25.355,0,0,0-6,0Z" transform="translate(-4 -20.105)" fill="#ffca3a"/>
    <path id="Trazado_197964" data-name="Trazado 197964" d="M36,39.221l.373.051L78.339,44.3a1.321,1.321,0,0,0,.373-.051c1.694-.423,3.015-3.641,3.015-7.57,0-4.217-1.524-7.621-3.387-7.621L36.373,24.03c1.694.423,3.015,3.641,3.015,7.57C39.387,35.817,37.863,39.221,36,39.221Z" transform="translate(-36 -17.383)" fill="#eaeaea"/>
    <path id="Trazado_197965" data-name="Trazado 197965" d="M36,48.221a1.863,1.863,0,0,1,.525.068L78.339,53.3a1.321,1.321,0,0,0,.373-.051c1.694-.423,3.015-3.641,3.015-7.57,0-4.217-1.524-7.621-3.387-7.621L36.373,33.03c1.694.423,3.015,3.641,3.015,7.57C39.387,44.817,37.863,48.221,36,48.221Z" transform="translate(-36 -11.141)" fill="#eaeaea"/>
    <path id="Trazado_197966" data-name="Trazado 197966" d="M36,33.03c1.084.271,2.015,1.677,2.54,3.692l39.426,4.725c1.592,0,2.947,2.506,3.3,5.894.051-.525.085-1.084.085-1.66,0-4.217-1.524-7.621-3.387-7.621Z" transform="translate(-35.627 -11.141)" fill="#dad4d4"/>
    <path id="Trazado_197967" data-name="Trazado 197967" d="M36,24.03c1.084.271,2.015,1.677,2.54,3.692l39.426,4.725c1.592,0,2.947,2.506,3.3,5.894.051-.525.085-1.084.085-1.66,0-4.217-1.524-7.621-3.387-7.621Z" transform="translate(-35.627 -17.383)" fill="#dad4d4"/>
    <path id="Trazado_197968" data-name="Trazado 197968" d="M35,65.682l1.219.152,15.716,1.88V54.166L62.1,55.385V68.934l15.242,1.829.525-.068a1.775,1.775,0,0,0,.474-.169,2.941,2.941,0,0,0,.44-.254.053.053,0,0,0,.034-.017c.119-.085.254-.186.373-.288a4.54,4.54,0,0,0,.474-.508,4.22,4.22,0,0,0,.39-.525,8.975,8.975,0,0,0,.694-1.2c.135-.288.254-.593.39-.915.085-.237.169-.491.254-.745a6.681,6.681,0,0,0,.254-.881c.085-.288.152-.593.22-.9a20.434,20.434,0,0,0,.44-2.845V61.4a24.032,24.032,0,0,0,.119-2.49c0-6.554-2.269-11.855-5.081-11.855L35.525,42.04a.318.318,0,0,1,.169.068c2.473.745,4.386,5.707,4.386,11.719,0,6.554-2.269,11.855-5.081,11.855Z" transform="translate(-35 -4.892)" fill="#eaeaea"/>
    <path id="Trazado_197969" data-name="Trazado 197969" d="M35,65.682l1.219.152,15.716,1.88V62.634a7.756,7.756,0,0,1-6.774-7.846v-.334a5.4,5.4,0,0,1,6-5.453l26.182,3.133a3.472,3.472,0,0,1,2.723,1.849,8.994,8.994,0,0,1,.254,9.445,4.2,4.2,0,0,1-2.452,2.186l-.525.068L62.1,63.853v5.081l15.242,1.829.525-.068a1.775,1.775,0,0,0,.474-.169,2.939,2.939,0,0,0,.44-.254.053.053,0,0,0,.034-.017c.119-.085.254-.186.373-.288a4.542,4.542,0,0,0,.474-.508,4.222,4.222,0,0,0,.39-.525,8.976,8.976,0,0,0,.694-1.2c.135-.288.254-.593.39-.915.085-.237.169-.491.254-.745a6.681,6.681,0,0,0,.254-.881c.085-.288.152-.593.22-.9a20.432,20.432,0,0,0,.44-2.845V61.4a24.036,24.036,0,0,0,.119-2.49c0-6.554-2.269-11.855-5.081-11.855L35.525,42.04a.318.318,0,0,1,.169.068c2.473.745,4.386,5.707,4.386,11.719C40.08,60.381,37.811,65.682,35,65.682Z" transform="translate(-35 -4.892)" fill="#dad4d4"/>
    <path id="Trazado_197970" data-name="Trazado 197970" d="M47,62.748v8.129L52.081,64.1l5.081,8.468V50.436L47,49.2Z" transform="translate(-30.065 0.074)" fill="#ed1c24"/>
    <path id="Trazado_197971" data-name="Trazado 197971" d="M50.387,49.606V52.7a10.5,10.5,0,0,0,6.7,9.907l.069.025v9.941L52.081,64.1,47,70.877V49.2Z" transform="translate(-30.065 0.074)" fill="#c1272d"/>
    <path id="Trazado_197972" data-name="Trazado 197972" d="M53.733,24.13,12.5,28.99c1.863,0,3.387,3.4,3.387,7.621,0,3.929-1.321,7.147-3.015,7.57l12.16-1.423,7.452-.881L54.614,39.27a19.186,19.186,0,0,0,1.067-6.893c0-3.98-.813-7.333-1.931-8.248Z" transform="translate(29.844 -17.313)" fill="#f7931e"/>
    <path id="Trazado_197973" data-name="Trazado 197973" d="M29.618,36.553a1.321,1.321,0,0,1-.373.051c1.863,0,3.387,3.4,3.387,7.621,0,3.929-1.321,7.147-3.015,7.57L40,50.575l2.828-.322a16.859,16.859,0,0,0,1.236-6.876c0-4.014-.982-7.384-2.286-8.248Z" transform="translate(13.093 -9.684)" fill="#869d69"/>
    <path id="Trazado_197974" data-name="Trazado 197974" d="M30.373,45.469A1.321,1.321,0,0,1,30,45.52c2.811,0,5.081,5.3,5.081,11.855,0,6.148-2,11.194-4.556,11.787l10.11-1.185c1.71-2.1,2.913-6.656,2.913-11.94,0-5.148-1.135-9.6-2.794-11.787Z" transform="translate(12.339 -3.359)" fill="#942e19"/>
    <path id="Trazado_197975" data-name="Trazado 197975" d="M26,68.3l6.842-.8c1.694-2.151,2.845-6.656,2.845-11.855s-1.169-9.721-2.862-11.855l-3.878.457-2.828.322c1.66,2.185,2.794,6.639,2.794,11.787,0,5.284-1.2,9.84-2.913,11.94Z" transform="translate(26.974 -3.678)" fill="#f7931e"/>
    <path id="Trazado_197976" data-name="Trazado 197976" d="M32.434,34.61l-7.452.881c1.3.864,2.286,4.234,2.286,8.248a16.859,16.859,0,0,1-1.236,6.876l3.878-.457,2.76-.322a13.887,13.887,0,0,0,1.8-7.79,14.139,14.139,0,0,0-2.032-7.435Z" transform="translate(29.889 -10.045)" fill="#afafaf"/>
    <path id="Trazado_197977" data-name="Trazado 197977" d="M12.768,44.751l-2.76.322c1.694,2.134,2.862,6.639,2.862,11.855s-1.152,9.7-2.845,11.855l27.469-3.235A22.614,22.614,0,0,0,39.932,54.3c0-5.69-1.406-10.534-3.353-12.363Z" transform="translate(49.792 -4.961)" fill="#942e19"/>
    <path id="Trazado_197978" data-name="Trazado 197978" d="M24.135,33.812,2,36.42a14.139,14.139,0,0,1,2.032,7.435,13.887,13.887,0,0,1-1.8,7.79l23.811-2.811,6.791-.8,6.757-.8c1.863,0,3.387-3.4,3.387-7.621S41.46,32,39.6,32l-8.281.965v.017Z" transform="translate(60.323 -11.855)" fill="#869d69"/>
    <path id="Trazado_197979" data-name="Trazado 197979" d="M29.32,47.453,39.7,46.234l2.828-.322a14.192,14.192,0,0,0,1.118-4.522L32.08,42.711c-.44,2.557-1.49,4.42-2.76,4.742Z" transform="translate(13.391 -5.343)" fill="#687c50"/>
    <path id="Trazado_197980" data-name="Trazado 197980" d="M25.14,46.245l3.878-.457,2.76-.322a9.775,9.775,0,0,0,1.558-4.556l-7.079.813a14.192,14.192,0,0,1-1.118,4.522Z" transform="translate(30.781 -5.676)" fill="#868383"/>
    <path id="Trazado_197981" data-name="Trazado 197981" d="M2.16,47.3l23.811-2.811,6.791-.8,6.757-.8c1.389,0,2.591-1.9,3.116-4.623L32.83,39.388,21.348,40.709,3.718,42.741A9.775,9.775,0,0,1,2.16,47.3Z" transform="translate(60.4 -7.507)" fill="#687c50"/>
    <path id="Trazado_197982" data-name="Trazado 197982" d="M15.759,23.59,7.985,24.5c1.118.915,1.931,4.268,1.931,8.248a19.186,19.186,0,0,1-1.067,6.893l7.181-.83V38.8a16.045,16.045,0,0,0,1.507-7.74,15.968,15.968,0,0,0-1.778-7.469Z" transform="translate(75.608 -17.688)" fill="#ffc846"/>
    <path id="Trazado_197983" data-name="Trazado 197983" d="M12.8,41.47l-6.791.8C7.954,44.1,9.36,48.939,9.36,54.629A22.614,22.614,0,0,1,6.921,65.874l6.757-.8a22.485,22.485,0,0,0,2.456-11.262c0-5.673-1.389-10.517-3.336-12.346Z" transform="translate(80.364 -5.287)" fill="#f7931e"/>
    <path id="Trazado_197984" data-name="Trazado 197984" d="M10.552,23,2,24a15.968,15.968,0,0,1,1.778,7.469,16.045,16.045,0,0,1-1.507,7.74l8.281-.965c1.863,0,3.387-3.4,3.387-7.621S12.415,23,10.552,23Z" transform="translate(89.367 -18.097)" fill="#f7931e"/>
    <path id="Trazado_197985" data-name="Trazado 197985" d="M12.64,39.327l41.746-4.911a13.379,13.379,0,0,0,.83-3.285l-40.1,4.725c-.525,1.9-1.423,3.218-2.473,3.472Z" transform="translate(30.071 -12.459)" fill="#c47416"/>
    <path id="Trazado_197986" data-name="Trazado 197986" d="M15.411,33.939v-.017a9.176,9.176,0,0,0,1.118-3.3l-7.469.864a13.379,13.379,0,0,1-.83,3.285Z" transform="translate(76.227 -12.812)" fill="#c39833"/>
    <path id="Trazado_197987" data-name="Trazado 197987" d="M2.25,34.581l8.281-.965c1.27,0,2.388-1.592,2.964-3.946a1.915,1.915,0,0,1-1.27.559l-8.857,1.05a9.176,9.176,0,0,1-1.118,3.3Z" transform="translate(89.388 -13.471)" fill="#c47416"/>
    <path id="Trazado_197988" data-name="Trazado 197988" d="M7.757,41,1,41.8c1.948,1.829,3.336,6.673,3.336,12.346A22.485,22.485,0,0,1,1.881,65.4l5.877-.694c2.811,0,5.081-5.3,5.081-11.855S10.569,41,7.757,41Z" transform="translate(92.162 -5.613)" fill="#942e19"/>
    <path id="Trazado_197989" data-name="Trazado 197989" d="M30.42,61.589,40.53,60.4a13.054,13.054,0,0,0,2.2-5.233l-1.338.152-7.2.779C33.4,59.116,32.012,61.216,30.42,61.589Z" transform="translate(12.444 4.214)" fill="#6a2010"/>
    <path id="Trazado_197990" data-name="Trazado 197990" d="M26.41,60.7l6.842-.8A13.418,13.418,0,0,0,35.4,54.74l-.728.085-6.063.644a13.054,13.054,0,0,1-2.2,5.233Z" transform="translate(26.564 3.916)" fill="#f15a24"/>
    <path id="Trazado_197991" data-name="Trazado 197991" d="M10.4,61.112l27.469-3.235A15.267,15.267,0,0,0,39.665,53L12.551,55.947A13.418,13.418,0,0,1,10.4,61.112Z" transform="translate(49.416 2.709)" fill="#6a2010"/>
    <path id="Trazado_197992" data-name="Trazado 197992" d="M6.41,58.183l6.757-.8a15.088,15.088,0,0,0,1.8-4.827l-4.911.542-1.846.2a15.267,15.267,0,0,1-1.8,4.877Z" transform="translate(80.875 2.404)" fill="#f15a24"/>
    <path id="Trazado_197993" data-name="Trazado 197993" d="M1.55,57.754l5.877-.694c1.727,0,3.235-1.981,4.149-5.03l-5.826.644-2.4.254a15.088,15.088,0,0,1-1.8,4.827Z" transform="translate(92.493 2.037)" fill="#6a2010"/>
    <path id="Trazado_197994" data-name="Trazado 197994" d="M61.3,53.2a1.694,1.694,0,0,0,.195-3.375l-14.881-1.8a1.694,1.694,0,0,0-.4,3.365l14.888,1.8A1.6,1.6,0,0,0,61.3,53.2Z" transform="translate(-32.038 -0.745)" fill="#dad4d4"/>
  </g>
</svg>
