<svg xmlns="http://www.w3.org/2000/svg" xmlns:xlink="http://www.w3.org/1999/xlink" width="190" height="176" viewBox="0 0 190 176">
  <defs>
    <clipPath id="clip-path">
      <rect id="Rectángulo_43210" data-name="Rectángulo 43210" width="39.083" height="127.871" fill="none"/>
    </clipPath>
    <clipPath id="clip-path-2">
      <rect id="Rectángulo_43214" data-name="Rectángulo 43214" width="113.074" height="167.013" fill="none"/>
    </clipPath>
    <clipPath id="clip-path-3">
      <rect id="Rectángulo_43213" data-name="Rectángulo 43213" width="71.082" height="123.32" fill="none"/>
    </clipPath>
    <clipPath id="clip-path-5">
      <rect id="Rectángulo_43211" data-name="Rectángulo 43211" width="16.549" height="17.959" fill="none"/>
    </clipPath>
  </defs>
  <g id="Grupo_152203" data-name="Grupo 152203" transform="translate(-285 -1109)">
    <ellipse id="Elipse_4889" data-name="Elipse 4889" cx="95" cy="11" rx="95" ry="11" transform="translate(285 1263)" fill="#e5efd4"/>
    <g id="Grupo_152193" data-name="Grupo 152193" transform="translate(414.826 1148.144)">
      <g id="Grupo_152192" data-name="Grupo 152192" clip-path="url(#clip-path)">
        <path id="Trazado_205563" data-name="Trazado 205563" d="M10.631,503.865a17.769,17.769,0,0,1-1.409,1.851c-.62.662-2.994,1.844-3.007,3.809-.014,2.131,4,1.54,5.572,1.462s1.689-1.216,2.351-2.423,1.328-1,1.452-1.975a8.058,8.058,0,0,0-.506-2.724Z" transform="translate(-4.728 -383.25)" fill="#163342"/>
        <path id="Trazado_205564" data-name="Trazado 205564" d="M24.794,498.432l-.134,1.074a7.651,7.651,0,0,0,4.453,0l-.123-1.372Z" transform="translate(-18.757 -378.891)" fill="#306b8c"/>
        <path id="Trazado_205565" data-name="Trazado 205565" d="M107.35,503.865a17.8,17.8,0,0,0,1.409,1.851c.62.662,2.994,1.844,3.007,3.809.014,2.131-4,1.54-5.572,1.462s-1.69-1.216-2.351-2.423-1.328-1-1.452-1.975a8.058,8.058,0,0,1,.506-2.724Z" transform="translate(-77.868 -383.25)" fill="#163342"/>
        <path id="Trazado_205566" data-name="Trazado 205566" d="M108.825,498.45l.185,1.034a7.649,7.649,0,0,1-4.453,0l.015-1.379Z" transform="translate(-79.529 -378.87)" fill="#306b8c"/>
        <path id="Trazado_205567" data-name="Trazado 205567" d="M49.45,260.579c0,2.627-2.557,27.629-2.557,27.629-.279.875-5.1.822-6.034.383s.78-26.524.608-29.173-5.128-21.167-5.944-21.08-5.042,22.94-5.693,24.954-2.435,25.176-2.435,25.176c-2.046,1.139-5.681.1-5.681.1s.094-25.975.372-26.676.212-2.715.305-9.281c.069-4.908,2-19.2,2.965-26.111.019-.137.394-2.794.546-3.829,5.088-2.208,15.564-1.145,20.764-.179.017.138.389,3.1.434,3.5.458,3.748,1.106,9.235,1.045,9.806-.093.876,1.3,22.152,1.3,24.779" transform="translate(-16.516 -168.378)" fill="#1c4154"/>
        <path id="Trazado_205568" data-name="Trazado 205568" d="M56.183,228.908c-13.45,3.437-20.076.5-21.634-.105q-.134-.053-.218-.08c-.079-.025-.054-.117-.054-.117l-.609-3.279,1.406.027.74.014,18.6.349s.557-.023,1.368-.039c.017.139.045.357.08.639.075.61.188,1.517.317,2.57,0,.007,0,.015,0,.022" transform="translate(-25.609 -171.388)" fill="#163342"/>
        <path id="Trazado_205569" data-name="Trazado 205569" d="M25.183,76.624s10,2.685,10.926,5.6,3.255,14.251,2.945,18.921-5.169,18.457-5.169,18.457-3.378-2.265-3.378-2.674,3.367-14.285,3.244-15.861-1.279-8.919-1.279-8.919S31,107.648,31,110.041a12.015,12.015,0,0,1-.637,4.016s-4.894,1.749-12.919,1.355c0,0-10.724-.231-8.545-3.9,1.649-2.772.155-18.636-.093-18.753s-2.935,8.8-2.5,9.807,3.644,14.473,3.644,14.473-.717.135-3.557,2.241c0,0-6.327-15.663-6.389-16.655S4.866,81.235,7.283,80.36s12.275-3.736,12.275-3.736Z" transform="translate(0 -58.282)" fill="#869d69"/>
        <path id="Trazado_205570" data-name="Trazado 205570" d="M123.951,243.765s-.462,1.6-1.145,1.934,3.053,3.861,3.053,3.861a29.463,29.463,0,0,0,1.6-3.479c-.034-.323-3.5-2.316-3.5-2.316" transform="translate(-93.345 -185.413)" fill="#eea886"/>
        <path id="Trazado_205571" data-name="Trazado 205571" d="M111,246.717s4.215,4.864,4.5,5.02-1.761,3.858-1.761,3.858l-4.811-7.945Z" transform="translate(-82.859 -187.658)" fill="#1c4154"/>
        <path id="Trazado_205572" data-name="Trazado 205572" d="M30.068,244.513s.451,1.6,1.133,1.941-3.077,3.844-3.077,3.844a29.488,29.488,0,0,1-1.575-3.488c.037-.323,3.52-2.3,3.52-2.3" transform="translate(-20.193 -185.982)" fill="#eea886"/>
        <path id="Trazado_205573" data-name="Trazado 205573" d="M35.68,246.717s-4.157,4.5-4.446,4.66,1.761,3.859,1.761,3.859l4.81-7.945Z" transform="translate(-23.736 -187.658)" fill="#1c4154"/>
        <path id="Trazado_205574" data-name="Trazado 205574" d="M130.825,227.634s-2.944-1.7-3.378-2.674l2.218-6.31s3.881,2,1.16,8.983" transform="translate(-96.939 -166.31)" fill="#869d69"/>
        <path id="Trazado_205575" data-name="Trazado 205575" d="M133.616,110.008l-.181-.032c.009-.047.922-4.753-.373-7.42l.168-.073c1.319,2.718.4,7.476.387,7.524" transform="translate(-101.209 -77.951)" fill="#5d7341"/>
        <path id="Trazado_205576" data-name="Trazado 205576" d="M129.81,113.58c-.006-.037-.539-3.683-1.707-5.049l.144-.109c1.2,1.4,1.724,4.983,1.746,5.135Z" transform="translate(-97.438 -82.468)" fill="#5d7341"/>
        <path id="Trazado_205577" data-name="Trazado 205577" d="M80.209,263.522l-.154-.1c.034-.05,3.473-4.972,3.9-7.61l.183.026c-.432,2.676-3.785,7.477-3.927,7.68" transform="translate(-60.891 -194.579)" fill="#163342"/>
        <path id="Trazado_205578" data-name="Trazado 205578" d="M83.037,272.852l-.111-.139a12.41,12.41,0,0,0,3.219-3.353l.167.076a12.334,12.334,0,0,1-3.275,3.417" transform="translate(-63.075 -204.88)" fill="#163342"/>
        <path id="Trazado_205579" data-name="Trazado 205579" d="M74.565,4.685s5.252.779,4.453,8.518-5.435,7.1-5.745,7.1-4.654.141-4.993-9.308c0,0-.148-6.987,6.285-6.307" transform="translate(-51.935 -3.528)" fill="#eea886"/>
        <path id="Trazado_205580" data-name="Trazado 205580" d="M82.554,57.875a16.776,16.776,0,0,0,.183,3.872c.327.689-4.334,2.9-7.178.436a22.448,22.448,0,0,0,.5-4.685c-.191-1.226,6.5.377,6.5.377" transform="translate(-57.472 -43.383)" fill="#eea886"/>
        <path id="Trazado_205581" data-name="Trazado 205581" d="M112.51,30.474s.575-.579.786.007-.785,3.2-.82,3.32c0,0-.105.227-.243.1a26.715,26.715,0,0,1,.277-3.43" transform="translate(-85.345 -22.985)" fill="#eea886"/>
        <path id="Trazado_205582" data-name="Trazado 205582" d="M66.263,30.038s-.563-.589-.786-.007.71,3.211.752,3.334c0,0,.1.229.241.107a26.6,26.6,0,0,0-.207-3.434" transform="translate(-49.777 -22.647)" fill="#eea886"/>
        <path id="Trazado_205583" data-name="Trazado 205583" d="M77.17,8.676l-.752.947a17.77,17.77,0,0,0-.1-2.4c-.12-.325-.305-1.319-.406-1.554s-4.511-1.4-8.406.34c0,0,.171,1.493-.2,1.625s-.19,2.43-.19,2.43L66.5,9.407s-.946-5.954-.712-6.575S66.761-1.52,74.752.7c0,0,2.492-.5,2.992,1.122s-.574,6.858-.574,6.858" transform="translate(-50.008 0)" fill="#d88a51"/>
        <path id="Trazado_205584" data-name="Trazado 205584" d="M81.437,66.026a3.915,3.915,0,0,1-1.1-.158,4.17,4.17,0,0,1-1.716-.983l.092-.078a4.128,4.128,0,0,0,1.667.951,4.526,4.526,0,0,0,4.184-1.108l.08.088a5.041,5.041,0,0,1-3.2,1.287" transform="translate(-59.798 -49.175)" fill="#c58c71"/>
        <path id="Trazado_205585" data-name="Trazado 205585" d="M19.237,231.165a23.052,23.052,0,0,0,3.591-2.068l-1.243-5.153-4.65,1.551Z" transform="translate(-12.881 -170.336)" fill="#869d69"/>
        <path id="Trazado_205586" data-name="Trazado 205586" d="M82.728,76.641s1.185.238-3.774,4.714c0,0-3.518-3.664-3.4-4.277s7.178-.436,7.178-.436" transform="translate(-57.463 -58.277)" fill="#eea886"/>
        <path id="Trazado_205587" data-name="Trazado 205587" d="M89.778,79.308l1.353,2.179,4.015-6.419-1.738-1.142Z" transform="translate(-68.287 -56.23)" fill="#5d7341"/>
        <path id="Trazado_205588" data-name="Trazado 205588" d="M73.425,80.771,70.141,75.85l-1.862,1.127,3.338,5.974Z" transform="translate(-51.934 -57.693)" fill="#5d7341"/>
        <path id="Trazado_205589" data-name="Trazado 205589" d="M74.545,240.753a14.08,14.08,0,0,0,3.7-.073v-2.2H74.39Z" transform="translate(-56.583 -181.39)" fill="#afafaf"/>
        <path id="Trazado_205590" data-name="Trazado 205590" d="M108.509,238.068l.1-2.215.869-.12-.1,2.238Z" transform="translate(-82.534 -179.303)" fill="#1c4154"/>
        <path id="Trazado_205591" data-name="Trazado 205591" d="M53.931,238.57l-.1-2.215-.869-.12.1,2.238Z" transform="translate(-40.282 -179.685)" fill="#1c4154"/>
        <path id="Trazado_205592" data-name="Trazado 205592" d="M127.446,240.283l.312-1.488,3.616,2.514-.549,1.647s-2.956-1.426-3.378-2.674" transform="translate(-96.938 -181.633)" fill="#5d7341"/>
        <path id="Trazado_205593" data-name="Trazado 205593" d="M28.1,240.15l-.4-1.674s-3.636,1.885-3.832,2.161l.642,1.581A13.852,13.852,0,0,0,28.1,240.15" transform="translate(-18.156 -181.39)" fill="#5d7341"/>
        <path id="Trazado_205594" data-name="Trazado 205594" d="M82.25,135.1l-.185-.01c.01-.149.947-14.916.643-20.36a55.062,55.062,0,0,1,1.113-12.17L84,102.6a54.927,54.927,0,0,0-1.11,12.126c.305,5.454-.633,20.231-.642,20.38" transform="translate(-62.42 -78.012)" fill="#5d7341"/>
        <path id="Trazado_205595" data-name="Trazado 205595" d="M57.073,105.036a20.669,20.669,0,0,1,2.968,16.71,24.191,24.191,0,0,1-10.733,13.922H46.33l.864-2.364s9.678-6.655,10.651-14.272a30.053,30.053,0,0,0-1.713-14Z" transform="translate(-35.24 -79.893)" fill="#ffc846"/>
        <path id="Trazado_205596" data-name="Trazado 205596" d="M85.045,96.408,86.159,98.2a2.787,2.787,0,0,1-2.6,0Z" transform="translate(-63.554 -73.33)" fill="#ffc846"/>
        <path id="Trazado_205597" data-name="Trazado 205597" d="M118.518,264.289a27.169,27.169,0,0,1-3.054-4.428l.163-.081a27.046,27.046,0,0,0,3.026,4.39Z" transform="translate(-87.824 -197.594)" fill="#163342"/>
        <path id="Trazado_205598" data-name="Trazado 205598" d="M36.808,260.083l-.136-.117a15.466,15.466,0,0,0,2.6-3.489l.174.057a15.179,15.179,0,0,1-2.637,3.549" transform="translate(-27.893 -195.082)" fill="#163342"/>
      </g>
    </g>
    <g id="Grupo_152202" data-name="Grupo 152202" transform="translate(301.753 1109)">
      <g id="Grupo_152201" data-name="Grupo 152201" transform="translate(0 0)" clip-path="url(#clip-path-2)">
        <path id="Trazado_205649" data-name="Trazado 205649" d="M38.522,81.822c1.971,11.2,5.723-2.306,9.528-7.134S63.9,58.055,63.262,48.1l2,.75s-1.918,9.729-6.9,15.7S41.806,92.7,41.286,101.457a48.653,48.653,0,0,1-3.871-5.234c-.4-1.02,1.106-14.4,1.106-14.4" transform="translate(22.543 29.034)" fill="#854214"/>
        <path id="Trazado_205650" data-name="Trazado 205650" d="M48.886,64.923c1.9-2.593,1.493-14.615,1.493-14.615l1.267-1.422s.9,14.06-2.869,18.327Z" transform="translate(29.441 29.507)" fill="#854214"/>
        <path id="Trazado_205651" data-name="Trazado 205651" d="M48.184,66.776l.531-.765a19.361,19.361,0,0,1,1.677-1.924c1.458-1.5,3.627-3.267,5.515-5.226a19.54,19.54,0,0,0,2.481-3.053,11.046,11.046,0,0,0,1.392-3.024,7.232,7.232,0,0,0,.268-1.286,4.466,4.466,0,0,0,.082-1.01c.008-.563.013-.885.013-.885l.508-.026s0,.335.01.925a4.637,4.637,0,0,1-.059,1.057,7.68,7.68,0,0,1-.249,1.355,11.622,11.622,0,0,1-1.379,3.194,20.284,20.284,0,0,1-2.481,3.2c-1.884,2.038-4.011,3.844-5.388,5.334-.332.375-.675.71-.9,1.023-.245.318-.475.558-.633.816-.327.492-.512.775-.512.775Z" transform="translate(29.083 29.923)" fill="#854214"/>
        <path id="Trazado_205652" data-name="Trazado 205652" d="M38.046,65.663c-1.859-4.939-6.491-11.451-6.491-11.451l1.055-1.87s4.532,9.368,5.436,7.79,1.889,8.682,1.889,8.682Z" transform="translate(19.046 31.593)" fill="#904a19"/>
        <path id="Trazado_205653" data-name="Trazado 205653" d="M39.4,72.988c.5-7.49,10.4-20.646,10.4-20.646l-3.812,1.474s-5.435,12.267-7.045,9.509-2.4,7.126-2.4,7.126Z" transform="translate(22.053 31.593)" fill="#854214"/>
        <path id="Trazado_205654" data-name="Trazado 205654" d="M13.013,47.106l.9.563a26.34,26.34,0,0,1,2.324,1.661,76.74,76.74,0,0,1,6.312,5.783A66.877,66.877,0,0,0,28.8,60.749a24.517,24.517,0,0,0,2.24,1.555c.561.338.882.529.882.529L31.133,64.2l-.927-.59a25.583,25.583,0,0,1-2.319-1.7,68.062,68.062,0,0,1-6.224-5.914,75.375,75.375,0,0,0-6.071-5.863,24.708,24.708,0,0,0-2.19-1.658c-.564-.374-.888-.585-.888-.585Z" transform="translate(7.553 28.432)" fill="#904a19"/>
        <path id="Trazado_205655" data-name="Trazado 205655" d="M51.711,53.964c-1.65,5.048-1.588,13.877-.635,24.01.189,2.008.045,5.908.3,8,.635,5.26,2.875,10.588,2.383,15.885A78.547,78.547,0,0,0,55.091,122.8c2.619,11.942,2.646,17.986,2.405,17.1H43.041s3.844-5.487,3.844-21.955.948-26.988-6.1-34.305-16.028-21.842-23.65-37.2l1.233-2.343s1.283,5.9,8.89,16.507,13.935,21,17.9,20.2-.326-27.9-.326-27.9Z" transform="translate(10.341 26.611)" fill="#904a19"/>
        <path id="Trazado_205656" data-name="Trazado 205656" d="M43.2,119.208A77.688,77.688,0,0,1,41.865,98.27c.471-5.3-1.75-10.625-2.383-15.885-.255-2.093-.111-5.993-.3-8-.953-10.133-1.013-18.961.635-24.01l-2.155-.337c.059,10.6-.494,20.282,0,29.9,1.413,27.806,1.913,49.73,1.913,49.73L36.835,109.2l.3,27.107h8.473c.237.89.213-5.154-2.407-17.1" transform="translate(22.233 30.202)" fill="#854214"/>
        <path id="Trazado_205657" data-name="Trazado 205657" d="M22.386,60.525s-.473-4.012-.635-8.045c-.085-2.014-.095-4.036-.014-5.556s.223-2.532.223-2.532l.794.091s-.093.98-.1,2.463.1,3.473.279,5.457c.35,3.969,1.009,7.9,1.009,7.9Z" transform="translate(13.087 26.794)" fill="#904a19"/>
        <path id="Trazado_205658" data-name="Trazado 205658" d="M20.557,25.855C4.747,27.962.881,42.016,5.1,47.989c0,0-13.35,13,3.162,24.241s27.405,1.4,27.405,1.4,0,10.54,10.89,13.35,14.054-2.809,14.054-2.809,6.323,6.325,21.079.7,12.3-18.972,12.3-18.972,17.567,2.46,18.972-11.945S102.767,37.1,102.767,37.1s2.107-14.4-10.892-13.7c0,0,2.809-14.756-8.784-20.73S59.844,3.72,56.536,9.342c0,0-5.064-11.583-19.116-8.954s-8.783,16.333-8.783,16.333-12.649-1.758-8.08,9.134" transform="translate(0 0)" fill="#8a9f26"/>
        <path id="Trazado_205659" data-name="Trazado 205659" d="M21.949,53.474C7.4,53.927-1.574,41.554,1.424,33.27c0,0-.475,1.394-1.145,3.4-.946,4.529.22,10.2,7.979,15.483,16.514,11.243,27.405,1.4,27.405,1.4A16.351,16.351,0,0,0,39.67,46.73s-3.148,6.288-17.721,6.743" transform="translate(0 20.081)" fill="#829620"/>
        <path id="Trazado_205660" data-name="Trazado 205660" d="M31.6,56.031c-5.8-2.2-7.959-5.359-7.434-10.59l-3.109,2.707a12.838,12.838,0,0,0,1.894-1.323s0,10.54,10.89,13.35c7.866,2.03,11.7-.337,13.225-1.809.119-.284.172-.651.436-.8,5.046-2.851,4.091-13.146,4.091-13.146C50.009,53.592,37.4,58.226,31.6,56.031" transform="translate(12.71 26.811)" fill="#829620"/>
        <path id="Trazado_205661" data-name="Trazado 205661" d="M91.688,39.042c.754-7.72-2.227-12.008-5.156-14.326v0C89.245,27.609,91.486,40.47,83.8,46.09s-17.659-2.946-17.659-2.946c1.883,5.957-.138,18.9-5.624,22.862s-16.833,3.291-19.73-.35l-5.55,6.538a7.557,7.557,0,0,0,4.1-2.938s6.325,6.323,21.081.7,12.3-18.972,12.3-18.972,17.567,2.46,18.972-11.943" transform="translate(21.267 14.918)" fill="#829620"/>
        <path id="Trazado_205662" data-name="Trazado 205662" d="M16.356,18.411C7.482,20.051.809,29.493,6.6,33.3s24.974-17.7,9.758-14.886" transform="translate(2.674 10.959)" fill="#94ac2e"/>
        <path id="Trazado_205663" data-name="Trazado 205663" d="M20.767,12.521c-6.286-1.034-5.149,11.349.561,10.128s8.331-8.664-.561-10.128" transform="translate(9.975 7.52)" fill="#94ac2e"/>
        <path id="Trazado_205664" data-name="Trazado 205664" d="M30.318,2.955c-14.362.669-14.059,17.2,0,22.163S47.187,18,47.187,18s13.9,6.791,18.857,1.665S69.091,3.453,59.429,2.955s-15.2,8.436-15.2,8.436-6.8-8.767-13.914-8.436" transform="translate(11.866 1.771)" fill="#94ac2e"/>
        <path id="Trazado_205665" data-name="Trazado 205665" d="M67.111,26.857s.852-5.832-1.875-9.893h0C67.2,23.539,63.667,31.181,59.074,33.2c0,0,6.262-1.764,8.037-6.344" transform="translate(35.656 10.239)" fill="#829620"/>
        <path id="Trazado_205666" data-name="Trazado 205666" d="M36.635,62.614l.329,4.989.3,4.984.569,10.73v4.213c-.309-1.663-1.238-8.23-1.507-9.9s-.492-3.348-.706-5.03c.411,1.644.81,3.291,1.163,4.949s.415,3.347.726,5.01c-.292-3.326-.84-6.6-.936-9.939-.072-1.665-.056-3.334-.064-5s.05-3.335.128-5" transform="translate(21.498 37.793)" fill="#854214"/>
        <path id="Trazado_205667" data-name="Trazado 205667" d="M39.88,107.279a14.359,14.359,0,0,0-2.646-7.941s3.768,3.539,4.553,6.009a44.164,44.164,0,0,1,2.149-8.425s-1.2,4.565-.168,7.976a22,22,0,0,1,1.785-6.185s-.3,4,.961,6.005a42.489,42.489,0,0,1,2.673-7.312s-1.35,4.99-.763,8.489a26.283,26.283,0,0,1,3.273-4.272s-1.567,4.216-.587,6.891H38.6s-1.174-4.115-3.233-4.835a8.843,8.843,0,0,1,4.508,3.6" transform="translate(21.35 58.5)" fill="#7a8d1e"/>
        <path id="Trazado_205668" data-name="Trazado 205668" d="M33.268,107.19s-1.613-6.543-4.123-9.859c0,0,4.48,4.3,5.2,6.453a29.325,29.325,0,0,0-.9-4.66s3.408,5.736,3.674,7.349a10.2,10.2,0,0,1,1.167-4.84s0,3.943.447,4.84c0,0,1.435-6.094,3.047-7.886,0,0-1.971,5.556-1.434,8.6,0,0,1.883-4.213,2.869-4.929,0,0-1.435,3.675-.537,6.005H32.1s-1.076-3.587-2.957-4.213a8.08,8.08,0,0,1,4.123,3.137" transform="translate(17.591 58.747)" fill="#8a9f26"/>
      </g>
    </g>
    <g id="Grupo_152200" data-name="Grupo 152200" transform="translate(288.611 1155.048)">
      <g id="Grupo_152199" data-name="Grupo 152199" clip-path="url(#clip-path-3)">
        <g id="Grupo_152198" data-name="Grupo 152198" transform="translate(0 0)">
          <g id="Grupo_152197" data-name="Grupo 152197" clip-path="url(#clip-path-3)">
            <path id="Trazado_205599" data-name="Trazado 205599" d="M40.876,63.226c.237-8.075,1.819-12.168,4.7-12.168,3.633,0,5.8,4.544,5.8,12.152h1.1c0-8.3-2.581-13.256-6.907-13.256-3.645,0-5.545,4.329-5.807,13.24Z" transform="translate(13.117 16.475)" fill="#904a19"/>
            <path id="Trazado_205600" data-name="Trazado 205600" d="M46.631,65.1a23.868,23.868,0,0,0,3.871-3.52l-.945-.481,1.459-.315s3.862-4.783,4.2-6.646l-.785-.461.956-.207a6.945,6.945,0,0,0,.251-3.951s-4.282,3.086-5.235,4.4l.52,1.309-.86-.814s-2.527,3.652-2.814,5.979l-.225-.794a11.392,11.392,0,0,0-.388,5.505" transform="translate(15.313 16.331)" fill="#8a9f26"/>
            <path id="Trazado_205601" data-name="Trazado 205601" d="M55.089,50.29a21.412,21.412,0,0,1-1.3,2.294c-.84,1.342-2.047,3.077-3.23,4.826a58.164,58.164,0,0,0-3.084,4.934,13.808,13.808,0,0,0-.8,1.762c-.125.456-.2.719-.2.719l.273.048.176-.685a13.572,13.572,0,0,1,.754-1.737,57.712,57.712,0,0,1,2.992-4.964c1.154-1.767,2.332-3.523,3.152-4.88a21.337,21.337,0,0,0,1.265-2.317" transform="translate(15.329 16.586)" fill="#94ac2e"/>
            <path id="Trazado_205602" data-name="Trazado 205602" d="M47.48,66.042a23.908,23.908,0,0,1-3.234-4.116l1.013-.316-1.387-.552s-3.016-5.358-3.036-7.25l.85-.326-.908-.363a6.957,6.957,0,0,1,.407-3.938s3.711,3.753,4.434,5.2l-.729,1.206.984-.662s1.886,4.023,1.783,6.364l.352-.747a11.4,11.4,0,0,1-.529,5.5" transform="translate(13.411 16.22)" fill="#71821c"/>
            <path id="Trazado_205603" data-name="Trazado 205603" d="M41.319,50.007a21.38,21.38,0,0,0,.9,2.477c.606,1.464,1.507,3.374,2.386,5.3a57.872,57.872,0,0,1,2.223,5.376,13.83,13.83,0,0,1,.495,1.868c.047.471.074.742.074.742l-.277,0s-.021-.257-.061-.7a13.238,13.238,0,0,0-.453-1.838,57.8,57.8,0,0,0-2.128-5.39c-.846-1.936-1.715-3.863-2.3-5.337a21.565,21.565,0,0,1-.863-2.495" transform="translate(13.627 16.492)" fill="#829620"/>
            <path id="Trazado_205604" data-name="Trazado 205604" d="M46.661,64.746a18.752,18.752,0,0,1-1.315-4.459l1.09.176-1.077-.989s-.916-2.864-.137-4.313l.94.1-.7-.648s.505-3.692,2.38-5.277a20.077,20.077,0,0,1,1.36,4.446l-.73.826.739-.309s.711,5.166-.375,6.906l.648-.423a8.678,8.678,0,0,1-2.821,3.963" transform="translate(14.811 16.272)" fill="#94ac2e"/>
            <path id="Trazado_205605" data-name="Trazado 205605" d="M47.3,50.075a15.277,15.277,0,0,0-.194,2.255c-.045,1.363,0,3.185.016,5.008a41.2,41.2,0,0,1-.17,5,9.764,9.764,0,0,1-.323,1.622l-.242.6-.262-.112.239-.56a9.508,9.508,0,0,0,.348-1.585,41.529,41.529,0,0,0,.267-4.973c.019-1.819.011-3.641.082-5a15.079,15.079,0,0,1,.238-2.251" transform="translate(15.213 16.515)" fill="#a5c033"/>
            <path id="Trazado_205606" data-name="Trazado 205606" d="M43.354,66.723a14.214,14.214,0,0,0,1.314-3.8l-1.089.149,1.076-.843s.918-2.443.138-3.677l-.94.086.7-.552s-.505-3.146-2.379-4.5a15.335,15.335,0,0,0-1.362,3.79l.73.7-.739-.263s-.711,4.4.374,5.886l-.648-.359a7.449,7.449,0,0,0,2.822,3.378" transform="translate(13.368 17.673)" fill="#94ac2e"/>
            <path id="Trazado_205607" data-name="Trazado 205607" d="M41.868,54.215a11.188,11.188,0,0,1,.194,1.923c.045,1.161,0,2.715-.016,4.269a29.976,29.976,0,0,0,.17,4.265,7.25,7.25,0,0,0,.323,1.383l.242.508.262-.094L42.8,65.99a7.16,7.16,0,0,1-.347-1.351,30.225,30.225,0,0,1-.267-4.241c-.019-1.551-.011-3.1-.082-4.263a11.039,11.039,0,0,0-.238-1.92" transform="translate(13.808 17.88)" fill="#a5c033"/>
            <path id="Trazado_205608" data-name="Trazado 205608" d="M52.546,59.121l-1.067,9-7.559.444V59.319Z" transform="translate(14.486 19.498)" fill="#c38733"/>
            <path id="Trazado_205609" data-name="Trazado 205609" d="M37.435,59.121l1.067,9,7.559.444V59.319Z" transform="translate(12.346 19.498)" fill="#9e6522"/>
            <path id="Trazado_205610" data-name="Trazado 205610" d="M47.021,47.741c.43,1.648,1.354,2.914,1.068,3.774a3.217,3.217,0,0,1-2.15,1.791c-.931.286-3.509-.573-3.653-1s.215-1,0-2.007a11.469,11.469,0,0,1-.105-2.556Z" transform="translate(13.902 15.745)" fill="#f0bb8f"/>
            <path id="Trazado_205611" data-name="Trazado 205611" d="M9.418,37.358c-1.053.133-3.262.343-4.193-.949L6.253,32.25l2.124-.9L11.268,34.4l.339,1.883Z" transform="translate(1.723 10.338)" fill="#e8ac86"/>
            <path id="Trazado_205612" data-name="Trazado 205612" d="M7.774,116.26l1.213-.023a.5.5,0,0,0,.488-.507L7.539,13.778l-2.209.041L7.266,115.772a.5.5,0,0,0,.508.488" transform="translate(1.758 4.544)" fill="#ad9676"/>
            <path id="Trazado_205613" data-name="Trazado 205613" d="M6.791,31.546c-.414-.378-.779-.717-1.181-.189a4.966,4.966,0,0,0-.968,3.318,2.594,2.594,0,0,0,1.622,2.376,1.461,1.461,0,0,0,2.073-.717,7.455,7.455,0,0,0,.37-2.176c.157-.674-1.916-2.613-1.916-2.613" transform="translate(1.524 10.252)" fill="#f0bb8f"/>
            <path id="Trazado_205614" data-name="Trazado 205614" d="M7.723,23.542l.162,8.616a7.079,7.079,0,0,1-2.207.129L5.517,23.7Z" transform="translate(1.82 7.764)" fill="#756556"/>
            <path id="Trazado_205615" data-name="Trazado 205615" d="M9.372,34.5a5.987,5.987,0,0,1-1.279-2.073,4.814,4.814,0,0,1-2.414.189c-.715-.34-.113-.754.867-1.019s1.658-.791,2.149-.641a13.581,13.581,0,0,1,1.844,1.023l1.021,1.5-.641,2Z" transform="translate(1.769 10.2)" fill="#f0bb8f"/>
            <path id="Trazado_205616" data-name="Trazado 205616" d="M36.891,12.831c3.092,1.246,7.483,2.832,8.911,3.943s3.2,6.105,3.363,15.177a164.638,164.638,0,0,0,1.472,19.994c.245,1.735.576,3.056-1.033,4.86a2.838,2.838,0,0,0-.073.858c-.105,1.495-.16,2-.16,2s-3.458,1.134-6.162-.616a53.219,53.219,0,0,0,1.023-11.5,84.838,84.838,0,0,0-1.989-15.041Z" transform="translate(12.167 4.232)" fill="#cc0001"/>
            <path id="Trazado_205617" data-name="Trazado 205617" d="M41.25,12.248c-2.523.637-7.875,1.656-9.785,2.4S23.872,25.831,22.6,28.589s-2.44,5.093-3.927,6.154-6.685,2.122-6.685,3.4H9.546s.426,3.819-1.168,5.517l3.608.848a11,11,0,0,0,6.579-.848c3.184-1.592,7.322-4.564,8.383-6.049s4.842-7.339,4.842-7.339.04,1.822-.066,5.325-1.7,14.536-1.7,14.536l21.963-1.592V23.6L46.295,13.023Z" transform="translate(2.763 4.039)" fill="#cc0001"/>
            <path id="Trazado_205618" data-name="Trazado 205618" d="M40.96,30.577l.723-3.585.568-7.474s1.741,16.248,2.29,18.455c.515,2.067.938,16.447.383,19.827a6.525,6.525,0,0,1-3.057-.96,53.154,53.154,0,0,0,1.021-11.5A83.419,83.419,0,0,0,40.96,30.577" transform="translate(13.509 6.437)" fill="#b00001"/>
            <path id="Trazado_205619" data-name="Trazado 205619" d="M11.832,41.9s.386.664,2.594.387,9.048-3.906,10.318-5.492a131.476,131.476,0,0,0,8.041-12.615,25.1,25.1,0,0,0,2.33-10.838c.294-.068.594-.137.9-.2l1.5,8.218S35.026,34.116,34.86,34.393c-.059.1-1.483,1.468-3.3,3.177.085-.906.142-1.692.161-2.271.106-3.5.066-5.325.066-5.325s-3.781,5.855-4.842,7.341-5.2,4.456-8.382,6.049a11.013,11.013,0,0,1-6.58.847l-3.608-.847c1.593-1.7,1.168-5.519,1.168-5.519h2.44c.707,1.52-.154,4.057-.154,4.057" transform="translate(2.763 4.333)" fill="#b00001"/>
            <path id="Trazado_205620" data-name="Trazado 205620" d="M48.068,30.018C47.62,26.109,46.53,25.23,46,20.986a19.628,19.628,0,0,1,0-6.406l-1.391-.559s.963,8.875-1.847,10.89-7.478.638-8.327-.848S31.585,13.1,31.585,13.1l-1.237.222s1.371,10.2.543,13.067-4.1,6.9-4.1,6.9-1.422,9.24-2.513,14.226-1.2,12.415-.559,18.252,1.166,18.25,1.06,21.01l-.105,2.759h8.807s.211-4.988.637-7.746,1.664-12.4,1.664-12.4.491,12.4.422,14.521,0,5.625,0,5.625,8.419.743,8.737.743,0-2.548.637-6.049,1.8-12.2,2.493-19.1.056-14.008-.527-19.95.527-15.16.527-15.16" transform="translate(7.692 4.32)" fill="#3e3868"/>
            <path id="Trazado_205621" data-name="Trazado 205621" d="M31.9,88.158s1.527-16.534,1.527-17.022a42.534,42.534,0,0,1-9.281,0s1.637,15.4,1.746,17.035-.109,5.459-.164,7.642-.218,3.876,4.477,4.04,3.714-3.016,3.66-3.508-1.2-3.112-1.529-4.311a25.136,25.136,0,0,1-.436-3.876" transform="translate(7.965 23.461)" fill="#f9bd4b"/>
            <path id="Trazado_205622" data-name="Trazado 205622" d="M41.538,72.824S39.088,86.288,38.924,88.2s-.547,3.876,1.173,5.3,2.43,1.31,3.031,2.457a2.01,2.01,0,0,1-.765,2.674,8.327,8.327,0,0,1-4.63.3c-1.858-.6-2.9-2.375-3.94-3.3a2.5,2.5,0,0,1-1.037-2.129,50.633,50.633,0,0,0,.334-5.351c-.06-2.346,0-16.431,0-16.431a29.712,29.712,0,0,0,8.45,1.112" transform="translate(10.803 23.651)" fill="#f9bd4b"/>
            <path id="Trazado_205623" data-name="Trazado 205623" d="M42.114,4.182c-.41-1.6-1.33-3.3-2.685-3.722a11.392,11.392,0,0,0-6.676.073c-1.468.653-1.934,3.238-1.931,3.927s11.291-.278,11.291-.278" transform="translate(10.166 0)" fill="#ffe7ad"/>
            <path id="Trazado_205624" data-name="Trazado 205624" d="M41.791,2.542s.249.773.323,1.059c0,0-11.289.964-11.291.278A5.516,5.516,0,0,1,31.064,2.5l.047-.218a21.577,21.577,0,0,1,10.681.259" transform="translate(10.166 0.582)" fill="#cc0001"/>
            <path id="Trazado_205625" data-name="Trazado 205625" d="M44.074,13.365c4.141-1.162,8.6-4.5,6.633-6.793S45.463,2.317,37.179,2.317c-8.22,0-11.734,3.8-12.388,6.085s3.852,4.608,6.9,5.045,8.38,1.039,12.379-.082" transform="translate(8.155 0.764)" fill="#f7d49c"/>
            <path id="Trazado_205626" data-name="Trazado 205626" d="M44.074,12.842c-4,1.121-9.326.519-12.379.082s-7.559-2.755-6.9-5.045A7.479,7.479,0,0,1,28.27,3.9h0a3.432,3.432,0,0,0,.338,4.6c2.209,2.31,10.63,4.11,16.016,2.453s6.451-3.035,6.08-4.907c1.963,2.289-2.492,5.63-6.633,6.793" transform="translate(8.155 1.287)" fill="#edc78a"/>
            <path id="Trazado_205627" data-name="Trazado 205627" d="M35.333,3.9c1.734,0,3.392.227,4.447,1.356s2.185,3.767,1.957,5.274a8.7,8.7,0,0,0,.379,5.124c.828,1.81.527,3.468,0,5.427s1.279,4.294,2.108,4.6a4.929,4.929,0,0,1-4.444-1.657,6.638,6.638,0,0,1-1.523-5.92c.541-1.392-2.21-3.071-2.448-4.622-.092-.594-.476-7.694-.476-7.694Z" transform="translate(11.653 1.287)" fill="#7a553c"/>
            <path id="Trazado_205628" data-name="Trazado 205628" d="M37.465,3.9c-3.767,0-5.424.979-6.1,1.883A6.251,6.251,0,0,0,29.7,9.933c0,2.108,1.156,3.564.33,4.887a4.777,4.777,0,0,0-.283,5.157c1.149,1.985,1.04,3.855-.882,5.759,0,0,3.617-.733,4.616-3.071s-.019-3.314,0-5.048,1.84-2.749,1.689-4.633,2.291-7.2,2.291-7.2Z" transform="translate(9.521 1.287)" fill="#7a553c"/>
            <path id="Trazado_205629" data-name="Trazado 205629" d="M28.869,24.811c1.634-1.618,1.957-3.213,1.311-4.875,1.233.824,2.2-1.355,1.915-2.825-.348-1.777.871-3.031.384-4.008s-.105-5.331.448-6.391c0,0,1.582,2.253,2.5,3.576a5.9,5.9,0,0,0-.257,1.771c.152,1.884-1.67,2.9-1.689,4.633s1,2.713,0,5.048-4.616,3.071-4.616,3.071" transform="translate(9.521 2.213)" fill="#694329"/>
            <path id="Trazado_205630" data-name="Trazado 205630" d="M38.732,6.712c1.08,2.34.278,4.465.324,6.4s.754,3.282.243,5.4,1.967,4.755,2.322,4.2a4.012,4.012,0,0,0,.328-1.665,4.948,4.948,0,0,0,2.2,3.708A4.924,4.924,0,0,1,39.705,23.1a6.634,6.634,0,0,1-1.523-5.919c.541-1.394-2.21-3.069-2.448-4.621-.032-.209-.1-1.2-.174-2.408a36.766,36.766,0,0,1,3.172-3.436" transform="translate(11.728 2.213)" fill="#694329"/>
            <path id="Trazado_205631" data-name="Trazado 205631" d="M38.013,11.567a3.652,3.652,0,0,0,.193,1.972c.246.57-.152,1.682-2.648,2.688a5.068,5.068,0,0,1-2.467-1.711c-.557-1.074.314-.964.059-2.948s4.863,0,4.863,0" transform="translate(10.851 3.524)" fill="#e8ac86"/>
            <path id="Trazado_205632" data-name="Trazado 205632" d="M36.557,4.221a8.53,8.53,0,0,0,3.375,3.313,8.415,8.415,0,0,1,.126,2.239c-.07,1.052-1.113,5.122-3.969,5.122a4.12,4.12,0,0,1-3.943-3.56c-.162-1.055-.182-3.485-.225-3.8,0,0,4.168-1.189,4.636-3.313" transform="translate(10.528 1.392)" fill="#f0bb8f"/>
            <path id="Trazado_205633" data-name="Trazado 205633" d="M34.9,15.669l.392-1.516,2.12-1.778.707,1.555-2.092,2.386Z" transform="translate(11.51 4.081)" fill="#cc0001"/>
            <path id="Trazado_205634" data-name="Trazado 205634" d="M35.688,15.739l-.362-1.573-2.019-2-.8,1.7,1.54,2.3h1.638Z" transform="translate(10.722 4.011)" fill="#cc0001"/>
            <path id="Trazado_205635" data-name="Trazado 205635" d="M17.056,28.51a3.168,3.168,0,0,1,2.624,1.524s-2.164-1.338-3.561-.648Z" transform="translate(5.316 9.396)" fill="#b00001"/>
            <path id="Trazado_205636" data-name="Trazado 205636" d="M44.5,44.187c.32,2.991,1.858,2.789,2.932,2.473a2.881,2.881,0,0,0-.073.858c-.105,1.495-.16,2-.16,2a9.03,9.03,0,0,1-3.726.275c.178-2.027.757-8.116,1.027-5.606" transform="translate(14.338 14.376)" fill="#b00001"/>
            <path id="Trazado_205637" data-name="Trazado 205637" d="M15.293,29.174l-13.911.588A1.255,1.255,0,0,1,0,28.6C0,24.328.548,10.266,7.758,9.9c7.245-.366,8.56,13.834,8.789,18.051a1.229,1.229,0,0,1-1.254,1.221" transform="translate(0 3.263)" fill="#6e6e6e"/>
            <path id="Trazado_205638" data-name="Trazado 205638" d="M32.755,93.323a50.253,50.253,0,0,0,.334-5.351c-.047-1.825-.021-10.748-.007-14.625.505-.645.965-1.17,1.078-1.112.213.112,4.871,1.572,7.047,2.253-.085.471-.182,1.016-.287,1.608a12.341,12.341,0,0,1-6.258.3s-.278,13.591-.39,15.318S35.554,95,36.388,96.168s3.436,2.443,6.733,1.5l.009,0a1.581,1.581,0,0,1-.766.79,8.333,8.333,0,0,1-4.632.3c-1.856-.6-2.9-2.375-3.94-3.3a2.5,2.5,0,0,1-1.037-2.129" transform="translate(10.803 23.822)" fill="#f2ae41"/>
            <g id="Grupo_152196" data-name="Grupo 152196" transform="translate(0 15.068)" opacity="0.3">
              <g id="Grupo_152195" data-name="Grupo 152195">
                <g id="Grupo_152194" data-name="Grupo 152194" clip-path="url(#clip-path-5)">
                  <path id="Trazado_205639" data-name="Trazado 205639" d="M3.965,11.336C1.309,15.245,2.414,26.573,2.919,27.247s10.932,1.065,13.6-.211c.011.158.019.306.027.444A1.231,1.231,0,0,1,15.293,28.7l-13.911.588A1.255,1.255,0,0,1,0,28.128c0-3.354.336-12.74,3.969-16.8l0,.005" transform="translate(0 -11.331)" fill="#424242"/>
                </g>
              </g>
            </g>
            <path id="Trazado_205640" data-name="Trazado 205640" d="M8.209,27.378S7.765,17.641,6.578,16c0,0-1.471,1.36-1.471,11.506Z" transform="translate(1.684 5.278)" fill="#424242"/>
            <path id="Trazado_205641" data-name="Trazado 205641" d="M8.725,76.083l.362,19.1a.5.5,0,0,1-.488.508l-1.213.023a.5.5,0,0,1-.508-.488L6.507,76.188Z" transform="translate(2.146 25.093)" fill="#756556"/>
            <path id="Trazado_205642" data-name="Trazado 205642" d="M24.194,71.654a4.471,4.471,0,0,1,1.129-.416c.491.044.984.074,1.472.1,1.525.246,4.383.749,6.5,1.253-.065.75-.153,1.733-.251,2.842-1.858.956-6.928.9-6.928.9s1.114,12.031.948,14.092-1.29,6.238-.391,7.633,6.287,1.225,7.21,0l.005-.007c-.243.932-1.1,1.862-3.7,1.771-4.7-.164-4.532-1.856-4.477-4.04s.274-6.005.165-7.642c-.1-1.452-1.395-13.718-1.689-16.483" transform="translate(7.979 23.495)" fill="#f2ae41"/>
            <path id="Trazado_205643" data-name="Trazado 205643" d="M42.016,70.622c.555.082.259,1.2,0,3.2s-.3,2.156-.945,2.254c-1.875.286-7.382-.13-7.972-.56s-.387-4.936-.322-5.222,1.4-.286,3.211,0,5.335.223,6.028.326" transform="translate(10.781 23.113)" fill="#f9bd4b"/>
            <path id="Trazado_205644" data-name="Trazado 205644" d="M28.581,86.238h-3.91s0-.044.105-2.759c.106-2.758-.424-15.173-1.061-21.01s-.531-13.265.56-18.252,2.512-14.226,2.512-14.226,3.275-4.036,4.1-6.9c-.959,8.019-2.52,23.96-3.072,35.145-.484,9.821.513,24.55.763,28" transform="translate(7.692 7.615)" fill="#2e2a4b"/>
            <path id="Trazado_205645" data-name="Trazado 205645" d="M36.508,64.2c.088,3.95.326,11.785.431,15.281l-3.354-.294-.48-.287c-.012-.832-.053-3.593.005-5.378C33.18,71.4,32.689,59,32.689,59l1.35-14.4s2.351,14.42,2.469,19.6" transform="translate(10.781 14.709)" fill="#2e2a4b"/>
            <path id="Trazado_205646" data-name="Trazado 205646" d="M33.328,70.083c.527-.04.5.259.472,1.56s.144,3.125-.592,3.552-5.517,1.02-8.551.219c0,0-.239,0-.416-.694s-.868-4.713.273-4.637a68.012,68.012,0,0,0,8.814,0" transform="translate(7.873 23.112)" fill="#f9bd4b"/>
            <path id="Trazado_205647" data-name="Trazado 205647" d="M23.92,70.825c.082-.461.258-.762.58-.742a67.992,67.992,0,0,0,8.813,0c.387-.029.475.125.484.723a15.011,15.011,0,0,1-5.358.678,5.088,5.088,0,0,0,2.117-.68s-4.084.767-6.636.02" transform="translate(7.889 23.112)" fill="#fcc865"/>
            <path id="Trazado_205648" data-name="Trazado 205648" d="M35.966,70.3c1.811.286,5.335.223,6.028.326.3.044.351.384.3,1-.4,0-7.31.015-9.536-1.322.066-.286,1.4-.286,3.211,0" transform="translate(10.803 23.113)" fill="#fcc865"/>
          </g>
        </g>
      </g>
    </g>
  </g>
</svg>
