<svg xmlns="http://www.w3.org/2000/svg" xmlns:xlink="http://www.w3.org/1999/xlink" width="190" height="176" viewBox="0 0 190 176"><defs><clipPath id="a"><rect width="132.999" height="167.014" fill="none"/></clipPath><clipPath id="b"><rect width="132.998" height="167.014" fill="none"/></clipPath><clipPath id="c"><rect width="3.644" height="3.822" fill="none"/></clipPath><clipPath id="d"><rect width="4.607" height="5.611" fill="none"/></clipPath><clipPath id="e"><rect width="3.73" height="3.09" fill="none"/></clipPath><clipPath id="f"><rect width="5.419" height="3.942" fill="none"/></clipPath><clipPath id="g"><rect width="3.731" height="3.09" fill="none"/></clipPath><clipPath id="h"><rect width="5.422" height="3.942" fill="none"/></clipPath><clipPath id="i"><rect width="3.695" height="3.15" fill="none"/></clipPath><clipPath id="j"><rect width="5.232" height="4.193" fill="none"/></clipPath><clipPath id="k"><rect width="3.941" height="4.623" fill="none"/></clipPath><clipPath id="l"><rect width="2.478" height="3.311" fill="none"/></clipPath><clipPath id="m"><rect width="3.77" height="3.701" fill="none"/></clipPath><clipPath id="n"><rect width="4.937" height="5.174" fill="none"/></clipPath><clipPath id="o"><rect width="4.155" height="4.08" fill="none"/></clipPath><clipPath id="p"><rect width="5.442" height="5.703" fill="none"/></clipPath><clipPath id="q"><rect width="4.039" height="3.274" fill="none"/></clipPath><clipPath id="r"><rect width="6.033" height="3.694" fill="none"/></clipPath><clipPath id="s"><rect width="4.133" height="3.957" fill="none"/></clipPath><clipPath id="t"><rect width="5.36" height="5.828" fill="none"/></clipPath><clipPath id="u"><rect width="5.66" height="4.543" fill="none"/></clipPath><clipPath id="v"><rect width="3.585" height="3.401" fill="none"/></clipPath><clipPath id="w"><rect width="5.661" height="4.543" fill="none"/></clipPath><clipPath id="x"><rect width="3.585" height="3.4" fill="none"/></clipPath><clipPath id="y"><rect width="87.628" height="61.164" fill="none"/></clipPath><clipPath id="z"><rect width="5.272" height="5.176" fill="none"/></clipPath><clipPath id="aa"><rect width="6.903" height="7.235" fill="none"/></clipPath><clipPath id="ab"><rect width="5.599" height="4.628" fill="none"/></clipPath><clipPath id="ac"><rect width="8.3" height="4.926" fill="none"/></clipPath><clipPath id="ae"><rect width="6.905" height="7.235" fill="none"/></clipPath><clipPath id="af"><rect width="5.583" height="4.498" fill="none"/></clipPath><clipPath id="ag"><rect width="8.309" height="5.294" fill="none"/></clipPath><clipPath id="ah"><rect width="5.124" height="4.155" fill="none"/></clipPath><clipPath id="ai"><rect width="7.655" height="4.686" fill="none"/></clipPath><clipPath id="aj"><rect width="5.246" height="5.021" fill="none"/></clipPath><clipPath id="ak"><rect width="6.801" height="7.395" fill="none"/></clipPath><clipPath id="al"><rect width="6.286" height="6.796" fill="none"/></clipPath><clipPath id="am"><rect width="3.922" height="4.876" fill="none"/></clipPath><clipPath id="an"><rect width="6.286" height="6.798" fill="none"/></clipPath><clipPath id="ao"><rect width="3.921" height="4.876" fill="none"/></clipPath><clipPath id="ap"><rect width="19.845" height="7.394" fill="none"/></clipPath><clipPath id="aq"><rect width="14.834" height="64.327" fill="none"/></clipPath><clipPath id="ar"><rect width="7.38" height="64.908" fill="none"/></clipPath><clipPath id="as"><rect width="8.108" height="5.352" fill="none"/></clipPath><clipPath id="at"><rect width="19.487" height="10.088" fill="none"/></clipPath><clipPath id="au"><path d="M77.539,68.891a11.589,11.589,0,0,0-4.385,1.043c-1.654.559-1.851,5.134-1.837,5.507.034.773,2.531,1.838,7.134,1.838h0c.4,0,.806-.01,1.221-.027a22.38,22.38,0,0,0,5.964-.971c1.654-.558,2.226-1.156,2.212-1.531-.022-.49-1.931-5.2-3.871-5.581-1.1-.215-.974-.928-2.64-.928-.4,0-3.385.632-3.8.649" transform="translate(-71.317 -68.242)" fill="none"/></clipPath><clipPath id="av"><rect width="4.331" height="3.571" fill="none"/></clipPath><clipPath id="aw"><rect width="6.33" height="4.455" fill="none"/></clipPath><clipPath id="ax"><rect width="4.056" height="3.982" fill="none"/></clipPath><clipPath id="ay"><rect width="5.313" height="5.566" fill="none"/></clipPath><clipPath id="ba"><rect width="6.332" height="4.455" fill="none"/></clipPath><clipPath id="bb"><rect width="4.332" height="3.571" fill="none"/></clipPath><clipPath id="bc"><rect width="6.332" height="4.454" fill="none"/></clipPath><clipPath id="be"><rect width="36.535" height="118.551" fill="none"/></clipPath></defs><g transform="translate(-1125 -1109)"><ellipse cx="95" cy="11" rx="95" ry="11" transform="translate(1125 1263)" fill="#e5efd4"/><g transform="translate(1177.249 1109)"><g clip-path="url(#a)"><g clip-path="url(#b)"><path d="M42.519,89.133a6.042,6.042,0,0,1,1.46.753c.4.4.551.941.205,2a2.906,2.906,0,0,1-3.494,1.729,5.508,5.508,0,0,0-1.814-.8c-.854-.232-.43-3.44.37-4.214a1.681,1.681,0,0,1,1.8-.415,7.463,7.463,0,0,1,1.471.946" transform="translate(23.15 53.098)" fill="#cc0001"/><g transform="translate(63.407 141.915)" opacity="0.5"><g clip-path="url(#c)"><path d="M42.158,89.235c1.361.979,1.628,2.407-.619,3.082s-3.228-5.858.619-3.082" transform="translate(-39.561 -88.543)" fill="#e63739"/></g></g><g transform="translate(61.557 141.236)" opacity="0.5"><g clip-path="url(#d)"><path d="M39.246,88.585a1.757,1.757,0,0,1,.785-.465v0c-1.2,1.023-.96,4.015.1,4.268.984.236,1.188,1.338,2.883.888a2.794,2.794,0,0,1-2.324.321,5.542,5.542,0,0,0-1.814-.8c-.854-.232-.43-3.44.37-4.214" transform="translate(-38.406 -88.12)" fill="#b00001"/></g></g><path d="M41.687,89.487c1.019.545-.813,2.074-.713,1.534.093-.508.324-1.744.713-1.534" transform="translate(24.695 53.926)" fill="#e63739"/><path d="M44.13,88.634c1.284-.186,2.108-.667,2.847,1.047a2.656,2.656,0,0,1-1.353,3.3,5.124,5.124,0,0,0-1.728.547c-.726.357-2.371-2.1-2.289-3.114s.79-1.524,2.523-1.774" transform="translate(25.078 53.302)" fill="#cc0001"/><g transform="translate(67.887 142.024)" opacity="0.5"><g clip-path="url(#e)"><path d="M44.161,88.627c1.524-.149,2.584.784,1.449,2.6s-5.764-2.183-1.449-2.6" transform="translate(-42.356 -88.611)" fill="#e63739"/></g></g><path d="M43.6,89.311a1.578,1.578,0,0,0-.139-.747,1.189,1.189,0,0,0-.34-.417,1.893,1.893,0,0,0-.212-.13l-.08.181a1.34,1.34,0,0,1,.183.1.979.979,0,0,1,.3.34,1.292,1.292,0,0,1,.146.45,1.243,1.243,0,0,1,.013.215Z" transform="translate(25.816 53.055)" fill="#904a19"/><path d="M42.931,88.972c.011.062.263.069.564.018s.535-.144.524-.205-.263-.071-.563-.019-.535.144-.526.207" transform="translate(25.878 53.485)" fill="#904a19"/><g transform="translate(66.682 142.917)" opacity="0.5"><g clip-path="url(#f)"><path d="M41.607,89.962a1.592,1.592,0,0,1,.26-.793v0c-.2,1.423,1.763,3.334,2.643,2.869.817-.433,1.624.2,2.513-1.132a2.554,2.554,0,0,1-1.4,1.622,5.116,5.116,0,0,0-1.728.545c-.724.359-2.371-2.1-2.289-3.113" transform="translate(-41.604 -89.169)" fill="#b00001"/></g></g><path d="M44.008,88.9c1.029-.24.7,1.912.436,1.483-.244-.4-.83-1.39-.436-1.483" transform="translate(26.447 53.577)" fill="#e63739"/><path d="M37.7,88.546c1.284-.186,2.108-.667,2.845,1.047a2.652,2.652,0,0,1-1.351,3.3,5.13,5.13,0,0,0-1.729.547c-.726.357-2.369-2.1-2.289-3.114s.792-1.524,2.524-1.774" transform="translate(21.204 53.249)" fill="#cc0001"/><g transform="translate(57.586 141.883)" opacity="0.5"><g clip-path="url(#g)"><path d="M37.734,88.539c1.524-.149,2.585.784,1.449,2.6s-5.764-2.183-1.449-2.6" transform="translate(-35.929 -88.524)" fill="#e63739"/></g></g><path d="M37.174,89.223a1.567,1.567,0,0,0-.141-.747,1.169,1.169,0,0,0-.338-.417,1.509,1.509,0,0,0-.212-.13l-.082.183a1.093,1.093,0,0,1,.184.1.979.979,0,0,1,.3.34,1.256,1.256,0,0,1,.144.449,1.032,1.032,0,0,1,.014.216Z" transform="translate(21.942 53.002)" fill="#904a19"/><path d="M36.505,88.884c.011.061.261.071.563.019s.535-.146.524-.207-.261-.071-.563-.019-.537.144-.524.207" transform="translate(22.004 53.432)" fill="#904a19"/><g transform="translate(56.38 142.777)" opacity="0.5"><g clip-path="url(#h)"><path d="M35.179,89.874a1.6,1.6,0,0,1,.261-.793v0c-.205,1.422,1.765,3.334,2.643,2.869.817-.433,1.624.2,2.515-1.132a2.559,2.559,0,0,1-1.4,1.622,5.105,5.105,0,0,0-1.728.545c-.724.359-2.37-2.1-2.29-3.113" transform="translate(-35.177 -89.081)" fill="#b00001"/></g></g><path d="M37.581,88.815c1.031-.24.7,1.912.436,1.483-.244-.4-.83-1.39-.436-1.483" transform="translate(22.573 53.524)" fill="#e63739"/><path d="M34.47,88.531c1.3.018,2.188-.329,2.648,1.481a2.655,2.655,0,0,1-1.851,3.042,5.063,5.063,0,0,0-1.794.269c-.773.24-2.013-2.444-1.773-3.433s1.019-1.383,2.77-1.359" transform="translate(19.09 53.355)" fill="#cc0001"/><g transform="translate(52.051 142.054)" opacity="0.5"><g clip-path="url(#i)"><path d="M34.446,88.641c1.529.093,2.431,1.178,1.026,2.8s-5.353-3.06-1.026-2.8" transform="translate(-32.475 -88.63)" fill="#e63739"/></g></g><path d="M33.723,89.332a1.559,1.559,0,0,0-.021-.761,1.132,1.132,0,0,0-.269-.463,1.446,1.446,0,0,0-.189-.16l-.107.164a1.741,1.741,0,0,1,.163.128.97.97,0,0,1,.248.385,1.3,1.3,0,0,1,.074.466,1.26,1.26,0,0,1-.021.213Z" transform="translate(19.973 53.012)" fill="#904a19"/><path d="M33.12,88.853c0,.063.25.109.555.1s.55-.058.55-.12-.248-.109-.553-.1-.551.058-.551.12" transform="translate(19.964 53.486)" fill="#904a19"/><g transform="translate(50.76 142.501)" opacity="0.5"><g clip-path="url(#j)"><path d="M31.7,89.653a1.581,1.581,0,0,1,.38-.744l0,0c-.422,1.374,1.221,3.569,2.162,3.249.875-.3,1.572.452,2.661-.726a2.555,2.555,0,0,1-1.635,1.385,5.036,5.036,0,0,0-1.8.269c-.771.239-2.011-2.446-1.771-3.435" transform="translate(-31.67 -88.909)" fill="#b00001"/></g></g><path d="M34.194,88.983c1.053-.079.386,2,.2,1.532-.176-.438-.6-1.5-.2-1.532" transform="translate(20.51 53.635)" fill="#e63739"/><path d="M27.859,91.716c-.146,1.3.737,2.885,2.032,3.029a2.984,2.984,0,0,0,2.981-2.387c.146-1.293-1.16-2.154-2.454-2.3s-2.414.364-2.56,1.657" transform="translate(16.783 54.271)" fill="#cc0001"/><g transform="translate(44.627 144.405)" opacity="0.5"><g clip-path="url(#k)"><path d="M29.223,90.1v0a2.736,2.736,0,0,0,.438,3.417,2.874,2.874,0,0,0,2.125.561,2.7,2.7,0,0,1-1.894.631c-1.3-.144-2.177-1.734-2.032-3.029A1.761,1.761,0,0,1,29.223,90.1" transform="translate(-27.843 -90.096)" fill="#b00001"/></g></g><g transform="translate(46.838 144.532)" opacity="0.5"><g clip-path="url(#l)"><path d="M30.557,90.4a1.594,1.594,0,0,1,.489,2.808c-1.045.792-1.4-.268-1.555-.869s-.9-2.867,1.066-1.939" transform="translate(-29.223 -90.176)" fill="#e63739"/></g></g><path d="M30.448,90.727a.777.777,0,0,1,.272,1.306c-.433.527-.965-1.664-.272-1.306" transform="translate(18.152 54.664)" fill="#e63739"/><path d="M37.054,90.333c1.306.5,2.337.479,2.133,2.479a2.862,2.862,0,0,1-3,2.393,5.459,5.459,0,0,0-1.914-.391c-.87-.043-1.13-3.22-.523-4.134s1.543-1.021,3.307-.348" transform="translate(20.143 54.189)" fill="#cc0001"/><g transform="translate(55.162 144.519)" opacity="0.5"><g clip-path="url(#m)"><path d="M36.854,90.522c1.513.66,2.023,2.095,0,3.212s-4.284-5.081,0-3.212" transform="translate(-34.417 -90.168)" fill="#e63739"/></g></g><path d="M35.72,91.085a1.666,1.666,0,0,0,.26-.777,1.234,1.234,0,0,0-.1-.571,1.523,1.523,0,0,0-.131-.231l-.17.127a1.572,1.572,0,0,1,.117.189,1.015,1.015,0,0,1,.111.481,1.4,1.4,0,0,1-.1.5,1.19,1.19,0,0,1-.1.21Z" transform="translate(21.446 53.952)" fill="#904a19"/><path d="M35.283,90.358c-.022.064.21.2.521.311s.58.146.6.082-.213-.2-.523-.311-.579-.146-.6-.082" transform="translate(21.267 54.446)" fill="#904a19"/><g transform="translate(53.559 144.259)" opacity="0.5"><g clip-path="url(#n)"><path d="M33.749,90.617a1.715,1.715,0,0,1,.659-.611v0c-.938,1.234-.088,4.065.984,4.089,1,.021,1.425,1.039,2.962.252a2.743,2.743,0,0,1-2.169.793,5.55,5.55,0,0,0-1.915-.391c-.87-.043-1.13-3.22-.521-4.134" transform="translate(-33.416 -90.006)" fill="#b00001"/></g></g><path d="M36.382,90.9c1.1.313-.349,2.167-.367,1.625-.016-.508-.053-1.744.367-1.625" transform="translate(21.704 54.787)" fill="#e63739"/><path d="M43.937,90.416c1.441.55,2.576.527,2.351,2.733a3.157,3.157,0,0,1-3.31,2.638,5.989,5.989,0,0,0-2.109-.431c-.96-.048-1.247-3.55-.575-4.557s1.7-1.124,3.643-.383" transform="translate(24.067 54.213)" fill="#cc0001"/><g transform="translate(65.762 144.627)" opacity="0.5"><g clip-path="url(#o)"><path d="M43.716,90.625c1.668.728,2.231,2.308,0,3.541s-4.722-5.6,0-3.541" transform="translate(-41.03 -90.235)" fill="#e63739"/></g></g><path d="M42.468,91.247a1.858,1.858,0,0,0,.289-.856,1.411,1.411,0,0,0-.114-.63,1.628,1.628,0,0,0-.143-.255l-.189.141a1.539,1.539,0,0,1,.131.208,1.164,1.164,0,0,1,.122.527,1.6,1.6,0,0,1-.111.551,1.573,1.573,0,0,1-.111.231Z" transform="translate(25.504 53.952)" fill="#904a19"/><path d="M41.985,90.445c-.026.069.232.224.574.343s.64.159.664.09-.232-.224-.575-.343-.636-.16-.662-.09" transform="translate(25.306 54.497)" fill="#904a19"/><g transform="translate(63.995 144.34)" opacity="0.5"><g clip-path="url(#p)"><path d="M40.294,90.729a1.933,1.933,0,0,1,.728-.673l0,0c-1.034,1.361-.095,4.48,1.085,4.505,1.1.024,1.569,1.146,3.265.279a3.024,3.024,0,0,1-2.39.874,6.046,6.046,0,0,0-2.111-.43c-.958-.048-1.247-3.55-.575-4.557" transform="translate(-39.928 -90.057)" fill="#b00001"/></g></g><path d="M43.2,91.042c1.207.345-.385,2.385-.4,1.79-.019-.559-.059-1.922.4-1.79" transform="translate(25.788 54.873)" fill="#e63739"/><path d="M39.037,90.446a6.044,6.044,0,0,1,1.444-.779c.556-.106,1.087.079,1.766.962a2.906,2.906,0,0,1-.547,3.859,5.552,5.552,0,0,0-1.686,1.047c-.675.574-3.081-1.588-3.268-2.688a1.679,1.679,0,0,1,.676-1.718,7.483,7.483,0,0,1,1.614-.683" transform="translate(22.131 54.033)" fill="#cc0001"/><g transform="translate(60.016 144.211)" opacity="0.5"><g clip-path="url(#q)"><path d="M39.094,90.178c1.576-.569,2.9.018,2.191,2.252s-6.658-.644-2.191-2.252" transform="translate(-37.445 -89.976)" fill="#e63739"/></g></g><g transform="translate(58.846 145.968)" opacity="0.5"><g clip-path="url(#r)"><path d="M36.747,91.983a1.755,1.755,0,0,1,.063-.91v0c.168,1.563,2.77,3.061,3.577,2.33.748-.678,1.776-.224,2.361-1.877a2.787,2.787,0,0,1-1.047,2.1,5.533,5.533,0,0,0-1.686,1.047c-.675.574-3.081-1.588-3.268-2.688" transform="translate(-36.715 -91.072)" fill="#b00001"/></g></g><path d="M39.059,90.221c1.027-.532,1.253,1.842.862,1.454-.365-.361-1.253-1.249-.862-1.454" transform="translate(23.485 54.336)" fill="#e63739"/><path d="M50.864,90.765a6.529,6.529,0,0,1,1.705.545c.5.356.761.912.58,2.114a3.167,3.167,0,0,1-3.443,2.491,6.038,6.038,0,0,0-2.095-.534c-.962-.093-1.083-3.617-.364-4.6a1.836,1.836,0,0,1,1.861-.771,8.218,8.218,0,0,1,1.755.752" transform="translate(28.201 54.246)" fill="#cc0001"/><g transform="translate(76.783 144.947)" opacity="0.5"><g clip-path="url(#s)"><path d="M50.483,91c.489.3,1.048.415,1.3.769.54.777.3,1.723-1.273,2.5-1.167.574-2.316-.907-2.556-2.205-.237-1.26.484-2.313,2.534-1.064" transform="translate(-47.907 -90.435)" fill="#e63739"/></g></g><g transform="translate(74.987 144.389)" opacity="0.5"><g clip-path="url(#t)"><path d="M47.248,90.727a1.9,1.9,0,0,1,.761-.64v0c-1.1,1.314-.309,4.488.874,4.57,1.1.075,1.521,1.226,3.263.434a3.046,3.046,0,0,1-2.439.765,6.084,6.084,0,0,0-2.095-.534c-.962-.091-1.083-3.617-.364-4.6" transform="translate(-46.785 -90.087)" fill="#b00001"/></g></g><path d="M50.125,91.191c1.194.4-.5,2.375-.49,1.777.008-.563.032-1.931.49-1.777" transform="translate(29.919 54.96)" fill="#e63739"/><path d="M43.643,93.4c.607,1.423,2.451,2.547,3.876,1.939A3.547,3.547,0,0,0,49.2,91.129c-.607-1.423-2.462-1.548-3.887-.941S43.036,91.98,43.643,93.4" transform="translate(26.188 54.155)" fill="#cc0001"/><g transform="translate(69.633 145.123)" opacity="0.5"><g clip-path="url(#u)"><path d="M44.126,90.545h0c-.277,1.789,1.543,3.089,2.454,3.278a3.42,3.42,0,0,0,2.526-.665,3.2,3.2,0,0,1-1.587,1.761c-1.423.607-3.268-.516-3.876-1.938a2.094,2.094,0,0,1,.482-2.436" transform="translate(-43.445 -90.545)" fill="#b00001"/></g></g><g transform="translate(71.498 144.203)" opacity="0.5"><g clip-path="url(#v)"><path d="M45.867,89.979c1.7-.127,2.768,1.184,2.149,2.617s-1.6.542-2.116.014-2.611-2.438-.034-2.632" transform="translate(-44.609 -89.971)" fill="#e63739"/></g></g><path d="M46,90.234a.921.921,0,0,1,1.048,1.189c-.139.8-1.971-1.156-1.048-1.189" transform="translate(27.571 54.39)" fill="#e63739"/><path d="M30.206,94.014c.609,1.423,2.452,2.548,3.876,1.941a3.548,3.548,0,0,0,1.685-4.214c-.607-1.423-2.46-1.548-3.885-.941s-2.282,1.79-1.675,3.214" transform="translate(18.088 54.524)" fill="#cc0001"/><g transform="translate(48.099 146.104)" opacity="0.5"><g clip-path="url(#w)"><path d="M30.687,91.157h0c-.279,1.787,1.543,3.087,2.455,3.278a3.414,3.414,0,0,0,2.524-.665l0,0a3.216,3.216,0,0,1-1.588,1.765c-1.423.606-3.266-.519-3.876-1.941a2.1,2.1,0,0,1,.481-2.435" transform="translate(-30.01 -91.157)" fill="#b00001"/></g></g><g transform="translate(49.963 145.185)" opacity="0.5"><g clip-path="url(#x)"><path d="M32.431,90.592c1.7-.128,2.768,1.184,2.151,2.616s-1.6.542-2.117.014-2.609-2.436-.034-2.63" transform="translate(-31.173 -90.583)" fill="#e63739"/></g></g><path d="M32.563,90.846a.921.921,0,0,1,1.047,1.191c-.139.8-1.97-1.154-1.047-1.191" transform="translate(19.472 54.758)" fill="#e63739"/><path d="M58.222,92l-2.337,14.641-16.566.721V92.328Z" transform="translate(23.7 55.458)" fill="#c38733"/><path d="M27.526,92l2.335,14.641,16.566.721V92.328Z" transform="translate(16.592 55.458)" fill="#9e6522"/><path d="M42.484,81.8c-1.97,11.2-5.72-2.3-9.524-7.131S17.121,58.05,17.756,48.1l-2,.75s1.917,9.724,6.892,15.694S39.2,92.678,39.72,101.43A48.627,48.627,0,0,0,43.59,96.2c.4-1.019-1.106-14.395-1.106-14.395" transform="translate(9.499 28.995)" fill="#854214"/><path d="M22.742,64.916c-1.9-2.592-1.494-14.608-1.494-14.608l-1.266-1.422s-.9,14.053,2.867,18.318Z" transform="translate(11.988 29.468)" fill="#854214"/><path d="M27.021,66.768,26.49,66a19.351,19.351,0,0,0-1.677-1.923c-1.457-1.5-3.625-3.265-5.512-5.223a19.53,19.53,0,0,1-2.479-3.052,11.119,11.119,0,0,1-1.393-3.023,7.361,7.361,0,0,1-.266-1.285,4.47,4.47,0,0,1-.082-1.01c-.008-.563-.013-.885-.013-.885l-.508-.026s0,.335-.01.925a4.635,4.635,0,0,0,.059,1.056,7.676,7.676,0,0,0,.248,1.354,11.616,11.616,0,0,0,1.378,3.193,20.273,20.273,0,0,0,2.479,3.2c1.883,2.037,4.009,3.842,5.385,5.331.332.375.675.71.9,1.023s.474.558.633.814c.327.494.511.776.511.776Z" transform="translate(8.768 29.884)" fill="#854214"/><path d="M35.62,65.656c1.858-4.937,6.488-11.445,6.488-11.445l-1.055-1.869s-4.529,9.363-5.433,7.786-1.888,8.677-1.888,8.677Z" transform="translate(20.333 31.55)" fill="#904a19"/><path d="M36.1,72.979C35.6,65.492,25.71,52.343,25.71,52.343l3.81,1.473s5.432,12.261,7.041,9.5,2.4,7.123,2.4,7.123Z" transform="translate(15.497 31.551)" fill="#854214"/><path d="M64.795,47.106l-.9.563a26.326,26.326,0,0,0-2.322,1.66,76.7,76.7,0,0,0-6.309,5.78,66.846,66.846,0,0,1-6.243,5.634A24.507,24.507,0,0,1,46.78,62.3c-.561.338-.882.529-.882.529l.785,1.362.926-.59a25.569,25.569,0,0,0,2.318-1.7,68.026,68.026,0,0,0,6.22-5.911,75.339,75.339,0,0,1,6.068-5.86,24.7,24.7,0,0,1,2.189-1.657c.564-.373.888-.585.888-.585Z" transform="translate(27.666 28.394)" fill="#904a19"/><path d="M34.028,53.959c1.649,5.046,1.587,13.87.635,24-.189,2.007-.045,5.9-.3,8-.635,5.257-2.874,10.583-2.382,15.877a78.507,78.507,0,0,1-1.335,20.927c-2.617,11.936-2.645,17.977-2.4,17.087H42.694s-3.842-5.485-3.842-21.944-.947-26.975,6.1-34.288S60.97,61.783,68.588,46.43l-1.233-2.342s-1.282,5.893-8.886,16.5S44.542,81.57,40.58,80.772s.325-27.887.325-27.887Z" transform="translate(16.968 26.575)" fill="#904a19"/><path d="M30.649,119.173a77.779,77.779,0,0,0,1.334-20.927c-.473-5.294,1.749-10.62,2.382-15.877.253-2.092.109-5.99.3-8,.952-10.128,1.015-18.951-.635-24l2.154-.337c-.058,10.594.494,20.272,0,29.887-1.412,27.792-1.911,49.705-1.911,49.705l2.733-20.463-.3,27.093H28.244c-.239.89-.213-5.151,2.406-17.087" transform="translate(16.968 30.161)" fill="#854214"/><path d="M48.978,60.517s.473-4.01.635-8.041c.085-2.013.095-4.034.014-5.554S49.4,44.39,49.4,44.39l-.793.093s.093.978.1,2.462-.1,3.472-.279,5.454c-.351,3.967-1.008,7.894-1.008,7.894Z" transform="translate(28.584 26.757)" fill="#904a19"/><path d="M92.47,25.842c15.8,2.106,19.666,16.153,15.452,22.123,0,0,13.343,12.992-3.161,24.229s-27.391,1.4-27.391,1.4,0,10.535-10.884,13.343-14.047-2.808-14.047-2.808-6.32,6.321-21.068.7-12.29-18.962-12.29-18.962S1.523,68.331.118,53.934,10.3,37.079,10.3,37.079s-2.106-14.4,10.886-13.694c0,0-2.808-14.749,8.78-20.719S53.2,3.719,56.509,9.338c0,0,5.062-11.578,19.107-8.95s8.778,16.324,8.778,16.324,12.643-1.757,8.076,9.129" transform="translate(0 0)" fill="#8a9f26"/><path d="M63.487,53.463C78.031,53.917,87,41.55,84,33.27c0,0,.474,1.394,1.144,3.395.946,4.526-.22,10.194-7.975,15.475-16.505,11.237-27.391,1.4-27.391,1.4a16.343,16.343,0,0,1-4-6.82s3.146,6.284,17.712,6.74" transform="translate(27.592 20.054)" fill="#829620"/><path d="M50.422,56.025c5.8-2.194,7.953-5.356,7.429-10.585l3.108,2.705a12.831,12.831,0,0,1-1.893-1.322s0,10.535-10.884,13.343C40.32,62.2,36.491,59.83,34.965,58.358c-.12-.284-.173-.651-.436-.8-5.044-2.85-4.089-13.14-4.089-13.14,1.584,9.169,14.183,13.8,19.982,11.606" transform="translate(18.305 26.775)" fill="#829620"/><path d="M.118,39.035c-.753-7.716,2.226-12,5.153-14.319v0C2.558,27.607.32,40.462,8,46.079s17.65-2.944,17.65-2.944c-1.882,5.954.138,18.889,5.621,22.851S48.1,69.275,51,65.636l5.547,6.535a7.544,7.544,0,0,1-4.1-2.936s-6.321,6.32-21.07.7-12.29-18.962-12.29-18.962S1.522,53.431.118,39.035" transform="translate(0 14.898)" fill="#829620"/><path d="M60.8,18.411c8.87,1.64,15.539,11.077,9.753,14.879S45.6,15.6,60.8,18.411" transform="translate(33.192 10.944)" fill="#94ac2e"/><path d="M53.516,12.521c6.283-1.035,5.147,11.343-.561,10.123s-8.326-8.66.561-10.123" transform="translate(28.774 7.51)" fill="#94ac2e"/><path d="M58.631,2.955c14.354.668,14.052,17.195,0,22.152s-16.863-7.118-16.863-7.118-13.886,6.788-18.845,1.664-3.045-16.2,6.611-16.7,15.189,8.432,15.189,8.432,6.8-8.762,13.907-8.432" transform="translate(12.223 1.769)" fill="#94ac2e"/><path d="M6.474,26.853s-.851-5.829,1.874-9.888h0c-1.965,6.571,1.568,14.21,6.158,16.228,0,0-6.26-1.763-8.033-6.341" transform="translate(3.827 10.226)" fill="#829620"/><g transform="translate(13.188 17.059)" opacity="0.5"><g clip-path="url(#y)"><path d="M62.932,35.894c1.827.7,3.266.668,2.981,3.467a4.006,4.006,0,0,1-4.2,3.348,7.622,7.622,0,0,0-2.677-.548c-1.217-.061-1.582-4.5-.731-5.78s2.161-1.428,4.626-.487" transform="translate(21.678 4.212)" fill="#829620"/><path d="M11.182,31.189c1.776-.819,2.765-1.867,4.565.3a4,4,0,0,1-.547,5.34,7.667,7.667,0,0,0-2.263,1.531c-.9.825-4.326-2.02-4.643-3.521s.492-2.542,2.888-3.646" transform="translate(-8.228 1.146)" fill="#829620"/><path d="M25.164,17.109c1.827.7,3.265.668,2.98,3.467a4,4,0,0,1-4.2,3.347,7.7,7.7,0,0,0-2.677-.547c-1.216-.061-1.582-4.5-.731-5.78s2.159-1.428,4.626-.487" transform="translate(-1.087 -7.111)" fill="#829620"/><path d="M55.754,24.452a8.381,8.381,0,0,1,2.045-.968c.774-.1,1.489.191,2.359,1.457a4,4,0,0,1-1.037,5.267,7.735,7.735,0,0,0-2.4,1.313c-.966.742-4.118-2.411-4.294-3.936a2.311,2.311,0,0,1,1.056-2.313,10.326,10.326,0,0,1,2.268-.819" transform="translate(18.402 -2.915)" fill="#829620"/><path d="M38.85,45.086a7.617,7.617,0,0,1,1.835-.989c.7-.133,1.378.1,2.241,1.221a3.686,3.686,0,0,1-.7,4.9,7.069,7.069,0,0,0-2.138,1.325c-.856.729-3.908-2.015-4.146-3.409a2.135,2.135,0,0,1,.857-2.181,9.6,9.6,0,0,1,2.047-.866" transform="translate(8.455 9.501)" fill="#829620"/><path d="M44.985,27.658a8.39,8.39,0,0,1,2.165.691c.636.454.965,1.157.737,2.683a4.021,4.021,0,0,1-4.371,3.159,7.759,7.759,0,0,0-2.659-.676c-1.22-.119-1.375-4.59-.46-5.831a2.327,2.327,0,0,1,2.361-.979,10.43,10.43,0,0,1,2.226.954" transform="translate(10.809 -0.977)" fill="#829620"/><path d="M25.507,34.639c0,1.963,1.59,4.194,3.555,4.194a4.5,4.5,0,0,0,4.065-4.079c0-1.962-2.1-3.031-4.065-3.031s-3.555.95-3.555,2.915" transform="translate(2.187 2.063)" fill="#829620"/><path d="M40.491,13.559c0,1.963,1.592,4.194,3.557,4.194a4.5,4.5,0,0,0,4.065-4.079c0-1.963-2.1-3.031-4.065-3.031s-3.557.95-3.557,2.915" transform="translate(11.219 -10.643)" fill="#829620"/></g></g><path d="M63.134,35.492c1.827.7,3.266.67,2.981,3.468a4,4,0,0,1-4.2,3.347,7.668,7.668,0,0,0-2.678-.548c-1.217-.061-1.58-4.5-.729-5.78s2.159-1.428,4.624-.487" transform="translate(34.988 21.029)" fill="#cc0001"/><g transform="translate(95.276 56.516)" opacity="0.5"><g clip-path="url(#z)"><path d="M62.853,35.756c2.116.923,2.831,2.928,0,4.491s-5.991-7.105,0-4.491" transform="translate(-59.445 -35.262)" fill="#e63739"/></g></g><path d="M61.269,36.545a2.366,2.366,0,0,0,.365-1.088,1.767,1.767,0,0,0-.143-.8,1.924,1.924,0,0,0-.184-.325l-.237.178a2.037,2.037,0,0,1,.167.266,1.5,1.5,0,0,1,.152.67,1.953,1.953,0,0,1-.139.7,1.866,1.866,0,0,1-.141.295Z" transform="translate(36.811 20.696)" fill="#904a19"/><path d="M60.656,35.527c-.032.09.295.285.728.436s.811.2.841.115-.295-.285-.728-.438-.809-.2-.841-.114" transform="translate(36.56 21.388)" fill="#904a19"/><g transform="translate(93.034 56.153)" opacity="0.5"><g clip-path="url(#aa)"><path d="M58.51,35.888a2.388,2.388,0,0,1,.922-.853v0c-1.311,1.723-.122,5.685,1.377,5.715,1.393.03,1.991,1.455,4.142.354a3.848,3.848,0,0,1-3.032,1.109,7.742,7.742,0,0,0-2.678-.548c-1.217-.061-1.58-4.5-.729-5.78" transform="translate(-58.046 -35.035)" fill="#b00001"/></g></g><path d="M62.194,36.284c1.531.438-.489,3.031-.513,2.273-.024-.71-.074-2.439.513-2.273" transform="translate(37.172 21.864)" fill="#e63739"/><path d="M11.385,30.788c1.774-.819,2.763-1.866,4.563.295a4,4,0,0,1-.547,5.342,7.625,7.625,0,0,0-2.263,1.531c-.894.825-4.326-2.019-4.642-3.524s.492-2.539,2.888-3.643" transform="translate(5.082 17.963)" fill="#cc0001"/><g transform="translate(15.031 48.38)" opacity="0.5"><g clip-path="url(#ab)"><path d="M11.558,30.5c2.138-.867,4.071.027,3.21,3.141S5.5,32.951,11.558,30.5" transform="translate(-9.378 -30.185)" fill="#e63739"/></g></g><path d="M11.176,31.342a2.345,2.345,0,0,0-.523-1.021,1.746,1.746,0,0,0-.668-.455,1.929,1.929,0,0,0-.362-.1l-.038.295a2.266,2.266,0,0,1,.308.067,1.448,1.448,0,0,1,.585.361,1.916,1.916,0,0,1,.4.587,1.764,1.764,0,0,1,.112.306Z" transform="translate(5.777 17.943)" fill="#904a19"/><path d="M10.054,31.282c.042.085.41-.013.822-.216s.712-.436.67-.521-.41.011-.822.216-.712.436-.67.521" transform="translate(6.058 18.393)" fill="#904a19"/><g transform="translate(13.513 51.14)" opacity="0.5"><g clip-path="url(#ac)"><path d="M8.5,33.162a2.377,2.377,0,0,1,.037-1.255v0c.314,2.143,3.976,4.063,5.047,3.015,1-.976,2.431-.4,3.151-2.712a3.842,3.842,0,0,1-1.33,2.943,7.687,7.687,0,0,0-2.263,1.531c-.894.827-4.326-2.018-4.642-3.523" transform="translate(-8.432 -31.907)" fill="#b00001"/></g></g><path d="M11.59,30.621c1.382-.789,1.822,2.467,1.265,1.957-.524-.481-1.8-1.654-1.265-1.957" transform="translate(6.909 18.383)" fill="#e63739"/><path d="M25.367,16.707c1.827.7,3.266.668,2.98,3.467a4,4,0,0,1-4.2,3.347,7.7,7.7,0,0,0-2.677-.548c-1.217-.059-1.582-4.5-.731-5.778s2.161-1.428,4.626-.487" transform="translate(12.223 9.705)" fill="#cc0001"/><g transform="translate(34.743 26.408)" opacity="0.5"><g clip-path="url(#z)"><path d="M25.085,16.971c2.116.923,2.829,2.928,0,4.493s-5.991-7.105,0-4.493" transform="translate(-21.677 -16.477)" fill="#e63739"/></g></g><path d="M23.5,17.76a2.357,2.357,0,0,0,.367-1.087,1.762,1.762,0,0,0-.144-.8,2.056,2.056,0,0,0-.183-.325l-.237.176a2.326,2.326,0,0,1,.165.266,1.477,1.477,0,0,1,.154.67,2.035,2.035,0,0,1-.139.7,1.8,1.8,0,0,1-.141.293Z" transform="translate(14.046 9.374)" fill="#904a19"/><path d="M22.887,16.741c-.032.091.3.285.729.438s.811.2.84.114-.293-.285-.728-.438-.809-.2-.841-.114" transform="translate(13.794 10.065)" fill="#904a19"/><g transform="translate(32.5 26.045)" opacity="0.5"><g clip-path="url(#ae)"><path d="M20.741,17.1a2.4,2.4,0,0,1,.923-.854l0,0c-1.309,1.725-.122,5.685,1.377,5.715,1.394.032,1.992,1.455,4.142.354a3.841,3.841,0,0,1-3.032,1.109,7.7,7.7,0,0,0-2.677-.548c-1.218-.059-1.582-4.5-.731-5.778" transform="translate(-20.277 -16.25)" fill="#b00001"/></g></g><path d="M24.426,17.5c1.531.436-.489,3.029-.513,2.271-.026-.708-.075-2.438.513-2.271" transform="translate(14.406 10.542)" fill="#e63739"/><path d="M56.13,24.452a8.393,8.393,0,0,1,2.044-.968c.774-.1,1.491.191,2.361,1.457A4,4,0,0,1,59.5,30.208a7.712,7.712,0,0,0-2.4,1.313c-.968.742-4.119-2.411-4.3-3.936a2.314,2.314,0,0,1,1.056-2.313,10.332,10.332,0,0,1,2.27-.819" transform="translate(31.816 14.144)" fill="#cc0001"/><g transform="translate(86.258 38.337)" opacity="0.5"><g clip-path="url(#af)"><path d="M56.194,24.125c2.21-.664,4,.239,2.848,3.262s-9.109-1.38-2.848-3.262" transform="translate(-53.818 -23.919)" fill="#e63739"/></g></g><g transform="translate(84.598 40.482)" opacity="0.5"><g clip-path="url(#ag)"><path d="M52.8,26.5a2.413,2.413,0,0,1,.151-1.245c.117,2.164,3.584,4.416,4.749,3.47,1.082-.878,2.46-.178,3.387-2.407A3.839,3.839,0,0,1,59.5,29.127a7.718,7.718,0,0,0-2.4,1.313c-.968.742-4.119-2.411-4.294-3.936" transform="translate(-52.782 -25.258)" fill="#b00001"/></g></g><path d="M56.1,24.246c1.449-.657,1.585,2.625,1.077,2.064-.478-.526-1.635-1.813-1.077-2.064" transform="translate(33.729 14.562)" fill="#e63739"/><path d="M39.054,44.685a7.631,7.631,0,0,1,1.834-.989c.705-.133,1.378.1,2.241,1.221a3.685,3.685,0,0,1-.7,4.9,7.1,7.1,0,0,0-2.14,1.327c-.853.728-3.906-2.016-4.143-3.409a2.135,2.135,0,0,1,.856-2.183,9.613,9.613,0,0,1,2.048-.864" transform="translate(21.765 26.318)" fill="#cc0001"/><g transform="translate(59.358 70.662)" opacity="0.5"><g clip-path="url(#ah)"><path d="M39.125,44.345c2-.72,3.688.024,2.781,2.859s-8.447-.819-2.781-2.859" transform="translate(-37.035 -44.087)" fill="#e63739"/></g></g><g transform="translate(57.873 72.893)" opacity="0.5"><g clip-path="url(#ai)"><path d="M36.148,46.636a2.223,2.223,0,0,1,.079-1.157v0c.213,1.986,3.513,3.885,4.539,2.959.952-.861,2.253-.285,3-2.382a3.539,3.539,0,0,1-1.33,2.661,7.051,7.051,0,0,0-2.14,1.327c-.853.728-3.908-2.016-4.145-3.409" transform="translate(-36.108 -45.48)" fill="#b00001"/></g></g><path d="M39.083,44.4c1.3-.675,1.59,2.338,1.095,1.846-.465-.46-1.595-1.587-1.095-1.846" transform="translate(23.483 26.703)" fill="#e63739"/><path d="M45.188,27.257a8.365,8.365,0,0,1,2.164.691c.638.454.965,1.157.736,2.683a4.019,4.019,0,0,1-4.369,3.159,7.723,7.723,0,0,0-2.659-.676c-1.218-.119-1.375-4.59-.458-5.832A2.325,2.325,0,0,1,42.96,26.3a10.369,10.369,0,0,1,2.228.954" transform="translate(24.119 15.84)" fill="#cc0001"/><g transform="translate(66.41 43.017)" opacity="0.5"><g clip-path="url(#aj)"><path d="M44.707,27.549c.619.377,1.33.527,1.64.974.686.989.389,2.188-1.612,3.175-1.478.728-2.936-1.152-3.246-2.8-.3-1.6.615-2.935,3.218-1.351" transform="translate(-41.435 -26.839)" fill="#e63739"/></g></g><g transform="translate(64.132 42.307)" opacity="0.5"><g clip-path="url(#ak)"><path d="M40.6,27.209a2.422,2.422,0,0,1,.965-.813l0,0c-1.4,1.668-.393,5.7,1.111,5.8,1.4.1,1.928,1.555,4.14.553a3.86,3.86,0,0,1-3.1.968,7.736,7.736,0,0,0-2.659-.675c-1.22-.12-1.375-4.592-.458-5.834" transform="translate(-40.013 -26.397)" fill="#b00001"/></g></g><path d="M44.251,27.8c1.516.51-.633,3.016-.622,2.255.01-.713.042-2.451.622-2.255" transform="translate(26.298 16.747)" fill="#e63739"/><path d="M25.709,34.238c0,1.965,1.592,4.194,3.557,4.194a4.5,4.5,0,0,0,4.063-4.079c0-1.962-2.1-3.031-4.063-3.031s-3.557.952-3.557,2.915" transform="translate(15.497 18.881)" fill="#cc0001"/><g transform="translate(41.207 50.517)" opacity="0.5"><g clip-path="url(#al)"><path d="M27.485,31.518h0c-1.217,1.949.263,4.374,1.231,5.049A4.332,4.332,0,0,0,32,37.048a4.064,4.064,0,0,1-2.73,1.266c-1.963,0-3.557-2.231-3.557-4.194a2.656,2.656,0,0,1,1.776-2.6" transform="translate(-25.71 -31.519)" fill="#b00001"/></g></g><g transform="translate(44.36 50.463)" opacity="0.5"><g clip-path="url(#am)"><path d="M29.6,31.694c2.05.7,2.638,2.762,1.205,4.124s-2.138-.165-2.476-1.039S26.5,30.634,29.6,31.694" transform="translate(-27.677 -31.485)" fill="#e63739"/></g></g><path d="M29.515,32.182a1.167,1.167,0,0,1,.63,1.909c-.561.862-1.726-2.33-.63-1.909" transform="translate(17.517 19.376)" fill="#e63739"/><path d="M40.694,13.156c0,1.965,1.592,4.2,3.557,4.2a4.5,4.5,0,0,0,4.065-4.079c0-1.963-2.1-3.032-4.065-3.032s-3.557.952-3.557,2.915" transform="translate(24.529 6.173)" fill="#cc0001"/><g transform="translate(65.223 16.729)" opacity="0.5"><g clip-path="url(#an)"><path d="M42.468,10.437v0c-1.215,1.949.263,4.372,1.233,5.047a4.336,4.336,0,0,0,3.278.482,4.071,4.071,0,0,1-2.73,1.266c-1.963,0-3.555-2.231-3.555-4.2a2.658,2.658,0,0,1,1.774-2.6" transform="translate(-40.694 -10.438)" fill="#b00001"/></g></g><g transform="translate(68.377 16.675)" opacity="0.5"><g clip-path="url(#ao)"><path d="M44.589,10.612c2.05.7,2.638,2.763,1.205,4.126s-2.138-.167-2.476-1.039-1.832-4.145,1.271-3.087" transform="translate(-42.661 -10.404)" fill="#e63739"/></g></g><path d="M44.5,11.1a1.169,1.169,0,0,1,.63,1.911c-.559.862-1.726-2.33-.63-1.911" transform="translate(26.55 6.669)" fill="#e63739"/><path d="M34.711,62.614,34.382,67.6l-.3,4.981-.569,10.724v4.21c.309-1.662,1.237-8.225,1.507-9.9s.492-3.348.705-5.028c-.41,1.643-.809,3.289-1.162,4.946s-.415,3.345-.726,5.007c.292-3.324.838-6.6.936-9.934.072-1.664.056-3.332.064-5s-.05-3.334-.128-5" transform="translate(20.202 37.742)" fill="#854214"/><path d="M36.771,107.274a14.357,14.357,0,0,1,2.643-7.937s-3.765,3.537-4.549,6.006a44.113,44.113,0,0,0-2.148-8.421s1.2,4.563.168,7.972A21.97,21.97,0,0,0,31.1,98.712s.295,4-.96,6a42.466,42.466,0,0,0-2.672-7.309s1.35,4.988.763,8.485a26.27,26.27,0,0,0-3.271-4.27s1.566,4.214.587,6.887h12.5s1.173-4.113,3.231-4.832a8.839,8.839,0,0,0-4.505,3.6" transform="translate(15.046 58.422)" fill="#7a8d1e"/><path d="M42.537,107.185s1.612-6.539,4.121-9.854c0,0-4.478,4.3-5.2,6.45a29.31,29.31,0,0,1,.9-4.658s-3.406,5.733-3.672,7.346a10.194,10.194,0,0,0-1.167-4.837s0,3.941-.447,4.837c0,0-1.434-6.091-3.045-7.882,0,0,1.97,5.554,1.433,8.6,0,0-1.882-4.21-2.867-4.927,0,0,1.434,3.674.537,6H43.7s1.075-3.585,2.956-4.21a8.076,8.076,0,0,0-4.121,3.135" transform="translate(19.646 58.669)" fill="#8a9f26"/><path d="M67.58,98.967c.734.7,7.37-.434,7.664.393.311.821.795,3.141.284,4.4,0,0,.309.288.069.941s-1.907.886-4.057.942-14.31,1.566-15.045-.694c-.25-.771-.628-2.436.962-2.266a12.877,12.877,0,0,0,5.4-1.189,23.336,23.336,0,0,0,3.4-1.936c.74-.668,1.029-.866,1.33-.591" transform="translate(33.917 59.583)" fill="#2e1100"/><path d="M75.252,99.722c.745.745,7.238-.231,7.554.635s.877,3.273.409,4.568a.935.935,0,0,1,.1.974c-.213.667-1.851.861-3.965.857s-14.835,1.007-15.537-1.173c-.26-.806-.691-2.537.878-2.314a15.221,15.221,0,0,0,5.986-1.067,20.682,20.682,0,0,0,3.287-1.9c.708-.672.989-.869,1.292-.575" transform="translate(38.307 60.03)" fill="#421800"/><g transform="translate(101.857 159.62)" opacity="0.5"><g clip-path="url(#ap)"><path d="M75.252,99.722c.745.745,7.238-.231,7.554.635s.877,3.273.409,4.568a.935.935,0,0,1,.1.974c-.213.667-1.851.861-3.965.857s-14.835,1.007-15.537-1.173c-.26-.806-.691-2.537.878-2.314a15.221,15.221,0,0,0,5.986-1.067,20.682,20.682,0,0,0,3.287-1.9c.708-.672.989-.869,1.292-.575" transform="translate(-63.551 -99.59)" fill="#421800"/></g></g><path d="M75.737,59.619c.042,4.372-1.664,12.268-1.8,13.316a115.943,115.943,0,0,0-.091,14.651c.362,7.87-.149,28.88-.71,36.255,0,0-3.324,1.329-9.791-.643,0,0,1.691-21.769.5-28.4S61.16,65.745,60.979,59.284Z" transform="translate(36.757 35.735)" fill="#3e3868"/><path d="M77.572,61.11c2.13,6.586.412,10.272.412,11.328s.909,8.652,2.3,16.38,3.332,28.622,3.744,36.01c0,0-3.073.906-9.73,0,0,0-.92-20.9-2.968-27.258S63.2,65.649,62.173,59.284Z" transform="translate(37.476 35.735)" fill="#2e2a4b"/><g transform="translate(106.67 96.63)" opacity="0.5"><g clip-path="url(#aq)"><path d="M81.387,124.222c-.412-7.386-2.356-28.283-3.744-36.01s-2.3-15.319-2.3-16.38,1.718-4.743-.412-11.328l-1.8-.215-6.575.633c.994,3.712,6.241,28.611,6.623,29.395.353.716,3.536,29.521,4.037,34.3a17.426,17.426,0,0,0,4.174-.394" transform="translate(-66.553 -60.289)" fill="#3e3868"/></g></g><g transform="translate(97.736 95.019)" opacity="0.5"><g clip-path="url(#ar)"><path d="M64.669,60.895l-3.69-1.611c.388,8.971,1.789,29.581,2.859,35.517,1.2,6.627-.5,28.4-.5,28.4a23.879,23.879,0,0,0,5.018.994V99.91S67.623,81.046,65.968,73.4Z" transform="translate(-60.979 -59.284)" fill="#2e2a4b"/></g></g><path d="M47.081,31.911c-.223-.115-2.132-2.385-2.771-1.973s.01.9.846,1.917,2.271,3.188,3.206,3.64,2.479.332,3.936,2.066,4.053,4.794,4.053,4.794l3.129-3.23s-1.766-1.56-3.21-2.563c-1.728-1.2-3.682-2.579-3.93-2.822a26.889,26.889,0,0,1-1.963-3.3,16.364,16.364,0,0,0-1.213-2.255A4.281,4.281,0,0,0,46.789,26.8c-1.587-.452-3.895.365-2.946,1.119a14.467,14.467,0,0,1,2.2,1.971,10.486,10.486,0,0,1,1.039,2.021" transform="translate(26.294 16.076)" fill="#f0bb8f"/><path d="M65.545,47.251c.694-.514,1.481-3.036,1.867-3.768a4.07,4.07,0,0,0,.5-1.029c.345-1.063-2.1-1.263-3.526-1.959-1.1-.535-.739-1.245-.264-1.785s-.232-.857-.2-1.087c.061-.409,1.3.2,1.3.2s-1.047-.481-1.112-.867.74-.664.7-1.034-.958-.914-.872-1.321,2.024-1.39,2.441-1.888-.442-1.465.016-1.981A17.065,17.065,0,0,1,69.649,28a8.937,8.937,0,0,1,8.243.664c3.077,2.124,2.726,7.161,1.891,8.544s-3.978,4.281-4.313,5.7a20,20,0,0,0-.191,4.126s-5.5,2.611-8.217,2.718c-2.217.088-1.8-2.292-1.516-2.5" transform="translate(38.375 16.453)" fill="#f0bb8f"/><path d="M70.1,30.095c.3.755-.7,1.523-.024,2.587.721,1.124-.162,2.773.183,3.095s1.861-1.247,2.781-.672.814,1.819.063,2.7.394,4.459.369,4.507c.837-1.523,3.332-3.893,4.065-5.1.835-1.383,1.186-6.419-1.891-8.544A8.941,8.941,0,0,0,67.4,28c.715,1.269,2.4,1.337,2.7,2.092" transform="translate(40.626 16.453)" fill="#4c3e35"/><path d="M67.487,28.7c-.18-.46-.133-1.058.369-1.1.782-.067,1.524-.841,3.379-.724a16.531,16.531,0,0,1,3.941,1.111,3.4,3.4,0,0,1,2,1.563c.1.476,1.106,1.293.587,2.116a1.537,1.537,0,0,1,.933,1.43c-.006,1.069-.252,1.747-.149,2.034s-.5,1.125-.492,1.648a5.974,5.974,0,0,1-1.88,2.864c-.62.255-.8,1.108-1.148,1.188s-1.555,1.747-1.555,1.747l.939-9.445-.883-3.811Z" transform="translate(40.622 16.193)" fill="#4c3e35"/><path d="M70.513,31.2c.162-.6-1.2-1.067-2.287-1.441-1.348-.466-1.952-1.074-1.617-1.2.244-.088.289-.422.75-.59s.716-.5,1.317-.715a5.2,5.2,0,0,1,2.119.212,21.931,21.931,0,0,1,.643,3.188c-.066.061-.925.542-.925.542" transform="translate(40.096 16.394)" fill="#4c3e35"/><g transform="translate(105.627 54.256)" opacity="0.3" style="mix-blend-mode:multiply;isolation:isolate"><g clip-path="url(#as)"><path d="M73.882,36.15A4.334,4.334,0,0,1,73.818,35c.018-.585.24-1.218.183-1.148-.13.17-.343.651-.595,1.027s-.638.013-.683.141a3.1,3.1,0,0,1-1.314,1.968c-1.249,1.048-3.664.981-5.5.572l0,0c.375.175.622.386.668.659a.441.441,0,0,1-.006.276c-.053.162-.09.329-.131.5,3.991,1.079,7.509-2.436,7.45-2.848" transform="translate(-65.903 -33.851)" fill="#f0bb8f"/></g></g><path d="M88.944,72.372c1.527,2.463,3.59,7.055-1.019,10.3-4.82,3.391-12.253,2.556-14.68.883-3.424-2.364-4.257-6.055-1.539-10.463Z" transform="translate(42.247 43.624)" fill="#c38733"/><path d="M71.1,73.91c.058,1.386,3.964,2.348,8.722,2.149s8.573-1.484,8.516-2.869-3.965-2.35-8.724-2.149S71.04,72.525,71.1,73.91" transform="translate(42.855 42.806)" fill="#c38733"/><path d="M85.333,74.509c1.874-.593,2.356-1.208,2.343-1.478-.035-.827-3.255-1.9-8.225-1.691a22.83,22.83,0,0,0-5.709.893c-1.875.591-2.358,1.207-2.346,1.478.034.829,3.255,1.9,8.225,1.693a22.939,22.939,0,0,0,5.712-.894" transform="translate(43.035 42.986)" fill="#9e6522"/><path d="M71.1,73.91c.058,1.386,3.964,2.348,8.722,2.149s8.573-1.484,8.516-2.869-3.965-2.35-8.724-2.149S71.04,72.525,71.1,73.91" transform="translate(42.855 42.806)" fill="#c38733"/><path d="M85.333,74.509c1.874-.593,2.356-1.208,2.343-1.478-.035-.827-3.255-1.9-8.225-1.691a22.83,22.83,0,0,0-5.709.893c-1.875.591-2.358,1.207-2.346,1.478.034.829,3.255,1.9,8.225,1.693a22.939,22.939,0,0,0,5.712-.894" transform="translate(43.035 42.986)" fill="#9e6522"/><g transform="translate(112.349 118.549)" opacity="0.3"><g clip-path="url(#at)"><path d="M73.633,79.592c3.085,2.814,11.253,3.88,15.949.539a7.426,7.426,0,0,1-1.664,1.58c-4.82,3.391-12.253,2.558-14.68.883-2.935-2.028-3.948-5.038-2.468-8.629-.013.207-.208,2.827,2.863,5.627" transform="translate(-70.097 -73.965)" fill="#9e6522"/></g></g><path d="M71.281,76.571a.29.29,0,0,0,.288-.258c.319-2.909,2.962-9.158,8.777-8.8,5.568.346,7.636,8.049,7.656,8.126a.288.288,0,0,0,.353.208.292.292,0,0,0,.21-.356c-.088-.333-2.193-8.187-8.182-8.562-6.2-.389-9.054,6.235-9.392,9.315a.292.292,0,0,0,.256.321l.034,0" transform="translate(42.79 40.336)" fill="#9e6522"/></g><g transform="translate(114.304 109.377)"><g clip-path="url(#au)"><path d="M77.167,69.623c1.476-.293,2.4-.9,3.361,1.043a3.077,3.077,0,0,1-1.37,3.9,5.924,5.924,0,0,0-1.97.737c-.817.457-2.869-2.29-2.837-3.47s.825-1.813,2.816-2.207" transform="translate(-69.488 -67.605)" fill="#cc0001"/><g transform="translate(6.222 2.068)" opacity="0.5"><g clip-path="url(#av)"><path d="M77.224,69.573c1.757-.261,3.039.753,1.834,2.928s-6.809-2.185-1.834-2.928" transform="translate(-75.198 -69.532)" fill="#e63739"/></g></g><path d="M76.636,70.353a1.8,1.8,0,0,0-.207-.856,1.335,1.335,0,0,0-.418-.463,1.908,1.908,0,0,0-.252-.138l-.083.215a1.3,1.3,0,0,1,.218.1,1.136,1.136,0,0,1,.372.375,1.5,1.5,0,0,1,.2.513,1.463,1.463,0,0,1,.029.248Z" transform="translate(-68.689 -67.848)" fill="#904a19"/><path d="M75.839,70.018c.018.071.309.066.654-.013s.611-.2.595-.269-.308-.066-.652.011-.612.2-.6.271" transform="translate(-68.591 -67.372)" fill="#904a19"/><g transform="translate(4.863 3.29)" opacity="0.5"><g clip-path="url(#aw)"><path d="M74.351,71.229a1.854,1.854,0,0,1,.253-.934v0c-.152,1.66,2.242,3.757,3.233,3.165.92-.55,1.891.136,2.843-1.46a2.95,2.95,0,0,1-1.523,1.96,5.925,5.925,0,0,0-1.97.737c-.817.457-2.871-2.29-2.837-3.47" transform="translate(-74.351 -70.295)" fill="#b00001"/></g></g><path d="M77.082,69.86c1.176-.341.918,2.175.595,1.691-.306-.455-1.045-1.561-.595-1.691" transform="translate(-67.927 -67.286)" fill="#e63739"/><path d="M81.186,70.714c1.406.537,2.513.514,2.294,2.669a3.079,3.079,0,0,1-3.23,2.574,5.864,5.864,0,0,0-2.06-.42c-.936-.046-1.218-3.465-.563-4.448s1.66-1.1,3.558-.375" transform="translate(-67.727 -67.033)" fill="#cc0001"/><g transform="translate(11.27 3.68)" opacity="0.5"><g clip-path="url(#ax)"><path d="M80.97,70.918c1.628.71,2.177,2.252,0,3.454s-4.61-5.465,0-3.454" transform="translate(-78.348 -70.538)" fill="#e63739"/></g></g><path d="M79.751,71.525a1.8,1.8,0,0,0,.281-.835,1.33,1.33,0,0,0-.111-.612,1.775,1.775,0,0,0-.139-.253l-.183.138a1.778,1.778,0,0,1,.127.205,1.123,1.123,0,0,1,.119.518,1.512,1.512,0,0,1-.107.535,1.378,1.378,0,0,1-.107.226Z" transform="translate(-66.324 -67.288)" fill="#904a19"/><path d="M79.28,70.741c-.024.069.228.22.561.337s.622.155.648.088-.228-.221-.561-.337-.622-.157-.648-.088" transform="translate(-66.518 -66.756)" fill="#904a19"/><g transform="translate(9.545 3.4)" opacity="0.5"><g clip-path="url(#ay)"><path d="M77.629,71.02a1.832,1.832,0,0,1,.71-.657h0c-1.008,1.327-.093,4.374,1.061,4.4,1.071.024,1.532,1.12,3.186.274a2.956,2.956,0,0,1-2.334.853,5.9,5.9,0,0,0-2.06-.422c-.936-.046-1.218-3.465-.563-4.446" transform="translate(-77.271 -70.363)" fill="#b00001"/></g></g><path d="M80.463,71.324c1.176.337-.375,2.33-.4,1.749-.018-.547-.056-1.877.4-1.749" transform="translate(-66.047 -66.389)" fill="#e63739"/><path d="M76.981,71.382c1.476-.292,2.4-.9,3.359,1.043a3.073,3.073,0,0,1-1.37,3.9,5.924,5.924,0,0,0-1.97.737c-.816.457-2.867-2.29-2.837-3.472s.825-1.811,2.818-2.205" transform="translate(-69.601 -66.545)" fill="#cc0001"/><g transform="translate(5.922 4.887)" opacity="0.5"><g clip-path="url(#av)"><path d="M77.037,71.331c1.757-.263,3.039.755,1.834,2.928s-6.809-2.185-1.834-2.928" transform="translate(-75.011 -71.291)" fill="#e63739"/></g></g><path d="M76.45,72.11a1.809,1.809,0,0,0-.208-.856,1.314,1.314,0,0,0-.418-.462,1.527,1.527,0,0,0-.252-.138l-.083.213a1.235,1.235,0,0,1,.218.1,1.14,1.14,0,0,1,.373.375,1.573,1.573,0,0,1,.223.761Z" transform="translate(-68.802 -66.787)" fill="#904a19"/><path d="M75.653,71.776c.016.071.308.066.652-.013s.611-.2.595-.271-.308-.064-.652.014-.611.2-.595.269" transform="translate(-68.703 -66.312)" fill="#904a19"/><g transform="translate(4.563 6.109)" opacity="0.5"><g clip-path="url(#ba)"><path d="M74.164,72.987a1.864,1.864,0,0,1,.253-.933v0c-.151,1.659,2.242,3.757,3.233,3.165.922-.55,1.891.136,2.845-1.46a2.955,2.955,0,0,1-1.524,1.96,5.924,5.924,0,0,0-1.97.737c-.817.457-2.871-2.29-2.837-3.472" transform="translate(-74.163 -72.053)" fill="#b00001"/></g></g><path d="M76.9,71.618c1.175-.341.918,2.175.593,1.691-.306-.452-1.045-1.561-.593-1.691" transform="translate(-68.04 -66.226)" fill="#e63739"/><path d="M74.284,70.781c1.478-.293,2.4-.9,3.361,1.042a3.079,3.079,0,0,1-1.37,3.9,5.9,5.9,0,0,0-1.968.736c-.819.458-2.871-2.29-2.839-3.47s.825-1.813,2.816-2.205" transform="translate(-71.225 -66.907)" fill="#cc0001"/><g transform="translate(1.602 3.923)" opacity="0.5"><g clip-path="url(#bb)"><path d="M74.342,70.73c1.757-.261,3.039.755,1.835,2.928s-6.81-2.185-1.835-2.928" transform="translate(-72.316 -70.689)" fill="#e63739"/></g></g><path d="M73.753,71.511a1.8,1.8,0,0,0-.207-.857,1.328,1.328,0,0,0-.418-.462,1.7,1.7,0,0,0-.252-.138l-.083.215a1.236,1.236,0,0,1,.218.1,1.149,1.149,0,0,1,.373.373,1.571,1.571,0,0,1,.223.763Z" transform="translate(-70.427 -67.15)" fill="#904a19"/><path d="M72.958,71.175c.016.072.308.066.652-.013s.611-.2.595-.269-.308-.066-.652.013-.612.2-.595.269" transform="translate(-70.327 -66.674)" fill="#904a19"/><g transform="translate(0.243 5.147)" opacity="0.5"><g clip-path="url(#bc)"><path d="M71.468,72.386a1.864,1.864,0,0,1,.253-.933v0c-.151,1.659,2.242,3.755,3.233,3.164.92-.55,1.891.136,2.845-1.46a2.955,2.955,0,0,1-1.524,1.962,5.917,5.917,0,0,0-1.97.736c-.817.458-2.871-2.29-2.837-3.47" transform="translate(-71.468 -71.453)" fill="#b00001"/></g></g><path d="M74.2,71.017c1.175-.34.917,2.175.593,1.693-.306-.455-1.045-1.561-.593-1.693" transform="translate(-69.664 -66.588)" fill="#e63739"/></g></g><g clip-path="url(#b)"><path d="M62.363,39.386c-.337,3.182-2.185,10.577-2.1,14.89S61.356,72.7,61.356,72.7s6.982,3.662,17.368,1.813c0,0,2.346-11.665,3.226-17.3S84.9,44.7,84.191,42.759s-5.267-3.185-6.751-5.344l-8.73,3.621.123-3.347-.681-.646Z" transform="translate(36.325 22.329)" fill="#c7e1ff"/><path d="M76.135,44.488c-.188,4.89-2.372,21.024-2.372,21.024s-8.064,1.194-13-.556c.163,1.914.287,3.26.287,3.26s6.98,3.662,17.368,1.813c0,0,.665-6.575,1.37-12.236a47.209,47.209,0,0,1-3.656-13.3" transform="translate(36.628 26.816)" fill="#a8cdf7"/><path d="M76.947,48.4c-.761-.106-.577.774-1.337.646a20.683,20.683,0,0,1-2.693-.623c-.457-.144-.9-.317-1.343-.5.026,1.9.649,3.792.787,5.836a21.3,21.3,0,0,1-.279,4,53.3,53.3,0,0,0,1.542,9.538c.311,1.2.8,3.031,1.2,4.374.648,2.167-.242,2.558-.147,3.593a19.448,19.448,0,0,0,.859,4.135c.388,1.255.046,2.223.74,1.914s.737-2.069.357-2.93c0,0,.627.575.359,2.106-.22,1.255,5.153-.446,3.752-3.247-.64-1.282-2.722-4.257-2.842-4.884-.093-.468-.067-3.409-.12-5.563,0,0,.21-3.356.359-5.368a16.337,16.337,0,0,0-.6-5.424,12.19,12.19,0,0,1-.04-4.861c.077-.492-.724-2.087-.551-2.736" transform="translate(43.143 28.883)" fill="#f0bb8f"/><path d="M79.854,58.585c.149,2.47-7.887,2.3-7.822,1.643s-.59-8.342-1.39-10.777c-.64-1.943-1.273-7.107,1.63-9.173a3.585,3.585,0,0,1,2.923-.87,4.93,4.93,0,0,1,3.065,1.97c1.872,2.451,1.388,15.714,1.593,17.207" transform="translate(42.255 23.711)" fill="#c7e1ff"/><path d="M49.774,35.277A96.593,96.593,0,0,0,59.04,45.4c1.314.989,13.149,3.281,13.149,3.281s.43-8.49-.236-8.891-10.96-.293-11.266-.478-8.365-6.571-8.365-6.571Z" transform="translate(30.002 19.733)" fill="#f0bb8f"/><path d="M71.345,37.712s-2.258-1.4-3.863-1.239c-.907.093-4.549.474-6.552.508-.748.011-3.282-.026-3.282-.026s-.755,6.317-.088,7.855a98.844,98.844,0,0,0,10.1,1.622c1.2.224,3.287-1.008,3.492-.907s.191-7.814.191-7.814" transform="translate(34.53 21.977)" fill="#c7e1ff"/><path d="M57.293,39.786h0c1.662.968,7.826.577,7.826.577a8.725,8.725,0,0,0-1.991,3.473,48.125,48.125,0,0,1-5.568-1.031,9.013,9.013,0,0,1-.268-3.02" transform="translate(34.53 23.982)" fill="#a8cdf7"/></g></g></g><g transform="translate(1140.713 1157.463)"><g clip-path="url(#be)"><path d="M43.164.87s3.962,1.938,2.983,7.211-1.414,5.984-.317,8.044,2.389,10.85,1.4,12.515S35.023,21.319,33.467,13.779s.986-10.893,1.885-12.143S39.665-.906,43.164.87" transform="translate(-25.65 0)" fill="#0e2d3d"/><path d="M83.79,89.623A5.507,5.507,0,0,1,86.939,91.7c.788,1.16.852,3.737.965,4.222s1.618,5.976,1.618,5.976l-4.2,2.816Z" transform="translate(-65.178 -69.716)" fill="#285173"/><path d="M135.033,491.849s2.742,3.691,2.366,4.276-3.259.668-5.014,0-1.8-4.995-2.591-6.853c-.333-.778.379-3.075,1.379-3.241a4.214,4.214,0,0,1,2.088.323s-1.037,2.618,1.773,5.5" transform="translate(-100.899 -378.045)" fill="#1d3b54"/><path d="M136.173,486.138a17.415,17.415,0,0,1,.788,3.072c.175,1.245,1.953,3.888,1.87,4.222s-2.34.637-3.259-.225-1.511-3.368-1.713-4.867a12.022,12.022,0,0,0-.426-2.086s1.865-1.036,2.742-.116" transform="translate(-103.793 -377.859)" fill="#eea886"/><path d="M27.249,491.916s2.643,3.63,2.267,4.215-3.259.668-5.014,0-1.8-4.995-2.591-6.853c-.332-.778.379-3.075,1.379-3.241a4.491,4.491,0,0,1,2.173.358s-1.024,2.644,1.787,5.522" transform="translate(-16.979 -378.051)" fill="#1d3b54"/><path d="M29.8,485.916a24.736,24.736,0,0,0,.543,2.925c.334,1.212,2.131,3.97,2.048,4.3s-2.34.637-3.259-.225-1.63-3.357-1.713-4.867a8.034,8.034,0,0,1,.209-2.5,2.041,2.041,0,0,1,2.173.358" transform="translate(-21.313 -377.572)" fill="#eea886"/><path d="M28.992,189.289s2.353,10.945,2.893,13.7,2.053,16.1,2.215,18.372,2.455,10.82,2.347,11.631,3.4,17.092,3.4,17.092a2.109,2.109,0,0,1-2.461.087c-.649-.451-7.7-15.243-7.7-19.295,0-5.6-4.142-12.914-4.677-14.167-4.965-11.642-3.987-15.2-4.636-15.958s-.7.467-1.083,2.142-1.188,16.156-1.674,17.993-.109,8.051-.379,11.185-1.456,17.31-1.456,17.31a1.288,1.288,0,0,1-2.208.038c-.277-.3-2.225-15.791-2.279-19.52s-.112-8.87-.216-10.483c-1-15.45-3.462-17.656.413-28.591,7.256-20.473,17.5-1.536,17.5-1.536" transform="translate(-7.302 -141.037)" fill="#eea886"/><path d="M10.623,203.458s-6.7,9.381-3.817,29.336c0,0,15.9,2.162,24.415-2.5,0,0-3.522-20.574-4.8-23.776s-15.8-3.059-15.8-3.059" transform="translate(-4.733 -158.264)" fill="#1d3b54"/><path d="M129.753,499.283v3.865h.5V500.16Z" transform="translate(-100.932 -388.38)" fill="#1d3b54"/><path d="M21.869,499.283v3.865h.5V500.16Z" transform="translate(-17.012 -388.38)" fill="#1d3b54"/><path d="M24.06,83a25.821,25.821,0,0,0,3.327,1.338c.857.171,4.184,4.493,4.767,6.071s0,3.944-1.2,6.722-.068,3.7-.617,6.482a64.651,64.651,0,0,0-.926,10.2c.1,1.543-13.872,1.835-17.062-.978,0,0,3.206-4.8,3.618-5.487s.069-4.425-.309-5.385-2.888-9.127-2.888-9.127-2.054-6.272-.2-7.713c1.612-1.252,6.005-1.7,6.794-1.973A13.476,13.476,0,0,1,24.06,83" transform="translate(-9.174 -64.464)" fill="#eddad3"/><path d="M70.314,85.882l1.5-1.757-1.3-4.626a30.531,30.531,0,0,0-.2,6.383" transform="translate(-54.64 -61.84)" fill="#d6c5be"/><path d="M51.75,58.788s-.068.619-.147,1.475c-.035.379-.073.806-.108,1.245a28.233,28.233,0,0,0-.135,3.284s-2.566,2.572-5.484-3a7.654,7.654,0,0,0,.3-5.428c-.924-3.129,5.571,2.424,5.571,2.424" transform="translate(-35.686 -43.101)" fill="#eea886"/><path d="M60.224,97.659v2.349L57.271,97.8Z" transform="translate(-44.55 -75.966)" fill="#eea886"/><path d="M47.129,88.506,45.9,86.988l-4.13-4.116-1.336,1.287Z" transform="translate(-31.455 -64.464)" fill="#d6c5be"/><path d="M14.468,84.644s3.466,5.26,3.632,7.575-1.288,19.632-2.452,25.2-9.576-.628-9.576-.628,5.652-9.149,3.483-16.474S6.6,90.062,6.6,90.062s.747-4.08,3.392-4.653c2.319-.5,4.48-.764,4.48-.764" transform="translate(-4.723 -65.843)" fill="#285173"/><path d="M81.752,94.408s.625,2.212-1.81,7.1c0,0,.038,6.257.107,8.212s1.451,8.984,1.451,8.984l-3.328,1.772a.68.68,0,0,1-1.018-.668c.682-5.625,2.9-26.965-1.892-32.7l1.924.567a15.568,15.568,0,0,1,4.567,6.732" transform="translate(-58.545 -67.76)" fill="#285173"/><path d="M72.758,84.125l1.891.522L71.456,79.5Z" transform="translate(-55.584 -61.84)" fill="#fae6de"/><path d="M46.579,86.988l-1.727,2.263-3.546-5.91,1.143-.469Z" transform="translate(-32.131 -64.464)" fill="#fae6de"/><rect width="0.625" height="7.394" transform="matrix(0.784, -0.62, 0.62, 0.784, 16.949, 31.678)" fill="#eb4747"/><path d="M72.488,160.706a1.339,1.339,0,0,0,.727-.209c.5-.375.677-1.3,1.555-1.232s1.285,2.821,1.066,3.343-1.44.782-3.242.423-.105-2.325-.105-2.325" transform="translate(-55.823 -123.886)" fill="#eea886"/><path d="M82.763,155.807a27.481,27.481,0,0,1,2.72-.745c1.278-.277,2.806-.367,2.955-.145.165.247-1.246.46-2.5.816-1.153.327-.878.448-.878.448s-.076-.039,1.241-.162c1.416-.132,2.874-.129,3.018.153.07.138.021.231-.489.36.306-.014.35.065.361.188.061.638-2,1.145-2.825,1.347.631-.151,1.107-.2.88.23-.259.489-3.206,1.08-4.246,1.389-1.134.337-.239-3.879-.239-3.879" transform="translate(-64.118 -120.409)" fill="#eea886"/><path d="M5.755,88.336c-.869-.281-3.418.623-3.849,3.237S1.3,97.088.9,98.5s-1.426,7.644-.565,8.161a9.76,9.76,0,0,0,4.783.99c2.363,0,11.529.411,11.529.411l.575-3.256s-3.481-.18-5.285-.453c-1.605-.243-3.831-.927-6.45-1.214a43.952,43.952,0,0,1,.957-4.955c.4-1.092,3.217-8.579-.689-9.843" transform="translate(-0.001 -68.676)" fill="#285173"/><path d="M78.644,130.627l9.232-1.831,6.847-14.651-9.854,1.036Z" transform="translate(-61.175 -88.79)" fill="#e8734d"/><path d="M122.4,152.883a7.487,7.487,0,0,0,.957-1.128,16.77,16.77,0,0,0,1.791-3.327,5.012,5.012,0,0,0-2.722.146c-.4.357.391.5.391.5s-1.2.124-1.112.462.807.245.807.245-.964.185-.818.482.609.293.609.293-.854.107-.749.432,1.457.63,1.276.9a6.348,6.348,0,0,0-.431,1" transform="translate(-94.544 -115.364)" fill="#eea886"/><path d="M49.685,5.96s5.753,1.808,2.63,11.737-10.981-1.151-10.159-7.2S49.685,5.96,49.685,5.96" transform="translate(-32.746 -4.506)" fill="#eea987"/><path d="M51.315,8.961a12.979,12.979,0,0,1-7.643,3.156s-1.839,2.156-1.98,3c0,0-4.269-7.276.978-11.638s10.573,3.682,8.645,5.48" transform="translate(-31.157 -1.713)" fill="#0e2d3d"/><path d="M49.607,40.772c-.037-.722-.482-2.367-1.556-1.907s.066,3.809.778,3.6c0,0,.866.013.778-1.7" transform="translate(-37.035 -30.17)" fill="#eea987"/><path d="M57.792,67.323c-.035.379-.073.806-.108,1.245h0c-3.326-1.642-3.836-4.011-3.851-4.084,2.369,3.062,3.96,2.839,3.96,2.839" transform="translate(-41.875 -50.161)" fill="#a77860"/></g></g></g></svg>