<svg xmlns="http://www.w3.org/2000/svg" xmlns:xlink="http://www.w3.org/1999/xlink" width="148" height="76" viewBox="0 0 148 76"><defs><linearGradient id="a" x1="0.165" y1="1.034" x2="0.949" y2="0.071" gradientUnits="objectBoundingBox"><stop offset="0" stop-color="#869d69"/><stop offset="1" stop-color="#f6faf0"/></linearGradient></defs><g transform="translate(-390 -4295)"><g transform="translate(0 74)"><rect width="148" height="76" transform="translate(390 4221)" fill="none"/><ellipse cx="58" cy="8.5" rx="58" ry="8.5" transform="translate(404 4276)" fill="#f6e0a9"/></g><g transform="translate(420 4222.182)"><path d="M30.966,133.217v-56a3.853,3.853,0,0,1,3.853-3.853h75.87a3.853,3.853,0,0,1,3.853,3.853v56Z" transform="translate(-24.597 0)" fill="#64798a"/><path d="M120.862,90.648H52.1A3.853,3.853,0,0,0,48.249,94.5v46.186h76.466V94.5A3.852,3.852,0,0,0,120.862,90.648Z" transform="translate(-38.326 -13.727)" fill="url(#a)"/><path d="M57.046,351.228v2.812H39.266v-2.812H0v4.248a4.739,4.739,0,0,0,4.739,4.739H91.573a4.739,4.739,0,0,0,4.739-4.739v-4.248Z" transform="translate(0 -220.714)" fill="#d5d6db"/></g><g transform="translate(443.001 4276.219)"><path d="M30.064,221.162l17.63-12.425-24.349-4.431L5.438,216.038Z" transform="translate(-4.908 -161.968)" fill="#ffca3a"/><path d="M91.231,110.581,73.6,99.418l24.351-3.983,17.8,10.4Z" transform="translate(-66.417 -63.722)" fill="#869d69"/><path d="M56.535,37.222,42.1,28.083l19.937-3.262,14.632,8.4Z" transform="translate(-37.992 0)" fill="#c05c48"/><path d="M33.932,144.81a1.5,1.5,0,0,0-.946-.724L8.261,139.655a19.034,19.034,0,0,1,1.022,5.1,23.86,23.86,0,0,1-1.007,4.776L33,153.964a.966.966,0,0,0,.945-.376,1.966,1.966,0,0,0,.392-1.25l-.008-6.136a2.628,2.628,0,0,0-.4-1.392Zm22.687-17.047L31.9,131.744a1.5,1.5,0,0,0-.948.652,2.192,2.192,0,0,0-.4,1.25l-.006,5.516a1.633,1.633,0,0,0,.39,1.121,1.02,1.02,0,0,0,.944.34l24.725-3.983a16.462,16.462,0,0,1-.911-4.551A11.74,11.74,0,0,1,56.619,127.763Zm-30.937,1.606,20.241-3.263a8.305,8.305,0,0,1-.974-3.573,9.125,9.125,0,0,1,.985-3.695L25.692,122.1a1.227,1.227,0,0,0-.775.532,1.784,1.784,0,0,0-.323,1.023l-.006,4.515a1.35,1.35,0,0,0,.32.919A.853.853,0,0,0,25.682,129.369Z" transform="translate(-7.455 -84.841)" fill="#fff3e4"/><path d="M31.846,310.827l-5.8,4.084a1.934,1.934,0,0,0-.378-.113L.947,310.367a.806.806,0,1,0-.283,1.587l24.717,4.43a.747.747,0,0,1,.416.366,1.817,1.817,0,0,1,.269.959l.008,6.138a1.2,1.2,0,0,1-.209.737c-.094.113-.148.1-.179.094L.962,320.244a.806.806,0,1,0-.283,1.587l24.716,4.43a1.755,1.755,0,0,0,.331.032,1.735,1.735,0,0,0,1.18-.471l16.814-12.012a2.278,2.278,0,0,0,.8-1.891l0-3.027Z" transform="translate(0 -256.347)" fill="#f7931e"/><path d="M99.415,151.549l-24.73,3.983a.214.214,0,0,1-.22-.091.868.868,0,0,1-.176-.574l.006-5.517a1.393,1.393,0,0,1,.249-.787.721.721,0,0,1,.416-.319l24.724-3.981a.806.806,0,0,0-.255-1.592s-19.771,3.216-25.192,4.119l-3.3-2.091-3.121.5-1.231-3.252-9.007-5.7a2.792,2.792,0,0,0-1.725,2.445l-.008,5.558a1.965,1.965,0,0,0,.8,1.7l16.951,10.87-.018-.013a1.793,1.793,0,0,0,1.064.35,1.846,1.846,0,0,0,.305-.025L99.67,153.14a.806.806,0,0,0-.255-1.591Z" transform="translate(-50.391 -100.546)" fill="#687c50"/><path d="M62.839,70.627,42.546,73.863a.572.572,0,0,1-.109-.375l.006-4.516a.986.986,0,0,1,.175-.559.465.465,0,0,1,.244-.2L63.1,64.951a.806.806,0,0,0-.255-1.592S42.262,66.707,42.1,66.786l-13.5-8.545a2.283,2.283,0,0,0-1.412,2l-.047,4.755a1.611,1.611,0,0,0,.656,1.393s13.725,8.844,14.3,9.04a1.714,1.714,0,0,0,.748.054l20.241-3.263a.806.806,0,0,0-.255-1.591Z" transform="translate(-24.499 -30.158)" fill="#942e19"/></g></g></svg>