<svg xmlns="http://www.w3.org/2000/svg" width="148" height="76" viewBox="0 0 148 76"><g transform="translate(-390 -4221)"><rect width="148" height="76" transform="translate(390 4221)" fill="none"/><ellipse cx="58" cy="8.5" rx="58" ry="8.5" transform="translate(404 4276)" fill="#f6e0a9"/><g transform="translate(414 4202.895)"><path d="M103.919,26.7l-.373.051-41.966,5.03-41.238-4.86h-.017l-7.773-.915L4,25.008l39.341-4.725a25.355,25.355,0,0,1,6,0Z" transform="translate(2.081)" fill="#c05c48"/><path d="M81.726,39.221l-.373.051L39.387,44.3a1.321,1.321,0,0,1-.373-.051C37.321,43.828,36,40.61,36,36.681c0-4.217,1.524-7.621,3.387-7.621l41.966-5.03c-1.694.423-3.015,3.641-3.015,7.57C78.339,35.817,79.863,39.221,81.726,39.221Z" transform="translate(24.274 2.722)" fill="#eaeaea"/><path d="M81.726,48.221a1.863,1.863,0,0,0-.525.068L39.387,53.3a1.321,1.321,0,0,1-.373-.051C37.321,52.828,36,49.61,36,45.681c0-4.217,1.524-7.621,3.387-7.621l41.966-5.03c-1.694.423-3.015,3.641-3.015,7.57C78.339,44.817,79.863,48.221,81.726,48.221Z" transform="translate(24.274 8.964)" fill="#eaeaea"/><path d="M81.353,33.03c-1.084.271-2.015,1.677-2.54,3.692L39.387,41.447c-1.592,0-2.947,2.506-3.3,5.894-.051-.525-.085-1.084-.085-1.66,0-4.217,1.524-7.621,3.387-7.621Z" transform="translate(24.274 8.964)" fill="#dad4d4"/><path d="M81.353,24.03c-1.084.271-2.015,1.677-2.54,3.692L39.387,32.447c-1.592,0-2.947,2.506-3.3,5.894-.051-.525-.085-1.084-.085-1.66,0-4.217,1.524-7.621,3.387-7.621Z" transform="translate(24.274 2.722)" fill="#dad4d4"/><path d="M82.419,65.682l-1.219.152-15.716,1.88V54.166L55.323,55.385V68.934L40.081,70.763l-.525-.068a1.775,1.775,0,0,1-.474-.169,2.941,2.941,0,0,1-.44-.254.053.053,0,0,1-.034-.017c-.119-.085-.254-.186-.373-.288a4.542,4.542,0,0,1-.474-.508,4.222,4.222,0,0,1-.39-.525,8.976,8.976,0,0,1-.694-1.2c-.135-.288-.254-.593-.39-.915-.085-.237-.169-.491-.254-.745a6.682,6.682,0,0,1-.254-.881c-.085-.288-.152-.593-.22-.9a20.436,20.436,0,0,1-.44-2.845V61.4A24.035,24.035,0,0,1,35,58.908c0-6.554,2.269-11.855,5.081-11.855L81.894,42.04a.318.318,0,0,0-.169.068c-2.473.745-4.386,5.707-4.386,11.719,0,6.554,2.269,11.855,5.081,11.855Z" transform="translate(23.581 15.213)" fill="#eaeaea"/><path d="M82.419,65.682l-1.219.152-15.716,1.88V62.634a7.756,7.756,0,0,0,6.774-7.846v-.334a5.4,5.4,0,0,0-6-5.453L40.081,52.134a3.472,3.472,0,0,0-2.723,1.849,8.994,8.994,0,0,0-.254,9.445,4.2,4.2,0,0,0,2.452,2.186l.525.068,15.242-1.829v5.081L40.081,70.763l-.525-.068a1.775,1.775,0,0,1-.474-.169,2.939,2.939,0,0,1-.44-.254.053.053,0,0,1-.034-.017c-.119-.085-.254-.186-.373-.288a4.542,4.542,0,0,1-.474-.508,4.223,4.223,0,0,1-.39-.525,8.976,8.976,0,0,1-.694-1.2c-.135-.288-.254-.593-.39-.915-.085-.237-.169-.491-.254-.745a6.682,6.682,0,0,1-.254-.881c-.085-.288-.152-.593-.22-.9a20.433,20.433,0,0,1-.44-2.845V61.4A24.037,24.037,0,0,1,35,58.908c0-6.554,2.269-11.855,5.081-11.855L81.894,42.04a.318.318,0,0,0-.169.068c-2.473.745-4.386,5.707-4.386,11.719C77.339,60.381,79.608,65.682,82.419,65.682Z" transform="translate(23.581 15.213)" fill="#dad4d4"/><path d="M57.161,62.748v8.129L52.081,64.1,47,72.571V50.436L57.161,49.2Z" transform="translate(31.903 20.179)" fill="#ed1c24"/><path d="M53.774,49.606V52.7a10.5,10.5,0,0,1-6.7,9.907L47,62.63v9.941L52.081,64.1l5.081,6.774V49.2Z" transform="translate(31.903 20.179)" fill="#c1272d"/><path d="M14.451,24.13l41.238,4.86c-1.863,0-3.387,3.4-3.387,7.621,0,3.929,1.321,7.147,3.015,7.57l-12.16-1.423L35.7,41.878,13.57,39.27A19.186,19.186,0,0,1,12.5,32.378c0-3.98.813-7.333,1.931-8.248Z" transform="translate(7.972 2.792)" fill="#942e19"/><path d="M43.7,36.553a1.321,1.321,0,0,0,.373.051c-1.863,0-3.387,3.4-3.387,7.621,0,3.929,1.321,7.147,3.015,7.57L33.318,50.575l-2.828-.322a16.859,16.859,0,0,1-1.236-6.876c0-4.014.982-7.384,2.286-8.248Z" transform="translate(19.589 10.421)" fill="#869d69"/><path d="M43.176,45.469a1.321,1.321,0,0,0,.373.051c-2.811,0-5.081,5.3-5.081,11.855,0,6.148,2,11.194,4.556,11.787l-10.11-1.185C31.2,65.877,30,61.321,30,56.037c0-5.148,1.135-9.6,2.794-11.787Z" transform="translate(20.113 16.746)" fill="#ffca3a"/><path d="M35.687,68.3l-6.842-.8C27.152,65.349,26,60.844,26,55.645s1.169-9.721,2.862-11.855l3.878.457,2.828.322c-1.66,2.185-2.794,6.639-2.794,11.787,0,5.284,1.2,9.84,2.913,11.94Z" transform="translate(17.339 16.427)" fill="#f7931e"/><path d="M27.044,34.61l7.452.881c-1.3.864-2.286,4.234-2.286,8.248a16.859,16.859,0,0,0,1.236,6.876l-3.878-.457-2.76-.322a13.887,13.887,0,0,1-1.8-7.79,14.139,14.139,0,0,1,2.032-7.435Z" transform="translate(16.633 10.06)" fill="#afafaf"/><path d="M37.193,44.751l2.76.322c-1.694,2.134-2.862,6.639-2.862,11.855s1.152,9.7,2.845,11.855L12.468,65.548A22.614,22.614,0,0,1,10.029,54.3c0-5.69,1.406-10.534,3.353-12.363Z" transform="translate(6.247 15.144)" fill="#ffca3a"/><path d="M20.849,33.812,42.984,36.42a14.139,14.139,0,0,0-2.032,7.435,13.887,13.887,0,0,0,1.8,7.79L18.935,48.834l-6.791-.8-6.757-.8C3.524,47.242,2,43.838,2,39.621S3.524,32,5.387,32l8.281.965v.017Z" transform="translate(0.694 8.25)" fill="#869d69"/><path d="M43.647,47.453,33.266,46.234l-2.828-.322A14.192,14.192,0,0,1,29.32,41.39l11.567,1.321c.44,2.557,1.49,4.42,2.76,4.742Z" transform="translate(19.641 14.762)" fill="#687c50"/><path d="M33.337,46.245l-3.878-.457-2.76-.322A9.775,9.775,0,0,1,25.14,40.91l7.079.813a14.192,14.192,0,0,0,1.118,4.522Z" transform="translate(16.742 14.429)" fill="#868383"/><path d="M42.636,47.3,18.825,44.485l-6.791-.8-6.757-.8c-1.389,0-2.591-1.9-3.116-4.623l9.806,1.118,11.482,1.321,17.63,2.032A9.775,9.775,0,0,0,42.636,47.3Z" transform="translate(0.805 12.598)" fill="#687c50"/><path d="M9.788,23.59l7.773.915c-1.118.915-1.931,4.268-1.931,8.248A19.186,19.186,0,0,0,16.7,39.645l-7.181-.83V38.8a16.045,16.045,0,0,1-1.507-7.74A15.968,15.968,0,0,1,9.788,23.59Z" transform="translate(4.845 2.417)" fill="#ffc846"/><path d="M9.365,41.47l6.791.8C14.209,44.1,12.8,48.939,12.8,54.629a22.614,22.614,0,0,0,2.439,11.245l-6.757-.8A22.485,22.485,0,0,1,6.029,53.816c0-5.673,1.389-10.517,3.336-12.346Z" transform="translate(3.472 14.818)" fill="#f7931e"/><path d="M5.387,23l8.552,1a15.968,15.968,0,0,0-1.778,7.469,16.045,16.045,0,0,0,1.507,7.74l-8.281-.965C3.524,38.242,2,34.838,2,30.621S3.524,23,5.387,23Z" transform="translate(0.694 2.008)" fill="#942e19"/><path d="M55.216,39.327,13.47,34.415a13.379,13.379,0,0,1-.83-3.285l40.1,4.725c.525,1.9,1.423,3.218,2.473,3.472Z" transform="translate(8.073 7.646)" fill="#611c0e"/><path d="M9.348,33.939v-.017a9.176,9.176,0,0,1-1.118-3.3l7.469.864a13.379,13.379,0,0,0,.83,3.285Z" transform="translate(5.014 7.293)" fill="#c39833"/><path d="M13.5,34.581l-8.281-.965c-1.27,0-2.388-1.592-2.964-3.946a1.915,1.915,0,0,0,1.27.559l8.857,1.05a9.176,9.176,0,0,0,1.118,3.3Z" transform="translate(0.867 6.634)" fill="#611c0e"/><path d="M6.081,41l6.757.8C10.89,43.625,9.5,48.469,9.5,54.142A22.485,22.485,0,0,0,11.957,65.4L6.081,64.71C3.269,64.71,1,59.409,1,52.855S3.269,41,6.081,41Z" transform="translate(0 14.492)" fill="#ffca3a"/><path d="M42.732,61.589,32.622,60.4a13.054,13.054,0,0,1-2.2-5.233l1.338.152,7.2.779C39.751,59.116,41.14,61.216,42.732,61.589Z" transform="translate(20.404 24.319)" fill="#f7931e"/><path d="M35.4,60.7l-6.842-.8A13.418,13.418,0,0,1,26.41,54.74l.728.085,6.063.644A13.054,13.054,0,0,0,35.4,60.7Z" transform="translate(17.623 24.021)" fill="#f15a24"/><path d="M39.665,61.112,12.2,57.877A15.267,15.267,0,0,1,10.4,53l27.114,2.947a13.418,13.418,0,0,0,2.151,5.165Z" transform="translate(6.519 22.814)" fill="#f7931e"/><path d="M14.962,58.183l-6.757-.8a15.088,15.088,0,0,1-1.8-4.827l4.911.542,1.846.2a15.267,15.267,0,0,0,1.8,4.877Z" transform="translate(3.752 22.509)" fill="#f15a24"/><path d="M11.576,57.754,5.7,57.06c-1.727,0-3.235-1.981-4.149-5.03l5.826.644,2.4.254a15.088,15.088,0,0,0,1.8,4.827Z" transform="translate(0.381 22.142)" fill="#f7931e"/><path d="M46.41,53.2a1.694,1.694,0,0,1-.195-3.375l14.881-1.8a1.694,1.694,0,0,1,.4,3.365l-14.888,1.8A1.6,1.6,0,0,1,46.41,53.2Z" transform="translate(30.323 19.36)" fill="#dad4d4"/></g></g></svg>