<svg xmlns="http://www.w3.org/2000/svg" width="163.661" height="109.751" viewBox="0 0 163.661 109.751"><g transform="translate(-717 -8197.866)"><g transform="translate(727.764 8140.131)"><g transform="translate(49.753 111.172)"><g transform="translate(0 0)"><g transform="translate(18.078 31.967)"><path d="M245.927,388.28a2.089,2.089,0,0,1-2.089-2.089V366.831a2.089,2.089,0,1,1,4.177,0v19.361A2.089,2.089,0,0,1,245.927,388.28Z" transform="translate(-243.838 -364.742)" fill="#855b51"/></g><g transform="translate(39.713 21.9)"><path d="M323.7,362.967a2.088,2.088,0,0,1-2.089-2.089V330.641a2.089,2.089,0,0,1,4.177,0v30.237A2.089,2.089,0,0,1,323.7,362.967Z" transform="translate(-321.61 -328.552)" fill="#a18278"/></g><circle cx="18.699" cy="18.699" r="18.699" fill="#0f7a4f"/><path d="M234.533,270.5a18.7,18.7,0,0,1-30.352,14.624,18.7,18.7,0,0,0,16.944-32.563A18.706,18.706,0,0,1,234.533,270.5Z" transform="translate(-197.135 -251.8)" fill="#0c6842"/></g></g><g transform="translate(78.597 66.497)"><circle cx="18.699" cy="18.699" r="18.699" transform="translate(0 0)" fill="#158f5e"/><path d="M357.2,107.934a18.712,18.712,0,0,1-23.036,18.193,18.7,18.7,0,0,0,0-36.385A18.712,18.712,0,0,1,357.2,107.934Z" transform="translate(-319.805 -89.234)" fill="#0f7a4f"/></g><g transform="translate(103.091 91.966)"><circle cx="18.699" cy="18.699" r="18.699" fill="#158f5e"/><path d="M443.756,199.491a18.709,18.709,0,0,1-23.611,18.045,18.7,18.7,0,0,0,2.448-36.583,18.968,18.968,0,0,1,2.465-.161A18.7,18.7,0,0,1,443.756,199.491Z" transform="translate(-406.359 -180.791)" fill="#0f7a4f"/></g><g transform="translate(95.191 82.768)"><g transform="translate(0 0)"><path d="M355.1,366.156a2.088,2.088,0,0,1-2.089-2.089V336.18a2.089,2.089,0,1,1,4.177,0v27.888A2.088,2.088,0,0,1,355.1,366.156Z" transform="translate(-350 -282.246)" fill="#5e685d"/><path d="M356.785,208.839a14.6,14.6,0,0,1-14.6-14.6V162.319a14.6,14.6,0,1,1,29.193,0v31.924A14.6,14.6,0,0,1,356.785,208.839Z" transform="translate(-342.188 -147.722)" fill="#d2f0a2"/><path d="M399.95,162.318v31.923a14.606,14.606,0,0,1-18.184,14.153,14.6,14.6,0,0,0,11.013-14.153V162.318a14.6,14.6,0,0,0-11.013-14.151,14.6,14.6,0,0,1,18.184,14.151Z" transform="translate(-370.756 -147.722)" fill="#bcea73"/></g><path d="M380.626,254.483a2.089,2.089,0,0,0-2.954,0l-1.06,1.06V250.98h0v-8.165a2.089,2.089,0,1,0-4.177,0v3.123l-2.106-2.106a2.088,2.088,0,1,0-2.954,2.953l5.06,5.06v43.7a2.089,2.089,0,1,0,4.177,0V261.45l4.014-4.014A2.089,2.089,0,0,0,380.626,254.483Z" transform="translate(-359.927 -214.853)" fill="#942e19"/></g><g transform="translate(20.842 57.735)"><g transform="translate(0 0)"><path d="M89.519,107.361a14.6,14.6,0,0,1-14.6-14.6V72.332a14.6,14.6,0,0,1,29.193,0V92.765A14.6,14.6,0,0,1,89.519,107.361Z" transform="translate(-74.922 -57.735)" fill="#d2f0a2"/><path d="M131.654,72.332V92.767a14.606,14.606,0,0,1-18.579,14.045,14.6,14.6,0,0,0,10.612-14.045V72.333a14.608,14.608,0,0,0-10.612-14.045,14.6,14.6,0,0,1,18.579,14.045Z" transform="translate(-102.461 -57.736)" fill="#bcea73"/></g><path d="M113.359,123.189a2.089,2.089,0,0,0-2.953,0l-1.06,1.06v-4.563h0v-8.165a2.089,2.089,0,0,0-4.177,0v3.123l-2.106-2.107a2.089,2.089,0,0,0-2.953,2.954l5.06,5.06v8.74h0v73.421a2.089,2.089,0,0,0,4.177,0V130.157l4.014-4.014a2.089,2.089,0,0,0,0-2.954Z" transform="translate(-92.661 -95.051)" fill="#a18278"/></g><g transform="translate(33.739 89.919)"><circle cx="22.162" cy="22.162" r="22.162" transform="translate(0 0)" fill="#1ca56f"/><path d="M197.721,195.592a22.166,22.166,0,0,1-31.948,19.887,22.166,22.166,0,0,0,5.741-41.679,22.187,22.187,0,0,1,26.207,21.792Z" transform="translate(-153.397 -173.431)" fill="#158f5e"/><path d="M202.02,208.737a2.088,2.088,0,0,0-2.953,0l-1.448,1.448v-2.411a2.089,2.089,0,0,0-4.177,0v22.1a2.089,2.089,0,1,0,4.177,0V216.092l4.4-4.4A2.088,2.088,0,0,0,202.02,208.737Z" transform="translate(-173.368 -196.712)" fill="#724d44"/><g transform="translate(20.073 53.558)"><path d="M195.53,389.965a2.089,2.089,0,0,1-2.089-2.089V368.045a2.089,2.089,0,0,1,4.177,0v19.832A2.088,2.088,0,0,1,195.53,389.965Z" transform="translate(-193.441 -365.956)" fill="#5e685d"/></g></g><g transform="translate(67.859 62.157)"><path d="M273.372,128.293c0,25.684-6.59,25.226-14.718,25.226s-14.718.458-14.718-25.226,8.306-54.661,14.718-54.661S273.372,102.61,273.372,128.293Z" transform="translate(-243.935 -73.632)" fill="#a3e440"/><path d="M273.372,128.293c0,25.684-6.59,25.226-14.718,25.226s-14.718.458-14.718-25.226,8.306-54.661,14.718-54.661S273.372,102.61,273.372,128.293Z" transform="translate(-243.935 -73.632)" fill="#a3e440"/><path d="M301.619,128.3c0,25.685-6.588,25.226-14.717,25.226-1.324,0-2.61.013-3.832-.08,6.269-.466,10.885-3.653,10.885-25.146,0-20.75-5.423-43.647-10.885-51.68,1.3-1.911,2.6-2.98,3.832-2.98C293.314,73.635,301.619,102.613,301.619,128.3Z" transform="translate(-272.183 -73.634)" fill="#99d53b"/><path d="M283.33,239.187a2.089,2.089,0,0,0-2.954,0l-3.822,3.822V225.6a2.089,2.089,0,0,0-4.177,0v4.366l-2.97-2.97a2.089,2.089,0,0,0-2.954,2.954l5.924,5.924v48.375a2.089,2.089,0,0,0,4.177,0V248.916l6.775-6.775A2.089,2.089,0,0,0,283.33,239.187Z" transform="translate(-259.747 -181.819)" fill="#724d44"/></g><g transform="translate(2.236 93.458)"><path d="M8.038,228.254c0,19.783,8.917,19.43,19.916,19.43s19.916.353,19.916-19.43-11.239-42.1-19.916-42.1-19.916,22.319-19.916,42.1Z" transform="translate(-8.038 -186.152)" fill="#a3e440"/><path d="M8.038,228.254c0,19.783,8.917,19.43,19.916,19.43s19.916.353,19.916-19.43-11.239-42.1-19.916-42.1-19.916,22.319-19.916,42.1Z" transform="translate(-8.038 -186.152)" fill="#99d53b"/><path d="M88.745,228.254c0,19.784-8.915,19.431-19.915,19.431-1.43,0-2.821.006-4.164-.028,9-.22,15.75-2.189,15.75-19.4,0-16.718-8.025-35.248-15.75-40.586a7.426,7.426,0,0,1,4.164-1.516C77.507,186.152,88.745,208.47,88.745,228.254Z" transform="translate(-48.913 -186.152)" fill="#8dc637"/></g><g transform="translate(31.623 105.189)"><path d="M143.115,259.439c0,14.62-6.59,14.359-14.718,14.359s-14.718.261-14.718-14.359,8.306-31.114,14.718-31.114S143.115,244.819,143.115,259.439Z" transform="translate(-113.678 -228.324)" fill="#a3e440"/><path d="M143.115,259.439c0,14.62-6.59,14.359-14.718,14.359s-14.718.261-14.718-14.359,8.306-31.114,14.718-31.114S143.115,244.819,143.115,259.439Z" transform="translate(-113.678 -228.324)" fill="#a3e440"/><path d="M170.005,259.434c0,14.621-6.587,14.359-14.718,14.359-1.516,0-2.977.008-4.353-.072,6-.348,10.365-2.392,10.365-14.287,0-11.436-5.082-24.018-10.365-28.958a6.718,6.718,0,0,1,4.353-2.156C161.7,228.32,170.005,244.816,170.005,259.434Z" transform="translate(-140.57 -228.32)" fill="#99d53b"/><path d="M170.032,304.29a2.089,2.089,0,0,0-2.953,0l-3.822,3.822V297.887a2.089,2.089,0,0,0-4.177,0v15.266h0v23.273a2.089,2.089,0,0,0,4.177,0V314.019l6.775-6.775A2.089,2.089,0,0,0,170.032,304.29Z" transform="translate(-146.449 -277.027)" fill="#942e19"/></g><g transform="translate(118.291 121)"><path d="M446.441,307.587c0,10.536-4.749,10.349-10.608,10.349s-10.608.188-10.608-10.349,5.986-22.424,10.608-22.424S446.441,297.051,446.441,307.587Z" transform="translate(-425.226 -285.162)" fill="#a3e440"/><path d="M446.441,307.587c0,10.536-4.749,10.349-10.608,10.349s-10.608.188-10.608-10.349,5.986-22.424,10.608-22.424S446.441,297.051,446.441,307.587Z" transform="translate(-425.226 -285.162)" fill="#a3e440"/><path d="M464.745,307.585c0,10.535-4.751,10.348-10.61,10.348-1.246,0-2.442.008-3.552-.081,4.112-.325,7.052-1.975,7.052-10.267,0-7.942-3.4-16.649-7.052-20.46a5.287,5.287,0,0,1,3.552-1.967C458.759,285.158,464.745,297.047,464.745,307.585Z" transform="translate(-443.529 -285.158)" fill="#99d53b"/><path d="M463.458,339.268a2.088,2.088,0,0,0-2.953,0l-.477.477v-5.961a2.089,2.089,0,0,0-4.177,0v11h0v17.55a2.089,2.089,0,0,0,4.177,0V345.653l3.431-3.431A2.089,2.089,0,0,0,463.458,339.268Z" transform="translate(-447.331 -318.75)" fill="#a18278"/></g><path d="M63.434,282.559a2.089,2.089,0,0,0-2.953-2.954l-.253.253v-5.75a2.089,2.089,0,0,0-4.177,0v17.866l-2.63-2.63a2.089,2.089,0,1,0-2.953,2.954l5.583,5.583v21.382a2.089,2.089,0,0,0,4.177,0V297.018h0v-11.25Z" transform="translate(-35.986 -154.675)" fill="#724d44"/></g><g transform="translate(789 8256.429)"><g transform="translate(0 8.259)"><path d="M16,21.083l7.684-1.1V36.363a2.3,2.3,0,0,1-.571-.285l-6.191-4.424C16.34,31.237,16,29.48,16,28.767Z" transform="translate(1.564 -8.956)" fill="#99705f"/><g transform="translate(19.771 2)"><path d="M16.92,33.6l6.191,4.423a2.191,2.191,0,0,0,1.277.409H55.518a2.195,2.195,0,0,0,2.2-2.2V6.633a2.193,2.193,0,0,0-.92-1.786L50.6.424A2.191,2.191,0,0,0,49.326.015H18.2A2.195,2.195,0,0,0,16,2.21V31.817a2.193,2.193,0,0,0,.92,1.786Z" transform="translate(-16 0.001)" fill="#a87e6b"/><path d="M57.03,6.146V35.751a2.2,2.2,0,0,1-2.2,2.2H23.7a2.158,2.158,0,0,1-.7-.121V5.015H56.711a2.142,2.142,0,0,1,.318,1.131Z" transform="translate(-15.316 0.49)" fill="#be927c"/><path d="M31.489,14.6H28.2a2.195,2.195,0,0,1-2.2-2.2v-2.2a2.195,2.195,0,0,1,2.2-2.2h3.293a2.195,2.195,0,0,1,2.2,2.2v2.2A2.195,2.195,0,0,1,31.489,14.6ZM28.2,10.21v2.2h3.293v-2.2Z" transform="translate(-15.023 0.783)" fill="#374f68"/><path d="M57.328,5.5H23.617L16.69.553A2.159,2.159,0,0,1,18.128.015H49.26a2.2,2.2,0,0,1,1.273.406l6.191,4.424A2.027,2.027,0,0,1,57.328,5.5Z" transform="translate(-15.933 0.001)" fill="#d3a997"/><path d="M42.74,5.5H38.964L31.28.015h3.776Z" transform="translate(-14.507 0.001)" fill="#374f68"/><path d="M41.266,26.6v9.88H23.7a2,2,0,0,1-.362-.033,3.034,3.034,0,0,1-.34-.088V19.985h9.88a2.2,2.2,0,0,1,1.273.406l6.191,4.424A2.2,2.2,0,0,1,41.266,26.6Z" transform="translate(-15.316 1.953)" fill="#a87e6b"/><path d="M57.334,5.478v.011H23.623L16.63.615A2.581,2.581,0,0,1,17.816.022,3.08,3.08,0,0,1,18.134,0s4.391,4.424,6.586,4.424c.285,0,25.149.494,28.332-.055C53.81,4.237,50.111.845,49.266,0a2.2,2.2,0,0,1,1.273.406L56.73,4.83a2.126,2.126,0,0,1,.6.648Z" transform="translate(-15.938 0)" fill="#be927c"/><path d="M24.1,37.948S22.74,6.131,25.2,6.131c8.782,0,31.516-1.1,31.516-1.1L23,5V37.828Z" transform="translate(-15.316 0.489)" fill="#c49986"/><path d="M23.684,5.434V38.262s-1.1-.165-1.1-.659V6.565c0-1.669-4.468-2.711-6.586-3.107V2.141A2.117,2.117,0,0,1,16.692.56Z" transform="translate(-16 0.055)" fill="#99705f"/></g><path d="M42.282,44.118l6.192,4.423a2.186,2.186,0,0,0,1.272.409H76.092a2.195,2.195,0,0,0,2.2-2.2V22.6a2.193,2.193,0,0,0-.92-1.786l-6.191-4.424a2.2,2.2,0,0,0-1.277-.408H43.554a2.195,2.195,0,0,0-2.2,2.2v24.15A2.2,2.2,0,0,0,42.282,44.118Z" transform="translate(4.042 -9.347)" fill="#a87e6b"/><path d="M77.6,22.116v24.15a2.2,2.2,0,0,1-2.2,2.2H49.063a2.158,2.158,0,0,1-.7-.121V20.985H77.285A2.142,2.142,0,0,1,77.6,22.116Z" transform="translate(4.726 -8.858)" fill="#cca38e"/><path d="M77.9,21.474H48.977L42.05,16.523a2.217,2.217,0,0,1,1.438-.538H69.834a2.2,2.2,0,0,1,1.273.406L77.3,20.815a2.027,2.027,0,0,1,.6.659Z" transform="translate(4.11 -9.347)" fill="#d3a997"/><path d="M49.044,32.015V47.262l-6.765-4.711-.92-1.786V34.178Z" transform="translate(4.042 -7.78)" fill="#99705f"/><path d="M77.907,21.464v.011H48.982L41.989,16.6a2.581,2.581,0,0,1,1.186-.593,3.081,3.081,0,0,1,.318-.022s4.391,4.424,6.586,4.424c.285,0,20.363.494,23.546-.055.757-.132-2.942-3.524-3.787-4.369a2.2,2.2,0,0,1,1.273.406L77.3,20.816a2.126,2.126,0,0,1,.6.648Z" transform="translate(4.104 -9.347)" fill="#be927c"/><path d="M49.457,48.462s-1.358-26.346,1.1-26.346c8.782,0,26.73-1.1,26.73-1.1l-28.925-.033V48.341Z" transform="translate(4.726 -8.858)" fill="#c49986"/><path d="M49.043,21.42V48.775s-1.1-.165-1.1-.659V22.551c0-1.669-4.468-2.711-6.586-3.107V18.127a2.117,2.117,0,0,1,.692-1.581Z" transform="translate(4.042 -9.292)" fill="#99705f"/><path d="M65.1,21.474H61.335l-7.7-5.489h3.776Z" transform="translate(5.242 -9.347)" fill="#374f68"/><path d="M55.75,27.21H52.457a1.1,1.1,0,1,1,0-2.2H55.75a1.1,1.1,0,1,1,0,2.2Z" transform="translate(5.019 -8.465)" fill="#374f68"/><path d="M.92,46.954l6.191,4.424a2.2,2.2,0,0,0,1.277.408H38.026a2.195,2.195,0,0,0,2.2-2.2V27.6a2.193,2.193,0,0,0-.92-1.786L33.11,21.394a2.195,2.195,0,0,0-1.276-.408H2.2a2.195,2.195,0,0,0-2.2,2.2V45.168a2.193,2.193,0,0,0,.92,1.786Z" transform="translate(0 -8.858)" fill="#a87e6b"/><path d="M39.537,27.116V49.1a2.195,2.195,0,0,1-2.2,2.2H7.7a2.458,2.458,0,0,1-.7-.11v-25.2H39.218a2.142,2.142,0,0,1,.318,1.131Z" transform="translate(0.684 -8.37)" fill="#cca38e"/><path d="M39.857,26.507l-32.24-.033L.69,21.523a2.217,2.217,0,0,1,1.438-.538H31.767a2.2,2.2,0,0,1,1.273.406l6.191,4.424A2.206,2.206,0,0,1,39.857,26.507Z" transform="translate(0.067 -8.858)" fill="#d3a997"/><path d="M39.841,26.449v.011H7.623L.63,21.586a2.581,2.581,0,0,1,1.186-.593,3.081,3.081,0,0,1,.318-.022s4.391,4.423,6.586,4.423c.285,0,23.656.494,26.84-.055.757-.132-2.942-3.524-3.787-4.369a2.2,2.2,0,0,1,1.273.406L39.237,25.8a2.117,2.117,0,0,1,.6.649Z" transform="translate(0.062 -8.86)" fill="#be927c"/><path d="M8.1,51.251S6.74,27.1,9.2,27.1c8.782,0,30.023-1.1,30.023-1.1L7,25.971v25.16Z" transform="translate(0.684 -8.371)" fill="#c49986"/><path d="M7.684,26.405v25.16s-1.1-.165-1.1-.659V27.535c0-1.669-4.468-2.711-6.586-3.107V23.111A2.117,2.117,0,0,1,.692,21.53Z" transform="translate(0 -8.805)" fill="#99705f"/><g transform="translate(12.779 12.127)"><path d="M25.4,26.5l-3.765-.011-7.717-5.5h3.765Z" transform="translate(-11.418 -20.985)" fill="#374f68"/><path d="M16.032,40.21H12.739a1.1,1.1,0,1,1,0-2.2h3.293a1.1,1.1,0,1,1,0,2.2Z" transform="translate(-11.641 -19.321)" fill="#374f68"/><path d="M19.325,44.21H12.739a1.1,1.1,0,1,1,0-2.2h6.586a1.1,1.1,0,1,1,0,2.2Z" transform="translate(-11.641 -18.93)" fill="#374f68"/></g></g></g><g transform="translate(717 8303.439)"><path d="M161.261,443.427H2.4a2.109,2.109,0,1,1,0-4.177H161.261a2.109,2.109,0,1,1,0,4.177Z" transform="translate(0 -439.25)" fill="#855b51"/></g></g></svg>