<svg xmlns="http://www.w3.org/2000/svg" width="163.661" height="109.751" viewBox="0 0 163.661 109.751"><g transform="translate(-1068 -8197.866)"><g transform="translate(1078.764 8140.131)"><g transform="translate(49.753 111.172)"><g transform="translate(0 0)"><g transform="translate(18.078 31.967)"><path d="M245.927,388.28a2.089,2.089,0,0,1-2.089-2.089V366.831a2.089,2.089,0,1,1,4.177,0v19.361A2.089,2.089,0,0,1,245.927,388.28Z" transform="translate(-243.838 -364.742)" fill="#855b51"/></g><g transform="translate(39.713 21.9)"><path d="M323.7,362.967a2.088,2.088,0,0,1-2.089-2.089V330.641a2.089,2.089,0,0,1,4.177,0v30.237A2.089,2.089,0,0,1,323.7,362.967Z" transform="translate(-321.61 -328.552)" fill="#a18278"/></g><circle cx="18.699" cy="18.699" r="18.699" fill="#0f7a4f"/><path d="M234.533,270.5a18.7,18.7,0,0,1-30.352,14.624,18.7,18.7,0,0,0,16.944-32.563A18.706,18.706,0,0,1,234.533,270.5Z" transform="translate(-197.135 -251.8)" fill="#0c6842"/></g></g><g transform="translate(78.597 66.497)"><circle cx="18.699" cy="18.699" r="18.699" transform="translate(0 0)" fill="#158f5e"/><path d="M357.2,107.934a18.712,18.712,0,0,1-23.036,18.193,18.7,18.7,0,0,0,0-36.385A18.712,18.712,0,0,1,357.2,107.934Z" transform="translate(-319.805 -89.234)" fill="#0f7a4f"/></g><g transform="translate(103.091 91.966)"><circle cx="18.699" cy="18.699" r="18.699" fill="#158f5e"/><path d="M443.756,199.491a18.709,18.709,0,0,1-23.611,18.045,18.7,18.7,0,0,0,2.448-36.583,18.968,18.968,0,0,1,2.465-.161A18.7,18.7,0,0,1,443.756,199.491Z" transform="translate(-406.359 -180.791)" fill="#0f7a4f"/></g><g transform="translate(95.191 82.768)"><g transform="translate(0 0)"><path d="M355.1,366.156a2.088,2.088,0,0,1-2.089-2.089V336.18a2.089,2.089,0,1,1,4.177,0v27.888A2.088,2.088,0,0,1,355.1,366.156Z" transform="translate(-350 -282.246)" fill="#5e685d"/><path d="M356.785,208.839a14.6,14.6,0,0,1-14.6-14.6V162.319a14.6,14.6,0,1,1,29.193,0v31.924A14.6,14.6,0,0,1,356.785,208.839Z" transform="translate(-342.188 -147.722)" fill="#d2f0a2"/><path d="M399.95,162.318v31.923a14.606,14.606,0,0,1-18.184,14.153,14.6,14.6,0,0,0,11.013-14.153V162.318a14.6,14.6,0,0,0-11.013-14.151,14.6,14.6,0,0,1,18.184,14.151Z" transform="translate(-370.756 -147.722)" fill="#bcea73"/></g><path d="M380.626,254.483a2.089,2.089,0,0,0-2.954,0l-1.06,1.06V250.98h0v-8.165a2.089,2.089,0,1,0-4.177,0v3.123l-2.106-2.106a2.088,2.088,0,1,0-2.954,2.953l5.06,5.06v43.7a2.089,2.089,0,1,0,4.177,0V261.45l4.014-4.014A2.089,2.089,0,0,0,380.626,254.483Z" transform="translate(-359.927 -214.853)" fill="#942e19"/></g><g transform="translate(20.842 57.735)"><g transform="translate(0 0)"><path d="M89.519,107.361a14.6,14.6,0,0,1-14.6-14.6V72.332a14.6,14.6,0,0,1,29.193,0V92.765A14.6,14.6,0,0,1,89.519,107.361Z" transform="translate(-74.922 -57.735)" fill="#d2f0a2"/><path d="M131.654,72.332V92.767a14.606,14.606,0,0,1-18.579,14.045,14.6,14.6,0,0,0,10.612-14.045V72.333a14.608,14.608,0,0,0-10.612-14.045,14.6,14.6,0,0,1,18.579,14.045Z" transform="translate(-102.461 -57.736)" fill="#bcea73"/></g><path d="M113.359,123.189a2.089,2.089,0,0,0-2.953,0l-1.06,1.06v-4.563h0v-8.165a2.089,2.089,0,0,0-4.177,0v3.123l-2.106-2.107a2.089,2.089,0,0,0-2.953,2.954l5.06,5.06v8.74h0v73.421a2.089,2.089,0,0,0,4.177,0V130.157l4.014-4.014a2.089,2.089,0,0,0,0-2.954Z" transform="translate(-92.661 -95.051)" fill="#a18278"/></g><g transform="translate(33.739 89.919)"><circle cx="22.162" cy="22.162" r="22.162" transform="translate(0 0)" fill="#1ca56f"/><path d="M197.721,195.592a22.166,22.166,0,0,1-31.948,19.887,22.166,22.166,0,0,0,5.741-41.679,22.187,22.187,0,0,1,26.207,21.792Z" transform="translate(-153.397 -173.431)" fill="#158f5e"/><path d="M202.02,208.737a2.088,2.088,0,0,0-2.953,0l-1.448,1.448v-2.411a2.089,2.089,0,0,0-4.177,0v22.1a2.089,2.089,0,1,0,4.177,0V216.092l4.4-4.4A2.088,2.088,0,0,0,202.02,208.737Z" transform="translate(-173.368 -196.712)" fill="#724d44"/><g transform="translate(20.073 53.558)"><path d="M195.53,389.965a2.089,2.089,0,0,1-2.089-2.089V368.045a2.089,2.089,0,0,1,4.177,0v19.832A2.088,2.088,0,0,1,195.53,389.965Z" transform="translate(-193.441 -365.956)" fill="#5e685d"/></g></g><g transform="translate(67.859 62.157)"><path d="M273.372,128.293c0,25.684-6.59,25.226-14.718,25.226s-14.718.458-14.718-25.226,8.306-54.661,14.718-54.661S273.372,102.61,273.372,128.293Z" transform="translate(-243.935 -73.632)" fill="#a3e440"/><path d="M273.372,128.293c0,25.684-6.59,25.226-14.718,25.226s-14.718.458-14.718-25.226,8.306-54.661,14.718-54.661S273.372,102.61,273.372,128.293Z" transform="translate(-243.935 -73.632)" fill="#a3e440"/><path d="M301.619,128.3c0,25.685-6.588,25.226-14.717,25.226-1.324,0-2.61.013-3.832-.08,6.269-.466,10.885-3.653,10.885-25.146,0-20.75-5.423-43.647-10.885-51.68,1.3-1.911,2.6-2.98,3.832-2.98C293.314,73.635,301.619,102.613,301.619,128.3Z" transform="translate(-272.183 -73.634)" fill="#99d53b"/><path d="M283.33,239.187a2.089,2.089,0,0,0-2.954,0l-3.822,3.822V225.6a2.089,2.089,0,0,0-4.177,0v4.366l-2.97-2.97a2.089,2.089,0,0,0-2.954,2.954l5.924,5.924v48.375a2.089,2.089,0,0,0,4.177,0V248.916l6.775-6.775A2.089,2.089,0,0,0,283.33,239.187Z" transform="translate(-259.747 -181.819)" fill="#724d44"/></g><g transform="translate(2.236 93.458)"><path d="M8.038,228.254c0,19.783,8.917,19.43,19.916,19.43s19.916.353,19.916-19.43-11.239-42.1-19.916-42.1-19.916,22.319-19.916,42.1Z" transform="translate(-8.038 -186.152)" fill="#a3e440"/><path d="M8.038,228.254c0,19.783,8.917,19.43,19.916,19.43s19.916.353,19.916-19.43-11.239-42.1-19.916-42.1-19.916,22.319-19.916,42.1Z" transform="translate(-8.038 -186.152)" fill="#99d53b"/><path d="M88.745,228.254c0,19.784-8.915,19.431-19.915,19.431-1.43,0-2.821.006-4.164-.028,9-.22,15.75-2.189,15.75-19.4,0-16.718-8.025-35.248-15.75-40.586a7.426,7.426,0,0,1,4.164-1.516C77.507,186.152,88.745,208.47,88.745,228.254Z" transform="translate(-48.913 -186.152)" fill="#8dc637"/></g><g transform="translate(31.623 105.189)"><path d="M143.115,259.439c0,14.62-6.59,14.359-14.718,14.359s-14.718.261-14.718-14.359,8.306-31.114,14.718-31.114S143.115,244.819,143.115,259.439Z" transform="translate(-113.678 -228.324)" fill="#a3e440"/><path d="M143.115,259.439c0,14.62-6.59,14.359-14.718,14.359s-14.718.261-14.718-14.359,8.306-31.114,14.718-31.114S143.115,244.819,143.115,259.439Z" transform="translate(-113.678 -228.324)" fill="#a3e440"/><path d="M170.005,259.434c0,14.621-6.587,14.359-14.718,14.359-1.516,0-2.977.008-4.353-.072,6-.348,10.365-2.392,10.365-14.287,0-11.436-5.082-24.018-10.365-28.958a6.718,6.718,0,0,1,4.353-2.156C161.7,228.32,170.005,244.816,170.005,259.434Z" transform="translate(-140.57 -228.32)" fill="#99d53b"/><path d="M170.032,304.29a2.089,2.089,0,0,0-2.953,0l-3.822,3.822V297.887a2.089,2.089,0,0,0-4.177,0v15.266h0v23.273a2.089,2.089,0,0,0,4.177,0V314.019l6.775-6.775A2.089,2.089,0,0,0,170.032,304.29Z" transform="translate(-146.449 -277.027)" fill="#942e19"/></g><g transform="translate(118.291 121)"><path d="M446.441,307.587c0,10.536-4.749,10.349-10.608,10.349s-10.608.188-10.608-10.349,5.986-22.424,10.608-22.424S446.441,297.051,446.441,307.587Z" transform="translate(-425.226 -285.162)" fill="#a3e440"/><path d="M446.441,307.587c0,10.536-4.749,10.349-10.608,10.349s-10.608.188-10.608-10.349,5.986-22.424,10.608-22.424S446.441,297.051,446.441,307.587Z" transform="translate(-425.226 -285.162)" fill="#a3e440"/><path d="M464.745,307.585c0,10.535-4.751,10.348-10.61,10.348-1.246,0-2.442.008-3.552-.081,4.112-.325,7.052-1.975,7.052-10.267,0-7.942-3.4-16.649-7.052-20.46a5.287,5.287,0,0,1,3.552-1.967C458.759,285.158,464.745,297.047,464.745,307.585Z" transform="translate(-443.529 -285.158)" fill="#99d53b"/><path d="M463.458,339.268a2.088,2.088,0,0,0-2.953,0l-.477.477v-5.961a2.089,2.089,0,0,0-4.177,0v11h0v17.55a2.089,2.089,0,0,0,4.177,0V345.653l3.431-3.431A2.089,2.089,0,0,0,463.458,339.268Z" transform="translate(-447.331 -318.75)" fill="#a18278"/></g><path d="M63.434,282.559a2.089,2.089,0,0,0-2.953-2.954l-.253.253v-5.75a2.089,2.089,0,0,0-4.177,0v17.866l-2.63-2.63a2.089,2.089,0,1,0-2.953,2.954l5.583,5.583v21.382a2.089,2.089,0,0,0,4.177,0V297.018h0v-11.25Z" transform="translate(-35.986 -154.675)" fill="#724d44"/></g><g transform="translate(1068 8303.439)"><path d="M161.261,443.427H2.4a2.109,2.109,0,1,1,0-4.177H161.261a2.109,2.109,0,1,1,0,4.177Z" transform="translate(0 -439.25)" fill="#855b51"/></g><g transform="translate(1140.313 8240.604)"><path d="M342.4,164.8h18.312v33.19h-30V183.051l3.5-12.094A8.528,8.528,0,0,1,342.4,164.8" transform="translate(-329.305 -148.137)" fill="#ff7058"/><path d="M354.773,202.794l3.119-10.78a4.388,4.388,0,0,1,4.192-3.15h14.144v13.93Z" transform="translate(-348.988 -168.033)" fill="#84dbff"/><path d="M354.731,202.762H376.2v-13.93Z" transform="translate(-348.95 -168.007)" fill="#cdd6e0"/><path d="M354.773,202.794l3.119-10.78a4.388,4.388,0,0,1,4.192-3.15h14.144Z" transform="translate(-348.988 -168.033)" fill="#f2f2f2"/><path d="M51.737,68.6H5.542A5.543,5.543,0,0,0,0,74.139v44.308H57.28V74.139A5.542,5.542,0,0,0,51.737,68.6" transform="translate(31.407 -68.597)" fill="#ffd15c"/><path d="M113.9,68.651V83.3l2.143-2.143,2.246,2.247,2.245-2.247,2.245,2.247,2.249-2.247L127.3,83.4l2.243-2.247,2.169,2.169V68.651Z" transform="translate(-62.753 -68.642)" fill="#f2f2f2"/><path d="M.043,325.361v6.263H88.723v-6.263H79.467a12.7,12.7,0,0,0-22.17,0H27.515a12.682,12.682,0,0,0-22.15,0Z" transform="translate(-0.043 -275.512)" fill="#334a5e"/><path d="M366.229,350.088a8.85,8.85,0,1,0,8.851-8.851,8.851,8.851,0,0,0-8.851,8.851" transform="translate(-358.673 -294.015)" fill="#40596b"/><path d="M396.789,375.373a3.556,3.556,0,1,0,3.555-3.555,3.555,3.555,0,0,0-3.555,3.555" transform="translate(-383.94 -319.299)" fill="#acb3ba"/><path d="M66.336,350.088a8.851,8.851,0,1,0,8.851-8.851,8.853,8.853,0,0,0-8.851,8.851" transform="translate(-6.841 -294.015)" fill="#40596b"/><path d="M96.907,375.373a3.555,3.555,0,1,0,3.555-3.555,3.554,3.554,0,0,0-3.555,3.555" transform="translate(-32.116 -319.299)" fill="#acb3ba"/></g></g></svg>