<svg xmlns="http://www.w3.org/2000/svg" xmlns:xlink="http://www.w3.org/1999/xlink" width="190" height="290" viewBox="0 0 190 290"><defs><clipPath id="a"><rect width="37.122" height="39.908" fill="none"/></clipPath><clipPath id="b"><rect width="37.122" height="39.899" fill="none"/></clipPath><clipPath id="c"><rect width="37.954" height="16.379" fill="none"/></clipPath><clipPath id="d"><rect width="37.943" height="16.374" fill="none"/></clipPath></defs><g transform="translate(-180 -11441)"><rect width="190" height="290" transform="translate(180 11441)" fill="none"/><path d="M15.2,170.28c.3-5.949-1.273-19.622,10.387-18.745-2.885-14.371,9.609-22.873,23.558-22.5.144-9.832,5.151-21.306,15.188-24.9,5.409-1.939,12.681-4.271,18.08-1.937,3.869,1.672,5.3,5.964,7.914,7.463,2.377,1.364,1.731.059,4.93.208,9.254.433,14.183,2.882,17.627,10.968,9.078-3.577,23.252,2.47,26.477,12.072,5.516-2.289,11.692-.13,15.784,4.428,2.047,2.281,5.678,5.8,7.174,8.2,2.87,4.619,4.284,17.656-.847,20.409-3.908,2.1-11.422.993-15.742,1.168-11.8.476-23.5.247-35.335-.242-21.063-.871-42.414-1.457-63.365,0-8.7.6-22.553-.354-31.835,3.415" transform="translate(185.88 11536.453)" fill="#73b88d"/><ellipse cx="77.184" cy="24.309" rx="77.184" ry="24.309" transform="translate(201.075 11682.127)" fill="#a44a0d"/><g transform="translate(5657.661 19690.178)"><path d="M211.4,179.735c0,3.751-17.782,6.792-39.72,6.792s-39.722-3.041-39.722-6.792,17.784-6.792,39.722-6.792,39.72,3.041,39.72,6.792" transform="translate(-5553.766 -8147.949)" fill="#a44a0d"/><path d="M193.407,97.684c.487,1.051-.853,1.7-.853,1.7-.367.263-1.083-.115-1.723-.588a13.272,13.272,0,0,1-1.262-1.074,3.574,3.574,0,0,1-1.4-2.04,1.642,1.642,0,0,1,.684-1.6c1.493-.863,3.554,1.8,3.554,1.8a3.02,3.02,0,0,0,1,1.8" transform="translate(-5518.681 -8197.294)" fill="#bf6859"/><path d="M192.066,98.712a.963.963,0,0,1-.284,1.314,2.127,2.127,0,0,1-2.7-.063,4.888,4.888,0,0,1-.547-.505,12,12,0,0,1-.988-1.124,4.553,4.553,0,0,1-1.368-2.734,1.531,1.531,0,0,1,.778-1.4c1.251-.715,2.437,1.4,2.437,1.4h.01a3.574,3.574,0,0,0,1.4,2.04,13.267,13.267,0,0,0,1.262,1.074" transform="translate(-5519.915 -8197.208)" fill="#bf6859"/><path d="M188.109,97.741a12.029,12.029,0,0,0,.988,1.126c-1.84,1.84-3.648-1.871-3.648-1.871a2.424,2.424,0,0,1-.162-.936c.031-1.241,1.452-1.051,1.452-1.051a4.533,4.533,0,0,0,1.366,2.734" transform="translate(-5520.47 -8196.618)" fill="#bf6859"/><path d="M191.025,98.839a.519.519,0,0,1-.31-.1,13.993,13.993,0,0,1-1.319-1.119,4.1,4.1,0,0,1-1.55-2.336.526.526,0,0,1,1.04-.162,3.2,3.2,0,0,0,1.222,1.72,12.827,12.827,0,0,0,1.231,1.048.525.525,0,0,1-.312.95" transform="translate(-5518.874 -8196.813)" fill="#94453b"/><path d="M188.734,99.583a.52.52,0,0,1-.372-.162,12.3,12.3,0,0,1-1.036-1.179,5.037,5.037,0,0,1-1.473-3.041.526.526,0,0,1,1.051-.018,4.231,4.231,0,0,0,1.239,2.4,12.292,12.292,0,0,0,.962,1.095.526.526,0,0,1-.372.9" transform="translate(-5520.115 -8196.809)" fill="#94453b"/><path d="M184.256,190.875c-.127.487-.2.734-.2.734H171.971l.685-5.106,2.211-16.483,1.184-8.824a5.972,5.972,0,0,0-.275-2.762l-14.184-40.946-.2-.6c-2.554,23.084-6.808,68.462-7.346,74.125-.029.382-.049.586-.049.586H143.165a20.87,20.87,0,0,1-1.126-3.59c-2.68-11.6-2.347-36.874-2.094-41.934a8.037,8.037,0,0,0-.117-1.81,328.954,328.954,0,0,1-4.293-36.224c-.058-1.085-.127-2.143-.162-3.189,12.55-1.4,11.884-19.084,11.884-19.084v-.01c1.137.146,2.328.255,3.59.343a62.807,62.807,0,0,0,7.082.049,61.682,61.682,0,0,0,6.446-.65v9.85l2.308.411,20.747,3.8c12.11,33.57-1.311,84.612-3.169,91.311" transform="translate(-5551.635 -8202.545)" fill="#fbb800"/><path d="M161.192,62.416l.812,4.8-2.386.473c0-.252-.346-1.914-.893-4.342-1.821-8.15-5.784-24.824-5.784-24.824v-.011a26.057,26.057,0,0,1,4.363.684Z" transform="translate(-5540.667 -8231.886)" fill="#ed8a00"/><path d="M147.309,63.847l1.1,6.561-2.388.463c0-.294-.487-2.555-1.2-5.708-1.949-8.609-5.573-23.869-5.573-23.869a26.909,26.909,0,0,1,3.554-.63,11.06,11.06,0,0,0,1.02,2.492Z" transform="translate(-5549.211 -8230.544)" fill="#ed8a00"/><path d="M161.634,66.57c-.015.058-.033.109-.049.162.015-.058.032-.109.049-.162" transform="translate(-5535.269 -8214.369)" fill="#fbb800"/><path d="M177.606,67.658a68.183,68.183,0,0,0-4.794-12.774h0c-.487-1.036-.8-1.654-.8-1.654H172l.812,4.8-2.386.469c0-.245-.343-1.907-.89-4.334-7.787,4.5-19.954,1.839-19.954,1.839l1.095,6.554-2.388.469c0-.294-.487-2.563-1.194-5.713l-1.722,9.508A48.755,48.755,0,0,0,164.3,89.862v-11.8l2.172-.4h.011a6.807,6.807,0,0,1,.362-2.055,9.059,9.059,0,0,1-4.02.734s-12.237,1.174-10.672-13.32c0,0,11.7,3.033,19.5-.958a21.8,21.8,0,0,1-.409,7.718,14.323,14.323,0,0,1,6.366-2.133m-1.194,7.62c-.049.195-.1.4-.136.577l1.389-.255a4.355,4.355,0,0,1,.119-.518c-.2.616-1.371.195-1.371.195M161.312,98.8,148.6,93.462a25.894,25.894,0,0,1-10.651-8.772,58.515,58.515,0,0,0-1.693,8.588c-.224,1.555-.44,3.335-.625,5.331h.008a52.6,52.6,0,0,0,28.562,2.817v-1.405Z" transform="translate(-5551.472 -8222.696)" fill="#fbb800"/><path d="M164.337,84V88.2a62.668,62.668,0,0,1-13.522.6c-1.262-.084-2.461-.188-3.6-.336a51.716,51.716,0,0,1-11.8-2.671c.094-1.65.221-3.185.348-4.617h.01A52.657,52.657,0,0,0,164.337,84" transform="translate(-5551.604 -8205.247)" fill="#ffd53c"/><path d="M147.349,86.7s.663,17.685-11.883,19.084a203.984,203.984,0,0,1,.085-21.767,51.729,51.729,0,0,0,11.8,2.671Z" transform="translate(-5551.732 -8203.473)" fill="#ffd53c"/><path d="M135.426,107.769a13.4,13.4,0,0,0,3.629-.744,12.111,12.111,0,0,0,3.285-1.579,15.58,15.58,0,0,0,4.863-5.274l.838-1.616c.253-.552.43-1.137.66-1.706l.325-.854.236-.889c.151-.595.314-1.187.487-1.787.252-1.205.442-2.437.65-3.655.138-1.233.24-2.474.411-3.72.068,1.248.068,2.5.1,3.764-.1,1.251-.2,2.511-.367,3.765a22.308,22.308,0,0,1-2.437,7.214,14.579,14.579,0,0,1-5.361,5.442,12.491,12.491,0,0,1-7.331,1.633" transform="translate(-5551.607 -8202.27)" fill="#b36504"/><path d="M149.258,85.951a74.218,74.218,0,0,1,1.439,9.259,72.158,72.158,0,0,1,.39,9.366,83.883,83.883,0,0,1-1.829-18.632" transform="translate(-5542.97 -8202.27)" fill="#b36504"/><path d="M135.644,81.178a60.864,60.864,0,0,0,7.009,1.787,73.1,73.1,0,0,0,14.313,1.356c2.407.026,4.808-.18,7.237-.325-1.181.275-2.37.546-3.574.741-1.205.162-2.416.325-3.634.4a44.232,44.232,0,0,1-14.525-1.381q-1.769-.487-3.492-1.09a28.73,28.73,0,0,1-3.335-1.486" transform="translate(-5551.467 -8205.247)" fill="#b36504"/><path d="M135.426,84.02c1.183.325,2.363.614,3.559.846q1.786.392,3.574.679c2.394.385,4.8.677,7.217.858,2.406.25,4.834.291,7.258.309,1.212,0,2.437-.031,3.643-.091,1.218-.026,2.437-.123,3.658-.193-1.189.305-2.4.505-3.609.707q-1.823.244-3.663.385a45.063,45.063,0,0,1-7.373-.07,48.21,48.21,0,0,1-7.287-1.114,35.587,35.587,0,0,1-6.985-2.315" transform="translate(-5551.607 -8203.472)" fill="#b36504"/><path d="M167.587,157.6c-.958,1.751-1.949,3.678-2.8,5.523l1.184-8.824a5.973,5.973,0,0,0-.275-2.762l-14.183-40.946a53.082,53.082,0,0,1,.7-9.439c.635-3.991.676-4.8,4.548-4.568,2.211-.162,5.036,6.632,6,8.609.362.754,1.644,2.846.715,3.463-.528.343-2.612-1.027-3.257-1.095.6,4.95,3.354,10.559,4.873,15.484a123.392,123.392,0,0,1,4.626,17.373c.958,6.27.89,11.718-2.123,17.176" transform="translate(-5541.559 -8195.65)" fill="#ed8a00"/><path d="M151.587,110.408h-.06a.527.527,0,0,1-.463-.582c.776-6.954,1.3-11.108,1.6-12.7a.526.526,0,0,1,1.033.2c-.3,1.564-.812,5.685-1.592,12.62a.524.524,0,0,1-.521.468" transform="translate(-5541.84 -8195.542)" fill="#b36504"/><path d="M151.385,100.285a38.626,38.626,0,0,1,6.092-1.477l-.432.569c-.162-1.248-.276-2.5-.356-3.759a30.884,30.884,0,0,1,0-3.8,30.7,30.7,0,0,1,.867,3.7c.213,1.241.395,2.487.518,3.736v.013a.512.512,0,0,1-.434.556c-1.03.153-2.065.276-3.106.356a27.5,27.5,0,0,1-3.146.1" transform="translate(-5541.637 -8198.603)" fill="#b36504"/><path d="M170.188,152.052c-.127.487-.2.734-.2.734H157.9l.684-5.106a43.739,43.739,0,0,1,6.066,2.485c1.81.734,3.7,1.233,5.523,1.888Z" transform="translate(-5537.567 -8163.721)" fill="#f6a300"/><path d="M151.558,150.773c-.029.382-.128,1.429-.128,1.429H140.6a20.868,20.868,0,0,1-1.126-3.59c2.415.715,10.526,1.878,12.081,2.16" transform="translate(-5549.073 -8163.142)" fill="#f6a300"/><path d="M161.072,86.713a29.761,29.761,0,0,1-7.367.343,33.716,33.716,0,0,1-11.4-2.739c-2.024-.724-4.745-1.462-6.29-3.12a58.33,58.33,0,0,1,1.7-8.588,25.894,25.894,0,0,0,10.651,8.772Z" transform="translate(-5551.23 -8210.599)" fill="#ed8a00"/><path d="M165.356,58.672a21.759,21.759,0,0,1-.409,7.718,10.936,10.936,0,0,0-4.259,5.393c-.052.148-.1.284-.146.432a9.016,9.016,0,0,1-4.017.726s-12.238,1.176-10.672-13.312c0,0,11.7,3.039,19.5-.957" transform="translate(-5545.178 -8219.3)" fill="#ffd53c"/><path d="M146.376,60.34c1.462.227,2.924.424,4.386.57s2.924.245,4.386.278a42.757,42.757,0,0,0,4.376-.127,32.45,32.45,0,0,0,4.342-.721,17.06,17.06,0,0,1-4.271,1.282,24.581,24.581,0,0,1-4.464.3,30.217,30.217,0,0,1-4.443-.453,24.922,24.922,0,0,1-4.306-1.127" transform="translate(-5544.765 -8218.258)" fill="#b36504"/><path d="M173.929,65.749a10.472,10.472,0,0,0-6.251,2.376A16.342,16.342,0,0,0,164.724,68c-.44.01-.91.039-1.408.1a68.294,68.294,0,0,0-4.794-12.774l7.8-1.858,3.913-.939s2.9,8.989,3.687,13.088Z" transform="translate(-5537.181 -8223.139)" fill="#ef9986"/><path d="M166.319,53.1c-.088.421-.136.822-.2,1.137-.538,2.651-.988,5.292-1.33,7.973a32.569,32.569,0,0,0-.068,5.429c-.44.01-.91.039-1.408.1a68.3,68.3,0,0,0-4.794-12.774Z" transform="translate(-5537.18 -8222.777)" fill="#bf6859"/><path d="M201.31,113.033a1.465,1.465,0,0,1-.734.6l-.919.01a1.065,1.065,0,0,1-.294-.107l-7.825-4.695a13.055,13.055,0,0,0,3.3,4.873,4.338,4.338,0,0,0,2,.958.571.571,0,0,1,.526.614.561.561,0,0,1-.125.315,3.207,3.207,0,0,1-2.26,1.137,4.428,4.428,0,0,1-2.924-.763,3.2,3.2,0,0,1-3.923-.1h-.01c-2.328,1.174-4.386-.019-6.085-2.055a28.557,28.557,0,0,1-4.206-7.96c-.577-1.555-.91-2.7-.949-2.865v-.01l-.01-.01-7.472-3.14-2.9-1.223V98.6L150.9,92.047a25.909,25.909,0,0,1-10.653-8.772c-6.9-9.422-8.122-21.842-8.265-23.573-.01-.107-.019-.175-.019-.195l12.912-4a33.578,33.578,0,0,0,.975,4.558A49.8,49.8,0,0,0,166.59,88.431a49.7,49.7,0,0,0,5.772,3.2A58.321,58.321,0,0,0,183.593,95.6s8.354-1.282,13.158,2.425a1.4,1.4,0,0,1,.44,1.663,1.386,1.386,0,0,1-1.6.793l-4.186-1.056a1.148,1.148,0,0,0-1.252,1.741,27.877,27.877,0,0,0,3.14,3.824,33.3,33.3,0,0,0,7.523,6.044,1.429,1.429,0,0,1,.538,1.946l-.029.049" transform="translate(-5553.763 -8221.277)" fill="#ef9986"/><path d="M170.684,95.344a.522.522,0,0,1-.294-.089,5.442,5.442,0,0,1-1.161-1.048,30.717,30.717,0,0,1-2.976-4.061.526.526,0,0,1,.914-.52,29.788,29.788,0,0,0,2.867,3.9,4.444,4.444,0,0,0,.945.851.525.525,0,0,1-.294.96" transform="translate(-5532.391 -8200.129)" fill="#94453b"/><path d="M168.036,95.059a.518.518,0,0,1-.3-.094,12.837,12.837,0,0,1-3.553-4.548.526.526,0,0,1,.955-.442,11.993,11.993,0,0,0,3.2,4.121.526.526,0,0,1-.3.958" transform="translate(-5533.673 -8199.939)" fill="#94453b"/><path d="M163.337,83.908a7.07,7.07,0,0,1-.637,1.673c-.078.177-.146.352-.2.528l-.01-.01-7.472-3.14c1.87-.078,3.726-.136,5.624-.314,1.462-.136,2.945-.44,2.7,1.262" transform="translate(-5539.371 -8204.4)" fill="#bf6859"/><path d="M145.85,60.07c-.162-.019-.313-.029-.469-.049-3.366-.3-6.613.146-9.987.127a11.585,11.585,0,0,1-3.411-.44c-.008-.107-.018-.175-.018-.195l12.912-4a33.555,33.555,0,0,0,.975,4.558" transform="translate(-5553.763 -8221.273)" fill="#bf6859"/><path d="M183.275,179.275c1.725,2.565-.4,4.132-2.661,5.015a14.582,14.582,0,0,1-7.472.736c-9.631-1.452-12.292-8.359-12.292-8.359-1.157-.663-2.576-1.587-3.806-2.419-1.577-1.072-2.839-1.977-2.839-1.977a2.881,2.881,0,0,1,.525-2.934,3.245,3.245,0,0,0,1.577,2.146c1.41.8,3.228,1.683,4.459,2.274a4.207,4.207,0,0,1,1.883,1.693,24.583,24.583,0,0,0,6.288,5.961,19.4,19.4,0,0,0,12.732.042,2.329,2.329,0,0,0,1.61-2.177" transform="translate(-5539.996 -8150.2)" fill="#111212"/><path d="M183.035,190.83a2.326,2.326,0,0,1-1.6,2.182,19.467,19.467,0,0,1-12.735-.039,24.581,24.581,0,0,1-6.29-5.966,4.2,4.2,0,0,0-1.878-1.693c-.146-.068-.294-.146-.46-.214-1.194-.577-2.761-1.35-4-2.055a3.234,3.234,0,0,1-1.574-2.143,3.073,3.073,0,0,1,.01-1.545,125.563,125.563,0,0,0,3.267-19.672c.245-2.826.391-5.811.391-8.863H174.4l-4.527,17.03a11.2,11.2,0,0,0,.65,7.542l4.441,9.634-.02.162a10.91,10.91,0,0,1,7.737,4.4,2.179,2.179,0,0,1,.343,1.233" transform="translate(-5539.755 -8161.76)" fill="#242425"/><path d="M168.15,172.776h-.078a14.181,14.181,0,0,0-2.242-.162.569.569,0,0,1-.543-.51.525.525,0,0,1,.507-.543h0a15.394,15.394,0,0,1,2.428.174.526.526,0,0,1-.075,1.046" transform="translate(-5532.956 -8148.813)" fill="#040405"/><path d="M160.866,180.47a2.4,2.4,0,0,1-.8,1.223c-1.194-.577-2.761-1.35-4-2.055a3.234,3.234,0,0,1-1.574-2.143,3.072,3.072,0,0,1,.01-1.545,125.566,125.566,0,0,0,3.267-19.672,28.569,28.569,0,0,1,1.868,4.254,12.577,12.577,0,0,1,.616,5.888c-.245,2.788-1.379,5.624-1.252,8.4.088,2,2.5,3.707,1.868,5.645" transform="translate(-5539.758 -8158.353)" fill="#171717"/><path d="M163.95,175.7c1.491,3.648-2.893,3.691-4.334,3.606a4.161,4.161,0,0,1-.788-.115,15.781,15.781,0,0,0-7.472-.275,25.108,25.108,0,0,1-6.335.812,2.752,2.752,0,0,1-2.555-3.564,6.4,6.4,0,0,1,.252-.7c1.624,3.038,6.73,1.366,6.73,1.366.663-.127,1.439-.242,2.238-.325a32.226,32.226,0,0,1,8.055.252,6.369,6.369,0,0,0,3.132-.252,1.754,1.754,0,0,0,.975-.853Z" transform="translate(-5547.284 -8146.379)" fill="#111212"/><path d="M166.4,191.025a1.74,1.74,0,0,1-.975.851,6.376,6.376,0,0,1-3.129.253,32.193,32.193,0,0,0-8.051-.253c-.8.078-1.584.195-2.24.325,0,0-5.106,1.673-6.73-1.369a3.664,3.664,0,0,1-.409-1.223s-.362-4.108-.949-10.624a11.953,11.953,0,0,0-.245-1.644l-5.4-26.518h17.165s.606,9.155,2.026,18.292c.958,6.143,2.274,12.285,4.019,15.612l-.068.284c.059.01.109.029.162.039a7.064,7.064,0,0,1,2.573,1.213,7.588,7.588,0,0,1,2.308,3,2.019,2.019,0,0,1-.068,1.761" transform="translate(-5549.826 -8161.76)" fill="#242425"/><path d="M155.547,178.018c-1.389.059-2.554-.686-4.137-.284-1.262.314-2.485.975-3.218-.5a8.15,8.15,0,0,1,.02-4.118,55.377,55.377,0,0,1,2.024-6.377c.352-1.243.861-2.935,1.194-4.656.958,6.143,2.274,12.285,4.02,15.612l-.068.284c.058.01.107.029.162.039" transform="translate(-5543.79 -8154.729)" fill="#171717"/><path d="M148.652,173.244a.526.526,0,0,1-.193-1.014,12.987,12.987,0,0,1,6.913-.591.526.526,0,0,1-.236,1.025,12.145,12.145,0,0,0-6.291.544.525.525,0,0,1-.193.037" transform="translate(-5543.669 -8148.901)" fill="#040405"/><path d="M163.724,29.064c.663-13.921-9.948-12.419-11.671-12.229a2.877,2.877,0,0,0-.421.084c-17.422,4.436-11.1,18.421-10.515,19.641a.409.409,0,0,1,.042.084,3.049,3.049,0,0,0-1.85.63C128.764,15.047,153.263,13.4,153.263,13.4c16.108-.975,10.745,17.18,10.745,17.18-.084-.452-.188-.9-.294-1.368a.635.635,0,0,1,.011-.146" transform="translate(-5550.823 -8247.595)" fill="#fbb800"/><path d="M186.159,35.8a10.813,10.813,0,0,0-1.311,3.276c-.058.528-.107,1.066-.2,1.585l-.047.284a4.3,4.3,0,0,1-1.585,2.778c-1.438,1.085-3.208,1.1-4.646,2.045a.763.763,0,0,0-.162.117l-.206.146c-.91.754-1.462,1.868-2.425,2.554a5.328,5.328,0,0,1-6.868-1.555c.058-.175.109-.352.148-.518a32.532,32.532,0,0,0,.224-13.742s4.959-16.785-8.989-17.206c-.127-.01-.253-.01-.38-.01-.442,0-.9.01-1.381.039,0,0-.162.01-.43.039-.1.01-.2.019-.325.039-4.051.508-22.607,3.933-13.187,23.8a3.01,3.01,0,0,0,1.85,5.38,2.8,2.8,0,0,0,1.173-.245l1.137,8.333-.058.01a6.673,6.673,0,0,1-3.8.841c-.162-.019-.325-.039-.5-.068-.136-.02-.275-.049-.4-.078A4.212,4.212,0,0,1,141.8,52.6c-.773-.754-1.066-1.878-1.821-2.632-1.878-1.878-4.5.421-6.524-1.33a6.608,6.608,0,0,1-.911-.958,2.616,2.616,0,0,1-.185-.255,3.9,3.9,0,0,1-.8-2.133c-.011-1.418.723-2.807.234-4.223-.606-1.787-2.26-2.945-2.865-4.823a9.082,9.082,0,0,1,.606-6.691,8.842,8.842,0,0,1,1.967-2.671c.127-.136.253-.265.391-.391l.01-.01a8.862,8.862,0,0,0,3.208-4.675c.616-3.374,1.6-6.5,4.92-8.07,2.248-1.085,4.873-.372,6.925-1.849a8.178,8.178,0,0,1,7.355-1.624,11.462,11.462,0,0,1,4.667,2.133,11,11,0,0,1,5.066-2.534c1.927-.162,3.043,1.564,4.774,1.949a7.932,7.932,0,0,0,2.875-.162c.127-.019.263-.029.4-.039s.292-.01.431-.01a8.115,8.115,0,0,1,3.942,1.213,6.823,6.823,0,0,1,3.462,4.245,13.872,13.872,0,0,0,.861,3.619c.822,1.447,2.415,2.2,3.14,3.717a8.567,8.567,0,0,1,.44,3.923c.109,2.7,3.072,4.529,1.787,7.484" transform="translate(-5555.894 -8249.784)" fill="#272424"/><path d="M150.959,15.552c1.725-.19,12.334-1.693,11.671,12.229a2.41,2.41,0,0,1-1.462-1.545c-.621-1.535-.487-2.628-2.05-3.47-1.22-.673-1.587-2.45-3.176-2.565-.694-.054-1.147.221-1.829-.054-.768-.315-.863-.778-1.368-1.356-.463-.538-.724-.487-1.314,0a8.138,8.138,0,0,1-2,1.545c-.694.305-1.378.146-2.06.421-.8.315-1.02,1.019-1.514,1.65-.884,1.1-2.274,1.031-2.849,2.471a14.256,14.256,0,0,1-1.42,3.808c-.768,1.041-1.314,1.535-1.178,2.88a10.02,10.02,0,0,1,.127,2.092c-.042.39-.487,1.451-.411,1.568l-.106.052c-.59-1.22-6.909-15.2,10.515-19.641a2.881,2.881,0,0,1,.421-.084" transform="translate(-5549.728 -8246.311)" fill="#272424"/><path d="M151.814,12.557a9,9,0,0,1,2.856,1.722c-.1.01-.2.019-.325.039a8.549,8.549,0,0,0-2.6-1.525,5.362,5.362,0,0,0-6.387,1.3,2.318,2.318,0,0,1-1.858.988c-.138.029-.3.049-.487.078-2.661.45-4.245,1.927-5.46,5.106l-.088.245a3.908,3.908,0,0,1-1.387,2.112,8.446,8.446,0,0,0-1.732,8.109,5.635,5.635,0,0,0,.5.988,4.127,4.127,0,0,1,.635,1.5,1.456,1.456,0,0,1-.2.861,3.577,3.577,0,0,0-.162.382,9.028,9.028,0,0,0,1.556,7.8,6.806,6.806,0,0,0,.939.8,4.607,4.607,0,0,1,1.462,1.516,2.028,2.028,0,0,1-.029,1.2,3.1,3.1,0,0,0-.088.487,7.638,7.638,0,0,0,2,6.1c-.136-.019-.275-.049-.4-.078a7.892,7.892,0,0,1-1.849-6.054,3.382,3.382,0,0,1,.1-.508,1.855,1.855,0,0,0,.039-1.056,4.415,4.415,0,0,0-1.387-1.418,7.174,7.174,0,0,1-.975-.841,9.113,9.113,0,0,1-1.6-8.031,3.081,3.081,0,0,1,.162-.411,1.219,1.219,0,0,0,.185-.734,4.016,4.016,0,0,0-.6-1.389,5.37,5.37,0,0,1-.518-1.036,8.7,8.7,0,0,1,1.8-8.374,3.683,3.683,0,0,0,1.311-2.014l.1-.245a7.144,7.144,0,0,1,5.643-5.253c.185-.039.352-.058.5-.078a2.155,2.155,0,0,0,1.712-.91,5.637,5.637,0,0,1,6.642-1.379" transform="translate(-5552.664 -8248.431)" fill="#1a1616"/><path d="M166.23,44.459l-.206.146a5.954,5.954,0,0,0-2.9-3.354.116.116,0,0,1-.068-.127c.078-.547.185-1.085.292-1.6a9.617,9.617,0,0,0,.245-4.108,8.3,8.3,0,0,0-1.8-3.687c-.1-.107-.2-.2-.3-.294a1.3,1.3,0,0,1-.539-.822,5.765,5.765,0,0,1,.606-2.367,9.031,9.031,0,0,0,.469-1.35,9.887,9.887,0,0,0-.391-5.3c-.5-1.311-1.663-4.4-3.411-4.626a.117.117,0,0,1-.109-.117,5.941,5.941,0,0,1,.039-.832,3.147,3.147,0,0,0-.2-1.787c-.851-1.615-2.875-1.839-4.558-1.858h-.1a8.117,8.117,0,0,0-5.175,1.761c-.127-.01-.255-.01-.38-.01a8.413,8.413,0,0,1,5.555-1.995h.107c1.741.019,3.855.265,4.764,1.995a3.316,3.316,0,0,1,.234,1.917c-.019.226-.039.469-.039.7,1.839.343,3,3.434,3.5,4.764a10.114,10.114,0,0,1,.4,5.439,8.952,8.952,0,0,1-.469,1.389,5.55,5.55,0,0,0-.6,2.25,1,1,0,0,0,.46.664,3.4,3.4,0,0,1,.325.325,8.629,8.629,0,0,1,1.849,3.795,9.759,9.759,0,0,1-.245,4.206c-.1.487-.195.975-.275,1.486a6.247,6.247,0,0,1,2.924,3.395" transform="translate(-5543.917 -8248.356)" fill="#1a1616"/><path d="M167.9,39.987l-.049.284-.325-.325a2.684,2.684,0,0,1-.236-.236c-.487-.487-1.095-1.066-1.712-.8a.166.166,0,0,1-.1,0,.124.124,0,0,1-.059-.078,4.409,4.409,0,0,1-.127-1.693c.01-.2.019-.4.019-.6a6.683,6.683,0,0,0-2.123-4.92,3.22,3.22,0,0,0-.616-.45,1.128,1.128,0,0,1-.676-.975,5.263,5.263,0,0,1,.136-1.732A6.374,6.374,0,0,0,162.2,27.4a9.766,9.766,0,0,0-.314-2.974,8.354,8.354,0,0,0-2.632-4.539q-.1-.088-.175-.146c-.343-.294-.362-.343-.3-.773.019-.136.049-.325.078-.6A8.9,8.9,0,0,0,157.64,13.4a6.278,6.278,0,0,0-2.274-2.464c.146-.01.294-.01.43-.01a6.558,6.558,0,0,1,2.05,2.362,9.233,9.233,0,0,1,1.243,5.115c-.029.275-.058.46-.078.606-.049.325-.049.325.214.547a2.087,2.087,0,0,1,.175.162,8.483,8.483,0,0,1,2.709,4.656,9.566,9.566,0,0,1,.325,3.043,7.461,7.461,0,0,1-.162,1.1,5.094,5.094,0,0,0-.146,1.644.917.917,0,0,0,.567.812,3.329,3.329,0,0,1,.65.487,6.888,6.888,0,0,1,2.2,5.1c0,.195-.01.4-.02.606a5.3,5.3,0,0,0,.068,1.486c.724-.2,1.369.43,1.849.91.088.078.162.162.236.224a2.231,2.231,0,0,1,.214.214" transform="translate(-5539.151 -8249.111)" fill="#1a1616"/><path d="M134.034,36.6c-.02.487-.5.975-.919,1.4a4.46,4.46,0,0,0-.538.6,7.838,7.838,0,0,0-1.056,2.68,2.614,2.614,0,0,1-.185-.255,7.63,7.63,0,0,1,1.036-2.554,6.144,6.144,0,0,1,.567-.65c.391-.391.832-.841.851-1.233a1.649,1.649,0,0,0-.325-.7,2.34,2.34,0,0,1-.185-.314,11.745,11.745,0,0,1-.988-2.7,5.417,5.417,0,0,1,.107-2.524c.049-.265.107-.528.162-.812a1.591,1.591,0,0,0-.1-1.007,2.979,2.979,0,0,0-.45-.715,5.661,5.661,0,0,1-.391-.586,16.552,16.552,0,0,1-1.174-3.13,6.21,6.21,0,0,1,.029-3.609c.127-.136.255-.265.391-.391a6.112,6.112,0,0,0-.185,3.933,17.13,17.13,0,0,0,1.155,3.086,6.448,6.448,0,0,0,.372.547,3.09,3.09,0,0,1,.487.773,1.789,1.789,0,0,1,.107,1.137c-.049.284-.1.557-.162.822a5.236,5.236,0,0,0-.107,2.415,11.776,11.776,0,0,0,.975,2.651c.039.078.1.175.162.284a1.667,1.667,0,0,1,.372.851" transform="translate(-5554.869 -8243.39)" fill="#1a1616"/><path d="M140.59,34.21a.512.512,0,0,0-.042-.084l.1-.054c-.073-.115.367-1.178.409-1.566a9.8,9.8,0,0,0-.127-2.092c-.136-1.347.411-1.84,1.178-2.882a14.171,14.171,0,0,0,1.42-3.806c.569-1.439,1.967-1.366,2.849-2.471.487-.63.715-1.335,1.514-1.65.684-.273,1.368-.115,2.061-.419a8.184,8.184,0,0,0,2-1.546c.588-.487.851-.536,1.314,0,.505.578.6,1.041,1.368,1.356.682.275,1.137,0,1.829.054,1.587.115,1.949,1.892,3.176,2.565,1.556.84,1.429,1.933,2.05,3.47a2.414,2.414,0,0,0,1.462,1.545.739.739,0,0,0-.01.146c.1.463.21.915.294,1.368a32.531,32.531,0,0,1-.221,13.742c-.042.162-.094.348-.148.515a7.556,7.556,0,0,1-3.374,4.3,7.2,7.2,0,0,1-1.7.715,11.485,11.485,0,0,1-8.538-1.525s5.078,7.929,11.187,5.858c2.5,8.959-4.995,11.2-4.995,11.2a9.863,9.863,0,0,1-10.776-5.172,11.059,11.059,0,0,1-1.02-2.492l-.957-6.97-1.137-8.328a2.908,2.908,0,0,1-1.166.242,3.012,3.012,0,0,1-1.85-5.383,3.05,3.05,0,0,1,1.85-.63m19.1-3.754a1.3,1.3,0,1,0-1.3,1.3,1.3,1.3,0,0,0,1.3-1.3m-10.482.611a1.3,1.3,0,1,0-1.3,1.3,1.3,1.3,0,0,0,1.3-1.3" transform="translate(-5550.255 -8245.159)" fill="#ef9986"/><path d="M155.2,35.81l.884,4.932c-6.109,2.071-11.187-5.856-11.187-5.856a11.485,11.485,0,0,0,8.538,1.525,7.19,7.19,0,0,0,1.7-.715Z" transform="translate(-5545.692 -8234.151)" fill="#bf6859"/><path d="M150.9,24.58a1.3,1.3,0,1,1-1.3,1.3,1.3,1.3,0,0,1,1.3-1.3" transform="translate(-5542.754 -8240.587)" fill="#040405"/><path d="M144.44,24.955a1.3,1.3,0,1,1-1.3,1.3,1.3,1.3,0,0,1,1.3-1.3" transform="translate(-5546.785 -8240.353)" fill="#040405"/><path d="M144.876,31.352a10.425,10.425,0,0,0,4.873.994,7.166,7.166,0,0,0,2.352-.559,10.968,10.968,0,0,0,1.137-.534c.382-.2.734-.448,1.148-.65a6,6,0,0,1-1.91,1.918,5.62,5.62,0,0,1-2.653.879,6.018,6.018,0,0,1-2.75-.456,5.645,5.645,0,0,1-2.2-1.587" transform="translate(-5545.702 -8236.826)" fill="#94453b"/><path d="M148.621,23.743a1.556,1.556,0,0,1,.591-.547,4.057,4.057,0,0,1,.7-.325,4.741,4.741,0,0,1,1.519-.265,3.956,3.956,0,0,1,2.838,1.066c-1.051.026-1.923-.036-2.833-.016-.452,0-.9.011-1.371.016l-.716.011a3.494,3.494,0,0,0-.724.05" transform="translate(-5543.363 -8241.82)" fill="#d73c18"/><path d="M146.708,31.292a17.889,17.889,0,0,1,2.8-.616l-.325.395a26.172,26.172,0,0,1-.343-2.823,17.594,17.594,0,0,1,.011-2.865,17.425,17.425,0,0,1,.694,2.779,25.761,25.761,0,0,1,.341,2.823v.036a.336.336,0,0,1-.314.357,17.713,17.713,0,0,1-2.861-.089" transform="translate(-5544.557 -8240.087)" fill="#bf6859"/><path d="M141.339,25.224A3.747,3.747,0,0,1,142.591,24a5.1,5.1,0,0,1,1.636-.664A4.608,4.608,0,0,1,146,23.294a3.609,3.609,0,0,1,1.624.677c-.6.07-1.127.07-1.652.143a12.456,12.456,0,0,0-1.527.247c-1.014.2-1.985.526-3.109.861" transform="translate(-5547.91 -8241.433)" fill="#d73c18"/><path d="M138.452,28.9a2.287,2.287,0,0,1,1.813.629,2.48,2.48,0,0,1,.8,1.746,8.105,8.105,0,0,0-1.137-1.387,5.853,5.853,0,0,0-1.481-.988" transform="translate(-5549.716 -8237.896)" fill="#94453b"/><path d="M146.291,28.136c.08.551-.762,1.137-1.883,1.3s-2.092-.151-2.172-.7.762-1.137,1.881-1.3,2.094.151,2.173.7" transform="translate(-5547.353 -8238.831)" fill="#ec6f5c"/><path d="M154.606,27.458c.045.554-.832,1.08-1.959,1.174s-2.079-.281-2.125-.837.83-1.08,1.959-1.174,2.079.281,2.125.837" transform="translate(-5542.177 -8239.321)" fill="#ec6f5c"/><path d="M213.433,90.421v10.052l-30.6-5.572V85.218Z" transform="translate(-5521.998 -8202.726)" fill="#e8873f"/><path d="M213.434,85.547v7.718l-30.6-5.2v-7.4Z" transform="translate(-5521.999 -8205.568)" fill="#b85815"/><path d="M213.434,81.412v7.539l-30.6-4.889V75.213Z" transform="translate(-5521.999 -8208.972)" fill="#e8873f"/><path d="M213.433,76.947v8.4l-30.6-6.2V68.911Z" transform="translate(-5521.998 -8212.906)" fill="#b85815"/><path d="M213.433,73.926v6.66l-30.6-8.028V63.073l2.165.768,10.4,3.679,10.234,3.637h.011Z" transform="translate(-5521.998 -8216.552)" fill="#e8873f"/><path d="M231.923,96.753l-14.732.936a2.252,2.252,0,0,0-2.3-1.1,1.138,1.138,0,0,0-.673,1.009s-2.06-2.661-3.554-1.8a1.644,1.644,0,0,0-.682,1.6h-.011s-1.189-2.112-2.437-1.4a1.531,1.531,0,0,0-.778,1.4s-1.42-.19-1.452,1.051h-.011l-11.67.736-17.339-3.164-20.744-3.8-2.313-.421,15.468-.2.073-.063c1.7,2.04,3.764,3.228,6.088,2.061h.01a3.207,3.207,0,0,0,3.923.094,4.45,4.45,0,0,0,2.924.768,3.249,3.249,0,0,0,2.261-1.137.575.575,0,0,0-.4-.936,4.276,4.276,0,0,1-2.008-.957l4.824-.063a1.133,1.133,0,0,0,.421.075,1.608,1.608,0,0,0,.487-.084l14.025-.179Z" transform="translate(-5540.489 -8199.003)" fill="#6c310d"/><path d="M196.675,65.339a6.261,6.261,0,0,1-.882,3.411,5.583,5.583,0,0,1-.616.9c-.185.224-.391.46-.616.685l-10.4-3.678c.05-.487.089-.975.127-1.438,0-.049.01-.088.01-.136.088-1.165.146-2.26.185-3.286,0,0,3.033-4.079,7.3-3.086a6.273,6.273,0,0,1,4.314,3.942,8.4,8.4,0,0,1,.569,2.69" transform="translate(-5521.169 -8219.371)" fill="#f48735"/><path d="M188.763,66.742c-.039,1.027-.1,2.123-.185,3.286,0,.049-.01.088-.01.136-.039.469-.078.949-.127,1.438l-2.162-.763-8.715,1.6s-.226-2.415-.236-5.645c0-.975.01-2.014.059-3.086.01-.245.019-.5.039-.754.325-5.655,1.624-11.806,5.594-12.266,0,0,6.426-1.849,5.742,16.052" transform="translate(-5525.438 -8224.322)" fill="#e85536"/><path d="M191.035,85.217V94.9l-10.984.136-3.043.039a1.465,1.465,0,0,0,.734-.6,1.428,1.428,0,0,0-.46-1.966l-.049-.029a33.3,33.3,0,0,1-7.523-6.044l8.989-.518Z" transform="translate(-5530.194 -8202.725)" fill="#c1722e"/><path d="M192.315,80.659v7.4l-12.334.705-8.989.518a27.877,27.877,0,0,1-3.14-3.824,1.148,1.148,0,0,1,1.252-1.741l4.186,1.056a1.386,1.386,0,0,0,1.6-.793,1.4,1.4,0,0,0-.44-1.663l1.858-.175Z" transform="translate(-5531.473 -8205.571)" fill="#a7560b"/><path d="M199.079,75.214v8.853l-16,1.486-1.858.175c-4.8-3.707-13.158-2.425-13.158-2.425a58.268,58.268,0,0,1-11.229-3.962l15.542-1.516Z" transform="translate(-5538.237 -8208.971)" fill="#c1722e"/><path d="M201.3,68.91V79.144l-26.7,2.612-15.542,1.516a49.7,49.7,0,0,1-5.771-3.2v-4.49l12.67-1.761.136-.019c.275,2.162.975,5.331,2.661,4.93a19.32,19.32,0,0,0,1-5.439h.019l5.908-.822Z" transform="translate(-5540.455 -8212.907)" fill="#a7560b"/><path d="M194.966,63.075v9.478l-25.622,3.561-5.908.822h-.019c.068-.88.117-1.868.117-2.974,0,0,4.412,3.374,4.94-4.264v-.01a1.2,1.2,0,0,0,.02-.185s4.02,3.2,6.524-2.7a.286.286,0,0,0,.039-.068l6.822-1.252,4.363-.812Z" transform="translate(-5534.124 -8216.55)" fill="#c1722e"/><path d="M183.509,71.295l-4.363.812c-.107-.088-.2-.185-.314-.275-.265-.236-.528-.469-.773-.7-.284-.255-.557-.508-.832-.754-1.615-1.5-2.965-2.875-4.089-4.137-7.893-8.824-4.873-12.227-4.235-12.794.02,0,.02-.01.039-.02s.02-.01.029-.029c.508-.508,5.9-4.334,13.764,8.275.175.284.353.586.538.89h.058c-.049,1.066-.058,2.112-.058,3.086.01,3.228.236,5.645.236,5.645" transform="translate(-5531.384 -8223.176)" fill="#c22f15"/><path d="M177.417,65.046,170.583,66.3a3.791,3.791,0,0,1,1.756-1.84,4.425,4.425,0,0,1,3.985-.378c.348.317.715.65,1.093.975" transform="translate(-5529.649 -8216.116)" fill="#3b7832"/><path d="M173.638,91.3l.915-.011a1.559,1.559,0,0,1-.487.084,1.165,1.165,0,0,1-.421-.073" transform="translate(-5527.743 -8198.936)" fill="#ef9986"/><path d="M176.759,93.14l-4.823.068a13.042,13.042,0,0,1-3.3-4.873l7.825,4.695a1.065,1.065,0,0,0,.294.107" transform="translate(-5530.863 -8200.779)" fill="#c1722e"/><path d="M168.768,94.457l-.08.058-15.464.2V87.159l11.337-.65a28.561,28.561,0,0,0,4.207,7.96" transform="translate(-5540.489 -8201.919)" fill="#c1722e"/><path d="M165.925,73.086s.029.832.162,1.907l-.136.02-12.67,1.761v-7.31l2.172-.4h.01a5.715,5.715,0,0,0,.294,2.1c.47,1.438,1.535,2.445,3.834-.4,0,0,3.756,3.9,5.674-3.512L166.643,67h.01a31.173,31.173,0,0,0-.725,6.083" transform="translate(-5540.453 -8214.101)" fill="#c1722e"/><path d="M164.559,89.295l-11.337.65v-7.9L163.6,86.4s.325,1.2.958,2.885" transform="translate(-5540.491 -8204.709)" fill="#a7560b"/><path d="M176.526,68.247c-.011.021-.021.054-.031.073-2.513,5.9-6.528,2.692-6.528,2.692-.473,7.9-4.963,4.469-4.963,4.469,0,1.1-.042,2.092-.115,2.966a19.322,19.322,0,0,1-1,5.447c-1.693.4-2.386-2.776-2.659-4.932-.136-1.083-.162-1.914-.162-1.914a31.483,31.483,0,0,1,.726-6.077c.031-.179.073-.357.115-.526l.011-.01a13.63,13.63,0,0,1,4.184-7.381,10.42,10.42,0,0,1,6.246-2.377,14.213,14.213,0,0,1,4.873.588l.136-.127a63.823,63.823,0,0,0,4.922,4.889,4.425,4.425,0,0,0-3.985.378,3.791,3.791,0,0,0-1.756,1.84" transform="translate(-5535.591 -8218.06)" fill="#56a455"/><path d="M165.764,62.156a17.9,17.9,0,0,1,4.363.031,13.632,13.632,0,0,0-4.186,7.381l-.011.011c-.19.621-1.366.2-1.366.2-.042.2-.094.4-.136.578-1.914,7.412-5.668,3.512-5.668,3.512-2.3,2.849-3.364,1.84-3.837.4a5.707,5.707,0,0,1-.3-2.1,6.881,6.881,0,0,1,.357-2.05c.042-.146.094-.284.148-.432a10.925,10.925,0,0,1,4.258-5.393,14.459,14.459,0,0,1,6.372-2.134" transform="translate(-5539.616 -8217.198)" fill="#3b7832"/><g transform="translate(-5387.265 -8147.108)" opacity="0.25"><g clip-path="url(#a)"><g transform="translate(0 0.01)"><g clip-path="url(#b)"><path d="M163.6,95.8l-10.378-4.363V106.9l15.464-.2.078-.058a28.557,28.557,0,0,1-4.206-7.96C163.935,97,163.6,95.8,163.6,95.8m14.662,5.859a13.043,13.043,0,0,0,3.3,4.873l4.823-.068a1.068,1.068,0,0,1-.294-.107Zm9.038,4.794,3.043-.039c.039-2.875-13.832-37.269-15.318-38.986a1.108,1.108,0,0,0-.185-.185c-.528,7.635-4.94,4.264-4.94,4.264,0,1.1-.049,2.094-.117,2.974a19.32,19.32,0,0,1-1,5.439c-1.693.4-2.386-2.761-2.661-4.93-.136-1.075-.162-1.907-.162-1.907A31.164,31.164,0,0,1,166.689,67h-.02l-1.379.255c-1.917,7.414-5.674,3.512-5.674,3.512-2.3,2.846-3.364,1.839-3.835.4a5.711,5.711,0,0,1-.294-2.1h-.01l-2.172.4v11.8a49.7,49.7,0,0,0,5.771,3.2,58.271,58.271,0,0,0,11.23,3.962s8.354-1.282,13.158,2.425a1.4,1.4,0,0,1,.44,1.663,1.386,1.386,0,0,1-1.6.793l-4.186-1.056a1.148,1.148,0,0,0-1.252,1.741,27.883,27.883,0,0,0,3.14,3.824,33.3,33.3,0,0,0,7.523,6.044,1.429,1.429,0,0,1,.538,1.946l-.029.049a1.466,1.466,0,0,1-.734.6" transform="translate(-153.224 -67.005)" fill="#4c1f20"/></g></g></g></g><g transform="translate(-5352.561 -8161.769)" opacity="0.34"><g clip-path="url(#c)"><g transform="translate(0.011)"><g clip-path="url(#d)"><path d="M212.542,72.885a5.263,5.263,0,0,1-1.761,1.462h-.01l-10.234-3.639-10.4-3.678-2.162-.763-8.715,1.6-4.363.812c-.107-.088-.2-.185-.314-.275a27.484,27.484,0,0,1,1.683-6.632,5.85,5.85,0,0,1,2.221-3.522,2.852,2.852,0,0,1,.567-.275,1.6,1.6,0,0,0,.068.411,14.8,14.8,0,0,0,2.318,3.765,8.525,8.525,0,0,0,5.263,2.955,15.189,15.189,0,0,0,3.574.352c.146-.01.284-.029.431-.049a7.786,7.786,0,0,1,5.791.988,22.659,22.659,0,0,1,2.191,1.787c.469.43.783,1.282,1.272,1.644.577.421.635.353,1.184.195.1-.029.216-.058.362-.1,1.027-.236,2.112-.352,3.15-.547a7.094,7.094,0,0,1,7.2,2.406,5.493,5.493,0,0,1,.674,1.1" transform="translate(-174.599 -57.968)" fill="#040405"/></g></g></g></g><path d="M167.513,38.551v-.01a15.74,15.74,0,0,0-1.878-.049c2.5,8.96-4.989,11.2-4.989,11.2a9.873,9.873,0,0,1-10.78-5.174l3.484,20.7s12.167,2.659,19.953-1.839c-1.819-8.158-5.791-24.826-5.791-24.826M149.77,61.762c-1.949-8.51-4.48-19.1-4.48-19.1-7.092,1.7-21.647,7.727-13.078,27.859l1.233-.372,12.912-4s.019.162.068.487a44.631,44.631,0,0,0,2.719,9.41l1.722-9.508c-.325-1.438-.7-3.052-1.095-4.764m22.116-22.547,2.485,14.888c0,.01,0,.02.01.02l1.389,8.314h.01s.325.616.8,1.654h.01l4.548-1.085L188.3,61.3l1.272-.3c-1.624-15.26-11.152-20.19-17.685-21.767" transform="translate(-5555.247 -8231.906)" fill="#e5efd4"/><path d="M144.5,54.853a10.68,10.68,0,0,0,9.061-2.584c2.487-1.949,4.009-4.854,6.225-6.74.016,4.223-4.131,8.522-7.346,10.861-3.635,2.646-5.291.606-7.938-1.538" transform="translate(-5545.934 -8227.506)" fill="#c0d59b"/><path d="M163.921,56.993l-4.548,1.085h-.008c-.487-1.036-.8-1.654-.8-1.654h-.01l-1.387-8.314c.117.265.224.528.362.793a20.276,20.276,0,0,0,2.965,3.942c1.124,1.34,2.386,2.7,3.434,4.147" transform="translate(-5538.028 -8225.894)" fill="#c0d59b"/><path d="M144.393,57.578l-1.722,9.508a44.631,44.631,0,0,1-2.719-9.41,5.5,5.5,0,0,1,.715-.949,14.492,14.492,0,0,0,2.632-3.913c.4,1.712.773,3.325,1.095,4.764" transform="translate(-5548.776 -8222.959)" fill="#c0d59b"/><path d="M141.7,62.509a.526.526,0,0,1-.51-.4L137.05,45.806a.525.525,0,0,1,1.019-.258l4.144,16.307a.526.526,0,0,1-.38.638.488.488,0,0,1-.128.016" transform="translate(-5550.598 -8227.742)" fill="#c0d59b"/></g></g></svg>