<svg xmlns="http://www.w3.org/2000/svg" xmlns:xlink="http://www.w3.org/1999/xlink" width="63" height="63" viewBox="0 0 63 63">
  <defs>
    <linearGradient id="linear-gradient" x1="0.5" x2="0.5" y2="0.624" gradientUnits="objectBoundingBox">
      <stop offset="0" stop-color="#ffc846"/>
      <stop offset="1" stop-color="#fff7e3"/>
    </linearGradient>
    <clipPath id="clip-path">
      <circle id="Elipse_4843" data-name="Elipse 4843" cx="31.5" cy="31.5" r="31.5" transform="translate(355 14426) rotate(180)" fill="url(#linear-gradient)"/>
    </clipPath>
  </defs>
  <g id="Grupo_152509" data-name="Grupo 152509" transform="translate(-292 -14253)">
    <circle id="Elipse_4840" data-name="Elipse 4840" cx="31.5" cy="31.5" r="31.5" transform="translate(355 14316) rotate(180)" fill="url(#linear-gradient)"/>
    <g id="Enmascarar_grupo_77" data-name="Enmascarar grupo 77" transform="translate(0 -110)" clip-path="url(#clip-path)">
      <g id="red-de-pescar" transform="translate(289.459 14371.111)">
        <path id="Trazado_199658" data-name="Trazado 199658" d="M16.181,158.264c-.374-1.377-.562-2.342-.641-2.795a.736.736,0,0,0-.024-.1.65.65,0,0,1-.031-.178.78.78,0,0,0-.78-.76H.781a.78.78,0,0,0-.78.78v3.256a.78.78,0,0,0,.78.78H15.428a.781.781,0,0,0,.753-.985Zm0,0" transform="translate(0 -138.383)" fill="#9c8f9a"/>
        <path id="Trazado_199659" data-name="Trazado 199659" d="M.781,180.01H15.428a.78.78,0,0,0,.753-.985c-.147-.54-.264-1.016-.358-1.423H0v1.628a.78.78,0,0,0,.78.78Zm0,0" transform="translate(0 -159.143)" fill="#8c808a"/>
        <path id="Trazado_199660" data-name="Trazado 199660" d="M172.754,153.821c-.427-.054-37.5-.054-37.924,0,0,0-.671.917-.663.972a44.718,44.718,0,0,0,2.894,9.643,92.166,92.166,0,0,0,14.676,23.887,2.667,2.667,0,0,0,4.109,0,92.162,92.162,0,0,0,14.675-23.887,43.32,43.32,0,0,0,2.908-9.743.78.78,0,0,0-.676-.871Zm0,0" transform="translate(-120.223 -137.797)" fill="#d9edff"/>
        <path id="Trazado_199661" data-name="Trazado 199661" d="M325.807,153.995c-.228-.029-3.944-.026-3.745,0a.78.78,0,0,1,.676.871,43.347,43.347,0,0,1-2.908,9.743A92.16,92.16,0,0,1,305.155,188.5c-.058.069-.119.135-.182.2a2.666,2.666,0,0,0,3.927-.2,92.168,92.168,0,0,0,14.675-23.887,43.317,43.317,0,0,0,2.908-9.743A.78.78,0,0,0,325.807,153.995Zm0,0" transform="translate(-273.276 -137.971)" fill="#b4dbff"/>
        <path id="Trazado_199662" data-name="Trazado 199662" d="M179.208,118.168c0-2.783-8.446-5.039-18.864-5.039s-18.864,2.256-18.864,5.039,8.446,5.039,18.864,5.039S179.208,120.951,179.208,118.168Zm0,0" transform="translate(-126.775 -101.371)" fill="#8bcaff"/>
        <path id="Trazado_199663" data-name="Trazado 199663" d="M178.465,148.1c-2.276,2.1-9.527,3.635-18.12,3.635S144.5,150.2,142.224,148.1a1.954,1.954,0,0,0-.743,1.4c0,2.783,8.446,5.039,18.864,5.039s18.864-2.256,18.864-5.039a1.954,1.954,0,0,0-.743-1.4Zm0,0" transform="translate(-126.776 -132.709)" fill="#60b8ff"/>
        <path id="Trazado_199664" data-name="Trazado 199664" d="M392.947,135.812a.78.78,0,0,0-1.457-.207,26.613,26.613,0,0,1-1.983,3.2,20.91,20.91,0,0,1-3.42,3.725.781.781,0,0,0-.1,1.088l3.6,4.395a.78.78,0,0,0,.6.286c.024,0,.049,0,.074,0a.78.78,0,0,0,.612-.406,17.734,17.734,0,0,0,2.069-12.079Zm0,0" transform="translate(-345.715 -121.134)" fill="#ff7c66"/>
        <path id="Trazado_199665" data-name="Trazado 199665" d="M392.947,135.812a.78.78,0,0,0-1.457-.207,26.613,26.613,0,0,1-1.983,3.2,20.91,20.91,0,0,1-3.42,3.725.781.781,0,0,0-.1,1.088l1.793,2.19a22.422,22.422,0,0,0,3.928-4.221c.585-.814,1.1-1.611,1.544-2.386A16.17,16.17,0,0,0,392.947,135.812Zm0,0" transform="translate(-345.715 -121.134)" fill="#ff6c55"/>
        <path id="Trazado_199666" data-name="Trazado 199666" d="M249.344,58a.781.781,0,0,0-.717-.267c-.235.037-5.8.947-9.184,4.513a.781.781,0,0,0-.174.784c.059.176,1.462,4.341,3.281,6.332a.78.78,0,0,0,1.337-.354,20.459,20.459,0,0,1,3.378-7.44,27.073,27.073,0,0,1,2.057-2.535.772.772,0,0,0,.174-.306.78.78,0,0,0-.152-.728Zm0,0" transform="translate(-214.365 -51.726)" fill="#ff7c66"/>
        <path id="Trazado_199667" data-name="Trazado 199667" d="M262.09,61.571a27.074,27.074,0,0,1,2.057-2.535A.781.781,0,0,0,264.169,58a.782.782,0,0,0-.717-.267,18.873,18.873,0,0,0-2.73.7c-.593.673-1.186,1.413-1.773,2.23a22.193,22.193,0,0,0-3.177,6.3,11.855,11.855,0,0,0,1.6,2.4.78.78,0,0,0,1.337-.353,20.462,20.462,0,0,1,3.378-7.441Zm0,0" transform="translate(-229.19 -51.727)" fill="#ff6c55"/>
        <path id="Trazado_199668" data-name="Trazado 199668" d="M221.689,5.709A12.179,12.179,0,0,0,220.465.5a.781.781,0,0,0-.532-.382,12.179,12.179,0,0,0-5.325.5c-2.79.829-6.928,2.947-10.8,8.331a21.791,21.791,0,0,0-4.037,15.341,9.732,9.732,0,0,0-7.4,2.931.78.78,0,0,0,.616,1.326c.035,0,3.536-.25,5.886,1.438s3.232,5.085,3.241,5.119a.78.78,0,0,0,1.453.162,9.733,9.733,0,0,0,.417-7.948A21.793,21.793,0,0,0,217.239,18.6c3.868-5.383,4.555-9.981,4.45-12.889Zm0,0" transform="translate(-172.179 -0.017)" fill="#ffb541"/>
        <path id="Trazado_199669" data-name="Trazado 199669" d="M300.08,5.709A12.179,12.179,0,0,0,298.856.5a.781.781,0,0,0-.532-.382,8.227,8.227,0,0,0-1.518-.1,13.939,13.939,0,0,1,.678,3.9c.1,2.909-.583,7.507-4.45,12.889a21.781,21.781,0,0,1-12.587,8.568.626.626,0,0,0-.45.789,9.651,9.651,0,0,1-.363,6.738,11.8,11.8,0,0,1,.875,2.2.78.78,0,0,0,1.453.162,9.731,9.731,0,0,0,.417-7.948A21.793,21.793,0,0,0,295.63,18.6c3.868-5.383,4.555-9.981,4.45-12.889Zm0,0" transform="translate(-250.57 -0.017)" fill="#ffa812"/>
        <path id="Trazado_199670" data-name="Trazado 199670" d="M370.843.485A.779.779,0,0,0,370.311.1c-.188-.036-4.665-.841-9.995,2.729a.78.78,0,0,0-.318.856,10.575,10.575,0,0,0,4.01,5.749,10.58,10.58,0,0,0,6.157,1.982c.19,0,.381-.005.571-.015a.781.781,0,0,0,.71-.574c1.682-6.19-.509-10.177-.6-10.343Zm0,0" transform="translate(-322.557 0)" fill="#ffcf86"/>
        <path id="Trazado_199671" data-name="Trazado 199671" d="M168.279,112.151q-.271.7-.613,1.443c2.963.915,4.035,1.929,4.035,2.548,0,.687-1.3,1.834-4.946,2.809a53.263,53.263,0,0,1-13.137,1.45,53.264,53.264,0,0,1-13.137-1.45c-3.651-.975-4.946-2.123-4.946-2.809,0-.983,2.747-2.847,10.068-3.776-.275-.666-.473-1.21-.574-1.5a32.26,32.26,0,0,0-7.393,1.753c-2.429.971-3.661,2.156-3.661,3.521,0,1.783,2.054,3.235,6.1,4.317a61.778,61.778,0,0,0,27.081,0c4.05-1.082,6.1-2.535,6.1-4.317C173.261,114.535,171.585,113.194,168.279,112.151Zm0,0" transform="translate(-120.048 -99.345)" fill="#9c8f9a"/>
        <path id="Trazado_199672" data-name="Trazado 199672" d="M441.072.486A.779.779,0,0,0,440.539.1a8.233,8.233,0,0,0-1.519-.1,13.929,13.929,0,0,1,.679,3.9,18.111,18.111,0,0,1-1.356,7.315,10.535,10.535,0,0,0,2.05.2q.286,0,.571-.016a.78.78,0,0,0,.71-.574c1.682-6.19-.509-10.177-.6-10.343Zm0,0" transform="translate(-392.786 -0.001)" fill="#ffc265"/>
        <path id="Trazado_199673" data-name="Trazado 199673" d="M420.162,42.5a.968.968,0,1,1-.967-.967A.968.968,0,0,1,420.162,42.5Zm0,0" transform="translate(-374.76 -37.218)" fill="#7b7179"/>
      </g>
    </g>
  </g>
</svg>
