<svg xmlns="http://www.w3.org/2000/svg" xmlns:xlink="http://www.w3.org/1999/xlink" width="63" height="63" viewBox="0 0 63 63">
  <defs>
    <linearGradient id="linear-gradient" x1="0.5" x2="0.5" y2="0.624" gradientUnits="objectBoundingBox">
      <stop offset="0" stop-color="#ffc846"/>
      <stop offset="1" stop-color="#fff7e3"/>
    </linearGradient>
  </defs>
  <g id="Grupo_150794" data-name="Grupo 150794" transform="translate(-292 -14155)">
    <circle id="Elipse_4833" data-name="Elipse 4833" cx="31.5" cy="31.5" r="31.5" transform="translate(355 14218) rotate(-180)" fill="url(#linear-gradient)"/>
    <g id="planta-arana" transform="translate(294.312 14160.623)">
      <path id="Trazado_199619" data-name="Trazado 199619" d="M36.769,33.461l5.317-4.136a11.035,11.035,0,0,1,17.345,5.54l.412,1.365-3.123-3.123a8.242,8.242,0,0,0-13.064,1.881l-3.194,5.857H34l.923-5.538Z" transform="translate(-2.466 -1.926)" fill="#305b26"/>
      <path id="Trazado_199620" data-name="Trazado 199620" d="M31,39.38l7.333-17.331A37.114,37.114,0,0,1,46.27,10.266a7.732,7.732,0,0,1,12.577,2.424l.764,1.771-3.2-1.922A5.939,5.939,0,0,0,48.6,14.067,96.133,96.133,0,0,0,37.659,32.7L34.692,39.38" transform="translate(-2.235 -0.462)" fill="#508c45"/>
      <path id="Trazado_199621" data-name="Trazado 199621" d="M32.647,40.21l.516-7.245A59.523,59.523,0,0,1,44.536,2,14.989,14.989,0,0,0,31.825,9.045,31.762,31.762,0,0,0,27,25.873V40.764" transform="translate(-1.926)" fill="#447b3b"/>
      <path id="Trazado_199622" data-name="Trazado 199622" d="M22.846,35.65,21.238,25.2A20.443,20.443,0,0,1,21,22.083v-.1A20.481,20.481,0,0,1,27,7.5l-1.979,10.7a19.45,19.45,0,0,0,1.067,10.773l4.145,10.362H24.692" transform="translate(-1.464 -0.424)" fill="#5c9d52"/>
      <path id="Trazado_199623" data-name="Trazado 199623" d="M18.286,31.534A36.91,36.91,0,0,1,9.776,6.061L9.979,2,21.054,33.38" transform="translate(-0.596 0)" fill="#305b26"/>
      <path id="Trazado_199624" data-name="Trazado 199624" d="M12,42H48.918v9.229a9.229,9.229,0,0,1-9.229,9.229H21.229A9.229,9.229,0,0,1,12,51.229Z" transform="translate(-0.771 -3.082)" fill="#574138"/>
      <path id="Trazado_199625" data-name="Trazado 199625" d="M32.54,58.613h12.9a9.205,9.205,0,0,0,3.708-7.384V42H15.05A17.522,17.522,0,0,0,32.54,58.613Z" transform="translate(-1.006 -3.082)" fill="#684d42"/>
      <path id="Trazado_199626" data-name="Trazado 199626" d="M22.3,40.536A29.285,29.285,0,0,1,7.294,30.059L2,23l9.9,4.246A28.167,28.167,0,0,1,26,40.536" transform="translate(0 -1.618)" fill="#447b3b"/>
      <path id="Trazado_199627" data-name="Trazado 199627" d="M23.384,37.846l-.66-.66A4.049,4.049,0,0,0,19.861,36h-.019A4.049,4.049,0,0,0,16,38.769v.052a34.963,34.963,0,0,0,3.692,15.64v-.976a34.963,34.963,0,0,1,3.692-15.64Z" transform="translate(-1.079 -2.62)" fill="#508c45"/>
      <path id="Trazado_199628" data-name="Trazado 199628" d="M60.507,57.151,50.235,42.476A8.9,8.9,0,0,0,47.06,39.7a8.785,8.785,0,0,0-4.089-1.006H42.63L44.319,35.6c.083-.148.166-.3.258-.434a7.675,7.675,0,0,1,8.666,4.541Z" transform="translate(-3.131 -2.543)" fill="#447b3b"/>
    </g>
  </g>
</svg>
