<svg xmlns="http://www.w3.org/2000/svg" xmlns:xlink="http://www.w3.org/1999/xlink" width="63" height="63" viewBox="0 0 63 63">
  <defs>
    <linearGradient id="linear-gradient" x1="0.5" x2="0.5" y2="0.624" gradientUnits="objectBoundingBox">
      <stop offset="0" stop-color="#ffc846"/>
      <stop offset="1" stop-color="#fff7e3"/>
    </linearGradient>
    <clipPath id="clip-path">
      <circle id="Elipse_4842" data-name="Elipse 4842" cx="31.5" cy="31.5" r="31.5" transform="translate(355 14330) rotate(180)" fill="url(#linear-gradient)"/>
    </clipPath>
  </defs>
  <g id="Enmascarar_grupo_76" data-name="Enmascarar grupo 76" transform="translate(-292 -14267)" clip-path="url(#clip-path)">
    <g id="tierra" transform="translate(274.918 14271.447)">
      <g id="Grupo_150777" data-name="Grupo 150777" transform="translate(26.763)">
        <path id="Trazado_199674" data-name="Trazado 199674" d="M170.972,153.716a3.046,3.046,0,0,1-2.423-1.819c-.581-.876-2.483-2.77-8.072-2.77a9.635,9.635,0,0,1-7.455-3.7A14,14,0,0,1,150.8,141.7l0-.009c-.007-.015-.029-.064-.066-.139a3.4,3.4,0,0,0-1.746,1.743,5.577,5.577,0,0,0-.381,1.2,1.446,1.446,0,0,1-1.527,1.161,2.086,2.086,0,0,0-2.4,1.5c-.768,2.593,2.368,5.321,5.427,4.413,3.323-.987,6.108-.665,7.815,2.333a5.479,5.479,0,0,0,2.54,2.285,3.161,3.161,0,0,1,1.345,4.626,19.869,19.869,0,0,1-2.341,2.971,5.021,5.021,0,0,0-1.22,4.154,22.21,22.21,0,0,0,11.314-.7c-.281-1.727,1.2-3.3,3.118-5.22,2.665-2.665,1.878-4.309,1.878-5.487C174.55,155.107,174.432,154.19,170.972,153.716Z" transform="translate(-140.475 -124.18)" fill="#27a6ff"/>
        <path id="Trazado_199675" data-name="Trazado 199675" d="M212.759,46.984A10.352,10.352,0,0,0,215.02,44.1c1.4-2.616,4.475-2.749,5.412-1.812a4.208,4.208,0,0,0,2.108.932,1.325,1.325,0,0,0,1.325-.485c.792-1.016-.163-1.853-1.323-3.819a2.491,2.491,0,0,0-4.239-.1,3.03,3.03,0,0,1-2.172,1.374.734.734,0,0,1-.6-1.25,2.4,2.4,0,0,0,.257-.306c-.125.025-.251.05-.379.073-2.982.525-5.388.093-7.153-1.286a8.681,8.681,0,0,1-2.936-5.652l-.007-.372a2.96,2.96,0,0,0-.245.3,1.378,1.378,0,0,1-2.528-.726,2.036,2.036,0,0,0-.328-1.019,1.538,1.538,0,0,1,.286-2.081c1.673-1.673-4.747-1.861-4.747,1.807a3.429,3.429,0,0,0,1.235,2.881,2.509,2.509,0,0,1,.811,2.838c-.659,3.352-3.137,1.086-4.232,3.6a3.6,3.6,0,0,1-1.692,1.893c.039.078.06.124.06.124s2.712,7.519,9.811,7.519,8.17,3.107,8.17,3.107l.137-.038A3.609,3.609,0,0,1,212.759,46.984Z" transform="translate(-183.74 -23.442)" fill="#02c0fc"/>
        <path id="Trazado_199676" data-name="Trazado 199676" d="M296.228,16.308c.076-.013.151-.029.226-.043a1.98,1.98,0,0,0,.5-1.315c0-1.735.537-.908,2.969-2.432a2.606,2.606,0,0,0,1.145-3.306c-.613-1.541-1.789-1.345-1.806-.353a1.491,1.491,0,0,1-1.349,1.5,1.521,1.521,0,0,1-1.7-1.651,4.507,4.507,0,0,0-.354-1.9,3.517,3.517,0,0,1,.9-3.447,21.948,21.948,0,0,0-7.774-2.33c.886,1.166,1.918,2.968,1.264,4.42-.818,1.819-3.169,2.187-4.28,3.56l0,.223s.611,8.765,10.25,7.067Z" transform="translate(-264.539 -0.91)" fill="#2fd0e2"/>
        <path id="Trazado_199677" data-name="Trazado 199677" d="M124.415,232.662c-.982-4.357-3.122-7.194-6.935-6.53a22.1,22.1,0,0,0,7.337,11.343A26.816,26.816,0,0,0,124.415,232.662Z" transform="translate(-116.723 -198.295)" fill="#27a6ff"/>
        <path id="Trazado_199678" data-name="Trazado 199678" d="M131.044,116.645c-3.342-.366-3.568-2.173-3.788-3.927-.18-1.439-.351-2.8-2.325-3.018a3.157,3.157,0,0,1-2.377-1.3,5.72,5.72,0,0,1-.637-3.759c-.34.075-.681.163-1.018.264-2.95.876-5.992-1.752-5.255-4.241a1.966,1.966,0,0,1,2.258-1.4,1.584,1.584,0,0,0,1.672-1.274,5.406,5.406,0,0,1,.371-1.167,3.251,3.251,0,0,1,1.679-1.673c-.118-.261-1.619-3.443-4.445-3.443-2.657,0-2.75-2.919-2.753-3.043v-.026l-.05-.122a22.142,22.142,0,0,0-2.269,17.108c4.446-.763,6.088,3.43,6.763,6.426a25.747,25.747,0,0,1,.4,4.665,22,22,0,0,0,9.949,4.719,4.906,4.906,0,0,1,1.179-4.083C130.611,117.132,130.828,116.9,131.044,116.645Z" transform="translate(-111.314 -77.651)" fill="#47cb8f"/>
        <path id="Trazado_199679" data-name="Trazado 199679" d="M149.717,4.6l.068-.063-.026-.069a22.125,22.125,0,0,0-14.206,10.466s.064,3.178,2.891,3.178,4.325,3.375,4.325,3.375a3.68,3.68,0,0,0,1.76-1.962c1.045-2.4,3.565-.184,4.241-3.626s-2.043-2.335-2.043-5.746c0-1.991,2.013-2.784,3.412-2.821V7.258l-.067-.04A1.714,1.714,0,0,1,149.107,6a1.953,1.953,0,0,1,.61-1.4Z" transform="translate(-132.578 -3.919)" fill="#94dc79"/>
        <path id="Trazado_199680" data-name="Trazado 199680" d="M250.522,0a22.155,22.155,0,0,0-5.046.58,1.665,1.665,0,0,0,.377,2.839c1.071-.065,1.848.3,1.238.91a1.673,1.673,0,0,0-.305,2.253,1.9,1.9,0,0,1,.306.949,1.763,1.763,0,0,0,.037.3,1.521,1.521,0,0,0,2.742.5c1.032-1.457,3.532-1.8,4.4-3.727.665-1.477-.313-3.265-1.2-4.457A22.321,22.321,0,0,0,250.522,0Z" transform="translate(-228.432)" fill="#d2f09e"/>
        <path id="Trazado_199681" data-name="Trazado 199681" d="M339.349,159.67c3.544.485,3.455,1.457,3.455,2.67,0,.43.1.9.109,1.451a5.882,5.882,0,0,0,5.367,2,21.991,21.991,0,0,0,4.77-13.709q0-.778-.053-1.542a2.672,2.672,0,0,1-1.315.238,4.065,4.065,0,0,1-2.573-1.572l-.031-.043-.14-.032a1.183,1.183,0,0,1-1.238.5,4.261,4.261,0,0,1-2.039-.894c-.922-.922-4.127-.971-5.632,1.845a10.253,10.253,0,0,1-2.231,2.844,3.754,3.754,0,0,0-.755,4.754A3.067,3.067,0,0,0,339.349,159.67Z" transform="translate(-308.871 -129.996)" fill="#94dc79"/>
        <g id="Grupo_150776" data-name="Grupo 150776" transform="translate(31.063 2.395)">
          <path id="Trazado_199682" data-name="Trazado 199682" d="M365.469,19.514a3.652,3.652,0,0,0-.912,3.554,4.427,4.427,0,0,1,.348,1.842,1.66,1.66,0,0,0,1.844,1.8,1.634,1.634,0,0,0,1.477-1.638.574.574,0,0,1,.45-.636c.85-.17,2.4,2.67,0,4.175s-3.034.7-3.034,2.549a1.886,1.886,0,0,1-.585,1.358A.872.872,0,0,0,365.777,34a3.162,3.162,0,0,0,2.268-1.434,2.4,2.4,0,0,1,2.859-.907,2.3,2.3,0,0,1,1.147,1c.545.923,1.129,1.714,1.465,2.4a1.186,1.186,0,0,1-.174,1.312l.151.034s1.714,2.381,4.009,1.4A22.1,22.1,0,0,0,365.469,19.514Z" transform="translate(-364.43 -19.514)" fill="#d2f09e"/>
        </g>
        <path id="Trazado_199683" data-name="Trazado 199683" d="M351.953,272.735c.078,1.05-.05,2.381-1.931,4.261s-3.466,3.528-3.154,5.361a22.131,22.131,0,0,0,10.617-7.487A5.853,5.853,0,0,1,351.953,272.735Z" transform="translate(-317.926 -239.264)" fill="#47cb8f"/>
        <path id="Trazado_199684" data-name="Trazado 199684" d="M207.086,227.9a3.3,3.3,0,0,0-1.4-4.829,5.354,5.354,0,0,1-2.477-2.228c-1.7-2.993-4.421-3.249-7.1-2.628-.188,1.642-.115,4.8,3.143,5.165,4.135.459-.105,6.184,6.02,6.932A23.314,23.314,0,0,0,207.086,227.9Z" transform="translate(-185.648 -191.193)" fill="#94dc79"/>
      </g>
      <path id="Trazado_199685" data-name="Trazado 199685" d="M177.07,290.539a2.458,2.458,0,0,0-3.313.02c-2.494,2-7.187,5.521-7.187,5.521h0a2.109,2.109,0,0,0,.187-1.163c-.139-1.4-2.2-2-4.609-2.218-4.035-.572-5.42-.357-7.329-1.35a15.648,15.648,0,0,0-5.248-1.554,10.473,10.473,0,0,0-6.769,1.742c-.822,1.84-2.9,8.371,5.7,13.968a1.036,1.036,0,0,1,.231.04c2.25.685,7.2.727,12.156.243,3.932-.385,12.036-7.433,16.049-11.681A2.483,2.483,0,0,0,177.07,290.539Z" transform="translate(-111.448 -254.174)" fill="#ffc7ab"/>
      <path id="Trazado_199686" data-name="Trazado 199686" d="M314.562,323.694l-.1-.1h0a2.11,2.11,0,0,0,.187-1.163,1.691,1.691,0,0,0-.871-1.253s-3.282-.692-3.222,1.923c.034,1.507,1.506,1.7,2.748,1.6a4.016,4.016,0,0,0,1.26-1.005Z" transform="translate(-259.338 -281.691)" fill="#fce0d4"/>
      <path id="Trazado_199687" data-name="Trazado 199687" d="M238.074,327.483a6.709,6.709,0,0,0,.7-2.77c-1.514,1.152-2.719,2.055-2.719,2.055h0c-.52.661-2.523,2.478-7.846,1.653-6.111-.947-6.166-.906-6.595-.59a1.07,1.07,0,0,0,.714,1.926c.194.011,1.186.1,5.554.776C235.708,331.747,237.861,327.911,238.074,327.483Z" transform="translate(-180.929 -284.863)" fill="#ffaa7b"/>
      <path id="Trazado_199688" data-name="Trazado 199688" d="M69.511,302.613a12.619,12.619,0,0,0-4.022,3.478c-.59.9-2.041,3.583-2.751,4.388l-4.726,5.869a30.2,30.2,0,0,0,10.331,8.679l5.755-7.916a1.129,1.129,0,0,1,1.164-.212C64.843,310.478,69.511,302.613,69.511,302.613Z" transform="translate(-37.791 -265.475)" fill="#ffaa7b"/>
    </g>
  </g>
</svg>
