<svg id="Grupo_150810" data-name="Grupo 150810" xmlns="http://www.w3.org/2000/svg" xmlns:xlink="http://www.w3.org/1999/xlink" width="189.53" height="343.071" viewBox="0 0 189.53 343.071">
  <defs>
    <linearGradient id="linear-gradient" x1="0.48" y1="0.5" x2="0.984" y2="0.498" gradientUnits="objectBoundingBox">
      <stop offset="0" stop-color="#fff7e3"/>
      <stop offset="0.492" stop-color="#fff5dc"/>
      <stop offset="1" stop-color="#ffe9b3"/>
    </linearGradient>
    <clipPath id="clip-path">
      <rect id="Rectángulo_42382" data-name="Rectángulo 42382" width="189.53" height="343.071" fill="none"/>
    </clipPath>
    <clipPath id="clip-path-2">
      <rect id="Rectángulo_42378" data-name="Rectángulo 42378" width="189.53" height="343.07" fill="none"/>
    </clipPath>
    <clipPath id="clip-path-3">
      <path id="Trazado_202757" data-name="Trazado 202757" d="M94.765,0A94.765,94.765,0,0,0,0,94.769V248.31a94.768,94.768,0,0,0,172.659,53.978v0c.124-.178.249-.358.372-.538.035-.052.071-.1.108-.156.131-.193.262-.387.392-.58.239-.356.474-.713.708-1.073.084-.126.166-.252.247-.38.1-.161.209-.324.311-.488q.419-.651.819-1.312.2-.33.4-.661a93.536,93.536,0,0,0,5.477-10.546q.8-1.8,1.52-3.641,1.095-2.793,2.018-5.671.181-.57.358-1.144c.166-.547.33-1.095.486-1.647a93.758,93.758,0,0,0,2.608-12.021q.345-2.3.577-4.643c.052-.511.1-1.024.14-1.539q.315-3.761.328-7.6c0-.114,0-.229,0-.343V94.769A94.684,94.684,0,0,0,94.765,0Z" transform="translate(0 -0.004)" fill="url(#linear-gradient)"/>
    </clipPath>
    <clipPath id="clip-path-5">
      <rect id="Rectángulo_42380" data-name="Rectángulo 42380" width="189.53" height="123.885" fill="#536e32"/>
    </clipPath>
  </defs>
  <g id="Grupo_150809" data-name="Grupo 150809" clip-path="url(#clip-path)">
    <g id="Grupo_150801" data-name="Grupo 150801" transform="translate(0 0.001)">
      <g id="Grupo_150800" data-name="Grupo 150800" clip-path="url(#clip-path-2)">
        <path id="Trazado_202756" data-name="Trazado 202756" d="M.084,1110.316,0,1110.39v-.056l.084-.018" transform="translate(0 -901.083)" fill="#f7931e"/>
      </g>
    </g>
    <g id="Grupo_150803" data-name="Grupo 150803" transform="translate(0 0.001)">
      <g id="Grupo_150802" data-name="Grupo 150802" clip-path="url(#clip-path-3)">
        <rect id="Rectángulo_42379" data-name="Rectángulo 42379" width="343.45" height="190.217" transform="matrix(0.002, -1, 1, 0.002, -0.688, 343.069)" fill="url(#linear-gradient)"/>
      </g>
    </g>
    <g id="Grupo_150808" data-name="Grupo 150808" transform="translate(0 0.001)">
      <g id="Grupo_150807" data-name="Grupo 150807" clip-path="url(#clip-path-2)">
        <path id="Trazado_202758" data-name="Trazado 202758" d="M292.177,520.037v.2q0,1.394-.061,2.774a62.9,62.9,0,0,1-1.264,10.164v0q-.3,1.464-.674,2.9a62.587,62.587,0,0,1-4.232,11.582c-.25.525-.508,1.042-.772,1.557a63.43,63.43,0,0,1-11.964,16.21q-1.06,1.046-2.17,2.036a63.487,63.487,0,0,1-6.772,5.276q-1.471.994-3,1.905h0a63.354,63.354,0,0,1-69.1-2.8h0c-1.283-.92-2.526-1.875-3.736-2.881a62.9,62.9,0,0,1-4.71-4.33q-1.408-1.429-2.722-2.947a63.359,63.359,0,0,1-9.833-15.339q-.537-1.18-1.023-2.385a62.769,62.769,0,0,1-3.268-10.77q-.379-1.826-.653-3.687a63.667,63.667,0,0,1-.674-9.267v-.122q0-1.878.117-3.731a62.986,62.986,0,0,1,1.458-10.238c.152-.672.314-1.339.489-2a62.815,62.815,0,0,1,2.032-6.36q.586-1.545,1.25-3.052a63.24,63.24,0,0,1,3.19-6.266q.65-1.116,1.341-2.2a63.108,63.108,0,0,1,4.564-6.28q1.268-1.541,2.633-3a63.406,63.406,0,0,1,18.422-13.646h.009c1.1-.541,2.214-1.051,3.354-1.529h.009a63.448,63.448,0,0,1,55.953,3.492q.9.516,1.784,1.063a63.637,63.637,0,0,1,16.064,14.2q.934,1.159,1.812,2.364a63.241,63.241,0,0,1,4.405,6.933q.418.762.815,1.536a62.793,62.793,0,0,1,3.045,6.952q.432,1.166.817,2.35a63.071,63.071,0,0,1,1.842,7.074c.087.424.166.85.241,1.278a63.541,63.541,0,0,1,.985,10.978" transform="translate(-134.348 -370.818)" fill="#ffc846"/>
        <path id="Trazado_202759" data-name="Trazado 202759" d="M576.664,502.479l-23.576-.552,21.792-.51q.9.516,1.784,1.063" transform="translate(-448.861 -406.928)" fill="#fff"/>
        <path id="Trazado_202760" data-name="Trazado 202760" d="M552.2,584.791l-51.283-1.2,49.471-1.161q.934,1.159,1.812,2.364" transform="translate(-406.523 -472.672)" fill="#fff"/>
        <path id="Trazado_202761" data-name="Trazado 202761" d="M658.228,633.3l-33.1-.777,32.281-.758q.418.762.815,1.535" transform="translate(-507.329 -512.713)" fill="#fff"/>
        <path id="Trazado_202762" data-name="Trazado 202762" d="M603.623,679.154l-50.534-1.184,49.717-1.166q.432,1.166.817,2.35" transform="translate(-448.862 -549.265)" fill="#fff"/>
        <path id="Trazado_202763" data-name="Trazado 202763" d="M714.576,728.09l-27.337-.641,27.1-.637q.13.635.241,1.278" transform="translate(-557.732 -589.849)" fill="#fff"/>
        <path id="Trazado_202764" data-name="Trazado 202764" d="M564.353,791.85v.2q0,1.394-.061,2.774l-63.373-1.486Z" transform="translate(-406.523 -642.631)" fill="#fff"/>
        <path id="Trazado_202765" data-name="Trazado 202765" d="M659.935,938.422c-.25.524-.508,1.042-.772,1.557l-32.789-.77Z" transform="translate(-508.337 -761.582)" fill="#fff"/>
        <path id="Trazado_202766" data-name="Trazado 202766" d="M563.028,861.583q-.3,1.464-.674,2.9l-61.435-1.442Z" transform="translate(-406.523 -699.223)" fill="#fff"/>
        <path id="Trazado_202767" data-name="Trazado 202767" d="M545.386,1032.7c-.707.7-1.43,1.374-2.17,2.036l-42.3-.992Z" transform="translate(-406.523 -838.093)" fill="#fff"/>
        <path id="Trazado_202768" data-name="Trazado 202768" d="M508.218,1071.5q-1.471.994-3,1.906h0l-39.079-.917Z" transform="translate(-378.297 -869.585)" fill="#fff"/>
        <path id="Trazado_202769" data-name="Trazado 202769" d="M388.209,483.609l-34.247.8c1.1-.541,2.214-1.051,3.354-1.528h.009Z" transform="translate(-287.26 -391.887)" fill="#fff"/>
        <path id="Trazado_202770" data-name="Trazado 202770" d="M307.326,564.878l-65.143,1.528q1.268-1.541,2.633-3Z" transform="translate(-196.545 -457.239)" fill="#fff"/>
        <path id="Trazado_202771" data-name="Trazado 202771" d="M258.485,613.722l-47.641,1.117q.65-1.117,1.341-2.2Z" transform="translate(-171.112 -497.189)" fill="#fff"/>
        <path id="Trazado_202772" data-name="Trazado 202772" d="M252.938,659.088l-65.657,1.54q.586-1.545,1.25-3.052Z" transform="translate(-151.989 -533.66)" fill="#fff"/>
        <path id="Trazado_202773" data-name="Trazado 202773" d="M216.8,708.517l-42.9,1.006c.152-.672.314-1.339.489-2Z" transform="translate(-141.132 -574.194)" fill="#fff"/>
        <path id="Trazado_202774" data-name="Trazado 202774" d="M245.129,774.336,165.544,776.2q0-1.878.117-3.731Z" transform="translate(-134.348 -626.905)" fill="#fff"/>
        <path id="Trazado_202775" data-name="Trazado 202775" d="M241.276,920.013l-50.326,1.18q-.537-1.18-1.023-2.385Z" transform="translate(-154.136 -745.664)" fill="#fff"/>
        <path id="Trazado_202776" data-name="Trazado 202776" d="M169.774,845.781l78.257-1.835-78.911-1.852Z" transform="translate(-137.251 -683.407)" fill="#fff"/>
        <path id="Trazado_202777" data-name="Trazado 202777" d="M311.671,1014.367l-61.411,1.442q-1.408-1.429-2.722-2.947Z" transform="translate(-200.89 -821.994)" fill="#fff"/>
        <path id="Trazado_202778" data-name="Trazado 202778" d="M350.231,1052.964l-59.515,1.4h0c-1.283-.92-2.526-1.875-3.736-2.881Z" transform="translate(-232.896 -853.335)" fill="#fff"/>
        <path id="Trazado_202779" data-name="Trazado 202779" d="M189.53,832.818v47.317c0,.115,0,.229,0,.343q-.013,3.836-.328,7.6c-.042.515-.087,1.028-.14,1.539q-.232,2.338-.577,4.643-.5,3.35-1.233,6.619-.611,2.732-1.376,5.4c-.156.552-.32,1.1-.486,1.646q-.177.573-.358,1.144-.921,2.875-2.018,5.671-.724,1.839-1.52,3.641a93.544,93.544,0,0,1-5.477,10.546q-.2.331-.4.661-.4.661-.819,1.312c-.1.163-.207.326-.311.488-.081.128-.163.254-.247.38-.234.36-.469.716-.708,1.073-.129.194-.261.387-.392.58-.037.052-.072.1-.108.156q-.184.27-.372.538v0A94.646,94.646,0,0,1,94.666,974.9C42.294,974.846,0,932.051,0,879.679V841.136l.084-.074,29.839-26.216a6.061,6.061,0,0,1,8.541.54,6.059,6.059,0,0,0,8.684.41l18-16.868a12.694,12.694,0,0,1,17.9.533l12.494,13.188a7.436,7.436,0,0,0,11.6-1.017l20.078-30.419a5.952,5.952,0,0,1,10.191.427l16.146,29.568a8.972,8.972,0,0,0,10.867,4.161l6.844-2.418a7.871,7.871,0,0,1,9.554,3.69Z" transform="translate(0 -631.829)" fill="#869d69"/>
        <path id="Trazado_202780" data-name="Trazado 202780" d="M68.073,1008.382,87.4,994.705a2.057,2.057,0,0,1,1.38-.369l4.152.389-12.428,11.2,2.915-6.444Z" transform="translate(-55.245 -806.952)" fill="#e5efd4"/>
        <path id="Trazado_202781" data-name="Trazado 202781" d="M199.98,936.347l9.974-4.757,14.884-21.328-4.757,17.185,7.672-13.5,2.915-9.513,18.413,23.016-10.127-7.058,5.984,7.058-10.127-7.058,3.529,7.058-9.36,5.37-1.228-5.37-6.6,8.9Z" transform="translate(-162.295 -733.997)" fill="#e5efd4"/>
        <path id="Trazado_202782" data-name="Trazado 202782" d="M701.284,838.362l4.757,8.746-1.124,2.139-3.633,6.914,5.984-5.984v4.143l1.688-3.376,1.535,5.217,3.836,2.915-3.222,4.3,4.45-2.608,9.206,2.608,5.524,8.286-7.365-5.524,5.064,5.524v6.9l-10.434-10.127-6.444,1.228-.307-3.222-7.979-.307,1.381-2.915-2.915,1.074v-5.831l-2.3,4.45V851.864l-4.757-4.45,5.063,1.841-5.063-4.45,5.063-1.534-2.455-12.122Z" transform="translate(-563.402 -674.525)" fill="#e5efd4"/>
        <path id="Trazado_202783" data-name="Trazado 202783" d="M578.888,919.315l9.206-14.884-2.455,8.593,3.836-4.6v10.894l-14.117,7.672,4.757-5.063-7.212,2.609Z" transform="translate(-464.943 -733.996)" fill="#e5efd4"/>
        <path id="Trazado_202784" data-name="Trazado 202784" d="M917.14,989.113l8.9,13.349-7.212-4.3L917.14,995.4l-3.069-3.222,3.683,1.995Z" transform="translate(-741.819 -802.72)" fill="#e5efd4"/>
        <path id="Trazado_202785" data-name="Trazado 202785" d="M181.558,812.617a8.667,8.667,0,0,0-10.573-4.085l-6.846,2.42a8.1,8.1,0,0,1-9.848-3.77l-16.148-29.57a6.792,6.792,0,0,0-11.631-.486l-20.076,30.417a6.6,6.6,0,0,1-10.292.9L83.65,795.258a13.562,13.562,0,0,0-19.079-.567l-18,16.866a5.221,5.221,0,0,1-7.48-.353,6.912,6.912,0,0,0-9.725-.616L0,836.391v2.238l30.478-26.778a5.228,5.228,0,0,1,7.356.466,6.9,6.9,0,0,0,9.89.468l18-16.868a11.88,11.88,0,0,1,16.71.5L94.923,809.6a8.278,8.278,0,0,0,12.916-1.134l20.078-30.417a5.111,5.111,0,0,1,8.752.365l16.146,29.57a9.777,9.777,0,0,0,11.885,4.551l6.846-2.42a7,7,0,0,1,8.533,3.3l9.451,17.552v-3.547Z" transform="translate(0 -628.205)" fill="#fff"/>
        <path id="Trazado_202786" data-name="Trazado 202786" d="M723.161,1034.463l9.206,7.058-9.206-1.688,18.106,8.593-18.106-4.3-6.138-1.688,3.683-2.609-1.381-6.751L721.32,1036Z" transform="translate(-581.904 -838.404)" fill="#e5efd4"/>
        <path id="Trazado_202787" data-name="Trazado 202787" d="M88.938,1287.64l.158-.027c-.029.172-.077.205-.158.027" transform="translate(-72.178 -1044.97)" fill="#006837"/>
        <g id="Grupo_150806" data-name="Grupo 150806" transform="translate(0 219.185)" opacity="0.3">
          <g id="Grupo_150805" data-name="Grupo 150805">
            <g id="Grupo_150804" data-name="Grupo 150804" clip-path="url(#clip-path-5)">
              <path id="Trazado_202788" data-name="Trazado 202788" d="M165.346,1167.664c-15.359-13.673-35.049,7.946-35.049,7.946q-.621.136-1.238.278l-.393.091q-.424.1-.846.2l-.445.107-.8.194-.444.11-.815.207-.4.1q-.465.121-.928.244l-.274.073q-1.236.332-2.454.682l-.152.044q-.527.152-1.051.307l-.248.074q-.485.144-.968.292l-.244.075q-.5.155-1.006.313l-.176.055q-2.435.77-4.8,1.605l-.021.008q-.577.2-1.149.411l-.062.022q-.574.208-1.143.419l-.008,0a15.923,15.923,0,0,0-2.186-1.885l0,0q-.284-.2-.575-.392l-.012-.008q-.29-.189-.586-.364l-.006,0a17.71,17.71,0,0,0-3.79-1.661h0c-7.467-2.3-16.339-.165-21.59,1.595l-.01,0-.444.151-.011,0-.427.149h0c-.563.2-1.071.388-1.518.561l-.007,0-.315.123-.014.006-.284.113-.021.008-.261.106-.01,0-.242.1-.005,0-.412.174-.006,0-.159.069-.012.005-.127.056-.014.006-.1.044-.011.005-.072.032-.005,0-.043.02-.007,0-.011.005c-32.566-3.89-61.238,2.8-76.939,7.781v3.907q0,.568.007,1.134c0,.122,0,.243.006.365q.006.386.015.772c0,.14.007.28.011.42q.01.365.023.729.007.209.015.418.015.383.034.765c.006.122.011.244.018.366q.028.543.062,1.084c0,.011,0,.023,0,.035q.035.559.078,1.116c.009.119.019.238.028.357q.03.381.063.761.018.207.037.415.033.357.068.714.021.207.042.414.039.373.08.745c.014.122.027.244.041.366q.059.508.122,1.013l.011.088q.07.547.146,1.092c.016.117.034.233.05.35q.053.374.109.746.031.205.063.41.054.347.11.693.034.207.068.414.06.36.124.719c.022.123.043.247.065.37q.086.475.176.95c.008.043.016.086.024.129q.1.534.211,1.065c.024.117.049.234.073.351q.075.362.152.722.044.2.09.409.074.335.15.669.047.207.1.414.081.345.164.689c.03.125.06.25.09.375q.109.442.221.882c.015.057.029.115.043.172q.134.519.273,1.036c.031.117.064.234.1.351q.1.348.193.695.058.206.117.41.092.321.187.641.061.208.123.415.1.328.2.655c.039.128.078.256.118.383q.127.406.257.81c.024.073.046.146.07.218q.163.5.332,1c.041.121.083.241.124.361.075.219.15.438.227.656q.073.208.147.415.108.3.217.6c.051.141.1.281.154.421q.113.307.228.612c.05.132.1.264.149.4q.14.368.284.734c.034.088.068.176.1.263q.191.483.386.963c.05.124.1.246.153.37q.127.309.257.617.088.21.178.419.121.283.243.566.093.214.187.428.125.284.253.568c.061.136.122.273.183.408q.15.329.3.656c.048.1.095.207.143.31q.216.462.437.921c.062.129.125.257.188.386q.138.284.277.567.106.214.213.427.131.263.264.524.11.217.221.433.135.262.272.524c.073.139.146.279.22.418.1.195.208.389.312.583.063.117.125.234.188.35q.239.44.483.877c.075.135.152.269.227.4q.145.258.292.515.124.217.25.434.139.24.279.479l.26.441q.141.237.283.473c.087.144.174.289.261.432.1.168.206.336.31.5.092.148.183.3.276.444q.244.39.492.778c.091.141.182.282.273.423s.2.305.3.457.195.3.293.443.191.288.287.431.2.3.3.447.192.281.289.422.2.3.307.445.2.283.3.425q.235.334.472.665c.131.183.262.366.394.547.107.148.216.294.325.441s.2.266.295.4q.167.225.336.448l.292.385.345.45.289.373c.118.151.235.3.353.452l.286.36q.406.51.819,1.014l.141.173c.127.154.255.308.383.461q.141.17.283.339c.127.152.256.3.384.453l.288.336q.195.227.391.452l.286.327q.2.228.4.455l.268.3q.742.826,1.5,1.633l.262.278q.217.228.436.455l.279.29.44.451.276.28q.226.229.454.456l.244.24q.822.813,1.663,1.6l.236.222q.243.227.487.451l.269.248q.243.223.488.444l.265.238q.252.226.5.45l.219.192q.9.793,1.826,1.563l.2.168q.27.224.541.445l.253.206q.267.217.537.432l.254.2q.277.22.555.438l.191.148q.984.766,1.989,1.505l.163.12q.295.216.592.43l.24.173q.291.208.584.415l.238.167q.3.211.6.421l.17.117q1.061.727,2.142,1.428l.123.079q.32.207.643.41l.223.141q.313.2.628.392l.228.14q.324.2.648.4l.151.09q1.132.681,2.285,1.331l.088.05q.343.192.687.382l.211.116q.333.182.667.362l.22.118q.343.184.687.364l.14.073q1.2.625,2.415,1.217l.053.026q.363.176.729.349l.2.1q.351.165.7.328l.215.1q.36.165.722.328l.133.059q1.257.561,2.533,1.087l.022.009q.38.157.762.309l.2.08q.364.145.73.287l.217.084q.374.145.749.286l.135.05q1.695.636,3.42,1.207l.2.066q.375.124.752.244l.224.071q.383.122.767.24l.15.046q1.339.41,2.695.781h0q1.457.4,2.933.75l.167.04q.689.164,1.381.317l.068.015q1.466.323,2.949.6h0l.222.041q.649.12,1.3.231h.009l.164.028q1.462.246,2.939.447h0l.3.039h.007q.6.08,1.208.153h0l.275.033h0q1.454.17,2.921.3l.375.031h0q.562.045,1.126.085l.371.026h0c.486.032.974.061,1.462.086h0l.036,0h0q.7.035,1.407.059h0l.428.013q.539.017,1.079.027h0l.427.008h0q.73.011,1.463.012.673,0,1.343-.01l.348-.005h0q.61-.011,1.218-.028l.132,0q.661-.021,1.32-.052h0l.346-.017h0q.564-.027,1.126-.062h0l.218-.013h0q.648-.041,1.294-.091h0l.347-.028q.532-.043,1.062-.091l.291-.026q.635-.06,1.268-.129h0l.342-.038h0q.508-.057,1.013-.119h0l.341-.042q.622-.079,1.241-.165l.344-.05q.485-.07.968-.145h0l.387-.06q.606-.1,1.209-.2l.343-.06q.468-.083.935-.17l.429-.081q.589-.113,1.176-.232l.34-.071q.453-.094.905-.193l.466-.1h0q.494-.111.987-.226h0l.486-.116h0q.44-.106.879-.216l.5-.128q.408-.1.814-.213l.008,0h0l.606-.164q.429-.117.856-.238h0l.537-.154h0q.351-.1.7-.207h0l.666-.2h0l.015,0q.418-.128.834-.26l.575-.185.612-.2q.332-.11.663-.222.439-.15.876-.3h0q.306-.107.611-.218l.527-.191h.006l.619-.228q.466-.174.929-.353c.218-.084.436-.17.654-.256l.45-.179h.006c.222-.089.444-.178.665-.269l.31-.129q.637-.263,1.27-.536l.381-.165h0q.352-.153.7-.309h0l.215-.1.008,0h0q.686-.308,1.365-.627l.3-.14q.369-.174.735-.351l.171-.083,0,0h0q.721-.35,1.435-.712h0l.2-.1h0q.381-.194.761-.392h0l.133-.07.008,0,0,0q.763-.4,1.519-.813l.087-.047h0q.393-.216.784-.435l.117-.066q.6-.337,1.192-.682l0,0q.593-.346,1.181-.7l.094-.057q.594-.358,1.182-.725h0q.588-.366,1.169-.74h0l.064-.041h0q1.177-.759,2.33-1.552h0l.041-.028,0,0h0q1.165-.8,2.3-1.638l.023-.017a95.2,95.2,0,0,0,7.581-6.187l.082-.074q1.412-1.282,2.772-2.619l.127-.125q.633-.625,1.254-1.261l.084-.086q.663-.681,1.312-1.375l.079-.085q.579-.621,1.147-1.253l.224-.249q1.205-1.349,2.359-2.742l.26-.317q.472-.575.935-1.158c.071-.09.144-.179.215-.269q.547-.694,1.082-1.4c.073-.1.145-.193.217-.289q.432-.574.855-1.154l.285-.392q.516-.715,1.02-1.438v0q.187-.267.372-.538c.035-.052.071-.1.108-.156.131-.194.262-.387.392-.58.239-.357.474-.713.708-1.073.084-.126.167-.252.247-.38.1-.161.209-.325.311-.488q.419-.651.819-1.312.2-.33.4-.661a93.531,93.531,0,0,0,5.477-10.546q.8-1.8,1.52-3.641,1.095-2.792,2.018-5.671.181-.57.358-1.143c.166-.547.33-1.095.486-1.647a93.8,93.8,0,0,0,2.608-12.021q.346-2.3.577-4.643c.052-.511.1-1.024.14-1.539q.315-3.761.328-7.6c0-.115,0-.229,0-.343v-2.235c-10.393-10-19.487-18.172-24.183-22.352" transform="translate(0 -1163.131)" fill="#536e32"/>
            </g>
          </g>
        </g>
        <path id="Trazado_202789" data-name="Trazado 202789" d="M185.166,980.334a50.906,50.906,0,0,0-3.2-5.812,3.913,3.913,0,0,0-1.87-1.258l-.661-2.467c.071-.015.126-.088.175-.185l1.672,2.072.737-.873.693,2.149,1.039,1.022-.057-2.19a4.719,4.719,0,0,1,.93,1.583,2.084,2.084,0,0,0,1.428,1.27l-1.364-3.732,0,0,.923,1.569c1.189,1.838,1.927.962,1.927.962l-.841-2.956a20.251,20.251,0,0,0-4.137-3.007c-1.15-.488-4.162-5.276-5.921-8.205a15.981,15.981,0,0,0-.316-3.377c.772.533,1.929,1.535,1.942,2.783.02,1.877,2.992.526,2.992.526l-1.216-2.8s1.54.72,2.121,1.09a2.5,2.5,0,0,0,1.34.318s-2.366-3.128-3.328-3.473c-.722-.259-3.851-6.167-5.363-9.08l-.674-3.256-.915-5.7a19.039,19.039,0,0,0-.807,5.265c.178,1.909-1.894,7.292-1.894,7.292s-2.316,3.451-3.572,3.811-2.464,2.637-2.464,2.637-1.1,1.448-1.742,1.218-1.234,1.182.151.811a13.914,13.914,0,0,0,1.867-.619.5.5,0,0,0,.042.124l-1.226,2.368s.758-.05,1.615-1.207,1.347-1.739,1.347-1.739l-.671,3.338a1.638,1.638,0,0,0,1.364-1.187,25.277,25.277,0,0,1,1.191-2.825l.706,2.691,2.222-.405a5.2,5.2,0,0,1-.177,1.055s-4.42,5.237-5.923,5.891l-3.379,1.6-2.188,3.441s-.089,1.377.9.489l1.1-1.443c-.079.148-1.663,3.12-.807,2.793.876-.336,1.717-2.038,1.717-2.038l1.251-.632-.034.108a1.168,1.168,0,0,0-.087.282l-.928,2.97a3.084,3.084,0,0,0,1.727-1.764,3.87,3.87,0,0,1,1.093-1.72l.4.523-.817,2.519c.044-.051.755-.895,1.345-1.734.222-.313,1.017-.414,1.939-.414-.446.932-1.266,1.858-1.224,3.382-.53-.219-.567,1.031-1.43,1.091,0,0-4.382,1.944-5.111,3.093a2.581,2.581,0,0,0-2.412-.109c-1.249.634-.334,1.668.424,1.616l-1.482,1.473s-2.8,4.305-.789,3.619l1.458-2.294s-.452,1.949.656.778l1.458-2.294-.536,3.6a2.125,2.125,0,0,0,.969-1.712l.826-2.252s-.128,4.672.217,3.276.8-3.073.8-3.073.192,2.457.809,1.865.328-1.943.328-1.943l1.11-1.172.96,2.677a9.137,9.137,0,0,1,.945-2.534,1.593,1.593,0,0,1,1-.615l.316.627-.091.437c-1.446.688-1.921,3.032-1.921,3.032l.03.584a29.352,29.352,0,0,0-8.4,5.161,25.648,25.648,0,0,0-3.045,4.6s-1.45,2.568-.565,2.507S155,994.5,155,994.5l1.355-1.463-.91,3.9s1.586-2.3,1.683-3.4a2.5,2.5,0,0,1,1.219-1.731l-.139,4.124a9.764,9.764,0,0,0,.847-1.43c.6-1.14.55-3.054.93-3.081a5.444,5.444,0,0,0,1.377-.642l-.309,2.038a.411.411,0,0,0-.264.2,4.387,4.387,0,0,1-1.386,1.467,13.572,13.572,0,0,1-.767,1.628c.447-.811-2.109,1.152-2.245,2.965-.074.969-.388-.247-1.624.935,0,0-.179.249-.38.582a10.684,10.684,0,0,0-1.888-.627,5.224,5.224,0,0,0,.9-.121c1.274-.277-1.009-.518-2.34-.629a1.649,1.649,0,0,0,.586-.307.449.449,0,0,0,.1-.1,1.184,1.184,0,0,1,.272-.016c.578.049.241-.285-.6-.268a11.622,11.622,0,0,0-2.112-.059l.614-.166c2.2.018,2.269-.428,1.1-.649a5.11,5.11,0,0,0-1.425-.051,2.521,2.521,0,0,0-.3-.2.726.726,0,0,0,.077-.7c-.159-.482-.617-.129-.984.269l-.085-.035-.383-.009a.98.98,0,0,0,.576-.694.292.292,0,0,0-.038-.308c.364-.077.575-.249.447-.579-.534-1.376-2.559-.533-2.559-.533s-3.955-.954-2.164.417a6.712,6.712,0,0,0,1.068.705c-.135.024-.284.053-.43.086-1.578-1.036-2.293.541-1.851.5a4.38,4.38,0,0,1,1.692.692l-.225.061a2.213,2.213,0,0,0-.569.166c-.816.253-1.445.531-.7.627.054.007.106.016.158.025a.539.539,0,0,0,0,.151c.04.476.466.327.843.093.183.066.35.126.5.163l-.364.7c-.5.13-.624.252-.186.356l-.038.074-.108.86-.769.07s-2.154.527-1.81,2.141,2.193-.09,2.193-.09c-1.321,1.783-.707,1.454.015,1.08l-1.3.956-.637,2.03c-.01-.055-.018-.109-.028-.163-.02-.118-.039-.235-.059-.352,0-.02-.007-.04-.008-.059-.007-.035-.012-.069-.018-.1-.03-.192-.06-.38-.089-.563a.3.3,0,0,1-.007-.039c-.057-.358-.108-.7-.153-1.019-.114-.807-.187-1.449-.192-1.764l.193-.512-.038-.009c.168-.355.323-.883-.456-3.072a9.092,9.092,0,0,0-.845-1.788l.064-.006c.21.274.459.5.665.406.455-.207,1.046-1.577-.838-1.568,0,0,1.667-.73,2.006-.432s-.485-1.107-1.932-.563c-1.307.492-.845.687-.743.72a6.364,6.364,0,0,0-2.361-.27c-.587.1-1.783,1.233.472.944s1.409-.047,1.409-.047-1.467.3-1.738.817c-.141.27.279.4.786.4a.413.413,0,0,0-.043.031,2.342,2.342,0,0,0-.508,1.212l-.019-.013.017.026c-.043.226-.06.391-.06.391l-.044.015c-.044-.02-.1-.043-.158-.068a.694.694,0,0,0-.185-.158,1.794,1.794,0,0,0-.3-.153.72.72,0,0,1,.293-.028l-.435-.257a5.511,5.511,0,0,0-1.221-1.193c2.9.03.983-.594-.573-1.005a5.208,5.208,0,0,0,.9-.121c1.274-.276-1.009-.518-2.34-.629a1.652,1.652,0,0,0,.586-.307.446.446,0,0,0,.1-.1,1.184,1.184,0,0,1,.272-.016c.578.049.241-.285-.6-.268a11.638,11.638,0,0,0-2.112-.059l.614-.166c2.2.018,2.269-.428,1.1-.649a5.105,5.105,0,0,0-1.425-.051,2.567,2.567,0,0,0-.3-.2.726.726,0,0,0,.077-.7c-.159-.482-.617-.129-.984.269l-.085-.035-.383-.009a.98.98,0,0,0,.576-.694c.043-.149.024-.248-.038-.308.364-.077.575-.249.447-.579-.534-1.376-2.559-.533-2.559-.533l-.15-.035.023,0c1.473-.32-1.166-.6-2.705-.727a1.907,1.907,0,0,0,.677-.355.525.525,0,0,0,.113-.116,1.363,1.363,0,0,1,.314-.018c.669.056.278-.332-.7-.311a13.484,13.484,0,0,0-2.437-.067l.709-.192c2.545.021,2.623-.494,1.27-.75a5.9,5.9,0,0,0-1.647-.059,2.9,2.9,0,0,0-.35-.226.838.838,0,0,0,.09-.809c-.184-.557-.713-.149-1.138.311l-.1-.04-.437-.011a1.138,1.138,0,0,0,.66-.8c.05-.173.028-.286-.044-.356.421-.089.665-.287.517-.669-.617-1.591-2.958-.616-2.958-.616s-4.571-1.1-2.5.482a7.734,7.734,0,0,0,1.235.815c-.157.028-.328.061-.5.1-1.824-1.2-2.651.625-2.139.578a5.065,5.065,0,0,1,1.956.8l-.259.071a2.547,2.547,0,0,0-.658.192c-.943.293-1.671.613-.814.725.062.008.123.018.183.029a.621.621,0,0,0,0,.175c.046.551.538.378.975.108.212.076.4.146.579.189l-.421.807c-.574.15-.721.291-.215.412l-.044.085-.125.994-.889.081s-2.2.541-2.133,2.16c-.075.1-.151.214-.228.336l-.056-.019h0c0-.035,0-.067,0-.1h0l.222-.592-.044-.01c.2-.412.372-1.023-.526-3.552a10.41,10.41,0,0,0-.977-2.066l.074-.007c.243.316.531.577.77.469.525-.239,1.209-1.823-.969-1.812,0,0,1.927-.844,2.319-.5s-.561-1.28-2.233-.651c-1.51.568-.976.794-.859.832a7.356,7.356,0,0,0-2.729-.312c-.678.122-2.061,1.425.545,1.091s1.629-.054,1.629-.054-1.7.346-2.009.945c-.163.311.322.46.909.458a.464.464,0,0,0-.05.035,2.711,2.711,0,0,0-.588,1.4l-.022-.015.019.03c-.049.261-.07.451-.07.451l-.051.017a6.058,6.058,0,0,0-.987-.346,1,1,0,0,1,.58-.123l-1.087-.643a1.716,1.716,0,0,0-1.732.2,2.206,2.206,0,0,0-1.355-.2s1.238-1.129,1.838-1.183-1.04-2.314-3.071.916c0,0-3.86-1.295-3.274-.08s1.854.464,1.854.464l-.889.97s-1.718-1.746-1.874-.716a.883.883,0,0,0,.879,1.051,6.48,6.48,0,0,0-2.576.372c-1.289.5-1.128.991,1.374.508l.731.06s-3.592.458-2.579,1a1.886,1.886,0,0,0,.723.226c-1.5.407-4.043,1.161-2.541,1.208a6.035,6.035,0,0,0,1.049-.052c-1.693.8-3.753,1.911-.463,1.267,0,0-2.892,3.055.367,1.488l.8-.579s-2.966,2.174-.235,1.542l.856-1.346s-.71,3.784.7,2.6a4.467,4.467,0,0,0,.677-1.471l.055.011c.076.461.366,1.971.807,1.064a1.82,1.82,0,0,1,.774-.929c.075,0,.149.007.223.009a4.946,4.946,0,0,0-.042,1.386c-1.186.493-.714.693-.6.73a7.382,7.382,0,0,0-2.73-.312c-.6.109-1.734,1.126-.234,1.146-.087.116.01.339.271.634-.667-.154-2.107-.4-2.707.148-.8.728-.221,1.02,1.322.946l1.506-.871c-.118.268.255.41.75.434a2.514,2.514,0,0,0,.889.221,2.079,2.079,0,0,0-.072-.279,1.754,1.754,0,0,0,.808-.327,1.993,1.993,0,0,0,.641-.881l.028,0a6.267,6.267,0,0,0,.347.588,1.063,1.063,0,0,0-.358.2,3.406,3.406,0,0,0-.565.682l-3.637.087,3.526.114c-.03.06-.056.117-.076.169-.469.076-2.282.422-2.683,1.286-.226.487-.187.743.074.8-.266.776.375.759,1.659.115l1.226-1.634s-.3.04-.7.135l.363-.485c-.026.174.054.192.188-.064a1.406,1.406,0,0,1,.242-.309h0l.2.943c-.116.331-.067.519.125.577l.115.532.908.713c-.107.013-.22.03-.335.05.011-.02.022-.039.031-.058,0,0-3.023.753-3.3,1.732-.11.381.3.351.869.115-.013.023-.026.046-.037.07a1.264,1.264,0,0,0-.145.517c-.65.236-.974.438-.271.46a5.233,5.233,0,0,0,.908-.045c-1.465.688-3.247,1.653-.4,1.1,0,0-2.5,2.643.317,1.287l.692-.5s-2.566,1.881-.2,1.333l.74-1.164s-.614,3.273.608,2.249a3.872,3.872,0,0,0,.586-1.272l.047.01c.066.4.317,1.7.7.921a1.575,1.575,0,0,1,.67-.8l.193.008a4.282,4.282,0,0,0-.037,1.2c-1.027.426-.617.6-.521.631a6.383,6.383,0,0,0-2.362-.27c-.516.094-1.5.974-.2.991-.075.1.009.293.234.548-.578-.133-1.823-.347-2.342.128-.688.629-.191.883,1.144.819l1.3-.754c-.1.232.221.355.649.375a2.171,2.171,0,0,0,.769.192,1.793,1.793,0,0,0-.063-.242,1.519,1.519,0,0,0,.7-.283,1.725,1.725,0,0,0,.554-.762l.024,0a5.327,5.327,0,0,0,.3.508.919.919,0,0,0-.31.17,2.94,2.94,0,0,0-.488.59l-3.147.075,3.05.1c-.026.052-.049.1-.066.146-.406.066-1.974.365-2.321,1.113-.2.421-.162.643.064.689-.23.671.325.656,1.435.1l1.061-1.413s-.257.034-.606.117l.314-.42c-.023.15.047.166.162-.055a1.24,1.24,0,0,1,.211-.267h0l.176.816c-.1.287-.057.449.108.5l.1.46,2.438,1.917,3.293,2.024c.742.906,1.735,2.184,1.9,2.463.246.416,1.974,3.548,1.621,4.351a1.042,1.042,0,0,0,.284,1.208l-8.4,8.14a2.225,2.225,0,0,0-.85-.169,2.225,2.225,0,0,1-2.238-2.259,2.173,2.173,0,0,1,.947-1.8l1.764-1.251a2.235,2.235,0,0,0,.572-3.054l-9.909-15.013-2.859-4.685a17.256,17.256,0,0,0-14.727-8.264H69.053a13.685,13.685,0,0,1-2.941-.321,3.782,3.782,0,0,0-.758-.767s-.137-3.693,0-4.171a17.964,17.964,0,0,0,.205-2.257l.718-1.436v-2.188h.342l.65-6.394c5.026,1.641,1.368-4.137,1.368-4.137l-.034-4.889-1.3-2.052a1.5,1.5,0,0,0,1.949-.479c.992-2.667-1.06-10.428-1.06-10.428l1.06.205c.786-.308-.034-2.53-.034-2.53,2.359.171,1.5-1.47,1.5-1.47h.308L71,956.651h.46a.212.212,0,0,0,.194-.3l-.415-.933c.615-4.855-5.368-4.411-5.368-4.411a1.259,1.259,0,0,1-1.231,1.163,6.2,6.2,0,0,0,.445,3.693,1.715,1.715,0,0,0-1.829,1.009l-.547-.068-.171.65-.855.137v.786l-.581-.034v-.308a46.2,46.2,0,0,1-4.069-2.872c-1.06-.957-1.47.137-1.47.137-5.573,1.4-3.658,3.59-3.658,3.59l.41,1.675.205,5.984c-1.026,1.539.342,5.231.342,5.231l-.068,5.266h1.231l-.205-3.59.445.752.787,1.641-.1-1.3,1.641,1.436,1.71.171-.684,1.162,1.573.41-.376.547.239,4.069c2.017,1.812,2.086,5.813,2.086,5.813l-2.445,2-3.643,4H41.073a2.237,2.237,0,0,1-1.625-.7l-2.22-2.35.146-5.515.1-3.559.283-1.41,1.168-2.514s1.061-.187,1.944-.449,1.339-.98,1.8-1.113c.335-.1.909-.828,1.2-1.226.011.275.073,1.128.425,1.366.225.152.344.132.371-.03.011.1.035.13.086.025.067-.138.146-.286.217-.444.386.062.417-.121.166-.483a1.515,1.515,0,0,0,.03-.22.461.461,0,0,0,.125-.027c.417-.163.3-.364-.227-.574-.015-.035-.033-.07-.051-.105.3.16.7.3.548-.147a.51.51,0,0,0-.828-.285l-.372-.327s-.551-1.093-.95-1.056a.747.747,0,0,0-.306.176c-.034-.093-.079-.2-.14-.327l-.878-.218h0c.048,0,2.1-.139,1.445-.554a.955.955,0,0,0-.241-.11c.152-.174-.672-.785-.672-.785,1.588.017.539-.326-.315-.551a2.848,2.848,0,0,0,.492-.067c.7-.152-.553-.284-1.283-.345a.906.906,0,0,0,.321-.169.253.253,0,0,0,.053-.054.661.661,0,0,1,.15-.01c.317.027.132-.157-.328-.147a6.376,6.376,0,0,0-1.158-.032l.337-.091c1.207.01,1.244-.235.6-.356a2.808,2.808,0,0,0-.781-.028,1.378,1.378,0,0,0-.166-.107.4.4,0,0,0,.043-.384c-.087-.264-.338-.071-.54.148l-.047-.019-.21-.005a.537.537,0,0,0,.316-.38c.024-.083.013-.136-.021-.169.2-.042.316-.136.246-.317-.293-.755-1.4-.292-1.4-.292s-2.168-.523-1.187.229a3.618,3.618,0,0,0,.587.387c-.075.013-.156.029-.237.047-.865-.568-1.257.3-1.015.275a2.4,2.4,0,0,1,.928.379l-.123.034a1.192,1.192,0,0,0-.306.089c-.45.139-.8.292-.392.346l.087.014a.3.3,0,0,0,0,.083c.022.261.255.179.462.051.1.036.192.069.275.09l-.2.383c-.272.071-.342.138-.1.2l-.021.041-.06.472-.422.038s-1.181.289-.993,1.174,1.2-.05,1.2-.05c-.724.978-.388.8.008.592l-.713.525-.35,1.114a22.161,22.161,0,0,1-.3-2.228l.106-.281-.021,0c.093-.195.176-.484-.25-1.685a4.9,4.9,0,0,0-.464-.98l.036,0c.116.15.252.274.365.222.249-.113.574-.865-.459-.86,0,0,.914-.4,1.1-.237s-.266-.607-1.059-.309c-.731.275-.453.38-.4.4a3.5,3.5,0,0,0-1.3-.149c-.322.058-.977.676.259.518s.773-.026.773-.026-.8.164-.953.448c-.077.148.153.218.432.217a.186.186,0,0,0-.024.017,1.284,1.284,0,0,0-.279.665l-.011-.007.009.014c-.023.124-.033.214-.033.214l-.025.008a2.871,2.871,0,0,0-.469-.164.476.476,0,0,1,.276-.059l-.516-.305a.807.807,0,0,0-.819.1,1.041,1.041,0,0,0-.645-.1s.587-.535.872-.561-.493-1.1-1.457.434c0,0-1.831-.614-1.553-.038s.88.22.88.22l-.422.46s-.815-.828-.889-.34a.419.419,0,0,0,.417.5,3.109,3.109,0,0,0-.467.008,7.062,7.062,0,0,0-.608-1.143L30,965.972s1.5-.265,2.75-.635,1.895-1.387,2.549-1.574c.474-.136,1.286-1.171,1.7-1.734.016.393.1,1.6.6,1.932.318.216.487.187.524-.042.015.144.05.183.122.036.095-.2.207-.405.307-.628.546.087.591-.172.234-.684a2.173,2.173,0,0,0,.043-.311.658.658,0,0,0,.177-.038c.59-.231.42-.515-.321-.812-.021-.049-.046-.1-.071-.149.429.227.984.424.775-.208a.721.721,0,0,0-1.171-.4l-.526-.462s-.78-1.546-1.345-1.495a1.06,1.06,0,0,0-.433.249,5.015,5.015,0,0,0-.2-.463l-1.242-.309h0c.068,0,2.977-.2,2.044-.784a1.354,1.354,0,0,0-.342-.155c.215-.246-.951-1.11-.951-1.11,2.246.024.763-.461-.444-.78a4.055,4.055,0,0,0,.7-.094c.989-.215-.783-.4-1.816-.488a1.286,1.286,0,0,0,.455-.238.351.351,0,0,0,.075-.077.931.931,0,0,1,.212-.014c.448.038.187-.221-.464-.208a9.026,9.026,0,0,0-1.638-.046l.476-.129c1.708.014,1.76-.332.852-.5a3.964,3.964,0,0,0-1.105-.039,2,2,0,0,0-.235-.152.562.562,0,0,0,.06-.543c-.123-.374-.478-.1-.764.209l-.066-.027-.3-.007a.76.76,0,0,0,.447-.538c.034-.116.019-.193-.03-.24.282-.06.447-.193.348-.448-.414-1.068-1.985-.413-1.985-.413s-3.068-.74-1.679.324a5.214,5.214,0,0,0,.829.547c-.105.019-.22.041-.334.067-1.224-.8-1.779.419-1.436.388a3.4,3.4,0,0,1,1.313.537l-.175.047a1.7,1.7,0,0,0-.433.126c-.637.2-1.132.414-.554.489.042.005.083.012.123.02a.436.436,0,0,0,0,.118c.031.369.361.253.654.072.142.051.272.1.389.127l-.283.542c-.385.1-.484.2-.144.276l-.03.057-.084.667-.6.055s-1.671.409-1.4,1.662,1.7-.07,1.7-.07c-1.025,1.383-.549,1.128.011.838l-1.008.742-.43,1.37-.126-.156a27.852,27.852,0,0,1-.369-2.789l.149-.4-.029-.007c.131-.276.249-.685-.354-2.384a6.917,6.917,0,0,0-.657-1.387l.051,0c.163.212.356.387.516.314a.686.686,0,0,0,.3-.349c.659.607,1.2-.338.631-.873a3.464,3.464,0,0,1-.327-.379.426.426,0,0,1,.3.05c.183.161-.071-.317-.62-.481-.967-1.37-2.416-3.807-2.416-3.807a50.989,50.989,0,0,0-2.2-5.183A2.734,2.734,0,0,0,20,941.459l-.454-2.2c.047-.012.084-.072.118-.16l1.152,1.848.5-.779.478,1.915.716.912-.04-1.954a4.605,4.605,0,0,1,.639,1.414,1.576,1.576,0,0,0,.984,1.135l-.945-3.34.641,1.409c.819,1.64,1.327.861,1.327.861l-.579-2.637a14.889,14.889,0,0,0-2.846-2.687c-.79-.43-2.864-4.7-4.073-7.312a18.371,18.371,0,0,0-.217-3.007,3.562,3.562,0,0,1,1.337,2.479c.015,1.665,2.06.469,2.06.469l-.837-2.494s1.058.641,1.456.965a1.385,1.385,0,0,0,.92.289s-1.626-2.793-2.285-3.1c-.5-.234-2.65-5.5-3.69-8.1l-.464-2.9-.627-5.077a21.617,21.617,0,0,0-.558,4.692c.124,1.705-1.3,6.508-1.3,6.508s-1.589,3.072-2.457,3.4-1.693,2.346-1.693,2.346-.757,1.293-1.2,1.09-.847,1.049.1.723a7.107,7.107,0,0,0,1.382-.612l-.912,2.282s.525-.049,1.108-1.076.93-1.551.93-1.551l-.462,2.972s.7-.062.937-1.058a25.891,25.891,0,0,1,.822-2.519l.484,2.4,1.529-.363a6.006,6.006,0,0,1-.121.945s-3.041,4.67-4.076,5.25l-2.323,1.429-1.507,3.066s-.06,1.229.619.439l.758-1.29c-.055.131-1.149,2.782-.557,2.5.6-.3,1.182-1.818,1.182-1.818l.859-.567L8.1,941.582a2.435,2.435,0,0,0,1.189-1.569,3.577,3.577,0,0,1,.752-1.535l.272.466-.565,2.248s.508-.773.925-1.547c.156-.284.7-.37,1.337-.37a7.054,7.054,0,0,0-.843,3.019c-.365-.2-.39.915-.982.969,0,0-3.014,1.737-3.515,2.758a1.447,1.447,0,0,0-1.66-.1.765.765,0,0,0,.291,1.446l-1.021,1.31s-1.922,3.841-.54,3.232l1-2.048c-.015.093-.289,1.709.452.693l1-2.048-.368,3.212a2.006,2.006,0,0,0,.666-1.525l.567-2.006s-.087,4.164.148,2.918c.133-.693.291-1.468.4-2.016h.222c.079.584.229,1.26.486.942a2.785,2.785,0,0,0,.225-1.732l.762-1.046.661,2.391a9.73,9.73,0,0,1,.652-2.264c.335-.521.683-.55.683-.55l.22.558-.066.414c-.989.619-1.322,2.679-1.322,2.679l.022.525a20.431,20.431,0,0,0-5.777,4.6,8.1,8.1,0,0,0-.729,1.167c-.423-.082-.812-.091-.673.2a.52.52,0,0,0,.4.323l-.1.209c-.241-.213-.677-.543-.73-.192a.419.419,0,0,0,.417.5,3.079,3.079,0,0,0-1.222.177c-.612.237-.535.47.652.241l.347.028s-1.7.217-1.223.474a.9.9,0,0,0,.343.107c-.709.193-1.918.551-1.205.573a2.9,2.9,0,0,0,.5-.025c-.8.377-1.781.907-.22.6,0,0-1.372,1.449.174.706l.379-.275s-1.407,1.031-.111.731l.406-.638a4.478,4.478,0,0,0-.074,1.039c-.021.241.025.4.191.387.273-.023.47-.336.6-.674.062.277.181.624.341.293a.865.865,0,0,1,.367-.441l.094,0-.127.711c-.416.2-.208.28-.164.294a3.509,3.509,0,0,0-1.3-.149c-.283.051-.822.534-.111.543-.041.055,0,.161.129.3-.316-.073-1-.19-1.284.07-.377.345-.1.484.627.449l.716-.414c-.056.127.119.194.353.206a1.191,1.191,0,0,0,.424.106.994.994,0,0,0-.034-.133.833.833,0,0,0,.383-.155.938.938,0,0,0,.3-.418l.014,0a2.873,2.873,0,0,0,.165.279.512.512,0,0,0-.17.093,1.615,1.615,0,0,0-.268.324l-1.726.041,1.673.054c-.014.028-.027.056-.036.08-.222.036-1.082.2-1.273.61-.107.231-.089.353.035.378-.126.368.178.36.787.054L3,963.673s-.142.019-.332.064l.173-.23c-.012.083.025.091.089-.03a.68.68,0,0,1,.116-.147h0l.1.447c-.055.157-.032.246.059.274l.055.252.42.33c-.034.261-.106.206-.258.18a.76.76,0,0,0,.124-.175s-1.434.357-1.567.821c-.052.182.145.166.416.052-.007.012-.016.023-.021.035a.46.46,0,0,0-.063.292c-.309.661-.687,1.671.025,1.44l-.91,2.284s-1.9,5.06-1.2,4.995c.652-.056,1.108-2.249,1.164-2.521-.034.244-.252,1.969.4,2.139.7.183,1.337-2.807,1.337-2.807l.992-2.529c-.027.178-.676,4.453,0,4.149s.269-3.688,1.041-4.246a8.541,8.541,0,0,0,1.6-1.833l.009.011c-.05.389-.5,3.867-.105,2.908.168-.413.414-1.28.676-2.166.05.068.086.122.1.152.134.228,1.082,1.946.889,2.385-.127.288-.007.554.328.817a5.41,5.41,0,0,0-.711.594,8.646,8.646,0,0,0-.469,1.509,5.593,5.593,0,0,0-.326.979,3.557,3.557,0,0,0-2.077,1.467l-1.593,3.647L2.1,981.463s-.3,1.049-.429,1.855L0,983.607v2.733A94.806,94.806,0,0,0,64.6,1076.2q.376.126.754.25l.388.125.645.2.4.124.669.2.36.108q.433.128.867.252l.159.046q.52.147,1.042.289l.268.072q.391.1.784.207l.339.087q.372.094.744.187l.325.08q.427.1.855.2l.2.048q.542.125,1.086.244l.124.026q.472.1.946.2l.3.06q.4.08.8.158l.319.061q.416.079.833.154l.254.046q1.093.194,2.195.364l.274.041q.412.062.826.121l.333.046q.4.055.8.107l.312.04q.492.062.986.119l.113.013q.559.064,1.119.121l.253.025q.426.042.853.081l.358.031q.386.033.773.064l.363.028q.422.031.846.059l.272.018q.559.035,1.119.064l.2.009q.458.023.918.041l.373.014q.38.013.76.024l.4.01q.39.009.78.015l.353.005q.562.007,1.126.007c.553,0,1.1-.006,1.656-.016l.395-.007c.541-.011,1.081-.026,1.62-.047l.208-.009q.724-.029,1.444-.07l.414-.023q.783-.047,1.563-.106l.347-.028q.663-.053,1.324-.115l.4-.037.186-.017q.677-.068,1.352-.146l.4-.048q.631-.075,1.26-.158l.407-.054q.728-.1,1.451-.211l.551-.087q.536-.085,1.07-.177c.2-.034.4-.067.6-.1q.631-.112,1.259-.232l.649-.127.284-.055v0a94.247,94.247,0,0,0,34.837-14.78,95.271,95.271,0,0,0,24.222-24.128c.125-.178.249-.358.372-.538.035-.052.07-.1.108-.156.131-.193.262-.387.392-.58.239-.356.474-.713.708-1.073.03-.045.058-.09.087-.135l.084-.13c.025-.039.051-.077.075-.116.1-.161.209-.325.311-.488.06-.094.118-.19.177-.284q.218-.346.434-.695c.069-.111.14-.222.208-.333q.2-.33.4-.661a94.042,94.042,0,0,0,5.477-10.55v0c.086-.194.168-.392.252-.587.144-.33.287-.661.427-.993.115-.274.227-.55.34-.825.071-.173.144-.344.214-.518h0c.1-.24.2-.477.291-.718-.293-1.221-.531-2.139-.531-2.139l-1-3.636c.992.343.76-3.649-.1-5.237-.148-.274-.313-.385-.481-.4-.071-.326-.123-.552-.123-.552a9.653,9.653,0,0,0,2.457,1.752c1.152.469.75,4.335,1.769,4.539a.136.136,0,0,0,.027,0c.321.04.4-.459.358-1.144a23.208,23.208,0,0,0-.637-3.5l1.124,1.857a93.8,93.8,0,0,0,2.608-12.021c-.681-.636-1.149-1.043-.758-.528-.393-.518-1.986-.789-1.986-.789s-.938.442-.96-.38a7.157,7.157,0,0,0-.431-1.892l-.883-.488a9.166,9.166,0,0,0-.153-2.553,1.991,1.991,0,0,1,1.169.979c1.206,2.385,1.529.306.333-1.67l2.536,2.294L187.3,993.8l1.756,2.025c.052-.511.1-1.024.14-1.539-1.456-1.382-3.1-2.874-3.1-2.874s-4.018-.957-4.632-2.558a15.989,15.989,0,0,0-.856-1.794c1.932,1.026,3.933,1.9,3.933,1.9l-2.6-2.289-3.32-2.869-1.675-2.585a10.178,10.178,0,0,1-.2-3.486c.045.236.093.464.138.685a5.464,5.464,0,0,0,.429,2.469l.758-3.187c0,.012.01.024.013.037l-.185,1.463a6.6,6.6,0,0,1,.819,2.138c.118.543.187.111.229-.59a.174.174,0,0,0,.094.047c.256.025.143-1.32-.032-2.664v-.1l.36.356.392,1.483s1.021,5.62,1.434,4.658c.01-.024.017-.054.025-.081.3.834.338-.678.32-2.1.245,1,.528,1.87.736,1.663.18-.178-.057-1.636-.41-3.343l.782.678a15.287,15.287,0,0,0,1.36,3.471c.521.513-.341-3.268-.341-3.268l1.823,1.8s1.093,2.941,1.6,2.908-.706-2.7-.706-2.7l1.577,2.083c.55.97,1.16,1.184,1.557,1.058,0-.114,0-.229,0-.343v-.89a56.1,56.1,0,0,1-4.364-5.116M99.8,1000.729a7.444,7.444,0,0,0-1.133.34,1.444,1.444,0,0,0-.462-.226c-.061-.017-.118-.031-.172-.044l.137-.015c2.6-.335,1.63-.055,1.63-.055m2.611,13.038a6.51,6.51,0,0,0-.98.294,1.249,1.249,0,0,0-.4-.2c-.053-.015-.1-.027-.149-.038l.119-.014c2.253-.29,1.411-.047,1.411-.047M42.572,971.926c.075.021.142.037.2.051-.042.01-.083.022-.122.036a4.555,4.555,0,0,0-.5-.289Zm-.352.318-.043.034a.9.9,0,0,0-.031-.116Zm-7.069-15.023c.106.029.2.052.288.072-.06.015-.118.031-.173.051a6.422,6.422,0,0,0-.708-.409Zm-.5.45c-.038.029-.061.048-.061.048a1.323,1.323,0,0,0-.044-.164Zm-31.905,4.8a3.56,3.56,0,0,0-.537.161.685.685,0,0,0-.22-.107l-.082-.021.065-.007c1.236-.159.774-.026.774-.026M5.136,961.3l.017,0-.024.017.006-.014m-.1-3.3,0,.153-.173,0a1.728,1.728,0,0,1,.177-.156m-.6.731A2.674,2.674,0,0,1,5,958.532l.024-.006-.01.366-.042,0a1.846,1.846,0,0,1-.586-.073c.016-.033.031-.067.048-.1m-.021,3.2a.928.928,0,0,0-.154-.119l.11-.02Zm-.09-.284.021.069-.086-.018.065-.051m-.95.64s.872-.38,1.085-.244l.009.02a1.642,1.642,0,0,0-.99.229c-.034,0-.067,0-.1,0m.316,2.2c0,.027,0,.052-.005.075-.15-.124-.254-.215-.254-.215l-.057-.283a1.928,1.928,0,0,0,.412-.146,2.83,2.83,0,0,0-.1.569m.383-1.321a1.765,1.765,0,0,0-.8.4l-.064-.323H3.159a4.182,4.182,0,0,1,.35-.264c.107.127.227.222.328.176a.51.51,0,0,0,.229-.3l.127.09q-.06.109-.116.223m.2-.371-.19-.1a.336.336,0,0,0-.088-.22,5.757,5.757,0,0,0,.5-.348h0l.089.2c-.1.14-.209.3-.31.468m.183-1.26a.822.822,0,0,0,.107-.119l.386-.07,0,.132a.826.826,0,0,0-.217.536c-.095-.174-.188-.336-.273-.479m.313.554-.021-.039c.019-.084-.058-.248.381-.445-.006.03.019.056.073.078a1.646,1.646,0,0,0-.434.406m.435-.183a.427.427,0,0,0,.064-.2l.025.006c-.03.07-.06.136-.089.2m.51-1.37a.09.09,0,0,1,.027-.085l-.027.085m1.107-2.5s-.03.082-.069.2c-.3.168-.363.358-.166.221a.525.525,0,0,1,.116-.056,2.791,2.791,0,0,0-.1.466,1.965,1.965,0,0,0-.381-.069l-.348.032c.033-.241.062-.466.092-.652.163.111.566-.073.748-.153l.14-.063a.278.278,0,0,0-.035.073m.23-.444c-.072-.026-.151-.051-.235-.072a.5.5,0,0,1,.251-.061Zm.017-.144-.24-.142c.16-.115.282-.213.282-.213Zm-4.438,25.72.037-.062,1-2.75.775.234-1.093,2.453Zm2.839-.491-1.039.178a19.2,19.2,0,0,0,.791-2.04l.864-.856c-.212.859-.447,1.86-.615,2.718m.723-.126-.081.013c.1-.488.175-.9.194-1.009-.015.109-.069.508-.113,1m1.419-.246-.706.123c.042-.5.064-.871.064-.871l.215-.365a7.747,7.747,0,0,0,.427,1.021ZM10,965.189q.011.055.024.126l-.054-.046.03-.08m-.451,16.765-1.06.183a7.236,7.236,0,0,1,.668-2.625c.015-.017.032-.045.049-.062a18.526,18.526,0,0,0,.344,2.5v0m.5-15.34a3.232,3.232,0,0,0-.184,1.221,2.261,2.261,0,0,1,.108.285,4.679,4.679,0,0,0-.366.783c.284-.828-.674-.551-.781,1.343a.986.986,0,0,1-.111-.38,5.682,5.682,0,0,0-.925-2.153l-.214-.809c.309-1,.616-1.854.822-1.873.435-.042-.409,5.417,1.244,1.112.092-.24.176-.46.254-.668.07.068.134.131.185.183a1.863,1.863,0,0,1-.033.956m1.135,15.057-.035.007.077-.489c-.005.052-.02.227-.042.483m.271-16.388-.13.153s-.39-.025-.458,1.053c-.047.721-.3.992-.456,1.093a10.687,10.687,0,0,1,.017-1.242l.009-1.265s-.011-.128-.126-.716a14.288,14.288,0,0,0,.477-1.45l1.238.573c.006.03.012.059.018.089-.146.4-.312.766-.365.908-.034.091-.122.4-.224.8m.278-.327.117-.493s.12-.256.254-.6c.036.176.07.353.109.529ZM12.741,981.4c.013-.118.025-.234.039-.345l.055.328Zm1.177-.2c.012-.091.024-.183.037-.279.4-2.972.508-3.9.508-3.9l.217-.13.215,4.137Zm30.755-5.116c0,.122-.006.241-.007.344a3.179,3.179,0,0,0-.117-.466,1.375,1.375,0,0,0,.124.123m-.224-.244-.535-.561c.052-.071.091-.126.116-.162a4,4,0,0,0,.419.723m-.409-.738.007-.01.05.034Zm-.4-1.18c1.1.6.235.382.235.382s-.14-.019-.323-.024l-.062-.073-.763-.311a7.977,7.977,0,0,1,.914.026m-1.459.45c.244-.019.346-.11.348-.366l.076-.078-.076.034a3.614,3.614,0,0,0-.083-.562s.631.469.73.2l.045.043a3.027,3.027,0,0,0-.574.219l-.034-.014.011.025-.052.026.063,0a4.425,4.425,0,0,0,.251.467.27.27,0,0,0-.183.346c.09.324.4.334.712.233a.488.488,0,0,0,.148.055c.306.051.395-.048.3-.266a1.8,1.8,0,0,0,.208-.148l.275-.145s-.037.247-.062.512l-.35.054s.044.033.115.083l-.009.011-.017-.007.008.017-.132.148-.019-.02s0,.016,0,.04a9.812,9.812,0,0,1-.89.891,1.6,1.6,0,0,0-.515-.831,2.171,2.171,0,0,0-.9-.275,5.124,5.124,0,0,1,1.3,1.048.49.49,0,0,0,.064.1.616.616,0,0,1-.186.108,4.809,4.809,0,0,0-1.055.773l-.782.433-1.583.314c.531-.39,1.421-1.122,1.51-1.706a6.894,6.894,0,0,1,1.344-1.763m-.8-1.745a2.171,2.171,0,0,0,.325.481c.057.1.113.2.164.285.269.457-.842.92-.091.971l.129.008a11.489,11.489,0,0,0-1.357,1.789,1.778,1.778,0,0,1-.144.225l-.246-.6.123-.6,1.334-1.567-.057-.671-.108.585a2.612,2.612,0,0,0-.073-.524c-.071-.331-.057-.426,0-.391m-1.451.989c.08.032.168.065.267.1.177.059.282.027.339-.054a1.242,1.242,0,0,1,.428.117c.3.179.161-.135-.369-.332a2.031,2.031,0,0,0-.106-.626l.167-.056a.6.6,0,0,1,.091.057.459.459,0,0,0,.154.663,1.157,1.157,0,0,0,.429.252l-1.1,1.329a1.535,1.535,0,0,0-.089,1s.048.337.066.563c-.531.572-1.344,1.063-1.463,1.265-.1.166-.58.978-.922,1.693l.6-2.506a6.6,6.6,0,0,0,.608-2,7.457,7.457,0,0,1,.358-1.747,2.032,2.032,0,0,0,.248.146c-.169.07-.3.139-.3.139s.272-.012.6-.005m-.308-5.154c-.064.02-.13.044-.2.07a1.5,1.5,0,0,0-.4-.132,5.592,5.592,0,0,0,.6.062m-.877.382h0v0m-.572,1.082a1.2,1.2,0,0,0,.74.114c-.336.046-.63.093-.857.138Zm-.263.567.013-.029c.119.016.27.031.456.045,1.444.109.087.354.087.354l-.639.058ZM35.22,968.75a2.819,2.819,0,0,0,.236.384l-.033.006a3.007,3.007,0,0,0-.229-.317.343.343,0,0,0,.025-.074m.147.407c-.137.013-.315.03-.491.053a.351.351,0,0,0,.036-.026,1.122,1.122,0,0,0,.274-.342c.063.082.139.188.213.3l-.033.011.037,0a2.13,2.13,0,0,1,.3.667.847.847,0,0,0-.057-.073.743.743,0,0,0-.831-.149,1.37,1.37,0,0,1,.549-.442m-.412,1.061c.033-.635-.057.862.5.767a.5.5,0,0,0,.416-.417,6.249,6.249,0,0,0,.249.641s-.1.072-.142.568l-1.213-.278-.124-.329c.413.173,1.237.5.707.1-.42-.319-.626-.372-.722-.366a.749.749,0,0,0,.333-.682m-1.086,1.189c.014.065.031.141.052.22a.384.384,0,0,0-.092.06c-.03.028-.057.056-.083.084a.983.983,0,0,0-.161-.129,3.637,3.637,0,0,0,.285-.234m-2.3-.262c1.4-.369.711-.425-.6-.365,0,0,1.03-.034.748-.67,0,0,.786.484.806.09.027.012.056.023.085.033a.461.461,0,0,0-.093.16c-.226.686.51.345.776.229l.14-.063a.272.272,0,0,0-.035.073s-.03.082-.069.2c-.3.168-.363.358-.166.221a.534.534,0,0,1,.116-.056,2.783,2.783,0,0,0-.1.466,1.961,1.961,0,0,0-.381-.069l-1.254.115s-1.378.006.027-.364m2,3.813a1.242,1.242,0,0,1,.037.3,8.621,8.621,0,0,0-.075,1l-.408-.589-.213-.514a6.041,6.041,0,0,0,.659-.194m-.438-.225s.158-.034.368-.086l.023.1c-.18-.017-.392-.013-.392-.013m-.129,1.034.537.754v.01a3.251,3.251,0,0,0,.355.644,1.685,1.685,0,0,0-.348.978c.077.4.361,1.232.361,1.232l.035.424-1.392-1.714a2.641,2.641,0,0,1-.454-.979l.416.006c.431.005.827.1.7-.38-.119-.453-1,.267-1.119.364a2.772,2.772,0,0,1-.077-.584,3.247,3.247,0,0,0-.317-1.1,1.357,1.357,0,0,0,.138-.176h0c.089.075.347.081.882-.044Zm-.858-1.084a2.317,2.317,0,0,0-.587.427c-.077-.158-.158-.314-.238-.463.02-.084-.058-.248.381-.445-.018.091.216.145.827.164,0,0-.2.143-.383.316m-1.49.611a.338.338,0,0,0-.088-.22,5.777,5.777,0,0,0,.5-.348h0l.33.734a.132.132,0,0,0,.024.054l.068.152s.053.16.111.365l-.044-.086-.511-.449Zm.316.4a3.9,3.9,0,0,0-.488.121c-.008-.031-.017-.065-.026-.1a.558.558,0,0,0,.175-.265Zm.33-1.079c-.095-.174-.188-.336-.273-.479a.826.826,0,0,0,.107-.119l.586-.107a.843.843,0,0,0-.42.7m-.317-.078a.938.938,0,0,0-.154-.119l.11-.02Zm-.09-.284.022.068-.086-.018.065-.05m.135.4.009.02a1.928,1.928,0,0,0-.864.144l0-.01c.274-.1.716-.245.859-.154m-.908,1.966a.433.433,0,0,0,.329.146c.123-.012.158-.171.133-.421l.45-.6.611.463c.011.041.021.083.031.125a2.053,2.053,0,0,0-.331-.313s-.34.573-.025.725a.431.431,0,0,0,.429-.016v.006a6.161,6.161,0,0,0,.787,1.853c.019.016.05.049.086.09a5.272,5.272,0,0,0-1.341-.847c-.257.023-1.28-.875-1.28-.875l-.057-.283a1.317,1.317,0,0,0,.177-.051m-.344-2.88.106,0c-.006.04-.018.12-.026.215l-.084-.217.005,0m-.256,1.8c.026.069.053.138.082.207-.028.037-.054.073-.075.108l-.253.006q.009-.089.012-.181a.592.592,0,0,0,.2-.1l.037-.036m-.046.41c-.014.028-.027.056-.036.08-.043.007-.111.019-.193.036.008-.04.013-.082.019-.123Zm-.124-.907.011.036c-.023.009-.047.016-.047.016l-.044.01c0-.02,0-.04-.005-.06.037,0,.064,0,.085,0m-.044-4.159-.137.019c0-.01,0-.02,0-.03Zm-.067,3.783-.021,0c-.014-.094-.027-.167-.034-.2.009.035.028.108.054.2M38.123,963.1c0,.173-.009.34-.009.486a4.537,4.537,0,0,0-.165-.66,1.916,1.916,0,0,0,.175.174m-.317-.346-.757-.793c.072-.1.128-.178.164-.229a5.663,5.663,0,0,0,.593,1.023m-.578-1.044.01-.015.071.048Zm-.571-1.669c1.555.845.333.54.333.54s-.2-.026-.458-.034c-.028-.034-.056-.067-.087-.1L35.364,960a11.329,11.329,0,0,1,1.292.037m-2.063.637c.345-.027.489-.156.492-.518l.107-.11-.107.049a5.091,5.091,0,0,0-.118-.795s.892.663,1.033.285c.019.02.04.04.063.061a4.285,4.285,0,0,0-.812.309l-.047-.019.016.035-.074.037.089,0a6.306,6.306,0,0,0,.354.66.383.383,0,0,0-.258.491c.128.458.565.472,1.008.329a.688.688,0,0,0,.209.078c.434.073.558-.068.424-.377a2.564,2.564,0,0,0,.295-.209l.389-.2s-.053.35-.088.724l-.5.077s.063.047.163.117l-.013.015-.024-.01.011.025-.187.21L37,961.9s0,.021,0,.057a13.889,13.889,0,0,1-1.26,1.26,2.258,2.258,0,0,0-.729-1.176,3.072,3.072,0,0,0-1.28-.39,7.248,7.248,0,0,1,1.838,1.483.681.681,0,0,0,.092.145.846.846,0,0,1-.264.151,6.815,6.815,0,0,0-1.493,1.094l-1.106.613-2.239.444c.751-.552,2.011-1.588,2.137-2.414a9.744,9.744,0,0,1,1.9-2.495m-1.132-2.47a3.06,3.06,0,0,0,.46.681c.08.139.159.28.232.4.38.646-1.191,1.3-.128,1.374l.183.011a16.288,16.288,0,0,0-1.92,2.531,2.5,2.5,0,0,1-.2.319l-.348-.842.174-.845,1.887-2.217-.08-.949-.152.828a3.706,3.706,0,0,0-.1-.741c-.1-.469-.081-.6,0-.553m-2.053,1.4c.113.045.238.091.378.138.25.083.4.038.481-.078a1.759,1.759,0,0,1,.6.167c.429.254.229-.19-.52-.47a2.887,2.887,0,0,0-.151-.886l.237-.079a.916.916,0,0,1,.128.081.649.649,0,0,0,.218.938,1.638,1.638,0,0,0,.607.356l-1.557,1.88a2.171,2.171,0,0,0-.126,1.416s.069.476.094.8c-.751.81-1.9,1.5-2.071,1.79-.139.234-.82,1.382-1.3,2.392l.842-3.542a9.341,9.341,0,0,0,.861-2.824,10.544,10.544,0,0,1,.506-2.472,2.945,2.945,0,0,0,.351.207c-.239.1-.425.2-.425.2s.383-.018.846-.007m-.435-7.291c-.09.029-.184.062-.279.1a2.106,2.106,0,0,0-.565-.187,7.893,7.893,0,0,0,.844.087m-1.241.541h0v0m-.809,1.532a1.657,1.657,0,0,0,1.041.16c-.473.065-.886.131-1.206.194Zm-.372.8.019-.041c.168.023.381.044.645.064,2.043.154.123.5.123.5l-.9.083Zm-2.444,6.3c.068.506.149,1.06.246,1.667l.265,2.189s.033.147.072.366l-1.444-1.219a9.607,9.607,0,0,1-.367-2.2,5.956,5.956,0,0,0-.143-1.355l.25.293-.03-1.466ZM23.482,957.4a1.768,1.768,0,0,0,.152-.737l.1-.06-.1.011c.008-.256,0-.483-.01-.561l.31.769,1.674.357.186.164a18.7,18.7,0,0,0,.109,2.421c-.9-1.092-1.779-2.128-1.779-2.128s-.265-.082-.643-.237m.243,2.352a1.442,1.442,0,0,0-.31-.154c-.036-.1-.075-.192-.117-.289l.091.047Zm1.937-4.451a8.891,8.891,0,0,0,.353.906s-.14.1-.2.8l-1.716-.393-.176-.466c.584.244,1.75.7,1,.135-.595-.451-.885-.526-1.022-.517a1.061,1.061,0,0,0,.471-.964c.047-.9-.08,1.22.7,1.086a.711.711,0,0,0,.588-.59m-.625-2.021c-.066-.1-.128-.193-.186-.271a.11.11,0,0,0,.029-.044,3.44,3.44,0,0,0,.2.307l-.046.009m.245-1.019.095.162a2.163,2.163,0,0,0-.413-.034s.131-.057.318-.128m-.354-.607c-.093.037-.175.072-.243.1-.154-.548-.338-1.077-.357-1.132Zm-.262,1.27c.054.069.1.107.147.1l.011,0c.058.081.119.17.179.265l-.046.015.053,0a3.021,3.021,0,0,1,.426.943,1.173,1.173,0,0,0-.081-.1,1.051,1.051,0,0,0-1.176-.211,1.938,1.938,0,0,1,.777-.625c-.194.018-.445.042-.695.076a.6.6,0,0,0,.051-.037,1.714,1.714,0,0,0,.353-.418m-8.036,27.8-.008-.432a3.055,3.055,0,0,0,.138.409Zm.288-.051c.123-.74-.138-4.046.044-4.063a18.077,18.077,0,0,1,.822,3.913Zm1.28-.222c-.062-.77-.116-1.374-.116-1.374s.217.644.5,1.307Zm-.365-31.911a11.576,11.576,0,0,1-.131-3.086c.034.2.062.41.094.6a6.15,6.15,0,0,0,.293,2.185l.521-2.84a.273.273,0,0,0,.008.035l-.125,1.3a7.013,7.013,0,0,1,.56,1.909c.082.484.133.084.158-.56.024.024.044.069.064.072.177.025.1-1.174-.02-2.376v-.094l.247.32.271,1.323s.7,5.008.985,4.151c.007-.022.008-.049.017-.073.2.728.234-.607.219-1.873.171.9.365,1.672.506,1.492a11.035,11.035,0,0,0-.283-2.987l.54.605a16.182,16.182,0,0,0,.937,3.094c.358.454-.237-2.909-.237-2.909l1.254,1.594s.273.949.566,1.7a4.506,4.506,0,0,0-1.664-.163c-.455.081-1.383.956.366.732s1.093-.036,1.093-.036-1.138.232-1.348.634c-.109.209.217.308.611.307a.28.28,0,0,0-.034.025,1.817,1.817,0,0,0-.394.94l-.015-.01.013.02c-.033.175-.047.3-.047.3l-.034.011c-.09-.04-.229-.1-.39-.152l-.12-.138a.563.563,0,0,1,.237-.025l-.535-.316-.746-.856-.245-.274a.61.61,0,0,0-.148-.166l-1.892-2.118Zm5.211,8.663-.128-.061.081-.061c.015.043.03.083.046.122m-.708,4.334.085-.031a1.75,1.75,0,0,1,.053.427c-.008.052-.018.132-.029.232l-.131-.094c.014-.163.021-.343.023-.534m-.008-.453.028.121-.024,0q0-.059,0-.119m-.071-.9c-.015-.129-.031-.257-.049-.384a1.531,1.531,0,0,1,.532.4c-.191-.014-.349-.02-.482-.02m-.419-4.2a.735.735,0,0,1,.164-.08,4.133,4.133,0,0,0-.132.614,2.791,2.791,0,0,1-.821-.895,2.015,2.015,0,0,0,.971-.252l.2-.089a.392.392,0,0,0-.05.1s-.043.116-.1.285c-.431.237-.513.507-.234.313M22.665,957a1.387,1.387,0,0,0-.228-.183,5.133,5.133,0,0,0,.4-.33c.019.092.044.2.073.311a.535.535,0,0,0-.13.084c-.042.039-.08.078-.117.117m-1.617-2.177a.67.67,0,0,0-.126.229,1.422,1.422,0,0,0-.037.138c-.022-.071-.043-.142-.067-.215a.2.2,0,0,0,.115-.2c.037.016.075.031.115.044m-.142-.692a.769.769,0,0,0-.247.147.827.827,0,0,0-.122-.059c-.062-.156-.126-.311-.191-.463.187.128.374.253.559.375m5.34,28.169-3.963-2.082a2.23,2.23,0,0,0-1.091-.254l-.24-1.137c.683.3.521-3.254-.071-4.667-.1-.249-.215-.35-.331-.365-.049-.291-.084-.486-.084-.486a7.018,7.018,0,0,0,1.69,1.559c.791.419.516,3.871,1.216,4.05s-.173-4.142-.173-4.142l1.095,2.346s.758,2.869,1.45,2.558c.646-.284.348-1.978.306-2.2a10.5,10.5,0,0,0,.373,1.178Zm-1.126-9.4c.254-.062.405-.316.468-.657a5.359,5.359,0,0,1,.283,1.239,2.066,2.066,0,0,1-.751-.582m1.388,3.547c-.322-.8-.6-1.426-.6-1.426l-.359-.755c.065.033.131.067.2.1.1.047.18.091.258.134.1.716.224,1.314.506,1.386a.144.144,0,0,0,.021,0c-.01.167-.018.365-.024.56m.162-2.7c-.132-1.012-.332-2-.332-2l.383.819c-.062.062-.064.106.024.121l.008,1.075-.082-.015m-1.427-8.508c-.271-.461-1.365-.7-1.365-.7s-.646.394-.661-.336a8.012,8.012,0,0,0-.3-1.687l-.222-.16c.124-.148.053-.528-.08-.934.156-.093.088-.148-.062-.181-.025-.07-.052-.14-.078-.209.2-.051.408-.111.606-.175.064.152.123.277.179.382-.361,0-.487.137-.193.134a1,1,0,0,1,.314.068c.141.2.245.229.306.129a9.487,9.487,0,0,1,.95.534s-.409-.632-.7-.735c-.067-.024-.13-.043-.192-.06a3.063,3.063,0,0,0-.058-.711c.138-.095.153-.186-.054-.259-.007-.031-.014-.061-.022-.092a.9.9,0,0,1,.448.335c.278.422.378.157.378.157a1.784,1.784,0,0,0-.108-.267l.3.347a5.053,5.053,0,0,1,.015,1.626c-.2.528.428,2.195.428,2.195s1.22,1.073,1.691,1.561a5.75,5.75,0,0,1,.059.8c-.78-.93-2.038-2.545-1.582-1.763m1.594-2.126c-.056-.267-.114-.555-.172-.855L28.3,963.5a7.521,7.521,0,0,0-1.359-2.447c-.094-.12-.194-.246-.3-.375l.413-1.461,1.085-.866.009-.191c.337-.157.615-.225.508.166-.311,1.134.877.771.877.771l.884,0a12.4,12.4,0,0,0-.53,2.674,9.681,9.681,0,0,1-.866,2.761,37.638,37.638,0,0,0-.972,4.155c-.11-.157-.182-.254-.182-.254a4.74,4.74,0,0,1-.644-.762c.012-.3.028-.508.028-.508l.013-1.789s-.029-.338-.433-2.259m1.172,12.632q.031.068.062.133l-.252.006v-.029Zm-.175-.388v-.032l.013.033-.014,0m.244.536.021.042c-.077.008-.174.019-.283.038l0-.088Zm8.43,8.939c-.042.184-.061,1.329-.061,1.329l-.189,3.92-4.469-4.732a2.211,2.211,0,0,0-.585-.444l-3.576-1.879.171-6.466,0-.127.351-.392a2.592,2.592,0,0,0,.222.356.629.629,0,0,0-.205.232c-.107.231-.089.352.035.378-.126.368.178.36.787.054l.582-.775s-.142.019-.332.064l.172-.23c-.012.082.026.091.089-.03a.672.672,0,0,1,.116-.147h0l.1.447c-.055.157-.032.246.059.274l.055.253,1.337,1.051,1.8,1.109c.408.5.953,1.2,1.042,1.351.134.228,1.082,1.946.889,2.386s.184.825,1.021,1.23.625.6.583.789m.117-2.719.011,1.5s-1.279-.183-1.358-1.139a5.679,5.679,0,0,0-.925-2.153l-.277-1.047L33.7,977.87l.425-.581-.578-1.255a.663.663,0,0,1,.219-.472c.1-.1.044-.374-.052-.668.111-.066.063-.1-.044-.128-.018-.05-.036-.1-.055-.148.629-.164,1.527-.459.384-.567a5.131,5.131,0,0,0-.645-.029l-.022-.045.013.046c-.432.018-.334.153-.21.246a2.341,2.341,0,0,0-.81-.315c.23-.125.217-.219.026-.222.07-.1.083-.249-.029-.489-.1-.211.018-.242.2-.21l.383.337a1.841,1.841,0,0,0-.013-.238c.413.126.744.222-.114-.593,0,0,1.153.736,1.192-.17a.781.781,0,0,0-.109-.45q.058-.046.119-.089c.072.207.165.372.272.3.125-.081.167-.353.178-.6l.07-.042-.069.008c.006-.181,0-.341-.007-.4l.219.544,1.183.252.132.116a22.867,22.867,0,0,0,.394,4.108l.187,1.547s.023.1.051.258l-1.021-.862a6.792,6.792,0,0,1-.259-1.555,9.725,9.725,0,0,0-.282-1.825,7.48,7.48,0,0,1,.118,1.93c-.141.374.3,1.551.3,1.551s.862.758,1.195,1.1a1.863,1.863,0,0,1-.033.956,3.229,3.229,0,0,0-.184,1.22,1.832,1.832,0,0,1,.159.527c.02.239.365.929.038,1.139m.368-3.161L37,977.687s-.02-.239-.306-1.6c-.082-.391-.169-.845-.252-1.306l.409-1.446.767-.612.006-.135c.238-.111.435-.159.359.117-.22.8.62.545.62.545l.625,0a8.751,8.751,0,0,0-.375,1.89,6.841,6.841,0,0,1-.612,1.951,23.3,23.3,0,0,0-.714,3.185,1.365,1.365,0,0,0-.06.255c-.064.608-.193.439-.389.157a5.51,5.51,0,0,1-.087-1.736m21.4,16.671a13.057,13.057,0,0,1,3.165-2.865l.118,5.8a13.7,13.7,0,0,1-3.283-2.939m98.543,8.477c0,.069,0,.136,0,.2-.085.467-.238,1.364-.323,2.222l-.36-.317s-.077-.153-.2-.372Zm-.127,5.77c-.006.222-.011.437-.012.625a5.823,5.823,0,0,0-.212-.849,2.491,2.491,0,0,0,.225.224m-.409-.448-.975-1.022c.093-.128.165-.23.211-.3a7.316,7.316,0,0,0,.763,1.318m-.744-1.345.013-.019.09.061Zm.1-1.648c.366.275.114.281-.125.246Zm-.552,1.464c.185-.049.23-.193.15-.419l.036-.107a3.111,3.111,0,0,0,.319-.231l.5-.264s-.068.451-.113.933l-.638.1s.078.061.21.151l-.017.019-.031-.012.014.031c-.052.06-.135.153-.241.271l-.034-.036s0,.027,0,.073c-.21.233-.5.544-.8.848a7.977,7.977,0,0,0,.637-1.354m-.87-5.652c.03-.005.059-.011.093-.019l-.094.182-.024-.008a.164.164,0,0,0,.026-.155m-.131-1.318a3.88,3.88,0,0,0-.317.722,9.162,9.162,0,0,0-.8-.68,8.548,8.548,0,0,0,1.121-.042m-1.22,1.368c.136.037.255.067.368.092-.077.018-.15.04-.221.065a8.3,8.3,0,0,0-.911-.526Zm-.642.58c-.051.038-.078.062-.078.062a1.658,1.658,0,0,0-.057-.211Zm1.476.53-.289.558-1.414-.352h0a16.8,16.8,0,0,0,1.7-.2m.01,6.547c-.028.024-.058.051-.086.073,0-.017-.007-.04-.011-.06a.484.484,0,0,0,.1-.014m-2.237-1.666c-.421,1.149-.662,2.132-.238,2.1.5-.036.916-.726,1.212-1.418.178.136.349.277.5.415a.8.8,0,0,0,.46.544.855.855,0,0,0,.114.178,1.089,1.089,0,0,1-.34.195,8.786,8.786,0,0,0-1.924,1.41l-1.426.79-2.884.572h0l0,0c.064-.047.133-.1.2-.151l.1-.076.042-.032.118-.091.015-.014.062-.049.118-.094c.084-.067.17-.14.257-.212l0,0c.19-.161.38-.331.563-.508.02-.018.039-.037.057-.055q.146-.141.282-.288a3.277,3.277,0,0,0,.93-1.539,3.263,3.263,0,0,1,.627-1.095c.047-.06.094-.123.145-.185.01-.015.022-.03.034-.045.1-.133.214-.267.326-.4.4-.479.837-.968,1.212-1.372-.17.4-.341.818-.495,1.223-.289-.055-.514-.078-.514-.078s.179.108.44.278m1.363.383c-.05-.052-.1-.1-.153-.158-.012-.012-.028-.023-.043-.034.16-.446.26-.82.286-.919a5.7,5.7,0,0,0-.09,1.111m-.129-3.3c-.021-.122-.047-.253-.076-.4,0,0,.079.059.2.136l-.122.261m-2.017-1.807a3.956,3.956,0,0,0,.593.878c.1.179.206.361.3.52.49.833-1.535,1.678-.166,1.771l.235.014c-.227.257-.543.619-.877,1.025-.032.04-.066.081-.1.121-.185.227-.375.466-.558.706-.045.061-.091.119-.135.18a9.843,9.843,0,0,0-.8,1.231,2.936,2.936,0,0,1-.262.413l-.45-1.089.224-1.09,2.432-2.857-.1-1.224-.2,1.061a4.889,4.889,0,0,0-.135-.949c-.129-.6-.1-.776,0-.712m-2.647,1.8c.146.058.307.118.488.178.323.107.514.049.619-.1a2.265,2.265,0,0,1,.78.215c.553.327.294-.245-.67-.605a3.72,3.72,0,0,0-.2-1.142q.136-.047.305-.1a1.128,1.128,0,0,1,.165.1.838.838,0,0,0,.281,1.209,2.137,2.137,0,0,0,.781.46l-2.005,2.422a2.8,2.8,0,0,0-.162,1.825s.089.615.121,1.028v0c-.091.1-.188.2-.289.3-.118.113-.239.224-.363.33-.093.082-.185.161-.279.237-.126.1-.252.207-.377.3-.027.024-.055.045-.082.066s-.051.04-.076.059c-.1.081-.2.156-.3.229s-.168.129-.244.188-.123.1-.18.143-.126.1-.18.146l-.021.018a8.485,8.485,0,0,0-.932-.809c2.4.025,1.5-.4.233-.779.045-.1.1-.227.152-.361.413-.1.382-.192.111-.277a8.21,8.21,0,0,0,.67-2.606,13.6,13.6,0,0,1,.652-3.187,3.761,3.761,0,0,0,.452.266c-.308.127-.547.253-.547.253s.494-.023,1.091-.01m-3.677,7.657.212.1,0,.006c-.126-.067-.21-.108-.21-.108m.026.844-.012.047c-.008-.026-.017-.057-.028-.091Zm.18.816c.128-.011.287-.026.464-.047-.037.07-.077.14-.117.214l-.01.02-.36-.09Zm.326-1.372.006-.027.226.109c.136.037.255.066.368.092-.076.018-.15.04-.221.065-.123-.084-.254-.166-.379-.239m-.242-2.25a4.866,4.866,0,0,0,.614-.067l-.088.211c-.175-.05-.352-.1-.526-.144m2.824-15.091c-.116.037-.236.08-.358.128a2.711,2.711,0,0,0-.725-.24,10.227,10.227,0,0,0,1.083.112m-1.6.7h0v-.005l0,0m-1.043,1.974a2.136,2.136,0,0,0,1.341.207c-.609.084-1.142.168-1.554.25Zm-.479,1.031.024-.052c.217.03.492.057.832.083,2.633.2.158.645.158.645l-1.165.107Zm-2.892,9.886h0v0h-.008Zm.166,5.353a1.109,1.109,0,0,1,.165.1.8.8,0,0,0,.044.981h0c-.023.084-.044.171-.062.263-.078-.037-.165-.072-.256-.106a3.72,3.72,0,0,0-.2-1.142c.091-.031.192-.065.3-.1m-.558-8.171.02.155c.02.177.044.358.069.545,0,.029.007.057.01.086s.005.034.007.052h0a1.668,1.668,0,0,0-.644.49l-.085-.035-.383-.009a.98.98,0,0,0,.576-.694c.043-.15.024-.248-.038-.308.24-.051.414-.143.467-.295a.066.066,0,0,1,0,.012M139.573,996.5a5.143,5.143,0,0,0,.431.7l-.058.011a5.7,5.7,0,0,0-.418-.578.611.611,0,0,0,.045-.134m.268.743c-.249.023-.57.054-.89.1a.7.7,0,0,0,.061-.047,2.074,2.074,0,0,0,.5-.624h0c.114.15.252.341.39.553h0c-.021.006-.041.013-.062.02l.071-.007a3.928,3.928,0,0,1,.546,1.213v0h0a1.455,1.455,0,0,0-.1-.132,1.355,1.355,0,0,0-1.515-.272,2.5,2.5,0,0,1,1-.805m-.752,1.934c.061-1.157-.1,1.572.9,1.4a.916.916,0,0,0,.758-.76,11.62,11.62,0,0,0,.453,1.167s-.182.128-.259,1.036l-2.21-.507-.226-.6c.752.315,2.255.906,1.29.173-.767-.581-1.141-.679-1.318-.667a1.367,1.367,0,0,0,.608-1.243m-.952,2.333c.011-.326-.006-.618-.013-.722l.4.991,2.158.46.239.21h0c-.017.488-.008,1.134.049,1.99.018.282.042.589.074.918a.294.294,0,0,0,0,.039c.005.062.01.126.017.192.012.123.025.249.039.38.005.039.008.079.012.121,0,0,0,.012,0,.017v.01c.012.094.022.188.032.285a1.342,1.342,0,0,0-1.461-.743,2.751,2.751,0,0,0,.04-.309.831.831,0,0,0,.228-.052c.761-.3.542-.664-.413-1.047-.027-.063-.059-.127-.092-.191.553.292,1.268.547,1-.268a.93.93,0,0,0-1.509-.52l-.678-.6s-.085-.167-.222-.4a3.276,3.276,0,0,0,.095-.7l.128-.077s-.049,0-.125.015m1.719,5.557c-.093.03-.189.063-.287.1l-.022-.12c.1.008.207.015.308.019m-.41.1a1.822,1.822,0,0,0-.282-.108l.023-.047c.081.01.163.019.246.026,0,.043.009.085.014.128m-3.524,3.9c-.216-.825-1.827.485-2.04.663a4.938,4.938,0,0,1-.106-.584c-.018-.155-.03-.314-.034-.481a2.8,2.8,0,0,0-.062-.5c-.018-.086-.04-.173-.064-.264-.01-.04-.022-.079-.034-.12v0c-.017-.055-.034-.111-.052-.166-.087-.274-.2-.562-.323-.853-.015-.033-.03-.067-.044-.1h0c.035-.037.071-.079.109-.126q.109-.076.213-.154a2.122,2.122,0,0,0,1.087-.026c.214.131.474.3.735.475l.006.012c-.282.143-.331.265.112.323l.051.008.061.124.051.072c.021.169.094.253.2.278l.52.73c-.267.1-.276.194.072.277l-.038.074-.109.86-.34.031a.627.627,0,0,0,.03-.545m-2.1,6.106c-.01-.056-.018-.111-.029-.167h0l-.131-.838c-.054-.358-.1-.7-.145-1.006v0q-.035-.245-.061-.459v0c-.025-.205-.045-.39-.06-.548q-.005-.053-.01-.1h0l1.894,1.164-.72.53-.637,2.03c-.008-.045-.017-.092-.025-.136v0q-.038-.232-.076-.459m-.3-3.984a1.243,1.243,0,0,0,.1-.3,1.789,1.789,0,0,0,.024-.535c.05.129.1.262.159.392a1.4,1.4,0,0,0-.173.964l-.214-.145.137-.366Zm.565-.8c-.017-.04-.033-.082-.047-.125a4.47,4.47,0,0,1-.155-.517l.758.01c.152,0,.3.01.443.016a3.04,3.04,0,0,0-1,.616m.756,2.191-.194-.146.041-.012c.035.032.087.086.153.158h0m.382-.416h0a4.56,4.56,0,0,0,.62-.464c-.195.263-.347.479-.463.657h0Zm.634.615-.084.062-.009-.011h0l.095-.049m-1.518-9.2a.521.521,0,0,0,.092-.247,4.059,4.059,0,0,1,1.084,1.048l.029.055a3.855,3.855,0,0,0-1.255-.452c.418-.228.4-.4.049-.4m1.9,2.349c.14.069.271.139.384.2a.992.992,0,0,1,.013.235v.01a2.129,2.129,0,0,0-.509.155c-.093.029-.183.058-.27.088-.039-.038-.08-.077-.122-.115a1.04,1.04,0,0,0-.3-.175l-.066-.159c.361-.09.648-.17.872-.24m-.074-1.823-.021-.043.032.033-.011.01m1.955-.636a1.865,1.865,0,0,0-.205-.1l-.486-.51c.093-.128.165-.23.211-.3a7.979,7.979,0,0,0,.48.9m-.461-.93.013-.019.09.061Zm.895,5.4c-.609.084-1.142.169-1.554.251l.212-.457a2.136,2.136,0,0,0,1.341.207m-1.3-4.295c-.131-.019-.261-.034-.386-.046.188-.236.359-.463.5-.649,0,.085.009.2.02.333-.184.014-.336.091-.13.361m-.328,3.946-.21.4a1.435,1.435,0,0,0-.165-.464c0-.016.01-.034.015-.051.128.045.248.085.359.113m.014,1.923-.359.033.093-.483c.08.148.178.311.266.45m-.412-2.049c0,.006,0,.012,0,.018l-.013-.023.014.005m-.023.449c0,.091,0,.181-.005.268l-.406-.585c.039-.015.079-.032.119-.051a1.586,1.586,0,0,1,.278.344l.014.024m-.295,4.932.012-.246a1.391,1.391,0,0,1,.506-.16c.043.148.087.3.132.442-.142.584.043.84.3.94l.023.067.065.773-1.3-1.6Zm.751-4.107c.178.02.387.039.628.057,2.633.2.158.645.158.645l-.443.041Zm1.838-3.784h0v0m-.793,8.851,1.139-.005a26.279,26.279,0,0,0-.617,2.685c-.209-.368-.4-.669-.523-.856a.131.131,0,0,0-.015-.022v0l-.457-1.729a1.916,1.916,0,0,0,.475-.071m-.656-12.722-.057-.007a1.5,1.5,0,0,0-.072-.523c1.539.882.129.53.129.53m-.842,1.17a.879.879,0,0,0,.273.1c.559.094.719-.088.546-.485a3.277,3.277,0,0,0,.379-.269l.5-.264s-.068.451-.113.933l-.638.1s.078.061.21.151l-.017.019-.031-.012.014.032c-.052.059-.135.153-.241.27l-.034-.036s0,.027,0,.073c-.182.2-.421.461-.675.724-.562-.031-.933.061-.553.464l.016.059a1.252,1.252,0,0,0-.487.087,3.521,3.521,0,0,0-.864-1.225,1.407,1.407,0,0,0-.5-.264l-.009-.021c-.179-.385.034-.441.369-.383l.7.615a3.351,3.351,0,0,0-.023-.434c.52.159.968.292.68-.131a2.017,2.017,0,0,0,.5-.1m-1.389-.85s.041.026.109.065c0,.009-.009.018-.012.027l-.1-.093m.7-2.709a.948.948,0,0,1,.21-.1c-.034.12-.067.249-.1.377-.033-.085-.07-.175-.114-.274m-1.468-2.246,0,0c-.08-.042-.13-.066-.13-.066Zm.23,1.582c.146.478,1.085.045,1.473-.124l.255-.114a.5.5,0,0,0-.064.133s-.055.149-.125.367a1.824,1.824,0,0,0-.367.26c-.013-.028-.025-.054-.039-.083l-1.6-.4h0c.019,0,.2-.013.468-.039m-.486,6.678a.212.212,0,0,1,.025.017c.075.066.093.049.061-.012.146.009.308.016.49.022,0,0-.355.26-.7.576a1.918,1.918,0,0,0-.6.393c-.087-.252-.348-.467-.9-.529a.717.717,0,0,1,.021-.173,5.765,5.765,0,0,1,1.175-.336c.119.016.259.03.424.042m-1.028,3.406-.015-.042h0l.007.005h0a.3.3,0,0,0,.008.037m-.522-1.513,0,0,.008.018h0l-.12.067c-.027-.051-.055-.1-.082-.146-.045-.077-.089-.15-.132-.219l.064-.006a1.886,1.886,0,0,0,.259.28m-.184-1.545.079-.031a1.055,1.055,0,0,0-.01.147h-.006c-.022-.038-.042-.077-.063-.115m.16,1.908,0,.005a2.773,2.773,0,0,1,.156.415c.007.018.012.039.017.057h0l-.418-.367c.084-.034.162-.074.242-.112m.05-.016,0-.005c.036-.017.074-.032.109-.05l.1.215s.042.126.1.321c.007.022.013.039.022.062v.007c.023.082.05.173.077.271v0l-.08-.155-.029-.025c-.025-.064-.052-.124-.077-.183q-.109-.247-.217-.459m-.443-2.855,1.069-.2a1.677,1.677,0,0,0-.205.146,1.819,1.819,0,0,0-.8.119c-.065.025-.124.048-.181.071a1.3,1.3,0,0,0,.121-.142m-.292,1.5a5.167,5.167,0,0,0,.431.7l-.058.011c-.072-.114-.141-.215-.207-.3-.022-.032-.045-.062-.067-.091-.052-.069-.1-.131-.144-.183a.618.618,0,0,0,.045-.134m-.561.792a2.074,2.074,0,0,0,.5-.624h0c.039.051.081.106.125.166l.087.121v0c.059.082.118.172.178.264h0l-.062.02.071-.006c.045.072.091.146.134.221.03.052.059.106.089.16h0l-.326.181-.111-.1-.347-.181a1.7,1.7,0,0,1,.489-.278c-.238.022-.542.052-.848.091h0c0-.008,0-.016,0-.024l.022-.018m.1.442.272.193a1.694,1.694,0,0,0-.479.1l-.055.011a2.989,2.989,0,0,1,.263-.3m-.024,1.443c.008-.16.012-.243.016-.273l.005-.007c.021.111.08,1.816.883,1.679a.882.882,0,0,0,.682-.533.7.7,0,0,0,.142-.025h0c.012.035.025.069.037.1.177.493.35.863.35.863s-.148.1-.232.792c-.008.055-.015.114-.02.178v0c0,.022-.005.04-.007.064l-1.253-.287a.8.8,0,0,0-.843-.528c-.112-.085-.222-.172-.327-.256l-.013-.036c.752.315,2.255.906,1.29.174-.766-.581-1.141-.679-1.318-.667a1.366,1.366,0,0,0,.608-1.243m.129,3.233-.114.09c-.072-.033-.151-.066-.234-.1-.027-.063-.059-.127-.092-.192a3.625,3.625,0,0,0,.44.2m-.536-1.175-.046.014-.027-.071Zm-.324.132c-.056.031-.09.054-.09.054l-.126-.111c0-.232-.01-.425-.016-.512l.005,0Zm-.215,3.12c-.005.221-.011.437-.012.624a5.815,5.815,0,0,0-.212-.849,2.56,2.56,0,0,0,.225.224m.125-8.116h0l-.017.017,0,0a.992.992,0,0,0-.36.209c-.062,0-.126-.005-.193,0,0,0,.249-.108.573-.224M130,1015.14l-.512-.537a1.061,1.061,0,0,0,.05-.182,6.145,6.145,0,0,0,.462.719m-1.906,4.015c.185.332.279.245.188-.053.235-.068.417-.128.556-.181.017.081.03.156.04.224v0c0,.009,0,.017.005.024s0,0,0,.005a1.225,1.225,0,0,1,.02.3,16.046,16.046,0,0,0-.136,1.813h0l-.744-1.074-.388-.938q.252-.063.458-.12m-.055-.645s.288-.062.672-.158h0c.015.061.029.121.042.18h0c-.328-.031-.714-.023-.714-.023m.4-1.3h0c-.025-.054-.04-.082-.04-.082s.008.03.024.082h0c-.789.034-.609.28-.383.449a4.271,4.271,0,0,0-1.476-.575c.418-.228.4-.4.049-.4a.512.512,0,0,0,.088-.218c.024-.009.049-.018.073-.025a2.115,2.115,0,0,0,.739-.515l.112.1s0-.076,0-.2c.056-.056.112-.114.168-.174.5.146.836.2.341-.382.087-.1.173-.205.256-.308a1.389,1.389,0,0,0,.649.046,3.57,3.57,0,0,0,.452,1.431.131.131,0,0,0-.043.042c-.027-.027-.054-.054-.083-.081a3.944,3.944,0,0,0-1.655-.488,14.466,14.466,0,0,1,1.929,1.363l-.02,0a9.32,9.32,0,0,0-1.176-.053m-2.577-4.75h0a1.458,1.458,0,0,0,.176-.023c-.008.037-.015.074-.022.111l-.256.023h0a.208.208,0,0,0,.018-.02l.082-.089m-.045-4.823.166.08h-.007c-.1-.051-.16-.081-.16-.081m.7,10.183c.078.05.158.1.239.157-.135.106-.327.263-.516.437a1.863,1.863,0,0,0-.585.384l.032-1.076h0a4.913,4.913,0,0,0,.83.1m.393-12.249c-.008.108-.013.217-.015.325-.251-.075-.515-.148-.771-.216l.035-.008a5.24,5.24,0,0,0,.75-.1m-.286-.427.167-.263.179.1q-.014.1-.026.218c-.1-.021-.2-.04-.32-.06m-.21,4.114c.12-.013.25-.028.383-.046l-.07.267-.021.012-.295.007-.288-.072Zm.14,2.475.078-.081-.065.028.019-.08.1,0,.055.116a.456.456,0,0,0,0,.165l0,0c-.109.209-.217.419-.319.627h0l-.05,0Zm-.21-1.045.071.051-.033.141c-.012-.063-.024-.124-.037-.192m.325.865-.081.041.036-.151a.2.2,0,0,0,.093.087l-.006,0-.061-.025.02.045m-.046-2-.118-.029.152.005-.033.024m.3,5.856.1.091a1.042,1.042,0,0,1,.086.135.88.88,0,0,0,.119.186,1.093,1.093,0,0,1-.34.2,1.034,1.034,0,0,0-.221.09,1.8,1.8,0,0,0-.116-.315c-.179-.385.034-.441.369-.383m1.162-3.608a.948.948,0,0,1,.211-.1c-.032.112-.063.23-.091.35-.021.025-.041.051-.06.076l-.509-.208c.08-.031.166-.067.256-.107-.05.093.013.118.192-.007m.9-1.82c0,.073.027.091.079.035l.246.146a.413.413,0,0,0-.231-.163.737.737,0,0,0,.071-.114l.261-.054.044.2c-.036.2-.051.339-.051.339l-.044.015-.145-.062.064-.086s-.076.01-.2.032c-.083-.032-.174-.065-.272-.1l.149-.2.026,0m-.014-.019.017-.023a.284.284,0,0,0,0,.032Zm-.157-1.913s-.292.06-.64.172a1.714,1.714,0,0,0-.27-.106.137.137,0,0,0,.032-.084c1.575-.183.878.018.878.018m-.363,1.154h0l0,0a.088.088,0,0,1-.019.016l0-.013.028-.006m-.231,5.7q-.107.11-.216.218c-.15-.163-.351-.365-.614-.615a4.39,4.39,0,0,0,.829.4m1.344-5.48.052-.043c0,.014-.01.028-.014.042Zm.093-3.843.193.008a4.827,4.827,0,0,0-.059,1q-.109-.006-.217-.006a3.531,3.531,0,0,0-.362-.582,1.18,1.18,0,0,1,.445-.417m-.209-13.155.153.008c-.116.037-.236.08-.359.128a.949.949,0,0,0-.135-.067,1.644,1.644,0,0,0,.34-.069m-1.406,14.164c.163-.052.171-.124.072-.207.061-.181.12-.365.172-.548l.09.064c.117.5.328,1.068.611.485h0c.082.073.155.145.223.215-.042.005-.084.01-.123.017a1.354,1.354,0,0,0-.81.574c-.142-.023-.289-.043-.439-.057.067-.17.136-.353.2-.543m.161,2.82,0,0a.592.592,0,0,0-.049.044h-.03l-.056-.033a1.715,1.715,0,0,0-.942-.09l.041-.175.04-.007a1.4,1.4,0,0,0,.511.1,2.294,2.294,0,0,0,.486.154m-.546-2.684a.47.47,0,0,0,.044-.044c-.056.148-.113.292-.169.431-.107,0-.213,0-.316,0-.282-.245-.539-.436-.539-.436.109,0,.21,0,.306,0,.1.27.3.356.673.045m-.668-1.875-.166-.019.226-.355s-.028.15-.06.374m-.335-4.833c-.431.219-.5.411-.086.457a.938.938,0,0,0,.023.375,7.971,7.971,0,0,0-.974-.173s.611.368,1.263.835c-1.3.363-3.081.921-1.883.959a5.242,5.242,0,0,0,.908-.045,12.967,12.967,0,0,0-1.649.882q-.126-.013-.249-.019l.2-.714,0,0,0-.005a16.747,16.747,0,0,1,2.135-2.737c.19-.045.316-.009.307.19m-1.15,3.5s-.054.057-.135.148a.233.233,0,0,0-.1-.1l.237-.045m-1.352,14.851h0a2.382,2.382,0,0,0-.426.009q.117-.043.229-.092a.6.6,0,0,1,.195.026h0Zm-.209-.38c-.031-.023-.065-.045-.1-.067l.2-.036h0l.012.04h0Zm-.1-.277q.063-.048.118-.092l.039.124h0l-.157-.033m.005-13.566h0l-.025-.143a4.409,4.409,0,0,0,1.4-.165c-.094.109-.2.237-.3.371a7.591,7.591,0,0,0-1.069-.063m.7-2.776.012-.042.047-.037h0l0,0c-.018.025-.037.047-.054.072l0,0h0m.672-5.835a4.568,4.568,0,0,0,.686,1.015l.1.174-.028.222-.315.029-.063-.746-.141.764-.123.011c-.026-.182-.065-.4-.119-.646-.149-.7-.121-.9,0-.823m.354,3.548,0,0c-1.217,1.646-.763,1.468-.111,1.134-.021.026-.044.054-.067.08l-1.093.8-.333,1.061c-.136.2-.262.4-.37.585-.135-.809-.254-1.581-.34-2.222l.6-.71c.616.208,1.569-.614,1.705-.735m-1.88-3.262a1.294,1.294,0,0,1,.191.12.968.968,0,0,0,.325,1.4l.087.066q-.087.053-.174.113a3.624,3.624,0,0,0-.556-.259,4.3,4.3,0,0,0-.225-1.32q.157-.054.353-.117m-.579,3.253.193-.512-.038-.009a1.447,1.447,0,0,0,.131-.8h0a.412.412,0,0,0,.04-.047c.132.018.258.04.375.066a1.444,1.444,0,0,0-.417,1.382,1.042,1.042,0,0,0,.232.5l-.415.5c-.06-.485-.1-.866-.1-1.089Zm-.049,4.138-.1-.236a.776.776,0,0,0,0-.568c-.065-.2-.179-.253-.316-.226l.254-1.236.067-.079c.045.673.119,1.474.235,2.434h-.015c-.039-.03-.083-.061-.13-.092m.028,6.315-.261.285c-.016-.059-.032-.113-.046-.16a1.668,1.668,0,0,0,.3-.126l0,0m-4.488,11.083c-.022.04-.044.08-.064.121-.109.015-.228.035-.351.059l.042-.178.544-.315h0c-.054.1-.108.195-.163.3l-.294.006Zm-1.72-.7-.016.015h0l.106-3.634v0a3.273,3.273,0,0,0,1.109-.385l.692-.5s-2.566,1.881-.2,1.333l.74-1.164s-.039.209-.078.5c-.232.6-.466,1.126-.549,1.347s-.332,1.134-.592,2.2a1.737,1.737,0,0,0-1.209.29m.946.825-.032.145a2.427,2.427,0,0,0-.972.467l.02-.7v0a3.11,3.11,0,0,0,.984.089m-1.414-11.2a4.692,4.692,0,0,1-.266-.543h0a4.075,4.075,0,0,0,1.03-.676,5.122,5.122,0,0,0-.765,1.22m.779-.139-.594.437c-.029-.04-.059-.087-.093-.143h0a2.594,2.594,0,0,0,.687-.294m-.821,1a2.1,2.1,0,0,0,.318.483c.035.032.089.087.16.165h0c-.2-.153-.432-.325-.669-.5l.191-.152h0m.407-.326.678-.542c-.083.4-.157.772-.217,1.111h0Zm3.364-12.1c.011-.326-.006-.618-.013-.722l.275.683a19.013,19.013,0,0,0-.5,2.579c-.115-.027-.525-.121-.988-.2a.784.784,0,0,0,.385-.752,1.429,1.429,0,0,0-.2-.821c.07-.055.142-.109.214-.162.131.378.3.678.5.552.228-.147.3-.644.324-1.1l.128-.077-.125.015m.916,13.489s-.244.031-.577.086l.034-.131Zm-.33-.807.026-.088c.034.024.076.051.121.079l-.147.009m.1-8.848a2.565,2.565,0,0,0-.677-.228v0a10.076,10.076,0,0,0,1.035.1c-.116.037-.236.08-.359.128m-1.593,9.164-.058.023-.137-.512a1.909,1.909,0,0,0,.3-.059l1.139,0c-.025.089-.05.178-.074.268a4.978,4.978,0,0,0-1.169.284m.972.479-.037.152c-.259.048-.538.107-.785.173l-.055-.207c.235-.018.526-.056.877-.119m-1.733-6.075c-.058.2-.129.461-.207.758l-.113.01-.184-.266.1-.494.024-.052c.113.016.24.03.386.045m-.143-.566.213-.458.049.035a2.921,2.921,0,0,1,.05.364c-.11.02-.214.039-.311.059m-.351,4.255c.129-.022.221,0,.249.107v0c-.18.341-.357.688-.518,1.026h0Zm.524,1.38h0a.779.779,0,0,0,.109.03c.055.217.124.458.2.7-.37.214-.364.391.127.411.035.11.068.213.1.306-.345.13-.508.281-.21.44a1.775,1.775,0,0,0,.376.149l.009.112-.321.09-.9-1.113Zm.573-4.385-.392.036.145-.608c.02-.025.043-.05.066-.075l.024,0c2.634.2.158.645.158.645m0-1.381.051-.115a3.121,3.121,0,0,0,.758,0c-.288.04-.559.079-.809.119m-.038-6.359c-.054.051-.1.1-.151.151a1.786,1.786,0,0,0-.294-.235,6.676,6.676,0,0,0,.517-.425c.025.118.057.257.095.4a.7.7,0,0,0-.167.109m-.2,3.326c-.135.024-.284.053-.43.086a1.82,1.82,0,0,0-1.053-.353,3.506,3.506,0,0,0-.023-.423,2.622,2.622,0,0,0,.66.152,5.816,5.816,0,0,0,.846.539m-1.347-1.412c-.107-.107-.228-.226-.368-.359a4.468,4.468,0,0,0,.644.327,1.262,1.262,0,0,0-.276.032m-.149,1.145a.948.948,0,0,0-.91.677.782.782,0,0,0-.09-.006c.126-.177.15-.455-.054-.892-.179-.385.034-.441.369-.383Zm-.763.854a2.908,2.908,0,0,1,1.16.4c-.289.09-.144.264.028.393a4.271,4.271,0,0,0-1.476-.576.812.812,0,0,0,.287-.221m1.562,2.2-.251.48a1.874,1.874,0,0,0-.359.123l-.163-.394c.31-.077.565-.147.773-.209m-.436.837-.038.074,0,.014-.046-.111.086.023m.024,6.845c.193.241.393.493.587.737h0c-.317.1-.623.2-.872.289h0l.146-.728Zm.429,1.413c-.293.138-.6.287-.878.432h0l.077-.385h0a5.122,5.122,0,0,0,.8-.046m-1.034,1.207c.18-.027.389-.063.634-.111a8.8,8.8,0,0,0-.77.944h0l.005-.183.131-.649Zm1.328,4.922.112-.469a1.465,1.465,0,0,0,.42.054c-.063.084-.014.235.139.433h0c-.017.027-.032.055-.047.083-.177-.037-.393-.076-.624-.1m.286-1.2.251-1.054s.065-.138.162-.361c-.008.712.136,1.313.762.789a3.862,3.862,0,0,0,.586-1.272l.027.006h0c.012.025.022.05.032.076h0c.056.317.188.945.381,1.07a.324.324,0,0,1,.008.032c-.237.187-.462.358-.663.515h0a3.794,3.794,0,0,0-1.1-.006,1.272,1.272,0,0,0-.449.2m2.18.727h0a6.259,6.259,0,0,0-.83.26,1.247,1.247,0,0,0-.177-.107v0l.02-.044h0c.013,0,.4-.072.973-.19h0v0c0,.027.007.054.012.081m-1.439,1.083a1.466,1.466,0,0,0,.492.094,2.177,2.177,0,0,0,.769.191,1.772,1.772,0,0,0-.063-.242,1.518,1.518,0,0,0,.7-.283l.057-.053h0a3.192,3.192,0,0,0,.274.22h0a2.757,2.757,0,0,0-.251.34l-.718.017-1.409.035Zm2.005-3.191a1.137,1.137,0,0,1,.428-.391q.1.005.193.008l-.008.05h0c-.177.178-.367.352-.56.516-.015-.061-.034-.123-.052-.183h0m.2,1h0c0-.022-.007-.046-.008-.069a.128.128,0,0,0,0-.025c.124-.108.249-.218.37-.333a2.253,2.253,0,0,0,.025.245,3.565,3.565,0,0,0-.383.182m.307,2.313c.176.112.373.223.591.336a1.932,1.932,0,0,0-.548.389l-.117-.585-.1,0c.055-.047.112-.094.172-.141m.261-1.588.226-.056a.539.539,0,0,0-.07.06c-.05,0-.1,0-.156,0m.288-16.573a2,2,0,0,0-.565.462l-.085-.035-.383-.01a.98.98,0,0,0,.576-.694c.043-.149.024-.248-.038-.308.364-.077.575-.249.447-.579-.4-1.034-1.643-.815-2.237-.642a14.141,14.141,0,0,1,.4-2.141l2.024.432.239.21h0c-.015.4-.012.918.022,1.569h0l-.157.19a2.735,2.735,0,0,0-.243,1.545m-2.06-5.334.038-.022h.163l-.013.045a.619.619,0,0,0-.189-.021m.057.506-.01.039-.019-.052.03.013m1.346.228.267,0c.169.067.355.136.564.206a1.113,1.113,0,0,0,.315.061h0a4.633,4.633,0,0,0-.084.594l-2.21-.506,0,0q.06-.226.124-.453l.143.057-.11.056s.088,0,.234-.008c.678.26,1.35.466.76-.007M121,997.04v0l.009.006-.01,0m.513.31-.054-.037.064.033-.01,0m-.011-10.585c-.134.043-.273.093-.414.147a3.129,3.129,0,0,0-.837-.277,11.877,11.877,0,0,0,1.252.129m-1.848.806h0v-.006l0,.005m-1.206,2.282a2.471,2.471,0,0,0,1.551.239c-.7.1-1.321.195-1.8.29Zm-.554,1.192.028-.06c.251.034.568.066.961.1,3.044.23.183.746.183.746l-1.347.123Zm.105,5.361a.638.638,0,0,0,.139.31l-.017.052c-.555.306-.661.653-.3.4a.946.946,0,0,1,.211-.1,5.093,5.093,0,0,0-.178.85,3.571,3.571,0,0,0-.694-.126l-1.741.159.233-.822c.745-.237.833-.375.481-.442l.431-.344c-.02.7.978.265,1.436.064m-1.134-1.967c-.089.12-.17.231-.244.335a.987.987,0,0,0-.319.194c-.023-.014-.051-.027-.078-.04a5.311,5.311,0,0,0,.641-.489m-1.681,1.01a4.4,4.4,0,0,0,.8.381c-.108.352.278.176.747-.065-.011.017-.02.036-.03.055l-1.113.819c-.351-.011-.81-.005-1.342.014l0-.033c.52-.1,1.294-.376.941-1.171m-.919,7.906h0c.005,0,.011,0,.016,0a.741.741,0,0,0,.276-.255,1.4,1.4,0,0,0-.124.569v-.009c-.056-.1-.111-.2-.167-.3m.109,2.277-.046-.041c0-.018.011-.036.015-.055.01.033.021.064.031.1m.283-2.406.136,1.117c-.106-.21-.215-.415-.324-.615a.642.642,0,0,1,.188-.5m-.056,1.971h0a.245.245,0,0,0,.049.109l.124.276s.1.287.2.661v0l-.08-.155-.1-.087h0c-.092-.345-.22-.759-.4-1.261Zm.3,1.232.163.123h0c.014.05.025.1.039.153h0l-.178-.151h0c-.007-.041-.015-.083-.024-.126Zm.108-8.44-.132.012s-.2,0-.422-.012h0c-.025-.166-.052-.329-.077-.492.15-.048.329-.1.549-.158.113-.03.215-.058.313-.085Zm-.81,7.909.38.288h0c.015.037.029.072.042.1h0l-.105-.085,0,0-.335-.283.019-.03m.14.685c-.126.329-.217.779.131.946a.864.864,0,0,0,.09.037c-.007.054-.013.112-.018.175l-2.114-.485c.164-.064.345-.146.547-.247l.02-.026c.594.213,1.043.311.4-.176-.061-.047-.118-.088-.174-.128l.281-.375a.521.521,0,0,0,.087-.008.96.96,0,0,0,.316-.113c.144.131.291.266.435.4m-2.22.917,2.158.46.239.21h0c-.013.36-.012.807.012,1.362a.357.357,0,0,0-.128-.022c-.468.042-2.334-1.6-2.334-1.6l-.1-.516c.034-.006.068-.013.105-.023Zm-.041-1.359a1.039,1.039,0,0,0,.419-.455.319.319,0,0,0,.3.049.5.5,0,0,0,.093-.057c.019.056.04.11.063.163a4.037,4.037,0,0,0-.741.31.553.553,0,0,0-.138-.01m1.656-3.018h0l-.087-.019h0c-.008-.016-.018-.031-.026-.046l.054-.043.043.051h0v0Zm-.036.155h0c.03.057.06.113.089.172h0a1.735,1.735,0,0,0-.209-.152l.119-.022m.239-5.611c.007.084.015.171.025.26-.2-.048-.281-.128-.025-.26m-.1-1h0m-.054,6.592.054.173q-.043-.086-.091-.167h0l.037-.007Zm-.2-.173.009-.007h0l0,.009-.013,0m.327.608h0c.007.019.013.034.02.052h0a1.89,1.89,0,0,0-.367,0,1.1,1.1,0,0,0-.151-.055.988.988,0,0,1,.5,0m.15.472v0h0a1.526,1.526,0,0,0-.1-.132c-.024-.027-.05-.05-.075-.074l.1-.075h0a2.032,2.032,0,0,1,.077.279m-1.818-16.788a5.907,5.907,0,0,0,.5.81l-.067.013a6.421,6.421,0,0,0-.482-.669.7.7,0,0,0,.052-.155m.309.859c-.287.027-.659.063-1.029.112a.8.8,0,0,0,.07-.055,2.4,2.4,0,0,0,.578-.72h0c.133.173.293.393.451.639h0c-.024.007-.047.015-.071.023l.08-.007h0a4.436,4.436,0,0,1,.632,1.4,1.755,1.755,0,0,0-.119-.152,1.566,1.566,0,0,0-1.751-.314,2.885,2.885,0,0,1,1.158-.931m-.869,2.236c.07-1.338-.119,1.817,1.044,1.617a1.059,1.059,0,0,0,.876-.88h0v0a13.208,13.208,0,0,0,.525,1.349s-.21.15-.3,1.2l-2.556-.586-.261-.694c.87.364,2.607,1.047,1.491.2-.886-.672-1.319-.785-1.523-.77a1.58,1.58,0,0,0,.7-1.437m-2.289,2.506c.029.136.066.3.109.463a.8.8,0,0,0-.194.126c-.062.058-.12.117-.174.174a2.047,2.047,0,0,0-.34-.272,7.707,7.707,0,0,0,.6-.491m.218,2.027a1.652,1.652,0,0,0-.228-.95c.081-.063.164-.126.248-.186.151.437.348.784.574.638.264-.17.351-.745.374-1.267l.148-.089s-.057.005-.145.017c.012-.377-.007-.715-.016-.835l.461,1.146,2.494.532.276.243c0,.069-.005.14-.007.215h0c-.792-.243-2.969-.844-2.552.02.505,1.05,1.6.4,1.6.4l-.769.839s-1.486-1.511-1.621-.62a.764.764,0,0,0,.76.91,5.612,5.612,0,0,0-2.229.322c-1.115.432-.976.857,1.189.439l.632.052s-3.107.4-2.231.864a1.63,1.63,0,0,0,.626.2,22.043,22.043,0,0,0-2.2.692,3.442,3.442,0,0,0-.854-.242c.481-.263.453-.461.052-.466.145-.2.172-.526-.063-1.03-.207-.445.039-.51.426-.443l.807.71a3.868,3.868,0,0,0-.026-.5c.87.266,1.568.469-.241-1.249,0,0,2.43,1.551,2.513-.359m.772,9.619c-.118.034-.25.076-.386.124-.051-.015-.1-.029-.158-.042a.866.866,0,0,1,.5-.107l-.211-.125c.366-.04.583-.055.7-.056-.007.033-.014.065-.021.1-.021,0-.181.039-.4.1a.51.51,0,0,0-.073-.016Zm-6.891-4.652.69,1.54a.284.284,0,0,0,.053.12l.146.323s.113.338.236.77h0l-.095-.185-1.078-.946-.816-.425a.711.711,0,0,0-.187-.465,12.266,12.266,0,0,0,1.049-.732l0,0m-.079-1.249v0a1.733,1.733,0,0,0,.226-.251l1.228-.224a1.781,1.781,0,0,0-.879,1.483c-.2-.365-.395-.708-.573-1.007m1.12,2.06c-.163-.333-.334-.662-.5-.975.04-.178-.124-.524.8-.939-.038.193.454.306,1.743.346,0,0-.411.3-.807.666a4.9,4.9,0,0,0-1.236.9m.591.278h0c.171.143.629.168,1.55-.023-.289.466-.34.837.585.488l.144.292c-.14.215-.132.38.2.391l.078.109c-.508-.059-1.229.236-2.02,1.493l-.162-.052v0a6.829,6.829,0,0,0-.669-2.321,2.9,2.9,0,0,0,.291-.372m2.7.216.692-.5a8.186,8.186,0,0,0-.868.742l-.055-.133c.073-.033.15-.068.232-.108m-.141-2.358.045,0c.014.014.03.028.046.042l-.014.007-.078-.044m2.062,7.016-.229.005.16-.219.044,0c.028.013.056.025.083.036-.016.047-.037.106-.059.175m.3,7.032q.022.091.042.181c-.329-.031-.714-.023-.714-.023s.288-.061.672-.158m-.35-6.939c-.533.3-.629.635-.275.389a.94.94,0,0,1,.211-.1c-.031.108-.061.223-.088.338a2.6,2.6,0,0,0-.429.245l-.079-.3.425-.58Zm-.136,4.661h0l-.315-.391a1.759,1.759,0,0,0,.289.059Zm-.189-1.235c.069.208.114.34.114.34l0,.021a.655.655,0,0,0-.031.057c-.156-.182-.392-.425-.73-.746a4.472,4.472,0,0,0,.646.328m-1.68-3.238c.194-.085.265-.151.235-.2l.3-.173a.326.326,0,0,0,.242.125l-.405.01.9.029a2.406,2.406,0,0,0-.252,1.038l-.774.071.957-1.068a6.992,6.992,0,0,0-1.2.171m-1.168.367c.167-.044.316-.085.451-.124a1.458,1.458,0,0,0-.517.382c-.04-.059-.084-.127-.13-.2l.2-.053m-.566-.687c-.007-.015-.013-.031-.021-.048a2.277,2.277,0,0,0,.387-.119.207.207,0,0,0,.042.155l-.408.011m.912-.765a.667.667,0,0,0,0-.1l.276.011a1.424,1.424,0,0,0-.277.088m.258-1.1a3.3,3.3,0,0,0-.4.012,5.681,5.681,0,0,1,1.47-1l.476.668a1.575,1.575,0,0,0-.409.294,1.126,1.126,0,0,0-.274.137c-.13-.307-.476-.276-.866-.113m1.275.887a.794.794,0,0,0-.084.121l-.1-.013a.338.338,0,0,0,.044-.164c.046.02.094.038.144.055m.579,1.037-.3.007a2.059,2.059,0,0,0,.336-.08l-.034.072m-.6-3.2a.66.66,0,0,0-.083-.12l-.318-.458c.1-.016.207-.037.332-.066l.505-.8a18.466,18.466,0,0,0-.129,1.883Zm-2.9,3.161-.051,0,.051,0h0m-.189,6.329.039.124h0c-.05-.011-.1-.022-.157-.033l.118-.092m.084.265h0l.079.251h0a1.687,1.687,0,0,0-.279-.216l.2-.036m.476-5.726h0c.072.16.146.311.215.452-.5-.028-1.159-.125-.215-.452m-.121,5.031,1.069-.2a1.536,1.536,0,0,0-.766,1.293v-.009c-.171-.316-.343-.612-.5-.871a1.521,1.521,0,0,0,.2-.218m-.126,1.3h0l.6,1.33a.244.244,0,0,0,.049.109l.124.276s.1.288.2.661v0l-.08-.156-.933-.819-.706-.368a.616.616,0,0,0-.162-.4,10.566,10.566,0,0,0,.907-.634h0m.9.7c-.139-.287-.287-.571-.435-.84.038-.153-.113-.454.695-.816-.033.167.393.265,1.508.3,0,0-.355.26-.7.576a4.251,4.251,0,0,0-1.07.78m1.39-2.109c.418-.228.4-.4.049-.4.126-.177.15-.455-.054-.892-.17-.364.011-.434.315-.391.582.731,1.149,1.47,1.393,1.824-.609.058-.438.281-.228.44a4.272,4.272,0,0,0-1.476-.576m2.278,1.832a2.252,2.252,0,0,1,.068.551,15.667,15.667,0,0,0-.136,1.815l-.745-1.075-.388-.938a11.031,11.031,0,0,0,1.2-.353m-.131-3.163-.062-.236c.06-.02.123-.045.189-.072-.011.02-.023.04-.032.061a1.7,1.7,0,0,0-.094.248m.741-3,.022.086a.7.7,0,0,0-.167.109h0Zm.133.455c.017.051.035.1.054.146a2,2,0,0,0-.232.08c-.012-.022-.024-.043-.037-.065.07-.055.142-.109.214-.162m-1.805-4.239-.4-.863a1.208,1.208,0,0,1,.2-.658c-.054.833.027,1.728.749,1.123a2.834,2.834,0,0,0,.487-.972c.062,0,.127,0,.2,0a2.9,2.9,0,0,0,.224.71l-.01.014c-.141.27.279.4.786.4a.413.413,0,0,0-.043.031,1.163,1.163,0,0,0-.287.437,6.236,6.236,0,0,0-1.91-.219m2.1-1.123a1.33,1.33,0,0,1,.365-.375l.275-.029c-.007.043-.016.107-.026.185a5.2,5.2,0,0,0-.614.219m-6.662-10.045c2.958-.778,1.5-.9-1.264-.771.154-.007,2.139-.123,1.566-1.411,0,0,1.667,1.029,1.7.191.053.023.109.044.167.064a1,1,0,0,0-.187.341c-.477,1.447,1.076.726,1.636.482.093-.041.193-.085.295-.132a.58.58,0,0,0-.074.154s-.064.172-.145.424c-.642.354-.764.755-.349.466a1.106,1.106,0,0,1,.244-.12,5.861,5.861,0,0,0-.205.983,4.118,4.118,0,0,0-.8-.146l-2.643.242s-2.9.013.057-.766m-1.236,7.139h0a1.949,1.949,0,0,0-.322-.249l.232-.042h0Zm-.188-.6h0l.045.143h0c-.058-.013-.118-.026-.182-.038q.073-.055.136-.106m-2,1.349s1.827-.8,2.285-.52l.021.047h0a3.481,3.481,0,0,0-2.083.478c-.071,0-.145-.006-.223-.006m-.346,2-.114,0a8.871,8.871,0,0,1,.737-.556c.225.269.478.467.692.37a1.073,1.073,0,0,0,.483-.631l.711.505a4.854,4.854,0,0,0-2.375.987Zm.8,3.9.126-.168.059-.011.632.051s-.369.047-.817.128m.465-1.85a.764.764,0,0,0,.76.91,5.644,5.644,0,0,0-.8.011c-.428-.346-.753-.63-.753-.63l-.119-.6a4.906,4.906,0,0,0,1.168-.45l1.126-1.5,1.288.975h0c.022.084.044.17.066.256v0a4.386,4.386,0,0,0-.7-.658,3.065,3.065,0,0,0-.279.659c-.662-.1-1.195-.063-.97.4a1,1,0,0,0,1.334.52,1.058,1.058,0,0,0,.132.032l-.631.689s-1.487-1.51-1.621-.62m1.515,9.05s1.577-.689,1.976-.451h0l.018.04h0a3.013,3.013,0,0,0-1.8.414c-.062,0-.125-.005-.193,0m-.3,1.728-.1,0a7.647,7.647,0,0,1,.638-.482c.195.232.413.4.6.32a.929.929,0,0,0,.418-.546l.615.437a4.2,4.2,0,0,0-2.054.854Zm2.736,3.617c-.468.042-2.334-1.6-2.334-1.6l-.1-.516a4.245,4.245,0,0,0,1.01-.39l.974-1.3,1.116.845h0c.019.072.037.146.056.22v0h0a3.8,3.8,0,0,0-.6-.569s-.62,1.046-.047,1.322a.788.788,0,0,0,.783-.027.034.034,0,0,1,0,.011,11.229,11.229,0,0,0,1.434,3.378c.035.032.089.087.16.165h0a9.635,9.635,0,0,0-2.448-1.546m2.319.5a4.774,4.774,0,0,1-.827-1.786l.758.01c.787.01,1.508.191,1.277-.693-.216-.825-1.827.485-2.04.663a4.986,4.986,0,0,1-.139-1.065,5.936,5.936,0,0,0-.579-2.008h0a2.511,2.511,0,0,0,.251-.321h0c.163.137.631.148,1.609-.08l.512,1.038.98,1.374v.018a5.924,5.924,0,0,0,.647,1.175,3.073,3.073,0,0,0-.635,1.784c.14.729.659,2.246.659,2.246l.065.773Zm6.638,2.021c-.089.387-.13,2.8-.13,2.8l-.156,3.259-.969.938a1.807,1.807,0,0,1-.42-1.026,10.345,10.345,0,0,0-1.683-3.92v0l-.506-1.912-.686-2.569.775-1.059-1.054-2.289a1.21,1.21,0,0,1,.4-.861c.174-.181.08-.682-.093-1.217l.023-.014c.634,1.276,1.384,3.014,1.122,3.616-.409.925.387,1.74,2.153,2.591s1.317,1.275,1.228,1.665m-1.14-3.9a12.372,12.372,0,0,1-.473-2.836,17.732,17.732,0,0,0-.514-3.327,13.63,13.63,0,0,1,.216,3.519c-.257.681.552,2.829.552,2.829s.577.507,1.167,1.047h0c-.777-.212-2.274-.814-2.4-2.3a8.46,8.46,0,0,0-.977-2.879h0a9.848,9.848,0,0,1,1.649.863s-.527-.814-.9-.948a2.583,2.583,0,0,0-.884-.167h0c-.091-.168-.18-.328-.266-.478.926-.3,1.612-.666-.04-.822-.18-.017-.341-.029-.488-.038l-.044-.067h0l-.259-.977c.22.08.682-.058,1.341-.388l1.061-1.413a7.088,7.088,0,0,0-.963.211,2.43,2.43,0,0,0,.682-.742,12.216,12.216,0,0,0-1.385.451c0-.034.007-.067.009-.1a1.593,1.593,0,0,0-.034-.412c.08-.057.159-.112.235-.163.094.146.2.218.313.145a.8.8,0,0,0,.257-.509l.063-.037-.057.006c.013-.064.023-.131.032-.2l.046.212,2.438,1.917.367.225h0c.081,1.285.274,3.066.663,5.531l-.02.013.022,3.025Zm1.1-7.16,0,0h0s0,.007,0,.01,0-.009,0-.012h0m.4-1.222a1.134,1.134,0,0,1-.136.464,1.446,1.446,0,0,0-.143.316h0c-.067-.04-.132-.077-.192-.11-.081-.607-.131-1.082-.135-1.34h0l.193-.512-.038-.009a1.642,1.642,0,0,0,.078-.2.744.744,0,0,0,.1-.013,1.449,1.449,0,0,0-.046.814.916.916,0,0,0,.322.584Zm.089-5.912a6.394,6.394,0,0,0,1.28.123s-.355.26-.7.576a1.094,1.094,0,0,0-.391.233c-.055-.275-.119-.585-.191-.933m1.634,1.639.512,1.038.066.092-.044.347-.769.07a3.682,3.682,0,0,0-.807.328h0l0-.382s-.02-.237-.229-1.316a5,5,0,0,0,1.267-.176m-1.094,4.768c.1.222.193.433.287.625l-.314.231c.005-.314.015-.612.027-.855m.219,3.051a2.786,2.786,0,0,1-.229-1.176v0l.126-.445,1.058.651c0,.034,0,.065-.007.1h0a.006.006,0,0,0,0,.005,2.817,2.817,0,0,0-.126.54c-.135,1.28-.407.925-.821.33m1.224,10.691a2.45,2.45,0,0,0-.109.468c-.1.908-.271.864-.526.536l.035-1.354.017-.592v0a2.407,2.407,0,0,0,.741-.146,10.056,10.056,0,0,0-.156,1.086l0,0m5.134.79.3-.4a7.151,7.151,0,0,0-.959.208,2.413,2.413,0,0,0,.678-.738s-2.615.651-2.859,1.5a.277.277,0,0,0-.01.049l-.8.173a7.325,7.325,0,0,0-1.332.425l.278-1.374,1.5-3.232,2.057.066h0c-.026.052-.049.1-.066.147-.406.066-1.974.365-2.321,1.113-.2.422-.162.643.064.689-.23.671.325.656,1.435.1l1.061-1.413s-.257.034-.605.117l.314-.42c-.023.15.047.166.162-.055a1.235,1.235,0,0,1,.212-.268h0l.177.816h0c-.1.286-.058.448.107.5v0l.1.457,1.64,1.29Zm1.413-1.73a14.06,14.06,0,0,0-.089,1.443c-.69-.472-1.51-1.194-1.51-1.194l-.1-.515v0a4.243,4.243,0,0,0,1.01-.389l.3-.4h0c.72.494.452.789.39,1.061m-.474-2.4c.01-.025.019-.05.027-.076l.216.153h0c-.075-.022-.156-.047-.242-.077m.706-.029-.638-.332a.615.615,0,0,0-.161-.4c.213-.128.475-.31.79-.545h0Zm.1-8.572-.162.007c.02,0,.074,0,.152-.012l.01,0Zm.99,1.3a.354.354,0,0,0-.023.027h0l-.084.007s-.17,0-.376-.01c0-.082.005-.161.007-.237a1.177,1.177,0,0,0,.358.066l.234.014-.115.132m.047-1.331c-.15,0-.312,0-.481.01l0-.1.079-.026a4.262,4.262,0,0,0,.474-.135.776.776,0,0,1-.073.25m.525-6.452.692-.5a8.367,8.367,0,0,0-.84.713l-.262-.028c.123-.051.257-.111.41-.184m-.3,18.562.032-1.038a7.5,7.5,0,0,0,.308.964Zm.737-.16c-.037-.115-.072-.235-.1-.362l.758.012a7.677,7.677,0,0,0,.916.007Zm1.722-.375c.219-.074.32-.256.212-.669-.217-.824-1.826.484-2.04.664a4.991,4.991,0,0,1-.14-1.066,4.9,4.9,0,0,0-.4-1.569l.02-.688v0h0c.016-.023.033-.046.049-.071h0c.163.137.631.148,1.609-.08l.512,1.037.98,1.374v0c0,.007,0,.012,0,.017a3.112,3.112,0,0,0,.4.789Zm4.292-.935a7.631,7.631,0,0,1-.262-1.976,3.139,3.139,0,0,0-.018-.646v0c-.01-.1-.024-.205-.039-.315-.005-.032-.009-.066-.015-.1-.045-.323-.108-.671-.17-.994s-.125-.611-.173-.836c-.008-.039-.017-.076-.025-.109-.034-.15-.059-.259-.069-.3.007.047.025.16.049.32,0,.029.008.061.013.092.024.158.05.352.077.562.037.284.072.6.1.913.008.106.017.21.024.314v0c.008.111.013.22.018.325a2.943,2.943,0,0,1-.072.967,3.951,3.951,0,0,0,.234,1.857l-2.407.523-.745-1.618a1.209,1.209,0,0,1,.4-.861c.131-.136.109-.456.015-.834-.027-.114-.06-.234-.1-.357v0c0-.008-.007-.015-.01-.024.2-.12.114-.191-.08-.234-.032-.09-.067-.181-.1-.268v0a10.248,10.248,0,0,0,1.238-.392c.123.188.188.133.15-.067.4-.194.5-.387-.2-.512-.038-.07-.083-.143-.132-.219.357.182.739.225.994.609.358.543.487.2.487.2a2.5,2.5,0,0,0-.877-1.234c.122-.251.266-.521.4-.808.7.113.761-.221.3-.881a2.777,2.777,0,0,0,.055-.4.827.827,0,0,0,.228-.052c.521-.2.581-.44.262-.692a1.583,1.583,0,0,0,0-.267c.2.015.33-.073.285-.354l.092.072,1,.612h0c0,.094,0,.2,0,.3,0,.406.024.886.064,1.458v0c.01.126.02.257.032.392.044.535.1,1.137.187,1.821,0,0,0,0,0,0,.054.456.119.949.194,1.478v0c.05.361.108.743.17,1.142.025.17.052.345.081.521l.04.33.019.163Zm5.94-1.292c-.016.048-.035.1-.051.147l-.17.034c0-.044,0-.088,0-.132l-.691.15-2.677.584q-.04-.194-.086-.409c-.15-.713-.309-1.54-.459-2.379v0l.746-2.637.714-.57c.1.125.207.254.315.389l0,0c.668.833,1.392,1.774,1.529,2.008l.071.121c.047.084.109.2.181.331.045.082.093.175.146.272,0,0,0,0,0,0,.079.151.165.318.252.5.128.257.263.536.389.819a7.19,7.19,0,0,1-.209.773m.314-.069c.027-.093.054-.185.077-.277.034.081.066.161.1.24Zm1.223-.266-.118.255-.155.02c-.021-.067-.043-.133-.066-.2-.037-.1-.076-.21-.118-.315-.015-.04-.032-.082-.051-.123-.056-.136-.114-.272-.177-.405-.091-.2-.187-.39-.282-.572a15.736,15.736,0,0,1,.647-2.982h0a3.766,3.766,0,0,0,.452.266c-.308.127-.547.253-.547.253s.494-.023,1.091-.01c.146.058.307.118.488.178.323.107.514.049.619-.1.11.015.216.033.314.054h0c0,.045-.01.091-.015.136s-.01.094-.013.141h0a.022.022,0,0,1,0,.01c-.02.239-.029.462-.032.632,0,.047,0,.091,0,.13,0,.113,0,.181,0,.181l.022.049c.017.035.039.084.062.146l-.1.118-.8.962a1.991,1.991,0,0,0-.215.952Zm1.186-.259.138-.676.891-1.046a2.273,2.273,0,0,1,.108.494c.017.2.151.555.242.928Zm1.263-10.481c0-.027-.01-.053-.017-.082s-.007-.037-.012-.057l.022-.006c2.2.018,2.269-.428,1.1-.649a4.983,4.983,0,0,0-1.262-.064h0l-.025-.136c-.035-.18-.069-.363-.1-.548-.005-.025-.01-.051-.013-.076-.025-.136-.05-.274-.076-.412v0l.746-2.637,1.4-1.116.012-.246c.434-.2.793-.291.655.214-.4,1.462,1.13.993,1.13.993l1.139-.005a15.968,15.968,0,0,0-.684,3.446,7.1,7.1,0,0,1-.65,2.424c-.572-.116-1.529-.21-2.226-.268a1.659,1.659,0,0,0,.586-.307.451.451,0,0,0,.1-.1,1.169,1.169,0,0,1,.271-.016c.578.049.241-.286-.6-.268a8.1,8.1,0,0,0-1.492-.08m.559,7.156v-.091a.652.652,0,0,0,.223.08h0l-.219.262c0-.084,0-.168,0-.252m1.124.107c-.331.517-.986.935-.174,1.022a1.333,1.333,0,0,0-.027.163c-.014.121-.027.225-.042.315-.1.121-.215.252-.33.389a2.035,2.035,0,0,1-.338-.417.76.76,0,0,1-.1-.249v0c-.008-.029-.015-.059-.022-.089,0-.015-.007-.03-.01-.047-.012-.064-.022-.133-.03-.205-.013-.106-.024-.22-.03-.34l.725-.852,0,0-.012-.131-.093-1.086a0,0,0,0,1,0,0l-.163.888-.018.1-.01.052v.01a4.86,4.86,0,0,0-.135-.95c-.129-.6-.1-.776,0-.712a3.946,3.946,0,0,0,.593.878c.1.179.206.362.3.521a.6.6,0,0,1,.037.075c-.047.237-.088.461-.121.665m.463,2.476h0c-.113-.03-.227-.055-.335-.076l.2-1.006c.111-.123.22-.24.321-.35h0c.444-.034.63-.2.634-.667h0c.018-.018.034-.035.049-.049l.087-.091-.136.061h0a5.311,5.311,0,0,0-.1-.763h0l.077-.17h0c.305.206,1.058.663,1.2.277.024.025.05.05.08.077,0,0,0,0,0,0h0a5.511,5.511,0,0,0-1.049.4h0l-.061-.025s.007.017.02.045l-.1.049.115,0c.035.076.093.2.17.343.047.093.1.2.165.3.037.067.079.135.121.205a.756.756,0,0,0-.158.091h0a.46.46,0,0,0-.171.542.653.653,0,0,0,.41.476Zm3.128-1.572c-.106-.01-.264-.022-.442-.027-.035-.044-.074-.088-.113-.133l-.885-.361-.5-.205h0a14.6,14.6,0,0,1,1.665.048l.158.088c.125.069.232.131.326.188.925.557.427.515.123.459-.1-.018-.18-.039-.18-.039l-.146-.017Zm.072,2,.087-.118c0,.067.007.153.015.252-.032-.044-.066-.087-.1-.135m.077-1.142a.58.58,0,0,0-.025-.059c.034-.02.067-.04.1-.062a2.559,2.559,0,0,0,.242-.175l.04-.032.5-.264s-.027.177-.057.426c-.108.018-.214.039-.32.062l-.108.024-.267.059Zm.244.54c.022.017.045.032.071.051a.088.088,0,0,1-.017.018l-.029-.01c0,.005.007.015.013.03-.01.01-.018.02-.028.032Zm.782,1.392-.168-.175-.254-.267,0,0-.308-.36-.018-.214.436.535q.053.093.116.187c.054.084.111.17.171.252.018.027.039.052.059.078Zm7.8-1.547-1.011-.1.932-1.976,1.13.257Zm2.605.269-1.241-.128c.491-.907.817-1.705.817-1.705l1.254-.962c-.281.879-.59,1.892-.831,2.795m.987.1-.106-.01c.141-.523.24-.962.269-1.091-.024.131-.1.567-.163,1.1m1.009.1c.079-.673.119-1.211.119-1.211l.311-.4a8.494,8.494,0,0,0,.626,1.137c0,.2,0,.393.007.587Zm3.918.405-1.761-.181c.328-1.463.641-3.412,1.133-3.71.024-.015.045-.039.071-.054a12.7,12.7,0,0,0,.676,3.284c-.039.208-.079.431-.119.661m2.151.222-.225-.023.447-2.208c-.017.153-.133,1.145-.222,2.232m1.584-.917s-.008.491-.008,1.079l-.75-.077a2.244,2.244,0,0,1,.378-.979c.582-.582.38-.023.38-.023m-1.214-18.982s-.314-.15-.415,1.059-.7,1.295-.7,1.295a8.41,8.41,0,0,1-.415,1.544c.229-.681-1.535,1.564-2.025,2.193a8.2,8.2,0,0,0-1.345.836,6.767,6.767,0,0,0-.733,2.023c-.262.308-.516.594-.737.836a5.326,5.326,0,0,0-2.7,1.576l-2.316,4.087-2.018,2.528s-.084.225-.193.557l-.521-.054c-.094.18-.185.363-.269.54l.131-.555-.262-.027-.99-.1-.419-.042-.868-.091a.925.925,0,0,0-1.483-.451l-.678-.6s-.165-.326-.41-.711c-.052-.082-.108-.168-.168-.254s-.133-.188-.205-.277a3.072,3.072,0,0,0-.313-.353l0,0a1.108,1.108,0,0,0-.506-.32.421.421,0,0,0-.129-.008,1.192,1.192,0,0,0-.15.054h0a1.126,1.126,0,0,0-.405.266h0a6.42,6.42,0,0,0-.256-.6l-.31-.077.022-.049.208-.447c.915-.152,1.783-.416,1.114-.837a1.764,1.764,0,0,0-.375-.179c.6-.114,2.02-.4,3.252-.765,1.61-.477,2.442-1.788,3.286-2.029.611-.176,1.657-1.509,2.19-2.234.02.506.135,2.058.774,2.49.411.278.627.241.676-.054.02.185.065.236.157.047.122-.252.266-.522.4-.81.7.113.761-.221.3-.881a2.78,2.78,0,0,0,.055-.4.827.827,0,0,0,.228-.052c.761-.3.542-.664-.413-1.047,0-.01-.01-.021-.015-.031.008-.036.016-.071.024-.109.535.267,1.151.446.9-.32-.176-.536-.47-.713-.752-.739.122-1.14.225-2.391.829-2.728a10.83,10.83,0,0,0,2.354-2.077s-.768,4.44-.165,3.3,1.884-5.339,2.516-5.381-.6,6.073,1.808,1.246a32.658,32.658,0,0,0,1.67-3.626l1.8.646c.087.34.178.679.271,1.014Zm1.761,20.118c.125-.852.246-1.806.362-2.6l.434,1.954.22-.121a7.674,7.674,0,0,0,.1.883Zm1.438.148a20.047,20.047,0,0,0,.636-2.906c.573-3.326.735-4.369.735-4.369l.316-.148.419,6.2s0,.558.007,1.441Zm10.142,1.047-.541-.055c-.15-1.665-.353-3.256-.353-3.256Zm-3.21-1.095c.454,1.615-.3-4.915-.3-4.915a12.385,12.385,0,0,0,1.631,2.766c.341.345.494,1.7.619,3.114l-4.182-.432c-.077-1.142-.129-1.878-.129-1.878l-.059-2.207c.942,2.565.14-4.108.491-4.129.409-.03,1.475,6.068,1.927,7.68" transform="translate(0 -738.034)" fill="#44552e"/>
        <path id="Trazado_202790" data-name="Trazado 202790" d="M152.653,1269.839a1.335,1.335,0,0,0,.376-.408s-1.434.357-1.567.821c-.052.182.145.166.416.052-.007.012-.016.023-.021.036-.219.471.084.487.746.156l.582-.775a3.965,3.965,0,0,0-.53.117" transform="translate(-122.913 -1030.214)" fill="#403501"/>
        <path id="Trazado_202791" data-name="Trazado 202791" d="M152.7,1268.365a3.8,3.8,0,0,1,.969-.766,1.588,1.588,0,0,0-.673.2c-.457.429-.445.853-.3.568" transform="translate(-123.847 -1028.727)" fill="#403501"/>
        <path id="Trazado_202792" data-name="Trazado 202792" d="M180.721,1256.326c-.58-.21-.928.006-.618,0a3.679,3.679,0,0,1,1.11.516s-.289-.447-.492-.52" transform="translate(-146.069 -1019.504)" fill="#403501"/>
        <path id="Trazado_202793" data-name="Trazado 202793" d="M180.707,1250.622c.2.3.267.11.267.11a1.261,1.261,0,0,0-.8-.828s-.482-.091-.242.2.578.218.776.516" transform="translate(-145.969 -1014.356)" fill="#403501"/>
        <path id="Trazado_202794" data-name="Trazado 202794" d="M178.655,1231.26l.166.1a.235.235,0,0,0-.166-.1" transform="translate(-144.988 -999.236)" fill="#403501"/>
        <path id="Trazado_202795" data-name="Trazado 202795" d="M164.337,1272.868l.063-.047a.092.092,0,0,0-.063.047" transform="translate(-133.369 -1032.965)" fill="#403501"/>
        <path id="Trazado_202796" data-name="Trazado 202796" d="M160.456,1273.841c.737-.186.434-.621.514-.773-.265.2-1.249.959-.514.773" transform="translate(-130.002 -1033.166)" fill="#403501"/>
        <path id="Trazado_202797" data-name="Trazado 202797" d="M230.49,1265.19c.2.384.217-.187-.4-.769a2.161,2.161,0,0,0-.907-.268,5.089,5.089,0,0,1,1.307,1.036" transform="translate(-185.995 -1025.932)" fill="#403501"/>
        <path id="Trazado_202798" data-name="Trazado 202798" d="M224.168,1268.481a2.154,2.154,0,0,0-.913-.247,5.082,5.082,0,0,1,1.329,1.007c.208.38.213-.193-.416-.76" transform="translate(-181.184 -1029.243)" fill="#403501"/>
        <path id="Trazado_202799" data-name="Trazado 202799" d="M11.694,1201.434a3.793,3.793,0,0,1,.969-.766,1.59,1.59,0,0,0-.672.2c-.457.429-.445.853-.3.568" transform="translate(-9.416 -974.409)" fill="#403501"/>
        <path id="Trazado_202800" data-name="Trazado 202800" d="M2.006,1196.169l.644-.719s-1.116.045-1.373.495.043.495.729.224" transform="translate(-0.962 -970.174)" fill="#403501"/>
        <path id="Trazado_202801" data-name="Trazado 202801" d="M119.671,1149.112l.234.139a.332.332,0,0,0-.234-.139" transform="translate(-97.12 -932.569)" fill="#403501"/>
        <path id="Trazado_202802" data-name="Trazado 202802" d="M193.009,1197.12c.283.544.307-.265-.565-1.088a3.059,3.059,0,0,0-1.284-.379,7.2,7.2,0,0,1,1.849,1.466" transform="translate(-155.137 -970.34)" fill="#403501"/>
        <path id="Trazado_202803" data-name="Trazado 202803" d="M184.065,1201.774a3.046,3.046,0,0,0-1.292-.349,7.2,7.2,0,0,1,1.88,1.425c.294.537.3-.273-.588-1.075" transform="translate(-148.33 -975.024)" fill="#403501"/>
      </g>
    </g>
  </g>
</svg>
