<svg xmlns="http://www.w3.org/2000/svg" xmlns:xlink="http://www.w3.org/1999/xlink" width="63" height="63" viewBox="0 0 63 63">
  <defs>
    <linearGradient id="linear-gradient" x1="0.5" x2="0.5" y2="0.624" gradientUnits="objectBoundingBox">
      <stop offset="0" stop-color="#ffc846"/>
      <stop offset="1" stop-color="#fff7e3"/>
    </linearGradient>
  </defs>
  <g id="Grupo_150793" data-name="Grupo 150793" transform="translate(-292 -14492)">
    <circle id="Elipse_4841" data-name="Elipse 4841" cx="31.5" cy="31.5" r="31.5" transform="translate(292 14492)" fill="url(#linear-gradient)"/>
    <g id="aceite-de-oliva" transform="translate(295.51 14492.475)">
      <g id="Grupo_150782" data-name="Grupo 150782" transform="translate(19.504 6.14)">
        <g id="Grupo_150778" data-name="Grupo 150778" transform="translate(8.946 0)">
          <path id="Trazado_199689" data-name="Trazado 199689" d="M286.535,11.781h7.651l1.431-4.923a.561.561,0,0,0-.539-.718H285.6a.561.561,0,0,0-.537.722Z" transform="translate(-285.034 -6.14)" fill="#ffbd86"/>
          <path id="Trazado_199690" data-name="Trazado 199690" d="M286.534,11.781h3.258l-1.476-4.918a.561.561,0,0,1,.537-.722H285.6a.561.561,0,0,0-.537.722Z" transform="translate(-285.034 -6.14)" fill="#f6a96c"/>
          <path id="Trazado_199691" data-name="Trazado 199691" d="M378.752,173.425a3.92,3.92,0,1,1,5.711,5.357,13.568,13.568,0,0,1,2.5,1.611,6.85,6.85,0,0,0-8.211-10.6v3.63Z" transform="translate(-369.397 -152.841)" fill="#62dbfb"/>
        </g>
        <path id="Trazado_199692" data-name="Trazado 199692" d="M215.965,111.56a2.654,2.654,0,0,1-2.154-2.612v-13.1h-8.118v13.072a2.654,2.654,0,0,1-2.185,2.618,13.562,13.562,0,0,0-7.516,4.079c.074.85.113,1.716.113,2.591a28.432,28.432,0,0,1-.673,6.26l-.021.095.094.024a6.949,6.949,0,0,1,3.192,1.834,6.791,6.791,0,0,1,2.025,4.438,5.5,5.5,0,0,1-1.57,4.239q-.186.186-.389.352a11.789,11.789,0,0,0,5.44,1.326h10.913a11.931,11.931,0,0,0,11.9-11.9,13.6,13.6,0,0,0-11.047-13.314Z" transform="translate(-195.411 -86.889)" fill="#c8effe"/>
        <g id="Grupo_150779" data-name="Grupo 150779" transform="translate(0.582 8.954)">
          <path id="Trazado_199693" data-name="Trazado 199693" d="M201.3,119.961a11.036,11.036,0,0,1,7.9-5.9l2.573,0c.073-.014.146-.03.219-.043a2.654,2.654,0,0,0,2.185-2.618V95.843h-3.239v13.072a2.654,2.654,0,0,1-2.185,2.618,13.562,13.562,0,0,0-7.516,4.079c.074.85.113,1.716.113,2.591Q201.351,119.09,201.3,119.961Z" transform="translate(-201.238 -95.843)" fill="#99e6fc"/>
        </g>
        <path id="Trazado_199694" data-name="Trazado 199694" d="M221.87,282.164a11.036,11.036,0,0,0-6.381-3.753l-11.533-.022a11.036,11.036,0,0,0-7.9,5.9,27.58,27.58,0,0,1-.621,4.5l-.021.095.094.024a6.949,6.949,0,0,1,3.192,1.834,6.791,6.791,0,0,1,2.025,4.438,5.769,5.769,0,0,1-.411,2.494,9.269,9.269,0,0,0,3.892.852h10.913a9.336,9.336,0,0,0,9.325-9.325A10.962,10.962,0,0,0,221.87,282.164Z" transform="translate(-195.411 -251.214)" fill="#fac600"/>
        <path id="Trazado_199695" data-name="Trazado 199695" d="M200.277,289.2a11.025,11.025,0,0,1,9.027-10.8l-5.348-.01a11.036,11.036,0,0,0-7.9,5.9,27.58,27.58,0,0,1-.621,4.5l-.021.095.094.024a6.949,6.949,0,0,1,3.192,1.834,6.791,6.791,0,0,1,2.025,4.438,5.769,5.769,0,0,1-.411,2.494,9.269,9.269,0,0,0,3.892.852h5.4A9.336,9.336,0,0,1,200.277,289.2Z" transform="translate(-195.411 -251.214)" fill="#e8b800"/>
        <g id="Grupo_150780" data-name="Grupo 150780" transform="translate(5.819 5.541)">
          <path id="Trazado_199696" data-name="Trazado 199696" d="M267.039,65.162h-9.987a2.661,2.661,0,0,1-2.186-1.144L253.8,62.485a.532.532,0,0,1,.437-.836h12.8a1.756,1.756,0,0,1,0,3.513Z" transform="translate(-253.706 -61.649)" fill="#99e6fc"/>
        </g>
        <g id="Grupo_150781" data-name="Grupo 150781" transform="translate(5.819 5.541)">
          <path id="Trazado_199697" data-name="Trazado 199697" d="M260.237,64.018l-1.064-1.533a.532.532,0,0,1,.437-.836h-5.37a.532.532,0,0,0-.437.836l1.064,1.533a2.661,2.661,0,0,0,2.186,1.144h5.37A2.661,2.661,0,0,1,260.237,64.018Z" transform="translate(-253.706 -61.649)" fill="#62dbfb"/>
        </g>
      </g>
      <g id="Grupo_150783" data-name="Grupo 150783" transform="translate(13.623 25.078)">
        <path id="Trazado_199698" data-name="Trazado 199698" d="M138.177,215.113a5.645,5.645,0,0,1,2.732-.687,6.32,6.32,0,0,1,1.567.2,28.579,28.579,0,0,0,.7-6.381c0-5.013-1.209-9.461-3.073-12.234a.319.319,0,0,0-.528,0c-1.865,2.774-3.073,7.221-3.073,12.234a29.382,29.382,0,0,0,.418,4.988C137.373,213.856,137.795,214.485,138.177,215.113Z" transform="translate(-136.498 -195.872)" fill="#09a76d"/>
        <path id="Trazado_199699" data-name="Trazado 199699" d="M138.178,215.113a5.449,5.449,0,0,1,1.18-.479,28.563,28.563,0,0,1-.7-6.388,24.658,24.658,0,0,1,2.258-10.832,13.081,13.081,0,0,0-.816-1.4.319.319,0,0,0-.528,0c-1.865,2.774-3.073,7.221-3.073,12.234a29.381,29.381,0,0,0,.418,4.988C137.374,213.856,137.8,214.484,138.178,215.113Z" transform="translate(-136.499 -195.872)" fill="#02905d"/>
        <path id="Trazado_199700" data-name="Trazado 199700" d="M163.931,285.817v-9.9a.749.749,0,0,0-1.5,0V286.1A5.739,5.739,0,0,1,163.931,285.817Z" transform="translate(-159.845 -267.254)" fill="#026841"/>
      </g>
      <g id="Grupo_150784" data-name="Grupo 150784" transform="translate(-0.002 32.507)">
        <path id="Trazado_199701" data-name="Trazado 199701" d="M7.615,282.573a7.03,7.03,0,0,1,2.6-.493,6.914,6.914,0,0,1,3.744,1.082c.051-.056.1-.111.156-.165a5.281,5.281,0,0,1,1.277-.939,28.373,28.373,0,0,0-4.188-5.28C7.657,273.232,3.658,270.942.378,270.3a.319.319,0,0,0-.374.374c.643,3.28,2.933,7.279,6.478,10.824Q7.042,282.056,7.615,282.573Z" transform="translate(0.002 -270.293)" fill="#09a76d"/>
        <path id="Trazado_199702" data-name="Trazado 199702" d="M7.616,282.573a7.029,7.029,0,0,1,2.6-.493c.189,0,.377.009.562.023a30.162,30.162,0,0,1-2.463-2.209,24.881,24.881,0,0,1-5.993-9.052A13.5,13.5,0,0,0,.38,270.3a.319.319,0,0,0-.374.374c.643,3.28,2.933,7.279,6.478,10.824Q7.043,282.056,7.616,282.573Z" transform="translate(0 -270.293)" fill="#02905d"/>
        <path id="Trazado_199703" data-name="Trazado 199703" d="M60.093,331.445a6.88,6.88,0,0,1,3.121,1l-7.12-7.12a.749.749,0,0,0-1.059,1.059Z" transform="translate(-49.344 -319.637)" fill="#026841"/>
      </g>
      <g id="Grupo_150792" data-name="Grupo 150792" transform="translate(3.655 40.957)">
        <g id="Grupo_150787" data-name="Grupo 150787" transform="translate(0 3.237)">
          <path id="Trazado_199704" data-name="Trazado 199704" d="M47.543,397.067a6.792,6.792,0,0,1-2.025-4.438A5.508,5.508,0,0,1,47,388.479a7.018,7.018,0,0,0-3.816-1.106c-3.622,0-6.558,2.648-6.558,5.914s2.936,5.914,6.558,5.914a6.9,6.9,0,0,0,4.712-1.8c-.122-.106-.241-.215-.356-.33Z" transform="translate(-36.63 -387.373)" fill="#8bc727"/>
          <g id="Grupo_150785" data-name="Grupo 150785" transform="translate(0 0)">
            <path id="Trazado_199705" data-name="Trazado 199705" d="M39.859,393.287a6.066,6.066,0,0,1,4.943-5.732,7.244,7.244,0,0,0-1.614-.181c-3.622,0-6.558,2.648-6.558,5.914s2.936,5.914,6.558,5.914a7.251,7.251,0,0,0,1.614-.181A6.066,6.066,0,0,1,39.859,393.287Z" transform="translate(-36.63 -387.373)" fill="#81b823"/>
          </g>
          <g id="Grupo_150786" data-name="Grupo 150786" transform="translate(1.945 4.462)">
            <path id="Trazado_199706" data-name="Trazado 199706" d="M56.862,434.979a.749.749,0,0,1-.749-.749v-1.405a.749.749,0,0,1,1.5,0v1.405A.749.749,0,0,1,56.862,434.979Z" transform="translate(-56.113 -432.077)" fill="#bbec6c"/>
          </g>
        </g>
        <g id="Grupo_150791" data-name="Grupo 150791" transform="translate(6.201 0)">
          <g id="Grupo_150788" data-name="Grupo 150788" transform="translate(0)">
            <ellipse id="Elipse_4844" data-name="Elipse 4844" cx="5.914" cy="6.558" rx="5.914" ry="6.558" transform="translate(0 8.362) rotate(-45)" fill="#8bc727"/>
          </g>
          <g id="Grupo_150789" data-name="Grupo 150789" transform="translate(2.58 2.577)">
            <path id="Trazado_199707" data-name="Trazado 199707" d="M129.857,391.19c-2.561-2.561-2.765-6.509-.455-8.818a5.425,5.425,0,0,1,2.415-1.4,5.79,5.79,0,0,0-5.614,1.4c-2.309,2.309-2.105,6.258.455,8.818a6.667,6.667,0,0,0,6.4,1.851A7.046,7.046,0,0,1,129.857,391.19Z" transform="translate(-124.596 -380.766)" fill="#81b823"/>
          </g>
          <g id="Grupo_150790" data-name="Grupo 150790" transform="translate(4.846 4.842)">
            <path id="Trazado_199708" data-name="Trazado 199708" d="M148.046,405.945a.749.749,0,0,1-.529-1.278l.994-.994a.749.749,0,1,1,1.059,1.059l-.994.994A.746.746,0,0,1,148.046,405.945Z" transform="translate(-147.297 -403.454)" fill="#bbec6c"/>
          </g>
        </g>
      </g>
    </g>
  </g>
</svg>
