<svg xmlns="http://www.w3.org/2000/svg" xmlns:xlink="http://www.w3.org/1999/xlink" width="400" height="325.344" viewBox="0 0 400 325.344">
  <defs>
    <clipPath id="clip-path">
      <rect id="Rectángulo_42476" data-name="Rectángulo 42476" width="376.855" height="312.928" fill="none"/>
    </clipPath>
    <clipPath id="clip-path-3">
      <rect id="Rectángulo_42455" data-name="Rectángulo 42455" width="149.806" height="202.7" fill="none"/>
    </clipPath>
    <clipPath id="clip-path-4">
      <rect id="Rectángulo_42456" data-name="Rectángulo 42456" width="149.087" height="189.17" fill="none"/>
    </clipPath>
    <clipPath id="clip-path-5">
      <rect id="Rectángulo_42457" data-name="Rectángulo 42457" width="186.762" height="111.719" fill="none"/>
    </clipPath>
    <clipPath id="clip-path-6">
      <path id="Trazado_202869" data-name="Trazado 202869" d="M365.5,298.446c-3.819.074-8.587.881-12.414.589v10.75a29.78,29.78,0,0,1,8.02.373c1.274.232,2.715.471,4.132.59,3.627.313,7.156-.164,7.737-3.693.813-4.916-.619-7.924-4.664-8.482a16.09,16.09,0,0,0-2.215-.134c-.2,0-.4,0-.6.007" transform="translate(-353.087 -298.439)" fill="#942e19"/>
    </clipPath>
    <clipPath id="clip-path-8">
      <path id="Trazado_202872" data-name="Trazado 202872" d="M288.666,235.653c-2.948,7.033-8.766,17.775-8.766,17.775l-18.9,24s2.612,5.257,6.714,5.967c0,0,21.045-18.9,22.77-22.506s6.394-10.816,6.394-10.816V227.64a2.151,2.151,0,0,0-.577-.064c-1.3,0-4.587.8-7.636,8.077" transform="translate(-260.999 -227.576)" fill="#c24127"/>
    </clipPath>
    <clipPath id="clip-path-10">
      <path id="Trazado_202883" data-name="Trazado 202883" d="M297.719,225.059a43.008,43.008,0,0,0-2.484,5.126c-.015.037-.03.075-.044.112s-.023.06-.029.09c-1.687,4.147-3.485,10.184-2.917,16.189.9,9.513,5.222,8.6,8.355,14.936.231.47.455.977.671,1.529.142.372.283.768.426,1.186,3.111,9.453,0,13.056,0,13.056s4.372,8.087,19.345,2.612a41.885,41.885,0,0,1,14.637-2.761c.008,0,.022.009.029,0a22.232,22.232,0,0,1,9.013,1.642s-2.492-13.548-13.929-21.882c0,0-2.291-19.6-9.75-29.179-3.13-4.018-8.07-7.479-13.346-7.479-3.316,0-6.764,1.367-9.977,4.823" transform="translate(-292.137 -220.236)" fill="#c24127"/>
    </clipPath>
    <clipPath id="clip-path-12">
      <rect id="Rectángulo_42465" data-name="Rectángulo 42465" width="35.08" height="45.793" fill="none"/>
    </clipPath>
    <clipPath id="clip-path-13">
      <rect id="Rectángulo_42466" data-name="Rectángulo 42466" width="12.79" height="32.655" fill="none"/>
    </clipPath>
    <clipPath id="clip-path-14">
      <path id="Trazado_202887" data-name="Trazado 202887" d="M303.252,247.913c-4.166,7.585-8.712,16.786-8.712,16.786l-24.611,19.522s0,3.979,6.216,7.833c0,0,24.744-10.941,30.465-18.9s18.154-26.609,11.191-34.941a4.924,4.924,0,0,0-3.738-2.108c-4.051,0-7.972,6.638-10.811,11.807" transform="translate(-269.929 -236.106)" fill="#c24127"/>
    </clipPath>
    <clipPath id="clip-path-16">
      <path id="Trazado_202899" data-name="Trazado 202899" d="M11.574,121.954s-.746,6.714,4.724,22.134,10.446,26.857,10.446,26.857v51.23s2.736,2.238,14.423,0c0,0,6.963-47.5,6.217-55.954s-5.72-44.267-5.72-44.267Z" transform="translate(-11.54 -121.954)" fill="none"/>
    </clipPath>
    <linearGradient id="linear-gradient" x1="-0.274" y1="1.927" x2="-0.248" y2="1.927" gradientUnits="objectBoundingBox">
      <stop offset="0" stop-color="#e85e38"/>
      <stop offset="1" stop-color="#f3734a"/>
    </linearGradient>
    <clipPath id="clip-path-18">
      <path id="Trazado_202910" data-name="Trazado 202910" d="M27.854,54.481s-6.714,4.79-12.429,28.538-6.341,39.294-6.341,39.294,17.159,10.817,40.033-3.485c0,0-2.567-7.542-3.245-19.874-.209-3.738-.246-11.895.014-16.431l-2.044-3.557L39.919,64.494S31.584,51.564,29.6,51.438c-.039,0-.077,0-.115,0-1.867,0-1.631,3.047-1.631,3.047" transform="translate(-9.084 -51.434)" fill="#869d69"/>
    </clipPath>
    <clipPath id="clip-path-20">
      <rect id="Rectángulo_42473" data-name="Rectángulo 42473" width="20.444" height="27.381" fill="none"/>
    </clipPath>
    <clipPath id="clip-path-21">
      <path id="Trazado_202926" data-name="Trazado 202926" d="M69.461,67.478c-3.361.006-23.508-3.316-30.41-5.554C33.382,60.085,22.363,66.5,27.988,75.956c2.333,3.922,8.1,6.271,12.637,6.785,7.752.881,21.378,2.67,31.1-.573,13.5-4.505,28.78-15.132,28.78-15.132s.476-5.392-4.861-10.348c0,0-22.819,10.783-26.182,10.79" transform="translate(-26.433 -56.688)" fill="#869d69"/>
    </clipPath>
  </defs>
  <g id="Grupo_150986" data-name="Grupo 150986" transform="translate(-1020 -834)">
    <g id="Grupo_150985" data-name="Grupo 150985" transform="translate(1043.145 846.416)">
      <g id="Grupo_150984" data-name="Grupo 150984" clip-path="url(#clip-path)">
        <g id="Grupo_150948" data-name="Grupo 150948">
          <g id="Grupo_150947" data-name="Grupo 150947" clip-path="url(#clip-path)">
            <path id="Trazado_202816" data-name="Trazado 202816" d="M164.761,312.668c0,4.539-36.883,8.219-82.38,8.219S0,317.207,0,312.668s36.883-8.219,82.38-8.219,82.38,3.68,82.38,8.219" transform="translate(0 -16.166)" fill="#c4d6d5"/>
            <path id="Trazado_202817" data-name="Trazado 202817" d="M375.352,308.031c0,7.091-36.883,12.839-82.38,12.839s-82.38-5.748-82.38-12.839,36.883-12.839,82.38-12.839,82.38,5.748,82.38,12.839" transform="translate(-11.182 -15.675)" fill="#c4d6d5"/>
            <path id="Trazado_202818" data-name="Trazado 202818" d="M369.237,292.539c0,4.539-48.068,8.219-107.364,8.219s-107.364-3.68-107.364-8.219,48.068-8.219,107.364-8.219,107.364,3.68,107.364,8.219" transform="translate(-8.204 -15.097)" fill="#c4d6d5"/>
            <path id="Trazado_202819" data-name="Trazado 202819" d="M208.469,320.116c0,1.09-2.12,1.973-4.734,1.973S199,321.206,199,320.116s2.12-1.973,4.734-1.973,4.734.883,4.734,1.973" transform="translate(-10.567 -16.893)" fill="#c4d6d5"/>
            <path id="Trazado_202820" data-name="Trazado 202820" d="M254.723,327.229c0,1.613-7.4,2.919-16.528,2.919s-16.528-1.307-16.528-2.919,7.4-2.919,16.528-2.919,16.528,1.307,16.528,2.919" transform="translate(-11.77 -17.221)" fill="#c4d6d5"/>
            <path id="Trazado_202821" data-name="Trazado 202821" d="M369.319,326.6c0,1.264-3.205,2.289-7.159,2.289S355,327.862,355,326.6s3.205-2.289,7.16-2.289,7.159,1.025,7.159,2.289" transform="translate(-18.85 -17.221)" fill="#c4d6d5"/>
            <path id="Trazado_202822" data-name="Trazado 202822" d="M335.768,170.469s13.009-17.346,17.2-36.188a25.3,25.3,0,0,0,10.916-25.421,48.8,48.8,0,0,1,4.786-30s-41.588,15.76-20.054,55.426c0,0,3.186,8.635-15.386,34.581Z" transform="translate(-17.694 -4.187)" fill="#869d69"/>
            <path id="Trazado_202823" data-name="Trazado 202823" d="M325.215,68.415a104.193,104.193,0,1,1-39.949-41.551,104.012,104.012,0,0,1,39.949,41.551" transform="translate(-6.84 -0.681)" fill="#90cae6"/>
            <path id="Trazado_202824" data-name="Trazado 202824" d="M261.117,219.07a19.81,19.81,0,0,0-3.067.768c-.821-.06-1.467-.489-1.276.181s.466.821-.059.927-.97.106-.29.421,1.2-.076,1.775-.474,1.481-1.645.8-.61-1.562,1.521-.215.944.6-.693,1.841-.9,1.583-.035,1.677-.27-.5-.4-.649-.762,1.615-.482-.54-.223" transform="translate(-13.598 -11.625)" fill="#077773"/>
            <path id="Trazado_202825" data-name="Trazado 202825" d="M204.468,92.273c.455.073,1.609-.3,5.415-.78s2.1-.456,1.615-.926-1.276-.262-2.085-.812-.283-.656-.937-.563a10.671,10.671,0,0,1-2.569-.648c-1.049-.231-.743.137-1.947-.737s-.244-.377-2.525-.337-1.685-.457-1.685-.457l-2.855-.2-2.629.722s-2.5.7-2.834,1.29a1.9,1.9,0,0,1-1.238,1.125c-.477.2-.072.39.533.4s.671.031,1.419-.962.557-.332,1.882-.837.5-.514,1.294-.722,1.458.2.893.474-.591.306.574.457.6.2,1.494.009.724.182,1.56.253.849.386,2.144.107.653-.093.969.56,1.056,2.509,1.51,2.581" transform="translate(-10.088 -4.61)" fill="#077773"/>
            <path id="Trazado_202826" data-name="Trazado 202826" d="M230.681,93.027c-.994-.037-.493.046-1.211.113-1.21.113-.9,1.3-.041,1.133s.417-.082,1.438.4.346-.249.793-.455,1.471-.624,1.419-.652-.651-.145-1.329-.382-.077-.119-1.07-.156" transform="translate(-12.142 -4.939)" fill="#077773"/>
            <path id="Trazado_202827" data-name="Trazado 202827" d="M205.193,84.005c.472-.035.81-.336.611-1.068s-1.047-2-1.532-1.84c-1.079.365-2.258-.249-.668,1.329s1.118,1.614,1.59,1.578" transform="translate(-10.77 -4.305)" fill="#077773"/>
            <path id="Trazado_202828" data-name="Trazado 202828" d="M207.9,24.5c-.116-.585-.567,0-.567,0l-.294.049c.587.209.94.351.861-.053" transform="translate(-10.994 -1.287)" fill="#077773"/>
            <path id="Trazado_202829" data-name="Trazado 202829" d="M206,24.261c-.873-.2-.844.552-1.307.618l.585-.083,1.631-.266a8.2,8.2,0,0,0-.909-.269" transform="translate(-10.869 -1.286)" fill="#077773"/>
            <path id="Trazado_202830" data-name="Trazado 202830" d="M203.088,25.37s-.657.294-.146.317.3.1,1.225-.32c.2-.088.328-.221.453-.238l-.166.023c-1.214.173-1.366.218-1.366.218" transform="translate(-10.766 -1.334)" fill="#077773"/>
            <path id="Trazado_202831" data-name="Trazado 202831" d="M205.619,25.11a2.21,2.21,0,0,1-1.178.649s.284.881.471.854l1.245-.177a4.305,4.305,0,0,0,0-.914c-.062-.259-.543-.412-.543-.412" transform="translate(-10.856 -1.333)" fill="#077773"/>
            <path id="Trazado_202832" data-name="Trazado 202832" d="M208.3,25.858c.183-.279-.106-.745-.106-.745l-.6.276-.17.594s.689.155.872-.124" transform="translate(-11.014 -1.333)" fill="#077773"/>
            <path id="Trazado_202833" data-name="Trazado 202833" d="M240.057,38.485c.544.3.526.519,1.1.033a2.57,2.57,0,0,0,.653-.925.573.573,0,0,0,.732-.222c.154-.259-.082-.249.271-.442s.564-.388.575-.485.42-.226-.077-.535-1.271.109-.863-.543,1.854-.525.258-.867-1.5-.356-2.2-.234.262.509-1.108.253-1.808-.147-1.39-.728,1.109-1.417.956-1.655-.387-.373-.911-.2a4.019,4.019,0,0,0-1.1.655,8.385,8.385,0,0,1-.235,1.2l-.622,1.323-.334,1s.193.02-.174.286-1.435.3-.687.359,1.384-.15.65.383-1.784.895-.732.816,3.307-.47,3.307-.47l.76-.18.9.466a8.081,8.081,0,0,1,1.247-.438c.059-.009.105-.017.147-.025a.564.564,0,0,1-.173.5c-.514.57-1.5.377-.952.68" transform="translate(-12.445 -1.692)" fill="#077773"/>
            <path id="Trazado_202834" data-name="Trazado 202834" d="M233.566,41a3.527,3.527,0,0,0,.5.475c.184.116,0,0,.633-.232s.5-.332.548-.506-.617.016-.98-.193-.14-.146-.462-1.24-.381-.159-.381-.159l-.9,1.177a4.066,4.066,0,0,0-.075.98c.007.454.54.446.836.356s0,0,.034-.266a.561.561,0,0,1,.254-.392" transform="translate(-12.343 -2.059)" fill="#077773"/>
            <path id="Trazado_202835" data-name="Trazado 202835" d="M243.751,38.338c.026.187.507-.595.64-.091s.263.58.263.58l.852-.375.439-.758.064-.553s-.076-.7-.456-.53-.3.258-.6.49-.2.455-.3.231a6.375,6.375,0,0,1-.216-1.014c-.567.366-.588.725-.588.725a.489.489,0,0,0-.295.612,2.6,2.6,0,0,1,.193.685" transform="translate(-12.931 -1.928)" fill="#077773"/>
            <path id="Trazado_202836" data-name="Trazado 202836" d="M224.009,15.343a12.551,12.551,0,0,0,3.4-.42l2.321.461c2.32.462.4.165,1.511.355s.5-.07,1.339-.19.449.253-.08.329-.512.2-1.268.465.129.235,1.165.373,1.169-.483,1.169-.483a.543.543,0,0,1,.08.559c-.152.275-.169.151-.508.673s0,0,.711.536a21.918,21.918,0,0,0,2.275,1.256,38.181,38.181,0,0,0,4.169,1.4l2.552-.141a7.371,7.371,0,0,1,2.277.152c1.151.279.67.474.951.435a14.417,14.417,0,0,0,2.148-.084c.076-.137-.755-1.063-1.189-1.667s-.141-.772-.141-.772l-.226-.474s-.609-.926-.274-1.254.555-.116,2.334-.337.645-.154.085-.74-.116-.364.2-.407.65.1.841-.119.409-.247,1.187-.358,1.441-.138.588-.777-3.333-.217-11.47-.77a47.113,47.113,0,0,0-12.964.587c-.443.063-2.2.453-2.614.544a27.141,27.141,0,0,1-2.774.594,12.646,12.646,0,0,1-1.986.271,5.693,5.693,0,0,0-1.636.4,3.963,3.963,0,0,0-.631.236,15.76,15.76,0,0,1,2.221-.061c3.766.13,1.494-.435,4.238-.571" transform="translate(-11.552 -0.7)" fill="#077773"/>
            <path id="Trazado_202837" data-name="Trazado 202837" d="M263.373,17.155c1.488-.093,1.874.446,2.5.024a24.86,24.86,0,0,0-4.211-1.3,15.415,15.415,0,0,0-2.148.306l.639,1.144s1.727-.08,3.215-.172" transform="translate(-13.78 -0.843)" fill="#077773"/>
            <path id="Trazado_202838" data-name="Trazado 202838" d="M288.761,28.348s1.3-.232,1.367-.432a1.427,1.427,0,0,0-.2-1.443A36.781,36.781,0,0,0,285.5,24.49a.583.583,0,0,0-.534.6l1.264,2.195Z" transform="translate(-15.131 -1.3)" fill="#077773"/>
            <path id="Trazado_202839" data-name="Trazado 202839" d="M304.856,40.937a5.53,5.53,0,0,0,1.3,2.666,9.258,9.258,0,0,0,1.19,1.223c.5.372,3.256,2.355,4.091,2.188s1.239,1.346,1.168-.165.408-1.151-.278-1.955-1.105-1.411-1.665-2-1.287-.672-1.446-1.79a10.382,10.382,0,0,1-.171-1.875c-.012-.758-10.51-7.909-10.51-7.909-1.774.252-3.826-1.118-1.774.252a21.123,21.123,0,0,1,2.333,1.663l1.9,1.3s3.373,1.942,3.345,2.754-3.716-.327-3.27.465,3.626,1.748,3.792,3.181" transform="translate(-15.712 -1.644)" fill="#077773"/>
            <path id="Trazado_202840" data-name="Trazado 202840" d="M310.456,83.525c-.287-.173-.653.093-.653.093-.151.449-.154.592.242.7s.513-.073.513-.073.185-.548-.1-.722" transform="translate(-16.445 -4.432)" fill="#077773"/>
            <path id="Trazado_202841" data-name="Trazado 202841" d="M311.519,84.132c-.384.316-.437.442-.231.555a5.361,5.361,0,0,0,.583.25l.291-.469Z" transform="translate(-16.523 -4.467)" fill="#077773"/>
            <path id="Trazado_202842" data-name="Trazado 202842" d="M312.449,83.6l.456.2.357-.17-.456-.529c-.431.323-.357.5-.357.5" transform="translate(-16.591 -4.412)" fill="#077773"/>
            <path id="Trazado_202843" data-name="Trazado 202843" d="M313.06,84.887l.593.319.37-.242-.639-.645a.621.621,0,0,0-.324.568" transform="translate(-16.623 -4.477)" fill="#077773"/>
            <path id="Trazado_202844" data-name="Trazado 202844" d="M313.375,86.3c.311.169.323.6.544.3l.221-.293-.827-.453c-.117.183-.247.273.062.442" transform="translate(-16.63 -4.559)" fill="#077773"/>
            <path id="Trazado_202845" data-name="Trazado 202845" d="M312.347,86.787a.776.776,0,0,0,.423.462.5.5,0,0,0,.4-.056s-.3-.552-.33-.642-.49.236-.49.236" transform="translate(-16.586 -4.595)" fill="#077773"/>
            <path id="Trazado_202846" data-name="Trazado 202846" d="M310.937,86.947l.6.39.194-.5-.509-.4Z" transform="translate(-16.511 -4.59)" fill="#077773"/>
            <path id="Trazado_202847" data-name="Trazado 202847" d="M287.818,216.928c-.756.045-1.641.075-1.641.075a.552.552,0,0,0-.237.793l.858.448s1.2.43,1.547.16,1.258.137.45-.633-.222-.887-.977-.843" transform="translate(-15.179 -11.518)" fill="#077773"/>
            <path id="Trazado_202848" data-name="Trazado 202848" d="M235.548,222.231c-.033-.122-.322-.137-.322-.137s-.17.253.02.132c.062-.042.141,0,.217.073.058-.015.093-.036.085-.067" transform="translate(-12.487 -11.793)" fill="#077773"/>
            <path id="Trazado_202849" data-name="Trazado 202849" d="M236.021,222.7v-.009l-.007.01Z" transform="translate(-12.532 -11.825)" fill="#077773"/>
            <path id="Trazado_202850" data-name="Trazado 202850" d="M235.406,222.444c-.164.044-.736.009-.817.1a3.8,3.8,0,0,1-.859.354l.051.357.933.058.692-.063a2.266,2.266,0,0,1,.522-.312l-.21.029a2.03,2.03,0,0,0-.312-.526" transform="translate(-12.411 -11.812)" fill="#077773"/>
            <path id="Trazado_202851" data-name="Trazado 202851" d="M219.2,96.066c.5-.293.7-1.113,1.241-1.7s.654.287,1.772-.347.156-.466,1.752.036,1.325.381,1.69-.62-1.862-1.034-3.15-1.611-1.12-.727-3.4-.687-.868.6-1.984.124-1.276-.2-2.49.353c-.786.359-.023.732.973.59s.733.244.817.834-.334.554-.9.828A8.764,8.764,0,0,1,212.71,94.9c-1.757.377.106.745.106.745a8.36,8.36,0,0,0,2.774-.141c1.668-.332,1.05-.656,2.637-.438l.077.012c1.471.241.4,1.277.892.99" transform="translate(-11.255 -4.833)" fill="#077773"/>
            <path id="Trazado_202852" data-name="Trazado 202852" d="M341.65,85.931a103,103,0,0,0-21.28-36.666l-1.676-1.333c-1.727-.419-2.194-.686-2.568-.3s-.9,1.03-.862,1.31,1.427-.012.04.279-1.581.605-1.915.273-1.219-1.869-1.02-1.137,1.346,2.088,1.258,2.813a10.183,10.183,0,0,0,.071,2.174,18.807,18.807,0,0,0,1.353,3.464,1.423,1.423,0,0,1,1.136,1.644c-.129,1.442-.1,1.629-.2,2.26-.084.523-.563.322-.614,1.029a15.372,15.372,0,0,1,3.567-.025s.657.433,1.7,1.187l.012-.029a2.328,2.328,0,0,0-.159,1.28c.159.674-.073,1.276-.708,1.051s-2.475-1.548-1.72-.262,1.91,1.818,1.268,2.668-1.439-.744-.641.851,2.513,3.379,1.463,3.592c-.76.153-2.608-.069-3.975.167a8.149,8.149,0,0,0,1.405,2.082c.566.632-.332,1.012.809,2.117a4.529,4.529,0,0,1,1.206,3.12,4.109,4.109,0,0,0,.419,1.54c.074.153.157.313.26.485.526.875-.075,1.562-.1,2.072s-.031.226.865,1.4,1.418.59,1.118,1.836a2.082,2.082,0,0,0,1.043,2.416c.786.616.911-.066,1.1,1.016a1.567,1.567,0,0,0,.778,1.078c.34.21.672.3.728.354.111.111,1.737,1.273,1.82,2.306.081,1,1.006,2.638,3.122,4.733.061.06.118.119.181.18,2.248,2.182,2.889,4.908,3.954,3.458a8.667,8.667,0,0,1,2.581-2.171c.223-.222.125-.683.8-.842s1.019-.208.832-.847a2.116,2.116,0,0,1,.429-1.676s-1.114-6.268-.961-6.8a6.27,6.27,0,0,0-.931-3.161.5.5,0,0,0-.3-.19.474.474,0,0,1,.344.185,6.244,6.244,0,0,1,.909,3.163c-.152.528.951,6.8.951,6.8.218-.253.858-.85,1.239.932s.172,1.906.667,1.8,1.15-.607,1.487.865c.14.611-.181-5.288-.6-12.4Q342,87,341.65,85.931m-15.886-2.679,0,0c.029.04.057.084.085.126-.029-.043-.057-.087-.087-.129m-1.976-17.944h0c-.025.02-.049.032-.074.05.025-.018.049-.031.075-.05m3.158,22.811a2.635,2.635,0,0,0,.387.155,2.572,2.572,0,0,1-.387-.155m8.469-7.468a6.058,6.058,0,0,1,.149.779,6.467,6.467,0,0,0-.146-.758,28.5,28.5,0,0,0-2.648-5.662,28.226,28.226,0,0,1,2.645,5.642m-4.631,14.3h0l.009,0-.012,0m2.82-3.718h-.022c0,.006-.008.007-.009.011a.4.4,0,0,0,.023-.2.5.5,0,0,1,.009.191m1.489.388v0c.031.015.063.035.094.051-.032-.017-.063-.03-.095-.046m-.6-1.629c.082.29.54.647.615,1.189-.089-.541-.548-.9-.615-1.189m-1.632-3.881a10.068,10.068,0,0,0,.072,2.528,10.226,10.226,0,0,1-.11-2.753c.179-2.114-.34-2.637,1.038-3.675a1.817,1.817,0,0,1,1.013-.4,1.205,1.205,0,0,0,.107.9c-.264.017-.664-.335-1.045-.047-1.378,1.038-.9,1.335-1.075,3.45m4.276.713a1.434,1.434,0,0,0-.128,1.007c.1.7.094.96-.864,1.3.759-.312.148-.488.049-1.177-.045-.32-.768-.5-.794-.684h0c.513-1.733-1.152-3.122-.694-4.46.395.847,1.479,1.861,1.971,2.853a2.758,2.758,0,0,1,.46,1.162" transform="translate(-16.585 -2.519)" fill="#077773"/>
            <path id="Trazado_202853" data-name="Trazado 202853" d="M295.777,126.49c-1.3.232-1.357.288-3.707-1.278s-3.574-1.454-4.378-1.309-2.366.558-2.535.266-.515-.276-.774.141-.618.119-1.956-.355-1.2.076-1.8.731-1.274,1.542-1.287,1.45,0-.413-.026-.63a3.11,3.11,0,0,1,.237-1.237c.219-.7-.172-.989-.47-1.294s-.991-.271-1.6-.089-.1-.492-.462-.79-1.8-.155-3.255-.55-1.729-.1-2.353.43-.477,1.556-.967,1.91-1.1.979-1.09.82-.551-.3.041-.608.48-.417,1.055-1.067.209-.758.375-1.6-.075-.306-1-.3a7.717,7.717,0,0,1-2.876-1.016c-.952-.435-.7.922-.7.922a3.075,3.075,0,0,0-1.317,1.01,4.577,4.577,0,0,0-.687,1.871c-.1.647-.778.554-.662.03s.508-.895,1.207-2.451.374-.275.915-.716.394-.246.428-.678,1-1.789.929-2.285-.467.066-.822.022-1-.745-1.67-1.916-.79-2.547-1.906-2.578c-.545-.015-1.527.016-1.55-.137s.585-.462.128-.705c-.893-.474-.4-.085-1.027-.8s-.65-.572-1.276-.625a8.416,8.416,0,0,1-1.586-.36c0-.013.008-.024.01-.037-.255-.073-.535-.158-.848-.257-1.247-.392-1.354.193-1.354.193s-1.44-.08-1.962.611-.673-.046-2.121.159c-.821.116-1.035.086-1.149-.055a3.277,3.277,0,0,0-.312-.5,4.1,4.1,0,0,0-2.884-.572c-.942.134-.156-.262-.147-.865s-.137-.3-.723-.847a4.219,4.219,0,0,0-1.789-.746c-.171-.052-.349-.114-.536-.189-.978-.4-.934-.089-1.28-.294-.312-.184-.3-.416-.632-1.058-.037-.072-.077-.146-.123-.227a1.668,1.668,0,0,0-1.471-.682c-.251-.013-.472-.009-.608-.028a14.658,14.658,0,0,1-2.174-.38c-.283-.15-.366-.731-.728-1.274s-.4.057-2.185.216-1.364.122-1.321.592.04.445-.8,1.04-.764.489-1.731.389a6.213,6.213,0,0,1-2.387-1.2c-.52-.306-.633.066-1.277.562a2.62,2.62,0,0,1-2,.522c-.954-.007-.593-.319-.675-1.234s-.919-.772-3.128-.719-1.612.894-2.846,1.259-.867.1-.775.751,1,1.852,1.132,2.594-.041.719-.622.991-.694.644-.727.245-.406-.512-.793-1.051.121-.491.178-.927.313-.306.531-.788-.186-.8-.315-1.214-.343-.4-.836-1.021.017-.383.661-.711.488-.425.665-1.186-.65-.549-1.7-.067-.358,1.333-.884,1.147-.857-.33-.875.552a.844.844,0,0,1-1.095.844c-.3-.077-1.04-.279-1.15-.05s-.1.821-.735.7-.443.063-1.271.608-.652,1.779-.488,2.943-.774-.08-1.188,1.024-1.381.339-1.188,1.688-.251.582-.351.383a1.413,1.413,0,0,0-.254-.337,6.345,6.345,0,0,0-.662-.578c-.59-.462-.74-.18-1.656-1.094s-2.8.255-4.039.574a13.173,13.173,0,0,0-2.716,1.344c-.954.437-1.229-.157-1.578-.709s-.331-.1-.3.328-.219.031-.443.015-.358-.17-.3-.654c.046-.384-.117-.328-.452-.355a1.737,1.737,0,0,1-.288-.045c-.527-.132-.663-.413-.9-.758a5.084,5.084,0,0,1-.6-1.054,3.911,3.911,0,0,0-.476-.835s-.3-.432-.582-.914-.233-.466.171-.808-.024-.163-.213-.825.1-.442.608-.918-.145-.913-.26-1.5.009-.381.205-1.01a12.427,12.427,0,0,1,.558-1.329.552.552,0,0,0-.564-.783c-.183.05-.747.273-1.164.356s.394-.246.654-.592.563-.223.808-.518.117-.349-.217-.349-.623-.2-1.266-.532-1.264-.01-1.648-.36-1.051.482-1.541.219-.572.113-1.284.468a3.669,3.669,0,0,1-2.374.052c-.818-.169-.8.4-1.116.19s-.147-.137-.721.071-.533-.177-.876-.129c-.112.016-.1-.036-.019-.138.173-.21.676-.636,1.141-1.129.69-.732.375-1.383.358-2.172s.273-.767.713-1.02c.231-.133.136-.158.119-.4a2.89,2.89,0,0,1,.447-1.423c.869-1.706.469-.953.42-1.516a2.07,2.07,0,0,1,.161-1.321c.227-.412,1.042-1.382,1.367-2s.3-1.024-.59-.8-1.019.651-1.49.243-2.037.194-3.166.513-1.157.8-1.274,1.986a8.9,8.9,0,0,1-.817,2.966c-.326.615-.735.865-2.341,1.187s-.307.3-1.161.544-.7.2-1.8.984-1.227-.142-1.657-.714-1.068.311-1.681-.2-.33-1.14-.4-1.8-.8-.6-1.028-1.705a24.872,24.872,0,0,1-.787-3.023c-.232-1.63-.146-1.024.443-2.913s.063-1.576.53-2.307a2,2,0,0,0,.293-.808,6.624,6.624,0,0,0-.044-1.46c-.056-.728-.066-.465.218-.98a1.355,1.355,0,0,0,.239-1.174c-.083-.581.117-.682.605-1.273s.644-.5.818-.948.143-.163.89-.269.364-.123.648-.472.184-.05.687-.193.354-.192.4-.555-.187-.473.1-.988.237.323,1.548-.339.51-.429,1.481-.139.723.063,1.481-.3.376.3.783.315a3.584,3.584,0,0,1,1.094.153.739.739,0,0,0,1.011-.429c.207-.385.353-.027.743.2s.19-.336-.262-.842,0-.475-.029-1.041-.21.03-.723.1-.467-.1-.189-.5.713-.007,1.917-.082,1.041-.386,1.195-.645.126.053.216.515.285-.064,1.286-.4.422-.488,1.973-.138.012.925,1.459,1.051,1.112-.672,1.952-.792.841.1,1.338.7,1.1.129,1.369.945-.3.992-.257,1.746.349,1.787.751,1.73.159.42.42.7,1.359,1.739,1.648,1.76.841.324,1.526-.66a2.89,2.89,0,0,0-.112-3.245c-.627-.608-.248-.851-.181-1.494s-.24-.567-.7-1.356a8.69,8.69,0,0,1-.812-1.911c-.218-.634-.525-.559-.181-1.273a10.255,10.255,0,0,1,1.044-2.254,22.075,22.075,0,0,1,1.829-1.543,20.616,20.616,0,0,0,1.964-1.941c.668-.665,1.651-.615,1.785-1.013s.34-.349,1.329-.87a8.685,8.685,0,0,0,1.446-.886c.784-.523,1.2-1.3.354-1.7s-.044-.3,1.191-.668-.22-.373-.663-.642-.426-.651-.38-1.157a2.416,2.416,0,0,0,.026-1.333c-.2-.708.051-.981.555-1.622s.03.209.009.9.089.462.6.7.463.242.513-.24a7.939,7.939,0,0,1,.1-1.32c.124-.469.133-.066.743.2s.26-.18.765-.821.361-.479.478-1.161c0,0-.71-.3.207-.552s.094-.346.508-.784.247-.106,1.538-.242,1.268-.133,1.515-.738.187-.027.91.2.932-.821.745-.96-.714-.16-.733-.8-.082-.748,1.1-1.8.811-.329,1.4-.841.415-.438,1.008-.452.685-.216,1.1-.3.419-.352,1.223-.5.437-.284.352-.762.064-.215,1.024-.4a9.843,9.843,0,0,0,2.4-.959c.865-.392.042.294.084.367a12.432,12.432,0,0,0,1.26-.068c.92,0,.049.231-.021.415s-.4.215-.8.177-.416-.131-.754.06-1.337.649-1.337.649a7.506,7.506,0,0,1-.275.752,1.761,1.761,0,0,0-.234.809c-.018.319.482.6.733.577a5.368,5.368,0,0,0,1.273-.545,5.075,5.075,0,0,0,.956-.864c.283-.246-.017-.235.141-.574s.482.152.482.152a1.247,1.247,0,0,0,.574-.319c.326-.283.189-.121.714-.228s.656-.077.926-.416.167-.167,1.156-.466.4-.42.1-.758-.233.033-.65-.224-.025-.17-.323.078-.365,0-1.329.141-1.452-.046-1.539-.319.027-.312-.91-.369-.437-.223-.528-.874-.02-.14-.58-.061-.131-.077.1-.632.294-.445.4-.722-.526-.02-.911.3-.666.26-.923-.047-.329-.214-.874-.2-.153-.074-.008-.141a1.613,1.613,0,0,1,.631-.173,1.3,1.3,0,0,1,.688.068l.882-.244a8.424,8.424,0,0,0,1.156-.413c.707-.3.658-.4.119-.587a2.823,2.823,0,0,0-1.81-.3,16.091,16.091,0,0,0-3.058.894s-1.092.472-1.642.74a5.7,5.7,0,0,0-1.49,1.131c-.516.5-.77.062-.453-.395s.86-.759,1.528-1.507.8-.161,1.626-.207.633-.233,1.122-1.157.521-.359,1.194-.644a7.887,7.887,0,0,1,2.149-.306s1.7-.1,4.242-.318,1.175-.452,2.6-1.462.693-.937,2.194-1.214,1.023-.289,1.023-.289a1.9,1.9,0,0,0,.931-.718c.543-.647-.363-.146-.325-.722s-.22-.538-.83-.808-.743.13-.869-.257.09-.2-1.218-.016a4.028,4.028,0,0,0-2.025.833,1.453,1.453,0,0,1-.94.253c-.361-.02.32-.425.32-.425a4.275,4.275,0,0,0,1.308-.352,8,8,0,0,1,1.018-.548c.668-.332.718-.316.288-.492s.18-.405-.774-.08-1.074.152-1.3-.243-.14.02-.878.2-.794.113-.966-.433-1,0-1.608.086-.4-.323-.156-.927-.116-.151-.209-.635-.2-.257-1.39-.562a6.175,6.175,0,0,1-2.542-1.3c-.93-.675-.37.076-.444.229s-.528.977-.722,1.29-.538.076-1.489.758-.865.289-.865.289a7.192,7.192,0,0,0-1.343-.735c-.706-.279,0,0-.653-.405s-.053-.373-.072-1.344,0,0-.934.3-.58.106-.76-.319-.7-.21-1.537-.589-.493.046-1.441.086a19.74,19.74,0,0,0-2.8.444c-1.44.253-.267.466-.541.884s-1.042.385-.508,1.117-.388.957-1.582,1.27-.3.232,1.526,1.018.279.957.011,1.755-1.368,1.1-2.75,1.436-1.8.4-1,.665.171,1.876.171,1.876l-.059,2.608s-.471,1.718-1.078,1.8l-.259.037-.03,0-.131.019c-.42.06-1.044-1.645-1.044-1.645a11.545,11.545,0,0,1-1.064-1.79,2.429,2.429,0,0,1-.2-1.44,6.832,6.832,0,0,1,.579-1.624c.361-.811-.666.012-1.259.192a11.028,11.028,0,0,1-1.767.3c-.747.106-.636-.12-1.943-.6s-1.056-.05-2.189-.65-2.307.308-3.207.673-.056-.39-.1-1.129-.151-.724-.548-.953.285-.674,1.976-1.959,1.525-1.341,3.01-1.615.959-.739,2.115-1.314,2.751.132,3.1-.455.723-.61,1.507-1.243A3.746,3.746,0,0,0,201,22.46c.215-.273,1.28-.067,1.814-.333s1.5-.656,2.531-1.184.1-.615-.127-1.343,2.581.062,3.231-.062c.538-.1.508-1.123.6-1.136l.233-.033c-.163.024-.075.339-.009.956.093.873,0-.024.526-.1s.541.006,1.207.227-.009.154-.127.361a4.678,4.678,0,0,1-1.263.588s-1.019.428-.449.417a5.822,5.822,0,0,0,1.463-.208c.646-.149.4-.348.828-.884s.258.027.947-.261.681.093.7.248-.33.364-.92.675a2.42,2.42,0,0,0-.868.592,6.773,6.773,0,0,1-1.624.643,20.65,20.65,0,0,0-2.386.813c-.25.194.633.48,1.59.29s1.218-.372,2.315-.56.757.273,1.6.627.6.391.954.231a3.735,3.735,0,0,1,.921-.217l2.873-.121a5.74,5.74,0,0,0,1.716-.445c.465-.3-1.538.133-1.538.133a7.654,7.654,0,0,1-1.822-.528c-.52-.306,1.89-.11,1.89-.11l1.752.036a2.4,2.4,0,0,0,.762-.669c.175-.332-.125-.435-.91-.6s-1.3.236-1.843,0-.329-.523-.279-.625a21.063,21.063,0,0,1,2.583.519,1.549,1.549,0,0,0,1.183-.389c.565-.492.989-.868,1.211-1.091s-2.552-.08-2.552-.08l-1.86.106-1.7-.329a5.055,5.055,0,0,0,.935-.577c.663-.473-.685-.124-.685-.124l-1.459.017-1.729.119-1.827-.6,1.131-.6a10.119,10.119,0,0,1,1.273-.725,6.808,6.808,0,0,0-2.875.949c-.384.142-1.1.487-1.873.792-.067-.176-.425.036-1.3.134a13,13,0,0,0-2.194.312c-.921.225-.609,1.25-.752.748s-.386-.206-1.394.079-1.159,1.067-.542,1.051.94-.086.83.475-1.041.56-1.537.757-.669.269-.652.489-.264.434-.558.38,0,0-.143-.335.243-.3.654-.592-.043-.469-.743-.369-1.375.884-2.4,1.03.3-.708.865-1.453-.951-.151-1.612.228a2.944,2.944,0,0,0-1.489,1.756c-.075.651-.858.669-1.629.777a8.759,8.759,0,0,0-2.913.96c-1.5.711-1.715.339-2.141.186s.157-.4.717-.482a2.5,2.5,0,0,0,1.455-.491,9.577,9.577,0,0,1,1.091-.7c.3-.233-.563-.11-1.721-.041s-2.66,1.066-3.571,1.528.11.436-.038,1.074-.651.615-1.588.559-.513.073-1.518.548c-.921.436-.715.211-.914-.217q-4.528,2.523-8.754,5.466c-3.041,2.179-6.291,4.726-8.687,6.754q-1.456,1.26-2.862,2.572c-2.59,2.507-4.484,4.846-5.24,5.648-.828.878-.187.913-.708,1.494s.118,1.059-.389,1.511a2.159,2.159,0,0,0-.409.562,14.854,14.854,0,0,1-1.021,1.888c-.615.816-.807,1.919-2.138,3.28a11.256,11.256,0,0,0-2.833,4.867,8.7,8.7,0,0,1-2.086,3.652,1.9,1.9,0,0,0-.54,2.007,2.483,2.483,0,0,1-.371,2.079c-.392.372.154.421-.2,1.738s-.3,1.436.678,1.866.7.218.6,1.308a6.6,6.6,0,0,0,.223,1.734,2.934,2.934,0,0,1-.056,1c-.269,1.241.014,2.562-.24,3.453s.661.634.744,1.888-.353,1.539-1.132,1.65.035.913.87,1.649,1.249.519,1.029,1.659a3.387,3.387,0,0,0,.944,3.063c.822.865.585,1.658.763,1.126s.491-.577.366-1.445-.2-.7-.639-.7-.066-.687-.176-1.463-.342-.616-.257-1.356a2.932,2.932,0,0,0-.764-2.393c-.739-.877-.2-.383-.256-1.8s.159-1.637-.249-2.5-.238-1.676.515-2.86.254-.447.387-.4a2.229,2.229,0,0,1,.786,1.06c.168.514-.095.678-.2,1.263s.039,1.166-.193,1.546.373.613.492,1.228.24.568.661.856.267.311.31.937.561.49.3,1.129a2.283,2.283,0,0,0,.785,2.167,2.134,2.134,0,0,1,.785,1.725c.083.811.919.66,1.171,2.429s.874,1.681,1.122,2.088a1.881,1.881,0,0,1-.113,1.663,2.948,2.948,0,0,0-.3,2.1c.239.789,1.757,1.413,1.886,1.821a2.038,2.038,0,0,0,2.09,1.128c1.3-.043.457.03,1.03.543a7.926,7.926,0,0,0,1.79,1.194c.509.236,1.144.169,2.56.585s.513.592,1.037.589a6.492,6.492,0,0,1,1.707.279c1.226.254.774.08,1.4-.388s.842-1.45,2.149-1.469.063.276,1.3.266.14-.02.6.389c.369.326,1.336,1.232,2.24,2.149.229.232.454.466.665.69,1.039,1.111,1.567.466,2.654.24.274-.057.454-.092.571-.1.351-.029.153.173.236.748.109.768.376.469,1.349.781s1.141-.02,2.033-.74.392.2.211.776.053.539.992,1.117,1.122,1.859,2.417,1.77-.14-.669.094-1.366,1.6,1.031,2.066,1.463-.16.213-.907.319-.328.046-.862.478.106.745.2,1.374.326,1.116,1.434.865,1.3.455,1.3.455l.706.612a3.281,3.281,0,0,1,.5,1.021c.056.4-.014.406.9.965a.949.949,0,0,0,1.381-.172,19.51,19.51,0,0,0,2.451.316c.471-.044.264.009,1.08.392s.376.635.642,1.333.254-.06.874-.385.712-.694.712-.694l-.283-.649-.806-.811s.887-.293,1.314-.472.514-.9.991-1.233,2.252.083,2.414.725a9.669,9.669,0,0,0,.412,1.556c.21.469.956.7,1.136,1.12s.846,1.091.679,1.423.639.646.259,1.15.454,1.859.091,2.647.421,1.127.531,1.9a2.7,2.7,0,0,1-.91,1.981c-.246.106-1.617.348-1.649,1.136s-.591.867-.591.867a.821.821,0,0,0,.032.565c.134.266.1.343-.255.891s-.44.253-1.828.545-.387.126.329.974-.16.379-.434.632-.224.768-.469,1.4-.477.163-.3.755a2.5,2.5,0,0,1,.025,2.015c-.378.861-.054.625.383,1.014s.464-.09,1.537.422.356,1.161-.275,1.25,0,0-.611.562-.238.342-1.13,1.774-.107.585.819,1.57.392,1.25-.052,1.479.9.466,2.673,1.377.6.223,1.023.994.246.393,1.3,1.1,2.264,3.359,2.961,3.9a3.091,3.091,0,0,1,1.191,1.848c.113.625.053.705.66.618s1.242,1.035,2.159,1.783,1.062.941,1.169,1.52-.068.865.191,1.349,1.114.792,2.717,1.68a14.555,14.555,0,0,0,5.58,2.056c3.338.689.7.422,2.074.846s.163.475.489.761,1.151.05,1.917.416a4.727,4.727,0,0,1,.6.311c.139.1.153.2.246.472.163.475.29.694.745,2.055a9.816,9.816,0,0,1,.511,2.088c.281,1.313-.018.714-.02,2.211s.2,2.06-.277,2.567-.323.58.074.857.229.609.621,1.692.479,1.524.335,2.019.365.731.035,1.419-.178.761-.011,1.426.035,1.087-.433,2.151.236.988.427,2.171-.555,1.123-.225,1.931a21.087,21.087,0,0,1,.809,2c.262.841.1.865.021,1.659s-.225,2.264-.34,2.8a16.6,16.6,0,0,1-.335,1.828c-.265.987-.541.385-.455.99s-.024.335-.381.671-.274.253.023.828a16.064,16.064,0,0,0,.776,1.434,4.392,4.392,0,0,1,.383.682s-.1.276-.261.678a2.6,2.6,0,0,1-.418.748c-.274.419-.061.744.149,1.213s.024.163.163.809a1.372,1.372,0,0,1-.054.957,2.182,2.182,0,0,1-.462.944c-.294.445-.063.223.063.442s.377-.03.867-.1.173-.12.257-.2a5.245,5.245,0,0,0,.248-.936,4.011,4.011,0,0,1,.355-1.357c.328-.711.817-.116.817-.116l.068.987s-.13.422-.284,1.014-.107.419.028,1.041.057.957.165,1.718-.138.811-.312.82-.34-.157-.591-.47-.209-.461-.451-.823-.036.2-.259.527-.331.348-.383.767-.31.5-.865.614-1.011.144-2.148.306.454.062,1.242.14a2.575,2.575,0,0,0,1.811-.337c.462-.319.282-.025.444,0a5,5,0,0,0,.912-.066c.454-.048.19.337-.094.456s-.3.218-.379.466.351.346.351.346-.054.4-.245.4-.325-.048-.564-.062a1.235,1.235,0,0,0-.694.367c-.112.111.35.456.35.456a2.666,2.666,0,0,1,.516-.278c.3-.122.334.789.55.853s.27.862.274.916c.009-.013.018-.027.025-.038a.821.821,0,0,1,.209-.283,2.336,2.336,0,0,1,.57.078l.039.263s-.21.141-.486.322-.034.18.042.263.58-.066.58-.066a2.065,2.065,0,0,1,.8.155c.26.153.919.423.919.423s.017.567-.241.541-.307-.146-.436-.159.036.248-.094.456a.3.3,0,0,0,.053.372l1.143.218,1.133.377.858-.217.583-.368.351.235a2.81,2.81,0,0,0-.054.515c.017.124,1.191.337,1.191.337a9.285,9.285,0,0,1,1.022.037c.29.046.9-.3,1.442-.262h.013a5.324,5.324,0,0,0,1.45-.206l1.7-.4a1.7,1.7,0,0,0,.472-.257c.169-.151-.623-.133-.925-.248a12.328,12.328,0,0,0-1.229-.363c-.262-.058-.5.326-.719.1a9.271,9.271,0,0,1-.7-.625,5.114,5.114,0,0,0-1.021-1.052c-.422-.289-.685-.653-.34-1.079.209-.259.235-.3,1.166-.458s.6-.277.6-.822-.006-.545.829-1.043.964-.422,1.643-1.848-.159-.452-.286-.339-.768.465-1.978,0-.426-.651-.129-1.24,1.132-.754,2.059-.934.141-.352.562-.744.24-.153.3-.731-.119-.672.722-1.124-.553-.539-.466-.931-.434-.033-.365-.9-.58-.061-.346-1.091,1.127.22,3.375-.052,1.548-.838,1.548-.838-1.106-.745-.519-1.3-.1-.7-.171-1.543.473-.019,1.527.021,2.281-.04,5.525-1.687,2.938-3.125,2.364-3.138-.887.126-.487-.406-.059-.751-.339-1.043-1.827-.785-1.9-.965-.073-.512.307-.519,2.548.493,2.548.493,1.861.02,3.035-.1,1.288-.326,2.1-1.3c.323-.383.657-.848,1.027-1.356a22.207,22.207,0,0,1,2.045-2.5c.656-.672.807-.806.963-.876a2.7,2.7,0,0,0,.023-.57c-.04-.279.309-.68.309-.68L267.8,179a.909.909,0,0,1,.514-.073c.2.066.5.31.316.549a8.933,8.933,0,0,0-.972,1.206,1.1,1.1,0,0,0-.175.544c.156-.082.358-.2.628-.37,1.639-1.041,1.112-1.678,1.9-2.835a5.022,5.022,0,0,1,2.328-2.167c1.3-.691.54-1.122.612-2.4a5.833,5.833,0,0,1,.452-2.636c.5-1.33.721-.792,1.749-1.769s1.246-1.625,2.468-2.417.962-1.276,1.95-1.369.553-.126,1.235-1.03,1.662-.711,3.55-.837.474-.685,1.215-1.169a1.67,1.67,0,0,0,.969-1.562,2.711,2.711,0,0,1,1.156-1.921,2.4,2.4,0,0,0,.982-1.47c.235-.7.675-.951.976-1.848s.33-2.042.615-1.7.041-.718.716-2,.47-2.394.618-3.7.1-3.005.264-4.169.629-.944.915-.273.348-.9,1.276-2.414,1.33-2.373,1.631-2.938.728-.911,1.324-2.088.729-2.24,1.544-3.876-.129-3.591-.394-4.788-1.079-1.224-2.38-.991M213.268,36.628c0-.317.1-.3.687-.446,0,0,.667.222.591.58s0,0-.848.247-.428-.065-.429-.382m-4.128-1.25a2.774,2.774,0,0,1,.859-.66,2.685,2.685,0,0,1-.006,1.3c-.17.815-.41,1.134-.624.974s-1.079-.891-1.079-.891Zm-1.319,3.009c.41-.245.48.023.56.581l-.534.266s-.61-.04-.618-.324.183-.279.593-.524m-2.71-6.108a4.527,4.527,0,0,1,1.294-.5,2.612,2.612,0,0,1-.629,1.387c-.529.519-.365.337-.5.071s-.208-.35-.845-.577,0,0,.677-.381M213.9,21.631s-.577.212-.666.095.034-.433.034-.433l.451-.183a.57.57,0,0,1,.358.092Zm-.157-1.691a2.569,2.569,0,0,1,.5-.071c.156-.022.934.311.782.364a5.444,5.444,0,0,1-.716.1s-.32-.018-.236.349-.463.1-.467.066-.012-.758.138-.811M200.869,46.463l1.65-.013,1.037-.749.663-.474.595.157.263.069a9.264,9.264,0,0,1-.486,1.273c-.272.545-1.655.424-1.655.424s-.867.155-1.837.262-.536.7-.536.7l-1.355.745a7.948,7.948,0,0,0-2.858,1.79c-1.19,1.236-1.682.239-1.682.239s-.687-.811-.2-1.413.551-.59.742-.586.057.625.4.386c0,0,.668-.222,1.436-.395a4.843,4.843,0,0,0,1.15-.405,6.945,6.945,0,0,0,1.066-.543c.681-.35.374-.5.374-.5l.1-.648Zm-12.038-7.154c.286-.895,0,0,.6-.275a3.843,3.843,0,0,1,.684,1.233c.106.523-.29.2-1.455.487s-.11-.549.175-1.445m-4.277.292c0-.855,0,0,.685-.1l1.328.413-.49.577s-1.529-.036-1.524-.892m-.58,4.642,2.99-1.533,2.95-1.369s1.553-1.139,2.086-.3a10.248,10.248,0,0,0,.966,1.213,4.569,4.569,0,0,1,.641,1.154s-1.06,1.037,1.182.719,2.278-1.179,3.394-.483,1.089.067,1.182.94.536,1.317-.259,1.081-1.391-.4-1.663-.08a7.2,7.2,0,0,0-.665,1.362s-.286,1.116-.615,1.258-.907.319-.907.319-.08-1.223-.39-1.4-.739.612-1.188.58.744-.8.856-1.578a.961.961,0,0,0-1.111-1.109c-.561.08-.315-.43-.956.2s-1.435,1.5-1.435,1.5-1.359.51-1.422,1.405.368,1.025.029,1.769-.709,1.494-.709,1.494-.672.633-.97.328-.165-3.174-.165-3.174l.437-2.06,1.7-1.189s1.024-.4,1.512-.532a3.112,3.112,0,0,1,1.144-.225c.262.058.614-.151,0-.634s-1.928.275-1.928.275c-.331.142.073.306-.843.119s.078-.486-1.226-.205a11.379,11.379,0,0,0-2.318.773l-1.236-.009a4.377,4.377,0,0,1-.965.137c-.352-.019-.107-.75-.107-.75m-2-1.552c-.356.177,0,0-.729-.34s-.053-.245.708-.924a4.878,4.878,0,0,1,.555.776c.1.24-.178.311-.534.488m-2.151-8.875c.144-1.223-.217-.413.606-1.321l.831.93a14.456,14.456,0,0,1-1.257,1.663c-.659.727-.324-.048-.181-1.272m.161,4.093c-.064-.846.253-.511.974-1.025l.23.5a4.283,4.283,0,0,1-.063,1.814,11.679,11.679,0,0,1-.708,1.778c-.132.05,0-.286.094-1.217s-.461-1.01-.526-1.856m-3.138-3.954a2.785,2.785,0,0,1-1.368.194c-.465-.155-.587-.36,1.267-.911Zm1.928,5.881c.334.566.027,1.312.089,1.969s-.6.243-.6.243.1-.616.241-1.205-.55-.967-.55-.967a3.629,3.629,0,0,0,.241-1.205c.006-.634-.088-.621.442-1.139a5.753,5.753,0,0,0,.137,2.3m-3.6-7.2c.988-.425.793-.683,1.852-1.5l.764.461a12.158,12.158,0,0,1-1.46,1.347c-.885.7-1.144.447-2.028.478s-.116-.364.872-.789m4.763,63.15c.015.009.034.018.049.027l.067.046c-.036-.025-.076-.049-.117-.074m48.4,52.911c.006,0,.009,0,.015.006a.4.4,0,0,0-.153-.009s.051,0,.138,0m-4.015-13.837.018.012.019.02c-.012-.011-.024-.022-.037-.032M245.1,119.211c-.613-.957-.812-1.357-.285-2s.912-.747.4-1.434a5.778,5.778,0,0,0-1.435-1.682,5.778,5.778,0,0,1,1.435,1.682c.512.687.128.789-.4,1.434s-.329,1.044.284,2,.745,1.556,1.475,1.927a2.544,2.544,0,0,0,1.3.334,2.541,2.541,0,0,1-1.3-.334c-.73-.371-.862-.97-1.474-1.927m9.161-.864a2.353,2.353,0,0,0,.331-.045,2.188,2.188,0,0,1-.379.052c-.123.008-.222.016-.3.027.091-.014.205-.026.351-.034m-2.542.64.119.209c.718.027,1.691.419,2.106.366-.4.064-1.391-.36-2.121-.388l-.108-.187h0m10.392,53.369.05-.037c.017-.012.033-.022.05-.033l-.1.07m-4.531-54.119a5.386,5.386,0,0,0-1.325-.607.537.537,0,0,0-.151,0,.217.217,0,0,1,.151,0,4.648,4.648,0,0,1,1.316.6v0s.339-.036.729-.088c-.536.08-.722.087-.722.087m1.727-.242.146-.026a1.308,1.308,0,0,1,.478-.025c-.114.121-.2.014-.624.05" transform="translate(-7.799 -0.857)" fill="#077773"/>
            <path id="Trazado_202854" data-name="Trazado 202854" d="M301.728,134.36a4.862,4.862,0,0,0-4.051-4.73c-1.578-.219-3.275.356-4.733-.288-1.384-.613-2.238-2.213-3.717-2.533-1.2-.259-2.5.413-3.647-.028-.883-.34-1.4-1.239-2.128-1.843a3.811,3.811,0,0,0-5.4.82c-.341.525-.829,1.249-1.394.98-.321-.152-.416-.552-.578-.867a1.822,1.822,0,0,0-3.04-.064c-2.182-1.947-2.076-5.352-3.317-8a8.155,8.155,0,0,0-11.92-3.315,5.076,5.076,0,0,1-2.343,1.184c-2.3.137-3.755-3.629-5.932-2.888-.513.175-.935.6-1.471.669-.934.129-1.624-.794-2.222-1.522a8.945,8.945,0,0,0-9.451-2.741,5.345,5.345,0,0,1-5.478-.216,3.04,3.04,0,0,0-3.125.33c-.25.254-.437.592-.762.737-.873.389-1.576-.853-2.48-1.162-1.353-.462-2.423,1.3-2.448,2.732s.325,3.052-.6,4.145a6.518,6.518,0,0,0-.8.886,2.486,2.486,0,0,0-.084,1.756,19.32,19.32,0,0,0,6.78,10.954,37.152,37.152,0,0,0,5.733,3.548q3.4,1.824,6.821,3.621c4.534,2.394,9.138,4.815,14.149,5.9a56.375,56.375,0,0,0,10.4.93l10.2.278c3.053.083,6.107.167,9.16.153a18.784,18.784,0,0,0,6.825-.932c3.7-1.456,6.629-5.118,10.606-5.137" transform="translate(-11.708 -5.772)" fill="#077773"/>
            <path id="Trazado_202855" data-name="Trazado 202855" d="M215.213,39.433c1.585.157,2.949-1,4.346-1.77s3.533-.948,4.236.482a2.317,2.317,0,0,0,.345.638c.367.372.987.221,1.48.05,1.286-.447,2.823-.824,3.914-.012a2.17,2.17,0,0,1,.318,3.081,2.031,2.031,0,0,1-3.034-.2,10.587,10.587,0,0,1-1.844,4.333,3.63,3.63,0,0,1-4.238,1.169c-.355-1.648,2.576-2.535,2.364-4.208-.152-1.22-1.976-1.5-2.944-.745a7.165,7.165,0,0,0-1.794,3.169c-.465,1.139-1.265,2.338-2.488,2.478a5.514,5.514,0,0,0-1.547.12c-.946.4-.928,1.745-.64,2.732s.647,2.17-.035,2.939c-.761.861-2.152.475-3.279.692a3,3,0,0,0-2.331,3.137,3.026,3.026,0,0,1,.031,1.5c-.375.866-1.679.786-2.362,1.436-1.036.986-.142,3.039-1.208,3.99a3.233,3.233,0,0,1-1.377.56,7.974,7.974,0,0,0-5.725,7.556c.017,1.484.457,2.977.174,4.433s-1.754,2.863-3.132,2.313c-1.241-.5-1.487-2.095-1.888-3.372s-1.834-2.613-2.9-1.8c-.341.259-.541.7-.933.867-.834.365-1.551-.693-1.855-1.551q-.732.95-1.465,1.9c-.9-.266-1.221-1.68-2.162-1.682-1.171,0-1,1.791-1.316,2.918-.412,1.462-2.194,2.084-3.71,1.989s-2.987-.668-4.505-.626-3.217,1.041-3.223,2.56c0,.69.342,1.416.056,2.043-.36.787-1.5.941-1.908,1.7-.335.625-.051,1.391-.084,2.1-.092,1.978-2.632,3.558-1.951,5.417a3.566,3.566,0,0,0,1.219,1.416l3.256,2.64c.827.67,2.418,1.114,2.641.072.088-.417-.166-.877.014-1.263.413-.892,1.706.155,2.687.155,1.113,0,1.6-1.439,1.492-2.545s-.445-2.338.2-3.245c1.569-2.219,5.963.886,7.567-1.308.97.469.615,1.994-.163,2.74s-1.867,1.284-2.19,2.312c-.361,1.154.423,2.33.594,3.528a3.611,3.611,0,0,1-2.408,3.825c1,1.347,3.063,1.281,4.639.7s3.074-1.545,4.752-1.569a1.8,1.8,0,0,1,2.029,1.707c.319,1.84-.607,3.758-.145,5.569.607,2.379,3.486,4.234,2.784,6.585-1.4.966-3.351.446-4.8-.447s-2.715-2.133-4.329-2.672a9.613,9.613,0,0,1-2.659-.925c-1.182-.842-1.433-2.472-2.219-3.694a4.8,4.8,0,0,0-6-1.621,3.457,3.457,0,0,1-1.506.586,4.123,4.123,0,0,1-1.489-.547c-1.974-.831-4.146.44-6.268.735a7.1,7.1,0,0,1-7.635-5.326,5.41,5.41,0,0,0-.624-2.049c-.412-.583-1.131-.917-1.468-1.547a3.171,3.171,0,0,1-.205-1.717q.391-5.941.783-11.882a15.718,15.718,0,0,1,1.019-5.465c1.465-3.261,4.924-5.117,8.281-6.343s6.958-2.117,9.72-4.386c2.241-1.842,3.984-4.6,6.817-5.226,1.993-.437,4.042.32,6.083.353s4.476-1.247,4.323-3.281a9.732,9.732,0,0,0-.954-2.523,4.625,4.625,0,0,1,.608-4.273,12.539,12.539,0,0,0,7.663-4.633,4.482,4.482,0,0,1,1.051-1.122c1.971-1.25,4.673,1.649,6.729.538a4.755,4.755,0,0,0,1.408-1.516,11.783,11.783,0,0,1,6.588-4.437" transform="translate(-8.302 -1.969)" fill="#077773"/>
            <path id="Trazado_202856" data-name="Trazado 202856" d="M312.926,49.489c.067,2.077,1.792,4.216.773,6.027a13.252,13.252,0,0,0-.857,1.291c-.459,1.105.351,2.339,1.3,3.073a10.738,10.738,0,0,1,2.746,2.276.888.888,0,1,0,.163,1.675l-2.5,1.353a6.558,6.558,0,0,0,2.832.212,6.667,6.667,0,0,1-.166,2.562c-.1.858.165,1.916.991,2.166a16.683,16.683,0,0,0-2.818,1.226,2.513,2.513,0,0,0-.981.8c-.624,1.011.293,2.3,1.308,2.917s2.263,1.061,2.786,2.128c.76,1.555-.483,3.491.118,5.113.66,1.779,3.178,2.294,3.851,4.068.545,1.436-.366,3.04-.146,4.559.364,2.5,3.331,3.5,5.373,4.991a17.552,17.552,0,0,1,2.059,1.868l4.491,4.535a4.215,4.215,0,0,0,1.35,1.034,2.833,2.833,0,0,0,2.722-.556,7.96,7.96,0,0,0,1.778-2.283,9.339,9.339,0,0,0,1.291-2.933,3.352,3.352,0,0,0-.758-3c-1.587-1.569-4.355-.448-6.429-1.271-2.11-.836-2.905-3.394-3.141-5.65s-.246-4.724-1.671-6.491c.562,2.237.681,4.6,1.562,6.727s2.844,4.074,5.146,3.936a1.032,1.032,0,0,0,.592-.177,1.139,1.139,0,0,0,.329-.605,12.114,12.114,0,0,0-3.345-12c-1.727-1.595-3.9-2.65-5.6-4.273-3.064-2.921-4.213-7.249-5.744-11.2s-4.008-8.071-8.1-9.147" transform="translate(-16.605 -2.628)" fill="#077773"/>
            <path id="Trazado_202857" data-name="Trazado 202857" d="M321.29,70.089a6.825,6.825,0,0,1-4.054-1.972,11.683,11.683,0,0,1-2.279-4.539,2.266,2.266,0,0,1,.5-2.836,3.6,3.6,0,0,1,2.439-1.582,2.988,2.988,0,0,1,1.7.681,9.145,9.145,0,0,1,3.443,4.966,3.648,3.648,0,0,1,.158,1.287,2.558,2.558,0,0,1-1.7,2.092,3.183,3.183,0,0,1-2.726-.38" transform="translate(-16.71 -3.141)" fill="#077773"/>
            <path id="Trazado_202858" data-name="Trazado 202858" d="M300.765,139.712l-3.446,6.729a3.2,3.2,0,0,0-.508,1.85c.253,1.758,3.165,2.336,3.081,4.111l-4.914.793a1.436,1.436,0,0,0-.882.36,1.309,1.309,0,0,0-.122,1.2c.616,2.367,2.545,4.485,2.188,6.906-.58,3.932-6.585,5.179-7.2,9.105a5.585,5.585,0,0,1-.45,2.269c-1.062,1.623-3.679.279-5.5.938-1.31.473-1.973,1.9-2.5,3.185l-2.417,5.9a8.177,8.177,0,0,1-.867,1.719,10.259,10.259,0,0,1-1.947,1.816,20.982,20.982,0,0,0-4.508,5.11,9.6,9.6,0,0,1-.333-3.917c-1.882.856-.717,3.9-1.81,5.662a4.279,4.279,0,0,1-1.969,1.47,21.046,21.046,0,0,1-7.551,1.843c1.5,1.069,1.315,3.571-.041,4.811a5.62,5.62,0,0,1-5.2.92,2.753,2.753,0,0,0-1.685-.135c-1.436.568-.549,2.719-.719,4.255-.287,2.6-3.939,3.42-4.971,5.821-.378.879-.36,1.889-.74,2.766s-1.486,1.6-2.275,1.057a1.964,1.964,0,0,1-.67-1.158c-.82-3.027.009-6.229.836-9.254q1.513-5.539,3.027-11.079,1.449-5.305,2.9-10.61a32.122,32.122,0,0,1,3.334-8.741c1.827-2.912,4.527-5.15,7.18-7.335l6.746-5.553a16.022,16.022,0,0,1,4.264-2.8,13.861,13.861,0,0,1,5.2-.682c6.87.095,14.087,1.513,20.379-1.248" transform="translate(-12.875 -7.419)" fill="#077773"/>
            <g id="Grupo_150940" data-name="Grupo 150940" transform="translate(121.975 12.136)" opacity="0.21" style="mix-blend-mode: overlay;isolation: isolate">
              <g id="Grupo_150939" data-name="Grupo 150939">
                <g id="Grupo_150938" data-name="Grupo 150938" clip-path="url(#clip-path-3)">
                  <path id="Trazado_202859" data-name="Trazado 202859" d="M148.224,161.653a104.2,104.2,0,0,1,130.4-138.314,104.205,104.205,0,1,0-79.675,192.178,103.815,103.815,0,0,1-50.723-53.864" transform="translate(-128.815 -12.817)" fill="#fff"/>
                </g>
              </g>
            </g>
            <g id="Grupo_150943" data-name="Grupo 150943" transform="translate(181.366 31.438)" opacity="0.6" style="mix-blend-mode: multiply;isolation: isolate">
              <g id="Grupo_150942" data-name="Grupo 150942">
                <g id="Grupo_150941" data-name="Grupo 150941" clip-path="url(#clip-path-4)">
                  <path id="Trazado_202860" data-name="Trazado 202860" d="M332.677,78.29a104.207,104.207,0,0,1-141.139,133.9C313.3,202.075,326.376,64.631,296.764,33.2A103.6,103.6,0,0,1,332.677,78.29" transform="translate(-191.537 -33.201)" fill="#c7dee0"/>
                </g>
              </g>
            </g>
            <g id="Grupo_150946" data-name="Grupo 150946" transform="translate(143.685 108.889)" opacity="0.6" style="mix-blend-mode: multiply;isolation: isolate">
              <g id="Grupo_150945" data-name="Grupo 150945">
                <g id="Grupo_150944" data-name="Grupo 150944" clip-path="url(#clip-path-5)">
                  <path id="Trazado_202861" data-name="Trazado 202861" d="M338.235,114.995a104.261,104.261,0,0,1-186.492,71.161c42.653,11.073,127.568,18.533,186.492-71.161" transform="translate(-151.742 -114.995)" fill="#c7dee0"/>
                </g>
              </g>
            </g>
            <path id="Trazado_202862" data-name="Trazado 202862" d="M161.056,67.842S152.34,45.965,158.3,31.511c.3-21.2,14.674-20.363,18.435-31.512,0,0,9.24,29.029-14.674,33.247,0,0-8.635,8.043,1.047,34.44Z" transform="translate(-8.295 0)" fill="#16b596"/>
            <path id="Trazado_202863" data-name="Trazado 202863" d="M154.527,42.692S153.98,18,123.55,21.8c8.475,7.227,7.651,21.354,27.937,15.022a65.086,65.086,0,0,1,3.521,15.216Z" transform="translate(-6.56 -1.136)" fill="#149980"/>
            <path id="Trazado_202864" data-name="Trazado 202864" d="M330.244,178.124s12.438-14.778,18.244-18.666c9.993-24.9,34.094-12.1,45.758-14.474A44.64,44.64,0,0,1,351.777,161.7s-11.2,6.9-24.265,24.111Z" transform="translate(-17.391 -7.634)" fill="#6d854e"/>
            <path id="Trazado_202865" data-name="Trazado 202865" d="M308.154,204.187s22.009-17.984,22.906-39.61c0,0-13.051-9.322-12.581-34.091,0,0,25.764,12.581,18.051,36.076,0,0-9.565,24.456-28.135,40.073Z" transform="translate(-16.363 -6.929)" fill="#869d69"/>
            <path id="Trazado_202866" data-name="Trazado 202866" d="M302.261,309.753h-10.75c-5.269,0-16.18-5.663-8.533-19.652L304.8,276.578l8.207,12.963Z" transform="translate(-14.886 -14.686)" fill="#5b6f42"/>
            <path id="Trazado_202867" data-name="Trazado 202867" d="M295.191,300.741s-.234-7.07,13.382-19.847l28.537-3.824,7.773,4.722s1.086,11.225-10.851,13-38.841,5.951-38.841,5.951" transform="translate(-15.675 -14.712)" fill="#7a915e"/>
            <path id="Trazado_202868" data-name="Trazado 202868" d="M347.365,296.941v13.8S308.033,316,298.691,308.5c-7.9-6.341-2.8-15.714,16.78-15.5s31.893,3.94,31.893,3.94" transform="translate(-15.671 -15.558)" fill="#869d69"/>
          </g>
        </g>
        <g id="Grupo_150950" data-name="Grupo 150950" transform="translate(334.338 282.592)">
          <g id="Grupo_150949" data-name="Grupo 150949" clip-path="url(#clip-path-6)">
            <rect id="Rectángulo_42459" data-name="Rectángulo 42459" width="20.703" height="12.622" transform="translate(0 0)" fill="#942e19"/>
          </g>
        </g>
        <g id="Grupo_150952" data-name="Grupo 150952">
          <g id="Grupo_150951" data-name="Grupo 150951" clip-path="url(#clip-path)">
            <path id="Trazado_202870" data-name="Trazado 202870" d="M373.658,307.055c-.582,3.529-4.11,4.006-7.737,3.693l2.023-1.581c-2.552-4.537,0-9.386,0-9.386l-1.761-1.335a17.711,17.711,0,0,1,2.813.127c4.043.56,5.476,3.566,4.663,8.482" transform="translate(-19.43 -15.847)" fill="#f9ded7"/>
            <rect id="Rectángulo_42460" data-name="Rectángulo 42460" width="2.645" height="9.605" transform="translate(331.694 283.667)" fill="#feb19e"/>
            <path id="Trazado_202871" data-name="Trazado 202871" d="M260.988,281.142l-1.49,1.927s-6.342,5.673-7.9,9.3,8.89-.537,8.89-.537,4.094-2.208,4.289-4.336l2.176-2.468Z" transform="translate(-13.352 -14.929)" fill="#f49987"/>
          </g>
        </g>
        <g id="Grupo_150954" data-name="Grupo 150954" transform="translate(247.14 215.492)">
          <g id="Grupo_150953" data-name="Grupo 150953" clip-path="url(#clip-path-8)">
            <rect id="Rectángulo_42462" data-name="Rectángulo 42462" width="65.294" height="64.305" transform="translate(-27.84 29.865) rotate(-47.01)" fill="#c24127"/>
          </g>
        </g>
        <g id="Grupo_150956" data-name="Grupo 150956">
          <g id="Grupo_150955" data-name="Grupo 150955" clip-path="url(#clip-path)">
            <path id="Trazado_202873" data-name="Trazado 202873" d="M249.508,255.233a6.545,6.545,0,0,0-1.354-6.742c-2.891-3.2-9.257-3.907-9.257-3.907s3.454,9.431,10.611,10.649" transform="translate(-12.685 -12.987)" fill="#16b596"/>
            <path id="Trazado_202874" data-name="Trazado 202874" d="M256.77,263.409s-1.357-5.378,3.12-8.114a67.4,67.4,0,0,0,5.719-3.731s1.159,10.261-8.839,11.845" transform="translate(-13.624 -13.358)" fill="#16b596"/>
            <path id="Trazado_202875" data-name="Trazado 202875" d="M251.568,286.092a4.474,4.474,0,0,0-3.855-4.555c-4.1-.87-7.088.436-8.517-.559,0,0,4.352,9.294,12.372,5.113" transform="translate(-12.701 -14.92)" fill="#16b596"/>
            <path id="Trazado_202876" data-name="Trazado 202876" d="M262.053,255.54a.561.561,0,0,0-.787-.084c-4.326,3.484-6.318,8.944-7.226,12.913-.076-.722-.159-1.429-.255-2.111-1.76-12.525-8.013-17.216-8.278-17.409a.559.559,0,0,0-.66.9c.062.045,6.135,4.6,7.829,16.662a120.745,120.745,0,0,1,.716,18.149,14.886,14.886,0,0,0-4.438-2.8.56.56,0,1,0-.414,1.041c1.1.438,3.977,1.882,4.8,3.54-.2,6.767-.662,12.049-.671,12.151a.561.561,0,0,0,.508.607l.05,0a.56.56,0,0,0,.557-.51c.009-.1.449-5.186.661-11.786a.547.547,0,0,0,.089-.5c-.018-.056-.047-.109-.069-.164.117-4.006.144-8.509-.061-12.776l0,0c.006-.114.651-11.473,7.558-17.033a.559.559,0,0,0,.084-.787" transform="translate(-12.989 -13.208)" fill="#07514c"/>
            <path id="Trazado_202877" data-name="Trazado 202877" d="M280.032,312.346H228.427s-.745-5.767,3.238-5.767c0,0,.373-3.731,2.731-2.985,0,0,1.118-8.207,7.587-6.968,0,0,2.238-5.185,6.342-2.775a13.16,13.16,0,0,1,6.505-2.969c3.753-.492,8.565.948,12.892,8.61,0,0,3.23-1.657,3.484,3.088,0,0,3.358-.6,4.476,4.119,0,0,5.379,1.35,4.35,5.647" transform="translate(-12.126 -15.441)" fill="#332012"/>
            <path id="Trazado_202878" data-name="Trazado 202878" d="M257.187,307.62c-1.664,4.991-15.637-2.253-20.591,4.685h-8.169s-.746-5.767,3.237-5.767c0,0,.373-3.731,2.731-2.985,0,0,1.119-8.207,7.588-6.968,0,0,2.238-5.185,6.341-2.775a13.16,13.16,0,0,1,6.505-2.969c.694.761,5.081,6.178-5.386,10.52,0,0,9.512.947,7.744,6.259" transform="translate(-12.126 -15.444)" fill="#4c321c"/>
            <path id="Trazado_202879" data-name="Trazado 202879" d="M243.359,305.009c0,.309-.593.56-1.324.56s-1.324-.251-1.324-.56.593-.56,1.324-.56,1.324.251,1.324.56" transform="translate(-12.782 -16.166)" fill="#332012"/>
            <path id="Trazado_202880" data-name="Trazado 202880" d="M255.081,307.086c0,.549-1.085,1-2.425,1s-2.424-.446-2.424-1,1.085-1,2.424-1,2.425.446,2.425,1" transform="translate(-13.287 -16.253)" fill="#332012"/>
            <path id="Trazado_202881" data-name="Trazado 202881" d="M249.376,299.255c0,.395-.793.715-1.772.715s-1.772-.32-1.772-.715.793-.715,1.772-.715,1.772.32,1.772.715" transform="translate(-13.054 -15.852)" fill="#332012"/>
            <path id="Trazado_202882" data-name="Trazado 202882" d="M273.413,307.086c0,.549-1.294,1-2.891,1s-2.891-.446-2.891-1,1.294-1,2.891-1,2.891.446,2.891,1" transform="translate(-14.211 -16.253)" fill="#4c321c"/>
          </g>
        </g>
        <g id="Grupo_150958" data-name="Grupo 150958" transform="translate(276.625 208.542)">
          <g id="Grupo_150957" data-name="Grupo 150957" clip-path="url(#clip-path-10)">
            <rect id="Rectángulo_42464" data-name="Rectángulo 42464" width="53.875" height="65.809" transform="matrix(1, -0.013, 0.013, 1, -1.295, 0.011)" fill="#c24127"/>
          </g>
        </g>
        <g id="Grupo_150966" data-name="Grupo 150966">
          <g id="Grupo_150965" data-name="Grupo 150965" clip-path="url(#clip-path)">
            <g id="Grupo_150961" data-name="Grupo 150961" transform="translate(285.087 224.309)" opacity="0.35" style="mix-blend-mode: multiply;isolation: isolate">
              <g id="Grupo_150960" data-name="Grupo 150960">
                <g id="Grupo_150959" data-name="Grupo 150959" clip-path="url(#clip-path-12)">
                  <path id="Trazado_202884" data-name="Trazado 202884" d="M336.154,278.018a41.9,41.9,0,0,0-14.638,2.76c-14.972,5.476-19.345-2.611-19.345-2.611s3.112-3.6,0-13.057a20.858,20.858,0,0,0-1.1-2.716l16.906-25.508s10.027,4.29,0,30.589c-7.826,20.524,2.954,8.669,18.174,10.542" transform="translate(-301.074 -236.888)" fill="#d64136"/>
                </g>
              </g>
            </g>
            <g id="Grupo_150964" data-name="Grupo 150964" transform="translate(276.625 218.691)" opacity="0.35" style="mix-blend-mode: multiply;isolation: isolate">
              <g id="Grupo_150963" data-name="Grupo 150963">
                <g id="Grupo_150962" data-name="Grupo 150962" clip-path="url(#clip-path-13)">
                  <path id="Trazado_202885" data-name="Trazado 202885" d="M304.927,250.375l-3.656,13.235c-.216-.552-.44-1.06-.671-1.529-3.133-6.341-7.453-5.424-8.355-14.936-.567-6.005,1.231-12.041,2.916-16.189-.507,1.395-3.267,9.707-.425,17.308,3.1,8.326,10.191,2.112,10.191,2.112" transform="translate(-292.137 -230.955)" fill="#d64136"/>
                </g>
              </g>
            </g>
            <path id="Trazado_202886" data-name="Trazado 202886" d="M269.844,287.8l-4.476,2.8s-5.6,3.077-9.979,3.264-2.424,3.45-2.424,3.45h8.222c3.155,0,7.072,1.3,7.819-1.306l6.341-2.7Z" transform="translate(-13.409 -15.282)" fill="#feb19e"/>
          </g>
        </g>
        <g id="Grupo_150968" data-name="Grupo 150968" transform="translate(255.596 223.569)">
          <g id="Grupo_150967" data-name="Grupo 150967" clip-path="url(#clip-path-14)">
            <rect id="Rectángulo_42468" data-name="Rectángulo 42468" width="76.66" height="76.968" transform="translate(-25.822 17.215) rotate(-33.69)" fill="#c24127"/>
          </g>
        </g>
        <g id="Grupo_150970" data-name="Grupo 150970">
          <g id="Grupo_150969" data-name="Grupo 150969" clip-path="url(#clip-path)">
            <path id="Trazado_202888" data-name="Trazado 202888" d="M292.213,192.8s1.28-11.284,11.992-9.792c10.3,1.435,10.082,14.1,6.262,21.915,0,0,2.611-2.424,4.663,0s-3.357,12.31-10.165,5.783S292.213,192.8,292.213,192.8" transform="translate(-15.516 -9.71)" fill="#28190f"/>
            <path id="Trazado_202889" data-name="Trazado 202889" d="M292.213,191.9s9.147-5.217,10.67,5.321-10.67-5.321-10.67-5.321" transform="translate(-15.516 -10.121)" fill="#f16e46"/>
            <path id="Trazado_202890" data-name="Trazado 202890" d="M286.683,215.94s-6.474-2.062-6.908-8.856c-.373-5.837,2.612-5.782,2.612-5.782s.919-10.072,11.184-9.326,17.018,12.551,11.118,24.455-18.006-.491-18.006-.491" transform="translate(-14.854 -10.192)" fill="#332012"/>
            <path id="Trazado_202891" data-name="Trazado 202891" d="M309.879,221.42s-2.118,10.37-8.707,10.572a2.1,2.1,0,0,1-1.958-2.09,17.9,17.9,0,0,1,.052-2.381l-2.943-3.176,7.371-9.424c0,.008,0,.008.008.015a18.143,18.143,0,0,0,6.178,6.483" transform="translate(-15.735 -11.412)" fill="#feb19e"/>
            <path id="Trazado_202892" data-name="Trazado 202892" d="M299.214,229.9a17.9,17.9,0,0,1,.052-2.381l-2.943-3.177,7.371-9.423c0,.008,0,.008.008.015a12.282,12.282,0,0,1-4.487,14.966" transform="translate(-15.735 -11.412)" fill="#ff856a"/>
            <path id="Trazado_202893" data-name="Trazado 202893" d="M283.815,208.425s5.319,18.15,11.377,18.651c4.88.4,9.917-9.317,7.834-12.5,0,0,1.71-2.58-.093-4.507s-3.917-.249-1.989,3.109c0,0-3.917-.311-4.414-3.419,0,0-8.207,5.47-12.714-1.337" transform="translate(-15.07 -11.067)" fill="#feb19e"/>
            <path id="Trazado_202894" data-name="Trazado 202894" d="M83.61,88.615s8.034-.7,9.976,2.189S79.86,95.063,79.86,95.063Z" transform="translate(-4.241 -4.701)" fill="#f49987"/>
            <path id="Trazado_202895" data-name="Trazado 202895" d="M43.65,79.277,54.1,88.123,80.7,86.742l1.243,11.932s-23.873,3.723-29.843,3.789-24.246-8.389-24.246-8.389Z" transform="translate(-1.479 -4.21)" fill="#5b6f42"/>
            <path id="Trazado_202896" data-name="Trazado 202896" d="M50.946,209.543l-1.81,9.513s-4.718,0-5.527-6.031,2.736-8.144,2.736-8.144l4.228,2.487Z" transform="translate(-2.309 -10.879)" fill="#127266"/>
            <path id="Trazado_202897" data-name="Trazado 202897" d="M48.632,119.788s15.363,28.537,17.6,36.93-.382,18.245-13.108,48.307c0,0-10.02.031-11.512-6.232s-7.647-76.58-7.647-76.58Z" transform="translate(-1.804 -6.361)" fill="#d64f34"/>
            <path id="Trazado_202898" data-name="Trazado 202898" d="M28.959,226.547s-2.239,7.834-1.213,12.5a84.106,84.106,0,0,0,22.288,2.145s1.958-5.2-3.264-6.423-5.689-4.114-5.689-4.114l-.746-4.1Z" transform="translate(-1.459 -12.03)" fill="#14988e"/>
          </g>
        </g>
        <g id="Grupo_150972" data-name="Grupo 150972" transform="translate(10.927 115.478)">
          <g id="Grupo_150971" data-name="Grupo 150971" clip-path="url(#clip-path-16)">
            <rect id="Rectángulo_42470" data-name="Rectángulo 42470" width="37.302" height="102.458" transform="translate(-0.712 0)" fill="url(#linear-gradient)"/>
          </g>
        </g>
        <g id="Grupo_150974" data-name="Grupo 150974">
          <g id="Grupo_150973" data-name="Grupo 150973" clip-path="url(#clip-path)">
            <path id="Trazado_202900" data-name="Trazado 202900" d="M54.907,46A3.934,3.934,0,0,0,59.6,42s6.155,1.213,5.315-7.274c0,0-2.936.933-4.966,0,0,0,1.8-.279,1.982-2.891,0,0-3.824,2.612-9.232-2.7s-15.015-7.088-17.533,2.331a8.067,8.067,0,0,0-2.331,9.886c2.75,6.217,1.424,8.132,1.424,8.132Z" transform="translate(-1.7 -1.315)" fill="#332012"/>
            <path id="Trazado_202901" data-name="Trazado 202901" d="M45.324,57.542l-5.468,5.379-.127.127s-9.415-8.02-7.551-9.886A49.369,49.369,0,0,0,36.737,46.9c.627-.963,1.038-1.627,1.038-1.627Z" transform="translate(-1.696 -2.404)" fill="#feb19e"/>
            <path id="Trazado_202902" data-name="Trazado 202902" d="M45.564,57.542,40.1,62.921c-.075-.134-.15-.284-.217-.433,0,0-5.028-5.633-2.9-15.593.627-.963,1.038-1.627,1.038-1.627Z" transform="translate(-1.936 -2.404)" fill="#ff856a"/>
            <path id="Trazado_202903" data-name="Trazado 202903" d="M56.681,43.5s-6.32,15.267-11.937,15.294c-4.1.02-9.575-9.077-6.714-13.8,0,0-2.8-2.425-.125-4.29,2.349-1.638,3.482.436,2.238,3.109a2.99,2.99,0,0,0,3.668-2.922s6.59,4.538,12.62-.187a9.125,9.125,0,0,1-6.279,3.171,8.537,8.537,0,0,0,6.528-.373" transform="translate(-1.951 -2.13)" fill="#feb19e"/>
            <path id="Trazado_202904" data-name="Trazado 202904" d="M71.8,90.931h7.285L33.644,303.588H26.36Z" transform="translate(-1.4 -4.828)" fill="#c7dee0"/>
            <path id="Trazado_202905" data-name="Trazado 202905" d="M108.843,90.931h-7.285l45.437,212.657h7.285Z" transform="translate(-5.393 -4.828)" fill="#c7dee0"/>
            <path id="Trazado_202906" data-name="Trazado 202906" d="M109.721,100.536H71.347a2.388,2.388,0,0,1-2.387-2.387V93.318a2.388,2.388,0,0,1,2.387-2.387h38.374a2.387,2.387,0,0,1,2.386,2.387v4.831a2.387,2.387,0,0,1-2.386,2.387" transform="translate(-3.662 -4.828)" fill="#98aeaf"/>
            <path id="Trazado_202907" data-name="Trazado 202907" d="M121.242,196.863H58.387a2.984,2.984,0,1,1,0-5.968h62.855a2.984,2.984,0,1,1,0,5.968" transform="translate(-2.942 -10.136)" fill="#98aeaf"/>
            <path id="Trazado_202908" data-name="Trazado 202908" d="M60,193.963a1.492,1.492,0,1,1-1.492-1.492A1.492,1.492,0,0,1,60,193.963" transform="translate(-3.027 -10.22)" fill="#c7dee0"/>
            <path id="Trazado_202909" data-name="Trazado 202909" d="M126.277,193.963a1.492,1.492,0,1,1-1.492-1.492,1.493,1.493,0,0,1,1.492,1.492" transform="translate(-6.547 -10.22)" fill="#c7dee0"/>
          </g>
        </g>
        <g id="Grupo_150976" data-name="Grupo 150976" transform="translate(8.602 48.703)">
          <g id="Grupo_150975" data-name="Grupo 150975" clip-path="url(#clip-path-18)">
            <rect id="Rectángulo_42472" data-name="Rectángulo 42472" width="88.324" height="56.435" transform="matrix(0.212, -0.977, 0.977, 0.212, -16.918, 78.029)" fill="#869d69"/>
          </g>
        </g>
        <g id="Grupo_150981" data-name="Grupo 150981">
          <g id="Grupo_150980" data-name="Grupo 150980" clip-path="url(#clip-path)">
            <g id="Grupo_150979" data-name="Grupo 150979" transform="translate(24.96 68.842)" opacity="0.17" style="mix-blend-mode: multiply;isolation: isolate">
              <g id="Grupo_150978" data-name="Grupo 150978">
                <g id="Grupo_150977" data-name="Grupo 150977" clip-path="url(#clip-path-20)">
                  <path id="Trazado_202911" data-name="Trazado 202911" d="M46.789,100.084C23.9,94.556,26.444,72.7,26.444,72.7L44.76,80.1,46.8,82.161c-.262,4.536-.224,14.186-.015,17.923" transform="translate(-26.36 -72.703)" fill="#107a7a"/>
                </g>
              </g>
            </g>
            <path id="Trazado_202912" data-name="Trazado 202912" d="M101.621,72.8s-3.112,3.732-6.51,19.96a4.6,4.6,0,0,0,2.8,5.2c5.166,2.08,15.37,5.3,26.156,3.748a4.584,4.584,0,0,0,3.9-3.993c.617-5.228,1.58-15.948-.069-21.218Z" transform="translate(-5.045 -3.866)" fill="#f9b858"/>
            <path id="Trazado_202913" data-name="Trazado 202913" d="M128.265,76.457c-.14,1-6.135.975-13.39-.046s-13.022-2.656-12.882-3.651,6.135-.975,13.389.046,13.023,2.656,12.883,3.651" transform="translate(-5.416 -3.825)" fill="#f9c467"/>
            <path id="Trazado_202914" data-name="Trazado 202914" d="M125.211,75.124c-.073.52-4.5.326-9.9-.434s-9.706-1.8-9.633-2.315,4.5-.326,9.9.433,9.706,1.8,9.633,2.316" transform="translate(-5.612 -3.828)" fill="#ea9949"/>
            <path id="Trazado_202915" data-name="Trazado 202915" d="M155.116,85.217a1.076,1.076,0,0,1-.72.667c-1.8.338-3.641-4-3.641-4L128.27,89.162s-2.9-3.274-.854-9.4l24.11-2.7c.151-.014.309-.021.458-.021a3.7,3.7,0,0,1,3.628,3.334,10.579,10.579,0,0,1-.5,4.839" transform="translate(-6.727 -4.091)" fill="#f9b858"/>
            <path id="Trazado_202916" data-name="Trazado 202916" d="M156.525,85.217a7.873,7.873,0,0,1-3.131-8.173,3.7,3.7,0,0,1,3.628,3.334,10.579,10.579,0,0,1-.5,4.839" transform="translate(-8.136 -4.091)" fill="#ffd9a6"/>
            <path id="Trazado_202917" data-name="Trazado 202917" d="M127.048,75.659a.562.562,0,0,1-.095-.014.52.52,0,0,1-.384-.628c.016-.065,1.536-6.6-1.388-11.14a10.441,10.441,0,0,0-13.905-2.738c-5,3.391-6.51,11.09-6.525,11.167a.516.516,0,0,1-.609.415.521.521,0,0,1-.415-.609c.063-.333,1.614-8.2,6.963-11.834a11.477,11.477,0,0,1,15.369,3.041c3.165,4.915,1.591,11.659,1.522,11.943a.52.52,0,0,1-.533.4" transform="translate(-5.507 -3.107)" fill="#ea9949"/>
            <path id="Trazado_202918" data-name="Trazado 202918" d="M161.875,88.273a2.389,2.389,0,0,1,1.421-.1,3.622,3.622,0,0,1,1.266.5,3.417,3.417,0,0,1,1.574,2.194,5.058,5.058,0,0,1-1.284-.423,7.6,7.6,0,0,1-1.05-.572,10.014,10.014,0,0,1-1.927-1.6" transform="translate(-8.596 -4.679)" fill="#fff"/>
            <path id="Trazado_202919" data-name="Trazado 202919" d="M167.977,86.181a3.405,3.405,0,0,1,1.626.094,4.677,4.677,0,0,1,1.441.674,4.272,4.272,0,0,1,1.138,1.143,2.962,2.962,0,0,1,.551,1.553,14.253,14.253,0,0,1-1.331-.767c-.412-.241-.782-.5-1.168-.762a12.428,12.428,0,0,1-2.256-1.935" transform="translate(-8.92 -4.573)" fill="#fff"/>
            <path id="Trazado_202920" data-name="Trazado 202920" d="M163,79.416a2.684,2.684,0,0,1,1.479-.319,3.6,3.6,0,0,1,1.442.362,3.025,3.025,0,0,1,1.792,2.325c-.523-.17-.9-.367-1.3-.533s-.744-.342-1.112-.512a15.737,15.737,0,0,1-2.3-1.322" transform="translate(-8.655 -4.2)" fill="#fff"/>
            <path id="Trazado_202921" data-name="Trazado 202921" d="M177.748,92.076a5.212,5.212,0,0,1,1.717.83,7.6,7.6,0,0,1,1.382,1.236,7.2,7.2,0,0,1,1.053,1.532,5.029,5.029,0,0,1,.582,1.82,9.407,9.407,0,0,1-1.467-1.151,16.126,16.126,0,0,1-1.234-1.261,15,15,0,0,1-1.095-1.391,9.065,9.065,0,0,1-.939-1.614" transform="translate(-9.438 -4.889)" fill="#fff"/>
            <path id="Trazado_202922" data-name="Trazado 202922" d="M178.43,85.182a3.7,3.7,0,0,1,1.781.218,5.04,5.04,0,0,1,1.546.876,4.528,4.528,0,0,1,1.148,1.382,3.3,3.3,0,0,1,.444,1.754c-.518-.369-.9-.733-1.311-1.062l-1.186-.979a26.59,26.59,0,0,1-2.423-2.188" transform="translate(-9.475 -4.521)" fill="#fff"/>
            <path id="Trazado_202923" data-name="Trazado 202923" d="M173,97.267a4.853,4.853,0,0,1,1.862,1.264,6.85,6.85,0,0,1,1.289,1.84,6.751,6.751,0,0,1,.651,2.15,5.3,5.3,0,0,1-.133,2.242c-.382-.675-.638-1.318-.934-1.941l-.862-1.829c-.579-1.216-1.21-2.368-1.874-3.726" transform="translate(-9.186 -5.165)" fill="#fff"/>
            <path id="Trazado_202924" data-name="Trazado 202924" d="M185.875,101.075a3,3,0,0,1,1.5.651,4.227,4.227,0,0,1,1.075,1.186,3.854,3.854,0,0,1,.506,3.119,9.556,9.556,0,0,1-.954-1.212c-.272-.391-.522-.771-.759-1.16a19.319,19.319,0,0,1-1.364-2.584" transform="translate(-9.87 -5.367)" fill="#fff"/>
            <path id="Trazado_202925" data-name="Trazado 202925" d="M100.236,58.8l4.688-3.192s1.674-2.791,6.558-1.229,5.792,2.528,5.143,4.123c0,0,3.16,2.137,2.628,3.633s-2.473,1.9-2.58,2.854a2.89,2.89,0,0,1-2.275,2.418c-1.369.265-1.824,1.37-3.551.938s-4.8-3.136-4.8-3.136l-3.5,1Z" transform="translate(-5.322 -2.863)" fill="#feb19e"/>
          </g>
        </g>
        <g id="Grupo_150983" data-name="Grupo 150983" transform="translate(25.029 53.678)">
          <g id="Grupo_150982" data-name="Grupo 150982" clip-path="url(#clip-path-21)">
            <rect id="Rectángulo_42475" data-name="Rectángulo 42475" width="44.729" height="82.918" transform="translate(-10.018 27.434) rotate(-77.767)" fill="#869d69"/>
          </g>
        </g>
      </g>
    </g>
    <rect id="Rectángulo_42477" data-name="Rectángulo 42477" width="400" height="325" transform="translate(1020 834)" fill="none"/>
  </g>
</svg>
