<svg xmlns="http://www.w3.org/2000/svg" xmlns:xlink="http://www.w3.org/1999/xlink" width="148" height="76" viewBox="0 0 148 76">
  <defs>
    <linearGradient id="linear-gradient" x1="0.165" y1="1.034" x2="0.949" y2="0.071" gradientUnits="objectBoundingBox">
      <stop offset="0" stop-color="#869d69"/>
      <stop offset="1" stop-color="#f6faf0"/>
    </linearGradient>
  </defs>
  <g id="Grupo_150309" data-name="Grupo 150309" transform="translate(-390 -4295)">
    <g id="Grupo_150286" data-name="Grupo 150286" transform="translate(0 74)">
      <rect id="Rectángulo_42055" data-name="Rectángulo 42055" width="148" height="76" transform="translate(390 4221)" fill="none"/>
      <ellipse id="Elipse_4754" data-name="Elipse 4754" cx="58" cy="8.5" rx="58" ry="8.5" transform="translate(404 4276)" fill="#f6e0a9"/>
    </g>
    <g id="laptop" transform="translate(420 4222.182)">
      <path id="Trazado_199097" data-name="Trazado 199097" d="M30.966,133.217v-56a3.853,3.853,0,0,1,3.853-3.853h75.87a3.853,3.853,0,0,1,3.853,3.853v56Z" transform="translate(-24.597 0)" fill="#64798a"/>
      <path id="Trazado_199098" data-name="Trazado 199098" d="M120.862,90.648H52.1A3.853,3.853,0,0,0,48.249,94.5v46.186h76.466V94.5A3.852,3.852,0,0,0,120.862,90.648Z" transform="translate(-38.326 -13.727)" fill="url(#linear-gradient)"/>
      <path id="Trazado_199099" data-name="Trazado 199099" d="M57.046,351.228v2.812H39.266v-2.812H0v4.248a4.739,4.739,0,0,0,4.739,4.739H91.573a4.739,4.739,0,0,0,4.739-4.739v-4.248Z" transform="translate(0 -220.714)" fill="#d5d6db"/>
    </g>
    <g id="stack-of-books" transform="translate(441.533 4306.276)">
      <path id="_x30_6" d="M102.381,113.217l20.7-13.106L94.492,95.435,73.6,107.647Z" transform="translate(-72.849 -87.345)" fill="#ffc846"/>
      <path id="_x30_5" d="M65.736,39.38,82.682,28.65,59.277,24.821,42.1,34.677Z" transform="translate(-28.843 -24.821)" fill="#c05c48"/>
      <path id="_x30_4" d="M24.588,129.316l29.025,4.674a1.757,1.757,0,0,1,1.112.765,2.574,2.574,0,0,1,.464,1.467L55.2,142.7a1.917,1.917,0,0,1-.458,1.316,1.2,1.2,0,0,1-1.109.4L24.6,139.737a19.326,19.326,0,0,0,1.07-5.343A13.782,13.782,0,0,0,24.588,129.316ZM60.907,131.2,37.145,127.37a9.75,9.75,0,0,0,1.144-4.2,10.712,10.712,0,0,0-1.157-4.337L60.9,122.667a1.44,1.44,0,0,1,.909.625,2.094,2.094,0,0,1,.379,1.2l.007,5.3a1.584,1.584,0,0,1-.375,1.079A1,1,0,0,1,60.907,131.2Z" transform="translate(-23.643 -108.066)" fill="#fff3e4"/>
      <path id="_x30_2" d="M56.951,154.212l29.032,4.676a.251.251,0,0,0,.259-.107,1.019,1.019,0,0,0,.207-.674l-.007-6.476a1.635,1.635,0,0,0-.292-.924.846.846,0,0,0-.488-.374l-29.025-4.674a.946.946,0,0,1,.3-1.868s23.211,3.775,29.574,4.836l3.877-2.455,3.664.582,1.445-3.818,10.574-6.7a3.277,3.277,0,0,1,2.025,2.87l.009,6.525a2.307,2.307,0,0,1-.941,1.992l-19.9,12.761.021-.015a2.105,2.105,0,0,1-1.249.411,2.167,2.167,0,0,1-.358-.03L56.652,156.08a.946.946,0,0,1,.3-1.868Z" transform="translate(-55.841 -123.475)" fill="#cc9c29"/>
      <path id="_x30_1" d="M28.256,72.782l23.823,3.8a.671.671,0,0,0,.128-.441l-.007-5.3a1.157,1.157,0,0,0-.205-.656.546.546,0,0,0-.286-.236L27.944,66.118a.946.946,0,0,1,.3-1.868S52.413,68.18,52.6,68.272L68.443,58.241A2.681,2.681,0,0,1,70.1,60.588l.055,5.582a1.891,1.891,0,0,1-.771,1.635S53.273,78.188,52.6,78.418a2.013,2.013,0,0,1-.878.063L27.957,74.65a.946.946,0,0,1,.3-1.868Z" transform="translate(-14.604 -54.412)" fill="#942e19"/>
    </g>
  </g>
</svg>
