<svg xmlns="http://www.w3.org/2000/svg" xmlns:xlink="http://www.w3.org/1999/xlink" width="1030.002" height="278" viewBox="0 0 1030.002 278">
  <defs>
    <clipPath id="clip-path">
      <rect id="Rectángulo_42526" data-name="Rectángulo 42526" width="400" height="278" fill="none"/>
    </clipPath>
    <clipPath id="clip-path-3">
      <path id="Trazado_202929" data-name="Trazado 202929" d="M112.124,121.784A4.255,4.255,0,0,0,108.4,119.9a4.323,4.323,0,0,0-3.486,2.336,7.262,7.262,0,0,0-.517,4.216,25.02,25.02,0,0,0,1.114,4.211c-2.31.939-3.154,1.547-3.258,4.255a11.56,11.56,0,0,0,2.486,7.351,33.11,33.11,0,0,0,4.86,4.927c-1.165-.082-1.626,1.577-1.559,2.81a15.931,15.931,0,0,0,4,9.65,16.241,16.241,0,0,0,3.681,3.157c.445.276,3.751,2.219,4.145,1.766-2.513,2.894-1.792,7.656.282,10.915s5.2,5.59,7.68,8.51c3.856,4.535,6.083,10.408,7.212,16.389a115.148,115.148,0,0,1,.028,39.751c2-2.463,2.466-5.9,3.122-9.023,3-14.264,3.7-29.006,5.652-43.464q.1-.755.208-1.511c.656-4.637,3.461-12.219-.319-16.1a3.377,3.377,0,0,0-4.019-.783c1.8-4.635,3.292-9.7,2.305-14.6A8.023,8.023,0,0,0,139.59,150a3.818,3.818,0,0,0-4.758-.284A45.952,45.952,0,0,0,134.2,139a11.557,11.557,0,0,0-2.9-5.889,5.323,5.323,0,0,0-5.887-1.278c-1.536-3.973-2.492-7.834-5.714-10.662a6.842,6.842,0,0,0-4.123-1.97l-.1,0a3.37,3.37,0,0,0-3.354,2.588" transform="translate(-102.246 -119.196)" fill="none"/>
    </clipPath>
    <clipPath id="clip-path-5">
      <path id="Trazado_202932" data-name="Trazado 202932" d="M101.089,194.222c6.364,6.665,12.085,13.627,18.783,19.951,11.043,10.428,19.46,24.552,25.293,38.863,2.048-30.762-7.56-65.85-32.277-84.253a62.838,62.838,0,0,0-8.183-5.174c-7.113-3.756-15.848-7.284-17.833-15.428-2.51,16.556,2.951,34.242,14.217,46.04" transform="translate(-86.27 -148.182)" fill="none"/>
    </clipPath>
    <clipPath id="clip-path-7">
      <path id="Trazado_202935" data-name="Trazado 202935" d="M219.809,127.367a3.884,3.884,0,0,0-2.476,2.724,2.814,2.814,0,0,0-3.543-.987,6.256,6.256,0,0,0-2.778,2.922c-1.8,3.327-1.466,6.764-1.57,10.479a4.782,4.782,0,0,0-4.406,2.926,10.318,10.318,0,0,0-.656,5.7,39.236,39.236,0,0,0,2.564,8.9,3.382,3.382,0,0,0-3.776,1.759,7.186,7.186,0,0,0-.633,4.558c.606,4.291,3.268,7.918,6.061,11.1a3.028,3.028,0,0,0-3.033,1.926c-1.951,4.359,2.5,9.6,4.363,13.153q.3.578.6,1.157c5.731,11.1,10.536,22.82,17.061,33.422,1.429,2.321,2.79,4.959,5.122,6.313a97.741,97.741,0,0,1-11.391-32.235,31.377,31.377,0,0,1,1.141-15.6c1.175-3.166,3.036-6.058,3.781-9.366s-.037-7.4-2.9-8.939c.449.241,2.572-2.4,2.854-2.764a14.921,14.921,0,0,0,2.078-3.74,14.137,14.137,0,0,0,.474-9.11c-.3-1.021-1.148-2.219-2.069-1.777a30.167,30.167,0,0,0,2.525-5.556,10.186,10.186,0,0,0-.094-6.757c-.863-2.162-1.722-2.384-3.865-2.4a21.926,21.926,0,0,0-.305-3.772,6.092,6.092,0,0,0-1.631-3.251,3.639,3.639,0,0,0-2.438-.942,3.387,3.387,0,0,0-1.059.167" transform="translate(-202.43 -127.2)" fill="none"/>
    </clipPath>
    <clipPath id="clip-path-9">
      <path id="Trazado_202938" data-name="Trazado 202938" d="M174.62,170.039c6.331,7.924,11.932,16.108,18.659,23.7,11.089,12.51,18.975,28.782,24.023,44.994,5.059-33.348-2.2-72.613-27.473-95.228a69.909,69.909,0,0,0-8.451-6.486c-7.415-4.829-16.619-9.574-18.036-18.661-4.26,17.8.072,37.658,11.279,51.685" transform="translate(-161.731 -118.354)" fill="none"/>
    </clipPath>
    <clipPath id="clip-path-11">
      <path id="Trazado_202941" data-name="Trazado 202941" d="M234.61,158.542a75.881,75.881,0,0,0-5.979,9.381c-16.813,31.158-10.754,71.644,5.194,101.86-.527-17.479,1.657-36.07,8.173-52.231,3.953-9.8,6.626-19.759,10.086-29.738a63.446,63.446,0,0,0-6.315-53.934c1.656,9.272-5.627,17.26-11.159,24.662" transform="translate(-218.588 -133.88)" fill="none"/>
    </clipPath>
    <clipPath id="clip-path-13">
      <path id="Trazado_202944" data-name="Trazado 202944" d="M174.822,164.789a60.736,60.736,0,0,0-4.713,7.552c-13.22,25.052-8.082,57.379,4.889,81.413-.548-13.972,1.065-28.857,6.158-41.833,3.09-7.871,5.156-15.855,7.852-23.863a50.723,50.723,0,0,0-5.441-43.08c1.391,7.4-4.376,13.848-8.746,19.812" transform="translate(-162.381 -144.977)" fill="none"/>
    </clipPath>
    <clipPath id="clip-path-15">
      <path id="Trazado_202947" data-name="Trazado 202947" d="M161.491,143.048a6.243,6.243,0,0,0-3.562,2.1c-2.688,2.8-3.268,6.347-4.359,10.039a4.83,4.83,0,0,0-5.195,1.625,10.512,10.512,0,0,0-2.174,5.524,41.428,41.428,0,0,0,.206,9.682,3.449,3.449,0,0,0-4.253.64,7.315,7.315,0,0,0-1.847,4.382c-.531,4.483,1.173,8.911,3.129,12.927a3.06,3.06,0,0,0-3.552,1.03c-3.116,3.789-.047,10.373.878,14.485q.151.669.3,1.341c2.8,12.828,4.5,26.012,8.227,38.581.816,2.752,1.48,5.8,3.457,7.853a103.7,103.7,0,0,1-2.856-35.708c.582-5.463,2.156-10.919,5.291-15.3,2.02-2.824,4.654-5.171,6.28-8.267s1.93-7.431-.537-9.827c.387.375,3.216-1.638,3.6-1.922a14.878,14.878,0,0,0,3.077-3.134,14.482,14.482,0,0,0,2.9-8.992c-.028-1.112-.563-2.567-1.6-2.4a30.2,30.2,0,0,0,4.008-4.821,10.506,10.506,0,0,0,1.7-6.8c-.292-2.423-1.093-2.9-3.236-3.558a22.7,22.7,0,0,0,.7-3.874,6.526,6.526,0,0,0-.771-3.744,3.732,3.732,0,0,0-6.508.179,2.97,2.97,0,0,0-2.923-2.065,2.873,2.873,0,0,0-.366.022" transform="translate(-138.521 -143.026)" fill="none"/>
    </clipPath>
    <clipPath id="clip-path-17">
      <rect id="Rectángulo_42508" data-name="Rectángulo 42508" width="127.528" height="22.468" fill="none"/>
    </clipPath>
    <clipPath id="clip-path-19">
      <rect id="Rectángulo_42510" data-name="Rectángulo 42510" width="127.527" height="22.468" fill="none"/>
    </clipPath>
    <clipPath id="clip-path-21">
      <rect id="Rectángulo_42512" data-name="Rectángulo 42512" width="141.979" height="30.478" fill="none"/>
    </clipPath>
    <clipPath id="clip-path-22">
      <rect id="Rectángulo_42515" data-name="Rectángulo 42515" width="141.979" height="30.479" fill="none"/>
    </clipPath>
    <clipPath id="clip-path-23">
      <rect id="Rectángulo_42523" data-name="Rectángulo 42523" width="56.719" height="59.986" fill="none"/>
    </clipPath>
    <clipPath id="clip-path-24">
      <rect id="Rectángulo_42524" data-name="Rectángulo 42524" width="51.56" height="35.371" fill="none"/>
    </clipPath>
    <clipPath id="clip-path-25">
      <rect id="Rectángulo_42527" data-name="Rectángulo 42527" width="44.45" height="42.818" transform="translate(0 0)" fill="none"/>
    </clipPath>
    <clipPath id="clip-path-26">
      <path id="Trazado_203010" data-name="Trazado 203010" d="M25.477,33.6a43.864,43.864,0,0,0,5.262,1.52c4.521,1.009,10,1.791,11.754,5.062.351-7.177-4.151-14.189-11.72-18.25-4.276-2.3-8.188-4.767-12.64-6.891A52.172,52.172,0,0,1,.278.707,37.627,37.627,0,0,0,25.477,33.6" fill="none"/>
    </clipPath>
  </defs>
  <g id="Grupo_152511" data-name="Grupo 152511" transform="translate(-285 -2401)">
    <g id="Grupo_151051" data-name="Grupo 151051" transform="translate(0 12)">
      <path id="Sustracción_1" data-name="Sustracción 1" d="M-1164.271,11953h-502.458a212.77,212.77,0,0,1-1.272-23.207,211.4,211.4,0,0,1,5.13-46.31,213.849,213.849,0,0,1,14.713-43.135,224.2,224.2,0,0,1,23.281-39.034,237.689,237.689,0,0,1,30.833-34.008,250.765,250.765,0,0,1,37.37-28.061,261.48,261.48,0,0,1,42.891-21.187,269.818,269.818,0,0,1,47.4-13.389A278.555,278.555,0,0,1-1415.5,11700a278.555,278.555,0,0,1,50.887,4.669,269.818,269.818,0,0,1,47.4,13.389,261.417,261.417,0,0,1,42.891,21.187,250.765,250.765,0,0,1,37.37,28.061,237.7,237.7,0,0,1,30.833,34.008,224.175,224.175,0,0,1,23.281,39.034,213.849,213.849,0,0,1,14.713,43.135,211.416,211.416,0,0,1,5.13,46.31,212.736,212.736,0,0,1-1.272,23.206Z" transform="translate(2478 -9286)" fill="#e5efd4"/>
      <g id="Grupo_151044" data-name="Grupo 151044" transform="translate(915 2389)">
        <g id="Grupo_151043" data-name="Grupo 151043" clip-path="url(#clip-path)">
          <g id="Grupo_150990" data-name="Grupo 150990">
            <g id="Grupo_150989" data-name="Grupo 150989" clip-path="url(#clip-path)">
              <path id="Trazado_202927" data-name="Trazado 202927" d="M143.847,187.656c-1.949,14.458-2.656,29.2-5.653,43.464-.656,3.123-1.118,6.56-3.122,9.023a115.153,115.153,0,0,0-.028-39.751c-1.129-5.98-3.357-11.853-7.212-16.388-2.484-2.921-5.6-5.251-7.679-8.51s-2.8-8.021-.283-10.915c-.394.453-3.7-1.49-4.146-1.767a16.251,16.251,0,0,1-3.68-3.156,15.933,15.933,0,0,1-4-9.65c-.067-1.232.394-2.893,1.559-2.81a33.07,33.07,0,0,1-4.86-4.928,11.566,11.566,0,0,1-2.486-7.35c.1-2.708.949-3.316,3.259-4.255a25.123,25.123,0,0,1-1.115-4.212,7.267,7.267,0,0,1,.518-4.215A4.327,4.327,0,0,1,108.4,119.9a4.261,4.261,0,0,1,3.723,1.886,3.378,3.378,0,0,1,3.454-2.585,6.847,6.847,0,0,1,4.123,1.97c3.221,2.828,4.177,6.689,5.714,10.662a5.321,5.321,0,0,1,5.887,1.278A11.559,11.559,0,0,1,134.2,139a45.956,45.956,0,0,1,.634,10.722,3.816,3.816,0,0,1,4.758.283,8.023,8.023,0,0,1,2.431,4.66c.988,4.9-.5,9.966-2.3,14.6a3.376,3.376,0,0,1,4.018.784c3.782,3.879.975,11.461.32,16.1-.071.5-.14,1.006-.207,1.511" transform="translate(-8.452 -3.556)" fill="#008f57"/>
            </g>
          </g>
          <g id="Grupo_150992" data-name="Grupo 150992" transform="translate(93.793 115.64)">
            <g id="Grupo_150991" data-name="Grupo 150991" clip-path="url(#clip-path-3)">
              <path id="Trazado_202928" data-name="Trazado 202928" d="M134.726,239.733c7.282-39.633,3.578-63.866-9.271-88.405a521.9,521.9,0,0,0-27.4-45.881" transform="translate(-101.899 -118.786)" fill="none" stroke="#79bf4c" stroke-miterlimit="10" stroke-width="1"/>
            </g>
          </g>
          <g id="Grupo_150994" data-name="Grupo 150994">
            <g id="Grupo_150993" data-name="Grupo 150993" clip-path="url(#clip-path)">
              <path id="Trazado_202930" data-name="Trazado 202930" d="M104.7,163.61a62.9,62.9,0,0,1,8.183,5.174c24.718,18.4,34.326,53.491,32.277,84.254-5.831-14.313-14.25-28.435-25.293-38.863-6.7-6.325-12.42-13.287-18.784-19.952-11.265-11.8-16.726-29.484-14.215-46.039,1.984,8.143,10.719,11.67,17.832,15.427" transform="translate(-7.132 -4.421)" fill="#29baa3"/>
            </g>
          </g>
          <g id="Grupo_150996" data-name="Grupo 150996" transform="translate(79.139 143.761)">
            <g id="Grupo_150995" data-name="Grupo 150995" clip-path="url(#clip-path-5)">
              <path id="Trazado_202931" data-name="Trazado 202931" d="M144.991,254.282c-4.612-21.788-15.184-41.463-27.453-59.4-11.372-16.63-28.757-32.547-32.995-53.351" transform="translate(-86.128 -147.983)" fill="none" stroke="#4fd3b9" stroke-miterlimit="10" stroke-width="1"/>
            </g>
          </g>
          <g id="Grupo_150998" data-name="Grupo 150998">
            <g id="Grupo_150997" data-name="Grupo 150997" clip-path="url(#clip-path)">
              <path id="Trazado_202933" data-name="Trazado 202933" d="M210.529,193.682c5.732,11.1,10.536,22.819,17.062,33.421,1.428,2.322,2.79,4.959,5.121,6.313a97.767,97.767,0,0,1-11.391-32.235,31.376,31.376,0,0,1,1.141-15.6c1.175-3.166,3.036-6.057,3.782-9.365s-.038-7.4-2.905-8.94c.449.242,2.572-2.4,2.854-2.763a14.9,14.9,0,0,0,2.078-3.741,14.129,14.129,0,0,0,.474-9.109c-.3-1.022-1.148-2.22-2.07-1.777a30.174,30.174,0,0,0,2.525-5.557,10.186,10.186,0,0,0-.094-6.757c-.863-2.162-1.722-2.384-3.865-2.4a21.923,21.923,0,0,0-.305-3.772,6.1,6.1,0,0,0-1.63-3.252,3.6,3.6,0,0,0-3.5-.775,3.885,3.885,0,0,0-2.476,2.725,2.813,2.813,0,0,0-3.543-.988,6.261,6.261,0,0,0-2.778,2.922c-1.8,3.328-1.466,6.765-1.57,10.479a4.78,4.78,0,0,0-4.405,2.926,10.309,10.309,0,0,0-.657,5.7,39.3,39.3,0,0,0,2.564,8.9,3.383,3.383,0,0,0-3.776,1.758,7.18,7.18,0,0,0-.633,4.558c.607,4.292,3.268,7.918,6.061,11.1a3.025,3.025,0,0,0-3.033,1.926c-1.951,4.358,2.5,9.6,4.363,13.153q.3.576.6,1.157" transform="translate(-16.734 -3.795)" fill="#79bf4c"/>
            </g>
          </g>
          <g id="Grupo_151000" data-name="Grupo 151000" transform="translate(185.696 123.405)">
            <g id="Grupo_150999" data-name="Grupo 150999" clip-path="url(#clip-path-7)">
              <path id="Trazado_202934" data-name="Trazado 202934" d="M233.733,232.973c-17.283-29.792-21.238-50.627-17.868-74.648s9.039-46,9.039-46" transform="translate(-203.45 -126.756)" fill="none" stroke="#008f57" stroke-miterlimit="10" stroke-width="1"/>
            </g>
          </g>
          <g id="Grupo_151002" data-name="Grupo 151002">
            <g id="Grupo_151001" data-name="Grupo 151001" clip-path="url(#clip-path)">
              <path id="Trazado_202936" data-name="Trazado 202936" d="M181.377,137.015a69.813,69.813,0,0,1,8.451,6.486c25.274,22.615,32.532,61.88,27.472,95.228-5.047-16.212-12.933-32.484-24.022-44.994-6.726-7.589-12.328-15.771-18.659-23.7-11.206-14.028-15.539-33.884-11.28-51.685,1.417,9.087,10.622,13.833,18.037,18.661" transform="translate(-13.37 -3.531)" fill="#4fd3b9"/>
            </g>
          </g>
          <g id="Grupo_151004" data-name="Grupo 151004" transform="translate(148.361 114.823)">
            <g id="Grupo_151003" data-name="Grupo 151003" clip-path="url(#clip-path-9)">
              <path id="Trazado_202937" data-name="Trazado 202937" d="M217.118,240.078c-3.03-24.242-12.755-46.791-24.492-67.625-10.878-19.308-28.38-38.459-31.094-61.59" transform="translate(-161.714 -118.13)" fill="none" stroke="#29baa3" stroke-miterlimit="10" stroke-width="1"/>
            </g>
          </g>
          <g id="Grupo_151006" data-name="Grupo 151006">
            <g id="Grupo_151005" data-name="Grupo 151005" clip-path="url(#clip-path)">
              <path id="Trazado_202939" data-name="Trazado 202939" d="M234.61,158.542a75.716,75.716,0,0,0-5.979,9.382c-16.813,31.157-10.754,71.643,5.194,101.858-.528-17.478,1.657-36.07,8.173-52.23,3.954-9.8,6.627-19.759,10.087-29.738a63.447,63.447,0,0,0-6.315-53.934c1.655,9.272-5.627,17.259-11.159,24.662" transform="translate(-18.07 -3.995)" fill="#29baa3"/>
            </g>
          </g>
          <g id="Grupo_151008" data-name="Grupo 151008" transform="translate(200.518 129.885)">
            <g id="Grupo_151007" data-name="Grupo 151007" clip-path="url(#clip-path-11)">
              <path id="Trazado_202940" data-name="Trazado 202940" d="M235.664,271c-5.137-24.457-3.268-49.773,1.106-74.185,4.055-22.626,14.539-47.561,9.466-70.831" transform="translate(-219.744 -133.644)" fill="none" stroke="#4fd3b9" stroke-miterlimit="10" stroke-width="1"/>
            </g>
          </g>
          <g id="Grupo_151010" data-name="Grupo 151010">
            <g id="Grupo_151009" data-name="Grupo 151009" clip-path="url(#clip-path)">
              <path id="Trazado_202942" data-name="Trazado 202942" d="M174.822,164.79a60.837,60.837,0,0,0-4.714,7.551c-13.219,25.052-8.082,57.379,4.89,81.414-.549-13.973,1.064-28.858,6.159-41.834,3.09-7.871,5.155-15.854,7.851-23.863a50.724,50.724,0,0,0-5.44-43.08c1.391,7.4-4.376,13.848-8.746,19.813" transform="translate(-13.424 -4.326)" fill="#29baa3"/>
            </g>
          </g>
          <g id="Grupo_151012" data-name="Grupo 151012" transform="translate(148.957 140.651)">
            <g id="Grupo_151011" data-name="Grupo 151011" clip-path="url(#clip-path-13)">
              <path id="Trazado_202943" data-name="Trazado 202943" d="M176.5,254.721c-4.285-19.517-2.974-39.777.349-59.334,3.079-18.126,11.282-38.152,7.057-56.719" transform="translate(-163.323 -144.789)" fill="none" stroke="#4fd3b9" stroke-miterlimit="10" stroke-width="1"/>
            </g>
          </g>
          <g id="Grupo_151014" data-name="Grupo 151014">
            <g id="Grupo_151013" data-name="Grupo 151013" clip-path="url(#clip-path)">
              <path id="Trazado_202945" data-name="Trazado 202945" d="M141.06,206.829c2.8,12.828,4.5,26.012,8.226,38.581.816,2.752,1.48,5.8,3.458,7.853a103.671,103.671,0,0,1-2.856-35.707c.581-5.464,2.155-10.92,5.29-15.305,2.02-2.824,4.655-5.171,6.281-8.267s1.929-7.43-.537-9.826c.386.374,3.215-1.639,3.6-1.923A14.881,14.881,0,0,0,167.6,179.1a14.485,14.485,0,0,0,2.9-8.992c-.028-1.112-.562-2.566-1.6-2.4a30.157,30.157,0,0,0,4.008-4.821,10.5,10.5,0,0,0,1.7-6.8c-.291-2.424-1.093-2.9-3.236-3.559a22.691,22.691,0,0,0,.7-3.873,6.529,6.529,0,0,0-.771-3.745,3.731,3.731,0,0,0-6.508.179,3.013,3.013,0,0,0-3.29-2.043,6.241,6.241,0,0,0-3.561,2.1c-2.689,2.8-3.268,6.347-4.36,10.039a4.831,4.831,0,0,0-5.195,1.625,10.523,10.523,0,0,0-2.174,5.525,41.419,41.419,0,0,0,.207,9.681,3.45,3.45,0,0,0-4.254.64,7.317,7.317,0,0,0-1.846,4.382c-.532,4.483,1.172,8.911,3.128,12.928A3.059,3.059,0,0,0,139.885,191c-3.115,3.79-.046,10.373.879,14.486q.15.669.3,1.34" transform="translate(-11.451 -4.267)" fill="#79bf4c"/>
            </g>
          </g>
          <g id="Grupo_151016" data-name="Grupo 151016" transform="translate(127.07 138.759)">
            <g id="Grupo_151015" data-name="Grupo 151015" clip-path="url(#clip-path-15)">
              <path id="Trazado_202946" data-name="Trazado 202946" d="M153.458,252.852c-9.413-35.008-7.841-57.075,1.922-80.158a476.284,476.284,0,0,1,21.286-43.431" transform="translate(-139.236 -142.615)" fill="none" stroke="#008f57" stroke-miterlimit="10" stroke-width="1"/>
            </g>
          </g>
          <g id="Grupo_151042" data-name="Grupo 151042">
            <g id="Grupo_151041" data-name="Grupo 151041" clip-path="url(#clip-path)">
              <path id="Trazado_202948" data-name="Trazado 202948" d="M388.074,285.711H11.926C5.339,285.711,0,280.064,0,273.1v-2.057c0-6.966,5.339-12.613,11.926-12.613H388.074c6.586,0,11.926,5.647,11.926,12.613V273.1c0,6.966-5.34,12.613-11.926,12.613" transform="translate(0 -7.711)" fill="#c3dddd"/>
              <path id="Trazado_202949" data-name="Trazado 202949" d="M247.9,229.362H377.447c8.557-9.924,9.482-22.625,0-30.1H247.9v3.6H252v22.468h-4.1Z" transform="translate(-20.493 -5.945)" fill="#0091a2"/>
              <path id="Trazado_202950" data-name="Trazado 202950" d="M252.373,225.444H375.391c5.925-4.978,6.1-17.908,0-22.468H252.373Z" transform="translate(-20.863 -6.056)" fill="#fff"/>
              <g id="Grupo_151019" data-name="Grupo 151019" transform="translate(231.51 196.921)" opacity="0.2">
                <g id="Grupo_151018" data-name="Grupo 151018">
                  <g id="Grupo_151017" data-name="Grupo 151017" clip-path="url(#clip-path-17)">
                    <path id="Trazado_202951" data-name="Trazado 202951" d="M372.269,207.164h-119.9v-4.187H375.391c6.1,4.559,5.925,17.49,0,22.468H375.3c2.672-6,1.745-14.709-3.034-18.281" transform="translate(-252.373 -202.977)" fill="#231f20"/>
                  </g>
                </g>
              </g>
              <path id="Trazado_202952" data-name="Trazado 202952" d="M372.807,211.836q-46.456,1.991-92.958,0,46.456-2.007,92.958,0" transform="translate(-23.134 -6.291)" fill="#dfdbda"/>
              <path id="Trazado_202953" data-name="Trazado 202953" d="M358.06,218.841q-46.455,1.991-92.957,0,46.455-2.008,92.957,0" transform="translate(-21.915 -6.5)" fill="#dfdbda"/>
              <path id="Trazado_202954" data-name="Trazado 202954" d="M375.142,167.415H245.594c-8.557-9.924-9.482-22.625,0-30.1H375.142v3.6h-4.1v22.468h4.1Z" transform="translate(-19.743 -4.097)" fill="#942e19"/>
              <path id="Trazado_202955" data-name="Trazado 202955" d="M371.461,163.5H248.444c-5.926-4.978-6.1-17.908,0-22.468H371.461Z" transform="translate(-20.165 -4.208)" fill="#fff"/>
              <g id="Grupo_151022" data-name="Grupo 151022" transform="translate(223.768 136.821)" opacity="0.2">
                <g id="Grupo_151021" data-name="Grupo 151021">
                  <g id="Grupo_151020" data-name="Grupo 151020" clip-path="url(#clip-path-17)">
                    <path id="Trazado_202956" data-name="Trazado 202956" d="M251.564,145.217h119.9V141.03H248.443c-6.1,4.559-5.926,17.49,0,22.467h.088c-2.672-6-1.745-14.708,3.034-18.28" transform="translate(-243.933 -141.029)" fill="#231f20"/>
                  </g>
                </g>
              </g>
              <path id="Trazado_202957" data-name="Trazado 202957" d="M254.143,149.889q46.455-1.991,92.957,0-46.456,2.008-92.957,0" transform="translate(-21.009 -4.442)" fill="#dfdbda"/>
              <path id="Trazado_202958" data-name="Trazado 202958" d="M268.889,156.894q46.455-1.991,92.957,0-46.455,2.008-92.957,0" transform="translate(-22.228 -4.651)" fill="#dfdbda"/>
              <path id="Trazado_202959" data-name="Trazado 202959" d="M253.443,260.387H382.991c8.557-9.924,9.482-22.625,0-30.1H253.443v3.6h4.1v22.468h-4.1Z" transform="translate(-20.951 -6.871)" fill="#cf7664"/>
              <path id="Trazado_202960" data-name="Trazado 202960" d="M236.556,260.387H366.1c8.557-9.924,9.482-22.625,0-30.1H236.556v3.6h4.1v22.468h-4.1Z" transform="translate(-19.555 -6.871)" fill="#942e19"/>
              <path id="Trazado_202961" data-name="Trazado 202961" d="M241.03,256.469H364.048c5.925-4.978,6.1-17.908,0-22.468H241.03Z" transform="translate(-19.925 -6.982)" fill="#fff"/>
              <g id="Grupo_151025" data-name="Grupo 151025" transform="translate(221.105 227.02)" opacity="0.2">
                <g id="Grupo_151024" data-name="Grupo 151024">
                  <g id="Grupo_151023" data-name="Grupo 151023" clip-path="url(#clip-path-19)">
                    <path id="Trazado_202962" data-name="Trazado 202962" d="M360.926,238.189H241.03V234H364.048c6.1,4.559,5.925,17.49,0,22.468h-.088c2.672-6,1.745-14.709-3.034-18.281" transform="translate(-241.03 -234.002)" fill="#231f20"/>
                  </g>
                </g>
              </g>
              <path id="Trazado_202963" data-name="Trazado 202963" d="M361.463,242.861q-46.455,1.992-92.957,0,46.455-2.007,92.957,0" transform="translate(-22.197 -7.216)" fill="#dfdbda"/>
              <path id="Trazado_202964" data-name="Trazado 202964" d="M346.717,249.866q-46.455,1.992-92.957,0,46.455-2.007,92.957,0" transform="translate(-20.978 -7.425)" fill="#dfdbda"/>
              <path id="Trazado_202965" data-name="Trazado 202965" d="M253.316,136.692H382.864c8.556-9.924,9.482-22.625,0-30.1H253.316v3.6h4.1v22.467h-4.1Z" transform="translate(-20.941 -3.18)" fill="#3cb35e"/>
              <path id="Trazado_202966" data-name="Trazado 202966" d="M236.429,136.692H365.977c8.557-9.924,9.482-22.625,0-30.1H236.429v3.6h4.1v22.467h-4.1Z" transform="translate(-19.545 -3.18)" fill="#009364"/>
              <path id="Trazado_202967" data-name="Trazado 202967" d="M240.9,132.774H363.921c5.925-4.978,6.1-17.908,0-22.468H240.9Z" transform="translate(-19.915 -3.291)" fill="#fff"/>
              <g id="Grupo_151028" data-name="Grupo 151028" transform="translate(220.988 107.015)" opacity="0.2">
                <g id="Grupo_151027" data-name="Grupo 151027">
                  <g id="Grupo_151026" data-name="Grupo 151026" clip-path="url(#clip-path-19)">
                    <path id="Trazado_202968" data-name="Trazado 202968" d="M360.8,114.493H240.9v-4.187H363.92c6.1,4.559,5.926,17.49,0,22.468h-.088c2.672-6,1.745-14.709-3.034-18.281" transform="translate(-240.903 -110.306)" fill="#231f20"/>
                  </g>
                </g>
              </g>
              <path id="Trazado_202969" data-name="Trazado 202969" d="M361.336,119.165q-46.455,1.992-92.957,0,46.455-2.007,92.957,0" transform="translate(-22.186 -3.526)" fill="#dfdbda"/>
              <path id="Trazado_202970" data-name="Trazado 202970" d="M346.59,126.171q-46.455,1.991-92.957,0,46.455-2.008,92.957,0" transform="translate(-20.967 -3.735)" fill="#dfdbda"/>
              <path id="Trazado_202971" data-name="Trazado 202971" d="M240.848,198.508h138.31a1.89,1.89,0,0,0,1.835-1.94v-26.6a1.89,1.89,0,0,0-1.835-1.94H240.848a1.89,1.89,0,0,0-1.835,1.94v26.6a1.89,1.89,0,0,0,1.835,1.94" transform="translate(-19.759 -5.013)" fill="#ffdb49"/>
              <g id="Grupo_151031" data-name="Grupo 151031" transform="translate(219.254 163.016)" opacity="0.1">
                <g id="Grupo_151030" data-name="Grupo 151030">
                  <g id="Grupo_151029" data-name="Grupo 151029" clip-path="url(#clip-path-21)">
                    <path id="Trazado_202972" data-name="Trazado 202972" d="M378.681,174.967a1.429,1.429,0,0,0-1.388-1.467H239.014v-4a1.429,1.429,0,0,1,1.387-1.467h139.2a1.429,1.429,0,0,1,1.388,1.467V197.04a1.43,1.43,0,0,1-1.388,1.468h-.925Z" transform="translate(-239.013 -168.029)" fill="#231f20"/>
                  </g>
                </g>
              </g>
              <rect id="Rectángulo_42513" data-name="Rectángulo 42513" width="16.995" height="30.302" transform="translate(325.739 163.016)" fill="#eeaf35"/>
              <rect id="Rectángulo_42514" data-name="Rectángulo 42514" width="11" height="22.031" transform="translate(308.974 167.151)" fill="#eeaf35"/>
              <path id="Trazado_202973" data-name="Trazado 202973" d="M240.848,105.656h138.31a1.89,1.89,0,0,0,1.835-1.94v-26.6a1.89,1.89,0,0,0-1.835-1.94H240.848a1.89,1.89,0,0,0-1.835,1.94v26.6a1.89,1.89,0,0,0,1.835,1.94" transform="translate(-19.759 -2.243)" fill="#0091a2"/>
              <g id="Grupo_151034" data-name="Grupo 151034" transform="translate(219.254 72.934)" opacity="0.1">
                <g id="Grupo_151033" data-name="Grupo 151033">
                  <g id="Grupo_151032" data-name="Grupo 151032" clip-path="url(#clip-path-22)">
                    <path id="Trazado_202974" data-name="Trazado 202974" d="M378.681,82.115a1.429,1.429,0,0,0-1.388-1.467H239.014v-4a1.429,1.429,0,0,1,1.387-1.467h139.2a1.429,1.429,0,0,1,1.388,1.467v27.544a1.429,1.429,0,0,1-1.388,1.468h-.925Z" transform="translate(-239.013 -75.177)" fill="#231f20"/>
                  </g>
                </g>
              </g>
              <rect id="Rectángulo_42516" data-name="Rectángulo 42516" width="16.995" height="30.303" transform="translate(325.739 72.933)" fill="#386e8a"/>
              <rect id="Rectángulo_42517" data-name="Rectángulo 42517" width="11" height="22.032" transform="translate(308.974 77.069)" fill="#386e8a"/>
              <path id="Trazado_202975" data-name="Trazado 202975" d="M269.863,239.493c-20.042,6.242-78.508-17.884-102.206.77-9.155,2.82-11.75-1.813-11.858-9.982,27.03-43.419,66.255-2.247,103.006-5.052,3.87,5.023,6.125,8.9,11.058,14.263" transform="translate(-12.879 -6.274)" fill="#fff"/>
              <path id="Trazado_202976" data-name="Trazado 202976" d="M257.125,212.122c-63.356,9.273-90.976,9.273-101.216,34.906,0-5.793,0-9.836-.081-17.814,3.556-35.241,60.77-37.328,79.37-56.106,4.8,7.8,18.148,33.374,21.926,39.014" transform="translate(-12.882 -5.165)" fill="#fff"/>
              <rect id="Rectángulo_42518" data-name="Rectángulo 42518" width="102.025" height="12.984" transform="translate(154.959 239.462)" fill="#2e3a36"/>
              <path id="Trazado_202977" data-name="Trazado 202977" d="M280.916,262.706c-20.2,6.161-89.53-19.473-112.359-5.962-9.864,2.981-17.682,5.479-12.777-10.549,29.123-45.885,75.908,0,115.506-2.963,2.571,6.279,5.636,13.511,9.629,19.473" transform="translate(-12.754 -6.734)" fill="#d5bfb8"/>
              <path id="Trazado_202978" data-name="Trazado 202978" d="M165.374,245.18a29.442,29.442,0,0,1,10.9-7.687,44.558,44.558,0,0,1,12.885-3.174c8.853-.929,17.73.638,26.219,2.951,8.515,2.357,16.743,5.52,25.1,8.11,8.347,2.563,16.9,4.617,25.664,4.718a63.122,63.122,0,0,1-13.133-.5A104.566,104.566,0,0,1,240.1,246.84c-8.506-2.316-16.763-5.4-25.179-7.693a100.47,100.47,0,0,0-12.729-2.751,60.347,60.347,0,0,0-12.915-.572,49.765,49.765,0,0,0-6.421.841,40.106,40.106,0,0,0-6.266,1.716,30.391,30.391,0,0,0-11.213,6.8" transform="translate(-13.671 -6.983)" fill="#938585"/>
              <path id="Trazado_202979" data-name="Trazado 202979" d="M168.378,251.454a26.187,26.187,0,0,1,5.634-3.271,43.326,43.326,0,0,1,6.129-2.154,65.178,65.178,0,0,1,12.776-2.011,106.371,106.371,0,0,1,25.709,1.956c8.463,1.558,16.783,3.672,25.148,5.414a142.981,142.981,0,0,0,25.372,3.3,108.345,108.345,0,0,1-25.626-1.81c-8.47-1.449-16.812-3.483-25.207-4.992a120.539,120.539,0,0,0-25.335-2.359,72.163,72.163,0,0,0-12.639,1.425,36.111,36.111,0,0,0-11.961,4.5" transform="translate(-13.919 -7.276)" fill="#938585"/>
              <path id="Trazado_202980" data-name="Trazado 202980" d="M31.716,239.493c20.042,6.242,78.508-17.884,102.206.77,9.155,2.82,11.75-1.813,11.858-9.982-27.03-43.419-66.255-2.247-103.006-5.052-3.87,5.023-6.125,8.9-11.058,14.263" transform="translate(-2.622 -6.274)" fill="#fff"/>
              <path id="Trazado_202981" data-name="Trazado 202981" d="M45.6,212.122c63.356,9.273,90.976,9.273,101.216,34.906,0-5.793,0-9.836.081-17.814-3.557-35.241-60.77-37.328-79.37-56.106-4.8,7.8-18.149,33.374-21.926,39.014" transform="translate(-3.77 -5.165)" fill="#fff"/>
              <rect id="Rectángulo_42519" data-name="Rectángulo 42519" width="102.025" height="12.984" transform="translate(29.094 239.462)" fill="#2e3a36"/>
              <path id="Trazado_202982" data-name="Trazado 202982" d="M19.529,262.706c20.2,6.161,89.53-19.473,112.359-5.962,9.864,2.981,17.683,5.479,12.777-10.549-29.123-45.885-75.908,0-115.506-2.963-2.571,6.279-5.636,13.511-9.629,19.473" transform="translate(-1.614 -6.734)" fill="#d5bfb8"/>
              <path id="Trazado_202983" data-name="Trazado 202983" d="M137.4,245.18a30.391,30.391,0,0,0-11.213-6.8,40.134,40.134,0,0,0-6.266-1.716,49.765,49.765,0,0,0-6.421-.841,60.347,60.347,0,0,0-12.915.572,100.47,100.47,0,0,0-12.729,2.751c-8.416,2.293-16.673,5.378-25.179,7.693A104.567,104.567,0,0,1,49.769,249.6a63.124,63.124,0,0,1-13.133.5c8.769-.1,17.317-2.155,25.664-4.718,8.354-2.589,16.583-5.753,25.1-8.11,8.489-2.313,17.366-3.881,26.219-2.951a44.558,44.558,0,0,1,12.885,3.174,29.442,29.442,0,0,1,10.9,7.687" transform="translate(-3.029 -6.983)" fill="#938585"/>
              <path id="Trazado_202984" data-name="Trazado 202984" d="M134.4,251.454a36.124,36.124,0,0,0-11.962-4.5,72.163,72.163,0,0,0-12.639-1.425,120.539,120.539,0,0,0-25.335,2.359c-8.4,1.51-16.737,3.544-25.207,4.992a108.338,108.338,0,0,1-25.625,1.81A142.96,142.96,0,0,0,59,251.387c8.366-1.741,16.685-3.855,25.149-5.414a106.375,106.375,0,0,1,25.709-1.956,65.18,65.18,0,0,1,12.775,2.011,43.326,43.326,0,0,1,6.129,2.154,26.216,26.216,0,0,1,5.635,3.271" transform="translate(-2.78 -7.276)" fill="#938585"/>
              <path id="Trazado_202985" data-name="Trazado 202985" d="M167.684,257.376l-7.994-8.454a6.506,6.506,0,0,0-9.566,0l-7.994,8.454,12.777,7.343Z" transform="translate(-11.75 -7.364)" fill="#2e3a36"/>
              <path id="Trazado_202986" data-name="Trazado 202986" d="M167.542,257.376l-7.994-8.454a6.506,6.506,0,0,0-9.566,0l-7.994,8.454" transform="translate(-11.738 -7.364)" fill="none" stroke="#b8a392" stroke-miterlimit="10" stroke-width="3"/>
              <path id="Trazado_202987" data-name="Trazado 202987" d="M280.853,261.161l-98.422-5.221-13.936-.74a2.369,2.369,0,0,0-2.212,1.781c-1,2.9-7.23,4.093-10.565,4.18-2.946.078-2.958,4.928,0,4.851,5.394-.142,12.852-1.552,14.988-7.742l-2.212,1.78,98.423,5.222,13.935.739c2.95.156,2.942-4.695,0-4.851" transform="translate(-12.69 -7.614)" fill="#0091a2"/>
              <path id="Trazado_202988" data-name="Trazado 202988" d="M19.306,266.011l98.422-5.221,13.936-.74-2.212-1.78c2.136,6.188,9.6,7.6,14.988,7.742,2.952.078,2.951-4.773,0-4.851-3.335-.087-9.564-1.279-10.566-4.18a2.382,2.382,0,0,0-2.211-1.781l-98.423,5.222-13.935.739c-2.937.156-2.955,5.008,0,4.851" transform="translate(-1.413 -7.614)" fill="#0091a2"/>
              <path id="Trazado_202989" data-name="Trazado 202989" d="M248.363,104.277a1.916,1.916,0,0,0-.711-.118.641.641,0,0,0-.562.411.739.739,0,0,0,.016.425c.216.724.986,1.055,1.667,1.293l7.547,2.646a.855.855,0,0,0,.348.07.712.712,0,0,0,.36-.161,3.686,3.686,0,0,0,1.161-2.653,10.454,10.454,0,0,1,.455-2.965c.135-.325.317-.7.155-1.011a.921.921,0,0,0-.336-.321,10.551,10.551,0,0,0-2.335-1.155,17.928,17.928,0,0,1-1.038,2.951c-1.525,2.06-4.722,1.174-6.727.589" transform="translate(-20.424 -3.006)" fill="#1f143f"/>
              <path id="Trazado_202990" data-name="Trazado 202990" d="M285.929,26.62a.443.443,0,0,0,.081.206.4.4,0,0,0,.236.1,14.209,14.209,0,0,0,5.544-.438q-.74-3.381-1.65-6.718a.325.325,0,0,0-.094-.181.285.285,0,0,0-.231-.023q-1.409.266-2.812.569c-.79.17-1.583.266-2.373.454.3,1.027.483,2.032.691,3.086q.288,1.474.609,2.943" transform="translate(-23.53 -0.583)" fill="#d99d81"/>
              <path id="Trazado_202991" data-name="Trazado 202991" d="M259.014,76.376a66.333,66.333,0,0,1,2.994-8.609,3.513,3.513,0,0,1,.93-1.426,3.313,3.313,0,0,1,1.23-.512l10.375-2.739A58.405,58.405,0,0,1,284.9,61.013c2.188-.169,8.594-.893,9.405,1.923a4,4,0,0,1-.486,2.87c-1.648,3.181-5,4.9-8.232,6.105a55.005,55.005,0,0,1-16.9,3.43c-3.052,8.984-5.351,18.24-7.983,27.394l-6.794-1.945s1.964-11.03,2.218-12.183c.911-4.137,1.763-8.223,2.882-12.229" transform="translate(-20.99 -1.814)" fill="#1f143f"/>
              <path id="Trazado_202992" data-name="Trazado 202992" d="M270.759,109.785a2.043,2.043,0,0,0-.562.474.709.709,0,0,0-.094.717.677.677,0,0,0,.307.275,2.229,2.229,0,0,0,2.027-.427l6.941-4.1a.915.915,0,0,0,.284-.224.821.821,0,0,0,.131-.39,3.707,3.707,0,0,0-1.066-2.7,9.861,9.861,0,0,1-1.759-2.357c-.137-.325-.274-.721-.6-.8a.856.856,0,0,0-.45.046,10.462,10.462,0,0,0-2.382,1.04,17.671,17.671,0,0,1,1.356,2.8c.406,2.58-2.371,4.475-4.133,5.643" transform="translate(-22.324 -2.991)" fill="#1f143f"/>
              <path id="Trazado_202993" data-name="Trazado 202993" d="M280.525,22.158a3.735,3.735,0,0,0,3.035,1.315,8.162,8.162,0,0,0,3.792-1.72,11.845,11.845,0,0,0,4.543-7.4c.56-4.324-2.975-7.858-6.788-8.5a8.235,8.235,0,0,0-1.355-.115c-2.375,0-4.774.705-6.2,2.811-1.6,2.376-1.106,6.027-.154,8.6a14.887,14.887,0,0,0,3.124,5.013" transform="translate(-22.859 -0.171)" fill="#fab594"/>
              <path id="Trazado_202994" data-name="Trazado 202994" d="M271.71,76.556a46.406,46.406,0,0,1,1.938,6.345c1.464,5.771,4.383,17.315,4.383,17.315l-6.091,1.923c-1.52-4.461-3.3-8.815-5.09-13.16-.627-1.52-1.237-3.05-1.852-4.577-1.1-2.73-2.216-5.453-3.465-8.11-1.574-3.349-2.51-6.187-2.27-10.009.15-2.4.986-4.188,3.3-4.666A56.565,56.565,0,0,1,270.05,60.6c1.658-.116,3.318-.163,4.978-.209l11.785-.325,6.03-.166c1.3-.036,3.021-.521,4.273-.261a14.275,14.275,0,0,1,.265,7.272c-1.874,6.144-7.154,9.084-13.049,8.866a27.468,27.468,0,0,1-10.09-2.7,11.615,11.615,0,0,0-3.782-1.247c-.255,1.535.687,3.365,1.249,4.724" transform="translate(-21.429 -1.777)" fill="#1f143f"/>
              <path id="Trazado_202995" data-name="Trazado 202995" d="M281.21,59.231c3.092-.1,18,.119,17.984.015-.5-4.979-.134-10.151-.206-15.175a38.941,38.941,0,0,0-1.844-12.314c-1.207-3.454-3.243-7.158-7.2-7.091a6.5,6.5,0,0,0-2.087.4c-3.337,1.2-5.027,4.764-5.96,8.107-1.212,4.341-1.236,8.923-1.137,13.409.052,2.375-.127,4.749-.052,7.123.059,1.845.318,3.7.5,5.531" transform="translate(-23.204 -0.736)" fill="#29baa3"/>
              <path id="Trazado_202996" data-name="Trazado 202996" d="M286.846,17.152c.026,1.349,1.4,1.762,2.122,2.767a6.582,6.582,0,0,1,1.232,4.206,4.444,4.444,0,0,0,.015,1.483c.216.772.934,1.236,1.529,1.739,2.2,1.863,3.126,4.893,4.131,7.682a9.119,9.119,0,0,0,1.49,2.906,4.748,4.748,0,0,0,4.326,1.561c2.1-.35,3.357-2,4.5-3.728a6,6,0,0,0,.528-5.414c-.958-2.377-3.475-4.2-3.262-6.772.091-1.094.691-2.076.848-3.163.309-2.146-1.144-4.116-2.681-5.555s-3.326-2.766-4.078-4.786c-.563-1.512-.46-3.218-.951-4.758a7.458,7.458,0,0,0-4.153-4.4,13.127,13.127,0,0,0-5.949-.9A16.351,16.351,0,0,0,279.8,1.641a10.586,10.586,0,0,0-4.89,4.967,2.584,2.584,0,0,0-.282,1.077c.018,1.105,1.176,1.767,2.2,1.994a4.768,4.768,0,0,1,2.878,1.263c.593.644.894,1.595,1.658,2.077a4.056,4.056,0,0,0,1.545.619,5.278,5.278,0,0,0,1.4-.2,1.151,1.151,0,0,1,.62-1.352,1.538,1.538,0,0,1,1.5.239c1.681,1.23.388,3.142.42,4.827" transform="translate(-22.702 0)" fill="#1f143f"/>
              <path id="Trazado_202997" data-name="Trazado 202997" d="M292.348,43c.292.912.583,1.829.932,2.743q1.121,2.937,2.244,5.874c.277.726.63,1.531,1.33,1.784a1.63,1.63,0,0,0,1.277-.135,3.35,3.35,0,0,0,1.581-2.2c.539-2.13-.231-4.314-.827-6.331a86.979,86.979,0,0,0-3.992-10.694,21.6,21.6,0,0,0-1.3-2.69,4.861,4.861,0,0,0-2.1-1.976,2.613,2.613,0,0,0-2.709.31,2.536,2.536,0,0,0-.4,2.873,71.235,71.235,0,0,0,2.656,6.833A34.87,34.87,0,0,1,292.348,43" transform="translate(-23.819 -0.869)" fill="#fab594"/>
              <path id="Trazado_202998" data-name="Trazado 202998" d="M290.825,49.688A81.1,81.1,0,0,0,277.6,52.52a2.426,2.426,0,0,0-1,.444,1.628,1.628,0,0,0,.29,2.529,2.155,2.155,0,0,0,.725.114,46.54,46.54,0,0,0,6.486.029c2.255-.231,4.508-.483,6.754-.794q1.36-.188,2.714-.406a8.823,8.823,0,0,0,3.417-.827.837.837,0,0,0,.278-.245.944.944,0,0,0,.11-.322,3.192,3.192,0,0,0,0-1.573c-.512-1.644-2.137-1.984-3.571-1.961-1,.016-1.992.078-2.982.177" transform="translate(-22.827 -1.477)" fill="#fab594"/>
              <path id="Trazado_203011" data-name="Trazado 203011" d="M0,0,18.655-.1l-.012,2.325-18.655.1Z" transform="matrix(0.995, -0.096, 0.096, 0.995, 236.061, 58.186)" fill="#0091a2"/>
              <path id="Trazado_203012" data-name="Trazado 203012" d="M0,0,2.219-.045,1.836,19.513l-2.219.045Z" transform="translate(228.961 42.307) rotate(-22.738)" fill="#0091a2"/>
              <path id="Trazado_202999" data-name="Trazado 202999" d="M269.526,53.056a5.114,5.114,0,0,1,.964-.295l2.347-.518a4.412,4.412,0,0,1,2.372-.083,4.559,4.559,0,0,1,1.043.578l1.682,1.137a1.889,1.889,0,0,1-.61,1.558,5.072,5.072,0,0,1-1.426.882,7.113,7.113,0,0,1-1.1.449c-1.781.506-3.626-.428-5.206-1.436q-.189.972-.379,1.943c-.083.43-.516,1.407-1.059.8a1.128,1.128,0,0,1-.136-.891q.129-1.01.258-2.018a4.192,4.192,0,0,1,.286-1.236,1.8,1.8,0,0,1,.964-.867" transform="translate(-22.154 -1.552)" fill="#fab594"/>
              <path id="Trazado_203000" data-name="Trazado 203000" d="M287.424,35.283a27.672,27.672,0,0,0,1.864,5.545c.711-.279,8.15-3.217,8.324-2.827q-1.142-2.554-2.283-5.107a11.922,11.922,0,0,0-2.245-3.726,3.657,3.657,0,0,0-3.857-1.037,3.492,3.492,0,0,0-1.826,2.1,8.57,8.57,0,0,0,.023,5.053" transform="translate(-23.728 -0.833)" fill="#29baa3"/>
              <path id="Trazado_203004" data-name="Trazado 203004" d="M226.027,172.016c-12.3-14.652-33.5-15.985-47.358-2.976s-15.115,35.432-2.815,50.085,33.5,15.986,47.358,2.977,15.115-35.432,2.815-50.086m-6.27,45.994a27.294,27.294,0,0,1-40.035-2.517c-10.4-12.387-9.333-31.344,2.38-42.341a27.293,27.293,0,0,1,40.035,2.517c10.4,12.387,9.333,31.344-2.38,42.341" transform="translate(-13.838 -4.777)" fill="#0091a2"/>
              <path id="Trazado_203013" data-name="Trazado 203013" d="M0,0,5.482-.153,4.313,42.032l-5.482.153Z" transform="matrix(0.748, -0.664, 0.664, 0.748, 205.226, 216.653)" fill="#0091a2"/>
              <g id="Grupo_151037" data-name="Grupo 151037" transform="translate(158.723 160.811)" opacity="0.2">
                <g id="Grupo_151036" data-name="Grupo 151036">
                  <g id="Grupo_151035" data-name="Grupo 151035" clip-path="url(#clip-path-23)">
                    <path id="Trazado_203005" data-name="Trazado 203005" d="M180.179,215.662a27.293,27.293,0,0,0,40.035,2.517c11.713-11,12.778-29.954,2.38-42.341a27.294,27.294,0,0,0-40.035-2.517c-11.713,11-12.778,29.954-2.38,42.341" transform="translate(-173.027 -165.757)" fill="#eaeff2"/>
                  </g>
                </g>
              </g>
              <g id="Grupo_151040" data-name="Grupo 151040" transform="translate(162.234 160.587)" opacity="0.2">
                <g id="Grupo_151039" data-name="Grupo 151039">
                  <g id="Grupo_151038" data-name="Grupo 151038" clip-path="url(#clip-path-24)">
                    <path id="Trazado_203006" data-name="Trazado 203006" d="M223.149,175.607a30.241,30.241,0,0,1,5.264,9.226,29.707,29.707,0,0,1-6.26,8.5,27.294,27.294,0,0,1-40.035-2.517,30.222,30.222,0,0,1-5.264-9.226,29.673,29.673,0,0,1,6.26-8.5,27.293,27.293,0,0,1,40.035,2.517" transform="translate(-176.854 -165.526)" fill="#eaeff2"/>
                  </g>
                </g>
              </g>
              <path id="Trazado_203007" data-name="Trazado 203007" d="M265.054,272.611l4.975-4.67a2.02,2.02,0,0,0,.154-2.74l-24.7-29.42a1.767,1.767,0,0,0-2.591-.163l-4.975,4.67a2.02,2.02,0,0,0-.154,2.74l24.7,29.42a1.766,1.766,0,0,0,2.59.163" transform="translate(-19.617 -7.015)" fill="#1f143f"/>
            </g>
          </g>
        </g>
      </g>
      <g id="Grupo_151049" data-name="Grupo 151049" transform="translate(1040.275 2445)">
        <g id="Grupo_151046" data-name="Grupo 151046">
          <g id="Grupo_151045" data-name="Grupo 151045" clip-path="url(#clip-path-25)">
            <path id="Trazado_203008" data-name="Trazado 203008" d="M30.739,35.119a44.219,44.219,0,0,1-5.261-1.52A37.63,37.63,0,0,1,.278.706,52.155,52.155,0,0,0,18.134,15.039c4.452,2.125,8.363,4.6,12.639,6.891C38.342,25.992,42.844,33,42.493,40.18c-1.755-3.27-7.232-4.052-11.754-5.061" fill="#4fd3b9"/>
          </g>
        </g>
        <g id="Grupo_151048" data-name="Grupo 151048">
          <g id="Grupo_151047" data-name="Grupo 151047" clip-path="url(#clip-path-26)">
            <path id="Trazado_203009" data-name="Trazado 203009" d="M.2.1C4.477,8.9,12.178,16.34,20.776,22.909,28.745,29,40.265,34.3,44.253,42.725" fill="none" stroke="#29baa3" stroke-miterlimit="10" stroke-width="0.437"/>
          </g>
        </g>
      </g>
    </g>
    <rect id="Rectángulo_43653" data-name="Rectángulo 43653" width="1030" height="278" transform="translate(285 2401)" fill="none"/>
  </g>
</svg>
