<svg xmlns="http://www.w3.org/2000/svg" xmlns:xlink="http://www.w3.org/1999/xlink" width="1240" height="281.483" viewBox="0 0 1240 281.483"><defs><clipPath id="a"><rect width="106.549" height="121.444" transform="translate(815 233)" fill="none"/></clipPath><clipPath id="c"><rect width="106.549" height="121.444" transform="translate(815 233)" fill="#ffc846"/></clipPath><clipPath id="e"><path d="M831.678,301.171a36.6,36.6,0,1,1,36.6,36.6,36.6,36.6,0,0,1-36.6-36.6" transform="translate(2140.549 8209.76) rotate(180)" fill="#fff"/></clipPath><clipPath id="f"><path d="M831.678,301.171a36.6,36.6,0,1,1,36.6,36.6,36.6,36.6,0,0,1-36.6-36.6" transform="translate(1510.275 8209.76) rotate(180)" fill="#fff"/></clipPath><clipPath id="g"><path d="M831.678,301.171a36.6,36.6,0,1,1,36.6,36.6,36.6,36.6,0,0,1-36.6-36.6" transform="translate(1825.049 8216.76) rotate(180)" fill="#fff"/></clipPath><clipPath id="h"><path d="M831.678,301.171a36.6,36.6,0,1,1,36.6,36.6,36.6,36.6,0,0,1-36.6-36.6" transform="translate(1195.275 8216.76) rotate(180)" fill="#fff"/></clipPath></defs><g transform="translate(-180 -7760)"><rect width="400" height="51" transform="translate(600 7760)" fill="#869d69"/><path d="M98.645,16.882h5.6V19H96.008V6.2h2.637ZM111.1,19a2.821,2.821,0,0,1-.255-.853,3.073,3.073,0,0,1-2.4,1.028,3.376,3.376,0,0,1-2.316-.809,2.6,2.6,0,0,1-.918-2.039,2.687,2.687,0,0,1,1.121-2.32,5.529,5.529,0,0,1,3.239-.817h1.169v-.545a1.567,1.567,0,0,0-.338-1.055,1.331,1.331,0,0,0-1.068-.4,1.513,1.513,0,0,0-1.006.308,1.045,1.045,0,0,0-.365.844h-2.54a2.551,2.551,0,0,1,.51-1.529,3.37,3.37,0,0,1,1.441-1.1,5.253,5.253,0,0,1,2.092-.4,4.15,4.15,0,0,1,2.791.883,3.09,3.09,0,0,1,1.033,2.483V16.8a4.546,4.546,0,0,0,.378,2.048V19ZM109,17.233a2.188,2.188,0,0,0,1.037-.25,1.645,1.645,0,0,0,.7-.672V14.676h-.949q-1.907,0-2.03,1.318l-.009.149a1.017,1.017,0,0,0,.334.782A1.3,1.3,0,0,0,109,17.233Zm11.391-.861a.818.818,0,0,0-.461-.734,5.241,5.241,0,0,0-1.481-.479q-3.393-.712-3.393-2.883a2.613,2.613,0,0,1,1.05-2.114,4.237,4.237,0,0,1,2.747-.848,4.56,4.56,0,0,1,2.9.853,2.687,2.687,0,0,1,1.085,2.215h-2.54a1.229,1.229,0,0,0-.352-.9,1.488,1.488,0,0,0-1.1-.356,1.52,1.52,0,0,0-.993.29.916.916,0,0,0-.352.738.783.783,0,0,0,.4.681,4.114,4.114,0,0,0,1.349.448,11.019,11.019,0,0,1,1.6.426,2.628,2.628,0,0,1,2.013,2.558,2.481,2.481,0,0,1-1.116,2.1,4.815,4.815,0,0,1-2.883.8,5.029,5.029,0,0,1-2.123-.426,3.561,3.561,0,0,1-1.455-1.169,2.716,2.716,0,0,1-.527-1.6h2.408a1.326,1.326,0,0,0,.5,1.037,1.987,1.987,0,0,0,1.248.36,1.839,1.839,0,0,0,1.1-.277A.861.861,0,0,0,120.389,16.372Zm12.542.756a1.666,1.666,0,0,0,1.143-.387,1.355,1.355,0,0,0,.457-1.028h2.382a3.258,3.258,0,0,1-.527,1.771,3.48,3.48,0,0,1-1.419,1.248,4.442,4.442,0,0,1-1.991.444,4.129,4.129,0,0,1-3.217-1.3A5.13,5.13,0,0,1,128.58,14.3v-.167a5.071,5.071,0,0,1,1.169-3.507,4.08,4.08,0,0,1,3.208-1.31,4,4,0,0,1,2.861,1.015,3.594,3.594,0,0,1,1.094,2.7H134.53a1.745,1.745,0,0,0-.457-1.206,1.7,1.7,0,0,0-2.5.183,3.749,3.749,0,0,0-.453,2.1v.264a3.8,3.8,0,0,0,.448,2.113A1.549,1.549,0,0,0,132.931,17.128Zm5.036-2.971a5.64,5.64,0,0,1,.545-2.522,3.989,3.989,0,0,1,1.569-1.714,4.577,4.577,0,0,1,2.377-.606,4.33,4.33,0,0,1,3.142,1.178,4.727,4.727,0,0,1,1.358,3.2l.018.65a4.97,4.97,0,0,1-1.222,3.511,4.735,4.735,0,0,1-6.561,0,5.058,5.058,0,0,1-1.226-3.586Zm2.54.18a3.555,3.555,0,0,0,.51,2.073,1.831,1.831,0,0,0,2.9.009,3.89,3.89,0,0,0,.519-2.267,3.519,3.519,0,0,0-.519-2.06,1.686,1.686,0,0,0-1.459-.731,1.658,1.658,0,0,0-1.441.726A3.955,3.955,0,0,0,140.507,14.338ZM150.922,9.49,151,10.554a3.342,3.342,0,0,1,2.733-1.239,2.536,2.536,0,0,1,2.522,1.45,3.265,3.265,0,0,1,2.856-1.45,2.836,2.836,0,0,1,2.3.9,4.141,4.141,0,0,1,.756,2.711V19h-2.549V12.936a1.811,1.811,0,0,0-.316-1.182,1.4,1.4,0,0,0-1.116-.374,1.585,1.585,0,0,0-1.582,1.09l.009,6.53h-2.54V12.944a1.789,1.789,0,0,0-.325-1.2,1.416,1.416,0,0,0-1.107-.369,1.646,1.646,0,0,0-1.564.9V19h-2.54V9.49Zm18.9,8.543a3.185,3.185,0,0,1-2.6,1.143,3,3,0,0,1-2.333-.879,3.752,3.752,0,0,1-.822-2.575V9.49h2.54v6.151q0,1.487,1.354,1.487a1.834,1.834,0,0,0,1.775-.9V9.49h2.549V19h-2.391Zm6.715-8.543.079,1.1a3.32,3.32,0,0,1,2.733-1.274,2.759,2.759,0,0,1,2.25.888,4.142,4.142,0,0,1,.756,2.654V19h-2.54V12.918a1.648,1.648,0,0,0-.352-1.173,1.574,1.574,0,0,0-1.169-.365,1.747,1.747,0,0,0-1.608.914V19h-2.54V9.49ZM186.957,19h-2.549V9.49h2.549Zm-2.7-11.971a1.251,1.251,0,0,1,.382-.94,1.648,1.648,0,0,1,2.079,0,1.244,1.244,0,0,1,.387.94,1.247,1.247,0,0,1-.391.949,1.629,1.629,0,0,1-2.065,0A1.247,1.247,0,0,1,184.259,7.029Zm4.395,7.146a5.731,5.731,0,0,1,1-3.542,3.237,3.237,0,0,1,2.729-1.318,2.913,2.913,0,0,1,2.294,1.037V5.5h2.549V19h-2.294l-.123-1.011a2.989,2.989,0,0,1-2.443,1.187,3.228,3.228,0,0,1-2.694-1.323A5.916,5.916,0,0,1,188.653,14.175Zm2.54.189a3.754,3.754,0,0,0,.466,2.051,1.517,1.517,0,0,0,1.354.713,1.7,1.7,0,0,0,1.661-.995V12.375a1.675,1.675,0,0,0-1.644-.995Q191.193,11.38,191.193,14.364ZM204.7,19a2.821,2.821,0,0,1-.255-.853,3.073,3.073,0,0,1-2.4,1.028,3.376,3.376,0,0,1-2.316-.809,2.6,2.6,0,0,1-.918-2.039,2.687,2.687,0,0,1,1.121-2.32,5.529,5.529,0,0,1,3.239-.817h1.169v-.545A1.567,1.567,0,0,0,204,11.591a1.331,1.331,0,0,0-1.068-.4,1.513,1.513,0,0,0-1.006.308,1.045,1.045,0,0,0-.365.844h-2.54a2.551,2.551,0,0,1,.51-1.529,3.37,3.37,0,0,1,1.441-1.1,5.253,5.253,0,0,1,2.092-.4,4.15,4.15,0,0,1,2.791.883,3.09,3.09,0,0,1,1.033,2.483V16.8a4.546,4.546,0,0,0,.378,2.048V19Zm-2.1-1.767a2.188,2.188,0,0,0,1.037-.25,1.645,1.645,0,0,0,.7-.672V14.676h-.949q-1.907,0-2.03,1.318l-.009.149a1.017,1.017,0,0,0,.334.782A1.3,1.3,0,0,0,202.6,17.233Zm5.845-3.059a5.731,5.731,0,0,1,1-3.542,3.237,3.237,0,0,1,2.729-1.318,2.913,2.913,0,0,1,2.294,1.037V5.5h2.549V19h-2.294l-.123-1.011a2.989,2.989,0,0,1-2.443,1.187,3.228,3.228,0,0,1-2.694-1.323A5.916,5.916,0,0,1,208.446,14.175Zm2.54.189a3.754,3.754,0,0,0,.466,2.051,1.517,1.517,0,0,0,1.354.713,1.7,1.7,0,0,0,1.661-.995V12.375a1.675,1.675,0,0,0-1.644-.995Q210.986,11.38,210.986,14.364Zm12.375,4.812a4.668,4.668,0,0,1-3.406-1.283,4.561,4.561,0,0,1-1.314-3.419v-.246a5.745,5.745,0,0,1,.554-2.562,4.064,4.064,0,0,1,1.569-1.74,4.4,4.4,0,0,1,2.316-.611,3.947,3.947,0,0,1,3.072,1.23,5,5,0,0,1,1.121,3.489v1.037h-6.056a2.36,2.36,0,0,0,.743,1.494,2.245,2.245,0,0,0,1.569.563,2.742,2.742,0,0,0,2.294-1.063l1.248,1.4a3.813,3.813,0,0,1-1.547,1.261A5.075,5.075,0,0,1,223.361,19.176Zm-.29-7.813a1.587,1.587,0,0,0-1.226.512,2.651,2.651,0,0,0-.6,1.466h3.533v-.2a1.891,1.891,0,0,0-.457-1.311A1.638,1.638,0,0,0,223.071,11.362Zm10.793,5.01a.818.818,0,0,0-.461-.734,5.241,5.241,0,0,0-1.481-.479q-3.393-.712-3.393-2.883a2.613,2.613,0,0,1,1.05-2.114,4.237,4.237,0,0,1,2.747-.848,4.56,4.56,0,0,1,2.9.853,2.687,2.687,0,0,1,1.085,2.215h-2.54a1.229,1.229,0,0,0-.352-.9,1.488,1.488,0,0,0-1.1-.356,1.52,1.52,0,0,0-.993.29.916.916,0,0,0-.352.738.783.783,0,0,0,.4.681,4.114,4.114,0,0,0,1.349.448,11.019,11.019,0,0,1,1.6.426,2.628,2.628,0,0,1,2.013,2.558,2.481,2.481,0,0,1-1.116,2.1,4.815,4.815,0,0,1-2.883.8,5.029,5.029,0,0,1-2.123-.426,3.561,3.561,0,0,1-1.455-1.169,2.716,2.716,0,0,1-.527-1.6h2.408a1.326,1.326,0,0,0,.5,1.037,1.987,1.987,0,0,0,1.248.36,1.839,1.839,0,0,0,1.1-.277A.861.861,0,0,0,233.864,16.372Zm17.156-2.039a5.758,5.758,0,0,1-.976,3.564,3.231,3.231,0,0,1-2.725,1.279,2.969,2.969,0,0,1-2.47-1.187L244.736,19h-2.285V5.5h2.54v4.843A2.893,2.893,0,0,1,247.3,9.314a3.258,3.258,0,0,1,2.729,1.279,5.767,5.767,0,0,1,.989,3.6Zm-2.54-.185a3.783,3.783,0,0,0-.457-2.1,1.545,1.545,0,0,0-1.362-.664,1.676,1.676,0,0,0-1.67.993v3.753a1.7,1.7,0,0,0,1.688,1,1.568,1.568,0,0,0,1.617-1.213A6.257,6.257,0,0,0,248.48,14.148Zm9.8,3.885a3.185,3.185,0,0,1-2.6,1.143,3,3,0,0,1-2.333-.879,3.752,3.752,0,0,1-.822-2.575V9.49h2.54v6.151q0,1.487,1.354,1.487a1.834,1.834,0,0,0,1.775-.9V9.49h2.549V19h-2.391Zm9.527-1.661a.818.818,0,0,0-.461-.734,5.241,5.241,0,0,0-1.481-.479q-3.393-.712-3.393-2.883a2.613,2.613,0,0,1,1.05-2.114,4.237,4.237,0,0,1,2.747-.848,4.56,4.56,0,0,1,2.9.853,2.687,2.687,0,0,1,1.085,2.215h-2.54a1.229,1.229,0,0,0-.352-.9,1.488,1.488,0,0,0-1.1-.356,1.52,1.52,0,0,0-.993.29.916.916,0,0,0-.352.738.783.783,0,0,0,.4.681,4.114,4.114,0,0,0,1.349.448,11.019,11.019,0,0,1,1.6.426,2.628,2.628,0,0,1,2.013,2.558,2.481,2.481,0,0,1-1.116,2.1,4.815,4.815,0,0,1-2.883.8,5.029,5.029,0,0,1-2.123-.426,3.561,3.561,0,0,1-1.455-1.169,2.716,2.716,0,0,1-.527-1.6h2.408a1.326,1.326,0,0,0,.5,1.037,1.987,1.987,0,0,0,1.248.36,1.839,1.839,0,0,0,1.1-.277A.861.861,0,0,0,267.808,16.372Zm8.06.756a1.666,1.666,0,0,0,1.143-.387,1.355,1.355,0,0,0,.457-1.028h2.382a3.258,3.258,0,0,1-.527,1.771,3.48,3.48,0,0,1-1.419,1.248,4.442,4.442,0,0,1-1.991.444,4.129,4.129,0,0,1-3.217-1.3,5.13,5.13,0,0,1-1.178-3.582v-.167a5.071,5.071,0,0,1,1.169-3.507,4.08,4.08,0,0,1,3.208-1.31,4,4,0,0,1,2.861,1.015,3.594,3.594,0,0,1,1.094,2.7h-2.382a1.745,1.745,0,0,0-.457-1.206,1.7,1.7,0,0,0-2.5.183,3.749,3.749,0,0,0-.453,2.1v.264a3.8,3.8,0,0,0,.448,2.113A1.549,1.549,0,0,0,275.867,17.128ZM286.81,19a2.821,2.821,0,0,1-.255-.853,3.073,3.073,0,0,1-2.4,1.028,3.376,3.376,0,0,1-2.316-.809,2.6,2.6,0,0,1-.918-2.039,2.687,2.687,0,0,1,1.121-2.32,5.529,5.529,0,0,1,3.239-.817h1.169v-.545a1.567,1.567,0,0,0-.338-1.055,1.331,1.331,0,0,0-1.068-.4,1.513,1.513,0,0,0-1.006.308,1.045,1.045,0,0,0-.365.844h-2.54a2.551,2.551,0,0,1,.51-1.529,3.37,3.37,0,0,1,1.441-1.1,5.253,5.253,0,0,1,2.092-.4,4.15,4.15,0,0,1,2.791.883A3.09,3.09,0,0,1,289,12.681V16.8a4.546,4.546,0,0,0,.378,2.048V19Zm-2.1-1.767a2.188,2.188,0,0,0,1.037-.25,1.645,1.645,0,0,0,.7-.672V14.676H285.5q-1.907,0-2.03,1.318l-.009.149a1.017,1.017,0,0,0,.334.782A1.3,1.3,0,0,0,284.709,17.233Zm8.578-7.743.079,1.1A3.32,3.32,0,0,1,296.1,9.314a2.759,2.759,0,0,1,2.25.888,4.142,4.142,0,0,1,.756,2.654V19h-2.54V12.918a1.648,1.648,0,0,0-.352-1.173,1.574,1.574,0,0,0-1.169-.365,1.747,1.747,0,0,0-1.608.914V19H290.9V9.49Zm7.866,8.262a1.279,1.279,0,0,1,.409-.984,1.588,1.588,0,0,1,2.057,0,1.279,1.279,0,0,1,.409.984,1.261,1.261,0,0,1-.4.971,1.614,1.614,0,0,1-2.065,0A1.261,1.261,0,0,1,301.153,17.752Zm0-7.2a1.279,1.279,0,0,1,.409-.984,1.588,1.588,0,0,1,2.057,0,1.279,1.279,0,0,1,.409.984,1.261,1.261,0,0,1-.4.971,1.614,1.614,0,0,1-2.065,0A1.261,1.261,0,0,1,301.153,10.554Z" transform="translate(600 7775)" fill="#fff"/><path d="M0,0H14l8,25.3L14,51H0Z" transform="translate(600 7760)" fill="#627549"/><path d="M0,0H14l8,25.3L14,51H0Z" transform="translate(1000 7811) rotate(180)" fill="#9ab37b"/><rect width="295" height="70" transform="translate(180 7971.002)" fill="#e5efd4"/><rect width="295" height="70" transform="translate(495 7971.002)" fill="#e5efd4"/><rect width="295" height="70" transform="translate(810 7971.002)" fill="#e5efd4"/><rect width="295" height="70" transform="translate(1125 7971.002)" fill="#e5efd4"/><path d="M53.693,16.415a3.682,3.682,0,0,1-1.714,1.316,6.924,6.924,0,0,1-2.561.436,4.966,4.966,0,0,1-2.623-.693A4.618,4.618,0,0,1,45.023,15.5a6.809,6.809,0,0,1-.643-2.963V11.484A6.356,6.356,0,0,1,45.654,7.25a4.44,4.44,0,0,1,3.582-1.5,4.586,4.586,0,0,1,3.046.967,4.213,4.213,0,0,1,1.411,2.743H52.1a2.635,2.635,0,0,0-2.855-2.407,2.821,2.821,0,0,0-2.428,1.126,5.5,5.5,0,0,0-.834,3.261v.989a5.151,5.151,0,0,0,.93,3.236,3.014,3.014,0,0,0,2.515,1.2,5.555,5.555,0,0,0,1.569-.2,2.426,2.426,0,0,0,1.112-.671V13.285h-2.8v-1.3h4.383Zm6.143,1.751a3.924,3.924,0,0,1-2.972-1.2,4.452,4.452,0,0,1-1.146-3.208v-.282a5.39,5.39,0,0,1,.51-2.386,3.982,3.982,0,0,1,1.428-1.644,3.59,3.59,0,0,1,1.988-.594,3.364,3.364,0,0,1,2.723,1.154,5,5,0,0,1,.971,3.3v.639H57.254a3.193,3.193,0,0,0,.776,2.146,2.44,2.44,0,0,0,1.888.818,2.675,2.675,0,0,0,1.378-.332,3.462,3.462,0,0,0,.988-.88l.938.73A3.772,3.772,0,0,1,59.835,18.166Zm-.191-8.052a2.048,2.048,0,0,0-1.561.677,3.288,3.288,0,0,0-.78,1.9h4.5v-.116a2.925,2.925,0,0,0-.631-1.814A1.928,1.928,0,0,0,59.645,10.114Zm6.923-1.1.05,1.129a3.273,3.273,0,0,1,2.689-1.295q2.847,0,2.872,3.212V18H70.643V12.057a2.068,2.068,0,0,0-.444-1.436,1.78,1.78,0,0,0-1.357-.465,2.216,2.216,0,0,0-1.312.4,2.706,2.706,0,0,0-.88,1.046V18H65.115V9.019Zm11.654,9.147a3.924,3.924,0,0,1-2.972-1.2A4.452,4.452,0,0,1,74.1,13.758v-.282a5.39,5.39,0,0,1,.51-2.386,3.982,3.982,0,0,1,1.428-1.644,3.59,3.59,0,0,1,1.988-.594,3.364,3.364,0,0,1,2.723,1.154,5,5,0,0,1,.971,3.3v.639H75.64a3.193,3.193,0,0,0,.776,2.146,2.44,2.44,0,0,0,1.888.818,2.675,2.675,0,0,0,1.378-.332,3.462,3.462,0,0,0,.988-.88l.938.73A3.772,3.772,0,0,1,78.222,18.166Zm-.191-8.052a2.048,2.048,0,0,0-1.561.677,3.288,3.288,0,0,0-.78,1.9h4.5v-.116a2.925,2.925,0,0,0-.631-1.814A1.928,1.928,0,0,0,78.031,10.114Zm9.812.282a4.6,4.6,0,0,0-.755-.058,2.024,2.024,0,0,0-2.05,1.287V18H83.5V9.019H85l.025,1.038a2.391,2.391,0,0,1,2.142-1.2,1.569,1.569,0,0,1,.681.116ZM94.466,18a3.226,3.226,0,0,1-.216-.946,3.426,3.426,0,0,1-2.557,1.112,3.17,3.17,0,0,1-2.179-.751,2.43,2.43,0,0,1-.851-1.905,2.539,2.539,0,0,1,1.067-2.179,5.029,5.029,0,0,1,3-.776h1.494v-.706a1.725,1.725,0,0,0-.481-1.282,1.935,1.935,0,0,0-1.419-.477,2.239,2.239,0,0,0-1.378.415,1.223,1.223,0,0,0-.556,1H88.847a2.119,2.119,0,0,1,.477-1.3,3.258,3.258,0,0,1,1.295-.992,4.356,4.356,0,0,1,1.8-.365,3.551,3.551,0,0,1,2.432.776,2.8,2.8,0,0,1,.913,2.137V15.9a5.054,5.054,0,0,0,.315,1.967V18Zm-2.548-1.17a2.7,2.7,0,0,0,1.37-.374,2.259,2.259,0,0,0,.938-.971V13.642h-1.2q-2.822,0-2.822,1.652a1.4,1.4,0,0,0,.481,1.129A1.85,1.85,0,0,0,91.918,16.83ZM102.51,10.4a4.6,4.6,0,0,0-.755-.058,2.024,2.024,0,0,0-2.05,1.287V18H98.168V9.019h1.494l.025,1.038a2.391,2.391,0,0,1,2.142-1.2,1.569,1.569,0,0,1,.681.116Zm13.223,3.212a5.34,5.34,0,0,1-.946,3.308,3.024,3.024,0,0,1-2.54,1.249,3.131,3.131,0,0,1-2.631-1.2L109.541,18h-1.411V5.25h1.536v4.756a3.113,3.113,0,0,1,2.565-1.154,3.042,3.042,0,0,1,2.569,1.237,5.5,5.5,0,0,1,.934,3.387Zm-1.536-.174a4.15,4.15,0,0,0-.606-2.424,2.006,2.006,0,0,0-1.743-.855,2.255,2.255,0,0,0-2.183,1.411v3.885a2.318,2.318,0,0,0,2.2,1.411,2,2,0,0,0,1.718-.855A4.413,4.413,0,0,0,114.2,13.435Zm7.2,4.731a3.924,3.924,0,0,1-2.972-1.2,4.452,4.452,0,0,1-1.146-3.208v-.282a5.39,5.39,0,0,1,.51-2.386,3.982,3.982,0,0,1,1.428-1.644,3.59,3.59,0,0,1,1.988-.594,3.364,3.364,0,0,1,2.723,1.154,5,5,0,0,1,.971,3.3v.639h-6.084a3.193,3.193,0,0,0,.776,2.146,2.44,2.44,0,0,0,1.888.818,2.675,2.675,0,0,0,1.378-.332,3.462,3.462,0,0,0,.988-.88l.938.73A3.772,3.772,0,0,1,121.394,18.166Zm-.191-8.052a2.048,2.048,0,0,0-1.561.677,3.288,3.288,0,0,0-.78,1.9h4.5v-.116a2.925,2.925,0,0,0-.631-1.814A1.928,1.928,0,0,0,121.2,10.114Zm6.923-1.1.05,1.129a3.273,3.273,0,0,1,2.689-1.295q2.847,0,2.872,3.212V18H132.2V12.057a2.068,2.068,0,0,0-.444-1.436,1.78,1.78,0,0,0-1.357-.465,2.216,2.216,0,0,0-1.312.4,2.706,2.706,0,0,0-.88,1.046V18h-1.536V9.019Zm11.654,9.147a3.924,3.924,0,0,1-2.972-1.2,4.452,4.452,0,0,1-1.146-3.208v-.282a5.39,5.39,0,0,1,.51-2.386A3.982,3.982,0,0,1,137.6,9.446a3.59,3.59,0,0,1,1.988-.594,3.364,3.364,0,0,1,2.723,1.154,5,5,0,0,1,.971,3.3v.639H137.2a3.193,3.193,0,0,0,.776,2.146,2.44,2.44,0,0,0,1.888.818,2.675,2.675,0,0,0,1.378-.332,3.462,3.462,0,0,0,.988-.88l.938.73A3.772,3.772,0,0,1,139.78,18.166Zm-.191-8.052a2.048,2.048,0,0,0-1.561.677,3.288,3.288,0,0,0-.78,1.9h4.5v-.116a2.925,2.925,0,0,0-.631-1.814A1.928,1.928,0,0,0,139.589,10.114ZM145.574,18V10.206h-1.419V9.019h1.419V8.255a3.12,3.12,0,0,1,.859-2.341,3.332,3.332,0,0,1,2.428-.838,7.311,7.311,0,0,1,2.349.506l-.257,1.295a5.321,5.321,0,0,0-1.976-.415,1.933,1.933,0,0,0-1.424.444,1.831,1.831,0,0,0-.436,1.332v.78h1.834v1.187h-1.834V18Zm6.4,0H150.43V9.019h1.544Zm6.1-1.087a2.212,2.212,0,0,0,1.436-.5,1.752,1.752,0,0,0,.681-1.245h1.453a2.785,2.785,0,0,1-.531,1.469,3.5,3.5,0,0,1-1.307,1.112,3.772,3.772,0,0,1-1.731.415,3.7,3.7,0,0,1-2.918-1.224,4.877,4.877,0,0,1-1.083-3.349v-.257A5.407,5.407,0,0,1,154.556,11a3.667,3.667,0,0,1,1.382-1.585,3.926,3.926,0,0,1,2.129-.564,3.6,3.6,0,0,1,2.511.9,3.234,3.234,0,0,1,1.067,2.349h-1.453a2.116,2.116,0,0,0-.66-1.432,2.053,2.053,0,0,0-1.465-.56,2.149,2.149,0,0,0-1.814.843,3.957,3.957,0,0,0-.643,2.436v.291a3.878,3.878,0,0,0,.639,2.391A2.16,2.16,0,0,0,158.075,16.913ZM165.04,18H163.5V9.019h1.536Zm-1.66-11.364a.917.917,0,0,1,.228-.631.857.857,0,0,1,.677-.257.87.87,0,0,1,.681.257.907.907,0,0,1,.232.631.877.877,0,0,1-.232.623.886.886,0,0,1-.681.249.872.872,0,0,1-.677-.249A.886.886,0,0,1,163.379,6.636Zm3.71,6.79a5.3,5.3,0,0,1,.519-2.374,3.87,3.87,0,0,1,1.444-1.627,3.932,3.932,0,0,1,2.113-.573,3.788,3.788,0,0,1,2.968,1.27,4.886,4.886,0,0,1,1.133,3.378v.108a5.351,5.351,0,0,1-.5,2.353,3.813,3.813,0,0,1-1.436,1.623,3.977,3.977,0,0,1-2.146.581,3.778,3.778,0,0,1-2.959-1.27,4.861,4.861,0,0,1-1.133-3.362Zm1.544.183a3.842,3.842,0,0,0,.693,2.4A2.349,2.349,0,0,0,173.042,16a4.2,4.2,0,0,0,.689-2.569,3.836,3.836,0,0,0-.7-2.395,2.23,2.23,0,0,0-1.864-.917,2.205,2.205,0,0,0-1.834.9A4.17,4.17,0,0,0,168.634,13.609Zm13.788,2.009a1.13,1.13,0,0,0-.469-.967,4.514,4.514,0,0,0-1.635-.594,7.731,7.731,0,0,1-1.851-.6,2.633,2.633,0,0,1-1.013-.83,1.986,1.986,0,0,1-.328-1.146,2.33,2.33,0,0,1,.934-1.868,3.647,3.647,0,0,1,2.386-.764,3.753,3.753,0,0,1,2.478.789,2.5,2.5,0,0,1,.95,2.017H182.33a1.386,1.386,0,0,0-.535-1.087,2.006,2.006,0,0,0-1.349-.457,2.1,2.1,0,0,0-1.312.365,1.15,1.15,0,0,0-.473.955.932.932,0,0,0,.44.838,5.413,5.413,0,0,0,1.59.54,8.283,8.283,0,0,1,1.864.614,2.718,2.718,0,0,1,1.058.859,2.112,2.112,0,0,1,.344,1.224,2.3,2.3,0,0,1-.963,1.93,4.039,4.039,0,0,1-2.5.726,4.523,4.523,0,0,1-1.909-.382,3.105,3.105,0,0,1-1.3-1.067,2.571,2.571,0,0,1-.469-1.482h1.536a1.59,1.59,0,0,0,.618,1.224,2.4,2.4,0,0,0,1.523.452,2.476,2.476,0,0,0,1.4-.353A1.084,1.084,0,0,0,182.421,15.618Zm12.974,0a1.13,1.13,0,0,0-.469-.967,4.514,4.514,0,0,0-1.635-.594,7.731,7.731,0,0,1-1.851-.6,2.633,2.633,0,0,1-1.013-.83,1.986,1.986,0,0,1-.328-1.146,2.33,2.33,0,0,1,.934-1.868,3.647,3.647,0,0,1,2.386-.764,3.753,3.753,0,0,1,2.478.789,2.5,2.5,0,0,1,.95,2.017H195.3a1.386,1.386,0,0,0-.535-1.087,2.006,2.006,0,0,0-1.349-.457,2.1,2.1,0,0,0-1.312.365,1.15,1.15,0,0,0-.473.955.932.932,0,0,0,.44.838,5.413,5.413,0,0,0,1.59.54,8.283,8.283,0,0,1,1.864.614,2.718,2.718,0,0,1,1.058.859,2.112,2.112,0,0,1,.344,1.224,2.3,2.3,0,0,1-.963,1.93,4.039,4.039,0,0,1-2.5.726,4.523,4.523,0,0,1-1.909-.382,3.105,3.105,0,0,1-1.3-1.067,2.571,2.571,0,0,1-.469-1.482h1.536a1.59,1.59,0,0,0,.618,1.224,2.4,2.4,0,0,0,1.523.452,2.476,2.476,0,0,0,1.4-.353A1.084,1.084,0,0,0,195.4,15.618Zm3.129-2.191a5.3,5.3,0,0,1,.519-2.374,3.87,3.87,0,0,1,1.444-1.627,3.932,3.932,0,0,1,2.113-.573,3.788,3.788,0,0,1,2.968,1.27A4.886,4.886,0,0,1,206.7,13.5v.108a5.351,5.351,0,0,1-.5,2.353,3.813,3.813,0,0,1-1.436,1.623,3.977,3.977,0,0,1-2.146.581,3.778,3.778,0,0,1-2.959-1.27,4.861,4.861,0,0,1-1.133-3.362Zm1.544.183a3.842,3.842,0,0,0,.693,2.4A2.349,2.349,0,0,0,204.477,16a4.2,4.2,0,0,0,.689-2.569,3.836,3.836,0,0,0-.7-2.395,2.23,2.23,0,0,0-1.864-.917,2.205,2.205,0,0,0-1.834.9A4.17,4.17,0,0,0,200.069,13.609Zm12.161,3.3a2.212,2.212,0,0,0,1.436-.5,1.752,1.752,0,0,0,.681-1.245H215.8a2.785,2.785,0,0,1-.531,1.469,3.5,3.5,0,0,1-1.307,1.112,3.772,3.772,0,0,1-1.731.415,3.7,3.7,0,0,1-2.918-1.224,4.877,4.877,0,0,1-1.083-3.349v-.257A5.407,5.407,0,0,1,208.71,11a3.667,3.667,0,0,1,1.382-1.585,3.926,3.926,0,0,1,2.129-.564,3.6,3.6,0,0,1,2.511.9,3.234,3.234,0,0,1,1.067,2.349h-1.453a2.116,2.116,0,0,0-.66-1.432,2.053,2.053,0,0,0-1.465-.56,2.149,2.149,0,0,0-1.814.843,3.957,3.957,0,0,0-.643,2.436v.291a3.878,3.878,0,0,0,.639,2.391A2.16,2.16,0,0,0,212.229,16.913ZM219.194,18h-1.536V9.019h1.536Zm-1.66-11.364a.917.917,0,0,1,.228-.631.857.857,0,0,1,.677-.257.87.87,0,0,1,.681.257.907.907,0,0,1,.232.631.877.877,0,0,1-.232.623.886.886,0,0,1-.681.249.872.872,0,0,1-.677-.249A.886.886,0,0,1,217.534,6.636ZM227.2,18a3.226,3.226,0,0,1-.216-.946,3.426,3.426,0,0,1-2.557,1.112,3.17,3.17,0,0,1-2.179-.751,2.43,2.43,0,0,1-.851-1.905,2.539,2.539,0,0,1,1.067-2.179,5.029,5.029,0,0,1,3-.776h1.494v-.706a1.725,1.725,0,0,0-.481-1.282,1.935,1.935,0,0,0-1.419-.477,2.239,2.239,0,0,0-1.378.415,1.223,1.223,0,0,0-.556,1h-1.544a2.119,2.119,0,0,1,.477-1.3,3.258,3.258,0,0,1,1.295-.992,4.356,4.356,0,0,1,1.8-.365,3.551,3.551,0,0,1,2.432.776,2.8,2.8,0,0,1,.913,2.137V15.9a5.054,5.054,0,0,0,.315,1.967V18Zm-2.548-1.17a2.7,2.7,0,0,0,1.37-.374,2.259,2.259,0,0,0,.938-.971V13.642h-1.2q-2.822,0-2.822,1.652a1.4,1.4,0,0,0,.481,1.129A1.85,1.85,0,0,0,224.647,16.83ZM232.566,18h-1.536V5.25h1.536Zm6.184.166a3.924,3.924,0,0,1-2.972-1.2,4.452,4.452,0,0,1-1.146-3.208v-.282a5.39,5.39,0,0,1,.51-2.386,3.982,3.982,0,0,1,1.428-1.644,3.59,3.59,0,0,1,1.988-.594,3.364,3.364,0,0,1,2.723,1.154,5,5,0,0,1,.971,3.3v.639h-6.084a3.193,3.193,0,0,0,.776,2.146,2.44,2.44,0,0,0,1.888.818,2.675,2.675,0,0,0,1.378-.332,3.462,3.462,0,0,0,.988-.88l.938.73A3.772,3.772,0,0,1,238.75,18.166Zm-.191-8.052a2.048,2.048,0,0,0-1.561.677,3.288,3.288,0,0,0-.78,1.9h4.5v-.116a2.925,2.925,0,0,0-.631-1.814A1.928,1.928,0,0,0,238.56,10.114Zm10.7,5.5a1.13,1.13,0,0,0-.469-.967,4.514,4.514,0,0,0-1.635-.594,7.731,7.731,0,0,1-1.851-.6,2.633,2.633,0,0,1-1.013-.83,1.986,1.986,0,0,1-.328-1.146,2.33,2.33,0,0,1,.934-1.868,3.647,3.647,0,0,1,2.386-.764,3.753,3.753,0,0,1,2.478.789,2.5,2.5,0,0,1,.95,2.017h-1.544a1.386,1.386,0,0,0-.535-1.087,2.006,2.006,0,0,0-1.349-.457,2.1,2.1,0,0,0-1.312.365,1.15,1.15,0,0,0-.473.955.932.932,0,0,0,.44.838,5.413,5.413,0,0,0,1.59.54,8.283,8.283,0,0,1,1.864.614,2.718,2.718,0,0,1,1.058.859,2.112,2.112,0,0,1,.344,1.224,2.3,2.3,0,0,1-.963,1.93,4.039,4.039,0,0,1-2.5.726,4.523,4.523,0,0,1-1.909-.382,3.105,3.105,0,0,1-1.3-1.067,2.571,2.571,0,0,1-.469-1.482h1.536a1.59,1.59,0,0,0,.618,1.224,2.4,2.4,0,0,0,1.523.452,2.476,2.476,0,0,0,1.4-.353A1.084,1.084,0,0,0,249.259,15.618Z" transform="translate(180 7996.002)" fill="#12263f"/><path d="M29.347,16.7h5.728V18h-7.33V5.914h1.6ZM42.2,18a3.226,3.226,0,0,1-.216-.946,3.426,3.426,0,0,1-2.557,1.112,3.17,3.17,0,0,1-2.179-.751,2.43,2.43,0,0,1-.851-1.905,2.539,2.539,0,0,1,1.067-2.179,5.029,5.029,0,0,1,3-.776h1.494v-.706a1.725,1.725,0,0,0-.481-1.282,1.935,1.935,0,0,0-1.419-.477,2.239,2.239,0,0,0-1.378.415,1.223,1.223,0,0,0-.556,1H36.577a2.119,2.119,0,0,1,.477-1.3,3.258,3.258,0,0,1,1.295-.992,4.356,4.356,0,0,1,1.8-.365,3.551,3.551,0,0,1,2.432.776,2.8,2.8,0,0,1,.913,2.137V15.9a5.054,5.054,0,0,0,.315,1.967V18Zm-2.548-1.17a2.7,2.7,0,0,0,1.37-.374,2.259,2.259,0,0,0,.938-.971V13.642h-1.2q-2.822,0-2.822,1.652a1.4,1.4,0,0,0,.481,1.129A1.85,1.85,0,0,0,39.648,16.83Zm14.062.083a2.212,2.212,0,0,0,1.436-.5,1.752,1.752,0,0,0,.681-1.245h1.453a2.785,2.785,0,0,1-.531,1.469,3.5,3.5,0,0,1-1.307,1.112,3.772,3.772,0,0,1-1.731.415,3.7,3.7,0,0,1-2.918-1.224,4.877,4.877,0,0,1-1.083-3.349v-.257A5.407,5.407,0,0,1,50.19,11a3.667,3.667,0,0,1,1.382-1.585A3.926,3.926,0,0,1,53.7,8.853a3.6,3.6,0,0,1,2.511.9,3.234,3.234,0,0,1,1.067,2.349H55.826a2.116,2.116,0,0,0-.66-1.432,2.053,2.053,0,0,0-1.465-.56,2.149,2.149,0,0,0-1.814.843,3.957,3.957,0,0,0-.643,2.436v.291a3.878,3.878,0,0,0,.639,2.391A2.16,2.16,0,0,0,53.709,16.913ZM58.6,13.426a5.3,5.3,0,0,1,.519-2.374,3.87,3.87,0,0,1,1.444-1.627,3.932,3.932,0,0,1,2.113-.573,3.788,3.788,0,0,1,2.968,1.27A4.886,4.886,0,0,1,66.775,13.5v.108a5.351,5.351,0,0,1-.5,2.353,3.813,3.813,0,0,1-1.436,1.623,3.977,3.977,0,0,1-2.146.581,3.778,3.778,0,0,1-2.959-1.27A4.861,4.861,0,0,1,58.6,13.534Zm1.544.183a3.842,3.842,0,0,0,.693,2.4A2.349,2.349,0,0,0,64.55,16a4.2,4.2,0,0,0,.689-2.569,3.836,3.836,0,0,0-.7-2.395,2.23,2.23,0,0,0-1.864-.917,2.205,2.205,0,0,0-1.834.9A4.17,4.17,0,0,0,60.143,13.609Zm10.011-4.59.05,1.129a3.273,3.273,0,0,1,2.689-1.295q2.847,0,2.872,3.212V18H74.229V12.057a2.068,2.068,0,0,0-.444-1.436,1.78,1.78,0,0,0-1.357-.465,2.216,2.216,0,0,0-1.312.4,2.706,2.706,0,0,0-.88,1.046V18H68.7V9.019Zm13.157,6.6a1.131,1.131,0,0,0-.469-.967,4.514,4.514,0,0,0-1.635-.594,7.731,7.731,0,0,1-1.851-.6,2.633,2.633,0,0,1-1.013-.83,1.986,1.986,0,0,1-.328-1.146,2.33,2.33,0,0,1,.934-1.868,3.647,3.647,0,0,1,2.386-.764,3.753,3.753,0,0,1,2.478.789,2.5,2.5,0,0,1,.95,2.017H83.219a1.386,1.386,0,0,0-.535-1.087,2.006,2.006,0,0,0-1.349-.457,2.1,2.1,0,0,0-1.312.365,1.15,1.15,0,0,0-.473.955.932.932,0,0,0,.44.838,5.413,5.413,0,0,0,1.59.54,8.283,8.283,0,0,1,1.864.614,2.718,2.718,0,0,1,1.058.859,2.112,2.112,0,0,1,.344,1.224,2.3,2.3,0,0,1-.963,1.93,4.039,4.039,0,0,1-2.5.726,4.523,4.523,0,0,1-1.909-.382,3.105,3.105,0,0,1-1.3-1.067,2.571,2.571,0,0,1-.469-1.482h1.536a1.59,1.59,0,0,0,.618,1.224,2.4,2.4,0,0,0,1.523.452,2.476,2.476,0,0,0,1.4-.353A1.084,1.084,0,0,0,83.31,15.618Zm7.263,2.548a3.924,3.924,0,0,1-2.972-1.2,4.452,4.452,0,0,1-1.146-3.208v-.282a5.39,5.39,0,0,1,.51-2.386,3.982,3.982,0,0,1,1.428-1.644,3.59,3.59,0,0,1,1.988-.594A3.364,3.364,0,0,1,93.1,10.006a5,5,0,0,1,.971,3.3v.639H87.992a3.193,3.193,0,0,0,.776,2.146,2.44,2.44,0,0,0,1.888.818,2.675,2.675,0,0,0,1.378-.332,3.462,3.462,0,0,0,.988-.88l.938.73A3.772,3.772,0,0,1,90.573,18.166Zm-.191-8.052a2.048,2.048,0,0,0-1.561.677,3.288,3.288,0,0,0-.78,1.9h4.5v-.116a2.925,2.925,0,0,0-.631-1.814A1.928,1.928,0,0,0,90.382,10.114Zm9.812.282a4.6,4.6,0,0,0-.755-.058,2.024,2.024,0,0,0-2.05,1.287V18H95.853V9.019h1.494l.025,1.038a2.391,2.391,0,0,1,2.142-1.2,1.569,1.569,0,0,1,.681.116Zm4.524,5.52,2.225-6.9h1.569L105.291,18h-1.17l-3.254-8.981h1.569ZM115.409,18a3.226,3.226,0,0,1-.216-.946,3.426,3.426,0,0,1-2.557,1.112,3.17,3.17,0,0,1-2.179-.751,2.43,2.43,0,0,1-.851-1.905,2.539,2.539,0,0,1,1.067-2.179,5.029,5.029,0,0,1,3-.776h1.494v-.706a1.725,1.725,0,0,0-.481-1.282,1.935,1.935,0,0,0-1.419-.477,2.239,2.239,0,0,0-1.378.415,1.223,1.223,0,0,0-.556,1H109.79a2.119,2.119,0,0,1,.477-1.3,3.258,3.258,0,0,1,1.295-.992,4.356,4.356,0,0,1,1.8-.365,3.551,3.551,0,0,1,2.432.776,2.8,2.8,0,0,1,.913,2.137V15.9a5.054,5.054,0,0,0,.315,1.967V18Zm-2.548-1.17a2.7,2.7,0,0,0,1.37-.374,2.259,2.259,0,0,0,.938-.971V13.642h-1.2q-2.822,0-2.822,1.652a1.4,1.4,0,0,0,.481,1.129A1.85,1.85,0,0,0,112.861,16.83Zm9.853.083a2.212,2.212,0,0,0,1.436-.5,1.752,1.752,0,0,0,.681-1.245h1.453a2.785,2.785,0,0,1-.531,1.469,3.5,3.5,0,0,1-1.307,1.112,3.772,3.772,0,0,1-1.731.415,3.7,3.7,0,0,1-2.918-1.224,4.877,4.877,0,0,1-1.083-3.349v-.257A5.407,5.407,0,0,1,119.194,11a3.667,3.667,0,0,1,1.382-1.585,3.926,3.926,0,0,1,2.129-.564,3.6,3.6,0,0,1,2.511.9,3.234,3.234,0,0,1,1.067,2.349h-1.453a2.116,2.116,0,0,0-.66-1.432,2.053,2.053,0,0,0-1.465-.56,2.149,2.149,0,0,0-1.814.843,3.957,3.957,0,0,0-.643,2.436v.291a3.878,3.878,0,0,0,.639,2.391A2.16,2.16,0,0,0,122.714,16.913ZM129.678,18h-1.536V9.019h1.536Zm-1.66-11.364a.917.917,0,0,1,.228-.631.857.857,0,0,1,.677-.257.87.87,0,0,1,.681.257.907.907,0,0,1,.232.631.877.877,0,0,1-.232.623.886.886,0,0,1-.681.249.872.872,0,0,1-.677-.249A.886.886,0,0,1,128.018,6.636Zm3.71,6.79a5.3,5.3,0,0,1,.519-2.374,3.87,3.87,0,0,1,1.444-1.627,3.932,3.932,0,0,1,2.113-.573,3.788,3.788,0,0,1,2.968,1.27A4.886,4.886,0,0,1,139.9,13.5v.108a5.351,5.351,0,0,1-.5,2.353,3.813,3.813,0,0,1-1.436,1.623,3.977,3.977,0,0,1-2.146.581,3.778,3.778,0,0,1-2.959-1.27,4.861,4.861,0,0,1-1.133-3.362Zm1.544.183a3.842,3.842,0,0,0,.693,2.4A2.349,2.349,0,0,0,137.68,16a4.2,4.2,0,0,0,.689-2.569,3.836,3.836,0,0,0-.7-2.395,2.23,2.23,0,0,0-1.864-.917,2.205,2.205,0,0,0-1.834.9A4.17,4.17,0,0,0,133.272,13.609ZM136.5,5.25h1.859l-2.225,2.44-1.237,0Zm6.782,3.769.05,1.129a3.273,3.273,0,0,1,2.689-1.295q2.847,0,2.872,3.212V18h-1.536V12.057a2.068,2.068,0,0,0-.444-1.436,1.78,1.78,0,0,0-1.357-.465,2.216,2.216,0,0,0-1.312.4,2.706,2.706,0,0,0-.88,1.046V18h-1.536V9.019Zm11.762,4.416a5.261,5.261,0,0,1,.979-3.324,3.333,3.333,0,0,1,5.063-.178V5.25h1.536V18h-1.411l-.075-.963a3.127,3.127,0,0,1-2.565,1.129,3.068,3.068,0,0,1-2.544-1.278,5.321,5.321,0,0,1-.984-3.337Zm1.536.174A3.984,3.984,0,0,0,157.212,16a2.039,2.039,0,0,0,1.743.863,2.24,2.24,0,0,0,2.133-1.312V11.426a2.257,2.257,0,0,0-2.117-1.27,2.049,2.049,0,0,0-1.76.872A4.386,4.386,0,0,0,156.581,13.609Zm12.152,4.557a3.924,3.924,0,0,1-2.972-1.2,4.452,4.452,0,0,1-1.146-3.208v-.282a5.39,5.39,0,0,1,.51-2.386,3.982,3.982,0,0,1,1.428-1.644,3.59,3.59,0,0,1,1.988-.594,3.364,3.364,0,0,1,2.723,1.154,5,5,0,0,1,.971,3.3v.639h-6.084a3.193,3.193,0,0,0,.776,2.146,2.44,2.44,0,0,0,1.888.818,2.675,2.675,0,0,0,1.378-.332,3.462,3.462,0,0,0,.988-.88l.938.73A3.772,3.772,0,0,1,168.733,18.166Zm-.191-8.052a2.048,2.048,0,0,0-1.561.677,3.288,3.288,0,0,0-.78,1.9h4.5v-.116a2.925,2.925,0,0,0-.631-1.814A1.928,1.928,0,0,0,168.542,10.114ZM179.89,18h-1.536V5.25h1.536Zm2.05-4.574a5.3,5.3,0,0,1,.519-2.374A3.87,3.87,0,0,1,183.9,9.425a3.932,3.932,0,0,1,2.113-.573,3.788,3.788,0,0,1,2.968,1.27,4.886,4.886,0,0,1,1.133,3.378v.108a5.351,5.351,0,0,1-.5,2.353,3.813,3.813,0,0,1-1.436,1.623,3.977,3.977,0,0,1-2.146.581,3.778,3.778,0,0,1-2.959-1.27,4.861,4.861,0,0,1-1.133-3.362Zm1.544.183a3.842,3.842,0,0,0,.693,2.4A2.349,2.349,0,0,0,187.892,16a4.2,4.2,0,0,0,.689-2.569,3.836,3.836,0,0,0-.7-2.395,2.23,2.23,0,0,0-1.864-.917,2.205,2.205,0,0,0-1.834.9A4.17,4.17,0,0,0,183.484,13.609Zm13.788,2.009a1.13,1.13,0,0,0-.469-.967,4.514,4.514,0,0,0-1.635-.594,7.731,7.731,0,0,1-1.851-.6,2.633,2.633,0,0,1-1.013-.83,1.986,1.986,0,0,1-.328-1.146,2.33,2.33,0,0,1,.934-1.868,3.647,3.647,0,0,1,2.386-.764,3.753,3.753,0,0,1,2.478.789,2.5,2.5,0,0,1,.95,2.017H197.18a1.386,1.386,0,0,0-.535-1.087,2.006,2.006,0,0,0-1.349-.457,2.1,2.1,0,0,0-1.312.365,1.15,1.15,0,0,0-.473.955.932.932,0,0,0,.44.838,5.413,5.413,0,0,0,1.59.54,8.283,8.283,0,0,1,1.864.614,2.718,2.718,0,0,1,1.058.859,2.112,2.112,0,0,1,.344,1.224,2.3,2.3,0,0,1-.963,1.93,4.039,4.039,0,0,1-2.5.726,4.523,4.523,0,0,1-1.909-.382,3.105,3.105,0,0,1-1.3-1.067,2.571,2.571,0,0,1-.469-1.482H193.2a1.59,1.59,0,0,0,.618,1.224,2.4,2.4,0,0,0,1.523.452,2.476,2.476,0,0,0,1.4-.353A1.084,1.084,0,0,0,197.271,15.618Zm15.348-2.009a5.34,5.34,0,0,1-.946,3.308,3.024,3.024,0,0,1-2.54,1.249,3.131,3.131,0,0,1-2.631-1.2L206.427,18h-1.411V5.25h1.536v4.756a3.113,3.113,0,0,1,2.565-1.154,3.042,3.042,0,0,1,2.569,1.237,5.5,5.5,0,0,1,.934,3.387Zm-1.536-.174a4.15,4.15,0,0,0-.606-2.424,2.006,2.006,0,0,0-1.743-.855,2.255,2.255,0,0,0-2.183,1.411v3.885a2.318,2.318,0,0,0,2.2,1.411,2,2,0,0,0,1.718-.855A4.413,4.413,0,0,0,211.084,13.435Zm3.063-.008a5.3,5.3,0,0,1,.519-2.374,3.87,3.87,0,0,1,1.444-1.627,3.932,3.932,0,0,1,2.113-.573,3.788,3.788,0,0,1,2.968,1.27,4.886,4.886,0,0,1,1.133,3.378v.108a5.351,5.351,0,0,1-.5,2.353,3.813,3.813,0,0,1-1.436,1.623,3.977,3.977,0,0,1-2.146.581,3.778,3.778,0,0,1-2.959-1.27,4.861,4.861,0,0,1-1.133-3.362Zm1.544.183a3.842,3.842,0,0,0,.693,2.4A2.349,2.349,0,0,0,220.1,16a4.2,4.2,0,0,0,.689-2.569,3.836,3.836,0,0,0-.7-2.395,2.23,2.23,0,0,0-1.864-.917,2.205,2.205,0,0,0-1.834.9A4.17,4.17,0,0,0,215.691,13.609Zm13.788,2.009a1.13,1.13,0,0,0-.469-.967,4.514,4.514,0,0,0-1.635-.594,7.731,7.731,0,0,1-1.851-.6,2.633,2.633,0,0,1-1.013-.83,1.986,1.986,0,0,1-.328-1.146,2.33,2.33,0,0,1,.934-1.868,3.647,3.647,0,0,1,2.386-.764,3.753,3.753,0,0,1,2.478.789,2.5,2.5,0,0,1,.95,2.017h-1.544a1.386,1.386,0,0,0-.535-1.087,2.006,2.006,0,0,0-1.349-.457,2.1,2.1,0,0,0-1.312.365,1.15,1.15,0,0,0-.473.955.932.932,0,0,0,.44.838,5.413,5.413,0,0,0,1.59.54,8.283,8.283,0,0,1,1.864.614,2.718,2.718,0,0,1,1.058.859,2.112,2.112,0,0,1,.344,1.224,2.3,2.3,0,0,1-.963,1.93,4.039,4.039,0,0,1-2.5.726,4.523,4.523,0,0,1-1.909-.382,3.105,3.105,0,0,1-1.3-1.067,2.571,2.571,0,0,1-.469-1.482h1.536a1.59,1.59,0,0,0,.618,1.224,2.4,2.4,0,0,0,1.523.452,2.476,2.476,0,0,0,1.4-.353A1.084,1.084,0,0,0,229.479,15.618Zm3.163-2.183a5.272,5.272,0,0,1,.971-3.349,3.428,3.428,0,0,1,5.122-.162l.066-.9h1.411V21.453h-1.536V17.17a3.223,3.223,0,0,1-2.474,1,3.1,3.1,0,0,1-2.594-1.266,5.389,5.389,0,0,1-.967-3.358Zm1.536.174a4,4,0,0,0,.652,2.424,2.073,2.073,0,0,0,1.756.88,2.3,2.3,0,0,0,2.092-1.212V11.3a2.307,2.307,0,0,0-2.075-1.187,2.088,2.088,0,0,0-1.768.884A4.35,4.35,0,0,0,234.177,13.609Zm14.045,3.5a3.262,3.262,0,0,1-2.631,1.054,2.792,2.792,0,0,1-2.187-.834,3.611,3.611,0,0,1-.76-2.469V9.019h1.536v5.8q0,2.042,1.66,2.042a2.3,2.3,0,0,0,2.341-1.312V9.019h1.536V18h-1.461Zm7.554,1.054a3.924,3.924,0,0,1-2.972-1.2,4.452,4.452,0,0,1-1.146-3.208v-.282a5.39,5.39,0,0,1,.51-2.386A3.982,3.982,0,0,1,253.6,9.446a3.59,3.59,0,0,1,1.988-.594,3.364,3.364,0,0,1,2.723,1.154,5,5,0,0,1,.971,3.3v.639h-6.084a3.193,3.193,0,0,0,.776,2.146,2.44,2.44,0,0,0,1.888.818,2.675,2.675,0,0,0,1.378-.332,3.462,3.462,0,0,0,.988-.88l.938.73A3.772,3.772,0,0,1,255.775,18.166Zm-.191-8.052a2.048,2.048,0,0,0-1.561.677,3.288,3.288,0,0,0-.78,1.9h4.5v-.116a2.925,2.925,0,0,0-.631-1.814A1.928,1.928,0,0,0,255.584,10.114Zm10.7,5.5a1.131,1.131,0,0,0-.469-.967,4.514,4.514,0,0,0-1.635-.594,7.732,7.732,0,0,1-1.851-.6,2.634,2.634,0,0,1-1.013-.83,1.985,1.985,0,0,1-.328-1.146,2.33,2.33,0,0,1,.934-1.868,3.647,3.647,0,0,1,2.386-.764,3.753,3.753,0,0,1,2.478.789,2.5,2.5,0,0,1,.95,2.017h-1.544a1.386,1.386,0,0,0-.535-1.087,2.006,2.006,0,0,0-1.349-.457,2.1,2.1,0,0,0-1.312.365,1.15,1.15,0,0,0-.473.955.931.931,0,0,0,.44.838,5.413,5.413,0,0,0,1.59.54,8.283,8.283,0,0,1,1.864.614,2.718,2.718,0,0,1,1.058.859,2.112,2.112,0,0,1,.344,1.224,2.3,2.3,0,0,1-.963,1.93,4.039,4.039,0,0,1-2.5.726,4.523,4.523,0,0,1-1.909-.382,3.105,3.105,0,0,1-1.3-1.067,2.571,2.571,0,0,1-.469-1.482h1.536a1.59,1.59,0,0,0,.618,1.224,2.4,2.4,0,0,0,1.523.452,2.476,2.476,0,0,0,1.4-.353A1.084,1.084,0,0,0,266.284,15.618Z" transform="translate(495 7996.002)" fill="#12263f"/><path d="M29.136,16.7h5.728V18h-7.33V5.914h1.6ZM41.986,18a3.226,3.226,0,0,1-.216-.946,3.426,3.426,0,0,1-2.557,1.112,3.17,3.17,0,0,1-2.179-.751,2.43,2.43,0,0,1-.851-1.905,2.539,2.539,0,0,1,1.067-2.179,5.029,5.029,0,0,1,3-.776h1.494v-.706a1.725,1.725,0,0,0-.481-1.282,1.935,1.935,0,0,0-1.419-.477,2.239,2.239,0,0,0-1.378.415,1.223,1.223,0,0,0-.556,1H36.366a2.119,2.119,0,0,1,.477-1.3,3.258,3.258,0,0,1,1.295-.992,4.356,4.356,0,0,1,1.8-.365,3.551,3.551,0,0,1,2.432.776,2.8,2.8,0,0,1,.913,2.137V15.9a5.054,5.054,0,0,0,.315,1.967V18Zm-2.548-1.17a2.7,2.7,0,0,0,1.37-.374,2.259,2.259,0,0,0,.938-.971V13.642h-1.2q-2.822,0-2.822,1.652a1.4,1.4,0,0,0,.481,1.129A1.85,1.85,0,0,0,39.437,16.83Zm18.046-3.221a5.378,5.378,0,0,1-.938,3.3,3.006,3.006,0,0,1-2.54,1.253,3.294,3.294,0,0,1-2.573-1.038v4.325H49.9V9.019h1.4l.075,1A3.163,3.163,0,0,1,53.98,8.853a3.063,3.063,0,0,1,2.561,1.22,5.437,5.437,0,0,1,.942,3.4Zm-1.536-.174a3.968,3.968,0,0,0-.647-2.4,2.086,2.086,0,0,0-1.776-.88,2.257,2.257,0,0,0-2.092,1.237v4.292a2.262,2.262,0,0,0,2.108,1.229,2.076,2.076,0,0,0,1.756-.876A4.332,4.332,0,0,0,55.948,13.435ZM63.775,10.4a4.6,4.6,0,0,0-.755-.058,2.024,2.024,0,0,0-2.05,1.287V18H59.434V9.019h1.494l.025,1.038a2.391,2.391,0,0,1,2.142-1.2,1.569,1.569,0,0,1,.681.116Zm.838,3.03a5.3,5.3,0,0,1,.519-2.374,3.87,3.87,0,0,1,1.444-1.627,3.932,3.932,0,0,1,2.113-.573,3.788,3.788,0,0,1,2.968,1.27A4.886,4.886,0,0,1,72.79,13.5v.108a5.351,5.351,0,0,1-.5,2.353,3.813,3.813,0,0,1-1.436,1.623,3.977,3.977,0,0,1-2.146.581,3.778,3.778,0,0,1-2.959-1.27,4.861,4.861,0,0,1-1.133-3.362Zm1.544.183a3.842,3.842,0,0,0,.693,2.4A2.349,2.349,0,0,0,70.565,16a4.2,4.2,0,0,0,.689-2.569,3.836,3.836,0,0,0-.7-2.395,2.23,2.23,0,0,0-1.864-.917,2.205,2.205,0,0,0-1.834.9A4.17,4.17,0,0,0,66.158,13.609Zm8.185-.174a5.261,5.261,0,0,1,.979-3.324,3.333,3.333,0,0,1,5.063-.178V5.25h1.536V18H80.51l-.075-.963a3.127,3.127,0,0,1-2.565,1.129,3.068,3.068,0,0,1-2.544-1.278,5.321,5.321,0,0,1-.984-3.337Zm1.536.174A3.984,3.984,0,0,0,76.509,16a2.039,2.039,0,0,0,1.743.863,2.24,2.24,0,0,0,2.133-1.312V11.426a2.257,2.257,0,0,0-2.117-1.27,2.049,2.049,0,0,0-1.76.872A4.386,4.386,0,0,0,75.878,13.609Zm13.97,3.5a3.262,3.262,0,0,1-2.631,1.054,2.792,2.792,0,0,1-2.187-.834,3.611,3.611,0,0,1-.76-2.469V9.019h1.536v5.8q0,2.042,1.66,2.042a2.3,2.3,0,0,0,2.341-1.312V9.019h1.536V18H89.881Zm7.429-.2a2.212,2.212,0,0,0,1.436-.5,1.752,1.752,0,0,0,.681-1.245h1.453a2.785,2.785,0,0,1-.531,1.469,3.5,3.5,0,0,1-1.307,1.112,3.772,3.772,0,0,1-1.731.415,3.7,3.7,0,0,1-2.918-1.224,4.877,4.877,0,0,1-1.083-3.349v-.257A5.407,5.407,0,0,1,93.758,11,3.667,3.667,0,0,1,95.14,9.417a3.926,3.926,0,0,1,2.129-.564,3.6,3.6,0,0,1,2.511.9,3.234,3.234,0,0,1,1.067,2.349H99.394a2.116,2.116,0,0,0-.66-1.432,2.053,2.053,0,0,0-1.465-.56,2.149,2.149,0,0,0-1.814.843,3.957,3.957,0,0,0-.643,2.436v.291a3.878,3.878,0,0,0,.639,2.391A2.16,2.16,0,0,0,97.277,16.913Zm8.9,0a2.212,2.212,0,0,0,1.436-.5,1.752,1.752,0,0,0,.681-1.245h1.453a2.785,2.785,0,0,1-.531,1.469,3.5,3.5,0,0,1-1.307,1.112,3.772,3.772,0,0,1-1.731.415,3.7,3.7,0,0,1-2.918-1.224,4.877,4.877,0,0,1-1.083-3.349v-.257A5.407,5.407,0,0,1,102.656,11a3.667,3.667,0,0,1,1.382-1.585,3.926,3.926,0,0,1,2.129-.564,3.6,3.6,0,0,1,2.511.9,3.234,3.234,0,0,1,1.067,2.349h-1.453a2.116,2.116,0,0,0-.66-1.432,2.053,2.053,0,0,0-1.465-.56,2.149,2.149,0,0,0-1.814.843,3.957,3.957,0,0,0-.643,2.436v.291a3.878,3.878,0,0,0,.639,2.391A2.16,2.16,0,0,0,106.176,16.913ZM113.14,18H111.6V9.019h1.536ZM111.48,6.636a.917.917,0,0,1,.228-.631.857.857,0,0,1,.677-.257.87.87,0,0,1,.681.257.907.907,0,0,1,.232.631.877.877,0,0,1-.232.623.886.886,0,0,1-.681.249.872.872,0,0,1-.677-.249A.886.886,0,0,1,111.48,6.636Zm3.71,6.79a5.3,5.3,0,0,1,.519-2.374,3.87,3.87,0,0,1,1.444-1.627,3.932,3.932,0,0,1,2.113-.573,3.788,3.788,0,0,1,2.968,1.27,4.886,4.886,0,0,1,1.133,3.378v.108a5.351,5.351,0,0,1-.5,2.353,3.813,3.813,0,0,1-1.436,1.623,3.977,3.977,0,0,1-2.146.581,3.778,3.778,0,0,1-2.959-1.27,4.861,4.861,0,0,1-1.133-3.362Zm1.544.183a3.842,3.842,0,0,0,.693,2.4A2.349,2.349,0,0,0,121.142,16a4.2,4.2,0,0,0,.689-2.569,3.836,3.836,0,0,0-.7-2.395,2.23,2.23,0,0,0-1.864-.917,2.205,2.205,0,0,0-1.834.9A4.17,4.17,0,0,0,116.734,13.609Zm3.229-8.359h1.859L119.6,7.69l-1.237,0Zm6.782,3.769.05,1.129a3.273,3.273,0,0,1,2.689-1.295q2.847,0,2.872,3.212V18h-1.536V12.057a2.068,2.068,0,0,0-.444-1.436,1.78,1.78,0,0,0-1.357-.465,2.216,2.216,0,0,0-1.312.4,2.706,2.706,0,0,0-.88,1.046V18h-1.536V9.019Zm11.762,4.416a5.261,5.261,0,0,1,.979-3.324,3.333,3.333,0,0,1,5.063-.178V5.25h1.536V18h-1.411l-.075-.963a3.127,3.127,0,0,1-2.565,1.129,3.068,3.068,0,0,1-2.544-1.278,5.321,5.321,0,0,1-.984-3.337Zm1.536.174A3.984,3.984,0,0,0,140.674,16a2.039,2.039,0,0,0,1.743.863,2.24,2.24,0,0,0,2.133-1.312V11.426a2.257,2.257,0,0,0-2.117-1.27,2.049,2.049,0,0,0-1.76.872A4.386,4.386,0,0,0,140.043,13.609ZM152.2,18.166a3.924,3.924,0,0,1-2.972-1.2,4.452,4.452,0,0,1-1.146-3.208v-.282a5.39,5.39,0,0,1,.51-2.386,3.982,3.982,0,0,1,1.428-1.644A3.59,3.59,0,0,1,152,8.853a3.364,3.364,0,0,1,2.723,1.154,5,5,0,0,1,.971,3.3v.639h-6.084a3.193,3.193,0,0,0,.776,2.146,2.44,2.44,0,0,0,1.888.818,2.675,2.675,0,0,0,1.378-.332,3.462,3.462,0,0,0,.988-.88l.938.73A3.772,3.772,0,0,1,152.2,18.166ZM152,10.114a2.048,2.048,0,0,0-1.561.677,3.288,3.288,0,0,0-.78,1.9h4.5v-.116a2.925,2.925,0,0,0-.631-1.814A1.928,1.928,0,0,0,152,10.114Zm17.282,3.495a5.34,5.34,0,0,1-.946,3.308,3.024,3.024,0,0,1-2.54,1.249,3.131,3.131,0,0,1-2.631-1.2L163.094,18h-1.411V5.25h1.536v4.756a3.113,3.113,0,0,1,2.565-1.154,3.042,3.042,0,0,1,2.569,1.237,5.5,5.5,0,0,1,.934,3.387Zm-1.536-.174a4.15,4.15,0,0,0-.606-2.424,2.006,2.006,0,0,0-1.743-.855,2.255,2.255,0,0,0-2.183,1.411v3.885a2.318,2.318,0,0,0,2.2,1.411,2,2,0,0,0,1.718-.855A4.413,4.413,0,0,0,167.751,13.435ZM172.889,18h-1.536V9.019h1.536Zm-1.66-11.364a.917.917,0,0,1,.228-.631.857.857,0,0,1,.677-.257.87.87,0,0,1,.681.257.907.907,0,0,1,.232.631.877.877,0,0,1-.232.623.886.886,0,0,1-.681.249.872.872,0,0,1-.677-.249A.886.886,0,0,1,171.229,6.636Zm7.844,11.53a3.924,3.924,0,0,1-2.972-1.2,4.452,4.452,0,0,1-1.146-3.208v-.282a5.39,5.39,0,0,1,.51-2.386,3.982,3.982,0,0,1,1.428-1.644,3.59,3.59,0,0,1,1.988-.594,3.364,3.364,0,0,1,2.723,1.154,5,5,0,0,1,.971,3.3v.639h-6.084a3.193,3.193,0,0,0,.776,2.146,2.44,2.44,0,0,0,1.888.818,2.675,2.675,0,0,0,1.378-.332,3.462,3.462,0,0,0,.988-.88l.938.73A3.772,3.772,0,0,1,179.073,18.166Zm-.191-8.052a2.048,2.048,0,0,0-1.561.677,3.288,3.288,0,0,0-.78,1.9h4.5v-.116a2.925,2.925,0,0,0-.631-1.814A1.928,1.928,0,0,0,178.882,10.114Zm6.923-1.1.05,1.129a3.273,3.273,0,0,1,2.689-1.295q2.847,0,2.872,3.212V18h-1.536V12.057a2.068,2.068,0,0,0-.444-1.436,1.78,1.78,0,0,0-1.357-.465,2.216,2.216,0,0,0-1.312.4,2.706,2.706,0,0,0-.88,1.046V18h-1.536V9.019Zm11.654,9.147a3.924,3.924,0,0,1-2.972-1.2,4.452,4.452,0,0,1-1.146-3.208v-.282a5.39,5.39,0,0,1,.51-2.386,3.982,3.982,0,0,1,1.428-1.644,3.59,3.59,0,0,1,1.988-.594,3.364,3.364,0,0,1,2.723,1.154,5,5,0,0,1,.971,3.3v.639h-6.084a3.193,3.193,0,0,0,.776,2.146,2.44,2.44,0,0,0,1.888.818,2.675,2.675,0,0,0,1.378-.332,3.462,3.462,0,0,0,.988-.88l.938.73A3.772,3.772,0,0,1,197.459,18.166Zm-.191-8.052a2.048,2.048,0,0,0-1.561.677,3.288,3.288,0,0,0-.78,1.9h4.5v-.116a2.925,2.925,0,0,0-.631-1.814A1.928,1.928,0,0,0,197.268,10.114Zm10.7,5.5a1.13,1.13,0,0,0-.469-.967,4.514,4.514,0,0,0-1.635-.594,7.731,7.731,0,0,1-1.851-.6,2.633,2.633,0,0,1-1.013-.83,1.986,1.986,0,0,1-.328-1.146,2.33,2.33,0,0,1,.934-1.868,3.647,3.647,0,0,1,2.386-.764,3.753,3.753,0,0,1,2.478.789,2.5,2.5,0,0,1,.95,2.017h-1.544a1.386,1.386,0,0,0-.535-1.087,2.006,2.006,0,0,0-1.349-.457,2.1,2.1,0,0,0-1.312.365,1.15,1.15,0,0,0-.473.955.932.932,0,0,0,.44.838,5.413,5.413,0,0,0,1.59.54,8.283,8.283,0,0,1,1.864.614,2.718,2.718,0,0,1,1.058.859,2.112,2.112,0,0,1,.344,1.224,2.3,2.3,0,0,1-.963,1.93,4.039,4.039,0,0,1-2.5.726,4.523,4.523,0,0,1-1.909-.382,3.105,3.105,0,0,1-1.3-1.067,2.571,2.571,0,0,1-.469-1.482H203.9a1.59,1.59,0,0,0,.618,1.224,2.4,2.4,0,0,0,1.523.452,2.476,2.476,0,0,0,1.4-.353A1.084,1.084,0,0,0,207.968,15.618Zm10.683.133,2.092-6.732h1.644l-3.611,10.368q-.838,2.241-2.665,2.241l-.291-.025-.573-.108V20.25l.415.033a2.043,2.043,0,0,0,1.216-.315,2.283,2.283,0,0,0,.718-1.154l.34-.913-3.2-8.882h1.677ZM45.136,37.618a1.13,1.13,0,0,0-.469-.967,4.514,4.514,0,0,0-1.635-.594,7.731,7.731,0,0,1-1.851-.6,2.633,2.633,0,0,1-1.013-.83,1.986,1.986,0,0,1-.328-1.146,2.33,2.33,0,0,1,.934-1.868,3.647,3.647,0,0,1,2.386-.764,3.753,3.753,0,0,1,2.478.789,2.5,2.5,0,0,1,.95,2.017H45.045a1.386,1.386,0,0,0-.535-1.087,2.006,2.006,0,0,0-1.349-.457,2.1,2.1,0,0,0-1.312.365,1.15,1.15,0,0,0-.473.955.932.932,0,0,0,.44.838,5.413,5.413,0,0,0,1.59.54,8.283,8.283,0,0,1,1.864.614,2.718,2.718,0,0,1,1.058.859,2.112,2.112,0,0,1,.344,1.224,2.3,2.3,0,0,1-.963,1.93,4.039,4.039,0,0,1-2.5.726,4.523,4.523,0,0,1-1.909-.382A3.105,3.105,0,0,1,40,38.718a2.571,2.571,0,0,1-.469-1.482h1.536a1.59,1.59,0,0,0,.618,1.224,2.4,2.4,0,0,0,1.523.452,2.476,2.476,0,0,0,1.4-.353A1.084,1.084,0,0,0,45.136,37.618ZM52.4,40.166a3.924,3.924,0,0,1-2.972-1.2,4.452,4.452,0,0,1-1.146-3.208v-.282a5.39,5.39,0,0,1,.51-2.386,3.982,3.982,0,0,1,1.428-1.644,3.59,3.59,0,0,1,1.988-.594,3.364,3.364,0,0,1,2.723,1.154,5,5,0,0,1,.971,3.3v.639H49.818a3.193,3.193,0,0,0,.776,2.146,2.44,2.44,0,0,0,1.888.818,2.675,2.675,0,0,0,1.378-.332,3.462,3.462,0,0,0,.988-.88l.938.73A3.772,3.772,0,0,1,52.4,40.166Zm-.191-8.052a2.048,2.048,0,0,0-1.561.677,3.288,3.288,0,0,0-.78,1.9h4.5v-.116a2.925,2.925,0,0,0-.631-1.814A1.928,1.928,0,0,0,52.208,32.114Zm9.812.282a4.6,4.6,0,0,0-.755-.058,2.024,2.024,0,0,0-2.05,1.287V40H57.678V31.019h1.494l.025,1.038a2.391,2.391,0,0,1,2.142-1.2,1.569,1.569,0,0,1,.681.116Zm4.524,5.52,2.225-6.9h1.569L67.116,40h-1.17l-3.254-8.981h1.569ZM73.483,40H71.947V31.019h1.536Zm-1.66-11.364a.917.917,0,0,1,.228-.631.857.857,0,0,1,.677-.257.87.87,0,0,1,.681.257.907.907,0,0,1,.232.631.877.877,0,0,1-.232.623.886.886,0,0,1-.681.249.872.872,0,0,1-.677-.249A.886.886,0,0,1,71.823,28.636Zm7.72,10.276a2.212,2.212,0,0,0,1.436-.5,1.752,1.752,0,0,0,.681-1.245h1.453a2.785,2.785,0,0,1-.531,1.469,3.5,3.5,0,0,1-1.307,1.112,3.772,3.772,0,0,1-1.731.415,3.7,3.7,0,0,1-2.918-1.224,4.877,4.877,0,0,1-1.083-3.349v-.257A5.407,5.407,0,0,1,76.023,33a3.667,3.667,0,0,1,1.382-1.585,3.926,3.926,0,0,1,2.129-.564,3.6,3.6,0,0,1,2.511.9,3.234,3.234,0,0,1,1.067,2.349H81.659A2.116,2.116,0,0,0,81,32.675a2.053,2.053,0,0,0-1.465-.56,2.149,2.149,0,0,0-1.814.843,3.957,3.957,0,0,0-.643,2.436v.291a3.878,3.878,0,0,0,.639,2.391A2.16,2.16,0,0,0,79.543,38.913ZM86.507,40H84.971V31.019h1.536Zm-1.66-11.364a.917.917,0,0,1,.228-.631.857.857,0,0,1,.677-.257.87.87,0,0,1,.681.257.907.907,0,0,1,.232.631.877.877,0,0,1-.232.623.886.886,0,0,1-.681.249.872.872,0,0,1-.677-.249A.886.886,0,0,1,84.847,28.636Zm3.71,6.79a5.3,5.3,0,0,1,.519-2.374,3.87,3.87,0,0,1,1.444-1.627,3.932,3.932,0,0,1,2.113-.573,3.788,3.788,0,0,1,2.968,1.27A4.886,4.886,0,0,1,96.734,35.5v.108a5.351,5.351,0,0,1-.5,2.353A3.813,3.813,0,0,1,94.8,39.585a3.977,3.977,0,0,1-2.146.581A3.778,3.778,0,0,1,89.69,38.9a4.861,4.861,0,0,1-1.133-3.362Zm1.544.183a3.842,3.842,0,0,0,.693,2.4A2.349,2.349,0,0,0,94.509,38a4.2,4.2,0,0,0,.689-2.569,3.836,3.836,0,0,0-.7-2.395,2.23,2.23,0,0,0-1.864-.917,2.205,2.205,0,0,0-1.834.9A4.17,4.17,0,0,0,90.1,35.609Zm13.788,2.009a1.131,1.131,0,0,0-.469-.967,4.514,4.514,0,0,0-1.635-.594,7.731,7.731,0,0,1-1.851-.6,2.633,2.633,0,0,1-1.013-.83,1.986,1.986,0,0,1-.328-1.146,2.33,2.33,0,0,1,.934-1.868,3.647,3.647,0,0,1,2.386-.764,3.753,3.753,0,0,1,2.478.789,2.5,2.5,0,0,1,.95,2.017H103.8a1.386,1.386,0,0,0-.535-1.087,2.006,2.006,0,0,0-1.349-.457,2.1,2.1,0,0,0-1.312.365,1.15,1.15,0,0,0-.473.955.932.932,0,0,0,.44.838,5.413,5.413,0,0,0,1.59.54,8.283,8.283,0,0,1,1.864.614,2.718,2.718,0,0,1,1.058.859,2.112,2.112,0,0,1,.344,1.224,2.3,2.3,0,0,1-.963,1.93,4.039,4.039,0,0,1-2.5.726,4.523,4.523,0,0,1-1.909-.382,3.105,3.105,0,0,1-1.3-1.067,2.571,2.571,0,0,1-.469-1.482h1.536a1.59,1.59,0,0,0,.618,1.224,2.4,2.4,0,0,0,1.523.452,2.476,2.476,0,0,0,1.4-.353A1.084,1.084,0,0,0,103.889,37.618Zm11.347,1.295a2.212,2.212,0,0,0,1.436-.5,1.752,1.752,0,0,0,.681-1.245h1.453a2.785,2.785,0,0,1-.531,1.469,3.5,3.5,0,0,1-1.307,1.112,3.772,3.772,0,0,1-1.731.415,3.7,3.7,0,0,1-2.918-1.224,4.877,4.877,0,0,1-1.083-3.349v-.257A5.407,5.407,0,0,1,111.716,33a3.667,3.667,0,0,1,1.382-1.585,3.926,3.926,0,0,1,2.129-.564,3.6,3.6,0,0,1,2.511.9,3.234,3.234,0,0,1,1.067,2.349h-1.453a2.116,2.116,0,0,0-.66-1.432,2.053,2.053,0,0,0-1.465-.56,2.149,2.149,0,0,0-1.814.843,3.957,3.957,0,0,0-.643,2.436v.291a3.878,3.878,0,0,0,.639,2.391A2.16,2.16,0,0,0,115.236,38.913Zm4.889-3.486a5.3,5.3,0,0,1,.519-2.374,3.87,3.87,0,0,1,1.444-1.627,3.932,3.932,0,0,1,2.113-.573,3.788,3.788,0,0,1,2.968,1.27A4.886,4.886,0,0,1,128.3,35.5v.108a5.351,5.351,0,0,1-.5,2.353,3.813,3.813,0,0,1-1.436,1.623,3.977,3.977,0,0,1-2.146.581,3.778,3.778,0,0,1-2.959-1.27,4.861,4.861,0,0,1-1.133-3.362Zm1.544.183a3.842,3.842,0,0,0,.693,2.4A2.349,2.349,0,0,0,126.077,38a4.2,4.2,0,0,0,.689-2.569,3.836,3.836,0,0,0-.7-2.395,2.23,2.23,0,0,0-1.864-.917,2.205,2.205,0,0,0-1.834.9A4.17,4.17,0,0,0,121.669,35.609Zm10-4.59.042,1a3.317,3.317,0,0,1,2.665-1.162,2.568,2.568,0,0,1,2.565,1.444,3.4,3.4,0,0,1,1.166-1.046,3.445,3.445,0,0,1,1.7-.4q2.955,0,3,3.129V40h-1.536V34.073a2.062,2.062,0,0,0-.44-1.44,1.937,1.937,0,0,0-1.478-.477,2.036,2.036,0,0,0-1.419.51,2.071,2.071,0,0,0-.656,1.374V40h-1.544V34.115a1.713,1.713,0,0,0-1.917-1.959,2.055,2.055,0,0,0-2.067,1.287V40h-1.536V31.019Zm19,8.093a3.262,3.262,0,0,1-2.631,1.054,2.792,2.792,0,0,1-2.187-.834,3.611,3.611,0,0,1-.76-2.469V31.019h1.536v5.8q0,2.042,1.66,2.042a2.3,2.3,0,0,0,2.341-1.312V31.019h1.536V40h-1.461Zm5.279-8.093.05,1.129a3.273,3.273,0,0,1,2.689-1.295q2.847,0,2.872,3.212V40h-1.536V34.057a2.068,2.068,0,0,0-.444-1.436,1.78,1.78,0,0,0-1.357-.465,2.216,2.216,0,0,0-1.312.4,2.706,2.706,0,0,0-.88,1.046V40H154.5V31.019Zm9.6,8.981h-1.536V31.019h1.536Zm-1.66-11.364a.917.917,0,0,1,.228-.631.857.857,0,0,1,.677-.257.87.87,0,0,1,.681.257.907.907,0,0,1,.232.631.877.877,0,0,1-.232.623.886.886,0,0,1-.681.249.872.872,0,0,1-.677-.249A.886.886,0,0,1,163.887,28.636Zm6.2.208v2.175h1.677v1.187h-1.677v5.577a1.247,1.247,0,0,0,.224.81.943.943,0,0,0,.764.27,3.718,3.718,0,0,0,.73-.1V40a4.478,4.478,0,0,1-1.179.165,1.912,1.912,0,0,1-1.552-.623,2.675,2.675,0,0,1-.523-1.768v-5.57h-1.635V31.019h1.635V28.844ZM179.1,40a3.226,3.226,0,0,1-.216-.946,3.426,3.426,0,0,1-2.557,1.112,3.17,3.17,0,0,1-2.179-.751,2.43,2.43,0,0,1-.851-1.905,2.539,2.539,0,0,1,1.067-2.179,5.029,5.029,0,0,1,3-.776h1.494v-.706a1.725,1.725,0,0,0-.481-1.282,1.935,1.935,0,0,0-1.419-.477,2.239,2.239,0,0,0-1.378.415,1.223,1.223,0,0,0-.556,1h-1.544a2.119,2.119,0,0,1,.477-1.3,3.258,3.258,0,0,1,1.295-.992,4.356,4.356,0,0,1,1.8-.365,3.551,3.551,0,0,1,2.432.776,2.8,2.8,0,0,1,.913,2.137V37.9a5.054,5.054,0,0,0,.315,1.967V40Zm-2.548-1.17a2.7,2.7,0,0,0,1.37-.374,2.259,2.259,0,0,0,.938-.971V35.642h-1.2q-2.822,0-2.822,1.652a1.4,1.4,0,0,0,.481,1.129A1.85,1.85,0,0,0,176.554,38.83ZM187.146,32.4a4.6,4.6,0,0,0-.755-.058,2.024,2.024,0,0,0-2.05,1.287V40H182.8V31.019H184.3l.025,1.038a2.391,2.391,0,0,1,2.142-1.2,1.569,1.569,0,0,1,.681.116Zm3.08,7.6H188.69V31.019h1.536Zm-1.66-11.364a.917.917,0,0,1,.228-.631.857.857,0,0,1,.677-.257.87.87,0,0,1,.681.257.907.907,0,0,1,.232.631.877.877,0,0,1-.232.623.886.886,0,0,1-.681.249.872.872,0,0,1-.677-.249A.886.886,0,0,1,188.565,28.636Zm3.71,6.79a5.3,5.3,0,0,1,.519-2.374,3.87,3.87,0,0,1,1.444-1.627,3.932,3.932,0,0,1,2.113-.573,3.788,3.788,0,0,1,2.968,1.27,4.886,4.886,0,0,1,1.133,3.378v.108a5.351,5.351,0,0,1-.5,2.353,3.813,3.813,0,0,1-1.436,1.623,3.977,3.977,0,0,1-2.146.581,3.778,3.778,0,0,1-2.959-1.27,4.861,4.861,0,0,1-1.133-3.362Zm1.544.183a3.842,3.842,0,0,0,.693,2.4A2.349,2.349,0,0,0,198.227,38a4.2,4.2,0,0,0,.689-2.569,3.836,3.836,0,0,0-.7-2.395,2.23,2.23,0,0,0-1.864-.917,2.205,2.205,0,0,0-1.834.9A4.17,4.17,0,0,0,193.82,35.609Zm13.788,2.009a1.13,1.13,0,0,0-.469-.967,4.514,4.514,0,0,0-1.635-.594,7.731,7.731,0,0,1-1.851-.6,2.633,2.633,0,0,1-1.013-.83,1.986,1.986,0,0,1-.328-1.146,2.33,2.33,0,0,1,.934-1.868,3.647,3.647,0,0,1,2.386-.764,3.753,3.753,0,0,1,2.478.789,2.5,2.5,0,0,1,.95,2.017h-1.544a1.386,1.386,0,0,0-.535-1.087,2.006,2.006,0,0,0-1.349-.457,2.1,2.1,0,0,0-1.312.365,1.15,1.15,0,0,0-.473.955.932.932,0,0,0,.44.838,5.413,5.413,0,0,0,1.59.54,8.283,8.283,0,0,1,1.864.614,2.718,2.718,0,0,1,1.058.859,2.112,2.112,0,0,1,.344,1.224,2.3,2.3,0,0,1-.963,1.93,4.039,4.039,0,0,1-2.5.726,4.523,4.523,0,0,1-1.909-.382,3.105,3.105,0,0,1-1.3-1.067A2.571,2.571,0,0,1,202,37.236h1.536a1.59,1.59,0,0,0,.618,1.224,2.4,2.4,0,0,0,1.523.452,2.476,2.476,0,0,0,1.4-.353A1.084,1.084,0,0,0,207.607,37.618Z" transform="translate(833 7986.002)" fill="#12263f"/><path d="M11.35,13.269V18H9.756V5.914h4.458a4.478,4.478,0,0,1,3.109,1.013,3.433,3.433,0,0,1,1.125,2.681,3.388,3.388,0,0,1-1.1,2.71,4.678,4.678,0,0,1-3.15.95Zm0-1.3h2.864a2.863,2.863,0,0,0,1.959-.6,2.2,2.2,0,0,0,.681-1.742,2.277,2.277,0,0,0-.681-1.73,2.682,2.682,0,0,0-1.868-.674H11.35ZM25.694,18a3.226,3.226,0,0,1-.216-.946,3.426,3.426,0,0,1-2.557,1.112,3.17,3.17,0,0,1-2.179-.751,2.43,2.43,0,0,1-.851-1.905,2.539,2.539,0,0,1,1.067-2.179,5.029,5.029,0,0,1,3-.776h1.494v-.706a1.725,1.725,0,0,0-.481-1.282,1.935,1.935,0,0,0-1.419-.477,2.239,2.239,0,0,0-1.378.415,1.223,1.223,0,0,0-.556,1H20.074a2.119,2.119,0,0,1,.477-1.3,3.258,3.258,0,0,1,1.295-.992,4.356,4.356,0,0,1,1.8-.365,3.551,3.551,0,0,1,2.432.776,2.8,2.8,0,0,1,.913,2.137V15.9a5.054,5.054,0,0,0,.315,1.967V18Zm-2.548-1.17a2.7,2.7,0,0,0,1.37-.374,2.259,2.259,0,0,0,.938-.971V13.642h-1.2q-2.822,0-2.822,1.652a1.4,1.4,0,0,0,.481,1.129A1.85,1.85,0,0,0,23.145,16.83ZM33.737,10.4a4.6,4.6,0,0,0-.755-.058,2.024,2.024,0,0,0-2.05,1.287V18H29.4V9.019H30.89l.025,1.038a2.391,2.391,0,0,1,2.142-1.2,1.569,1.569,0,0,1,.681.116Zm3.91-3.553V9.019h1.677v1.187H37.647v5.577a1.247,1.247,0,0,0,.224.81.943.943,0,0,0,.764.27,3.718,3.718,0,0,0,.73-.1V18a4.478,4.478,0,0,1-1.179.165,1.912,1.912,0,0,1-1.552-.623,2.675,2.675,0,0,1-.523-1.768v-5.57H34.476V9.019h1.635V6.844ZM42.785,18H41.249V9.019h1.536ZM41.125,6.636a.917.917,0,0,1,.228-.631.857.857,0,0,1,.677-.257.87.87,0,0,1,.681.257.907.907,0,0,1,.232.631.877.877,0,0,1-.232.623.886.886,0,0,1-.681.249.872.872,0,0,1-.677-.249A.886.886,0,0,1,41.125,6.636Zm7.72,10.276a2.212,2.212,0,0,0,1.436-.5,1.752,1.752,0,0,0,.681-1.245h1.453a2.785,2.785,0,0,1-.531,1.469,3.5,3.5,0,0,1-1.307,1.112,3.772,3.772,0,0,1-1.731.415,3.7,3.7,0,0,1-2.918-1.224,4.877,4.877,0,0,1-1.083-3.349v-.257A5.407,5.407,0,0,1,45.325,11a3.667,3.667,0,0,1,1.382-1.585,3.926,3.926,0,0,1,2.129-.564,3.6,3.6,0,0,1,2.511.9,3.234,3.234,0,0,1,1.067,2.349H50.961a2.116,2.116,0,0,0-.66-1.432,2.053,2.053,0,0,0-1.465-.56,2.149,2.149,0,0,0-1.814.843,3.957,3.957,0,0,0-.643,2.436v.291a3.878,3.878,0,0,0,.639,2.391A2.16,2.16,0,0,0,48.845,16.913ZM55.809,18H54.273V9.019h1.536ZM54.149,6.636a.917.917,0,0,1,.228-.631.857.857,0,0,1,.677-.257.87.87,0,0,1,.681.257.907.907,0,0,1,.232.631.877.877,0,0,1-.232.623.886.886,0,0,1-.681.249.872.872,0,0,1-.677-.249A.886.886,0,0,1,54.149,6.636Zm11.7,6.973a5.378,5.378,0,0,1-.938,3.3,3.006,3.006,0,0,1-2.54,1.253A3.294,3.294,0,0,1,59.8,17.128v4.325H58.266V9.019h1.4l.075,1A3.163,3.163,0,0,1,62.35,8.853a3.063,3.063,0,0,1,2.561,1.22,5.437,5.437,0,0,1,.942,3.4Zm-1.536-.174a3.968,3.968,0,0,0-.647-2.4,2.086,2.086,0,0,0-1.776-.88A2.257,2.257,0,0,0,59.8,11.393v4.292a2.262,2.262,0,0,0,2.108,1.229,2.076,2.076,0,0,0,1.756-.876A4.332,4.332,0,0,0,64.317,13.435ZM73.349,18a3.226,3.226,0,0,1-.216-.946,3.426,3.426,0,0,1-2.557,1.112,3.17,3.17,0,0,1-2.179-.751,2.43,2.43,0,0,1-.851-1.905,2.539,2.539,0,0,1,1.067-2.179,5.029,5.029,0,0,1,3-.776h1.494v-.706a1.725,1.725,0,0,0-.481-1.282,1.935,1.935,0,0,0-1.419-.477,2.239,2.239,0,0,0-1.378.415,1.223,1.223,0,0,0-.556,1H67.729a2.119,2.119,0,0,1,.477-1.3A3.258,3.258,0,0,1,69.5,9.218a4.356,4.356,0,0,1,1.8-.365,3.551,3.551,0,0,1,2.432.776,2.8,2.8,0,0,1,.913,2.137V15.9a5.054,5.054,0,0,0,.315,1.967V18ZM70.8,16.83a2.7,2.7,0,0,0,1.37-.374,2.259,2.259,0,0,0,.938-.971V13.642H71.9q-2.822,0-2.822,1.652a1.4,1.4,0,0,0,.481,1.129A1.85,1.85,0,0,0,70.8,16.83Zm9.853.083a2.212,2.212,0,0,0,1.436-.5,1.752,1.752,0,0,0,.681-1.245h1.453a2.785,2.785,0,0,1-.531,1.469,3.5,3.5,0,0,1-1.307,1.112,3.772,3.772,0,0,1-1.731.415,3.7,3.7,0,0,1-2.918-1.224,4.877,4.877,0,0,1-1.083-3.349v-.257A5.407,5.407,0,0,1,77.134,11a3.667,3.667,0,0,1,1.382-1.585,3.926,3.926,0,0,1,2.129-.564,3.6,3.6,0,0,1,2.511.9,3.234,3.234,0,0,1,1.067,2.349H82.77a2.116,2.116,0,0,0-.66-1.432,2.053,2.053,0,0,0-1.465-.56,2.149,2.149,0,0,0-1.814.843,3.957,3.957,0,0,0-.643,2.436v.291a3.878,3.878,0,0,0,.639,2.391A2.16,2.16,0,0,0,80.653,16.913ZM87.618,18H86.082V9.019h1.536ZM85.957,6.636a.917.917,0,0,1,.228-.631.857.857,0,0,1,.677-.257.87.87,0,0,1,.681.257.907.907,0,0,1,.232.631.877.877,0,0,1-.232.623.886.886,0,0,1-.681.249.872.872,0,0,1-.677-.249A.886.886,0,0,1,85.957,6.636Zm3.71,6.79a5.3,5.3,0,0,1,.519-2.374,3.87,3.87,0,0,1,1.444-1.627,3.932,3.932,0,0,1,2.113-.573,3.788,3.788,0,0,1,2.968,1.27A4.886,4.886,0,0,1,97.844,13.5v.108a5.351,5.351,0,0,1-.5,2.353,3.813,3.813,0,0,1-1.436,1.623,3.977,3.977,0,0,1-2.146.581A3.778,3.778,0,0,1,90.8,16.9a4.861,4.861,0,0,1-1.133-3.362Zm1.544.183a3.842,3.842,0,0,0,.693,2.4A2.349,2.349,0,0,0,95.62,16a4.2,4.2,0,0,0,.689-2.569,3.836,3.836,0,0,0-.7-2.395,2.23,2.23,0,0,0-1.864-.917,2.205,2.205,0,0,0-1.834.9A4.17,4.17,0,0,0,91.212,13.609ZM94.441,5.25H96.3L94.076,7.69l-1.237,0Zm6.782,3.769.05,1.129a3.273,3.273,0,0,1,2.689-1.295q2.847,0,2.872,3.212V18H105.3V12.057a2.068,2.068,0,0,0-.444-1.436,1.78,1.78,0,0,0-1.357-.465,2.216,2.216,0,0,0-1.312.4,2.706,2.706,0,0,0-.88,1.046V18H99.77V9.019Zm11.762,4.416a5.261,5.261,0,0,1,.979-3.324,3.333,3.333,0,0,1,5.063-.178V5.25h1.536V18h-1.411l-.075-.963a3.127,3.127,0,0,1-2.565,1.129,3.068,3.068,0,0,1-2.544-1.278,5.321,5.321,0,0,1-.984-3.337Zm1.536.174A3.984,3.984,0,0,0,115.151,16a2.039,2.039,0,0,0,1.743.863,2.24,2.24,0,0,0,2.133-1.312V11.426a2.257,2.257,0,0,0-2.117-1.27,2.049,2.049,0,0,0-1.76.872A4.386,4.386,0,0,0,114.52,13.609Zm12.152,4.557a3.924,3.924,0,0,1-2.972-1.2,4.452,4.452,0,0,1-1.146-3.208v-.282a5.39,5.39,0,0,1,.51-2.386,3.982,3.982,0,0,1,1.428-1.644,3.59,3.59,0,0,1,1.988-.594,3.364,3.364,0,0,1,2.723,1.154,5,5,0,0,1,.971,3.3v.639h-6.084a3.193,3.193,0,0,0,.776,2.146,2.44,2.44,0,0,0,1.888.818,2.675,2.675,0,0,0,1.378-.332,3.462,3.462,0,0,0,.988-.88l.938.73A3.772,3.772,0,0,1,126.673,18.166Zm-.191-8.052a2.048,2.048,0,0,0-1.561.677,3.288,3.288,0,0,0-.78,1.9h4.5v-.116a2.925,2.925,0,0,0-.631-1.814A1.928,1.928,0,0,0,126.482,10.114ZM137.829,18h-1.536V5.25h1.536Zm8,0a3.226,3.226,0,0,1-.216-.946,3.426,3.426,0,0,1-2.557,1.112,3.17,3.17,0,0,1-2.179-.751,2.43,2.43,0,0,1-.851-1.905,2.539,2.539,0,0,1,1.067-2.179,5.029,5.029,0,0,1,3-.776h1.494v-.706a1.725,1.725,0,0,0-.481-1.282,1.935,1.935,0,0,0-1.419-.477,2.239,2.239,0,0,0-1.378.415,1.223,1.223,0,0,0-.556,1h-1.544a2.119,2.119,0,0,1,.477-1.3,3.258,3.258,0,0,1,1.295-.992,4.356,4.356,0,0,1,1.8-.365,3.551,3.551,0,0,1,2.432.776,2.8,2.8,0,0,1,.913,2.137V15.9a5.054,5.054,0,0,0,.315,1.967V18Zm-2.548-1.17a2.7,2.7,0,0,0,1.37-.374,2.259,2.259,0,0,0,.938-.971V13.642h-1.2q-2.822,0-2.822,1.652a1.4,1.4,0,0,0,.481,1.129A1.85,1.85,0,0,0,143.283,16.83Zm14.062.083a2.212,2.212,0,0,0,1.436-.5,1.752,1.752,0,0,0,.681-1.245h1.453a2.785,2.785,0,0,1-.531,1.469,3.5,3.5,0,0,1-1.307,1.112,3.772,3.772,0,0,1-1.731.415,3.7,3.7,0,0,1-2.918-1.224,4.877,4.877,0,0,1-1.083-3.349v-.257A5.407,5.407,0,0,1,153.825,11a3.667,3.667,0,0,1,1.382-1.585,3.926,3.926,0,0,1,2.129-.564,3.6,3.6,0,0,1,2.511.9,3.234,3.234,0,0,1,1.067,2.349h-1.453a2.116,2.116,0,0,0-.66-1.432,2.053,2.053,0,0,0-1.465-.56,2.149,2.149,0,0,0-1.814.843,3.957,3.957,0,0,0-.643,2.436v.291a3.878,3.878,0,0,0,.639,2.391A2.16,2.16,0,0,0,157.344,16.913Zm4.889-3.486a5.3,5.3,0,0,1,.519-2.374A3.87,3.87,0,0,1,164.2,9.425a3.932,3.932,0,0,1,2.113-.573,3.788,3.788,0,0,1,2.968,1.27A4.886,4.886,0,0,1,170.41,13.5v.108a5.351,5.351,0,0,1-.5,2.353,3.813,3.813,0,0,1-1.436,1.623,3.977,3.977,0,0,1-2.146.581,3.778,3.778,0,0,1-2.959-1.27,4.861,4.861,0,0,1-1.133-3.362Zm1.544.183a3.842,3.842,0,0,0,.693,2.4A2.349,2.349,0,0,0,168.185,16a4.2,4.2,0,0,0,.689-2.569,3.836,3.836,0,0,0-.7-2.395,2.23,2.23,0,0,0-1.864-.917,2.205,2.205,0,0,0-1.834.9A4.17,4.17,0,0,0,163.777,13.609Zm10-4.59.042,1a3.317,3.317,0,0,1,2.665-1.162,2.568,2.568,0,0,1,2.565,1.444,3.4,3.4,0,0,1,1.166-1.046,3.445,3.445,0,0,1,1.7-.4q2.955,0,3,3.129V18h-1.536V12.073a2.062,2.062,0,0,0-.44-1.44,1.937,1.937,0,0,0-1.478-.477,2.036,2.036,0,0,0-1.419.51,2.071,2.071,0,0,0-.656,1.374V18h-1.544V12.115a1.713,1.713,0,0,0-1.917-1.959,2.055,2.055,0,0,0-2.067,1.287V18h-1.536V9.019Zm19,8.093a3.262,3.262,0,0,1-2.631,1.054,2.792,2.792,0,0,1-2.187-.834,3.611,3.611,0,0,1-.76-2.469V9.019h1.536v5.8q0,2.042,1.66,2.042a2.3,2.3,0,0,0,2.341-1.312V9.019h1.536V18h-1.461Zm5.279-8.093.05,1.129A3.273,3.273,0,0,1,200.8,8.853q2.847,0,2.872,3.212V18h-1.536V12.057a2.068,2.068,0,0,0-.444-1.436,1.78,1.78,0,0,0-1.357-.465,2.216,2.216,0,0,0-1.312.4,2.706,2.706,0,0,0-.88,1.046V18h-1.536V9.019Zm9.6,8.981H206.12V9.019h1.536ZM206,6.636a.917.917,0,0,1,.228-.631.857.857,0,0,1,.677-.257.87.87,0,0,1,.681.257.907.907,0,0,1,.232.631.877.877,0,0,1-.232.623.886.886,0,0,1-.681.249.872.872,0,0,1-.677-.249A.886.886,0,0,1,206,6.636Zm3.744,6.8a5.261,5.261,0,0,1,.979-3.324,3.333,3.333,0,0,1,5.063-.178V5.25h1.536V18h-1.411l-.075-.963a3.127,3.127,0,0,1-2.565,1.129,3.068,3.068,0,0,1-2.544-1.278,5.321,5.321,0,0,1-.984-3.337Zm1.536.174A3.984,3.984,0,0,0,211.905,16a2.039,2.039,0,0,0,1.743.863,2.24,2.24,0,0,0,2.133-1.312V11.426a2.257,2.257,0,0,0-2.117-1.27,2.049,2.049,0,0,0-1.76.872A4.386,4.386,0,0,0,211.274,13.609ZM225.245,18a3.226,3.226,0,0,1-.216-.946,3.426,3.426,0,0,1-2.557,1.112,3.17,3.17,0,0,1-2.179-.751,2.43,2.43,0,0,1-.851-1.905,2.539,2.539,0,0,1,1.067-2.179,5.029,5.029,0,0,1,3-.776H225v-.706a1.725,1.725,0,0,0-.481-1.282,1.935,1.935,0,0,0-1.419-.477,2.239,2.239,0,0,0-1.378.415,1.223,1.223,0,0,0-.556,1h-1.544a2.119,2.119,0,0,1,.477-1.3,3.258,3.258,0,0,1,1.295-.992,4.356,4.356,0,0,1,1.8-.365,3.551,3.551,0,0,1,2.432.776,2.8,2.8,0,0,1,.913,2.137V15.9a5.054,5.054,0,0,0,.315,1.967V18ZM222.7,16.83a2.7,2.7,0,0,0,1.37-.374,2.259,2.259,0,0,0,.938-.971V13.642h-1.2q-2.822,0-2.822,1.652a1.4,1.4,0,0,0,.481,1.129A1.85,1.85,0,0,0,222.7,16.83Zm5.877-3.4a5.261,5.261,0,0,1,.979-3.324,3.333,3.333,0,0,1,5.063-.178V5.25h1.536V18h-1.411l-.075-.963a3.127,3.127,0,0,1-2.565,1.129,3.068,3.068,0,0,1-2.544-1.278,5.321,5.321,0,0,1-.984-3.337Zm1.536.174A3.984,3.984,0,0,0,230.74,16a2.039,2.039,0,0,0,1.743.863,2.24,2.24,0,0,0,2.133-1.312V11.426a2.257,2.257,0,0,0-2.117-1.27,2.049,2.049,0,0,0-1.76.872A4.386,4.386,0,0,0,230.109,13.609ZM5.1,31.019l.042,1A3.317,3.317,0,0,1,7.81,30.853,2.568,2.568,0,0,1,10.375,32.3a3.4,3.4,0,0,1,1.166-1.046,3.445,3.445,0,0,1,1.7-.4q2.955,0,3,3.129V40H14.708V34.073a2.062,2.062,0,0,0-.44-1.44,1.937,1.937,0,0,0-1.478-.477,2.036,2.036,0,0,0-1.419.51,2.071,2.071,0,0,0-.656,1.374V40H9.171V34.115a1.713,1.713,0,0,0-1.917-1.959,2.055,2.055,0,0,0-2.067,1.287V40H3.651V31.019Zm17.183,9.147a3.924,3.924,0,0,1-2.972-1.2,4.452,4.452,0,0,1-1.146-3.208v-.282a5.39,5.39,0,0,1,.51-2.386,3.982,3.982,0,0,1,1.428-1.644,3.59,3.59,0,0,1,1.988-.594,3.364,3.364,0,0,1,2.723,1.154,5,5,0,0,1,.971,3.3v.639H19.7a3.193,3.193,0,0,0,.776,2.146,2.44,2.44,0,0,0,1.888.818,2.675,2.675,0,0,0,1.378-.332,3.462,3.462,0,0,0,.988-.88l.938.73A3.772,3.772,0,0,1,22.286,40.166ZM22.1,32.114a2.048,2.048,0,0,0-1.561.677,3.288,3.288,0,0,0-.78,1.9h4.5v-.116a2.925,2.925,0,0,0-.631-1.814A1.928,1.928,0,0,0,22.1,32.114Zm6.923-1.1.05,1.129a3.273,3.273,0,0,1,2.689-1.295q2.847,0,2.872,3.212V40H33.094V34.057a2.068,2.068,0,0,0-.444-1.436,1.78,1.78,0,0,0-1.357-.465,2.216,2.216,0,0,0-1.312.4A2.706,2.706,0,0,0,29.1,33.6V40H27.566V31.019Zm7.521,4.408a5.3,5.3,0,0,1,.519-2.374A3.87,3.87,0,0,1,38.5,31.425a3.932,3.932,0,0,1,2.113-.573,3.788,3.788,0,0,1,2.968,1.27A4.886,4.886,0,0,1,44.715,35.5v.108a5.351,5.351,0,0,1-.5,2.353,3.813,3.813,0,0,1-1.436,1.623,3.977,3.977,0,0,1-2.146.581,3.778,3.778,0,0,1-2.959-1.27,4.861,4.861,0,0,1-1.133-3.362Zm1.544.183a3.842,3.842,0,0,0,.693,2.4A2.349,2.349,0,0,0,42.49,38a4.2,4.2,0,0,0,.689-2.569,3.836,3.836,0,0,0-.7-2.395,2.23,2.23,0,0,0-1.864-.917,2.205,2.205,0,0,0-1.834.9A4.17,4.17,0,0,0,38.083,35.609ZM51.87,37.618a1.13,1.13,0,0,0-.469-.967,4.514,4.514,0,0,0-1.635-.594,7.731,7.731,0,0,1-1.851-.6,2.633,2.633,0,0,1-1.013-.83,1.986,1.986,0,0,1-.328-1.146,2.33,2.33,0,0,1,.934-1.868,3.647,3.647,0,0,1,2.386-.764,3.753,3.753,0,0,1,2.478.789,2.5,2.5,0,0,1,.95,2.017H51.779a1.386,1.386,0,0,0-.535-1.087,2.006,2.006,0,0,0-1.349-.457,2.1,2.1,0,0,0-1.312.365,1.15,1.15,0,0,0-.473.955.932.932,0,0,0,.44.838,5.413,5.413,0,0,0,1.59.54A8.283,8.283,0,0,1,52,35.426a2.718,2.718,0,0,1,1.058.859,2.112,2.112,0,0,1,.344,1.224,2.3,2.3,0,0,1-.963,1.93,4.039,4.039,0,0,1-2.5.726,4.523,4.523,0,0,1-1.909-.382,3.105,3.105,0,0,1-1.3-1.067,2.571,2.571,0,0,1-.469-1.482H47.8a1.59,1.59,0,0,0,.618,1.224,2.4,2.4,0,0,0,1.523.452,2.476,2.476,0,0,0,1.4-.353A1.084,1.084,0,0,0,51.87,37.618ZM60.37,40V32.206H58.951V31.019H60.37V30.1a3.058,3.058,0,0,1,.772-2.233,2.916,2.916,0,0,1,2.183-.789,4.055,4.055,0,0,1,1.054.14L64.3,28.454a4.41,4.41,0,0,0-.83-.075,1.5,1.5,0,0,0-1.154.437,1.773,1.773,0,0,0-.407,1.253v.949h1.917v1.187H61.906V40Zm10.691,0a3.226,3.226,0,0,1-.216-.946,3.426,3.426,0,0,1-2.557,1.112,3.17,3.17,0,0,1-2.179-.751,2.43,2.43,0,0,1-.851-1.905,2.539,2.539,0,0,1,1.067-2.179,5.029,5.029,0,0,1,3-.776h1.494v-.706a1.725,1.725,0,0,0-.481-1.282,1.935,1.935,0,0,0-1.419-.477,2.239,2.239,0,0,0-1.378.415,1.223,1.223,0,0,0-.556,1H65.442a2.119,2.119,0,0,1,.477-1.3,3.258,3.258,0,0,1,1.295-.992,4.356,4.356,0,0,1,1.8-.365,3.551,3.551,0,0,1,2.432.776,2.8,2.8,0,0,1,.913,2.137V37.9a5.054,5.054,0,0,0,.315,1.967V40Zm-2.548-1.17a2.7,2.7,0,0,0,1.37-.374,2.259,2.259,0,0,0,.938-.971V35.642h-1.2q-2.822,0-2.822,1.652a1.4,1.4,0,0,0,.481,1.129A1.85,1.85,0,0,0,68.513,38.83Zm9.089-.913,2.225-6.9H81.4L78.175,40h-1.17l-3.254-8.981H75.32Zm4.74-2.49a5.3,5.3,0,0,1,.519-2.374,3.87,3.87,0,0,1,1.444-1.627,3.932,3.932,0,0,1,2.113-.573,3.788,3.788,0,0,1,2.968,1.27A4.886,4.886,0,0,1,90.519,35.5v.108a5.351,5.351,0,0,1-.5,2.353,3.813,3.813,0,0,1-1.436,1.623,3.977,3.977,0,0,1-2.146.581,3.778,3.778,0,0,1-2.959-1.27,4.861,4.861,0,0,1-1.133-3.362Zm1.544.183a3.842,3.842,0,0,0,.693,2.4A2.349,2.349,0,0,0,88.294,38a4.2,4.2,0,0,0,.689-2.569,3.836,3.836,0,0,0-.7-2.395,2.23,2.23,0,0,0-1.864-.917,2.205,2.205,0,0,0-1.834.9A4.17,4.17,0,0,0,83.886,35.609Zm12.9-3.212a4.6,4.6,0,0,0-.755-.058,2.024,2.024,0,0,0-2.05,1.287V40H92.445V31.019h1.494l.025,1.038a2.391,2.391,0,0,1,2.142-1.2,1.569,1.569,0,0,1,.681.116Zm5.138,7.77a3.924,3.924,0,0,1-2.972-1.2,4.452,4.452,0,0,1-1.146-3.208v-.282a5.39,5.39,0,0,1,.51-2.386,3.982,3.982,0,0,1,1.428-1.644,3.59,3.59,0,0,1,1.988-.594,3.364,3.364,0,0,1,2.723,1.154,5,5,0,0,1,.971,3.3v.639H99.342a3.193,3.193,0,0,0,.776,2.146,2.44,2.44,0,0,0,1.888.818,2.675,2.675,0,0,0,1.378-.332,3.462,3.462,0,0,0,.988-.88l.938.73A3.772,3.772,0,0,1,101.924,40.166Zm-.191-8.052a2.048,2.048,0,0,0-1.561.677,3.288,3.288,0,0,0-.78,1.9h4.5v-.116a2.925,2.925,0,0,0-.631-1.814A1.928,1.928,0,0,0,101.733,32.114Zm9.073,6.8a2.212,2.212,0,0,0,1.436-.5,1.752,1.752,0,0,0,.681-1.245h1.453a2.785,2.785,0,0,1-.531,1.469,3.5,3.5,0,0,1-1.307,1.112,3.772,3.772,0,0,1-1.731.415,3.7,3.7,0,0,1-2.918-1.224,4.877,4.877,0,0,1-1.083-3.349v-.257A5.407,5.407,0,0,1,107.286,33a3.667,3.667,0,0,1,1.382-1.585,3.926,3.926,0,0,1,2.129-.564,3.6,3.6,0,0,1,2.511.9,3.234,3.234,0,0,1,1.067,2.349h-1.453a2.116,2.116,0,0,0-.66-1.432,2.053,2.053,0,0,0-1.465-.56,2.149,2.149,0,0,0-1.814.843,3.957,3.957,0,0,0-.643,2.436v.291a3.878,3.878,0,0,0,.639,2.391A2.16,2.16,0,0,0,110.806,38.913ZM117.77,40h-1.536V31.019h1.536Zm-1.66-11.364a.917.917,0,0,1,.228-.631.857.857,0,0,1,.677-.257.87.87,0,0,1,.681.257.907.907,0,0,1,.232.631.877.877,0,0,1-.232.623.886.886,0,0,1-.681.249.872.872,0,0,1-.677-.249A.886.886,0,0,1,116.11,28.636Zm3.744,6.8a5.261,5.261,0,0,1,.979-3.324,3.333,3.333,0,0,1,5.063-.178V27.25h1.536V40h-1.411l-.075-.963a3.127,3.127,0,0,1-2.565,1.129,3.068,3.068,0,0,1-2.544-1.278,5.321,5.321,0,0,1-.984-3.337Zm1.536.174A3.984,3.984,0,0,0,122.02,38a2.039,2.039,0,0,0,1.743.863,2.24,2.24,0,0,0,2.133-1.312V33.426a2.257,2.257,0,0,0-2.117-1.27,2.049,2.049,0,0,0-1.76.872A4.386,4.386,0,0,0,121.389,35.609ZM135.36,40a3.226,3.226,0,0,1-.216-.946,3.426,3.426,0,0,1-2.557,1.112,3.17,3.17,0,0,1-2.179-.751,2.43,2.43,0,0,1-.851-1.905,2.539,2.539,0,0,1,1.067-2.179,5.029,5.029,0,0,1,3-.776h1.494v-.706a1.725,1.725,0,0,0-.481-1.282,1.935,1.935,0,0,0-1.419-.477,2.239,2.239,0,0,0-1.378.415,1.223,1.223,0,0,0-.556,1H129.74a2.119,2.119,0,0,1,.477-1.3,3.258,3.258,0,0,1,1.295-.992,4.356,4.356,0,0,1,1.8-.365,3.551,3.551,0,0,1,2.432.776,2.8,2.8,0,0,1,.913,2.137V37.9a5.054,5.054,0,0,0,.315,1.967V40Zm-2.548-1.17a2.7,2.7,0,0,0,1.37-.374,2.259,2.259,0,0,0,.938-.971V35.642h-1.2q-2.822,0-2.822,1.652a1.4,1.4,0,0,0,.481,1.129A1.85,1.85,0,0,0,132.811,38.83ZM147,40.166a3.924,3.924,0,0,1-2.972-1.2,4.452,4.452,0,0,1-1.146-3.208v-.282a5.39,5.39,0,0,1,.51-2.386,3.982,3.982,0,0,1,1.428-1.644,3.59,3.59,0,0,1,1.988-.594,3.364,3.364,0,0,1,2.723,1.154,5,5,0,0,1,.971,3.3v.639h-6.084a3.193,3.193,0,0,0,.776,2.146,2.44,2.44,0,0,0,1.888.818,2.675,2.675,0,0,0,1.378-.332,3.462,3.462,0,0,0,.988-.88l.938.73A3.772,3.772,0,0,1,147,40.166Zm-.191-8.052a2.048,2.048,0,0,0-1.561.677,3.288,3.288,0,0,0-.78,1.9h4.5v-.116a2.925,2.925,0,0,0-.631-1.814A1.928,1.928,0,0,0,146.806,32.114Zm6.923-1.1.05,1.129a3.273,3.273,0,0,1,2.689-1.295q2.847,0,2.872,3.212V40H157.8V34.057a2.068,2.068,0,0,0-.444-1.436A1.78,1.78,0,0,0,156,32.156a2.216,2.216,0,0,0-1.312.4,2.706,2.706,0,0,0-.88,1.046V40h-1.536V31.019Zm15.863,9.147a3.924,3.924,0,0,1-2.972-1.2,4.452,4.452,0,0,1-1.146-3.208v-.282a5.39,5.39,0,0,1,.51-2.386,3.982,3.982,0,0,1,1.428-1.644,3.59,3.59,0,0,1,1.988-.594,3.364,3.364,0,0,1,2.723,1.154,5,5,0,0,1,.971,3.3v.639H167.01a3.193,3.193,0,0,0,.776,2.146,2.44,2.44,0,0,0,1.888.818,2.675,2.675,0,0,0,1.378-.332,3.462,3.462,0,0,0,.988-.88l.938.73A3.772,3.772,0,0,1,169.592,40.166Zm-.191-8.052a2.048,2.048,0,0,0-1.561.677,3.288,3.288,0,0,0-.78,1.9h4.5v-.116a2.925,2.925,0,0,0-.631-1.814A1.928,1.928,0,0,0,169.4,32.114ZM176.54,40H175V27.25h1.536Zm14.252-4.391a5.378,5.378,0,0,1-.938,3.3,3.006,3.006,0,0,1-2.54,1.253,3.294,3.294,0,0,1-2.573-1.038v4.325h-1.536V31.019h1.4l.075,1a3.163,3.163,0,0,1,2.606-1.162,3.063,3.063,0,0,1,2.561,1.22,5.437,5.437,0,0,1,.942,3.4Zm-1.536-.174a3.968,3.968,0,0,0-.647-2.4,2.086,2.086,0,0,0-1.776-.88,2.257,2.257,0,0,0-2.092,1.237v4.292a2.262,2.262,0,0,0,2.108,1.229,2.076,2.076,0,0,0,1.756-.876A4.332,4.332,0,0,0,189.257,35.435Zm7.828-3.038a4.6,4.6,0,0,0-.755-.058,2.024,2.024,0,0,0-2.05,1.287V40h-1.536V31.019h1.494l.025,1.038a2.391,2.391,0,0,1,2.142-1.2,1.569,1.569,0,0,1,.681.116Zm.838,3.03a5.3,5.3,0,0,1,.519-2.374,3.87,3.87,0,0,1,1.444-1.627A3.932,3.932,0,0,1,202,30.853a3.788,3.788,0,0,1,2.968,1.27A4.886,4.886,0,0,1,206.1,35.5v.108a5.351,5.351,0,0,1-.5,2.353,3.813,3.813,0,0,1-1.436,1.623,3.977,3.977,0,0,1-2.146.581,3.778,3.778,0,0,1-2.959-1.27,4.861,4.861,0,0,1-1.133-3.362Zm1.544.183a3.842,3.842,0,0,0,.693,2.4A2.349,2.349,0,0,0,203.874,38a4.2,4.2,0,0,0,.689-2.569,3.836,3.836,0,0,0-.7-2.395A2.23,2.23,0,0,0,202,32.114a2.205,2.205,0,0,0-1.834.9A4.17,4.17,0,0,0,199.466,35.609Zm12.161,3.3a2.212,2.212,0,0,0,1.436-.5,1.752,1.752,0,0,0,.681-1.245H215.2a2.785,2.785,0,0,1-.531,1.469,3.5,3.5,0,0,1-1.307,1.112,3.772,3.772,0,0,1-1.731.415,3.7,3.7,0,0,1-2.918-1.224,4.877,4.877,0,0,1-1.083-3.349v-.257A5.407,5.407,0,0,1,208.108,33a3.667,3.667,0,0,1,1.382-1.585,3.926,3.926,0,0,1,2.129-.564,3.6,3.6,0,0,1,2.511.9,3.234,3.234,0,0,1,1.067,2.349h-1.453a2.116,2.116,0,0,0-.66-1.432,2.053,2.053,0,0,0-1.465-.56,2.149,2.149,0,0,0-1.814.843,3.957,3.957,0,0,0-.643,2.436v.291a3.878,3.878,0,0,0,.639,2.391A2.16,2.16,0,0,0,211.627,38.913Zm9.023,1.253a3.924,3.924,0,0,1-2.972-1.2,4.452,4.452,0,0,1-1.146-3.208v-.282a5.39,5.39,0,0,1,.51-2.386,3.982,3.982,0,0,1,1.428-1.644,3.59,3.59,0,0,1,1.988-.594,3.364,3.364,0,0,1,2.723,1.154,5,5,0,0,1,.971,3.3v.639h-6.084a3.193,3.193,0,0,0,.776,2.146,2.44,2.44,0,0,0,1.888.818,2.675,2.675,0,0,0,1.378-.332,3.462,3.462,0,0,0,.988-.88l.938.73A3.772,3.772,0,0,1,220.65,40.166Zm-.191-8.052a2.048,2.048,0,0,0-1.561.677,3.288,3.288,0,0,0-.78,1.9h4.5v-.116a2.925,2.925,0,0,0-.631-1.814A1.928,1.928,0,0,0,220.459,32.114Zm10.7,5.5a1.13,1.13,0,0,0-.469-.967,4.514,4.514,0,0,0-1.635-.594,7.731,7.731,0,0,1-1.851-.6,2.633,2.633,0,0,1-1.013-.83,1.986,1.986,0,0,1-.328-1.146,2.33,2.33,0,0,1,.934-1.868,3.647,3.647,0,0,1,2.386-.764,3.753,3.753,0,0,1,2.478.789,2.5,2.5,0,0,1,.95,2.017h-1.544a1.386,1.386,0,0,0-.535-1.087,2.006,2.006,0,0,0-1.349-.457,2.1,2.1,0,0,0-1.312.365,1.15,1.15,0,0,0-.473.955.932.932,0,0,0,.44.838,5.413,5.413,0,0,0,1.59.54,8.283,8.283,0,0,1,1.864.614,2.718,2.718,0,0,1,1.058.859,2.112,2.112,0,0,1,.344,1.224,2.3,2.3,0,0,1-.963,1.93,4.039,4.039,0,0,1-2.5.726,4.523,4.523,0,0,1-1.909-.382,3.105,3.105,0,0,1-1.3-1.067,2.571,2.571,0,0,1-.469-1.482h1.536a1.59,1.59,0,0,0,.618,1.224,2.4,2.4,0,0,0,1.523.452,2.476,2.476,0,0,0,1.4-.353A1.084,1.084,0,0,0,231.159,37.618Zm3.129-2.191a5.3,5.3,0,0,1,.519-2.374,3.87,3.87,0,0,1,1.444-1.627,3.932,3.932,0,0,1,2.113-.573,3.788,3.788,0,0,1,2.968,1.27,4.886,4.886,0,0,1,1.133,3.378v.108a5.351,5.351,0,0,1-.5,2.353,3.813,3.813,0,0,1-1.436,1.623,3.977,3.977,0,0,1-2.146.581,3.778,3.778,0,0,1-2.959-1.27,4.861,4.861,0,0,1-1.133-3.362Zm1.544.183a3.842,3.842,0,0,0,.693,2.4A2.349,2.349,0,0,0,240.24,38a4.2,4.2,0,0,0,.689-2.569,3.836,3.836,0,0,0-.7-2.395,2.23,2.23,0,0,0-1.864-.917,2.205,2.205,0,0,0-1.834.9A4.17,4.17,0,0,0,235.832,35.609Z" transform="translate(1150 7985.483)" fill="#12263f"/><path d="M0,0H12.9l7.373,34.728L12.9,70H0Z" transform="translate(180 7971.002)" fill="#d2dfbc"/><path d="M0,0H12.9l7.373,34.728L12.9,70H0Z" transform="translate(495 7971.002)" fill="#d2dfbc"/><path d="M0,0H12.9l7.373,34.728L12.9,70H0Z" transform="translate(810 7971.002)" fill="#d2dfbc"/><path d="M0,0H12.9l7.373,34.728L12.9,70H0Z" transform="translate(1125 7971.002)" fill="#d2dfbc"/><path d="M0,0H12.9l7.373,34.728L12.9,70H0Z" transform="translate(475 8041.002) rotate(180)" fill="#ecf7da"/><path d="M0,0H12.9l7.373,34.728L12.9,70H0Z" transform="translate(790 8041.002) rotate(180)" fill="#ecf7da"/><path d="M0,0H12.9l7.373,34.728L12.9,70H0Z" transform="translate(1105 8041.002) rotate(180)" fill="#ecf7da"/><path d="M0,0H12.9l7.373,34.728L12.9,70H0Z" transform="translate(1420 8041.483) rotate(180)" fill="#ecf7da"/><path d="M-1940-3829v24.63" transform="translate(2740 11640)" fill="none" stroke="#942e19" stroke-width="2"/><path d="M-2412.5-3786.576v-39.371h945v39.371" transform="translate(2740 11661.576)" fill="none" stroke="#942e19" stroke-width="2"/><g transform="translate(1266 7874)" fill="#fff" stroke="#942e19" stroke-width="2"><circle cx="6" cy="6" r="6" stroke="none"/><circle cx="6" cy="6" r="5" fill="none"/></g><g transform="translate(321 7874)" fill="#fff" stroke="#942e19" stroke-width="2"><circle cx="6" cy="6" r="6" stroke="none"/><circle cx="6" cy="6" r="5" fill="none"/></g><g transform="translate(637 7874)" fill="#fff" stroke="#942e19" stroke-width="2"><circle cx="6" cy="6" r="6" stroke="none"/><circle cx="6" cy="6" r="5" fill="none"/></g><g transform="translate(952 7874)" fill="#fff" stroke="#942e19" stroke-width="2"><circle cx="6" cy="6" r="6" stroke="none"/><circle cx="6" cy="6" r="5" fill="none"/></g><path d="M-2097-3784v-39.892" transform="translate(2739.5 11659)" fill="none" stroke="#942e19" stroke-width="2"/><path d="M-2097-3784v-39.892" transform="translate(3054.5 11659)" fill="none" stroke="#942e19" stroke-width="2"/><g transform="translate(2140.549 8216.76) rotate(180)"><g clip-path="url(#a)"><path d="M815,301.17a53.275,53.275,0,1,0,65.443-51.826L868.274,233,856.1,249.344a53.259,53.259,0,0,0-41.1,51.825" fill="#afafaf"/><path d="M825.515,301.171a42.76,42.76,0,1,1,42.761,42.759h0A42.759,42.759,0,0,1,825.515,301.171Z" fill="#dbdbdb"/><path d="M831.678,301.171a36.6,36.6,0,1,1,36.6,36.6,36.6,36.6,0,0,1-36.6-36.6" fill="#fff"/></g></g><g transform="translate(1825.049 8216.76) rotate(180)"><g clip-path="url(#a)"><path d="M815,301.17a53.275,53.275,0,1,0,65.443-51.826L868.274,233,856.1,249.344a53.259,53.259,0,0,0-41.1,51.825" fill="#942e19"/><path d="M825.515,301.171a42.76,42.76,0,1,1,42.761,42.759h0A42.759,42.759,0,0,1,825.515,301.171Z" fill="#dbdbdb"/><path d="M831.678,301.171a36.6,36.6,0,1,1,36.6,36.6,36.6,36.6,0,0,1-36.6-36.6" fill="#fff"/></g></g><g transform="translate(1510.275 8216.76) rotate(180)"><g clip-path="url(#c)"><path d="M815,301.17a53.275,53.275,0,1,0,65.443-51.826L868.274,233,856.1,249.344a53.259,53.259,0,0,0-41.1,51.825" fill="#ffc846"/><path d="M825.515,301.171a42.76,42.76,0,1,1,42.761,42.759h0A42.759,42.759,0,0,1,825.515,301.171Z" fill="#dbdbdb"/><path d="M831.678,301.171a36.6,36.6,0,1,1,36.6,36.6,36.6,36.6,0,0,1-36.6-36.6" fill="#fff"/></g></g><g transform="translate(1195.275 8216.76) rotate(180)"><g clip-path="url(#a)"><path d="M815,301.17a53.275,53.275,0,1,0,65.443-51.826L868.274,233,856.1,249.344a53.259,53.259,0,0,0-41.1,51.825" fill="#5b6b46"/><path d="M825.515,301.171a42.76,42.76,0,1,1,42.761,42.759h0A42.759,42.759,0,0,1,825.515,301.171Z" fill="#dbdbdb"/><path d="M831.678,301.171a36.6,36.6,0,1,1,36.6,36.6,36.6,36.6,0,0,1-36.6-36.6" fill="#fff"/></g></g><g transform="translate(0 7)" clip-path="url(#e)"><g transform="translate(1207.421 7676.552)"><g transform="translate(5.206 -5.793)"><path d="M48.352,428.261l-3.763-1.551L35.832,423.2a5.912,5.912,0,0,1-8.936.037L17.942,427.1a5.411,5.411,0,0,0-3.35,5v4.678a2.164,2.164,0,0,0,2.164,2.164l.429.216H26.9l4.576-.49,4.363.49h7.985l4.533-.628Z" transform="translate(-0.787 -169.989)" fill="#ccf49f"/><path d="M26.732,425.523l-8.722,3.6a2.59,2.59,0,0,0-1.611,2.4V438.8h-.646a2.165,2.165,0,0,1-2.164-2.164V431.52a5.41,5.41,0,0,1,3.351-5l.415-.171,3.072-1.034,5.682-2.575V424.9l0,0a5.73,5.73,0,0,0,.62.616Z" transform="translate(0 -169.626)" fill="#b3e59f"/><path d="M39.762,422.74l.408,1.232-.408,1.808-7.1,2.925-1.658-2.357Z" transform="translate(-13.654 -169.626)" fill="#95d6a4"/><path d="M120.588,426.349,111.834,438.8h0l-.275-7.446.275-6.443-.275-.844.275-1.324Z" transform="translate(-76.787 -169.626)" fill="#b3e59f"/><path d="M80.159,426.053H71.6l-.044,2-.054.325v13.016h8.936V427.5Z" transform="translate(-45.389 -172.223)" fill="#f8f7f7"/><path d="M81.215,390.626H72.494l.014,8.957a2.185,2.185,0,0,0,.392.77,5.911,5.911,0,0,0,8.312-.617l0,0v-3.7l-.205-1.473Z" transform="translate(-46.17 -144.456)" fill="#c48958"/><path d="M74.309,390.63H71.5v9.107l0,0a5.754,5.754,0,0,0,.621.616l1.653-.681a.865.865,0,0,0,.535-.8v-.963a.434.434,0,0,1,.515-.424,6.5,6.5,0,0,0,1.141.1,7.788,7.788,0,0,0,4.469-1.555V390.63Z" transform="translate(-45.389 -144.459)" fill="#b27a49"/><path d="M56.811,292.066h0c-5.043,0-9.17,1.971-10.357,6.094a14.051,14.051,0,0,0-.506,3.888,19.549,19.549,0,0,0,3.3,10.123,18.226,18.226,0,0,0,2.217,2.878l.021.022h0c1.446,1.5,3.006,2.449,4.455,2.449,4.469,0,9.99-9.005,9.99-15.472A13.889,13.889,0,0,0,65.373,298c-1.136-3.723-4.2-5.611-8.561-5.93Z" transform="translate(-25.362 -67.199)" fill="#c48958"/><path d="M67.117,296.819c-1.7-2.262-4.5-3.624-8.294-3.864-.006,0-.8-.058-1.241-.039-4.428,0-7.654,1.4-9.537,3.907,1.139-4.242,4.415-6.718,9.537-6.718.385-.019,1.075.039,1.081.039C63.165,290.473,66.06,292.886,67.117,296.819Z" transform="translate(-27.007 -65.666)" fill="#b27a49"/></g><g transform="translate(2.408 6.624)"><path d="M383.421,388.836v-1.255l-.455-1.761.455-5.2h-7.772v8.22l-2.432,9.084h12.556Z" transform="translate(-292.591 -147.942)" fill="#e3a76f"/><path d="M353.913,426.15l-8.277-3.411a10.738,10.738,0,0,1-2.57,7.121c-.033.038-.036.164-.069.2l-1.412,1.632-1.366-1.653c-.024-.027-.057-.167-.081-.195a10.739,10.739,0,0,1-2.277-4.484,8.666,8.666,0,0,1-.379-2.275v-.076l-8.2,3.438a4.482,4.482,0,0,0-3.016,4.215v5.949l4.18.617h9.689l1.571-.758,1.356.758h11.917a1.953,1.953,0,0,0,1.953-1.953v-4.613A4.884,4.884,0,0,0,353.913,426.15Z" transform="translate(-254.806 -181.844)" fill="#e5efd4"/><path d="M384.435,380.619H381.9v8.22l-.553,1.27.846,1.353,1.761-.726a.781.781,0,0,0,.483-.722v-.865a.389.389,0,0,1,.455-.383,6.307,6.307,0,0,0,1.04.088,7.628,7.628,0,0,0,4.034-1.27v-6.965h-5.529Z" transform="translate(-299.133 -147.944)" fill="#d6995c"/><path d="M337.862,425.363l-1.009.416-6.594,2.718a2.335,2.335,0,0,0-1.454,2.168v6.567l-1.347-1.024-1.19,1.024v-6.567a4.884,4.884,0,0,1,3.023-4.514l8.278-3.411v.076A10.579,10.579,0,0,0,337.862,425.363Z" transform="translate(-254.804 -181.845)" fill="#c4d3ab"/><g transform="translate(85.333 248.002)"><path d="M400.265,459.174v7.371h-2.927V459.16l.07.082.954,1.1a.586.586,0,0,0,.882,0l.922-1.05Z" transform="translate(-397.338 -459.16)" fill="#c4d3ab"/></g><path d="M386.666,247.521a7.317,7.317,0,0,0,.12-.959,6.052,6.052,0,0,0-4.729-5.009,6.26,6.26,0,0,0-1.249.06,5.746,5.746,0,0,0-5.826,5.909,5.844,5.844,0,1,0,11.684,0Z" transform="translate(-294.012 -35.996)" fill="#855b51"/><path d="M377.083,300.685c0-5.836-3.055-10.567-8.891-10.567s-8.884,4.766-8.884,10.6a9.157,9.157,0,0,0,.61,2.5c.018.071-.31.617-.291.688,1.316,4.9,5.261,9.573,8.565,9.573,3.387,0,7.444-4.9,8.657-9.933.075-.311-.242-.59-.189-.9A13,13,0,0,0,377.083,300.685Z" transform="translate(-281.397 -75.104)" fill="#e3a76f"/><path d="M385.881,246.137a12.163,12.163,0,0,0-5.858-1.43,13.671,13.671,0,0,0-2.382.209.39.39,0,0,1-.426-.55,6.061,6.061,0,0,1,4.053-3.214,6.052,6.052,0,0,0-7.345,5.018,4.266,4.266,0,0,0-.064.873,6.046,6.046,0,1,0,12.023-.907Z" transform="translate(-293.107 -35.571)" fill="#724d44"/><path d="M377.043,302.614c-.053.31-.117.623-.193.933-2.338-.167-4.526-2.6-6.215-5.2a.39.39,0,0,0-.6-.072c-2.636,2.539-6.524,5.5-10.409,5.638-.018-.07-.037-.142-.055-.213a11.886,11.886,0,0,1-.263-2.972c0-5.837,3.048-10.6,8.883-10.6s8.891,4.73,8.891,10.567A11.378,11.378,0,0,1,377.043,302.614Z" transform="translate(-281.398 -75.106)" fill="#d6995c"/><path d="M369.644,274.036a9.294,9.294,0,0,0-4.524-1.723c-.09-.01-.224.012-.315.006a12.044,12.044,0,0,0-3.242.342,9.113,9.113,0,0,0-3.459,1.628,10.386,10.386,0,0,0-3.008,13.171,6.52,6.52,0,0,0,2.208-.04c3.854-1.246,7.52-5.068,8.679-6.331a.389.389,0,0,1,.628.076c.86,1.552,3.685,6.295,6.121,6.295A11.454,11.454,0,0,0,369.644,274.036Z" transform="translate(-277.025 -60.767)" fill="#855b51"/><path d="M364.574,272.079a10.3,10.3,0,0,0-4.709,1.717,11.241,11.241,0,0,0-3.144,13.383,7.594,7.594,0,0,1-2.334.4,11.218,11.218,0,0,1,2.941-13.782A10.746,10.746,0,0,1,364.574,272.079Z" transform="translate(-276.442 -60.527)" fill="#724d44"/></g><path d="M39.883,422.74l.316,8.139-.316,8.139L31.008,426.4l4.346-1.464Z" transform="translate(-13.602 -169.231)" fill="#b3e59f"/><path d="M190.541,408.373l-11.912-4.908,0,0c-.262.3-.84.334-1.135.584-2.772,2.346-8.863-.149-8.863-.149l-1.41-.289-11.391,4.818a6.583,6.583,0,0,0-4.075,6.086l-.11,9.066,2.438.385h17.2l1.744-.622,1.544.622h20.05V414.46A6.583,6.583,0,0,0,190.541,408.373Z" transform="translate(-107.795 -154.181)" fill="#df646e"/><path d="M168.435,405.447l-13.507,5.565a3.722,3.722,0,0,0-2.31,3.45v9.509h-2.85v-9.509a6.581,6.581,0,0,1,4.075-6.085l11.911-4.908,1.41.436Z" transform="translate(-106.33 -154.185)" fill="#dc4955"/><g transform="translate(71.464 261.542)"><path d="M285.479,462.677h-6.21a1.644,1.644,0,1,1,0-3.288h6.21a1.644,1.644,0,0,1,0,3.288Z" transform="translate(-277.626 -459.389)" fill="#f8f7f7"/></g><g transform="translate(63.483 250.245)"><path d="M247.572,407.85v6.438a3.181,3.181,0,0,1-3.067,3.176v9.927h-3.288V417.354a3.179,3.179,0,0,1,3.067-3.174v-4.818l1.485-1.048Z" transform="translate(-241.218 -407.85)" fill="#dc4955"/></g><path d="M234.111,350.411H222.7l.309,11.3a9.116,9.116,0,0,0,2.371,2.306,7.549,7.549,0,0,0,8.726-1.974l0,0v-4.832l-.412-.85Z" transform="translate(-163.277 -112.756)" fill="#f2d1a5"/><path d="M222.7,350.41v11.63a7.7,7.7,0,0,0,.907.888c.16.132.324.256.491.373a7.615,7.615,0,0,0,1.282.717v-5.008a.659.659,0,0,1,.78-.645,12.806,12.806,0,0,0,2.242.2,12.5,12.5,0,0,0,5.708-1.352v-6.8Z" transform="translate(-163.274 -112.755)" fill="#f2bb88"/><path d="M216.037,238.769c0-8.257-4.5-14.95-12.756-14.95s-12.756,6.693-12.756,14.95,4.5,18.1,12.756,18.1S216.037,247.025,216.037,238.769Z" transform="translate(-138.154 -13.912)" fill="#f2d1a5"/><path d="M211.484,226.837a8.437,8.437,0,0,0-1.054-.016v0a8.1,8.1,0,0,0-2.777.62l-.01.027a4.534,4.534,0,0,0-.668-2.028,4.668,4.668,0,0,0-1.512-1.454,14.031,14.031,0,0,0-2.183-.167c-8.257,0-12.756,6.693-12.756,14.95a32.7,32.7,0,0,0,.752,6,23.6,23.6,0,0,1,2.263-3.238,14.12,14.12,0,0,1,6.175-4.309,12.435,12.435,0,0,0,4.717-2.768.439.439,0,0,1,.692.086,14.75,14.75,0,0,0,4.292,3.816,28.1,28.1,0,0,1,6.005,5.845,27.315,27.315,0,0,0,.616-5.428C216.036,233.894,214.468,229.566,211.484,226.837Z" transform="translate(-138.153 -13.911)" fill="#f2bb88"/><path d="M261.328,224.3a7.316,7.316,0,0,1,2.638-.817,7.021,7.021,0,0,1,5.4,1.939c4.946,5.008,1.826,12.919.062,15.674a29.606,29.606,0,0,0-6.449-5.7,11.21,11.21,0,0,1-2.663-2.359,8.477,8.477,0,0,1-1.226-2.748Z" transform="translate(-191.689 -13.644)" fill="#855b51"/><path d="M262.539,227.986a13.383,13.383,0,0,1-3.176,5.081,8.818,8.818,0,0,1-1.495-2.622l2.367-6.315a8.105,8.105,0,0,1,2.777-.62A9.748,9.748,0,0,1,262.539,227.986Z" transform="translate(-190.735 -13.671)" fill="#724d44"/><path d="M200.68,208.52a5.626,5.626,0,0,0-3.94-2.328c-2.851-.484-6.417.61-9.709,3.016-6.566,4.8-4.724,14.847-2.621,18.132,0,0,.685-.823,2.177-2.309a19.983,19.983,0,0,1,7.264-4.635C200.012,218.153,202.783,211.8,200.68,208.52Z" transform="translate(-131.858 -0.061)" fill="#855b51"/><path d="M196.438,206.13a15.022,15.022,0,0,0-6.58,2.782c-5.3,3.869-4.993,11.519-3.573,16.058a17.013,17.013,0,0,0-2.2,2.645c-2.1-3.286-4.084-13.9,2.481-18.7A13.571,13.571,0,0,1,196.438,206.13Z" transform="translate(-131.556 0)" fill="#724d44"/><path d="M72.129,433.377l-.631.261v-.888l0,0c.106.123.3.129.412.24.1.1.115.3.217.384Z" transform="translate(-45.216 -177.047)" fill="#e8e8e8"/></g></g><g transform="translate(0 7)" clip-path="url(#f)"><g transform="translate(564.248 7877.442)"><path d="M324.288,375.447l-.3-10.442-2.879-1.8-3.144,1.8-.3,10.442a3,3,0,0,1-3,2.913l6.09,1.932,6.526-1.932A3,3,0,0,1,324.288,375.447Z" transform="translate(-228.417 -316.765)" fill="#e4936b"/><path d="M294.82,108.157l-3.547-7.094q.71-.23,1.41-.5a.95.95,0,0,0,.509-1.312l-3.72-7.44q.847-.254,1.678-.574a.8.8,0,0,0,.43-1.109l-8.653-17.306a.184.184,0,0,0-.329,0l-4.78,9.559-4.452,5.947-2.514,21.036a1.093,1.093,0,0,0,.44.31,31.923,31.923,0,0,0,22.94,0A1.1,1.1,0,0,0,294.82,108.157Z" transform="translate(-190.201 -63.423)" fill="#4f8980"/><path d="M294.82,108.157l-3.547-7.094q.71-.23,1.41-.5a.72.72,0,0,0,.644-1.042l-3.855-7.71q.847-.254,1.678-.574a1.379,1.379,0,0,0,.241-1.487l-8.464-16.929a.184.184,0,0,0-.329,0l-1.811,3.622,5.336,10.673a1.378,1.378,0,0,1-.241,1.487l-.271.1a1.328,1.328,0,0,0-.724,1.839l3.171,6.343a.72.72,0,0,1-.644,1.042l-.014.005a1.333,1.333,0,0,0-.723,1.84l2.874,5.748a1.1,1.1,0,0,1-.588,1.517,31.921,31.921,0,0,1-14.858,1.951l-2.068-.522-1.185.895a1.093,1.093,0,0,0,.44.31,31.923,31.923,0,0,0,22.94,0A1.1,1.1,0,0,0,294.82,108.157Z" transform="translate(-190.201 -63.423)" fill="#477d73"/><path d="M372.261,295.672a.988.988,0,0,1-.068-1.973,26.729,26.729,0,0,0,3.214-.422.988.988,0,0,1,.376,1.94,28.718,28.718,0,0,1-3.453.453Z" transform="translate(-277.784 -255.766)" fill="#477d73"/><path d="M401.218,294.058a.988.988,0,0,0-1.158-.782q-.259.05-.519.1l.92,1.839A.988.988,0,0,0,401.218,294.058Z" transform="translate(-302.437 -255.765)" fill="#3d6e66"/><path d="M96.784,378.9l.269-9.4,2.712-2.672,2.712,2.672.269,9.4a2.7,2.7,0,0,0,2.7,2.622l-5.8,1.932-5.558-1.932A2.7,2.7,0,0,0,96.784,378.9Z" transform="translate(-36.034 -319.93)" fill="#e4936b"/><path d="M74.409,146.517l.04-1.412-.143-.286a37.589,37.589,0,0,1-9.811-2.329A1.294,1.294,0,0,1,63.8,140.7l4.177-8.355q-.836-.271-1.661-.588a1.12,1.12,0,0,1-.6-1.545l3.242-6.483-5.083-10.166a.166.166,0,0,0-.3,0l-7.791,15.583a.723.723,0,0,0,.387,1q.748.288,1.511.517l-3.349,6.7a.856.856,0,0,0,.458,1.181q.63.243,1.269.45l-3.193,6.387a.989.989,0,0,0,.529,1.366,28.742,28.742,0,0,0,20.654,0,.981.981,0,0,0,.351-.23Z" transform="translate(0 -98.967)" fill="#4f8980"/><g transform="translate(52.769 14.508)"><path d="M101.093,119.119a4.431,4.431,0,0,1,0,3.963l-2.41,4.82a.848.848,0,0,0,.758,1.227q.512.2,1.028.376a.584.584,0,0,1,.332.813l-3.877,7.754a1.3,1.3,0,0,0,.693,1.787,37.586,37.586,0,0,0,4.439,1.4l4.314-8.908.982-8.616-5.083-10.166a.166.166,0,0,0-.3,0l-1.827,3.655Z" transform="translate(-91.16 -113.478)" fill="#477d73"/><path d="M74.45,344.932l-5.358.862a.99.99,0,0,1-.3.183,28.742,28.742,0,0,1-15.957,1.363.989.989,0,0,0,.571,1.271,28.742,28.742,0,0,0,20.654,0,.984.984,0,0,0,.351-.23L75.7,346.7Z" transform="translate(-52.77 -315.34)" fill="#477d73"/><path d="M98.634,313.924a1,1,0,0,1-.127-.008c-.421-.054-.846-.12-1.265-.195a.988.988,0,1,1,.349-1.944c.387.069.78.13,1.169.18a.988.988,0,0,1-.125,1.968Z" transform="translate(-90.846 -286.411)" fill="#477d73"/></g><path d="M98.581,312.79q1.049.4,2.116.743a.988.988,0,0,0-.661-1.577c-.388-.05-.782-.11-1.169-.18a.987.987,0,0,0-.975.393A1.288,1.288,0,0,0,98.581,312.79Z" transform="translate(-39.355 -271.901)" fill="#3d6e66"/><path d="M203.368,357.13l-.352-12.3-3.547-2.04-3.547,2.04-.352,12.3a3.531,3.531,0,0,1-3.53,3.43l7.429,2.723,7.429-2.723A3.531,3.531,0,0,1,203.368,357.13Z" transform="translate(-121.465 -298.965)" fill="#e4936b"/><path d="M244.4,422.807a.988.988,0,1,0-1.976,0v7.819H244.4v-7.819Z" transform="translate(-165.405 -367.889)" fill="#e27d47"/><path d="M243.409,359.242a.988.988,0,0,1-.988-.988v-4.932a.988.988,0,1,1,1.976,0v4.932a.988.988,0,0,1-.988.988Z" transform="translate(-165.405 -307.288)" fill="#e27d47"/><path d="M166.535,41.737l-4.177-8.355q.836-.271,1.661-.588a1.12,1.12,0,0,0,.6-1.545l-4.381-8.763q1-.3,1.976-.676a.946.946,0,0,0,.506-1.307L152.527.12a.217.217,0,0,0-.388,0L141.948,20.5a.946.946,0,0,0,.507,1.307q.978.377,1.976.676l-4.381,8.763a1.12,1.12,0,0,0,.6,1.545q.824.317,1.661.588l-4.177,8.355a1.294,1.294,0,0,0,.693,1.787,37.6,37.6,0,0,0,27.018,0,1.3,1.3,0,0,0,.693-1.787Z" transform="translate(-74.329 0)" fill="#80cb8e"/><path d="M166.536,41.737l-4.177-8.355q.836-.271,1.661-.588a1.119,1.119,0,0,0,.6-1.545l-4.381-8.763q1-.3,1.976-.676a.946.946,0,0,0,.506-1.307L152.529.12a.217.217,0,0,0-.387,0l-1.782,3.564,7.093,14.185a.946.946,0,0,1-.506,1.307l-.315.119a1.567,1.567,0,0,0-.854,2.171l3.734,7.467a.848.848,0,0,1-.758,1.227l-.016.006a1.572,1.572,0,0,0-.85,2.17l3.383,6.766a1.294,1.294,0,0,1-.69,1.786A37.6,37.6,0,0,1,138,42.29a1.3,1.3,0,0,0,.829,1.234,37.6,37.6,0,0,0,27.018,0,1.294,1.294,0,0,0,.692-1.787Z" transform="translate(-74.331)" fill="#66b49d"/><path d="M243.408,262.864a.988.988,0,0,1,0-1.976,31.6,31.6,0,0,0,6.572-.692.988.988,0,0,1,.412,1.932A33.584,33.584,0,0,1,243.408,262.864Z" transform="translate(-165.404 -226.91)" fill="#66b49d"/><path d="M299.336,260.955a.987.987,0,0,0-1.172-.76q-.248.053-.5.1l.915,1.829A.988.988,0,0,0,299.336,260.955Z" transform="translate(-213.588 -226.909)" fill="#4f8980"/><path d="M211.985,176.534a28.553,28.553,0,0,1-4.772-.4.988.988,0,1,1,.331-1.948,26.587,26.587,0,0,0,4.441.375.988.988,0,1,1,0,1.976Z" transform="translate(-133.981 -151.902)" fill="#66b49d"/><path d="M103.886,481.773H61.613c-1.207,0-2.292,1.627-2.74,4.108l-.642,3.555c-.077.428.065.893.273.893h48.489c.208,0,.351-.465.273-.893l-.642-3.555C106.178,483.4,105.093,481.773,103.886,481.773Z" transform="translate(-4.746 -420.178)" fill="#80cb8e"/></g></g><g clip-path="url(#g)"><g transform="translate(925.319 7873.831)"><path d="M-1809.881-3779.646l-12.644-1.012,2.655,16.942,6.828,1.265Z" transform="translate(1814.681 3826.707)" fill="#b84b35"/><path d="M148.794,222.836V240.5H136.066V222.836a1.5,1.5,0,0,1,1.5-1.5h9.719a1.5,1.5,0,0,1,1.5,1.5Zm0,0" transform="translate(-121.029 -182.158)" fill="#636363"/><path d="M262.552,118.387v29.351H249.824V118.387a1.5,1.5,0,0,1,1.5-1.5h9.719A1.5,1.5,0,0,1,262.552,118.387Zm0,0" transform="translate(-222.06 -89.395)" fill="#ffb52d"/><path d="M376.31,17.731V55.393l-6.441,1.494-6.286,1.457V17.731a1.5,1.5,0,0,1,1.5-1.5h9.719a1.5,1.5,0,0,1,1.5,1.5Zm0,0" transform="translate(-323.091 0)" fill="#869d69"/><path d="M198.691,222.836V240.5H192.25V222.836a1.505,1.505,0,0,1,1.5-1.5h3.433A1.5,1.5,0,0,1,198.691,222.836Zm0,0" transform="translate(-170.927 -182.158)" fill="#afafaf"/><path d="M312.453,118.387v29.351h-6.441V118.387a1.5,1.5,0,0,1,1.5-1.5h3.433A1.5,1.5,0,0,1,312.453,118.387Zm0,0" transform="translate(-271.961 -89.395)" fill="#ffc846"/><path d="M426.211,17.731V55.393l-6.441,1.494V17.731a1.5,1.5,0,0,1,1.5-1.5h3.433a1.5,1.5,0,0,1,1.5,1.5Zm0,0" transform="translate(-372.992)" fill="#aabf8f"/><path d="M132.43,307.891l-19.881,10.08a8.069,8.069,0,0,1-8.7-.023c-1.234-.8-1.621-.872-8.11-4.081-2.883-1.41-5.51-1.86-9.791-2.388V299.027h14.2a3.323,3.323,0,0,1,2.35.974l6.386,6.385a2.9,2.9,0,0,1,.851,2.133l.137-.094,20.839-5.246a2.57,2.57,0,0,1,1.718,4.711Zm0,0" transform="translate(-76.52 -251.161)" fill="#f2bb88"/><path d="M108.964,310.378a2.814,2.814,0,0,1-4.017.035l-5.31-5.311a1.512,1.512,0,0,0-1.069-.443H85.949v-5.632h14.2a3.323,3.323,0,0,1,2.35.974l6.386,6.385a2.86,2.86,0,0,1,.08,3.992Zm0,0" transform="translate(-76.52 -251.16)" fill="#f2d1a5"/><path d="M10.327,268.035v15.4a3.58,3.58,0,0,1-.059.642h0a3.527,3.527,0,0,1-3.455,2.873h-3.3A3.525,3.525,0,0,1,0,283.431v-15.4a3.527,3.527,0,0,1,2.9-3.46,3.4,3.4,0,0,1,.618-.056h3.3a3.525,3.525,0,0,1,3.515,3.515Zm0,0" transform="translate(-0.187 -220.514)" fill="#942e19"/><path d="M32.849,268.035v15.4a3.58,3.58,0,0,1-.059.642h0a3.442,3.442,0,0,1-.619.055h-3.3a3.525,3.525,0,0,1-3.515-3.515v-15.4a3.464,3.464,0,0,1,.06-.642,3.4,3.4,0,0,1,.618-.056h3.3A3.525,3.525,0,0,1,32.849,268.035Zm0,0" transform="translate(-22.709 -220.514)" fill="#bf4830"/><path d="M31.725,398.966a2.079,2.079,0,1,1-2.079-2.079A2.079,2.079,0,0,1,31.725,398.966Zm0,0" transform="translate(-24.669 -338.072)" fill="#afafaf"/></g></g><g clip-path="url(#h)"><g transform="translate(260.854 7833.881)"><g transform="translate(79.693 73.302)"><path d="M358.251,296.98V276.8a13.036,13.036,0,0,0-11.7-12.967c-.438-.044-.883.064-1.333.064a12.75,12.75,0,0,0-12.738,12.993v20.005Z" transform="translate(-332.183 -263.765)" fill="#855b51"/><path d="M345.242,263.576a13.035,13.035,0,0,0-11.625,12.958v20.031l-2.817.065v-20.1A13.034,13.034,0,0,1,343.834,263.5,12.839,12.839,0,0,1,345.242,263.576Z" transform="translate(-330.8 -263.5)" fill="#724d44"/><path d="M391.45,400.556V386.9l-.54-1.6.54-4.688h-7.275l.308,7.415-.308,2.464v10.06l3.636.547Z" transform="translate(-374.779 -360)" fill="#c48958"/><path d="M349.905,424.691l-7.15,2.83.868,9.9h10.059l-.525-.578c-2.506-2.757-2.994-6.319-3.089-10.03C350.048,426,349.905,425.515,349.905,424.691Z" transform="translate(-340.65 -396.316)" fill="#ffc846"/><path d="M350,425.2l-.023.009-7.1,2.917-.209-2.387,7.307-3,.307,1.228Z" transform="translate(-340.58 -394.708)" fill="#ffb65f"/><path d="M415.937,425.816l-7.466-3.077c0,4.509-.049,9.146-3.138,12.525l-.5.547H416.9a1.762,1.762,0,0,0,1.762-1.762v-4.161A4.405,4.405,0,0,0,415.937,425.816Z" transform="translate(-391.8 -394.707)" fill="#ffc846"/><path d="M384.173,380.619h0s0,6.273,0,6.273,0,2.789.023,3.606l1.829-.752a.7.7,0,0,0,.436-.651v-.782a.351.351,0,0,1,.411-.346,5.6,5.6,0,0,0,.934.08,6.882,6.882,0,0,0,3.639-1.146v-6.283h-7.272Z" transform="translate(-374.777 -360.002)" fill="#b27a49"/><path d="M359.848,305.069a8.9,8.9,0,0,0-.095,1.772c.963,4.678,4.755,9.379,7.9,9.379,3.639,0,8.133-6.275,8.133-11.539,0-3.258-1.1-6.135-3.185-7.854-.434-.358-.791-.325-1.31-.575a.284.284,0,0,0-.4.189,10.961,10.961,0,0,1-8.29,7.91l-2.534.439C359.94,304.817,359.848,305.069,359.848,305.069Z" transform="translate(-354.624 -290.462)" fill="#c48958"/><path d="M362.254,304.5a12.651,12.651,0,0,0,9.469-9.264,7.1,7.1,0,0,0-1.428-.917.284.284,0,0,0-.4.189,10.914,10.914,0,0,1-8.231,7.934l-2.8.6a.282.282,0,0,0-.223.279h0a10.94,10.94,0,0,0,.229,1.929Z" transform="translate(-353.743 -288.868)" fill="#b27a49"/></g><g transform="translate(24.146 72.311)"><path d="M42.281,428.436l-10.269-3.659a4.731,4.731,0,0,1-7.215-.257L17.383,427.6a4.091,4.091,0,0,0-2.793,3.806v4.014a1.775,1.775,0,0,0,1.775,1.775l.353.177h7.963l3.549-.455,3.781.455h6.551l3.719-.659Z" transform="translate(-14.413 -395.583)" fill="#afafaf"/><path d="M80.216,390.626H73.5l.03,5.332c.638.737,1.059,1.6,1.92,1.846a4.845,4.845,0,0,0,5.022-1.479l0,0v-2.816Z" transform="translate(-62.875 -367.699)" fill="#f2d1a5"/><path d="M25.483,425.713l-7.723,3.5-.545.228a2.123,2.123,0,0,0-1.319,1.97v5.968h-.53A1.775,1.775,0,0,1,13.59,435.6v-4.192a4.438,4.438,0,0,1,2.747-4.1l7.183-2.784a10,10,0,0,0,1.962,1.193Z" transform="translate(-13.59 -395.583)" fill="#636363"/><path d="M53.421,426.189l-8.374,9.72h-7.33l-6.1-8.166-1.183-1.8,4.015-1.4,3.268-1.8a4.847,4.847,0,0,0,7.328,0v0Z" transform="translate(-27.449 -394.118)" fill="#afafaf"/><path d="M73.805,390.63H71.5v6.058l1.832,1.14a2.717,2.717,0,0,1,.474-.024V394.84a.354.354,0,0,1,.409-.349,6.172,6.172,0,0,0,.948.075,7.5,7.5,0,0,0,3.666-1.055v-2.88Z" transform="translate(-61.23 -367.702)" fill="#f2bb88"/><g transform="translate(2.749 28.622)"><path d="M38.917,424.221v0l-8.406,3.52-1.421-1.9,7.521-3.1A4.648,4.648,0,0,0,38.917,424.221Z" transform="translate(-29.09 -422.74)" fill="#e8e8e8"/></g><path d="M61.441,292.906c0-5.578-2.862-8.98-8.44-8.98s-8.441,3.4-8.441,8.98a11.387,11.387,0,0,0,.407,3.529c1.388,4.314,4.995,8.044,8.034,8.044,3.014,0,6.581-3.663,8-7.926A11.447,11.447,0,0,0,61.441,292.906Z" transform="translate(-39.068 -279.922)" fill="#f2d1a5"/><path d="M56.941,285.043a5.721,5.721,0,0,0-1.615.417l-.007.018a3.4,3.4,0,0,0-.343-1.219,11.134,11.134,0,0,0-2.8-.334c-5.578,0-8.618,3.4-8.618,8.98a11.587,11.587,0,0,0,.586,3.529c.124-.112.257-.238.4-.387a17.661,17.661,0,0,1,5.153-3.954c1.34-.585,2.474-.746,3.35-1.509a.356.356,0,0,1,.545.087,8.478,8.478,0,0,0,3.083,2.7,11.589,11.589,0,0,1,3.493,3.186A11.652,11.652,0,0,0,60.8,292.9C60.8,289.211,59.462,286.472,56.941,285.043Z" transform="translate(-38.246 -279.921)" fill="#f2bb88"/><path d="M103.073,277.661a5.867,5.867,0,0,1,2.24-.648,5.032,5.032,0,0,1,3.678,1.413c3.355,3.4,1.594,8.636.3,10.936a.355.355,0,0,1-.576.064,21.766,21.766,0,0,0-4.362-3.762,8.206,8.206,0,0,1-1.779-1.529,6.339,6.339,0,0,1-1-2.226Z" transform="translate(-85.979 -274.234)" fill="#8e868e"/><path d="M103.834,280.339a9.961,9.961,0,0,1-2.375,3.792,6.4,6.4,0,0,1-1.24-2.082l1.717-4.583a5.912,5.912,0,0,1,2.254-.456A7.3,7.3,0,0,1,103.834,280.339Z" transform="translate(-84.857 -274.232)" fill="#766d78"/><path d="M45.841,263.218a4.109,4.109,0,0,0-2.922-1.7c-2.06-.328-4.633.624-7,2.351-4.456,3.257-3.545,9.638-2.147,12.471a.355.355,0,0,0,.608.053c.244-.336.63-.584,1.173-1.138a14.313,14.313,0,0,1,5.33-3.422C45.356,270.206,47.366,265.6,45.841,263.218Z" transform="translate(-29.252 -261.435)" fill="#8e868e"/><path d="M42.744,261.433a10.875,10.875,0,0,0-4.81,2.024c-3.866,2.825-3.62,8.426-2.573,11.71a12.167,12.167,0,0,0-1.174,1.38.356.356,0,0,1-.608-.053c-1.4-2.834-2.407-9.779,2.05-13.037A9.852,9.852,0,0,1,42.744,261.433Z" transform="translate(-29.057 -261.346)" fill="#766d78"/></g><path d="M234.128,350.411H222.7l.54,7.62-.54,4.029,0,0a8.5,8.5,0,0,0,1.519,1.724,8.014,8.014,0,0,0,8.268.308c.664-.4,1.1-1.409,1.636-2.031l0,0v-4.84l-.462-.758Z" transform="translate(-163.62 -262.512)" fill="#e3a76f"/><path d="M190.7,410.667,184.72,408.2l-5.954-1.81a7.565,7.565,0,0,1-11.428.313l-11.493,3.96a6.594,6.594,0,0,0-4.081,6.1l.22,9.084,2.195.439H168.6l4.669-1.058,4.137,1.058H194.78v-9.523A6.594,6.594,0,0,0,190.7,410.667Z" transform="translate(-108.259 -306.203)" fill="#869d69"/><path d="M225.554,350.41H222.7v11.65c.358.414.2,1.111.615,1.427.476.359,1.538.322,2.068.554h0l0-5.419a.439.439,0,0,1,.539-.428,11.489,11.489,0,0,0,2.491.38,12.521,12.521,0,0,0,5.715-1.355V350.41h-8.574Z" transform="translate(-163.621 -262.512)" fill="#d6995c"/><path d="M168.206,406.2l-6.61,2.827-6.666,2.747a3.726,3.726,0,0,0-2.316,3.456v9.524H149.76v-9.524a6.591,6.591,0,0,1,4.081-6.095l5.948-2.45,2.713-.838,3.153-1.415a6.5,6.5,0,0,0,2.551,1.768Z" transform="translate(-106.695 -304.676)" fill="#617449"/><path d="M219.684,405.922c-.143.167-.239.277-.248.288a30.468,30.468,0,0,0-7.063,17.551V424h-8.806v-.158a30.459,30.459,0,0,0-5.442-15.569,26.207,26.207,0,0,0-1.495-2.184l-.066-.086L202.3,403.7a6.906,6.906,0,0,0,2.685,1.755,7.563,7.563,0,0,0,8.741-1.979l0,0Z" transform="translate(-143.223 -303.922)" fill="#f8f7f7"/><path d="M204.108,405.45l-6.861,2.828q-.813-1.166-1.741-2.257l-.066-.086,5.985-2.466a7.549,7.549,0,0,0,1.774,1.506q.089.056.178.105a7.6,7.6,0,0,0,.731.369Z" transform="translate(-142.346 -303.922)" fill="#e8e8e8"/><path d="M216.851,238.715c0-8.27-4.159-14.9-12.43-14.9S192.4,230.5,192.4,238.773c0,1.381-.631,2.825-.384,4.241,1.236,7.065,5.514,13.906,12.4,13.906,7.336,0,11.711-7.756,12.605-15.281A24.9,24.9,0,0,0,216.851,238.715Z" transform="translate(-139.631 -163.713)" fill="#e3a76f"/><path d="M216.076,238.793c0-6.047-2.412-11.254-6.941-13.618a.221.221,0,0,1-.389-.2,12.606,12.606,0,0,0-5.447-1.161c-8.27,0-12.777,6.7-12.777,14.974a24.615,24.615,0,0,0,.374,4.221,5.879,5.879,0,0,1,.706-.677c2.163-2.036,5.268-2.109,5.6-4.237a.44.44,0,0,1,.552-.368,7.568,7.568,0,0,0,7.793-3.582.438.438,0,0,1,.686-.13,4.8,4.8,0,0,0,3.609.992.441.441,0,0,1,.464.294c1.242,3.632,4.649,2.3,5.6,6.333a24.108,24.108,0,0,0,.172-2.846Z" transform="translate(-138.509 -163.714)" fill="#d6995c"/><g transform="translate(46.707 53.119)"><path d="M198.342,202.713c-.115-.033-.33-.074-.509-.105a.218.218,0,0,1-.162-.3,4.61,4.61,0,0,0-7.421-5.233.218.218,0,0,1-.37-.111,5.6,5.6,0,0,0-9.009-3.278.221.221,0,0,1-.31-.031,4.6,4.6,0,0,0-8.1,2.341.22.22,0,0,1-.206.192,6.574,6.574,0,0,0-1.493.26,6.482,6.482,0,0,0-4.415,6.433,5.913,5.913,0,0,0,1.682,4.148.21.21,0,0,1,.055.155,19.537,19.537,0,0,0,.207,4.46,5.816,5.816,0,0,0,3.364,4.48,2.2,2.2,0,0,1,1.08-1.91c1.343-1.11,3.661-1.31,4.245-3.357a.214.214,0,0,1,.242-.157,11.279,11.279,0,0,0,1.563.185,7.9,7.9,0,0,0,7.379-5.071.211.211,0,0,1,.363-.051,5.381,5.381,0,0,0,5.68,1.848.216.216,0,0,1,.265.145c1.348,4.4,4.719,2.982,4.719,7.09,2.208-1,3.528-4.406,4.157-6.671A4.437,4.437,0,0,0,198.342,202.713Z" transform="translate(-166.35 -192)" fill="#855b51"/></g><g transform="translate(46.411 57.565)"><path d="M171.683,230.014a2.635,2.635,0,0,0-.954,2.181,6.308,6.308,0,0,1-3.753-4.632,19.83,19.83,0,0,1-.228-4.442.208.208,0,0,0-.055-.154,6.583,6.583,0,0,1,3.019-10.719,6.581,6.581,0,0,0-.6,9.4.208.208,0,0,1,.055.154,19.832,19.832,0,0,0,.228,4.442A6.137,6.137,0,0,0,171.683,230.014Z" transform="translate(-165 -212.25)" fill="#724d44"/></g></g></g></g></svg>