<svg xmlns="http://www.w3.org/2000/svg" xmlns:xlink="http://www.w3.org/1999/xlink" width="148" height="76" viewBox="0 0 148 76">
  <defs>
    <linearGradient id="linear-gradient" x1="0.165" y1="1.034" x2="0.949" y2="0.071" gradientUnits="objectBoundingBox">
      <stop offset="0" stop-color="#869d69"/>
      <stop offset="1" stop-color="#f6faf0"/>
    </linearGradient>
  </defs>
  <g id="Grupo_150934" data-name="Grupo 150934" transform="translate(-390 -4295)">
    <g id="Grupo_150286" data-name="Grupo 150286" transform="translate(0 74)">
      <rect id="Rectángulo_42055" data-name="Rectángulo 42055" width="148" height="76" transform="translate(390 4221)" fill="none"/>
      <ellipse id="Elipse_4754" data-name="Elipse 4754" cx="58" cy="8.5" rx="58" ry="8.5" transform="translate(404 4276)" fill="#f6e0a9"/>
    </g>
    <g id="laptop" transform="translate(420 4222.182)">
      <path id="Trazado_199097" data-name="Trazado 199097" d="M30.966,133.217v-56a3.853,3.853,0,0,1,3.853-3.853h75.87a3.853,3.853,0,0,1,3.853,3.853v56Z" transform="translate(-24.597 0)" fill="#64798a"/>
      <path id="Trazado_199098" data-name="Trazado 199098" d="M120.862,90.648H52.1A3.853,3.853,0,0,0,48.249,94.5v46.186h76.466V94.5A3.852,3.852,0,0,0,120.862,90.648Z" transform="translate(-38.326 -13.727)" fill="url(#linear-gradient)"/>
      <path id="Trazado_199099" data-name="Trazado 199099" d="M57.046,351.228v2.812H39.266v-2.812H0v4.248a4.739,4.739,0,0,0,4.739,4.739H91.573a4.739,4.739,0,0,0,4.739-4.739v-4.248Z" transform="translate(0 -220.714)" fill="#d5d6db"/>
    </g>
    <g id="stack-of-books" transform="translate(436.082 4280.706)">
      <path id="_x30_6" d="M95.224,114.012,73.6,100.32l29.867-4.885,21.827,12.758Z" transform="translate(-65.39 -62.161)" fill="#ffc846"/>
      <path id="_x30_5" d="M59.8,40.031,42.1,28.822l24.453-4L84.5,35.119Z" transform="translate(-37.661 0)" fill="#c05c48"/>
      <path id="_x30_4" d="M63.875,129.785l-30.324,4.883a1.835,1.835,0,0,0-1.162.8A2.689,2.689,0,0,0,31.9,137l-.008,6.765a2,2,0,0,0,.479,1.375,1.251,1.251,0,0,0,1.158.417l30.326-4.885a20.191,20.191,0,0,1-1.118-5.582A14.4,14.4,0,0,1,63.875,129.785ZM25.93,131.755l24.825-4a10.187,10.187,0,0,1-1.2-4.383,11.192,11.192,0,0,1,1.209-4.531L30.215,122.15l-4.273.689a1.5,1.5,0,0,0-.95.653,2.188,2.188,0,0,0-.4,1.255l-.008,5.537a1.655,1.655,0,0,0,.392,1.127A1.046,1.046,0,0,0,25.93,131.755Z" transform="translate(-4.174 -82.763)" fill="#fff3e4"/>
      <path id="_x30_2" d="M109.286,155.017,78.954,159.9a.263.263,0,0,1-.27-.112,1.064,1.064,0,0,1-.216-.7l.008-6.766a1.709,1.709,0,0,1,.305-.965.884.884,0,0,1,.51-.391l30.324-4.883a.988.988,0,0,0-.313-1.952s-24.25,3.944-30.9,5.053l-4.051-2.565-3.828.608-1.51-3.989-11.047-7a3.424,3.424,0,0,0-2.116,3l-.01,6.817a2.41,2.41,0,0,0,.983,2.081L77.614,161.47l-.022-.015a2.2,2.2,0,0,0,1.305.43,2.264,2.264,0,0,0,.375-.031l30.326-4.885a.988.988,0,0,0-.313-1.952Z" transform="translate(-49.757 -98.083)" fill="#ffc846"/>
      <path id="_x30_1" d="M70.924,73.433,46.035,77.4a.7.7,0,0,1-.133-.461l.008-5.538a1.209,1.209,0,0,1,.214-.685.57.57,0,0,1,.3-.246l24.827-4a.988.988,0,0,0-.313-1.952s-25.251,4.107-25.446,4.2L28.938,58.241a2.8,2.8,0,0,0-1.732,2.452l-.058,5.832a1.975,1.975,0,0,0,.805,1.709S44.787,79.081,45.494,79.321a2.1,2.1,0,0,0,.917.066l24.825-4a.988.988,0,0,0-.313-1.952Z" transform="translate(-24.499 -29.419)" fill="#942e19"/>
    </g>
  </g>
</svg>
