<svg xmlns="http://www.w3.org/2000/svg" xmlns:xlink="http://www.w3.org/1999/xlink" width="1030" height="381.085" viewBox="0 0 1030 381.085">
  <defs>
    <clipPath id="clip-path">
      <rect id="Rectángulo_41562" data-name="Rectángulo 41562" width="84.295" height="96.079" fill="none"/>
    </clipPath>
    <clipPath id="clip-path-2">
      <rect id="Rectángulo_41562-2" data-name="Rectángulo 41562" width="85.258" height="97.177" fill="none"/>
    </clipPath>
    <clipPath id="clip-path-3">
      <rect id="Rectángulo_41562-3" data-name="Rectángulo 41562" width="84.294" height="96.078" transform="translate(0 0)" fill="none"/>
    </clipPath>
    <clipPath id="clip-path-4">
      <rect id="Rectángulo_43496" data-name="Rectángulo 43496" width="916.461" height="338.949" fill="none"/>
    </clipPath>
  </defs>
  <g id="Grupo_152411" data-name="Grupo 152411" transform="translate(-285 -7811.537)">
    <rect id="Rectángulo_42603" data-name="Rectángulo 42603" width="400" height="60" transform="translate(600 7811.753)" fill="#869d69"/>
    <path id="Trazado_203169" data-name="Trazado 203169" d="M0,0H14l8,29.873-8,30.34H0Z" transform="translate(600 7811.537)" fill="#627549"/>
    <path id="Trazado_203170" data-name="Trazado 203170" d="M0,0H14l8,29.873-8,30.34H0Z" transform="translate(1000 7871.75) rotate(180)" fill="#9ab37b"/>
    <rect id="Rectángulo_42599" data-name="Rectángulo 42599" width="295" height="74" transform="translate(1020 8030.996)" fill="#fff7e3"/>
    <rect id="Rectángulo_42788" data-name="Rectángulo 42788" width="295" height="74" transform="translate(650.823 8029.495)" fill="#fff7e3"/>
    <rect id="Rectángulo_42789" data-name="Rectángulo 42789" width="295" height="74" transform="translate(285 8029.495)" fill="#fff7e3"/>
    <path id="Trazado_203058" data-name="Trazado 203058" d="M0,0H24.082L37.843,36.706,24.082,73.986H0Z" transform="translate(1020 8030.609)" fill="#ffc846"/>
    <path id="Trazado_203505" data-name="Trazado 203505" d="M0,0H34.476l19.7,36.706-19.7,37.28H0Z" transform="translate(650.823 8029.108)" fill="#ffc846"/>
    <path id="Trazado_203506" data-name="Trazado 203506" d="M0,0H34.476l19.7,36.706-19.7,37.28H0Z" transform="translate(285 8029.108)" fill="#ffc846"/>
    <g id="Grupo_151438" data-name="Grupo 151438" transform="translate(0 -27.779)">
      <rect id="Rectángulo_42604" data-name="Rectángulo 42604" width="190" height="43.538" transform="translate(495 7933.221)" fill="#e5efd4"/>
      <path id="Trazado_203173" data-name="Trazado 203173" d="M0,0H12.9l7.373,21.6L12.9,43.538H0Z" transform="translate(495 7933.22)" fill="#869d69"/>
    </g>
    <path id="Trazado_203168" data-name="Trazado 203168" d="M-1940-3829v110.3" transform="translate(2740 11700.75)" fill="none" stroke="#869d69" stroke-width="2"/>
    <path id="Trazado_203175" data-name="Trazado 203175" d="M-1940-3829v35.626" transform="translate(2371.997 11933.998)" fill="none" stroke="#869d69" stroke-width="2"/>
    <path id="Trazado_203174" data-name="Trazado 203174" d="M-1940-3829v115" transform="translate(-3029.002 9867.211) rotate(90)" fill="none" stroke="#869d69" stroke-width="2"/>
    <path id="Trazado_203133" data-name="Trazado 203133" d="M-2412.5-3775.718v-50.229h733.807v50.229" transform="translate(2845.964 11806.326)" fill="none" stroke="#869d69" stroke-width="2"/>
    <path id="Trazado_203135" data-name="Trazado 203135" d="M-2097-3774.255v-49.636" transform="translate(2897 11803.75)" fill="none" stroke="#869d69" stroke-width="2"/>
    <g id="Rectángulo_42605" data-name="Rectángulo 42605" transform="translate(330 8140.622)" fill="none" stroke="#869d69" stroke-width="2">
      <rect width="206" height="52" stroke="none"/>
      <rect x="1" y="1" width="204" height="50" fill="none"/>
    </g>
    <g id="Grupo_151441" data-name="Grupo 151441" transform="translate(8.98 11.363)">
      <g id="Grupo_151120" data-name="Grupo 151120" transform="translate(361.02 8092.132) rotate(180)">
        <g id="Grupo_149902" data-name="Grupo 149902" clip-path="url(#clip-path)">
          <path id="Trazado_198306" data-name="Trazado 198306" d="M0,53.933a42.148,42.148,0,1,0,51.774-41L42.147,0,32.52,12.932A42.136,42.136,0,0,0,0,53.933" transform="translate(0 -0.002)" fill="#5b6b46"/>
          <path id="Trazado_198307" data-name="Trazado 198307" d="M0,33.83A33.829,33.829,0,1,1,33.83,67.658h0A33.828,33.828,0,0,1,0,33.83Z" transform="translate(8.319 20.103)" fill="#dbdbdb"/>
          <path id="Trazado_198308" data-name="Trazado 198308" d="M0,28.956A28.956,28.956,0,1,1,28.956,57.911,28.955,28.955,0,0,1,0,28.956" transform="translate(13.195 24.977)" fill="#fff"/>
        </g>
      </g>
      <g id="_x33_3" transform="translate(300.847 8010.047)">
        <g id="Grupo_151227" data-name="Grupo 151227" transform="translate(0 0)">
          <g id="Grupo_151226" data-name="Grupo 151226">
            <path id="Trazado_203316" data-name="Trazado 203316" d="M43.369,39.023c0,1.21-.792,2.409-2.387,3.333l-14.2,8.194v1.067L24.6,52.882l-.935-.539-2.508,1.452-2.5-1.452-.022-7.248-.077,5.038-4.191-2.706-2.09,1.21-2.5-1.452-.1-33.371,2.684-1.551.011-1.023,2.178-1.276.9.517L29.51,2.374A11.58,11.58,0,0,1,35.23,1a11.433,11.433,0,0,1,5.7,1.375,4,4,0,0,1,2.343,3.3Z" transform="translate(-9.69 -0.999)" fill="#72d561"/>
          </g>
        </g>
        <g id="Grupo_151249" data-name="Grupo 151249" transform="translate(0.001 0.001)">
          <g id="Grupo_151247" data-name="Grupo 151247">
            <g id="Grupo_151243" data-name="Grupo 151243">
              <g id="Grupo_151242" data-name="Grupo 151242">
                <g id="Grupo_151228" data-name="Grupo 151228" transform="translate(22.322 2.054)">
                  <path id="Trazado_203317" data-name="Trazado 203317" d="M37.792,38.846,37.7,5.478a2.247,2.247,0,0,0-1.314-1.841,7.053,7.053,0,0,0-6.4,0L30.079,37a7.053,7.053,0,0,1,6.4,0,2.247,2.247,0,0,1,1.314,1.841Z" transform="translate(-29.986 -2.868)" fill="#942e19"/>
                </g>
                <g id="Grupo_151229" data-name="Grupo 151229" transform="translate(2.5 2.821)">
                  <path id="Trazado_203318" data-name="Trazado 203318" d="M11.964,15.01l.093,33.368L31.879,36.934,31.787,3.566Z" transform="translate(-11.964 -3.566)" fill="#942e19"/>
                </g>
                <g id="Grupo_151230" data-name="Grupo 151230" transform="translate(0 12.813)">
                  <path id="Trazado_203319" data-name="Trazado 203319" d="M9.691,12.65l.093,33.368,2.5,1.453L12.191,14.1Z" transform="translate(-9.691 -12.65)" fill="#632417"/>
                </g>
                <g id="Grupo_151231" data-name="Grupo 151231" transform="translate(11.383 4.673)">
                  <path id="Trazado_203320" data-name="Trazado 203320" d="M42.335,38.6c0,1.21-.792,2.409-2.387,3.333L20.128,53.37,20.04,20,39.86,8.56c1.573-.913,2.376-2.112,2.376-3.311Z" transform="translate(-20.04 -5.249)" fill="#942e19"/>
                </g>
                <path id="Trazado_203321" data-name="Trazado 203321" d="M13.948,15.63l4.677,2.717L37.969,7.181A2.167,2.167,0,0,0,39.29,5.142,9.653,9.653,0,0,0,31,5.789Z" transform="translate(-9.266 -0.651)" fill="#fff"/>
                <path id="Trazado_203322" data-name="Trazado 203322" d="M13.948,14.619V46.068l4.2,2.7.478-31.43Z" transform="translate(-9.266 0.36)" fill="#e9e7fc"/>
                <g id="Grupo_151232" data-name="Grupo 151232">
                  <path id="Trazado_203323" data-name="Trazado 203323" d="M9.691,13.814l2.5,1.453L32.014,3.822a7.053,7.053,0,0,1,6.4,0c1.759,1.022,1.751,2.685-.019,3.707L18.571,18.974l2.5,1.453L40.894,8.983c3.157-1.823,3.173-4.79.036-6.612A11.529,11.529,0,0,0,35.23,1a11.612,11.612,0,0,0-5.716,1.369Z" transform="translate(-9.691 -1.001)" fill="#eb7961"/>
                </g>
                <g id="Grupo_151233" data-name="Grupo 151233" transform="translate(8.88 17.974)">
                  <path id="Trazado_203324" data-name="Trazado 203324" d="M17.765,17.342l.093,33.368,2.5,1.453-.093-33.368Z" transform="translate(-17.765 -17.342)" fill="#632417"/>
                </g>
                <g id="Grupo_151241" data-name="Grupo 151241" transform="translate(2.683 8.963)">
                  <g id="Grupo_151240" data-name="Grupo 151240">
                    <g id="Grupo_151236" data-name="Grupo 151236">
                      <g id="Grupo_151235" data-name="Grupo 151235">
                        <g id="Grupo_151234" data-name="Grupo 151234">
                          <path id="Trazado_203325" data-name="Trazado 203325" d="M26.638,16.266l-.1,34.537-2.178,1.265-.946-.539.1-33.459L12.13,11.5l.011-1.078,2.178-1.276Z" transform="translate(-12.13 -9.149)" fill="#cc104a"/>
                        </g>
                      </g>
                    </g>
                    <g id="Grupo_151237" data-name="Grupo 151237" transform="translate(12.227 7.117)">
                      <path id="Trazado_203326" data-name="Trazado 203326" d="M23.247,51.425l2.181-1.268.1-34.538-2.181,1.268Z" transform="translate(-23.247 -15.62)" fill="#ffc846"/>
                    </g>
                    <g id="Grupo_151238" data-name="Grupo 151238" transform="translate(0.008 0.004)">
                      <path id="Trazado_203327" data-name="Trazado 203327" d="M24.457,17.533l2.181-1.268L14.319,9.153l-2.181,1.268Z" transform="translate(-12.138 -9.153)" fill="#ffc846"/>
                    </g>
                    <g id="Grupo_151239" data-name="Grupo 151239" transform="translate(0.005 1.272)">
                      <path id="Trazado_203328" data-name="Trazado 203328" d="M12.138,10.306l0,1.085L23.51,17.958l-.1,33.453.944.545.1-34.538Z" transform="translate(-12.135 -10.306)" fill="#c09327"/>
                    </g>
                  </g>
                </g>
              </g>
            </g>
            <g id="Grupo_151246" data-name="Grupo 151246" transform="translate(19.882 17.696)">
              <g id="Grupo_151244" data-name="Grupo 151244" transform="translate(0 5.574)">
                <path id="Trazado_203329" data-name="Trazado 203329" d="M32.725,22.851A11.274,11.274,0,0,0,27.781,30.4c-.1.633.3.943.807.648l8.306-4.8a1.729,1.729,0,0,0,.8-1.576c-.459-2.41-2.511-3.246-4.97-1.827Z" transform="translate(-27.767 -22.158)" fill="#fff"/>
              </g>
              <g id="Grupo_151245" data-name="Grupo 151245" transform="translate(2.709)">
                <path id="Trazado_203330" data-name="Trazado 203330" d="M32.462,17.4a4.92,4.92,0,0,0-2.232,3.865c0,1.422,1.01,1.994,2.247,1.28a4.918,4.918,0,0,0,2.233-3.867C34.706,17.256,33.7,16.683,32.462,17.4Z" transform="translate(-30.23 -17.09)" fill="#fff"/>
              </g>
            </g>
          </g>
          <g id="Grupo_151248" data-name="Grupo 151248" transform="translate(19.013 31.181)">
            <path id="Trazado_203332" data-name="Trazado 203332" d="M39.043,31.8,27,38.754,26.978,36.3,39.022,29.35Z" transform="translate(-26.978 -29.35)" fill="#fff"/>
          </g>
        </g>
      </g>
    </g>
    <g id="Grupo_151439" data-name="Grupo 151439" transform="translate(-18.451 11.364)">
      <g id="Grupo_151111" data-name="Grupo 151111" transform="translate(1103.709 8093.229) rotate(180)">
        <g id="Grupo_149902-2" data-name="Grupo 149902" transform="translate(0 0)" clip-path="url(#clip-path-2)">
          <path id="Trazado_198306-2" data-name="Trazado 198306" d="M0,54.55A42.629,42.629,0,1,0,52.366,13.08L42.629,0,32.891,13.08A42.617,42.617,0,0,0,0,54.549" transform="translate(0 -0.002)" fill="#afafaf"/>
          <path id="Trazado_198307-2" data-name="Trazado 198307" d="M0,34.216A34.216,34.216,0,1,1,34.216,68.431h0A34.215,34.215,0,0,1,0,34.216Z" transform="translate(8.414 20.332)" fill="#dbdbdb"/>
          <path id="Trazado_198308-2" data-name="Trazado 198308" d="M0,29.286A29.286,29.286,0,1,1,29.287,58.573,29.286,29.286,0,0,1,0,29.286" transform="translate(13.345 25.262)" fill="#fff"/>
        </g>
      </g>
      <g id="_x33_3-2" data-name="_x33_3" transform="translate(1044.046 8010.207)">
        <g id="Grupo_151227-2" data-name="Grupo 151227" transform="translate(0 0)">
          <g id="Grupo_151226-2" data-name="Grupo 151226">
            <path id="Trazado_203316-2" data-name="Trazado 203316" d="M43.754,39.457c0,1.224-.8,2.436-2.414,3.371L26.978,51.116V52.2l-2.2,1.279-.946-.545L21.293,54.4l-2.525-1.468L18.746,45.6l-.078,5.1-4.239-2.737L12.315,49.18,9.79,47.712,9.69,13.96,12.4,12.391l.011-1.035,2.2-1.29.912.523,14.206-8.2A11.712,11.712,0,0,1,35.521,1,11.564,11.564,0,0,1,41.284,2.39a4.044,4.044,0,0,1,2.37,3.337Z" transform="translate(-9.69 -0.999)" fill="#72d561"/>
          </g>
        </g>
        <g id="Grupo_151249-2" data-name="Grupo 151249" transform="translate(0.001 0.001)">
          <g id="Grupo_151247-2" data-name="Grupo 151247">
            <g id="Grupo_151243-2" data-name="Grupo 151243">
              <g id="Grupo_151242-2" data-name="Grupo 151242">
                <g id="Grupo_151228-2" data-name="Grupo 151228" transform="translate(22.578 2.077)">
                  <path id="Trazado_203317-2" data-name="Trazado 203317" d="M37.882,39.257l-.094-33.75a2.273,2.273,0,0,0-1.329-1.862,7.134,7.134,0,0,0-6.473,0l.094,33.75a7.134,7.134,0,0,1,6.473,0,2.273,2.273,0,0,1,1.329,1.862Z" transform="translate(-29.986 -2.868)" fill="#869d69"/>
                </g>
                <g id="Grupo_151229-2" data-name="Grupo 151229" transform="translate(2.528 2.853)">
                  <path id="Trazado_203318-2" data-name="Trazado 203318" d="M11.964,15.141l.094,33.75L32.107,37.315l-.094-33.75Z" transform="translate(-11.964 -3.566)" fill="#869d69"/>
                </g>
                <g id="Grupo_151230-2" data-name="Grupo 151230" transform="translate(0 12.96)">
                  <path id="Trazado_203319-2" data-name="Trazado 203319" d="M9.691,12.65,9.785,46.4l2.528,1.469-.094-33.75Z" transform="translate(-9.691 -12.65)" fill="#526c31"/>
                </g>
                <g id="Grupo_151231-2" data-name="Grupo 151231" transform="translate(11.513 4.727)">
                  <path id="Trazado_203320-2" data-name="Trazado 203320" d="M42.59,38.979c0,1.224-.8,2.436-2.414,3.371L20.129,53.92,20.04,20.168,40.087,8.6c1.591-.923,2.4-2.136,2.4-3.349Z" transform="translate(-20.04 -5.249)" fill="#869d69"/>
                </g>
                <path id="Trazado_203321-2" data-name="Trazado 203321" d="M13.947,15.758l4.73,2.749L38.244,7.211A2.192,2.192,0,0,0,39.58,5.149a9.764,9.764,0,0,0-8.389.655Z" transform="translate(-9.212 -0.607)" fill="#fff"/>
                <path id="Trazado_203322-2" data-name="Trazado 203322" d="M13.947,14.619V46.428l4.246,2.729.484-31.789Z" transform="translate(-9.212 0.531)" fill="#e9e7fc"/>
                <g id="Grupo_151232-2" data-name="Grupo 151232">
                  <path id="Trazado_203323-2" data-name="Trazado 203323" d="M9.691,13.96l2.528,1.469L32.269,3.854a7.134,7.134,0,0,1,6.473,0c1.779,1.034,1.771,2.716-.02,3.749L18.673,19.18,21.2,20.649,41.25,9.074c3.193-1.844,3.209-4.844.036-6.688A11.661,11.661,0,0,0,35.522,1,11.745,11.745,0,0,0,29.74,2.385Z" transform="translate(-9.691 -1.001)" fill="#a5ca77"/>
                </g>
                <g id="Grupo_151233-2" data-name="Grupo 151233" transform="translate(8.982 18.179)">
                  <path id="Trazado_203324-2" data-name="Trazado 203324" d="M17.765,17.342l.094,33.75,2.528,1.469-.094-33.75Z" transform="translate(-17.765 -17.342)" fill="#526c31"/>
                </g>
                <g id="Grupo_151241-2" data-name="Grupo 151241" transform="translate(2.713 9.065)">
                  <g id="Grupo_151240-2" data-name="Grupo 151240">
                    <g id="Grupo_151236-2" data-name="Grupo 151236">
                      <g id="Grupo_151235-2" data-name="Grupo 151235">
                        <g id="Grupo_151234-2" data-name="Grupo 151234">
                          <path id="Trazado_203325-2" data-name="Trazado 203325" d="M26.8,16.347l-.1,34.931-2.2,1.279-.957-.545.1-33.841L12.13,11.53l.011-1.09,2.2-1.29Z" transform="translate(-12.13 -9.149)" fill="#cc104a"/>
                        </g>
                      </g>
                    </g>
                    <g id="Grupo_151237-2" data-name="Grupo 151237" transform="translate(12.367 7.198)">
                      <path id="Trazado_203326-2" data-name="Trazado 203326" d="M23.247,51.835l2.206-1.282.1-34.933L23.348,16.9Z" transform="translate(-23.247 -15.62)" fill="#ffc846"/>
                    </g>
                    <g id="Grupo_151238-2" data-name="Grupo 151238" transform="translate(0.008 0.005)">
                      <path id="Trazado_203327-2" data-name="Trazado 203327" d="M24.6,17.629,26.8,16.347,14.344,9.153l-2.206,1.282Z" transform="translate(-12.138 -9.153)" fill="#ffc846"/>
                    </g>
                    <g id="Grupo_151239-2" data-name="Grupo 151239" transform="translate(0.005 1.287)">
                      <path id="Trazado_203328-2" data-name="Trazado 203328" d="M12.138,10.306l0,1.1L23.64,18.045l-.1,33.836.955.551L24.6,17.5Z" transform="translate(-12.135 -10.306)" fill="#c09327"/>
                    </g>
                  </g>
                </g>
              </g>
            </g>
            <g id="Grupo_151246-2" data-name="Grupo 151246" transform="translate(20.109 17.899)">
              <g id="Grupo_151244-2" data-name="Grupo 151244" transform="translate(0 5.638)">
                <path id="Trazado_203329-2" data-name="Trazado 203329" d="M32.782,22.859a11.4,11.4,0,0,0-5,7.637c-.1.64.3.953.816.655L37,26.3a1.749,1.749,0,0,0,.81-1.594c-.464-2.438-2.54-3.283-5.027-1.848Z" transform="translate(-27.767 -22.158)" fill="#fff"/>
              </g>
              <g id="Grupo_151245-2" data-name="Grupo 151245" transform="translate(2.74)">
                <path id="Trazado_203330-2" data-name="Trazado 203330" d="M32.488,17.4A4.976,4.976,0,0,0,30.23,21.31c0,1.438,1.022,2.017,2.272,1.295a4.975,4.975,0,0,0,2.259-3.911C34.757,17.258,33.739,16.678,32.488,17.4Z" transform="translate(-30.23 -17.09)" fill="#fff"/>
              </g>
            </g>
          </g>
          <g id="Grupo_151248-2" data-name="Grupo 151248" transform="translate(19.231 31.538)">
            <path id="Trazado_203332-2" data-name="Trazado 203332" d="M39.181,31.831,27,38.862l-.022-2.481L39.159,29.35Z" transform="translate(-26.978 -29.35)" fill="#fff"/>
          </g>
        </g>
      </g>
    </g>
    <g id="Grupo_151440" data-name="Grupo 151440" transform="translate(-7.97 11.363)">
      <g id="Grupo_151112" data-name="Grupo 151112" transform="translate(735.118 8092.131) rotate(180)">
        <g id="Grupo_149902-3" data-name="Grupo 149902" transform="translate(0 0)" clip-path="url(#clip-path-3)">
          <path id="Trazado_198306-3" data-name="Trazado 198306" d="M0,53.933a42.148,42.148,0,1,0,51.774-41L42.147,0,32.519,12.932A42.135,42.135,0,0,0,0,53.932" transform="translate(0 -0.002)" fill="#942e19"/>
          <path id="Trazado_198307-3" data-name="Trazado 198307" d="M0,33.83A33.829,33.829,0,1,1,33.83,67.658h0A33.828,33.828,0,0,1,0,33.83Z" transform="translate(8.319 20.103)" fill="#dbdbdb"/>
          <path id="Trazado_198308-3" data-name="Trazado 198308" d="M0,28.955A28.955,28.955,0,1,1,28.955,57.911,28.955,28.955,0,0,1,0,28.955" transform="translate(13.194 24.977)" fill="#fff"/>
        </g>
      </g>
      <g id="_x33_3-3" data-name="_x33_3" transform="translate(676.705 8010.046)">
        <g id="Grupo_151227-3" data-name="Grupo 151227" transform="translate(0 0)">
          <g id="Grupo_151226-3" data-name="Grupo 151226">
            <path id="Trazado_203316-3" data-name="Trazado 203316" d="M43.369,39.023c0,1.21-.792,2.409-2.387,3.333l-14.2,8.194v1.067L24.6,52.881l-.935-.539-2.508,1.452-2.5-1.452-.022-7.248-.077,5.038-4.191-2.706-2.09,1.21-2.5-1.452-.1-33.371,2.684-1.551.011-1.023,2.178-1.276.9.517L29.51,2.374A11.579,11.579,0,0,1,35.229,1a11.433,11.433,0,0,1,5.7,1.375,4,4,0,0,1,2.343,3.3Z" transform="translate(-9.69 -0.999)" fill="#72d561"/>
          </g>
        </g>
        <g id="Grupo_151249-3" data-name="Grupo 151249" transform="translate(0.001 0.001)">
          <g id="Grupo_151247-3" data-name="Grupo 151247">
            <g id="Grupo_151243-3" data-name="Grupo 151243">
              <g id="Grupo_151242-3" data-name="Grupo 151242">
                <g id="Grupo_151228-3" data-name="Grupo 151228" transform="translate(22.322 2.054)">
                  <path id="Trazado_203317-3" data-name="Trazado 203317" d="M37.792,38.846,37.7,5.477a2.247,2.247,0,0,0-1.314-1.841,7.053,7.053,0,0,0-6.4,0L30.079,37a7.053,7.053,0,0,1,6.4,0,2.247,2.247,0,0,1,1.314,1.841Z" transform="translate(-29.986 -2.868)" fill="#ffc846"/>
                </g>
                <g id="Grupo_151229-3" data-name="Grupo 151229" transform="translate(2.5 2.821)">
                  <path id="Trazado_203318-3" data-name="Trazado 203318" d="M11.964,15.01l.093,33.368L31.879,36.934,31.786,3.566Z" transform="translate(-11.964 -3.566)" fill="#ffc846"/>
                </g>
                <g id="Grupo_151230-3" data-name="Grupo 151230" transform="translate(0 12.813)">
                  <path id="Trazado_203319-3" data-name="Trazado 203319" d="M9.691,12.65l.093,33.368,2.5,1.453L12.191,14.1Z" transform="translate(-9.691 -12.65)" fill="#a6790e"/>
                </g>
                <g id="Grupo_151231-3" data-name="Grupo 151231" transform="translate(11.383 4.673)">
                  <path id="Trazado_203320-3" data-name="Trazado 203320" d="M42.335,38.6c0,1.21-.792,2.409-2.387,3.333L20.128,53.37,20.04,20,39.86,8.56c1.573-.913,2.376-2.112,2.376-3.311Z" transform="translate(-20.04 -5.249)" fill="#ffc846"/>
                </g>
                <path id="Trazado_203321-3" data-name="Trazado 203321" d="M13.948,15.63l4.677,2.717L37.969,7.181A2.167,2.167,0,0,0,39.29,5.142,9.653,9.653,0,0,0,31,5.789Z" transform="translate(-9.266 -0.651)" fill="#fff"/>
                <path id="Trazado_203322-3" data-name="Trazado 203322" d="M13.948,14.619V46.068l4.2,2.7.478-31.43Z" transform="translate(-9.266 0.36)" fill="#e9e7fc"/>
                <g id="Grupo_151232-3" data-name="Grupo 151232">
                  <path id="Trazado_203323-3" data-name="Trazado 203323" d="M9.691,13.814l2.5,1.453L32.014,3.822a7.053,7.053,0,0,1,6.4,0c1.759,1.022,1.751,2.685-.019,3.707L18.571,18.974l2.5,1.453L40.894,8.982c3.157-1.823,3.173-4.79.036-6.612A11.529,11.529,0,0,0,35.23,1a11.612,11.612,0,0,0-5.716,1.369Z" transform="translate(-9.691 -1.001)" fill="#ffe29e"/>
                </g>
                <g id="Grupo_151233-3" data-name="Grupo 151233" transform="translate(8.88 17.974)">
                  <path id="Trazado_203324-3" data-name="Trazado 203324" d="M17.765,17.342l.093,33.368,2.5,1.453-.093-33.368Z" transform="translate(-17.765 -17.342)" fill="#a6790e"/>
                </g>
                <g id="Grupo_151241-3" data-name="Grupo 151241" transform="translate(2.682 8.963)">
                  <g id="Grupo_151240-3" data-name="Grupo 151240">
                    <g id="Grupo_151236-3" data-name="Grupo 151236">
                      <g id="Grupo_151235-3" data-name="Grupo 151235">
                        <g id="Grupo_151234-3" data-name="Grupo 151234">
                          <path id="Trazado_203325-3" data-name="Trazado 203325" d="M26.638,16.266l-.1,34.537-2.178,1.265-.946-.539.1-33.459L12.13,11.5l.011-1.078,2.178-1.276Z" transform="translate(-12.13 -9.149)" fill="#942e19"/>
                        </g>
                      </g>
                    </g>
                    <g id="Grupo_151237-3" data-name="Grupo 151237" transform="translate(12.227 7.117)">
                      <path id="Trazado_203326-3" data-name="Trazado 203326" d="M23.247,51.425l2.181-1.268.1-34.538-2.181,1.268Z" transform="translate(-23.247 -15.62)" fill="#942e19"/>
                    </g>
                    <g id="Grupo_151238-3" data-name="Grupo 151238" transform="translate(0.008 0.004)">
                      <path id="Trazado_203327-3" data-name="Trazado 203327" d="M24.457,17.533l2.181-1.268L14.319,9.153l-2.181,1.268Z" transform="translate(-12.138 -9.153)" fill="#942e19"/>
                    </g>
                    <g id="Grupo_151239-3" data-name="Grupo 151239" transform="translate(0.005 1.272)">
                      <path id="Trazado_203328-3" data-name="Trazado 203328" d="M12.138,10.306l0,1.085L23.51,17.958l-.1,33.453.944.545.1-34.538Z" transform="translate(-12.135 -10.306)" fill="#6c291b"/>
                    </g>
                  </g>
                </g>
              </g>
            </g>
            <g id="Grupo_151246-3" data-name="Grupo 151246" transform="translate(19.882 17.696)">
              <g id="Grupo_151244-3" data-name="Grupo 151244" transform="translate(0 5.574)">
                <path id="Trazado_203329-3" data-name="Trazado 203329" d="M32.725,22.851a11.273,11.273,0,0,0-4.944,7.55c-.1.633.3.943.807.648l8.306-4.8a1.729,1.729,0,0,0,.8-1.576c-.459-2.41-2.511-3.246-4.97-1.827Z" transform="translate(-27.767 -22.158)" fill="#fff"/>
              </g>
              <g id="Grupo_151245-3" data-name="Grupo 151245" transform="translate(2.709)">
                <path id="Trazado_203330-3" data-name="Trazado 203330" d="M32.462,17.4a4.92,4.92,0,0,0-2.232,3.865c0,1.422,1.01,1.994,2.247,1.28a4.918,4.918,0,0,0,2.233-3.867C34.706,17.256,33.7,16.683,32.462,17.4Z" transform="translate(-30.23 -17.09)" fill="#fff"/>
              </g>
            </g>
          </g>
          <g id="Grupo_151248-3" data-name="Grupo 151248" transform="translate(19.013 31.181)">
            <path id="Trazado_203332-3" data-name="Trazado 203332" d="M39.043,31.8,27,38.754,26.978,36.3,39.021,29.35Z" transform="translate(-26.978 -29.35)" fill="#fff"/>
          </g>
        </g>
      </g>
    </g>
    <g id="Grupo_152410" data-name="Grupo 152410" transform="translate(372 7834)">
      <g id="Grupo_152395" data-name="Grupo 152395">
        <g id="Grupo_152394" data-name="Grupo 152394" clip-path="url(#clip-path-4)">
          <path id="Trazado_208376" data-name="Trazado 208376" d="M294.046,8.666v4.257h-2.49V.837h4.715a5.434,5.434,0,0,1,2.394.5,3.657,3.657,0,0,1,1.59,1.415,3.942,3.942,0,0,1,.557,2.087,3.469,3.469,0,0,1-1.217,2.8,5.062,5.062,0,0,1-3.365,1.026Zm0-2.018h2.225a2.183,2.183,0,0,0,1.506-.465,1.69,1.69,0,0,0,.519-1.328,2,2,0,0,0-.522-1.436,1.956,1.956,0,0,0-1.445-.564h-2.283Z" fill="#fff"/>
          <path id="Trazado_208377" data-name="Trazado 208377" d="M307.411,6.191a6.547,6.547,0,0,0-.863-.066,1.756,1.756,0,0,0-1.784.921v5.877h-2.4V3.942h2.267l.066,1.071a2.223,2.223,0,0,1,2-1.237,2.507,2.507,0,0,1,.747.108Z" fill="#fff"/>
          <path id="Trazado_208378" data-name="Trazado 208378" d="M307.892,8.349a5.328,5.328,0,0,1,.514-2.382,3.767,3.767,0,0,1,1.482-1.618,4.313,4.313,0,0,1,2.246-.573A4.094,4.094,0,0,1,315.1,4.888a4.468,4.468,0,0,1,1.282,3.022l.016.614a4.691,4.691,0,0,1-1.154,3.316,4.472,4.472,0,0,1-6.2,0,4.772,4.772,0,0,1-1.158-3.386Zm2.4.171a3.358,3.358,0,0,0,.48,1.958,1.729,1.729,0,0,0,2.74.008A3.669,3.669,0,0,0,314,8.345a3.319,3.319,0,0,0-.489-1.945,1.592,1.592,0,0,0-1.378-.69,1.567,1.567,0,0,0-1.362.686,3.735,3.735,0,0,0-.48,2.124" fill="#fff"/>
          <path id="Trazado_208379" data-name="Trazado 208379" d="M317.505,8.367a5.416,5.416,0,0,1,.942-3.346,3.056,3.056,0,0,1,2.577-1.245,2.748,2.748,0,0,1,2.167.98V.174H325.6v12.75h-2.167l-.116-.955a2.82,2.82,0,0,1-2.307,1.121,3.046,3.046,0,0,1-2.544-1.249,5.584,5.584,0,0,1-.959-3.474m2.4.17a3.565,3.565,0,0,0,.439,1.943,1.433,1.433,0,0,0,1.279.676,1.605,1.605,0,0,0,1.569-.942V6.652a1.581,1.581,0,0,0-1.553-.941q-1.734,0-1.734,2.826" fill="#fff"/>
          <path id="Trazado_208380" data-name="Trazado 208380" d="M332.836,12.01a3.008,3.008,0,0,1-2.457,1.08,2.835,2.835,0,0,1-2.2-.83,3.541,3.541,0,0,1-.776-2.432V3.943h2.4V9.751q0,1.405,1.278,1.406a1.734,1.734,0,0,0,1.677-.849V3.943h2.407v8.981H332.9Z" fill="#fff"/>
          <path id="Trazado_208381" data-name="Trazado 208381" d="M340.706,11.156a1.577,1.577,0,0,0,1.079-.365,1.288,1.288,0,0,0,.432-.972h2.249a3.073,3.073,0,0,1-.5,1.673,3.293,3.293,0,0,1-1.341,1.179,4.2,4.2,0,0,1-1.88.419,3.9,3.9,0,0,1-3.038-1.225A4.846,4.846,0,0,1,336.6,8.482V8.325a4.79,4.79,0,0,1,1.1-3.312,3.851,3.851,0,0,1,3.029-1.237,3.776,3.776,0,0,1,2.7.959,3.4,3.4,0,0,1,1.033,2.552h-2.249a1.657,1.657,0,0,0-.432-1.139,1.607,1.607,0,0,0-2.362.173A3.548,3.548,0,0,0,339,8.3v.25a3.591,3.591,0,0,0,.423,2,1.464,1.464,0,0,0,1.287.607" fill="#fff"/>
          <path id="Trazado_208382" data-name="Trazado 208382" d="M348.707,1.734V3.942h1.535V5.7h-1.535v4.482a1.071,1.071,0,0,0,.19.714.962.962,0,0,0,.731.216,3.9,3.9,0,0,0,.706-.058v1.818a4.973,4.973,0,0,1-1.453.215,2.29,2.29,0,0,1-2.573-2.548V5.7H345V3.942h1.312V1.734Z" fill="#fff"/>
          <path id="Trazado_208383" data-name="Trazado 208383" d="M350.957,8.349a5.328,5.328,0,0,1,.514-2.382,3.767,3.767,0,0,1,1.482-1.618,4.313,4.313,0,0,1,2.246-.573,4.09,4.09,0,0,1,2.967,1.112,4.468,4.468,0,0,1,1.283,3.022l.016.614a4.691,4.691,0,0,1-1.154,3.316,4.472,4.472,0,0,1-6.2,0,4.772,4.772,0,0,1-1.158-3.386Zm2.4.171a3.357,3.357,0,0,0,.481,1.958,1.729,1.729,0,0,0,2.74.008,3.676,3.676,0,0,0,.489-2.141,3.326,3.326,0,0,0-.489-1.945,1.593,1.593,0,0,0-1.378-.69,1.567,1.567,0,0,0-1.362.686,3.734,3.734,0,0,0-.481,2.124" fill="#fff"/>
          <path id="Trazado_208384" data-name="Trazado 208384" d="M365.807,10.441a.772.772,0,0,0-.437-.692,4.922,4.922,0,0,0-1.4-.453q-3.2-.673-3.2-2.722a2.47,2.47,0,0,1,.992-2,4,4,0,0,1,2.594-.8,4.3,4.3,0,0,1,2.735.806,2.534,2.534,0,0,1,1.026,2.091h-2.4a1.158,1.158,0,0,0-.332-.851,1.4,1.4,0,0,0-1.037-.336,1.444,1.444,0,0,0-.938.273.869.869,0,0,0-.332.7.74.74,0,0,0,.377.643,3.894,3.894,0,0,0,1.275.424,10.516,10.516,0,0,1,1.511.4,2.483,2.483,0,0,1,1.9,2.415,2.345,2.345,0,0,1-1.054,1.989,4.542,4.542,0,0,1-2.722.759,4.741,4.741,0,0,1-2.005-.4,3.364,3.364,0,0,1-1.374-1.1,2.567,2.567,0,0,1-.5-1.515h2.274a1.251,1.251,0,0,0,.474.979,1.872,1.872,0,0,0,1.178.341,1.742,1.742,0,0,0,1.041-.261.815.815,0,0,0,.354-.686" fill="#fff"/>
          <path id="Trazado_208385" data-name="Trazado 208385" d="M374.573,12.924V5.7h-1.337V3.943h1.337V3.179A3.1,3.1,0,0,1,375.44.834,3.36,3.36,0,0,1,377.868,0a5.7,5.7,0,0,1,1.221.164l-.026,1.844a3.1,3.1,0,0,0-.73-.074q-1.353,0-1.353,1.28v.729h1.784V5.7H376.98v7.222Z" fill="#fff"/>
          <path id="Trazado_208386" data-name="Trazado 208386" d="M379.637,8.349a5.315,5.315,0,0,1,.514-2.382,3.761,3.761,0,0,1,1.482-1.618,4.309,4.309,0,0,1,2.245-.573,4.094,4.094,0,0,1,2.968,1.112,4.463,4.463,0,0,1,1.282,3.022l.016.614a4.7,4.7,0,0,1-1.153,3.316,4.472,4.472,0,0,1-6.2,0,4.771,4.771,0,0,1-1.158-3.386Zm2.4.171a3.365,3.365,0,0,0,.481,1.958,1.729,1.729,0,0,0,2.74.008,3.668,3.668,0,0,0,.49-2.141,3.318,3.318,0,0,0-.49-1.945,1.591,1.591,0,0,0-1.378-.69,1.57,1.57,0,0,0-1.362.686,3.743,3.743,0,0,0-.481,2.124" fill="#fff"/>
          <path id="Trazado_208387" data-name="Trazado 208387" d="M394.668,6.191a6.547,6.547,0,0,0-.863-.066,1.756,1.756,0,0,0-1.784.921v5.877h-2.4V3.942h2.267l.066,1.071a2.223,2.223,0,0,1,2-1.237,2.507,2.507,0,0,1,.747.108Z" fill="#fff"/>
          <path id="Trazado_208388" data-name="Trazado 208388" d="M399.8,13.09a4.406,4.406,0,0,1-3.215-1.212,4.3,4.3,0,0,1-1.242-3.229V8.416A5.42,5.42,0,0,1,395.864,6a3.831,3.831,0,0,1,1.482-1.643,4.154,4.154,0,0,1,2.187-.578,3.727,3.727,0,0,1,2.9,1.163,4.718,4.718,0,0,1,1.059,3.3v.979h-5.72a2.233,2.233,0,0,0,.7,1.412,2.121,2.121,0,0,0,1.482.531,2.589,2.589,0,0,0,2.166-1.005l1.178,1.32a3.585,3.585,0,0,1-1.461,1.191,4.789,4.789,0,0,1-2.042.428m-.273-7.379a1.5,1.5,0,0,0-1.158.483,2.507,2.507,0,0,0-.569,1.384h3.337V7.387a1.791,1.791,0,0,0-.431-1.239,1.552,1.552,0,0,0-1.179-.437" fill="#fff"/>
          <path id="Trazado_208389" data-name="Trazado 208389" d="M409.718,10.441a.772.772,0,0,0-.437-.692,4.922,4.922,0,0,0-1.4-.453q-3.2-.673-3.2-2.722a2.47,2.47,0,0,1,.992-2,4,4,0,0,1,2.594-.8A4.3,4.3,0,0,1,411,4.582a2.534,2.534,0,0,1,1.026,2.091h-2.4a1.159,1.159,0,0,0-.332-.851,1.4,1.4,0,0,0-1.037-.336,1.444,1.444,0,0,0-.938.273.869.869,0,0,0-.332.7.74.74,0,0,0,.377.643,3.894,3.894,0,0,0,1.275.424,10.515,10.515,0,0,1,1.511.4,2.483,2.483,0,0,1,1.9,2.415A2.344,2.344,0,0,1,411,12.33a4.542,4.542,0,0,1-2.722.759,4.741,4.741,0,0,1-2-.4,3.365,3.365,0,0,1-1.374-1.1,2.567,2.567,0,0,1-.5-1.515h2.274a1.251,1.251,0,0,0,.474.979,1.872,1.872,0,0,0,1.178.341,1.742,1.742,0,0,0,1.041-.261.815.815,0,0,0,.354-.686" fill="#fff"/>
          <path id="Trazado_208390" data-name="Trazado 208390" d="M416.466,1.734V3.942H418V5.7h-1.536v4.482a1.065,1.065,0,0,0,.191.714.959.959,0,0,0,.731.216,3.884,3.884,0,0,0,.7-.058v1.818a4.961,4.961,0,0,1-1.452.215,2.29,2.29,0,0,1-2.573-2.548V5.7h-1.312V3.942h1.312V1.734Z" fill="#fff"/>
          <path id="Trazado_208391" data-name="Trazado 208391" d="M424.543,12.924a2.66,2.66,0,0,1-.241-.8,2.9,2.9,0,0,1-2.265.971,3.191,3.191,0,0,1-2.188-.764,2.454,2.454,0,0,1-.867-1.925,2.536,2.536,0,0,1,1.058-2.192,5.22,5.22,0,0,1,3.059-.771h1.1V6.922a1.484,1.484,0,0,0-.32-1,1.26,1.26,0,0,0-1.009-.373,1.429,1.429,0,0,0-.95.291.987.987,0,0,0-.344.8h-2.4a2.409,2.409,0,0,1,.482-1.446,3.179,3.179,0,0,1,1.361-1.041A4.954,4.954,0,0,1,423,3.777a3.926,3.926,0,0,1,2.636.833,2.92,2.92,0,0,1,.975,2.345v3.894a4.305,4.305,0,0,0,.357,1.934v.141Zm-1.984-1.668a2.059,2.059,0,0,0,.979-.237,1.555,1.555,0,0,0,.665-.635V8.84h-.9q-1.8,0-1.917,1.245l-.009.142a.959.959,0,0,0,.316.738,1.229,1.229,0,0,0,.863.291" fill="#fff"/>
          <rect id="Rectángulo_43494" data-name="Rectángulo 43494" width="2.407" height="12.75" transform="translate(428.578 0.174)" fill="#fff"/>
          <path id="Trazado_208392" data-name="Trazado 208392" d="M437.094,13.09a4.407,4.407,0,0,1-3.216-1.212,4.306,4.306,0,0,1-1.242-3.229V8.416A5.421,5.421,0,0,1,433.16,6a3.829,3.829,0,0,1,1.481-1.643,4.156,4.156,0,0,1,2.188-.578,3.725,3.725,0,0,1,2.9,1.163,4.718,4.718,0,0,1,1.059,3.3v.979h-5.719a2.227,2.227,0,0,0,.7,1.412,2.121,2.121,0,0,0,1.482.531,2.591,2.591,0,0,0,2.167-1.005l1.178,1.32a3.591,3.591,0,0,1-1.461,1.191,4.793,4.793,0,0,1-2.042.428m-.274-7.379a1.5,1.5,0,0,0-1.158.483,2.507,2.507,0,0,0-.569,1.384h3.337V7.387A1.781,1.781,0,0,0,438,6.148a1.549,1.549,0,0,0-1.179-.437" fill="#fff"/>
          <path id="Trazado_208393" data-name="Trazado 208393" d="M447.013,10.441a.771.771,0,0,0-.436-.692,4.933,4.933,0,0,0-1.4-.453q-3.205-.673-3.2-2.722a2.467,2.467,0,0,1,.992-2,4,4,0,0,1,2.594-.8,4.3,4.3,0,0,1,2.735.806,2.536,2.536,0,0,1,1.025,2.091h-2.4a1.162,1.162,0,0,0-.332-.851,1.407,1.407,0,0,0-1.038-.336,1.441,1.441,0,0,0-.937.273.866.866,0,0,0-.332.7.74.74,0,0,0,.377.643,3.878,3.878,0,0,0,1.274.424,10.479,10.479,0,0,1,1.511.4,2.483,2.483,0,0,1,1.9,2.415,2.343,2.343,0,0,1-1.055,1.989,4.54,4.54,0,0,1-2.722.759,4.737,4.737,0,0,1-2-.4,3.364,3.364,0,0,1-1.374-1.1,2.567,2.567,0,0,1-.5-1.515h2.274a1.251,1.251,0,0,0,.473.979,1.876,1.876,0,0,0,1.178.341,1.746,1.746,0,0,0,1.042-.261.814.814,0,0,0,.353-.686" fill="#fff"/>
          <path id="Trazado_208394" data-name="Trazado 208394" d="M457.332,3.942,457.4,4.98a3.138,3.138,0,0,1,2.582-1.2,2.6,2.6,0,0,1,2.125.839,3.918,3.918,0,0,1,.715,2.506v5.8h-2.4V7.166a1.567,1.567,0,0,0-.332-1.111,1.481,1.481,0,0,0-1.1-.344,1.647,1.647,0,0,0-1.518.864v6.348h-2.4V3.942Z" fill="#fff"/>
          <path id="Trazado_208395" data-name="Trazado 208395" d="M464.271,8.349a5.315,5.315,0,0,1,.514-2.382,3.761,3.761,0,0,1,1.482-1.618,4.309,4.309,0,0,1,2.245-.573,4.094,4.094,0,0,1,2.968,1.112,4.463,4.463,0,0,1,1.282,3.022l.016.614a4.7,4.7,0,0,1-1.153,3.316,4.472,4.472,0,0,1-6.2,0,4.772,4.772,0,0,1-1.158-3.386Zm2.4.171a3.365,3.365,0,0,0,.481,1.958,1.729,1.729,0,0,0,2.74.008,3.668,3.668,0,0,0,.49-2.141,3.318,3.318,0,0,0-.49-1.945,1.591,1.591,0,0,0-1.378-.69,1.57,1.57,0,0,0-1.362.686,3.742,3.742,0,0,0-.481,2.124" fill="#fff"/>
          <path id="Trazado_208396" data-name="Trazado 208396" d="M480.74,3.942l.074,1.005A3.156,3.156,0,0,1,483.4,3.776a2.394,2.394,0,0,1,2.382,1.37,3.082,3.082,0,0,1,2.7-1.37,2.677,2.677,0,0,1,2.175.851,3.907,3.907,0,0,1,.714,2.56v5.736h-2.407V7.182a1.714,1.714,0,0,0-.3-1.118,1.323,1.323,0,0,0-1.055-.353,1.5,1.5,0,0,0-1.494,1.031l.009,6.181h-2.4V7.191a1.7,1.7,0,0,0-.306-1.132,1.34,1.34,0,0,0-1.046-.348,1.554,1.554,0,0,0-1.478.847v6.365h-2.4V3.942Z" fill="#fff"/>
          <path id="Trazado_208397" data-name="Trazado 208397" d="M498.411,12.924a2.69,2.69,0,0,1-.24-.8,2.9,2.9,0,0,1-2.266.971,3.193,3.193,0,0,1-2.188-.764,2.454,2.454,0,0,1-.867-1.925,2.536,2.536,0,0,1,1.058-2.192,5.222,5.222,0,0,1,3.059-.771h1.1V6.922a1.479,1.479,0,0,0-.321-1,1.26,1.26,0,0,0-1.008-.373,1.432,1.432,0,0,0-.951.291.987.987,0,0,0-.343.8h-2.4a2.416,2.416,0,0,1,.482-1.446,3.191,3.191,0,0,1,1.361-1.041,4.958,4.958,0,0,1,1.975-.377,3.924,3.924,0,0,1,2.636.833,2.918,2.918,0,0,1,.976,2.345v3.894a4.294,4.294,0,0,0,.356,1.934v.141Zm-1.983-1.668a2.059,2.059,0,0,0,.979-.237,1.561,1.561,0,0,0,.665-.635V8.84h-.9q-1.8,0-1.918,1.245l-.008.142a.956.956,0,0,0,.316.738,1.228,1.228,0,0,0,.863.291" fill="#fff"/>
          <path id="Trazado_208398" data-name="Trazado 208398" d="M501.948,8.367a5.415,5.415,0,0,1,.942-3.346,3.056,3.056,0,0,1,2.577-1.245,2.748,2.748,0,0,1,2.167.98V.174h2.407v12.75h-2.167l-.116-.955a2.82,2.82,0,0,1-2.307,1.121,3.046,3.046,0,0,1-2.544-1.249,5.584,5.584,0,0,1-.959-3.474m2.4.17a3.565,3.565,0,0,0,.439,1.943,1.433,1.433,0,0,0,1.279.676,1.605,1.605,0,0,0,1.569-.942V6.652a1.581,1.581,0,0,0-1.553-.941q-1.734,0-1.734,2.826" fill="#fff"/>
          <path id="Trazado_208399" data-name="Trazado 208399" d="M516.034,13.09a4.407,4.407,0,0,1-3.216-1.212,4.306,4.306,0,0,1-1.242-3.229V8.416A5.421,5.421,0,0,1,512.1,6a3.829,3.829,0,0,1,1.481-1.643,4.155,4.155,0,0,1,2.188-.578,3.725,3.725,0,0,1,2.9,1.163,4.718,4.718,0,0,1,1.059,3.3v.979h-5.719a2.227,2.227,0,0,0,.7,1.412,2.121,2.121,0,0,0,1.482.531,2.591,2.591,0,0,0,2.167-1.005l1.178,1.32a3.591,3.591,0,0,1-1.461,1.191,4.793,4.793,0,0,1-2.042.428m-.274-7.379a1.5,1.5,0,0,0-1.158.483,2.508,2.508,0,0,0-.569,1.384h3.337V7.387a1.781,1.781,0,0,0-.431-1.239,1.549,1.549,0,0,0-1.179-.437" fill="#fff"/>
          <path id="Trazado_208400" data-name="Trazado 208400" d="M526.136,6.191a6.547,6.547,0,0,0-.863-.066,1.756,1.756,0,0,0-1.784.921v5.877h-2.4V3.942h2.267l.066,1.071a2.223,2.223,0,0,1,2-1.237,2.508,2.508,0,0,1,.747.108Z" fill="#fff"/>
          <path id="Trazado_208401" data-name="Trazado 208401" d="M532.245,12.924a2.69,2.69,0,0,1-.24-.8,2.9,2.9,0,0,1-2.266.971,3.193,3.193,0,0,1-2.188-.764,2.454,2.454,0,0,1-.867-1.925,2.536,2.536,0,0,1,1.058-2.192,5.222,5.222,0,0,1,3.059-.771h1.1V6.922a1.479,1.479,0,0,0-.321-1,1.26,1.26,0,0,0-1.008-.373,1.432,1.432,0,0,0-.951.291.987.987,0,0,0-.343.8h-2.4a2.416,2.416,0,0,1,.482-1.446,3.191,3.191,0,0,1,1.361-1.041,4.958,4.958,0,0,1,1.975-.377,3.924,3.924,0,0,1,2.636.833,2.918,2.918,0,0,1,.976,2.345v3.894a4.294,4.294,0,0,0,.356,1.934v.141Zm-1.983-1.668a2.059,2.059,0,0,0,.979-.237,1.561,1.561,0,0,0,.665-.635V8.84h-.9q-1.8,0-1.918,1.245l-.008.142a.956.956,0,0,0,.316.738,1.228,1.228,0,0,0,.863.291" fill="#fff"/>
          <path id="Trazado_208402" data-name="Trazado 208402" d="M544.248,8.516a5.44,5.44,0,0,1-.92,3.366,3.055,3.055,0,0,1-2.574,1.208,2.8,2.8,0,0,1-2.333-1.121l-.107.955h-2.158V.174h2.4V4.748a2.732,2.732,0,0,1,2.184-.972,3.079,3.079,0,0,1,2.577,1.208,5.449,5.449,0,0,1,.933,3.4Zm-2.4-.183a3.6,3.6,0,0,0-.432-1.994,1.458,1.458,0,0,0-1.287-.628,1.582,1.582,0,0,0-1.577.94v3.556a1.6,1.6,0,0,0,1.594.949,1.482,1.482,0,0,0,1.527-1.149,5.945,5.945,0,0,0,.175-1.674" fill="#fff"/>
          <rect id="Rectángulo_43495" data-name="Rectángulo 43495" width="2.407" height="12.75" transform="translate(545.851 0.174)" fill="#fff"/>
          <path id="Trazado_208403" data-name="Trazado 208403" d="M554.367,13.09a4.407,4.407,0,0,1-3.216-1.212,4.306,4.306,0,0,1-1.242-3.229V8.416A5.421,5.421,0,0,1,550.433,6a3.829,3.829,0,0,1,1.481-1.643,4.155,4.155,0,0,1,2.188-.578A3.725,3.725,0,0,1,557,4.939a4.718,4.718,0,0,1,1.059,3.3v.979h-5.719a2.227,2.227,0,0,0,.7,1.412,2.121,2.121,0,0,0,1.482.531,2.591,2.591,0,0,0,2.167-1.005l1.178,1.32a3.591,3.591,0,0,1-1.461,1.191,4.793,4.793,0,0,1-2.042.428m-.274-7.379a1.5,1.5,0,0,0-1.158.483,2.507,2.507,0,0,0-.569,1.384H555.7V7.387a1.781,1.781,0,0,0-.431-1.239,1.549,1.549,0,0,0-1.179-.437" fill="#fff"/>
          <path id="Trazado_208404" data-name="Trazado 208404" d="M564.287,10.441a.771.771,0,0,0-.436-.692,4.934,4.934,0,0,0-1.4-.453q-3.206-.673-3.2-2.722a2.467,2.467,0,0,1,.992-2,4,4,0,0,1,2.594-.8,4.3,4.3,0,0,1,2.735.806,2.536,2.536,0,0,1,1.025,2.091h-2.4a1.162,1.162,0,0,0-.332-.851,1.407,1.407,0,0,0-1.038-.336,1.441,1.441,0,0,0-.937.273.866.866,0,0,0-.332.7.74.74,0,0,0,.377.643,3.878,3.878,0,0,0,1.274.424,10.478,10.478,0,0,1,1.511.4,2.483,2.483,0,0,1,1.9,2.415,2.343,2.343,0,0,1-1.055,1.989,4.54,4.54,0,0,1-2.722.759,4.737,4.737,0,0,1-2-.4,3.364,3.364,0,0,1-1.374-1.1,2.567,2.567,0,0,1-.5-1.515h2.274a1.251,1.251,0,0,0,.473.979,1.876,1.876,0,0,0,1.178.341,1.746,1.746,0,0,0,1.042-.261.814.814,0,0,0,.353-.686" fill="#fff"/>
        </g>
      </g>
      <path id="Trazado_208405" data-name="Trazado 208405" d="M386.422,226.342h-1.508l-5.726-8.766v8.766H377.68V214.967h1.508l5.742,8.8v-8.8h1.492Z" fill="#12263f"/>
      <g id="Grupo_152397" data-name="Grupo 152397">
        <g id="Grupo_152396" data-name="Grupo 152396" clip-path="url(#clip-path-4)">
          <path id="Trazado_208406" data-name="Trazado 208406" d="M388.477,222.037a4.984,4.984,0,0,1,.488-2.234,3.641,3.641,0,0,1,1.36-1.532,3.7,3.7,0,0,1,1.988-.539,3.565,3.565,0,0,1,2.793,1.2,4.6,4.6,0,0,1,1.066,3.179v.1a5.05,5.05,0,0,1-.472,2.215,3.6,3.6,0,0,1-1.352,1.527,3.748,3.748,0,0,1-2.02.547,3.555,3.555,0,0,1-2.785-1.2,4.576,4.576,0,0,1-1.066-3.164Zm1.453.172a3.618,3.618,0,0,0,.652,2.258,2.211,2.211,0,0,0,3.5-.012,3.95,3.95,0,0,0,.649-2.418,3.61,3.61,0,0,0-.66-2.254,2.1,2.1,0,0,0-1.754-.863,2.078,2.078,0,0,0-1.727.851,3.929,3.929,0,0,0-.656,2.438" fill="#12263f"/>
          <path id="Trazado_208407" data-name="Trazado 208407" d="M402.07,219.185a4.386,4.386,0,0,0-.711-.055,1.906,1.906,0,0,0-1.93,1.211v6h-1.445v-8.453h1.406l.024.977a2.249,2.249,0,0,1,2.015-1.133,1.476,1.476,0,0,1,.641.109Z" fill="#12263f"/>
          <path id="Trazado_208408" data-name="Trazado 208408" d="M404.758,217.889l.039.937a3.122,3.122,0,0,1,2.508-1.093,2.417,2.417,0,0,1,2.414,1.359,3.2,3.2,0,0,1,1.1-.984,3.24,3.24,0,0,1,1.6-.375q2.781,0,2.828,2.945v5.664H413.8v-5.578a1.939,1.939,0,0,0-.414-1.355,1.822,1.822,0,0,0-1.391-.45,1.914,1.914,0,0,0-1.336.481,1.947,1.947,0,0,0-.617,1.293v5.609h-1.453V220.8a1.613,1.613,0,0,0-1.8-1.844,1.934,1.934,0,0,0-1.945,1.211v6.172h-1.445v-8.453Z" fill="#12263f"/>
          <path id="Trazado_208409" data-name="Trazado 208409" d="M422.64,226.342a3.052,3.052,0,0,1-.2-.891,3.225,3.225,0,0,1-2.406,1.047,2.987,2.987,0,0,1-2.051-.707,2.29,2.29,0,0,1-.8-1.793,2.391,2.391,0,0,1,1-2.051,4.734,4.734,0,0,1,2.825-.73h1.406v-.664a1.627,1.627,0,0,0-.453-1.208,1.824,1.824,0,0,0-1.336-.449,2.1,2.1,0,0,0-1.3.391,1.15,1.15,0,0,0-.523.945h-1.454a1.99,1.99,0,0,1,.45-1.222,3.053,3.053,0,0,1,1.218-.934,4.088,4.088,0,0,1,1.692-.344,3.338,3.338,0,0,1,2.289.731,2.634,2.634,0,0,1,.859,2.011v3.891a4.756,4.756,0,0,0,.3,1.852v.125Zm-2.4-1.1a2.534,2.534,0,0,0,1.289-.352,2.13,2.13,0,0,0,.883-.914V222.24h-1.133q-2.656,0-2.656,1.555a1.315,1.315,0,0,0,.453,1.062,1.742,1.742,0,0,0,1.164.383" fill="#12263f"/>
          <rect id="Rectángulo_43497" data-name="Rectángulo 43497" width="1.445" height="12" transform="translate(426.25 214.342)" fill="#12263f"/>
          <path id="Trazado_208410" data-name="Trazado 208410" d="M430.016,215.646a.861.861,0,0,1,.214-.593.807.807,0,0,1,.637-.243.819.819,0,0,1,.641.243.856.856,0,0,1,.219.593.828.828,0,0,1-.219.586.837.837,0,0,1-.641.235.824.824,0,0,1-.637-.235.833.833,0,0,1-.214-.586m1.562,10.7h-1.445v-8.453h1.445Z" fill="#12263f"/>
          <path id="Trazado_208411" data-name="Trazado 208411" d="M435.25,225.162h4.945v1.18h-6.711v-1.063l4.664-6.195h-4.593v-1.195h6.406v1.023Z" fill="#12263f"/>
          <path id="Trazado_208412" data-name="Trazado 208412" d="M447.039,226.342a3.052,3.052,0,0,1-.2-.891,3.225,3.225,0,0,1-2.406,1.047,2.987,2.987,0,0,1-2.051-.707,2.29,2.29,0,0,1-.8-1.793,2.391,2.391,0,0,1,1-2.051,4.734,4.734,0,0,1,2.825-.73h1.406v-.664a1.627,1.627,0,0,0-.453-1.208,1.824,1.824,0,0,0-1.336-.449,2.1,2.1,0,0,0-1.3.391,1.15,1.15,0,0,0-.523.945H441.75a1.99,1.99,0,0,1,.45-1.222,3.052,3.052,0,0,1,1.218-.934,4.088,4.088,0,0,1,1.692-.344,3.338,3.338,0,0,1,2.289.731,2.634,2.634,0,0,1,.859,2.011v3.891a4.756,4.756,0,0,0,.3,1.852v.125Zm-2.4-1.1a2.534,2.534,0,0,0,1.289-.352,2.13,2.13,0,0,0,.883-.914V222.24H445.68q-2.656,0-2.656,1.555a1.315,1.315,0,0,0,.453,1.062,1.742,1.742,0,0,0,1.164.383" fill="#12263f"/>
          <path id="Trazado_208413" data-name="Trazado 208413" d="M450.172,222.045a4.949,4.949,0,0,1,.922-3.129,3.135,3.135,0,0,1,4.765-.168v-4.406H457.3v12h-1.328l-.07-.906a2.944,2.944,0,0,1-2.414,1.062,2.889,2.889,0,0,1-2.4-1.2,5.01,5.01,0,0,1-.925-3.141Zm1.445.164a3.75,3.75,0,0,0,.594,2.25,1.917,1.917,0,0,0,1.64.813,2.109,2.109,0,0,0,2.008-1.235v-3.883a2.123,2.123,0,0,0-1.992-1.2,1.927,1.927,0,0,0-1.656.82,4.128,4.128,0,0,0-.594,2.43" fill="#12263f"/>
          <path id="Trazado_208414" data-name="Trazado 208414" d="M459.164,222.037a4.984,4.984,0,0,1,.488-2.234,3.64,3.64,0,0,1,1.36-1.532,3.7,3.7,0,0,1,1.988-.539,3.565,3.565,0,0,1,2.793,1.2,4.6,4.6,0,0,1,1.066,3.179v.1a5.05,5.05,0,0,1-.472,2.215,3.6,3.6,0,0,1-1.352,1.527,3.748,3.748,0,0,1-2.02.547,3.555,3.555,0,0,1-2.785-1.2,4.576,4.576,0,0,1-1.066-3.164Zm1.453.172a3.618,3.618,0,0,0,.652,2.258,2.211,2.211,0,0,0,3.5-.012,3.95,3.95,0,0,0,.649-2.418,3.61,3.61,0,0,0-.66-2.254A2.1,2.1,0,0,0,463,218.92a2.078,2.078,0,0,0-1.727.851,3.929,3.929,0,0,0-.656,2.438" fill="#12263f"/>
          <path id="Trazado_208415" data-name="Trazado 208415" d="M473.594,224.1a1.063,1.063,0,0,0-.441-.91,4.276,4.276,0,0,0-1.539-.559,7.265,7.265,0,0,1-1.743-.562,2.489,2.489,0,0,1-.953-.782,1.863,1.863,0,0,1-.308-1.078,2.192,2.192,0,0,1,.879-1.757,3.425,3.425,0,0,1,2.246-.719,3.533,3.533,0,0,1,2.332.742,2.358,2.358,0,0,1,.894,1.9h-1.453a1.3,1.3,0,0,0-.5-1.023,1.89,1.89,0,0,0-1.269-.43,1.977,1.977,0,0,0-1.235.344,1.081,1.081,0,0,0-.445.9.878.878,0,0,0,.414.79,5.11,5.11,0,0,0,1.5.507,7.881,7.881,0,0,1,1.754.578,2.558,2.558,0,0,1,1,.809,1.99,1.99,0,0,1,.324,1.152,2.165,2.165,0,0,1-.906,1.817,3.8,3.8,0,0,1-2.351.683,4.261,4.261,0,0,1-1.8-.359,2.914,2.914,0,0,1-1.223-1,2.42,2.42,0,0,1-.441-1.394h1.445a1.5,1.5,0,0,0,.582,1.152,2.258,2.258,0,0,0,1.434.426,2.335,2.335,0,0,0,1.316-.332,1.023,1.023,0,0,0,.5-.887" fill="#12263f"/>
        </g>
      </g>
      <path id="Trazado_208416" data-name="Trazado 208416" d="M384.109,243.084h-4.93v4.031h5.727v1.227h-7.227V236.967h7.149v1.226h-5.649v3.664h4.93Z" fill="#12263f"/>
      <path id="Trazado_208417" data-name="Trazado 208417" d="M388.711,236.967l3.719,9.281,3.718-9.281h1.946v11.375h-1.5v-4.43l.14-4.781L393,248.342h-1.148l-3.727-9.187.149,4.757v4.43h-1.5V236.967Z" fill="#12263f"/>
      <path id="Trazado_208418" data-name="Trazado 208418" d="M407.164,245.366H402.4l-1.07,2.976h-1.547l4.343-11.375h1.313l4.351,11.375H408.25Zm-4.312-1.227h3.867l-1.937-5.32Z" fill="#12263f"/>
      <g id="Grupo_152399" data-name="Grupo 152399">
        <g id="Grupo_152398" data-name="Grupo 152398" clip-path="url(#clip-path-4)">
          <path id="Trazado_208419" data-name="Trazado 208419" d="M414.672,243.271a7.056,7.056,0,0,1-2.809-1.363,2.6,2.6,0,0,1-.879-2,2.75,2.75,0,0,1,1.075-2.223,4.268,4.268,0,0,1,2.793-.879,4.666,4.666,0,0,1,2.09.453,3.441,3.441,0,0,1,1.421,1.25,3.2,3.2,0,0,1,.5,1.742H417.36a2.081,2.081,0,0,0-.657-1.627,2.669,2.669,0,0,0-1.851-.591,2.734,2.734,0,0,0-1.731.489,1.63,1.63,0,0,0-.621,1.357,1.467,1.467,0,0,0,.59,1.179,5.794,5.794,0,0,0,2.008.88,9.351,9.351,0,0,1,2.219.88,3.372,3.372,0,0,1,1.187,1.121,2.861,2.861,0,0,1,.387,1.508,2.66,2.66,0,0,1-1.078,2.215,4.6,4.6,0,0,1-2.883.832,5.342,5.342,0,0,1-2.188-.45,3.681,3.681,0,0,1-1.566-1.23,3.005,3.005,0,0,1-.551-1.774h1.508a1.958,1.958,0,0,0,.762,1.629,3.2,3.2,0,0,0,2.035.6,2.948,2.948,0,0,0,1.82-.484,1.575,1.575,0,0,0,.633-1.321,1.544,1.544,0,0,0-.586-1.293,6.78,6.78,0,0,0-2.125-.9" fill="#12263f"/>
        </g>
      </g>
      <path id="Trazado_208420" data-name="Trazado 208420" d="M17.453,221.318H12.68v5.023h-1.5V214.966h7.046v1.227H12.68v3.9h4.773Z" fill="#12263f"/>
      <g id="Grupo_152401" data-name="Grupo 152401">
        <g id="Grupo_152400" data-name="Grupo 152400" clip-path="url(#clip-path-4)">
          <path id="Trazado_208421" data-name="Trazado 208421" d="M19.25,222.037a4.984,4.984,0,0,1,.488-2.234,3.641,3.641,0,0,1,1.36-1.532,3.7,3.7,0,0,1,1.988-.539,3.565,3.565,0,0,1,2.793,1.2,4.6,4.6,0,0,1,1.066,3.179v.1a5.05,5.05,0,0,1-.472,2.215,3.6,3.6,0,0,1-1.352,1.527,3.748,3.748,0,0,1-2.02.547,3.555,3.555,0,0,1-2.785-1.2,4.576,4.576,0,0,1-1.066-3.164Zm1.453.172a3.618,3.618,0,0,0,.652,2.258,2.211,2.211,0,0,0,3.5-.012,3.95,3.95,0,0,0,.649-2.418,3.61,3.61,0,0,0-.66-2.254,2.1,2.1,0,0,0-1.754-.863,2.078,2.078,0,0,0-1.727.851,3.929,3.929,0,0,0-.656,2.438" fill="#12263f"/>
          <path id="Trazado_208422" data-name="Trazado 208422" d="M32.844,219.185a4.386,4.386,0,0,0-.711-.055,1.906,1.906,0,0,0-1.93,1.211v6H28.758v-8.453h1.406l.024.977a2.249,2.249,0,0,1,2.015-1.133,1.476,1.476,0,0,1,.641.109Z" fill="#12263f"/>
          <path id="Trazado_208423" data-name="Trazado 208423" d="M35.531,217.889l.039.937a3.122,3.122,0,0,1,2.508-1.093,2.417,2.417,0,0,1,2.414,1.359,3.2,3.2,0,0,1,1.1-.984,3.24,3.24,0,0,1,1.6-.375q2.781,0,2.828,2.945v5.664H44.57v-5.578a1.939,1.939,0,0,0-.414-1.355,1.822,1.822,0,0,0-1.391-.45,1.914,1.914,0,0,0-1.336.481,1.947,1.947,0,0,0-.617,1.293v5.609H39.359V220.8a1.613,1.613,0,0,0-1.805-1.844,1.934,1.934,0,0,0-1.945,1.211v6.172H34.164v-8.453Z" fill="#12263f"/>
          <path id="Trazado_208424" data-name="Trazado 208424" d="M53.414,226.342a3.052,3.052,0,0,1-.2-.891,3.225,3.225,0,0,1-2.406,1.047,2.987,2.987,0,0,1-2.051-.707,2.29,2.29,0,0,1-.8-1.793,2.391,2.391,0,0,1,1-2.051,4.734,4.734,0,0,1,2.825-.73h1.406v-.664a1.627,1.627,0,0,0-.453-1.208A1.824,1.824,0,0,0,51.4,218.9a2.1,2.1,0,0,0-1.3.391,1.15,1.15,0,0,0-.523.945H48.125a1.99,1.99,0,0,1,.45-1.222,3.052,3.052,0,0,1,1.218-.934,4.088,4.088,0,0,1,1.692-.344,3.338,3.338,0,0,1,2.289.731,2.634,2.634,0,0,1,.859,2.011v3.891a4.756,4.756,0,0,0,.3,1.852v.125Zm-2.4-1.1a2.534,2.534,0,0,0,1.289-.352,2.13,2.13,0,0,0,.883-.914V222.24H52.055q-2.656,0-2.656,1.555a1.315,1.315,0,0,0,.453,1.062,1.742,1.742,0,0,0,1.164.383" fill="#12263f"/>
          <rect id="Rectángulo_43500" data-name="Rectángulo 43500" width="1.445" height="12" transform="translate(57.024 214.342)" fill="#12263f"/>
          <path id="Trazado_208425" data-name="Trazado 208425" d="M64.289,226.5a3.692,3.692,0,0,1-2.8-1.129,4.189,4.189,0,0,1-1.078-3.019v-.266a5.075,5.075,0,0,1,.48-2.246,3.74,3.74,0,0,1,1.344-1.547,3.379,3.379,0,0,1,1.871-.558,3.17,3.17,0,0,1,2.563,1.085,4.706,4.706,0,0,1,.914,3.11v.6H61.859a3.008,3.008,0,0,0,.73,2.02,2.3,2.3,0,0,0,1.778.769,2.524,2.524,0,0,0,1.3-.312,3.241,3.241,0,0,0,.929-.828l.883.687a3.548,3.548,0,0,1-3.187,1.633m-.18-7.578a1.928,1.928,0,0,0-1.469.637,3.1,3.1,0,0,0-.734,1.785H66.14v-.109a2.752,2.752,0,0,0-.594-1.708,1.816,1.816,0,0,0-1.437-.6" fill="#12263f"/>
          <path id="Trazado_208426" data-name="Trazado 208426" d="M74.18,224.1a1.063,1.063,0,0,0-.441-.91,4.276,4.276,0,0,0-1.539-.559,7.265,7.265,0,0,1-1.743-.562,2.489,2.489,0,0,1-.953-.782,1.863,1.863,0,0,1-.308-1.078,2.192,2.192,0,0,1,.879-1.757,3.425,3.425,0,0,1,2.246-.719,3.533,3.533,0,0,1,2.332.742,2.358,2.358,0,0,1,.894,1.9H74.094a1.3,1.3,0,0,0-.5-1.023,1.89,1.89,0,0,0-1.269-.43,1.977,1.977,0,0,0-1.235.344,1.081,1.081,0,0,0-.445.9.878.878,0,0,0,.414.79,5.11,5.11,0,0,0,1.5.507,7.882,7.882,0,0,1,1.754.578,2.558,2.558,0,0,1,1,.809A1.99,1.99,0,0,1,75.625,224a2.165,2.165,0,0,1-.906,1.817,3.8,3.8,0,0,1-2.351.683,4.261,4.261,0,0,1-1.8-.359,2.914,2.914,0,0,1-1.223-1,2.42,2.42,0,0,1-.441-1.394h1.445a1.5,1.5,0,0,0,.582,1.152,2.258,2.258,0,0,0,1.434.426,2.335,2.335,0,0,0,1.316-.332,1.023,1.023,0,0,0,.5-.887" fill="#12263f"/>
        </g>
      </g>
      <path id="Trazado_208427" data-name="Trazado 208427" d="M17.453,243.318H12.68v5.023h-1.5V236.966h7.046v1.227H12.68v3.9h4.773Z" fill="#12263f"/>
      <g id="Grupo_152403" data-name="Grupo 152403">
        <g id="Grupo_152402" data-name="Grupo 152402" clip-path="url(#clip-path-4)">
          <path id="Trazado_208428" data-name="Trazado 208428" d="M24.75,248.342a3.052,3.052,0,0,1-.2-.891,3.225,3.225,0,0,1-2.406,1.047,2.987,2.987,0,0,1-2.051-.707,2.29,2.29,0,0,1-.8-1.793,2.391,2.391,0,0,1,1-2.051,4.734,4.734,0,0,1,2.825-.73h1.406v-.664a1.627,1.627,0,0,0-.453-1.208,1.824,1.824,0,0,0-1.336-.449,2.1,2.1,0,0,0-1.3.391,1.15,1.15,0,0,0-.523.945H19.461a1.99,1.99,0,0,1,.45-1.222,3.053,3.053,0,0,1,1.218-.934,4.088,4.088,0,0,1,1.692-.344,3.338,3.338,0,0,1,2.289.731,2.634,2.634,0,0,1,.859,2.011v3.891a4.756,4.756,0,0,0,.3,1.852v.125Zm-2.4-1.1a2.534,2.534,0,0,0,1.289-.352,2.13,2.13,0,0,0,.883-.914V244.24H23.391q-2.656,0-2.656,1.555a1.315,1.315,0,0,0,.453,1.062,1.742,1.742,0,0,0,1.164.383" fill="#12263f"/>
          <path id="Trazado_208429" data-name="Trazado 208429" d="M29.594,239.889l.039.937a3.122,3.122,0,0,1,2.508-1.093,2.417,2.417,0,0,1,2.414,1.359,3.2,3.2,0,0,1,1.1-.984,3.24,3.24,0,0,1,1.6-.375q2.781,0,2.828,2.945v5.664H38.633v-5.578a1.939,1.939,0,0,0-.414-1.355,1.822,1.822,0,0,0-1.391-.45,1.914,1.914,0,0,0-1.336.481,1.947,1.947,0,0,0-.617,1.293v5.609H33.422V242.8a1.613,1.613,0,0,0-1.805-1.844,1.934,1.934,0,0,0-1.945,1.211v6.172H28.227v-8.453Z" fill="#12263f"/>
          <path id="Trazado_208430" data-name="Trazado 208430" d="M42.266,237.646a.861.861,0,0,1,.214-.593.807.807,0,0,1,.637-.243.819.819,0,0,1,.641.243.856.856,0,0,1,.219.593.828.828,0,0,1-.219.586.837.837,0,0,1-.641.235.824.824,0,0,1-.637-.235.833.833,0,0,1-.214-.586m1.562,10.7H42.383v-8.453h1.445Z" fill="#12263f"/>
          <rect id="Rectángulo_43502" data-name="Rectángulo 43502" width="1.445" height="12" transform="translate(46.266 236.342)" fill="#12263f"/>
          <path id="Trazado_208431" data-name="Trazado 208431" d="M50.031,237.646a.862.862,0,0,1,.215-.593.806.806,0,0,1,.637-.243.817.817,0,0,1,.64.243.851.851,0,0,1,.219.593.824.824,0,0,1-.219.586.834.834,0,0,1-.64.235.823.823,0,0,1-.637-.235.834.834,0,0,1-.215-.586m1.563,10.7H50.149v-8.453h1.445Z" fill="#12263f"/>
          <path id="Trazado_208432" data-name="Trazado 208432" d="M59.125,248.342a3.052,3.052,0,0,1-.2-.891,3.225,3.225,0,0,1-2.406,1.047,2.987,2.987,0,0,1-2.051-.707,2.29,2.29,0,0,1-.8-1.793,2.391,2.391,0,0,1,1-2.051,4.734,4.734,0,0,1,2.825-.73H58.9v-.664a1.627,1.627,0,0,0-.453-1.208,1.824,1.824,0,0,0-1.336-.449,2.1,2.1,0,0,0-1.3.391,1.15,1.15,0,0,0-.523.945H53.836a1.99,1.99,0,0,1,.45-1.222,3.053,3.053,0,0,1,1.218-.934,4.088,4.088,0,0,1,1.692-.344,3.338,3.338,0,0,1,2.289.731,2.634,2.634,0,0,1,.859,2.011v3.891a4.756,4.756,0,0,0,.3,1.852v.125Zm-2.4-1.1a2.534,2.534,0,0,0,1.289-.352,2.13,2.13,0,0,0,.883-.914V244.24H57.766q-2.656,0-2.656,1.555a1.315,1.315,0,0,0,.453,1.062,1.742,1.742,0,0,0,1.164.383" fill="#12263f"/>
          <path id="Trazado_208433" data-name="Trazado 208433" d="M66.219,244.045a4.949,4.949,0,0,1,.922-3.129,3.135,3.135,0,0,1,4.765-.168v-4.406h1.445v12H72.023l-.07-.906a2.944,2.944,0,0,1-2.414,1.062,2.889,2.889,0,0,1-2.4-1.2,5.009,5.009,0,0,1-.925-3.141Zm1.445.164a3.749,3.749,0,0,0,.594,2.25,1.917,1.917,0,0,0,1.64.813,2.109,2.109,0,0,0,2.008-1.235v-3.883a2.123,2.123,0,0,0-1.992-1.2,1.927,1.927,0,0,0-1.656.82,4.128,4.128,0,0,0-.594,2.43" fill="#12263f"/>
          <path id="Trazado_208434" data-name="Trazado 208434" d="M79.1,248.5a3.692,3.692,0,0,1-2.8-1.129,4.189,4.189,0,0,1-1.078-3.019v-.266a5.075,5.075,0,0,1,.48-2.246,3.74,3.74,0,0,1,1.344-1.547,3.379,3.379,0,0,1,1.871-.558,3.17,3.17,0,0,1,2.563,1.085,4.706,4.706,0,0,1,.914,3.11v.6H76.672a3.008,3.008,0,0,0,.73,2.02,2.3,2.3,0,0,0,1.778.769,2.524,2.524,0,0,0,1.3-.312,3.241,3.241,0,0,0,.929-.828l.883.687A3.548,3.548,0,0,1,79.1,248.5m-.18-7.578a1.928,1.928,0,0,0-1.469.637,3.1,3.1,0,0,0-.734,1.785h4.234v-.109a2.752,2.752,0,0,0-.594-1.708,1.816,1.816,0,0,0-1.437-.6" fill="#12263f"/>
          <rect id="Rectángulo_43503" data-name="Rectángulo 43503" width="1.445" height="12" transform="translate(88.157 236.342)" fill="#12263f"/>
          <path id="Trazado_208435" data-name="Trazado 208435" d="M97.132,248.342a3.052,3.052,0,0,1-.2-.891,3.225,3.225,0,0,1-2.406,1.047,2.987,2.987,0,0,1-2.051-.707,2.29,2.29,0,0,1-.8-1.793,2.391,2.391,0,0,1,1-2.051,4.734,4.734,0,0,1,2.825-.73h1.406v-.664a1.627,1.627,0,0,0-.453-1.208,1.824,1.824,0,0,0-1.336-.449,2.1,2.1,0,0,0-1.3.391,1.15,1.15,0,0,0-.523.945H91.843a1.99,1.99,0,0,1,.45-1.222,3.053,3.053,0,0,1,1.218-.934,4.088,4.088,0,0,1,1.692-.344,3.338,3.338,0,0,1,2.289.731,2.634,2.634,0,0,1,.859,2.011v3.891a4.756,4.756,0,0,0,.3,1.852v.125Zm-2.4-1.1a2.534,2.534,0,0,0,1.289-.352,2.13,2.13,0,0,0,.883-.914V244.24H95.773q-2.657,0-2.656,1.555a1.315,1.315,0,0,0,.453,1.062,1.742,1.742,0,0,0,1.164.383" fill="#12263f"/>
          <path id="Trazado_208436" data-name="Trazado 208436" d="M105.539,246.1a1.063,1.063,0,0,0-.441-.91,4.276,4.276,0,0,0-1.539-.559,7.265,7.265,0,0,1-1.743-.562,2.489,2.489,0,0,1-.953-.782,1.863,1.863,0,0,1-.308-1.078,2.192,2.192,0,0,1,.879-1.757,3.425,3.425,0,0,1,2.246-.719,3.533,3.533,0,0,1,2.332.742,2.358,2.358,0,0,1,.894,1.9h-1.453a1.3,1.3,0,0,0-.5-1.023,1.89,1.89,0,0,0-1.269-.43,1.977,1.977,0,0,0-1.235.344,1.081,1.081,0,0,0-.445.9.878.878,0,0,0,.414.79,5.11,5.11,0,0,0,1.5.507,7.882,7.882,0,0,1,1.754.578,2.558,2.558,0,0,1,1,.809,1.99,1.99,0,0,1,.324,1.152,2.165,2.165,0,0,1-.906,1.817,3.8,3.8,0,0,1-2.351.683,4.261,4.261,0,0,1-1.8-.359,2.914,2.914,0,0,1-1.223-1,2.42,2.42,0,0,1-.441-1.394h1.445a1.5,1.5,0,0,0,.582,1.152,2.258,2.258,0,0,0,1.434.426,2.335,2.335,0,0,0,1.316-.332,1.023,1.023,0,0,0,.5-.887" fill="#12263f"/>
          <rect id="Rectángulo_43504" data-name="Rectángulo 43504" width="1.5" height="11.375" transform="translate(113.164 236.967)" fill="#12263f"/>
          <path id="Trazado_208437" data-name="Trazado 208437" d="M120.758,243.271a7.056,7.056,0,0,1-2.809-1.363,2.6,2.6,0,0,1-.879-2,2.75,2.75,0,0,1,1.075-2.223,4.268,4.268,0,0,1,2.793-.879,4.666,4.666,0,0,1,2.09.453,3.441,3.441,0,0,1,1.421,1.25,3.2,3.2,0,0,1,.5,1.742h-1.507a2.081,2.081,0,0,0-.657-1.627,2.669,2.669,0,0,0-1.851-.591,2.734,2.734,0,0,0-1.731.489,1.63,1.63,0,0,0-.621,1.357,1.467,1.467,0,0,0,.59,1.179,5.794,5.794,0,0,0,2.008.88,9.351,9.351,0,0,1,2.219.88,3.372,3.372,0,0,1,1.187,1.121,2.861,2.861,0,0,1,.387,1.508,2.66,2.66,0,0,1-1.078,2.215,4.6,4.6,0,0,1-2.883.832,5.342,5.342,0,0,1-2.188-.45,3.681,3.681,0,0,1-1.566-1.23,3.005,3.005,0,0,1-.551-1.774h1.508a1.958,1.958,0,0,0,.762,1.629,3.2,3.2,0,0,0,2.035.6,2.948,2.948,0,0,0,1.82-.484,1.575,1.575,0,0,0,.633-1.321,1.544,1.544,0,0,0-.586-1.293,6.78,6.78,0,0,0-2.125-.9" fill="#12263f"/>
          <path id="Trazado_208438" data-name="Trazado 208438" d="M135.648,243.021a7.036,7.036,0,0,1-.562,2.918,4.267,4.267,0,0,1-1.594,1.9,4.391,4.391,0,0,1-2.406.656,4.242,4.242,0,0,1-4-2.543,6.742,6.742,0,0,1-.59-2.832v-.82a6.96,6.96,0,0,1,.57-2.9,4.217,4.217,0,0,1,4-2.594,4.4,4.4,0,0,1,2.41.661,4.249,4.249,0,0,1,1.606,1.914,7.069,7.069,0,0,1,.562,2.918Zm-1.492-.734a5.1,5.1,0,0,0-.812-3.1,2.68,2.68,0,0,0-2.274-1.082,2.648,2.648,0,0,0-2.238,1.082,4.99,4.99,0,0,0-.84,3v.836a5.1,5.1,0,0,0,.824,3.082,2.889,2.889,0,0,0,4.52.063,5.085,5.085,0,0,0,.82-3.035Z" fill="#12263f"/>
          <path id="Trazado_208439" data-name="Trazado 208439" d="M146.234,248.342h-1.453v-9.633l-2.914,1.07v-1.312l4.14-1.555h.227Z" fill="#12263f"/>
          <path id="Trazado_208440" data-name="Trazado 208440" d="M156.57,244.521h1.578v1.18H156.57v2.64h-1.453V245.7h-5.18v-.852l5.094-7.883h1.539Zm-4.992,0h3.539v-5.578l-.172.312Z" fill="#12263f"/>
          <path id="Trazado_208441" data-name="Trazado 208441" d="M166.586,243.491a6.612,6.612,0,0,1-.867,3.773,3.6,3.6,0,0,1-5.406.027,6.259,6.259,0,0,1-.906-3.6v-1.93a6.461,6.461,0,0,1,.867-3.726,3.668,3.668,0,0,1,5.422-.043,6.233,6.233,0,0,1,.89,3.629Zm-1.445-1.977a5.294,5.294,0,0,0-.516-2.676,1.775,1.775,0,0,0-1.632-.84,1.753,1.753,0,0,0-1.618.836,5.176,5.176,0,0,0-.523,2.571v2.312a5.378,5.378,0,0,0,.535,2.723,1.771,1.771,0,0,0,1.621.879,1.75,1.75,0,0,0,1.59-.828,5.2,5.2,0,0,0,.543-2.61Z" fill="#12263f"/>
          <path id="Trazado_208442" data-name="Trazado 208442" d="M175.57,243.491a6.612,6.612,0,0,1-.867,3.773,3.6,3.6,0,0,1-5.406.027,6.259,6.259,0,0,1-.906-3.6v-1.93a6.461,6.461,0,0,1,.867-3.726,3.668,3.668,0,0,1,5.422-.043,6.233,6.233,0,0,1,.89,3.629Zm-1.445-1.977a5.293,5.293,0,0,0-.516-2.676,1.775,1.775,0,0,0-1.632-.84,1.753,1.753,0,0,0-1.618.836,5.176,5.176,0,0,0-.523,2.571v2.312a5.378,5.378,0,0,0,.535,2.723,1.771,1.771,0,0,0,1.621.879,1.75,1.75,0,0,0,1.59-.828,5.2,5.2,0,0,0,.543-2.61Z" fill="#12263f"/>
          <path id="Trazado_208443" data-name="Trazado 208443" d="M184.554,243.491a6.612,6.612,0,0,1-.867,3.773,3.6,3.6,0,0,1-5.406.027,6.259,6.259,0,0,1-.906-3.6v-1.93a6.461,6.461,0,0,1,.867-3.726,3.668,3.668,0,0,1,5.422-.043,6.233,6.233,0,0,1,.89,3.629Zm-1.445-1.977a5.294,5.294,0,0,0-.516-2.676,1.775,1.775,0,0,0-1.632-.84,1.753,1.753,0,0,0-1.618.836,5.176,5.176,0,0,0-.523,2.571v2.312a5.378,5.378,0,0,0,.535,2.723,1.771,1.771,0,0,0,1.621.879,1.75,1.75,0,0,0,1.59-.828,5.2,5.2,0,0,0,.543-2.61Z" fill="#12263f"/>
        </g>
      </g>
      <rect id="Rectángulo_43506" data-name="Rectángulo 43506" width="1.5" height="11.375" transform="translate(735.289 208.292)" fill="#12263f"/>
      <g id="Grupo_152405" data-name="Grupo 152405">
        <g id="Grupo_152404" data-name="Grupo 152404" clip-path="url(#clip-path-4)">
          <path id="Trazado_208444" data-name="Trazado 208444" d="M740.672,211.214l.047,1.062a3.079,3.079,0,0,1,2.531-1.218q2.679,0,2.7,3.023v5.586h-1.445v-5.594a1.947,1.947,0,0,0-.418-1.351,1.673,1.673,0,0,0-1.277-.438,2.087,2.087,0,0,0-1.235.375,2.545,2.545,0,0,0-.828.985v6.023H739.3v-8.453Z" fill="#12263f"/>
          <path id="Trazado_208445" data-name="Trazado 208445" d="M748.844,219.667v-7.336h-1.336v-1.117h1.336v-.867a2.876,2.876,0,0,1,.727-2.1,2.742,2.742,0,0,1,2.054-.742,3.815,3.815,0,0,1,.992.132l-.078,1.165a4.139,4.139,0,0,0-.781-.071,1.407,1.407,0,0,0-1.086.412,1.67,1.67,0,0,0-.383,1.179v.894h1.8v1.117h-1.8v7.336Z" fill="#12263f"/>
          <path id="Trazado_208446" data-name="Trazado 208446" d="M753.3,215.362a4.983,4.983,0,0,1,.488-2.234,3.64,3.64,0,0,1,1.36-1.532,3.7,3.7,0,0,1,1.988-.539,3.565,3.565,0,0,1,2.793,1.2A4.6,4.6,0,0,1,761,215.432v.1a5.051,5.051,0,0,1-.472,2.215,3.6,3.6,0,0,1-1.352,1.527,3.749,3.749,0,0,1-2.02.547,3.555,3.555,0,0,1-2.785-1.195,4.576,4.576,0,0,1-1.066-3.164Zm1.453.172a3.618,3.618,0,0,0,.652,2.258,2.211,2.211,0,0,0,3.5-.012,3.95,3.95,0,0,0,.649-2.418,3.61,3.61,0,0,0-.66-2.254,2.1,2.1,0,0,0-1.754-.863,2.078,2.078,0,0,0-1.727.851,3.929,3.929,0,0,0-.656,2.438" fill="#12263f"/>
          <path id="Trazado_208447" data-name="Trazado 208447" d="M766.9,212.511a4.386,4.386,0,0,0-.711-.055,1.906,1.906,0,0,0-1.93,1.211v6h-1.445v-8.453h1.406l.024.977a2.249,2.249,0,0,1,2.015-1.133,1.476,1.476,0,0,1,.641.109Z" fill="#12263f"/>
          <path id="Trazado_208448" data-name="Trazado 208448" d="M769.586,211.214l.039.937a3.122,3.122,0,0,1,2.508-1.093,2.417,2.417,0,0,1,2.414,1.359,3.2,3.2,0,0,1,1.1-.984,3.239,3.239,0,0,1,1.6-.375q2.781,0,2.828,2.945v5.664h-1.445v-5.578a1.939,1.939,0,0,0-.414-1.355,1.823,1.823,0,0,0-1.391-.45,1.914,1.914,0,0,0-1.336.481,1.947,1.947,0,0,0-.617,1.293v5.609h-1.453v-5.539a1.613,1.613,0,0,0-1.8-1.844,1.934,1.934,0,0,0-1.945,1.211v6.172h-1.445v-8.453Z" fill="#12263f"/>
          <path id="Trazado_208449" data-name="Trazado 208449" d="M787.468,219.667a3.052,3.052,0,0,1-.2-.891,3.225,3.225,0,0,1-2.406,1.047,2.987,2.987,0,0,1-2.051-.707,2.29,2.29,0,0,1-.8-1.793,2.391,2.391,0,0,1,1-2.051,4.734,4.734,0,0,1,2.825-.73h1.406v-.664a1.627,1.627,0,0,0-.453-1.208,1.824,1.824,0,0,0-1.336-.449,2.1,2.1,0,0,0-1.3.391,1.15,1.15,0,0,0-.523.945h-1.454a1.99,1.99,0,0,1,.45-1.222,3.052,3.052,0,0,1,1.218-.934,4.088,4.088,0,0,1,1.692-.344,3.338,3.338,0,0,1,2.289.731,2.634,2.634,0,0,1,.859,2.011v3.891a4.756,4.756,0,0,0,.3,1.852v.125Zm-2.4-1.1a2.534,2.534,0,0,0,1.289-.352,2.13,2.13,0,0,0,.883-.914v-1.734h-1.133q-2.656,0-2.656,1.555a1.315,1.315,0,0,0,.453,1.062,1.742,1.742,0,0,0,1.164.383" fill="#12263f"/>
          <rect id="Rectángulo_43507" data-name="Rectángulo 43507" width="1.445" height="12" transform="translate(791.078 207.667)" fill="#12263f"/>
          <path id="Trazado_208450" data-name="Trazado 208450" d="M798.344,219.823a3.692,3.692,0,0,1-2.8-1.129,4.189,4.189,0,0,1-1.078-3.019v-.266a5.076,5.076,0,0,1,.48-2.246,3.74,3.74,0,0,1,1.344-1.547,3.379,3.379,0,0,1,1.871-.558,3.17,3.17,0,0,1,2.563,1.085,4.706,4.706,0,0,1,.914,3.11v.6h-5.727a3.008,3.008,0,0,0,.73,2.02,2.3,2.3,0,0,0,1.778.769,2.524,2.524,0,0,0,1.3-.312,3.241,3.241,0,0,0,.929-.828l.883.687a3.548,3.548,0,0,1-3.187,1.633m-.18-7.578a1.928,1.928,0,0,0-1.469.637,3.1,3.1,0,0,0-.734,1.785H800.2v-.109a2.752,2.752,0,0,0-.594-1.708,1.816,1.816,0,0,0-1.437-.605" fill="#12263f"/>
          <path id="Trazado_208451" data-name="Trazado 208451" d="M808.234,217.425a1.064,1.064,0,0,0-.441-.91,4.276,4.276,0,0,0-1.539-.559,7.264,7.264,0,0,1-1.743-.562,2.489,2.489,0,0,1-.953-.782,1.863,1.863,0,0,1-.308-1.078,2.192,2.192,0,0,1,.879-1.757,3.425,3.425,0,0,1,2.246-.719,3.532,3.532,0,0,1,2.332.742,2.358,2.358,0,0,1,.894,1.9h-1.453a1.3,1.3,0,0,0-.5-1.023,1.89,1.89,0,0,0-1.269-.43,1.977,1.977,0,0,0-1.235.344,1.081,1.081,0,0,0-.445.9.878.878,0,0,0,.414.79,5.109,5.109,0,0,0,1.5.507,7.882,7.882,0,0,1,1.754.578,2.558,2.558,0,0,1,1,.809,1.99,1.99,0,0,1,.324,1.152,2.165,2.165,0,0,1-.906,1.817,3.8,3.8,0,0,1-2.351.683,4.261,4.261,0,0,1-1.8-.359,2.915,2.915,0,0,1-1.223-1,2.42,2.42,0,0,1-.441-1.394h1.445a1.5,1.5,0,0,0,.582,1.152,2.258,2.258,0,0,0,1.434.426,2.335,2.335,0,0,0,1.316-.332,1.023,1.023,0,0,0,.5-.887" fill="#12263f"/>
          <path id="Trazado_208452" data-name="Trazado 208452" d="M736.68,235.214v4.453h-1.5V228.292h4.2a4.213,4.213,0,0,1,2.926.953,3.23,3.23,0,0,1,1.059,2.523,3.192,3.192,0,0,1-1.035,2.551,4.4,4.4,0,0,1-2.965.9Zm0-1.227h2.7a2.7,2.7,0,0,0,1.844-.567,2.075,2.075,0,0,0,.641-1.64,2.145,2.145,0,0,0-.641-1.628,2.526,2.526,0,0,0-1.758-.634H736.68Z" fill="#12263f"/>
          <path id="Trazado_208453" data-name="Trazado 208453" d="M749.133,232.511a4.386,4.386,0,0,0-.711-.055,1.906,1.906,0,0,0-1.93,1.211v6h-1.445v-8.453h1.406l.024.977a2.249,2.249,0,0,1,2.015-1.133,1.476,1.476,0,0,1,.641.109Z" fill="#12263f"/>
          <path id="Trazado_208454" data-name="Trazado 208454" d="M749.922,235.362a4.984,4.984,0,0,1,.488-2.234,3.64,3.64,0,0,1,1.36-1.532,3.7,3.7,0,0,1,1.988-.539,3.565,3.565,0,0,1,2.793,1.2,4.6,4.6,0,0,1,1.066,3.179v.1a5.051,5.051,0,0,1-.472,2.215,3.6,3.6,0,0,1-1.352,1.527,3.749,3.749,0,0,1-2.02.547,3.555,3.555,0,0,1-2.785-1.195,4.576,4.576,0,0,1-1.066-3.164Zm1.453.172a3.618,3.618,0,0,0,.652,2.258,2.211,2.211,0,0,0,3.5-.012,3.95,3.95,0,0,0,.649-2.418,3.61,3.61,0,0,0-.66-2.254,2.1,2.1,0,0,0-1.754-.863,2.078,2.078,0,0,0-1.727.851,3.929,3.929,0,0,0-.656,2.438" fill="#12263f"/>
          <path id="Trazado_208455" data-name="Trazado 208455" d="M759.086,235.37a4.974,4.974,0,0,1,.914-3.145,3.151,3.151,0,0,1,4.836-.074l.07-.937h1.32v8.25a3.441,3.441,0,0,1-.972,2.586,3.592,3.592,0,0,1-2.613.945,4.343,4.343,0,0,1-1.79-.391,3.075,3.075,0,0,1-1.335-1.07l.75-.867a2.826,2.826,0,0,0,2.273,1.148,2.217,2.217,0,0,0,1.645-.594,2.268,2.268,0,0,0,.589-1.671v-.727a2.969,2.969,0,0,1-2.367,1,2.886,2.886,0,0,1-2.4-1.195,5.224,5.224,0,0,1-.918-3.258m1.453.164a3.787,3.787,0,0,0,.586,2.246,1.905,1.905,0,0,0,1.641.817,2.117,2.117,0,0,0,2.007-1.243v-3.859a2.14,2.14,0,0,0-1.992-1.211,1.919,1.919,0,0,0-1.648.82,4.128,4.128,0,0,0-.594,2.43" fill="#12263f"/>
          <path id="Trazado_208456" data-name="Trazado 208456" d="M772.492,232.511a4.386,4.386,0,0,0-.711-.055,1.906,1.906,0,0,0-1.93,1.211v6h-1.445v-8.453h1.406l.024.977a2.249,2.249,0,0,1,2.015-1.133,1.476,1.476,0,0,1,.641.109Z" fill="#12263f"/>
          <path id="Trazado_208457" data-name="Trazado 208457" d="M778.726,239.667a3.052,3.052,0,0,1-.2-.891,3.225,3.225,0,0,1-2.406,1.047,2.987,2.987,0,0,1-2.051-.707,2.29,2.29,0,0,1-.8-1.793,2.391,2.391,0,0,1,1-2.051,4.734,4.734,0,0,1,2.825-.73H778.5v-.664a1.627,1.627,0,0,0-.453-1.208,1.824,1.824,0,0,0-1.336-.449,2.1,2.1,0,0,0-1.3.391,1.15,1.15,0,0,0-.523.945h-1.454a1.99,1.99,0,0,1,.45-1.222,3.052,3.052,0,0,1,1.218-.934,4.088,4.088,0,0,1,1.692-.344,3.338,3.338,0,0,1,2.289.731,2.634,2.634,0,0,1,.859,2.011v3.891a4.756,4.756,0,0,0,.3,1.852v.125Zm-2.4-1.1a2.534,2.534,0,0,0,1.289-.352,2.13,2.13,0,0,0,.883-.914v-1.734h-1.133q-2.656,0-2.656,1.555a1.315,1.315,0,0,0,.453,1.062,1.742,1.742,0,0,0,1.164.383" fill="#12263f"/>
          <path id="Trazado_208458" data-name="Trazado 208458" d="M783.57,231.214l.039.937a3.122,3.122,0,0,1,2.508-1.093,2.417,2.417,0,0,1,2.414,1.359,3.2,3.2,0,0,1,1.1-.984,3.239,3.239,0,0,1,1.6-.375q2.781,0,2.828,2.945v5.664h-1.445v-5.578a1.939,1.939,0,0,0-.414-1.355,1.823,1.823,0,0,0-1.391-.45,1.914,1.914,0,0,0-1.336.481,1.947,1.947,0,0,0-.617,1.293v5.609H787.4v-5.539a1.613,1.613,0,0,0-1.8-1.844,1.934,1.934,0,0,0-1.945,1.211v6.172H782.2v-8.453Z" fill="#12263f"/>
          <path id="Trazado_208459" data-name="Trazado 208459" d="M801.453,239.667a3.052,3.052,0,0,1-.2-.891,3.225,3.225,0,0,1-2.406,1.047,2.987,2.987,0,0,1-2.051-.707,2.289,2.289,0,0,1-.8-1.793,2.391,2.391,0,0,1,1-2.051,4.734,4.734,0,0,1,2.825-.73h1.406v-.664a1.627,1.627,0,0,0-.453-1.208,1.824,1.824,0,0,0-1.336-.449,2.1,2.1,0,0,0-1.3.391,1.15,1.15,0,0,0-.523.945h-1.454a1.99,1.99,0,0,1,.45-1.222,3.052,3.052,0,0,1,1.218-.934,4.088,4.088,0,0,1,1.692-.344,3.338,3.338,0,0,1,2.289.731,2.634,2.634,0,0,1,.859,2.011v3.891a4.756,4.756,0,0,0,.3,1.852v.125Zm-2.4-1.1a2.534,2.534,0,0,0,1.289-.352,2.13,2.13,0,0,0,.883-.914v-1.734h-1.133q-2.656,0-2.656,1.555a1.315,1.315,0,0,0,.453,1.062,1.742,1.742,0,0,0,1.164.383" fill="#12263f"/>
          <path id="Trazado_208460" data-name="Trazado 208460" d="M809.859,237.425a1.064,1.064,0,0,0-.441-.91,4.276,4.276,0,0,0-1.539-.559,7.264,7.264,0,0,1-1.743-.562,2.489,2.489,0,0,1-.953-.782,1.863,1.863,0,0,1-.308-1.078,2.192,2.192,0,0,1,.879-1.757,3.425,3.425,0,0,1,2.246-.719,3.532,3.532,0,0,1,2.332.742,2.358,2.358,0,0,1,.894,1.9h-1.453a1.3,1.3,0,0,0-.5-1.023,1.89,1.89,0,0,0-1.269-.43,1.977,1.977,0,0,0-1.235.344,1.081,1.081,0,0,0-.445.9.878.878,0,0,0,.414.79,5.109,5.109,0,0,0,1.5.507,7.882,7.882,0,0,1,1.754.578,2.558,2.558,0,0,1,1,.809,1.99,1.99,0,0,1,.324,1.152,2.165,2.165,0,0,1-.906,1.817,3.8,3.8,0,0,1-2.351.683,4.261,4.261,0,0,1-1.8-.359,2.915,2.915,0,0,1-1.223-1,2.42,2.42,0,0,1-.441-1.394h1.445a1.5,1.5,0,0,0,.582,1.152,2.258,2.258,0,0,0,1.434.426,2.335,2.335,0,0,0,1.316-.332,1.023,1.023,0,0,0,.5-.887" fill="#12263f"/>
          <path id="Trazado_208461" data-name="Trazado 208461" d="M817.156,228.971a.862.862,0,0,1,.215-.593.809.809,0,0,1,.637-.242.82.82,0,0,1,.64.242.851.851,0,0,1,.219.593.894.894,0,0,1-1.5.586.834.834,0,0,1-.215-.586m1.563,10.7h-1.445v-8.453h1.445Z" fill="#12263f"/>
          <path id="Trazado_208462" data-name="Trazado 208462" d="M822.4,231.214l.047,1.062a3.079,3.079,0,0,1,2.531-1.218q2.679,0,2.7,3.023v5.586h-1.445v-5.594a1.947,1.947,0,0,0-.418-1.351,1.672,1.672,0,0,0-1.277-.438,2.087,2.087,0,0,0-1.235.375,2.545,2.545,0,0,0-.828.985v6.023h-1.445v-8.453Z" fill="#12263f"/>
          <path id="Trazado_208463" data-name="Trazado 208463" d="M831.82,229.167v2.047H833.4v1.117H831.82v5.249a1.173,1.173,0,0,0,.211.763.89.89,0,0,0,.719.254,3.548,3.548,0,0,0,.687-.094v1.165a4.234,4.234,0,0,1-1.109.155,1.8,1.8,0,0,1-1.461-.586,2.516,2.516,0,0,1-.492-1.664v-5.242h-1.539v-1.117h1.539v-2.047Z" fill="#12263f"/>
          <path id="Trazado_208464" data-name="Trazado 208464" d="M838.594,239.823a3.692,3.692,0,0,1-2.8-1.129,4.189,4.189,0,0,1-1.078-3.019v-.266a5.076,5.076,0,0,1,.48-2.246,3.74,3.74,0,0,1,1.344-1.547,3.379,3.379,0,0,1,1.871-.558,3.17,3.17,0,0,1,2.563,1.085,4.706,4.706,0,0,1,.914,3.11v.6h-5.727a3.008,3.008,0,0,0,.73,2.02,2.3,2.3,0,0,0,1.778.769,2.524,2.524,0,0,0,1.3-.312,3.241,3.241,0,0,0,.929-.828l.883.687a3.548,3.548,0,0,1-3.187,1.633m-.18-7.578a1.928,1.928,0,0,0-1.469.637,3.1,3.1,0,0,0-.734,1.785h4.234v-.109a2.752,2.752,0,0,0-.594-1.708,1.816,1.816,0,0,0-1.437-.605" fill="#12263f"/>
          <path id="Trazado_208465" data-name="Trazado 208465" d="M847.648,232.511a4.386,4.386,0,0,0-.711-.055,1.906,1.906,0,0,0-1.93,1.211v6h-1.445v-8.453h1.406l.024.977a2.249,2.249,0,0,1,2.015-1.133,1.476,1.476,0,0,1,.641.109Z" fill="#12263f"/>
          <path id="Trazado_208466" data-name="Trazado 208466" d="M850.344,231.214l.047,1.062a3.079,3.079,0,0,1,2.531-1.218q2.679,0,2.7,3.023v5.586H854.18v-5.594a1.947,1.947,0,0,0-.418-1.351,1.673,1.673,0,0,0-1.277-.438,2.087,2.087,0,0,0-1.235.375,2.545,2.545,0,0,0-.828.985v6.023h-1.445v-8.453Z" fill="#12263f"/>
          <path id="Trazado_208467" data-name="Trazado 208467" d="M857.422,235.362a4.984,4.984,0,0,1,.488-2.234,3.64,3.64,0,0,1,1.36-1.532,3.7,3.7,0,0,1,1.988-.539,3.565,3.565,0,0,1,2.793,1.2,4.6,4.6,0,0,1,1.066,3.179v.1a5.051,5.051,0,0,1-.472,2.215,3.6,3.6,0,0,1-1.352,1.527,3.749,3.749,0,0,1-2.02.547,3.555,3.555,0,0,1-2.785-1.195,4.576,4.576,0,0,1-1.066-3.164Zm1.453.172a3.618,3.618,0,0,0,.652,2.258,2.211,2.211,0,0,0,3.5-.012,3.95,3.95,0,0,0,.649-2.418,3.61,3.61,0,0,0-.66-2.254,2.1,2.1,0,0,0-1.754-.863,2.078,2.078,0,0,0-1.727.851,3.929,3.929,0,0,0-.656,2.438" fill="#12263f"/>
          <path id="Trazado_208468" data-name="Trazado 208468" d="M871.852,237.425a1.063,1.063,0,0,0-.441-.91,4.276,4.276,0,0,0-1.539-.559,7.264,7.264,0,0,1-1.743-.562,2.489,2.489,0,0,1-.953-.782,1.862,1.862,0,0,1-.308-1.078,2.192,2.192,0,0,1,.879-1.757,3.425,3.425,0,0,1,2.246-.719,3.533,3.533,0,0,1,2.332.742,2.358,2.358,0,0,1,.894,1.9h-1.453a1.3,1.3,0,0,0-.5-1.023,1.89,1.89,0,0,0-1.269-.43,1.977,1.977,0,0,0-1.235.344,1.081,1.081,0,0,0-.445.9.878.878,0,0,0,.414.79,5.109,5.109,0,0,0,1.5.507,7.882,7.882,0,0,1,1.754.578,2.558,2.558,0,0,1,1,.809,1.99,1.99,0,0,1,.324,1.152,2.165,2.165,0,0,1-.906,1.817,3.8,3.8,0,0,1-2.351.683,4.261,4.261,0,0,1-1.8-.359,2.914,2.914,0,0,1-1.223-1,2.42,2.42,0,0,1-.441-1.394h1.445a1.5,1.5,0,0,0,.582,1.152,2.258,2.258,0,0,0,1.434.426,2.335,2.335,0,0,0,1.316-.332,1.023,1.023,0,0,0,.5-.887" fill="#12263f"/>
          <path id="Trazado_208469" data-name="Trazado 208469" d="M739.875,257.425a1.063,1.063,0,0,0-.441-.91,4.276,4.276,0,0,0-1.539-.559,7.265,7.265,0,0,1-1.743-.562,2.49,2.49,0,0,1-.953-.782,1.863,1.863,0,0,1-.308-1.078,2.192,2.192,0,0,1,.879-1.757,3.425,3.425,0,0,1,2.246-.719,3.533,3.533,0,0,1,2.332.742,2.359,2.359,0,0,1,.894,1.9h-1.453a1.3,1.3,0,0,0-.5-1.023,1.89,1.89,0,0,0-1.269-.43,1.977,1.977,0,0,0-1.235.344,1.081,1.081,0,0,0-.445.9.878.878,0,0,0,.414.79,5.109,5.109,0,0,0,1.5.507,7.882,7.882,0,0,1,1.754.578,2.558,2.558,0,0,1,1,.809,1.99,1.99,0,0,1,.324,1.152,2.165,2.165,0,0,1-.906,1.817,3.8,3.8,0,0,1-2.351.683,4.26,4.26,0,0,1-1.8-.359,2.914,2.914,0,0,1-1.223-1,2.42,2.42,0,0,1-.441-1.394h1.445a1.5,1.5,0,0,0,.582,1.152,2.258,2.258,0,0,0,1.434.426,2.335,2.335,0,0,0,1.316-.332,1.023,1.023,0,0,0,.5-.887" fill="#12263f"/>
          <path id="Trazado_208470" data-name="Trazado 208470" d="M748.422,258.831a3.071,3.071,0,0,1-2.477.992,2.627,2.627,0,0,1-2.058-.785,3.393,3.393,0,0,1-.715-2.324v-5.5h1.445v5.461q0,1.922,1.563,1.922a2.164,2.164,0,0,0,2.2-1.235v-6.148h1.445v8.453h-1.375Z" fill="#12263f"/>
          <path id="Trazado_208471" data-name="Trazado 208471" d="M756.945,257.425a1.063,1.063,0,0,0-.441-.91,4.276,4.276,0,0,0-1.539-.559,7.264,7.264,0,0,1-1.743-.562,2.49,2.49,0,0,1-.953-.782,1.863,1.863,0,0,1-.308-1.078,2.192,2.192,0,0,1,.879-1.757,3.425,3.425,0,0,1,2.246-.719,3.533,3.533,0,0,1,2.332.742,2.359,2.359,0,0,1,.894,1.9h-1.453a1.3,1.3,0,0,0-.5-1.023,1.89,1.89,0,0,0-1.269-.43,1.977,1.977,0,0,0-1.235.344,1.081,1.081,0,0,0-.445.9.878.878,0,0,0,.414.79,5.109,5.109,0,0,0,1.5.507,7.882,7.882,0,0,1,1.754.578,2.558,2.558,0,0,1,1,.809,1.99,1.99,0,0,1,.324,1.152,2.165,2.165,0,0,1-.906,1.817,3.8,3.8,0,0,1-2.351.683,4.26,4.26,0,0,1-1.8-.359,2.914,2.914,0,0,1-1.223-1,2.42,2.42,0,0,1-.441-1.394h1.445a1.5,1.5,0,0,0,.582,1.152,2.258,2.258,0,0,0,1.434.426,2.335,2.335,0,0,0,1.316-.332,1.023,1.023,0,0,0,.5-.887" fill="#12263f"/>
          <path id="Trazado_208472" data-name="Trazado 208472" d="M762.234,249.167v2.047h1.578v1.117h-1.578v5.249a1.173,1.173,0,0,0,.211.763.89.89,0,0,0,.719.254,3.546,3.546,0,0,0,.687-.094v1.165a4.234,4.234,0,0,1-1.109.155,1.8,1.8,0,0,1-1.461-.586,2.516,2.516,0,0,1-.492-1.664v-5.242H759.25v-1.117h1.539v-2.047Z" fill="#12263f"/>
          <path id="Trazado_208473" data-name="Trazado 208473" d="M769.008,259.823a3.692,3.692,0,0,1-2.8-1.129,4.189,4.189,0,0,1-1.078-3.019v-.266a5.076,5.076,0,0,1,.48-2.246,3.74,3.74,0,0,1,1.344-1.547,3.379,3.379,0,0,1,1.871-.558,3.17,3.17,0,0,1,2.563,1.085,4.706,4.706,0,0,1,.914,3.11v.6h-5.727a3.008,3.008,0,0,0,.73,2.02,2.3,2.3,0,0,0,1.778.769,2.524,2.524,0,0,0,1.3-.312,3.241,3.241,0,0,0,.929-.828l.883.687a3.548,3.548,0,0,1-3.187,1.633m-.18-7.578a1.928,1.928,0,0,0-1.469.637,3.1,3.1,0,0,0-.734,1.785h4.234v-.109a2.752,2.752,0,0,0-.594-1.708,1.816,1.816,0,0,0-1.437-.605" fill="#12263f"/>
          <path id="Trazado_208474" data-name="Trazado 208474" d="M775.344,251.214l.047,1.062a3.079,3.079,0,0,1,2.531-1.218q2.679,0,2.7,3.023v5.586H779.18v-5.594a1.947,1.947,0,0,0-.418-1.351,1.673,1.673,0,0,0-1.277-.438,2.087,2.087,0,0,0-1.235.375,2.545,2.545,0,0,0-.828.985v6.023h-1.445v-8.453Z" fill="#12263f"/>
          <path id="Trazado_208475" data-name="Trazado 208475" d="M784.766,249.167v2.047h1.578v1.117h-1.578v5.249a1.173,1.173,0,0,0,.211.763.89.89,0,0,0,.719.254,3.546,3.546,0,0,0,.687-.094v1.165a4.234,4.234,0,0,1-1.109.155,1.8,1.8,0,0,1-1.461-.586,2.516,2.516,0,0,1-.492-1.664v-5.242h-1.539v-1.117h1.539v-2.047Z" fill="#12263f"/>
          <path id="Trazado_208476" data-name="Trazado 208476" d="M793.25,259.667a3.052,3.052,0,0,1-.2-.891,3.225,3.225,0,0,1-2.406,1.047,2.987,2.987,0,0,1-2.051-.707,2.29,2.29,0,0,1-.8-1.793,2.391,2.391,0,0,1,1-2.051,4.734,4.734,0,0,1,2.825-.73h1.406v-.664a1.627,1.627,0,0,0-.453-1.208,1.824,1.824,0,0,0-1.336-.449,2.1,2.1,0,0,0-1.3.391,1.15,1.15,0,0,0-.523.945h-1.454a1.99,1.99,0,0,1,.45-1.222,3.053,3.053,0,0,1,1.218-.934,4.088,4.088,0,0,1,1.692-.344,3.338,3.338,0,0,1,2.289.731,2.634,2.634,0,0,1,.859,2.011v3.891a4.756,4.756,0,0,0,.3,1.852v.125Zm-2.4-1.1a2.534,2.534,0,0,0,1.289-.352,2.13,2.13,0,0,0,.883-.914v-1.734h-1.133q-2.656,0-2.656,1.555a1.315,1.315,0,0,0,.453,1.062,1.742,1.742,0,0,0,1.164.383" fill="#12263f"/>
          <path id="Trazado_208477" data-name="Trazado 208477" d="M803.89,255.534a5.029,5.029,0,0,1-.89,3.113,2.844,2.844,0,0,1-2.391,1.176,2.946,2.946,0,0,1-2.476-1.133l-.071.977h-1.328v-12h1.445v4.476a2.931,2.931,0,0,1,2.414-1.085,2.861,2.861,0,0,1,2.418,1.164,5.175,5.175,0,0,1,.879,3.187Zm-1.445-.164a3.906,3.906,0,0,0-.57-2.281,1.891,1.891,0,0,0-1.641-.805,2.122,2.122,0,0,0-2.055,1.328v3.656a2.182,2.182,0,0,0,2.071,1.329,1.88,1.88,0,0,0,1.617-.8,4.156,4.156,0,0,0,.578-2.422" fill="#12263f"/>
          <path id="Trazado_208478" data-name="Trazado 208478" d="M805.719,248.971a.857.857,0,0,1,.215-.593.806.806,0,0,1,.636-.242.821.821,0,0,1,.641.242.856.856,0,0,1,.219.593.783.783,0,0,1-.86.821.817.817,0,0,1-.636-.235.829.829,0,0,1-.215-.586m1.562,10.7h-1.445v-8.453h1.445Z" fill="#12263f"/>
          <rect id="Rectángulo_43508" data-name="Rectángulo 43508" width="1.445" height="12" transform="translate(809.719 247.667)" fill="#12263f"/>
          <path id="Trazado_208479" data-name="Trazado 208479" d="M813.484,248.971a.862.862,0,0,1,.215-.593.809.809,0,0,1,.637-.242.822.822,0,0,1,.641.242.855.855,0,0,1,.218.593.856.856,0,1,1-1.711,0m1.563,10.7H813.6v-8.453h1.445Z" fill="#12263f"/>
          <path id="Trazado_208480" data-name="Trazado 208480" d="M817.008,255.37a4.949,4.949,0,0,1,.922-3.129,3.135,3.135,0,0,1,4.765-.168v-4.406h1.445v12h-1.328l-.07-.906a2.944,2.944,0,0,1-2.414,1.062,2.889,2.889,0,0,1-2.4-1.2,5.009,5.009,0,0,1-.925-3.141Zm1.445.164a3.75,3.75,0,0,0,.594,2.25,1.917,1.917,0,0,0,1.64.813,2.109,2.109,0,0,0,2.008-1.235v-3.883a2.123,2.123,0,0,0-1.992-1.2,1.927,1.927,0,0,0-1.656.82,4.128,4.128,0,0,0-.594,2.43" fill="#12263f"/>
          <path id="Trazado_208481" data-name="Trazado 208481" d="M831.6,259.667a3.052,3.052,0,0,1-.2-.891,3.225,3.225,0,0,1-2.406,1.047,2.987,2.987,0,0,1-2.051-.707,2.29,2.29,0,0,1-.8-1.793,2.391,2.391,0,0,1,1-2.051,4.734,4.734,0,0,1,2.825-.73h1.406v-.664a1.627,1.627,0,0,0-.453-1.208,1.824,1.824,0,0,0-1.336-.449,2.1,2.1,0,0,0-1.3.391,1.15,1.15,0,0,0-.523.945h-1.454a1.99,1.99,0,0,1,.45-1.222,3.052,3.052,0,0,1,1.218-.934,4.088,4.088,0,0,1,1.692-.344,3.338,3.338,0,0,1,2.289.731,2.634,2.634,0,0,1,.859,2.011v3.891a4.756,4.756,0,0,0,.3,1.852v.125Zm-2.4-1.1a2.534,2.534,0,0,0,1.289-.352,2.13,2.13,0,0,0,.883-.914v-1.734h-1.133q-2.656,0-2.656,1.555a1.315,1.315,0,0,0,.453,1.062,1.742,1.742,0,0,0,1.164.383" fill="#12263f"/>
          <path id="Trazado_208482" data-name="Trazado 208482" d="M834.735,255.37a4.949,4.949,0,0,1,.922-3.129,3.135,3.135,0,0,1,4.765-.168v-4.406h1.445v12h-1.328l-.07-.906a2.944,2.944,0,0,1-2.414,1.062,2.889,2.889,0,0,1-2.4-1.2,5.01,5.01,0,0,1-.925-3.141Zm1.445.164a3.75,3.75,0,0,0,.594,2.25,1.917,1.917,0,0,0,1.64.813,2.109,2.109,0,0,0,2.008-1.235v-3.883a2.123,2.123,0,0,0-1.992-1.2,1.927,1.927,0,0,0-1.656.82,4.128,4.128,0,0,0-.594,2.43" fill="#12263f"/>
          <path id="Trazado_208483" data-name="Trazado 208483" d="M853.289,259.667a3.052,3.052,0,0,1-.2-.891,3.225,3.225,0,0,1-2.406,1.047,2.987,2.987,0,0,1-2.051-.707,2.289,2.289,0,0,1-.8-1.793,2.391,2.391,0,0,1,1-2.051,4.734,4.734,0,0,1,2.825-.73h1.406v-.664a1.627,1.627,0,0,0-.453-1.208,1.824,1.824,0,0,0-1.336-.449,2.1,2.1,0,0,0-1.3.391,1.15,1.15,0,0,0-.523.945H848a1.99,1.99,0,0,1,.45-1.222,3.053,3.053,0,0,1,1.218-.934,4.088,4.088,0,0,1,1.692-.344,3.338,3.338,0,0,1,2.289.731,2.634,2.634,0,0,1,.859,2.011v3.891a4.756,4.756,0,0,0,.3,1.852v.125Zm-2.4-1.1a2.534,2.534,0,0,0,1.289-.352,2.13,2.13,0,0,0,.883-.914v-1.734H851.93q-2.656,0-2.656,1.555a1.315,1.315,0,0,0,.453,1.062,1.742,1.742,0,0,0,1.164.383" fill="#12263f"/>
          <path id="Trazado_208484" data-name="Trazado 208484" d="M858.133,251.214l.039.937a3.122,3.122,0,0,1,2.508-1.093,2.417,2.417,0,0,1,2.414,1.359,3.2,3.2,0,0,1,1.1-.984,3.239,3.239,0,0,1,1.6-.375q2.781,0,2.828,2.945v5.664h-1.445v-5.578a1.939,1.939,0,0,0-.414-1.355,1.823,1.823,0,0,0-1.391-.45,1.914,1.914,0,0,0-1.336.481,1.947,1.947,0,0,0-.617,1.293v5.609h-1.453v-5.539a1.613,1.613,0,0,0-1.8-1.844,1.934,1.934,0,0,0-1.945,1.211v6.172h-1.445v-8.453Z" fill="#12263f"/>
          <path id="Trazado_208485" data-name="Trazado 208485" d="M877.953,255.534a5.029,5.029,0,0,1-.89,3.113,2.844,2.844,0,0,1-2.391,1.176,2.946,2.946,0,0,1-2.476-1.133l-.071.977H870.8v-12h1.445v4.476a2.931,2.931,0,0,1,2.414-1.085,2.861,2.861,0,0,1,2.418,1.164,5.175,5.175,0,0,1,.879,3.187Zm-1.445-.164a3.906,3.906,0,0,0-.57-2.281,1.891,1.891,0,0,0-1.641-.805,2.122,2.122,0,0,0-2.055,1.328v3.656a2.182,2.182,0,0,0,2.071,1.329,1.88,1.88,0,0,0,1.617-.8,4.156,4.156,0,0,0,.578-2.422" fill="#12263f"/>
          <path id="Trazado_208486" data-name="Trazado 208486" d="M879.781,248.971a.862.862,0,0,1,.215-.593.809.809,0,0,1,.637-.242.82.82,0,0,1,.64.242.851.851,0,0,1,.219.593.894.894,0,0,1-1.5.586.834.834,0,0,1-.215-.586m1.563,10.7H879.9v-8.453h1.445Z" fill="#12263f"/>
          <path id="Trazado_208487" data-name="Trazado 208487" d="M887.164,259.823a3.692,3.692,0,0,1-2.8-1.129,4.189,4.189,0,0,1-1.078-3.019v-.266a5.075,5.075,0,0,1,.48-2.246,3.74,3.74,0,0,1,1.344-1.547,3.379,3.379,0,0,1,1.871-.558,3.17,3.17,0,0,1,2.563,1.085,4.706,4.706,0,0,1,.914,3.11v.6h-5.727a3.008,3.008,0,0,0,.73,2.02,2.3,2.3,0,0,0,1.778.769,2.524,2.524,0,0,0,1.3-.312,3.241,3.241,0,0,0,.929-.828l.883.687a3.548,3.548,0,0,1-3.187,1.633m-.18-7.578a1.928,1.928,0,0,0-1.469.637,3.1,3.1,0,0,0-.734,1.785h4.234v-.109a2.752,2.752,0,0,0-.594-1.708,1.816,1.816,0,0,0-1.437-.605" fill="#12263f"/>
          <path id="Trazado_208488" data-name="Trazado 208488" d="M893.5,251.214l.047,1.062a3.079,3.079,0,0,1,2.531-1.218q2.679,0,2.7,3.023v5.586h-1.445v-5.594a1.947,1.947,0,0,0-.418-1.351,1.673,1.673,0,0,0-1.277-.438,2.087,2.087,0,0,0-1.235.375,2.545,2.545,0,0,0-.828.985v6.023h-1.445v-8.453Z" fill="#12263f"/>
          <path id="Trazado_208489" data-name="Trazado 208489" d="M902.922,249.167v2.047H904.5v1.117h-1.578v5.249a1.173,1.173,0,0,0,.211.763.89.89,0,0,0,.719.254,3.546,3.546,0,0,0,.687-.094v1.165a4.234,4.234,0,0,1-1.109.155,1.8,1.8,0,0,1-1.461-.586,2.516,2.516,0,0,1-.492-1.664v-5.242h-1.539v-1.117h1.539v-2.047Z" fill="#12263f"/>
          <path id="Trazado_208490" data-name="Trazado 208490" d="M911.406,259.667a3.052,3.052,0,0,1-.2-.891,3.225,3.225,0,0,1-2.406,1.047,2.987,2.987,0,0,1-2.051-.707,2.29,2.29,0,0,1-.8-1.793,2.391,2.391,0,0,1,1-2.051,4.734,4.734,0,0,1,2.825-.73h1.406v-.664a1.627,1.627,0,0,0-.453-1.208,1.824,1.824,0,0,0-1.336-.449,2.1,2.1,0,0,0-1.3.391,1.15,1.15,0,0,0-.523.945h-1.454a1.99,1.99,0,0,1,.45-1.222,3.052,3.052,0,0,1,1.218-.934,4.088,4.088,0,0,1,1.692-.344,3.338,3.338,0,0,1,2.289.731,2.634,2.634,0,0,1,.859,2.011v3.891a4.756,4.756,0,0,0,.3,1.852v.125Zm-2.4-1.1a2.534,2.534,0,0,0,1.289-.352,2.13,2.13,0,0,0,.883-.914v-1.734h-1.133q-2.656,0-2.656,1.555a1.315,1.315,0,0,0,.453,1.062,1.742,1.742,0,0,0,1.164.383" fill="#12263f"/>
          <rect id="Rectángulo_43509" data-name="Rectángulo 43509" width="1.445" height="12" transform="translate(915.016 247.667)" fill="#12263f"/>
        </g>
      </g>
      <path id="Trazado_208491" data-name="Trazado 208491" d="M180.527,98.145h-2.344l-4.562-7.484v7.484h-2.344V86.77h2.344l4.57,7.5v-7.5h2.336Z" fill="#12263f"/>
      <g id="Grupo_152407" data-name="Grupo 152407">
        <g id="Grupo_152406" data-name="Grupo 152406" clip-path="url(#clip-path-4)">
          <path id="Trazado_208492" data-name="Trazado 208492" d="M182.074,93.84a5,5,0,0,1,.485-2.242,3.538,3.538,0,0,1,1.394-1.524,4.072,4.072,0,0,1,2.113-.539,3.848,3.848,0,0,1,2.793,1.047,4.2,4.2,0,0,1,1.207,2.844l.016.578A4.418,4.418,0,0,1,189,97.125a4.208,4.208,0,0,1-5.832,0,4.494,4.494,0,0,1-1.09-3.188Zm2.258.16a3.16,3.16,0,0,0,.453,1.843,1.629,1.629,0,0,0,2.578.008,3.461,3.461,0,0,0,.461-2.015A3.13,3.13,0,0,0,187.363,92a1.5,1.5,0,0,0-1.3-.65,1.472,1.472,0,0,0-1.281.646,3.518,3.518,0,0,0-.453,2" fill="#12263f"/>
          <path id="Trazado_208493" data-name="Trazado 208493" d="M196.223,91.809a6.076,6.076,0,0,0-.812-.062,1.653,1.653,0,0,0-1.68.867v5.531h-2.258V89.692h2.133l.062,1.008a2.09,2.09,0,0,1,1.883-1.164,2.384,2.384,0,0,1,.7.1Z" fill="#12263f"/>
          <path id="Trazado_208494" data-name="Trazado 208494" d="M199.426,89.692l.07.945a2.972,2.972,0,0,1,2.43-1.1,2.254,2.254,0,0,1,2.242,1.289,2.9,2.9,0,0,1,2.539-1.289,2.518,2.518,0,0,1,2.047.8,3.678,3.678,0,0,1,.672,2.41v5.4H207.16v-5.4a1.613,1.613,0,0,0-.281-1.053,1.243,1.243,0,0,0-.992-.333,1.409,1.409,0,0,0-1.406.971l.007,5.818h-2.257V92.75a1.6,1.6,0,0,0-.289-1.065,1.255,1.255,0,0,0-.985-.329,1.463,1.463,0,0,0-1.39.8v5.99h-2.258V89.692Z" fill="#12263f"/>
          <path id="Trazado_208495" data-name="Trazado 208495" d="M216.058,98.145a2.489,2.489,0,0,1-.226-.758,2.731,2.731,0,0,1-2.133.915,3,3,0,0,1-2.059-.719,2.313,2.313,0,0,1-.816-1.813,2.389,2.389,0,0,1,1-2.062,4.906,4.906,0,0,1,2.879-.727h1.039V92.5a1.4,1.4,0,0,0-.3-.938,1.185,1.185,0,0,0-.949-.351,1.348,1.348,0,0,0-.9.273.931.931,0,0,0-.324.75h-2.258a2.269,2.269,0,0,1,.453-1.359,3,3,0,0,1,1.282-.981,4.665,4.665,0,0,1,1.859-.355,3.694,3.694,0,0,1,2.481.785A2.75,2.75,0,0,1,218,92.528v3.664a4.034,4.034,0,0,0,.335,1.82v.133Zm-1.867-1.57a1.939,1.939,0,0,0,.922-.223,1.463,1.463,0,0,0,.625-.6V94.3h-.844q-1.695,0-1.8,1.171l-.007.133a.9.9,0,0,0,.3.7,1.151,1.151,0,0,0,.812.273" fill="#12263f"/>
          <path id="Trazado_208496" data-name="Trazado 208496" d="M222.441,87.614v2.078h1.445v1.656h-1.445v4.219a1.007,1.007,0,0,0,.18.672.9.9,0,0,0,.687.2,3.553,3.553,0,0,0,.664-.055V98.1a4.628,4.628,0,0,1-1.367.2,2.156,2.156,0,0,1-2.422-2.4V91.348h-1.234V89.692h1.234V87.614Z" fill="#12263f"/>
          <path id="Trazado_208497" data-name="Trazado 208497" d="M225.129,87.5a1.11,1.11,0,0,1,.34-.836,1.464,1.464,0,0,1,1.847,0,1.193,1.193,0,0,1,0,1.68,1.447,1.447,0,0,1-1.835,0,1.108,1.108,0,0,1-.348-.844m2.4,10.641h-2.266V89.692h2.266Z" fill="#12263f"/>
          <path id="Trazado_208498" data-name="Trazado 208498" d="M232.551,95.387l1.57-5.695h2.36l-2.852,8.453h-2.156l-2.852-8.453h2.36Z" fill="#12263f"/>
          <path id="Trazado_208499" data-name="Trazado 208499" d="M237.457,87.5a1.11,1.11,0,0,1,.34-.836,1.465,1.465,0,0,1,1.848,0,1.2,1.2,0,0,1,0,1.68,1.449,1.449,0,0,1-1.836,0,1.109,1.109,0,0,1-.348-.844m2.4,10.641h-2.266V89.692h2.266Z" fill="#12263f"/>
          <path id="Trazado_208500" data-name="Trazado 208500" d="M241.363,93.856a5.1,5.1,0,0,1,.887-3.149,2.876,2.876,0,0,1,2.426-1.171,2.592,2.592,0,0,1,2.039.921V86.145h2.265v12h-2.039l-.109-.9A2.656,2.656,0,0,1,244.66,98.3a2.865,2.865,0,0,1-2.394-1.176,5.256,5.256,0,0,1-.9-3.269m2.258.16a3.356,3.356,0,0,0,.414,1.829,1.347,1.347,0,0,0,1.2.636,1.512,1.512,0,0,0,1.477-.887V92.243a1.49,1.49,0,0,0-1.461-.887q-1.634,0-1.633,2.66" fill="#12263f"/>
          <path id="Trazado_208501" data-name="Trazado 208501" d="M255.629,98.145a2.489,2.489,0,0,1-.226-.758,2.731,2.731,0,0,1-2.133.915,3,3,0,0,1-2.059-.719,2.313,2.313,0,0,1-.816-1.813,2.389,2.389,0,0,1,1-2.062,4.906,4.906,0,0,1,2.879-.727h1.039V92.5a1.4,1.4,0,0,0-.3-.938,1.185,1.185,0,0,0-.949-.351,1.348,1.348,0,0,0-.9.273.931.931,0,0,0-.324.75h-2.258a2.269,2.269,0,0,1,.453-1.359,3,3,0,0,1,1.282-.981,4.665,4.665,0,0,1,1.859-.355,3.694,3.694,0,0,1,2.481.785,2.75,2.75,0,0,1,.918,2.207v3.664a4.034,4.034,0,0,0,.335,1.82v.133Zm-1.867-1.57a1.939,1.939,0,0,0,.922-.223,1.463,1.463,0,0,0,.625-.6V94.3h-.844q-1.695,0-1.8,1.171l-.007.133a.9.9,0,0,0,.3.7,1.151,1.151,0,0,0,.812.273" fill="#12263f"/>
          <path id="Trazado_208502" data-name="Trazado 208502" d="M258.957,93.856a5.1,5.1,0,0,1,.887-3.149,2.876,2.876,0,0,1,2.426-1.171,2.592,2.592,0,0,1,2.039.921V86.145h2.265v12h-2.039l-.109-.9a2.656,2.656,0,0,1-2.172,1.055,2.865,2.865,0,0,1-2.394-1.176,5.256,5.256,0,0,1-.9-3.269m2.258.16a3.356,3.356,0,0,0,.414,1.829,1.347,1.347,0,0,0,1.2.636,1.512,1.512,0,0,0,1.477-.887V92.243a1.49,1.49,0,0,0-1.461-.887q-1.633,0-1.633,2.66" fill="#12263f"/>
        </g>
      </g>
      <path id="Trazado_208504" data-name="Trazado 208504" d="M7.25,327.418v8.8l-5.743-8.8H0v11.374H1.507v-8.765l5.727,8.765H8.742V327.418Z" fill="#12263f"/>
      <g id="Grupo_152409" data-name="Grupo 152409">
        <g id="Grupo_152408" data-name="Grupo 152408" clip-path="url(#clip-path-4)">
          <path id="Trazado_208505" data-name="Trazado 208505" d="M10.8,334.488a4.984,4.984,0,0,1,.488-2.234,3.641,3.641,0,0,1,1.36-1.532,3.7,3.7,0,0,1,1.988-.539,3.565,3.565,0,0,1,2.793,1.2,4.6,4.6,0,0,1,1.066,3.179v.1a5.05,5.05,0,0,1-.472,2.215,3.6,3.6,0,0,1-1.352,1.527,3.749,3.749,0,0,1-2.02.547,3.555,3.555,0,0,1-2.785-1.2A4.576,4.576,0,0,1,10.8,334.59Zm1.453.172a3.618,3.618,0,0,0,.652,2.258,2.211,2.211,0,0,0,3.5-.012,3.95,3.95,0,0,0,.649-2.418,3.61,3.61,0,0,0-.66-2.254,2.1,2.1,0,0,0-1.754-.863,2.078,2.078,0,0,0-1.727.851,3.929,3.929,0,0,0-.656,2.438" fill="#12263f"/>
          <path id="Trazado_208506" data-name="Trazado 208506" d="M24.391,331.637a4.388,4.388,0,0,0-.711-.055,1.906,1.906,0,0,0-1.93,1.211v6H20.305V330.34h1.406l.024.977a2.249,2.249,0,0,1,2.015-1.133,1.476,1.476,0,0,1,.641.109Z" fill="#12263f"/>
          <path id="Trazado_208507" data-name="Trazado 208507" d="M27.078,330.34l.039.937a3.122,3.122,0,0,1,2.508-1.093,2.417,2.417,0,0,1,2.414,1.359,3.2,3.2,0,0,1,1.1-.984,3.24,3.24,0,0,1,1.6-.375q2.781,0,2.828,2.945v5.664H36.117v-5.578a1.939,1.939,0,0,0-.414-1.355,1.823,1.823,0,0,0-1.391-.45,1.914,1.914,0,0,0-1.336.481,1.947,1.947,0,0,0-.617,1.293v5.609H30.906v-5.539A1.613,1.613,0,0,0,29.1,331.41a1.934,1.934,0,0,0-1.945,1.211v6.172H25.711V330.34Z" fill="#12263f"/>
          <path id="Trazado_208508" data-name="Trazado 208508" d="M44.96,338.793a3.052,3.052,0,0,1-.2-.891,3.225,3.225,0,0,1-2.406,1.047,2.987,2.987,0,0,1-2.051-.707,2.29,2.29,0,0,1-.8-1.793,2.391,2.391,0,0,1,1-2.051,4.734,4.734,0,0,1,2.825-.73h1.406V333a1.627,1.627,0,0,0-.453-1.208,1.824,1.824,0,0,0-1.336-.449,2.1,2.1,0,0,0-1.3.391,1.15,1.15,0,0,0-.523.945H39.671a1.99,1.99,0,0,1,.45-1.222,3.053,3.053,0,0,1,1.218-.934,4.088,4.088,0,0,1,1.692-.344,3.338,3.338,0,0,1,2.289.731,2.634,2.634,0,0,1,.859,2.011v3.891a4.756,4.756,0,0,0,.3,1.852v.125Zm-2.4-1.1a2.533,2.533,0,0,0,1.288-.352,2.13,2.13,0,0,0,.883-.914v-1.734H43.6q-2.656,0-2.656,1.555a1.315,1.315,0,0,0,.453,1.062,1.743,1.743,0,0,0,1.165.383" fill="#12263f"/>
          <rect id="Rectángulo_43513" data-name="Rectángulo 43513" width="1.5" height="11.375" transform="translate(52.742 327.418)" fill="#12263f"/>
          <path id="Trazado_208509" data-name="Trazado 208509" d="M60.336,333.722a7.056,7.056,0,0,1-2.809-1.363,2.6,2.6,0,0,1-.879-2,2.75,2.75,0,0,1,1.075-2.223,4.268,4.268,0,0,1,2.793-.879,4.666,4.666,0,0,1,2.09.453,3.442,3.442,0,0,1,1.421,1.25,3.2,3.2,0,0,1,.5,1.742H63.024a2.081,2.081,0,0,0-.657-1.627,2.669,2.669,0,0,0-1.851-.591,2.734,2.734,0,0,0-1.731.489,1.63,1.63,0,0,0-.621,1.357,1.467,1.467,0,0,0,.59,1.179,5.794,5.794,0,0,0,2.008.88,9.351,9.351,0,0,1,2.219.88,3.372,3.372,0,0,1,1.187,1.121,2.86,2.86,0,0,1,.387,1.508,2.66,2.66,0,0,1-1.078,2.215,4.6,4.6,0,0,1-2.883.832,5.341,5.341,0,0,1-2.188-.45,3.681,3.681,0,0,1-1.566-1.23,3.005,3.005,0,0,1-.551-1.774H57.8a1.958,1.958,0,0,0,.762,1.629,3.2,3.2,0,0,0,2.035.6,2.948,2.948,0,0,0,1.82-.484,1.575,1.575,0,0,0,.633-1.321,1.544,1.544,0,0,0-.586-1.293,6.781,6.781,0,0,0-2.125-.9" fill="#12263f"/>
          <path id="Trazado_208510" data-name="Trazado 208510" d="M75.226,333.472a7.037,7.037,0,0,1-.562,2.918,4.267,4.267,0,0,1-1.594,1.9,4.391,4.391,0,0,1-2.406.656,4.242,4.242,0,0,1-4-2.543,6.741,6.741,0,0,1-.59-2.832v-.82a6.959,6.959,0,0,1,.57-2.9,4.217,4.217,0,0,1,4-2.594,4.4,4.4,0,0,1,2.41.661,4.249,4.249,0,0,1,1.606,1.914,7.069,7.069,0,0,1,.562,2.918Zm-1.492-.734a5.1,5.1,0,0,0-.812-3.105,2.68,2.68,0,0,0-2.274-1.082,2.648,2.648,0,0,0-2.238,1.082,4.99,4.99,0,0,0-.84,3v.836a5.1,5.1,0,0,0,.824,3.082,2.889,2.889,0,0,0,4.52.063,5.085,5.085,0,0,0,.82-3.035Z" fill="#12263f"/>
          <path id="Trazado_208511" data-name="Trazado 208511" d="M85.813,338.793H84.359V329.16l-2.914,1.07v-1.312l4.14-1.555h.227Z" fill="#12263f"/>
          <path id="Trazado_208512" data-name="Trazado 208512" d="M96.148,334.972h1.578v1.18H96.148v2.64H94.695v-2.64h-5.18V335.3l5.094-7.883h1.539Zm-4.992,0h3.539v-5.578l-.172.312Z" fill="#12263f"/>
          <path id="Trazado_208513" data-name="Trazado 208513" d="M106.164,333.942a6.611,6.611,0,0,1-.867,3.773,3.6,3.6,0,0,1-5.406.027,6.259,6.259,0,0,1-.906-3.605v-1.93a6.461,6.461,0,0,1,.867-3.726,3.668,3.668,0,0,1,5.422-.043,6.233,6.233,0,0,1,.89,3.629Zm-1.445-1.977a5.294,5.294,0,0,0-.516-2.676,1.775,1.775,0,0,0-1.632-.84,1.753,1.753,0,0,0-1.618.836,5.176,5.176,0,0,0-.523,2.571v2.312a5.378,5.378,0,0,0,.535,2.723,1.771,1.771,0,0,0,1.621.879,1.75,1.75,0,0,0,1.59-.828,5.2,5.2,0,0,0,.543-2.61Z" fill="#12263f"/>
          <path id="Trazado_208514" data-name="Trazado 208514" d="M115.148,333.942a6.611,6.611,0,0,1-.867,3.773,3.6,3.6,0,0,1-5.406.027,6.259,6.259,0,0,1-.906-3.605v-1.93a6.461,6.461,0,0,1,.867-3.726,3.668,3.668,0,0,1,5.422-.043,6.233,6.233,0,0,1,.89,3.629Zm-1.445-1.977a5.294,5.294,0,0,0-.516-2.676,1.775,1.775,0,0,0-1.632-.84,1.753,1.753,0,0,0-1.618.836,5.176,5.176,0,0,0-.523,2.571v2.312a5.378,5.378,0,0,0,.535,2.723,1.771,1.771,0,0,0,1.621.879,1.75,1.75,0,0,0,1.59-.828,5.2,5.2,0,0,0,.543-2.61Z" fill="#12263f"/>
          <path id="Trazado_208515" data-name="Trazado 208515" d="M121.75,338.793H120.3V329.16l-2.914,1.07v-1.312l4.14-1.555h.227Z" fill="#12263f"/>
        </g>
      </g>
    </g>
  </g>
</svg>
