<svg xmlns="http://www.w3.org/2000/svg" xmlns:xlink="http://www.w3.org/1999/xlink" width="189.123" height="307.425" viewBox="0 0 189.123 307.425">
  <defs>
    <clipPath id="clip-path">
      <path id="Trazado_202669" data-name="Trazado 202669" d="M0,0H189.123V307.425H0Z" fill="none"/>
    </clipPath>
    <clipPath id="clip-path-2">
      <rect id="Rectángulo_41953" data-name="Rectángulo 41953" width="565.58" height="357.685" fill="none"/>
    </clipPath>
    <clipPath id="clip-path-3">
      <rect id="Rectángulo_41946" data-name="Rectángulo 41946" width="29.381" height="54.588" fill="none"/>
    </clipPath>
    <clipPath id="clip-path-5">
      <rect id="Rectángulo_41948" data-name="Rectángulo 41948" width="7.336" height="20.5" fill="none"/>
    </clipPath>
    <clipPath id="clip-path-6">
      <rect id="Rectángulo_41947" data-name="Rectángulo 41947" width="7.328" height="20.5" fill="none"/>
    </clipPath>
    <clipPath id="clip-path-7">
      <rect id="Rectángulo_41950" data-name="Rectángulo 41950" width="25.358" height="10.977" fill="none"/>
    </clipPath>
    <clipPath id="clip-path-8">
      <rect id="Rectángulo_41949" data-name="Rectángulo 41949" width="25.357" height="10.972" fill="none"/>
    </clipPath>
    <clipPath id="clip-path-9">
      <rect id="Rectángulo_41952" data-name="Rectángulo 41952" width="26.797" height="13.448" fill="none"/>
    </clipPath>
  </defs>
  <g id="Grupo_150795" data-name="Grupo 150795" transform="translate(-110.574 -3.717)">
    <g id="Enmascarar_grupo_65" data-name="Enmascarar grupo 65" transform="translate(110.574 3.717)" clip-path="url(#clip-path)">
      <g id="Grupo_150148" data-name="Grupo 150148" transform="translate(-111.791 -30.131)">
        <g id="Grupo_150147" data-name="Grupo 150147" clip-path="url(#clip-path-2)">
          <path id="Trazado_202535" data-name="Trazado 202535" d="M15.2,177.475c.327-6.569-1.406-21.666,11.469-20.7-3.186-15.868,10.61-25.256,26.012-24.848.159-10.856,5.688-23.525,16.77-27.5,5.973-2.141,14-4.715,19.963-2.139,4.272,1.846,5.853,6.585,8.738,8.241,2.625,1.506,1.911.065,5.444.23,10.218.478,15.66,3.183,19.463,12.11,10.023-3.949,25.674,2.728,29.235,13.33,6.09-2.527,12.91-.144,17.428,4.89,2.26,2.519,6.27,6.4,7.922,9.058,3.169,5.1,4.731,19.5-.935,22.535-4.315,2.315-12.612,1.1-17.382,1.29-13.031.526-25.953.272-39.016-.267-23.257-.961-46.833-1.608-69.966,0-9.609.662-24.9-.391-35.151,3.771" transform="translate(105.63 127.16)" fill="#73b88d"/>
          <ellipse id="Elipse_4823" data-name="Elipse 4823" cx="85.224" cy="26.841" rx="85.224" ry="26.841" transform="translate(120.826 277.465)" fill="#a44a0d"/>
          <path id="Trazado_202608" data-name="Trazado 202608" d="M167.277,175.3c-5.648,0-11.019.184-15.887.512-4.289-.245-8.921-.378-13.757-.378-22.022,0-39.89,2.773-39.89,6.2s17.859,6.2,39.89,6.2c5.647,0,11.019-.184,15.887-.512,4.287.246,8.92.378,13.755.378,22.022,0,39.888-2.773,39.888-6.2s-17.858-6.2-39.888-6.2" transform="translate(61.704 133.672)" fill="#a44a0d"/>
          <path id="Trazado_202609" data-name="Trazado 202609" d="M149.592,173.642V207.61A1.793,1.793,0,0,1,147.8,209.4h-1.09a1.793,1.793,0,0,1-1.794-1.794V178.632a1.794,1.794,0,0,0-3.589,0V207.61a1.793,1.793,0,0,1-1.794,1.794h-1.452a1.793,1.793,0,0,1-1.794-1.794V178.337a1.793,1.793,0,0,0-1.794-1.794h-1.258a1.793,1.793,0,0,0-1.794,1.794V207.61a1.793,1.793,0,0,1-1.794,1.794h-1.157a1.793,1.793,0,0,1-1.794-1.794V178.337a1.793,1.793,0,0,0-1.794-1.794h-1.06a1.793,1.793,0,0,0-1.794,1.794V207.61a1.793,1.793,0,0,1-1.794,1.794H118.92a1.793,1.793,0,0,1-1.794-1.794V173.642A10.6,10.6,0,0,1,127.7,163.063a1.807,1.807,0,0,0,1.817-1.8v-.049l-.041-2.1-.326-14.086-.108-4.894h7.574v21.13a1.793,1.793,0,0,0,1.781,1.807h.612a10.591,10.591,0,0,1,10.579,10.039c.011.176.011.364.011.54" transform="translate(73.939 111.469)" fill="#565656"/>
          <g id="Grupo_150131" data-name="Grupo 150131" transform="translate(194.148 256.495)" opacity="0.3">
            <g id="Grupo_150130" data-name="Grupo 150130">
              <g id="Grupo_150129" data-name="Grupo 150129" clip-path="url(#clip-path-3)">
                <g id="Grupo_150128" data-name="Grupo 150128">
                  <g id="Grupo_150127" data-name="Grupo 150127" clip-path="url(#clip-path-3)">
                    <path id="Trazado_202610" data-name="Trazado 202610" d="M148.4,171.747v25.972c-1.033-1.06-2-2.191-2.9-2.967-.618-.53-1.207-1.07-1.778-1.61v-16.4a1.794,1.794,0,0,0-3.589,0v12.887q-.489-.472-1-.943-2.092-1.945-4.037-3.959v-8.29a1.794,1.794,0,0,0-1.794-1.794H132.04a1.8,1.8,0,0,0-1.794,1.794v2.927c-1.768-2.1-3.457-4.282-5.068-6.59-2-2.858-4.037-5.709-6.16-8.507a10.557,10.557,0,0,1,7.475-3.1,1.806,1.806,0,0,0,1.817-1.8v-.049l-.041-2.1-.326-14.086c1.612,1.905,3.21,3.84,4.969,5.6a21.247,21.247,0,0,0,2.5,2.093v8.536a1.793,1.793,0,0,0,1.781,1.807h.613a10.591,10.591,0,0,1,10.579,10.039c.011.176.011.364.011.54" transform="translate(-119.015 -143.132)" fill="#040405"/>
                  </g>
                </g>
              </g>
            </g>
          </g>
          <path id="Trazado_202611" data-name="Trazado 202611" d="M132.7,197.214h-4.568l-2.584-53.87-.9-18.841-1.228-25.461L121.8,65.467l-.589-12.347.392-2.044a1.683,1.683,0,0,1,1.651-1.375,1.707,1.707,0,0,1,1.484.884,7.789,7.789,0,0,1,.855,2.284,1.405,1.405,0,0,0,2.357.688.1.1,0,0,0,.039-.078l.558,16.719.845,26.021.892,27.376.589,18.055Z" transform="translate(76.521 54.38)" fill="#654010"/>
          <g id="Grupo_150136" data-name="Grupo 150136" transform="translate(197.737 104.081)" opacity="0.3">
            <g id="Grupo_150135" data-name="Grupo 150135">
              <g id="Grupo_150134" data-name="Grupo 150134" clip-path="url(#clip-path-5)">
                <g id="Grupo_150133" data-name="Grupo 150133" transform="translate(0.007)">
                  <g id="Grupo_150132" data-name="Grupo 150132" clip-path="url(#clip-path-6)">
                    <path id="Trazado_202612" data-name="Trazado 202612" d="M128.552,70.2c-.979-.835-1.958-1.631-2.967-2.367-1.072-.773-2.388-1.548-3.78-2.364l-.589-12.347.393-2.044A1.683,1.683,0,0,1,123.26,49.7a1.7,1.7,0,0,1,1.483.884,7.79,7.79,0,0,1,.855,2.284,1.405,1.405,0,0,0,2.357.688.1.1,0,0,0,.039-.078Z" transform="translate(-121.223 -49.701)" fill="#040405"/>
                  </g>
                </g>
              </g>
            </g>
          </g>
          <path id="Trazado_202613" data-name="Trazado 202613" d="M112.326,181.655a4.646,4.646,0,0,1-2.989-1.088,3.49,3.49,0,0,0,.274,2.724,1.9,1.9,0,0,0,1.078.816c1.2.338,4.3.475,11.435-2.447v-2.847l-8.426,2.63a4.776,4.776,0,0,1-1.372.21m27.295-7.254a3.263,3.263,0,0,0-.866-1.958,2.734,2.734,0,0,1-1.794,1.752l-.507.163v2.217l2.3-.816a1.322,1.322,0,0,0,.876-1.225c0-.042-.011-.085-.011-.127m-12.572,5.506,4.656-1.657v-2.429l-4.656,1.458Z" transform="translate(68.922 131.864)" fill="#b36504"/>
          <path id="Trazado_202614" data-name="Trazado 202614" d="M130.265,169.193h-1.06a1.8,1.8,0,0,0-1.794,1.794V190.33l2.741-.855,1.915-.6V170.991a1.794,1.794,0,0,0-1.794-1.794m4.577-17.425H118.163l2.426,28.058c.02.2.02.393.02.589a6.8,6.8,0,0,1-4.894,6.512l-4.922,1.434a3.039,3.039,0,0,0-2.161,2.465,3.632,3.632,0,0,0-.029.462,3,3,0,0,0,1.1,2.328,4.643,4.643,0,0,0,2.987,1.09,4.73,4.73,0,0,0,1.365-.215l8.429-2.623V166.3a10.531,10.531,0,0,1,3.065-7.435l.039-.039a10.564,10.564,0,0,1,7.476-3.1,1.806,1.806,0,0,0,1.817-1.8v-.049Zm4.391,32.476-1.925-14.489a1.767,1.767,0,0,0-.489,1.238v16.4l.511-.163a2.739,2.739,0,0,0,1.794-1.749,2.941,2.941,0,0,0,.117-1.248" transform="translate(68.558 118.815)" fill="#fbb800"/>
          <path id="Trazado_202615" data-name="Trazado 202615" d="M124.8,169.194h-1.06a1.8,1.8,0,0,0-1.011.315c.579,5.2.962,10.422,1.631,15.608a35.787,35.787,0,0,0,.326,4.362l1.915-.6V170.992a1.793,1.793,0,0,0-1.794-1.794m8.972,15.049-1.943-14.491a1.767,1.767,0,0,0-.489,1.238v16.4l.511-.163a2.739,2.739,0,0,0,1.794-1.749,2.94,2.94,0,0,0,.117-1.248m-16.464-32.469c-.354,1.794,1.219,4.263,1.974,5.559.3.511.569,1.021.806,1.532l.039-.039a10.564,10.564,0,0,1,7.476-3.1,1.807,1.807,0,0,0,1.817-1.8v-.049l-.039-2.1Z" transform="translate(74.021 118.814)" fill="#ed8a00"/>
          <path id="Trazado_202616" data-name="Trazado 202616" d="M169.808,177.819c3.126,4.023-10.168,4.6-10.168,4.6a20.255,20.255,0,0,1-12.46-4.119,5.141,5.141,0,0,0-1.785-.9,28.035,28.035,0,0,0-6.093-.653c-.718-.729,0-2.693,0-2.693a19.954,19.954,0,0,1,13.05,4.318,20.907,20.907,0,0,0,17.455-.569" transform="translate(87.738 132.88)" fill="#b36504"/>
          <path id="Trazado_202617" data-name="Trazado 202617" d="M170.455,191.89a21.065,21.065,0,0,1-14.174,1.661,19.2,19.2,0,0,1-3.281-1.09,19.976,19.976,0,0,0-13.05-4.323l-1.238-22.512-.163-2.967-.589-10.894h18.107l-1.041,19.223a14.191,14.191,0,0,0,4.656,11.277l3.656,3.289a9.247,9.247,0,0,0,2.633,1.641c1.739.718,4.489,2.25,4.489,4.695" transform="translate(87.091 118.811)" fill="#fbb800"/>
          <path id="Trazado_202618" data-name="Trazado 202618" d="M156.052,189.334a19.2,19.2,0,0,1-3.28-1.09,19.977,19.977,0,0,0-13.05-4.323l-1.238-22.512-.163-2.967a7.05,7.05,0,0,1,3.1,2.171c2.083,2.878,1.944,7.269,2.447,10.628.326,2.191.511,4.695,2.013,6.414a26.435,26.435,0,0,0,4.99,3.5A5.027,5.027,0,0,1,153,183.926c.2.608.246,1.268.432,1.886.4,1.305,1.17,1.592,2.044,2.545a2.39,2.39,0,0,1,.579.962" transform="translate(87.319 123.026)" fill="#ed8a00"/>
          <path id="Trazado_202619" data-name="Trazado 202619" d="M149.87,111.576c-8.842,0-11.66-7.5-12.561-12.724a27.162,27.162,0,0,1-.413-4.931c2.958-.816,6.14-1.768,9.577-2.907l.55,3.31Z" transform="translate(86.419 80.46)" fill="#a5aea8"/>
          <path id="Trazado_202620" data-name="Trazado 202620" d="M172.217,140.753l-5-30.3c-8.842,0-11.66-7.5-12.561-12.724a27.015,27.015,0,0,1-.414-4.931,151.644,151.644,0,0,1-16.5,3.589h-.008l.137,4.223.206,6.3.246,7.535a215.241,215.241,0,0,1,18.916,55.353c.935,4.894,1.69,9.961,2.191,15.127.137,1.356.246,2.711.344,4.078H170.41l.256-1.935,2.042-15.432a104.907,104.907,0,0,0-.489-30.874m-39.392-28.081-.561-11.651-.176-3.723c-.571.059-.61.059-1.13.127a56.737,56.737,0,0,1-11.837-.127,28,28,0,0,1,.765,4.5c.54,5.913-.186,16.031-10.471,20.391l10.372,64.564.362,2.25H131.3V184.21c.01-4.45.039-11.592.108-19.616.147-19.655.55-44.637,1.581-48.449Z" transform="translate(69.072 81.583)" fill="#859089"/>
          <path id="Trazado_202621" data-name="Trazado 202621" d="M110.823,120.512l-2.838-17.7-.8-4.931s4.008-3.251,13.339-2.25a28.187,28.187,0,0,1,.767,4.5c.54,5.913-.186,16.031-10.471,20.383" transform="translate(67.666 83.253)" fill="#a5aea8"/>
          <path id="Trazado_202622" data-name="Trazado 202622" d="M121.952,95.709a29.714,29.714,0,0,1,1.041,8.117,24.7,24.7,0,0,1-1.352,8.143A16.153,16.153,0,0,1,117,118.821a15.948,15.948,0,0,1-7.39,3.493,21.794,21.794,0,0,0,3.682-1.682,18.6,18.6,0,0,0,1.69-1.075,16.836,16.836,0,0,0,5.734-7.925,28.753,28.753,0,0,0,1.524-7.83,35.909,35.909,0,0,0,.036-4.041,38.722,38.722,0,0,0-.326-4.052" transform="translate(69.197 83.424)" fill="#323432"/>
          <path id="Trazado_202623" data-name="Trazado 202623" d="M135.379,93.209c.119,1.142.264,2.284.489,3.411a32.406,32.406,0,0,0,.749,3.336,24.942,24.942,0,0,0,2.576,6.233,13.759,13.759,0,0,0,4.576,4.765,11.4,11.4,0,0,0,3.073,1.344,17.1,17.1,0,0,0,3.364.628,12.345,12.345,0,0,1-6.811-1.315,11.81,11.81,0,0,1-2.869-2.106,15.771,15.771,0,0,1-2.175-2.809,20.821,20.821,0,0,1-2.466-6.564,25.613,25.613,0,0,1-.506-6.922" transform="translate(85.43 81.846)" fill="#323432"/>
          <path id="Trazado_202624" data-name="Trazado 202624" d="M132.367,98.548a56.736,56.736,0,0,1-11.837-.127c-9.333-1-13.339,2.25-13.339,2.25l.8,4.931a13.1,13.1,0,0,1,1.326-.579,37.637,37.637,0,0,1,9.873-1.958c.708-.039,1.4-.088,2.113-.137,3.634-.256,7.259-.589,10.874-.718l1.5-.059-.176-3.723c-.569.059-.608.059-1.129.127m32.869-7.535c-3.439,1.142-6.621,2.093-9.577,2.907a151.574,151.574,0,0,1-16.5,3.589h-.01l.137,4.223a106.452,106.452,0,0,0,16.789-2.887c.653-.163,1.3-.344,1.958-.53a38.259,38.259,0,0,0,7.76-4Z" transform="translate(67.668 80.465)" fill="#676f6a"/>
          <path id="Trazado_202625" data-name="Trazado 202625" d="M146.144,164.329a215.323,215.323,0,0,0-18.91-55.343l-.246-7.535c4.949,3.426,9.567,7.073,12,12.789,1.522,3.589,6.915,25.295,7.731,28.37a82.253,82.253,0,0,1,1.958,9.99c.315,2.284.542,12.122-2.543,11.729" transform="translate(80.165 87.049)" fill="#676f6a"/>
          <path id="Trazado_202626" data-name="Trazado 202626" d="M127.289,148.83v4.794h-11.15l-.362-2.25c.953-.285,1.984-.708,2.661-.884a71.166,71.166,0,0,1,7.762-1.424c.235-.029.628-.127,1.09-.237" transform="translate(73.088 116.958)" fill="#676f6a"/>
          <path id="Trazado_202627" data-name="Trazado 202627" d="M151.312,151.414l-.256,1.935H140.418c-.1-1.365-.206-2.721-.344-4.078.61.163,1.209.354,1.794.489,2.338.55,4.714.855,7.072,1.336.628.127,1.532.163,2.369.315" transform="translate(88.426 117.237)" fill="#676f6a"/>
          <path id="Trazado_202628" data-name="Trazado 202628" d="M126.175,108.449c-1.031,3.811-1.434,28.792-1.581,48.449-1.08.315-1.817-.276-2.455-1.3-2.525-3.969-1.837-9.853-1.837-14.355a167.606,167.606,0,0,1,.943-22.437,35.871,35.871,0,0,1,2.2-10.058,13.22,13.22,0,0,1,2.564-3.772Z" transform="translate(75.89 89.276)" fill="#676f6a"/>
          <path id="Trazado_202629" data-name="Trazado 202629" d="M123.911,44.578a11.483,11.483,0,0,0,5.246,1.651,9.706,9.706,0,0,0,8.918-4.913,9.294,9.294,0,0,0,.579-1.179,22.36,22.36,0,0,0,1.395-9.3,44.113,44.113,0,0,0-.55-5.442,19.023,19.023,0,0,0-2.4-4.714,12,12,0,0,0-.835-1.07,1.609,1.609,0,0,0-2.033-.315c-7.525,4.45-12.024,2.525-12.024,2.525-1.021.423-2,.835-2.927,1.238v.01a5.281,5.281,0,0,1-.653,1.958,7.938,7.938,0,0,1-.816,1.219,6.108,6.108,0,0,1-.579.653,3.25,3.25,0,0,0-.816-.01c-.049.01-.117.01-.163.02a3.021,3.021,0,0,0,.835,5.982,2.867,2.867,0,0,0,1.142-.374h.078l.059,5.236.117,8.483.039,3.693s-.176,7.3,11.453,7.574c0,0,9.489-.364,8.851-8.82a12.935,12.935,0,0,1-14.923-4.1M134.118,29.9a1.305,1.305,0,1,1,1.3-1.313v.008a1.305,1.305,0,0,1-1.3,1.305m-11.846-.688a1.311,1.311,0,1,1,0,.011v-.011" transform="translate(71.801 35.042)" fill="#f8ad83"/>
          <path id="Trazado_202630" data-name="Trazado 202630" d="M134.736,38.775a9.472,9.472,0,0,1,.163,1.287,12.929,12.929,0,0,1-14.92-4.1,11.525,11.525,0,0,0,5.236,1.648,9.731,9.731,0,0,0,8.921-4.91l.489,4.953Z" transform="translate(75.74 43.65)" fill="#f08262"/>
          <path id="Trazado_202631" data-name="Trazado 202631" d="M137.743,22.073c.078,6.287-1.522,4.971-1.522,4.971a19.025,19.025,0,0,0-2.4-4.714,12.011,12.011,0,0,0-.835-1.07,1.61,1.61,0,0,0-2.033-.315c-7.523,4.45-12.024,2.525-12.024,2.525,1.729-.718,3.566-1.468,5.546-2.25,0,0,6.109-2.652,12.918-4.765.176,1.729.276,3.173.326,4.391.02.442.029.845.029,1.228" transform="translate(75.08 33.393)" fill="#b44213"/>
          <path id="Trazado_202632" data-name="Trazado 202632" d="M118.54,21.514v.01a5.281,5.281,0,0,1-.653,1.958,7.3,7.3,0,0,1-.806,1.219,6.111,6.111,0,0,1-.579.653,3.251,3.251,0,0,0-.816-.01c-.049.01-.117.01-.163.02a2.593,2.593,0,0,1-.54-1.129,2.907,2.907,0,0,1-.049-1.119c1.131-.52,2.328-1.041,3.607-1.6" transform="translate(72.535 36.585)" fill="#b44213"/>
          <path id="Trazado_202633" data-name="Trazado 202633" d="M126.734,24.108a1.305,1.305,0,1,1-1.305,1.305,1.3,1.3,0,0,1,1.305-1.305" transform="translate(79.181 38.224)" fill="#040405"/>
          <path id="Trazado_202634" data-name="Trazado 202634" d="M120.271,24.483a1.305,1.305,0,1,1-1.305,1.305,1.3,1.3,0,0,1,1.305-1.305" transform="translate(75.101 38.461)" fill="#040405"/>
          <path id="Trazado_202635" data-name="Trazado 202635" d="M120.164,30.762a10.429,10.429,0,0,0,4.8,1.383,7.2,7.2,0,0,0,2.395-.377,10.938,10.938,0,0,0,1.188-.445c.4-.163.77-.393,1.2-.561a6.033,6.033,0,0,1-2.062,1.768,5.611,5.611,0,0,1-2.724.67,6.02,6.02,0,0,1-2.719-.675,5.683,5.683,0,0,1-2.073-1.763" transform="translate(75.857 42.424)" fill="#b7492e"/>
          <path id="Trazado_202636" data-name="Trazado 202636" d="M124.449,23.274a2.364,2.364,0,0,1,1.3-.876,4.764,4.764,0,0,1,1.525-.261,3.982,3.982,0,0,1,2.85,1.073c-1.055.026-1.931-.036-2.847-.018-.453,0-.909.01-1.378.013a9.7,9.7,0,0,0-1.444.069" transform="translate(78.562 36.978)" fill="#b44213"/>
          <path id="Trazado_202637" data-name="Trazado 202637" d="M122.533,30.85a13.26,13.26,0,0,1,2.794-.745l-.424.527a19.7,19.7,0,0,1-.344-2.835,13.2,13.2,0,0,1,.129-2.892,13.165,13.165,0,0,1,.816,2.773,19.721,19.721,0,0,1,.343,2.835v.07a.439.439,0,0,1-.416.458h-.011a13.263,13.263,0,0,1-2.886-.191" transform="translate(77.353 38.726)" fill="#f08262"/>
          <path id="Trazado_202638" data-name="Trazado 202638" d="M117.167,24.75a3.778,3.778,0,0,1,1.261-1.227,5.132,5.132,0,0,1,1.644-.662,4.619,4.619,0,0,1,1.783-.038,3.626,3.626,0,0,1,1.631.682c-.6.07-1.132.07-1.659.142a12.5,12.5,0,0,0-1.533.246c-1.018.2-1.993.524-3.122.856" transform="translate(73.965 37.37)" fill="#b44213"/>
          <path id="Trazado_202639" data-name="Trazado 202639" d="M115,24.8a2.29,2.29,0,0,1,1.608,1.06,2.486,2.486,0,0,1,.346,1.9,8.1,8.1,0,0,0-.757-1.631A5.906,5.906,0,0,0,115,24.8" transform="translate(72.596 38.659)" fill="#b44213"/>
          <g id="Grupo_150141" data-name="Grupo 150141" transform="translate(187.436 49.843)" opacity="0.44">
            <g id="Grupo_150140" data-name="Grupo 150140">
              <g id="Grupo_150139" data-name="Grupo 150139" clip-path="url(#clip-path-7)">
                <g id="Grupo_150138" data-name="Grupo 150138" transform="translate(0.002 0.005)">
                  <g id="Grupo_150137" data-name="Grupo 150137" clip-path="url(#clip-path-8)">
                    <path id="Trazado_202640" data-name="Trazado 202640" d="M118.539,24.708c-1.277.56-2.475,1.08-3.605,1.6a2.907,2.907,0,0,0,.049,1.119c.511-.088,1.051-.305,1.483-.4.489-.1.953-.215,1.424-.344a5.282,5.282,0,0,0,.653-1.958Zm21.4-8.251c-6.807,2.113-12.918,4.765-12.918,4.765-1.974.786-3.811,1.532-5.546,2.25-1.021.423-2,.835-2.927,1.238v.01a5.282,5.282,0,0,1-.653,1.958c.452-.127.894-.266,1.346-.413a35.181,35.181,0,0,1,7.093-1.561,49.963,49.963,0,0,0,10.029-2.377c1.326-.452,2.623-.953,3.891-1.483-.049-1.219-.147-2.662-.326-4.391" transform="translate(-114.903 -16.457)" fill="#040405"/>
                  </g>
                </g>
              </g>
            </g>
          </g>
          <path id="Trazado_202641" data-name="Trazado 202641" d="M164.989,16.31v1.837c-1.088-1.631-3.907-1.931-7.424-1.52a60.713,60.713,0,0,0-10.3,2.408c-6.811,2.113-12.925,4.762-12.925,4.762-1.974.781-3.811,1.532-5.533,2.25-1.023.423-2.006.834-2.936,1.235-1.277.56-2.481,1.088-3.612,1.605-4.582,2.07-7.982,3.812-10.5,5.238-5.892,3.347-6.9,4.931-6.9,4.931s-4.117-3.39.9-7.085a92.876,92.876,0,0,1,11.858-6.8,188.577,188.577,0,0,1,26.8-10.757c.444-.137.887-.285,1.331-.423A34.118,34.118,0,0,1,155.8,12.374c4.034-.01,8.532.718,9.186,3.928" transform="translate(65.201 30.816)" fill="#845318"/>
          <path id="Trazado_202642" data-name="Trazado 202642" d="M148.42,16.566s-1.52,10.3-18.319,16.915h-.021a42.255,42.255,0,0,0-.55-5.439s1.605,1.305,1.52-4.974h.01c7.592-3.041,9.936-8.024,9.936-8.024,3.517-.411,6.336-.116,7.424,1.52" transform="translate(81.77 32.397)" fill="#654010"/>
          <path id="Trazado_202643" data-name="Trazado 202643" d="M140.544,14.981s-2.344,4.985-9.936,8.026H130.6c-.01-1.437-.116-3.272-.347-5.616a60.717,60.717,0,0,1,10.295-2.409" transform="translate(82.224 32.462)" fill="#040405"/>
          <path id="Trazado_202644" data-name="Trazado 202644" d="M138.876,16.6a187.55,187.55,0,0,0-26.8,10.747l.176-6.944.069-2.76a4.316,4.316,0,0,1,4.426-4.2,4.235,4.235,0,0,1,.811.1l2.948.638a4.3,4.3,0,0,0,4.912-2.564,4.312,4.312,0,0,1,7.034-1.414l3.713,3.7Z" transform="translate(70.753 28.644)" fill="#654010"/>
          <path id="Trazado_202645" data-name="Trazado 202645" d="M124.288,28.327l.069,5.232h-.073c-14.887,3.147-20.019-2.925-20.019-2.925s1-1.584,6.9-4.931a18.236,18.236,0,0,0,8.584.326,3.013,3.013,0,0,0,3.331,2.661h.007a2.753,2.753,0,0,0,1.142-.369Z" transform="translate(65.82 39.23)" fill="#654010"/>
          <path id="Trazado_202646" data-name="Trazado 202646" d="M118.981,22.5a2.934,2.934,0,0,0,.592,2.25,3.027,3.027,0,0,0-2.5,3.315,18.236,18.236,0,0,1-8.584-.326c2.514-1.426,5.913-3.168,10.5-5.238" transform="translate(68.486 37.206)" fill="#040405"/>
          <g id="Grupo_150146" data-name="Grupo 150146" transform="translate(182.832 42.54)" opacity="0.34">
            <g id="Grupo_150145" data-name="Grupo 150145">
              <g id="Grupo_150144" data-name="Grupo 150144" clip-path="url(#clip-path-9)">
                <g id="Grupo_150143" data-name="Grupo 150143">
                  <g id="Grupo_150142" data-name="Grupo 150142" clip-path="url(#clip-path-9)">
                    <path id="Trazado_202647" data-name="Trazado 202647" d="M138.876,14.676a187.551,187.551,0,0,0-26.8,10.747l.176-6.944c3.378-1.346,7.386-.225,10.952-1.07a45.106,45.106,0,0,0,8.762-3.32c1.09-.511,2.662-1.512,4.194-2.113Z" transform="translate(-112.079 -11.974)" fill="#040405"/>
                  </g>
                </g>
              </g>
            </g>
          </g>
          <path id="Trazado_202648" data-name="Trazado 202648" d="M139.555,123.459l-.286-5.806-.471-9.788-1.532-32.136-.653-13.791a5.157,5.157,0,0,1-2.475,3.478l-.679.393a3.627,3.627,0,0,0-1.316,1.326l-6.189,11.14c-4.843,8.483-9.411,13.182-13.05,15.776.02.163.225,1.905.489,4.617.716,7.24,1.794,21.306.579,30.1,0,0-.256,4.6-.256,6.807,0,0,4.008-3.251,13.339-2.25a56.734,56.734,0,0,0,11.837.127c.52-.069.56-.069,1.13-.127ZM169.57,90.571c-.088-1.2-.137-2.338-.137-3.409a51.088,51.088,0,0,1-12.474-12.828,53.484,53.484,0,0,1-3.233-5.4,9.6,9.6,0,0,0-2.318-3.065l-1.639-.767a6.628,6.628,0,0,1-2.838-2.61,2.07,2.07,0,0,1-3.537-.186l.362,11.189,1.033,31.562.326,9.99.264,7.967.3,9.421h.01a151.571,151.571,0,0,0,16.5-3.589c2.956-.816,6.14-1.768,9.577-2.907q2.239-.734,4.626-1.571s-5.873-20.295-6.829-33.782m10.3-38.948c-5.473-16.543-30.342-15.9-30.342-15.9l-.305.029.119,1.119a9.124,9.124,0,0,1,.163,1.3c.638,8.458-8.85,8.82-8.85,8.82-11.638-.285-11.455-7.584-11.455-7.584l-.039-3.693h-.186S100.88,40.3,97.177,62.948a29.727,29.727,0,0,0-.266,6.4,104.907,104.907,0,0,0,1.794,14.931s1.277-6.375,14.067-10.324c.041-.01.09-.029.129-.039a49.106,49.106,0,0,0,9.817-8.209,137.468,137.468,0,0,0,10.93-12.987.643.643,0,0,1-.029-.176l-.489-.227a.96.96,0,0,1-.439-1.284c.015-.028.029-.055.046-.082a3.4,3.4,0,0,1,1.07-1.041l1.248-.776a3.864,3.864,0,0,1,1.974-.56l2.426-1.2a3.383,3.383,0,0,1,1.179-.326,1.856,1.856,0,0,1,.52-.029l5.383.326a2.056,2.056,0,0,1,1.649,1.021l5.546,9.714a7.409,7.409,0,0,0,1.7,1.993l4.241,3.468.01.01,1.631,1.326a22.154,22.154,0,0,0,2.985,2.044,58.539,58.539,0,0,0,5.7,2.848l.266.117a31.173,31.173,0,0,0,5.657,1.837s7.8,1.68,9.961,6.68c-.56-2.643-6.011-26.787-6.011-26.787" transform="translate(61.137 45.554)" fill="#e95934"/>
          <path id="Trazado_202649" data-name="Trazado 202649" d="M142.3,74.02a64.322,64.322,0,0,1-7.83,3.915,63.634,63.634,0,0,1-8.241,2.936,63.286,63.286,0,0,1,7.83-3.915A64.126,64.126,0,0,1,142.3,74.02" transform="translate(79.685 69.732)" fill="#9e1f10"/>
          <path id="Trazado_202650" data-name="Trazado 202650" d="M113.632,87.489a46.222,46.222,0,0,1,6.992-4.341,48.172,48.172,0,0,1,7.581-3.2,66.964,66.964,0,0,1-7.1,4.137,73.749,73.749,0,0,1-7.475,3.4" transform="translate(71.734 73.475)" fill="#9e1f10"/>
          <path id="Trazado_202651" data-name="Trazado 202651" d="M130.394,51.8l.652,13.791a17.834,17.834,0,0,0-5.254,6.1c-2.889,5.373-6.907,12.5-12.416,15.432a10.819,10.819,0,0,1-6.2,1.4c-.266-2.711-.471-4.46-.489-4.617,3.634-2.594,8.2-7.289,13.05-15.776l6.179-11.138a3.627,3.627,0,0,1,1.316-1.326l.679-.393a5.16,5.16,0,0,0,2.475-3.478" transform="translate(67.35 55.703)" fill="#d43b19"/>
          <path id="Trazado_202652" data-name="Trazado 202652" d="M151.554,80.283a26.894,26.894,0,0,1-7.318-2c-4.362-2.338-7.377-6.453-10.078-10.383a10.093,10.093,0,0,0-8.419-4.695l-.364-11.189a2.07,2.07,0,0,0,3.537.186,6.628,6.628,0,0,0,2.838,2.61l1.641.767a9.6,9.6,0,0,1,2.318,3.065,53.459,53.459,0,0,0,3.232,5.4,51.1,51.1,0,0,0,12.476,12.828c0,1.07.049,2.21.137,3.409" transform="translate(79.147 55.84)" fill="#d43b19"/>
          <path id="Trazado_202653" data-name="Trazado 202653" d="M129.875,85.946l.284,5.806c-4.656.489-9.145.962-13.27,3.426a61.817,61.817,0,0,0-5.166,3.507c.618-.962,1.1-1.935,2.033-3.426,2.033-1.4,3.408-3.949,5.709-5.334a54.767,54.767,0,0,1,10.411-3.979" transform="translate(70.528 77.261)" fill="#d43b19"/>
          <path id="Trazado_202654" data-name="Trazado 202654" d="M145.623,83.982c-3.556,1.07-5.442,4.8-8.143,7.112a20.58,20.58,0,0,1-6.218,4.223,18.425,18.425,0,0,1-4.568.825l-.264-7.967a50.456,50.456,0,0,0,8.026-4.894c1.974-1.522,3.762-3.732,5.825-5.01-.051,2.887-3.341,6.036-5.178,8.065-1.659,1.847-3.83,3.449-5.313,5.3,5.933-.078,9.881-7.279,15.835-7.652" transform="translate(79.812 72.417)" fill="#d43b19"/>
          <path id="Trazado_202655" data-name="Trazado 202655" d="M116.735,55.084a49.155,49.155,0,0,1-9.814,8.212c-.041.01-.088.029-.129.039-.137-1.944.08-4.008,0-6.021a32.425,32.425,0,0,1-.471-4.765c.532,1.4,3.173,1.876,4.44,2.23a11.813,11.813,0,0,0,4.517.653,11.362,11.362,0,0,0,1.455-.344" transform="translate(67.118 56.178)" fill="#d43b19"/>
          <path id="Trazado_202656" data-name="Trazado 202656" d="M145.68,60.052a58.531,58.531,0,0,1-5.7-2.848A22.07,22.07,0,0,1,137,55.159l-1.631-1.326a10.3,10.3,0,0,0,4.194-.147c2.033-.489,3.378-1.807,5.137-2.564.708,2.161.276,4.961.608,7.249a16.872,16.872,0,0,0,.374,1.68" transform="translate(85.453 55.277)" fill="#d43b19"/>
          <path id="Trazado_202657" data-name="Trazado 202657" d="M108.779,41.2A18.443,18.443,0,0,0,121.906,51.79c-5.279-1.1-7.656-6.951-9.6-11.217-.793,1.106.163,2.742-.021,4-1.553-.163-2.876-2.343-3.509-3.375" transform="translate(68.669 48.618)" fill="#d43b19"/>
          <path id="Trazado_202658" data-name="Trazado 202658" d="M131.246,48.186a12.737,12.737,0,0,1,1.958-.259,16,16,0,0,0,5.453-2.891c1.873-1.318,2.956-3.236,4.641-4.568a9.462,9.462,0,0,1-5.569,8.063c-1.786.959-5.176,1.816-6.484-.339" transform="translate(82.852 48.552)" fill="#d43b19"/>
          <path id="Trazado_202659" data-name="Trazado 202659" d="M142.375,63.735a.528.528,0,0,1-.506-.377c-1.884-6.333-.09-16.226-.013-16.639a.529.529,0,0,1,1.039.191c-.018.1-1.824,10.065-.013,16.15a.53.53,0,0,1-.506.675" transform="translate(89.017 52.235)" fill="#9e1f10"/>
          <path id="Trazado_202660" data-name="Trazado 202660" d="M107.742,66.556h-.028a.527.527,0,0,1-.5-.553v0a52.1,52.1,0,0,0-2.178-17.093.529.529,0,0,1,1-.349,52.121,52.121,0,0,1,2.237,17.5.529.529,0,0,1-.527.5" transform="translate(66.293 53.45)" fill="#9e1f10"/>
          <path id="Trazado_202661" data-name="Trazado 202661" d="M172.313,78.793s-.011.069-.039.2c-.334,1.453-2.742,10.256-11.838,6.582a25.629,25.629,0,0,1-4.843-2.773A51.089,51.089,0,0,1,143.118,69.97a53.49,53.49,0,0,1-3.233-5.4,9.6,9.6,0,0,0-2.318-3.065l-1.639-.767a6.628,6.628,0,0,1-2.838-2.61,6.816,6.816,0,0,1-.561-1.268l-2.387-7.269-2.573-.953a1.62,1.62,0,0,0-.652-.108l-3.94.147-1.612.52a1.217,1.217,0,0,1-1.533-.786c-.007-.02-.013-.039-.018-.059a.644.644,0,0,1-.029-.176l-.489-.227a.959.959,0,0,1-.439-1.284c.015-.028.029-.055.046-.082a3.361,3.361,0,0,1,1.07-1.041l1.248-.776a3.864,3.864,0,0,1,1.974-.56l2.427-1.2a3.418,3.418,0,0,1,1.179-.326,1.856,1.856,0,0,1,.52-.029l5.383.326A2.053,2.053,0,0,1,134.355,44l5.546,9.714a7.409,7.409,0,0,0,1.7,1.993l5.873,4.8a22.048,22.048,0,0,0,3,2.046,57.954,57.954,0,0,0,5.962,2.967c.069.029.129.049.2.078a30.7,30.7,0,0,0,5.46,1.759s7.793,1.683,9.956,6.678v.02a6.953,6.953,0,0,1,.266,4.731" transform="translate(74.969 49.925)" fill="#f8ad83"/>
          <path id="Trazado_202662" data-name="Trazado 202662" d="M146.251,55.9a2.073,2.073,0,0,1-3.537-.181.1.1,0,0,1-.039.078,1.4,1.4,0,0,1-2.357-.688,7.79,7.79,0,0,0-.855-2.284,1.707,1.707,0,0,0-1.484-.884,1.683,1.683,0,0,0-1.651,1.375l-.392,2.044a5.16,5.16,0,0,1-2.475,3.478l-.679.393a3.639,3.639,0,0,0-1.316,1.326L125.278,71.7c-4.843,8.483-9.409,13.182-13.05,15.776-4.941,3.527-8.213,3.163-8.213,3.163-7.178-2.093-6.09-12.054-5.992-12.877a.243.243,0,0,0,.008-.059s1.287-6.414,14.192-10.364c.088-.049.186-.108.276-.163,9.145-5.452,20.471-21.03,20.471-21.03a1.22,1.22,0,0,0,1.494.863l.059-.018,1.612-.52,3.938-.147a1.621,1.621,0,0,1,.653.108l2.574.953,2.387,7.269a6.833,6.833,0,0,0,.561,1.258" transform="translate(61.807 52.137)" fill="#f8ad83"/>
          <path id="Trazado_202663" data-name="Trazado 202663" d="M127.107,55.63a.547.547,0,0,1-.1-.01.53.53,0,0,1-.416-.62c.106-.538.9-5.3-3.623-6.864a.529.529,0,0,1,.344-1c5.372,1.852,4.44,7.435,4.316,8.065a.527.527,0,0,1-.517.426" transform="translate(77.415 52.748)" fill="#b7492e"/>
          <path id="Trazado_202664" data-name="Trazado 202664" d="M129.576,45.349a.525.525,0,0,1-.3-.09l-1-.675a1.363,1.363,0,0,0-.793-.248h-5.807a.528.528,0,0,1,0-1.055h5.807a2.418,2.418,0,0,1,1.39.434l1,.67a.529.529,0,0,1-.3.966" transform="translate(76.497 50.327)" fill="#b7492e"/>
          <path id="Trazado_202665" data-name="Trazado 202665" d="M132.9,57.532a.53.53,0,0,1-.46-.268,7.564,7.564,0,0,1-.6-1.349l-2.307-7.036-2.338-.861a1.182,1.182,0,0,0-.439-.073l-3.868.139-1.546.489a1.767,1.767,0,0,1-1.378-.132,1.725,1.725,0,0,1-.845-1.08.985.985,0,0,1-.047-.256,1.185,1.185,0,0,1-.011-.186,1.734,1.734,0,0,1,.967-1.56l.909-.453a2.835,2.835,0,0,1,1.17-.3c1.212-.042,5.926-.2,6.088-.2a.529.529,0,0,1,.059,1.055.352.352,0,0,1-.059,0c-.163,0-4.4.142-6.054.2a1.791,1.791,0,0,0-.732.188l-.909.455a.686.686,0,0,0-.383.615.562.562,0,0,1,.011.127.711.711,0,0,0,.347.468.7.7,0,0,0,.55.052l1.613-.517a.517.517,0,0,1,.142-.024l3.94-.148a2.159,2.159,0,0,1,.845.137l2.576.951a.523.523,0,0,1,.326.326l2.374,7.3a6.724,6.724,0,0,0,.517,1.161.526.526,0,0,1-.2.718l0,0a.525.525,0,0,1-.261.069" transform="translate(75.159 51.037)" fill="#b7492e"/>
          <path id="Trazado_202666" data-name="Trazado 202666" d="M131.922,44.729a.527.527,0,0,1-.455-.261,1.543,1.543,0,0,0-1.227-.765l-5.383-.316a1.548,1.548,0,0,0-.388.013,2.936,2.936,0,0,0-1.055.285.528.528,0,1,1-.507-.927.369.369,0,0,1,.057-.028,3.882,3.882,0,0,1,1.367-.377,2.387,2.387,0,0,1,.591-.021l5.383.318a2.587,2.587,0,0,1,2.07,1.282.528.528,0,0,1-.184.723h0a.516.516,0,0,1-.268.073" transform="translate(77.414 49.723)" fill="#b7492e"/>
          <path id="Trazado_202667" data-name="Trazado 202667" d="M111.853,63.444c-1.1,1.395-3.426,1.571-5.031,2.2-2.61,1.031-5.894,3.192-8.842,3.979a.37.37,0,0,0,.01-.059S99.278,63.15,112.183,59.2c.088-.049.186-.108.276-.163a5.679,5.679,0,0,1-.608,4.4" transform="translate(61.853 60.275)" fill="#f08262"/>
          <path id="Trazado_202668" data-name="Trazado 202668" d="M157.656,69.909s-.011.069-.039.2A3.434,3.434,0,0,1,156,69.348c-2.455-1.905-2.564-5.068-5.709-6.326-4.037-1.621-6.876-3.329-8.32-6.307a30.7,30.7,0,0,0,5.46,1.759s7.8,1.68,9.961,6.68v.02a6.953,6.953,0,0,1,.266,4.731" transform="translate(89.627 58.808)" fill="#f08262"/>
        </g>
      </g>
    </g>
  </g>
</svg>
