<svg xmlns="http://www.w3.org/2000/svg" width="295" height="71" viewBox="0 0 295 71">
  <g id="Grupo_152522" data-name="Grupo 152522" transform="translate(-180 -7533)">
    <g id="Grupo_152521" data-name="Grupo 152521">
      <path id="Trazado_194608" data-name="Trazado 194608" d="M0,0H295V40H0Z" transform="translate(180 7563.643)" fill="#e5efd4"/>
      <path id="Trazado_210312" data-name="Trazado 210312" d="M12.949,21H9.541L4.5,12.152V21H1.074V6.781H4.5l5.029,8.848V6.781h3.418Zm1.6-5.381a6.236,6.236,0,0,1,.615-2.817,4.4,4.4,0,0,1,1.768-1.9,5.323,5.323,0,0,1,2.705-.664,4.858,4.858,0,0,1,3.74,1.47,5.64,5.64,0,0,1,1.367,4v.117a5.472,5.472,0,0,1-1.372,3.921,4.871,4.871,0,0,1-3.716,1.45,4.927,4.927,0,0,1-3.623-1.353,5.29,5.29,0,0,1-1.475-3.667Zm3.291.205a3.932,3.932,0,0,0,.459,2.148,1.529,1.529,0,0,0,1.357.684q1.758,0,1.8-2.705v-.332q0-2.842-1.816-2.842-1.65,0-1.787,2.451Zm14.746-2.412L31.5,13.334a1.947,1.947,0,0,0-1.992.977V21H26.221V10.434h3.086l.107,1.357a2.548,2.548,0,0,1,2.314-1.553,3.209,3.209,0,0,1,.918.117Zm4.3-2.979.107,1.24a3.633,3.633,0,0,1,3.018-1.436,2.675,2.675,0,0,1,2.705,1.592,3.516,3.516,0,0,1,3.105-1.592q3.213,0,3.3,3.887V21h-3.3V14.33a2.014,2.014,0,0,0-.273-1.182,1.164,1.164,0,0,0-1-.371,1.559,1.559,0,0,0-1.455.869l.01.137V21H39.8V14.35a2.117,2.117,0,0,0-.264-1.2,1.161,1.161,0,0,0-1.006-.371,1.578,1.578,0,0,0-1.445.869V21H33.8V10.434ZM56.953,21a3.716,3.716,0,0,1-.312-.947A3.06,3.06,0,0,1,54.1,21.2a3.749,3.749,0,0,1-2.539-.9,2.875,2.875,0,0,1-1.045-2.271,2.955,2.955,0,0,1,1.27-2.6,6.468,6.468,0,0,1,3.691-.879h1.016v-.559q0-1.462-1.26-1.462a1.03,1.03,0,0,0-1.172,1.158H50.771a2.95,2.95,0,0,1,1.3-2.487,5.479,5.479,0,0,1,3.325-.956,4.8,4.8,0,0,1,3.193.986,3.429,3.429,0,0,1,1.2,2.705v4.678a4.79,4.79,0,0,0,.449,2.227V21Zm-2.061-2.148a1.836,1.836,0,0,0,1.021-.264,1.653,1.653,0,0,0,.581-.6V16.3h-.957q-1.719,0-1.719,1.543a.942.942,0,0,0,.3.728A1.1,1.1,0,0,0,54.893,18.852Zm12.256-.82a.76.76,0,0,0-.439-.674,6.684,6.684,0,0,0-1.67-.527,7.615,7.615,0,0,1-2.031-.718,3.4,3.4,0,0,1-1.221-1.079,2.577,2.577,0,0,1-.42-1.455,2.92,2.92,0,0,1,1.2-2.4,4.948,4.948,0,0,1,3.145-.942,5.482,5.482,0,0,1,3.359.947,2.962,2.962,0,0,1,1.27,2.49h-3.3q0-1.27-1.338-1.27a1.326,1.326,0,0,0-.869.288.892.892,0,0,0-.352.718.819.819,0,0,0,.43.713,4.06,4.06,0,0,0,1.372.449,11.857,11.857,0,0,1,1.655.42,3.007,3.007,0,0,1,2.383,2.939,2.767,2.767,0,0,1-1.284,2.354,5.631,5.631,0,0,1-3.325.908,5.747,5.747,0,0,1-2.422-.488,4.05,4.05,0,0,1-1.66-1.328,3.007,3.007,0,0,1-.6-1.768h3.076a1.272,1.272,0,0,0,.488,1.069,2.009,2.009,0,0,0,1.2.337,1.58,1.58,0,0,0,1.011-.273A.875.875,0,0,0,67.148,18.031Z" transform="translate(285 7573.276)" fill="#12263f"/>
      <path id="Trazado_194609" data-name="Trazado 194609" d="M0,0,85,40H0Z" transform="translate(180 7563.643)" fill="#869d69"/>
      <g id="tarea-completada" transform="translate(194 7533)">
        <path id="Trazado_203286" data-name="Trazado 203286" d="M4.438,16H53.25a4.438,4.438,0,0,1,4.438,4.438V80.344a4.438,4.438,0,0,1-4.437,4.438H4.438A4.438,4.438,0,0,1,0,80.344V20.438A4.438,4.438,0,0,1,4.438,16Zm0,0" transform="translate(0 -13.781)" fill="#ffc846"/>
        <path id="Trazado_203287" data-name="Trazado 203287" d="M32,93.294V48H80.813v59.906h-34.2Zm0,0" transform="translate(-27.563 -41.344)" fill="#efefef"/>
        <path id="Trazado_203288" data-name="Trazado 203288" d="M46.613,374.625v14.613L32,374.625Zm0,0" transform="translate(-27.563 -322.675)" fill="#afafaf"/>
        <path id="Trazado_203289" data-name="Trazado 203289" d="M128,8.875V0h22.188V8.875a4.438,4.438,0,0,1-4.437,4.438H132.438A4.438,4.438,0,0,1,128,8.875Zm0,0" transform="translate(-110.25)" fill="#942e19"/>
        <path id="Trazado_203290" data-name="Trazado 203290" d="M263.938,243.969A19.969,19.969,0,1,1,243.969,224,19.969,19.969,0,0,1,263.938,243.969Zm0,0" transform="translate(-192.938 -192.938)" fill="#942e19"/>
        <path id="Trazado_203291" data-name="Trazado 203291" d="M304.265,337.133l-4.3-4.3a2.219,2.219,0,0,1,3.137-3.137l1.438,1.435,10.049-8.376a2.22,2.22,0,0,1,2.842,3.41Zm0,0" transform="translate(-257.809 -277.553)" fill="#fff"/>
        <g id="Grupo_151201" data-name="Grupo 151201" transform="translate(13.313 17.75)">
          <path id="Trazado_203292" data-name="Trazado 203292" d="M162.219,128h17.75a2.219,2.219,0,0,1,0,4.438h-17.75a2.219,2.219,0,0,1,0-4.437Zm0,0" transform="translate(-151.125 -128)" fill="#77959e"/>
          <path id="Trazado_203293" data-name="Trazado 203293" d="M96,128h4.438v4.438H96Zm0,0" transform="translate(-96 -128)" fill="#77959e"/>
          <path id="Trazado_203294" data-name="Trazado 203294" d="M96,192h4.438v4.438H96Zm0,0" transform="translate(-96 -183.125)" fill="#77959e"/>
          <path id="Trazado_203295" data-name="Trazado 203295" d="M96,256h4.438v4.438H96Zm0,0" transform="translate(-96 -238.25)" fill="#77959e"/>
          <path id="Trazado_203296" data-name="Trazado 203296" d="M96,320h4.438v4.438H96Zm0,0" transform="translate(-96 -293.375)" fill="#77959e"/>
          <path id="Trazado_203297" data-name="Trazado 203297" d="M162.219,192h13.313a2.219,2.219,0,0,1,0,4.438H162.219a2.219,2.219,0,0,1,0-4.437Zm0,0" transform="translate(-151.125 -183.125)" fill="#77959e"/>
          <path id="Trazado_203298" data-name="Trazado 203298" d="M162.219,256h4.438a2.219,2.219,0,0,1,0,4.438h-4.437a2.219,2.219,0,0,1,0-4.437Zm0,0" transform="translate(-151.125 -238.25)" fill="#77959e"/>
        </g>
      </g>
    </g>
  </g>
</svg>
