<svg xmlns="http://www.w3.org/2000/svg" xmlns:xlink="http://www.w3.org/1999/xlink" width="1240" height="104.26" viewBox="0 0 1240 104.26">
  <defs>
    <linearGradient id="linear-gradient" x1="0.5" y1="0.635" x2="0.5" y2="1" gradientUnits="objectBoundingBox">
      <stop offset="0" stop-color="#fff7e4"/>
      <stop offset="1" stop-color="#fff"/>
    </linearGradient>
    <linearGradient id="linear-gradient-2" x1="0.5" x2="0.5" y2="1" gradientUnits="objectBoundingBox">
      <stop offset="0" stop-color="#fff7e4"/>
      <stop offset="0.529" stop-color="#fff8e6"/>
      <stop offset="1" stop-color="#fff"/>
    </linearGradient>
    <linearGradient id="linear-gradient-3" x1="0.5" y1="0.527" x2="0.5" y2="1" gradientUnits="objectBoundingBox">
      <stop offset="0" stop-color="#e5efd4"/>
      <stop offset="1" stop-color="#fff"/>
    </linearGradient>
    <clipPath id="clip-path">
      <rect id="Rectángulo_43531" data-name="Rectángulo 43531" width="1120.066" height="77.479" transform="translate(0 0)" fill="none"/>
    </clipPath>
  </defs>
  <g id="Grupo_152439" data-name="Grupo 152439" transform="translate(-180 -8777.428)">
    <g id="Grupo_151142" data-name="Grupo 151142" transform="translate(0 -189)">
      <g id="Grupo_149980" data-name="Grupo 149980" transform="translate(0 5947.936)">
        <g id="Grupo_149698" data-name="Grupo 149698" transform="translate(0 -40.508)">
          <path id="Trazado_197889" data-name="Trazado 197889" d="M7575-8551.441V-8625h288v81.726" transform="translate(-7388 11700)" fill="none" stroke="#942e19" stroke-width="2"/>
          <path id="Trazado_197890" data-name="Trazado 197890" d="M7599.126-8634.763l-9.092-5.946-8.419,14.786H7596.6Z" transform="translate(-7388 11700)" fill="#869d69"/>
          <path id="Trazado_197897" data-name="Trazado 197897" d="M7599.126-8636.205l-9.092-4.5-8.419,11.2H7596.6Z" transform="translate(-6778.616 11700)" fill="#869d69"/>
          <rect id="Rectángulo_41502" data-name="Rectángulo 41502" width="280" height="77.479" transform="translate(495 3059)" fill="url(#linear-gradient)"/>
          <rect id="Rectángulo_41505" data-name="Rectángulo 41505" width="270" height="77.479" transform="translate(1125 3059)" fill="url(#linear-gradient-2)"/>
          <circle id="Elipse_4788" data-name="Elipse 4788" cx="7" cy="7" r="7" transform="translate(180 3142.091)" fill="#942e19"/>
          <path id="Trazado_197892" data-name="Trazado 197892" d="M7863-8593.143v49.233h315v-84.773h315v84.773h307.808v-86.951" transform="translate(-7388 11700)" fill="none" stroke="#942e19" stroke-width="2"/>
          <rect id="Rectángulo_41501" data-name="Rectángulo 41501" width="258" height="77.479" transform="translate(202 3059)" fill="url(#linear-gradient-3)"/>
          <rect id="Rectángulo_41504" data-name="Rectángulo 41504" width="278" height="77.479" transform="translate(811.385 3059)" fill="url(#linear-gradient-3)"/>
          <path id="Trazado_197896" data-name="Trazado 197896" d="M7842.411-8574.677l12.062,7.169-12.062,7.17Z" transform="translate(-7064.472 11723.598)" fill="#942e19"/>
          <circle id="Elipse_4789" data-name="Elipse 4789" cx="7" cy="7" r="7" transform="translate(1406 3059)" fill="#942e19"/>
        </g>
      </g>
      <g id="Grupo_152438" data-name="Grupo 152438" transform="translate(202 8966.428)">
        <path id="Trazado_208574" data-name="Trazado 208574" d="M68.465,41.532h4.977v1.883H66.121V32.04h2.344Z" fill="#12263f"/>
        <g id="Grupo_152431" data-name="Grupo 152431">
          <g id="Grupo_152430" data-name="Grupo 152430" clip-path="url(#clip-path)">
            <path id="Trazado_208575" data-name="Trazado 208575" d="M79.535,43.415a2.489,2.489,0,0,1-.226-.758,2.731,2.731,0,0,1-2.133.915,3,3,0,0,1-2.059-.719A2.313,2.313,0,0,1,74.3,41.04a2.389,2.389,0,0,1,1-2.062,4.906,4.906,0,0,1,2.879-.727h1.039v-.484a1.4,1.4,0,0,0-.3-.938,1.185,1.185,0,0,0-.949-.351,1.348,1.348,0,0,0-.895.273.931.931,0,0,0-.324.75H74.488a2.269,2.269,0,0,1,.453-1.359,3,3,0,0,1,1.282-.981,4.665,4.665,0,0,1,1.859-.355,3.694,3.694,0,0,1,2.481.785,2.75,2.75,0,0,1,.918,2.207v3.664a4.034,4.034,0,0,0,.335,1.82v.133Zm-1.867-1.57a1.939,1.939,0,0,0,.922-.223,1.463,1.463,0,0,0,.625-.6V39.572h-.844q-1.7,0-1.805,1.171l-.007.133a.9.9,0,0,0,.3.7,1.151,1.151,0,0,0,.812.273" fill="#12263f"/>
            <path id="Trazado_208576" data-name="Trazado 208576" d="M90.715,41.751a1.478,1.478,0,0,0,1.016-.344,1.208,1.208,0,0,0,.406-.914h2.117a2.9,2.9,0,0,1-.469,1.574,3.093,3.093,0,0,1-1.261,1.11,3.967,3.967,0,0,1-1.77.394,3.665,3.665,0,0,1-2.859-1.152,4.556,4.556,0,0,1-1.047-3.184v-.148a4.506,4.506,0,0,1,1.039-3.117,3.622,3.622,0,0,1,2.851-1.164,3.552,3.552,0,0,1,2.543.9,3.2,3.2,0,0,1,.973,2.4H92.137a1.559,1.559,0,0,0-.406-1.072,1.511,1.511,0,0,0-2.223.163,3.327,3.327,0,0,0-.4,1.866V39.3a3.374,3.374,0,0,0,.4,1.878,1.376,1.376,0,0,0,1.211.571" fill="#12263f"/>
            <path id="Trazado_208577" data-name="Trazado 208577" d="M95.191,39.111a5,5,0,0,1,.485-2.242,3.538,3.538,0,0,1,1.394-1.524,4.072,4.072,0,0,1,2.113-.539,3.848,3.848,0,0,1,2.793,1.047,4.2,4.2,0,0,1,1.207,2.844l.016.578a4.418,4.418,0,0,1-1.086,3.121,4.208,4.208,0,0,1-5.832,0,4.494,4.494,0,0,1-1.09-3.188Zm2.258.16a3.16,3.16,0,0,0,.453,1.843,1.629,1.629,0,0,0,2.578.008,3.461,3.461,0,0,0,.461-2.015,3.13,3.13,0,0,0-.461-1.831,1.5,1.5,0,0,0-1.3-.65,1.472,1.472,0,0,0-1.281.646,3.518,3.518,0,0,0-.453,2" fill="#12263f"/>
            <path id="Trazado_208578" data-name="Trazado 208578" d="M106.668,34.962l.07.977a2.952,2.952,0,0,1,2.43-1.133,2.45,2.45,0,0,1,2,.789,3.686,3.686,0,0,1,.672,2.359v5.461h-2.258V38a1.474,1.474,0,0,0-.312-1.045,1.4,1.4,0,0,0-1.04-.325,1.552,1.552,0,0,0-1.429.815v5.974h-2.258V34.962Z" fill="#12263f"/>
            <path id="Trazado_208579" data-name="Trazado 208579" d="M116.254,32.884v2.078H117.7v1.656h-1.445v4.219a1.007,1.007,0,0,0,.18.672.9.9,0,0,0,.687.2,3.554,3.554,0,0,0,.664-.055v1.711a4.629,4.629,0,0,1-1.367.2,2.156,2.156,0,0,1-2.422-2.4V36.618h-1.234V34.962H114V32.884Z" fill="#12263f"/>
            <path id="Trazado_208580" data-name="Trazado 208580" d="M123.855,43.415a2.489,2.489,0,0,1-.226-.758,2.731,2.731,0,0,1-2.133.915,3,3,0,0,1-2.059-.719,2.313,2.313,0,0,1-.816-1.813,2.389,2.389,0,0,1,1-2.062,4.906,4.906,0,0,1,2.879-.727h1.039v-.484a1.4,1.4,0,0,0-.3-.938,1.185,1.185,0,0,0-.949-.351,1.348,1.348,0,0,0-.9.273.931.931,0,0,0-.324.75h-2.258a2.269,2.269,0,0,1,.453-1.359,3,3,0,0,1,1.282-.981,4.665,4.665,0,0,1,1.859-.355,3.694,3.694,0,0,1,2.481.785A2.75,2.75,0,0,1,125.8,37.8v3.664a4.034,4.034,0,0,0,.335,1.82v.133Zm-1.867-1.57a1.939,1.939,0,0,0,.922-.223,1.463,1.463,0,0,0,.625-.6V39.572h-.844q-1.7,0-1.805,1.171l-.007.133a.9.9,0,0,0,.3.7,1.151,1.151,0,0,0,.812.273" fill="#12263f"/>
            <path id="Trazado_208581" data-name="Trazado 208581" d="M129.652,34.962l.07.945a2.972,2.972,0,0,1,2.43-1.1,2.254,2.254,0,0,1,2.242,1.289,2.9,2.9,0,0,1,2.539-1.289,2.518,2.518,0,0,1,2.047.8,3.678,3.678,0,0,1,.672,2.41v5.4h-2.266v-5.4a1.613,1.613,0,0,0-.281-1.053,1.243,1.243,0,0,0-.992-.333,1.409,1.409,0,0,0-1.406.971l.007,5.818h-2.257v-5.4a1.6,1.6,0,0,0-.289-1.065,1.255,1.255,0,0,0-.985-.329,1.463,1.463,0,0,0-1.39.8v5.99h-2.258V34.962Z" fill="#12263f"/>
            <path id="Trazado_208582" data-name="Trazado 208582" d="M141.371,32.775a1.109,1.109,0,0,1,.34-.836,1.461,1.461,0,0,1,1.847,0,1.193,1.193,0,0,1,0,1.679,1.449,1.449,0,0,1-1.836,0,1.106,1.106,0,0,1-.348-.843m2.4,10.64H141.5V34.962h2.266Z" fill="#12263f"/>
            <path id="Trazado_208583" data-name="Trazado 208583" d="M147.707,34.962l.07.977a2.952,2.952,0,0,1,2.43-1.133,2.45,2.45,0,0,1,2,.789,3.687,3.687,0,0,1,.672,2.359v5.461h-2.258V38a1.474,1.474,0,0,0-.312-1.045,1.4,1.4,0,0,0-1.04-.325,1.552,1.552,0,0,0-1.429.815v5.974h-2.258V34.962Z" fill="#12263f"/>
            <path id="Trazado_208584" data-name="Trazado 208584" d="M159.488,43.415a2.489,2.489,0,0,1-.226-.758,2.731,2.731,0,0,1-2.133.915,3,3,0,0,1-2.059-.719,2.313,2.313,0,0,1-.816-1.813,2.389,2.389,0,0,1,1-2.062,4.906,4.906,0,0,1,2.879-.727h1.039v-.484a1.4,1.4,0,0,0-.3-.938,1.185,1.185,0,0,0-.949-.351,1.348,1.348,0,0,0-.9.273.931.931,0,0,0-.324.75h-2.258a2.269,2.269,0,0,1,.453-1.359,3,3,0,0,1,1.282-.981,4.665,4.665,0,0,1,1.859-.355,3.694,3.694,0,0,1,2.481.785,2.75,2.75,0,0,1,.918,2.207v3.664a4.034,4.034,0,0,0,.335,1.82v.133Zm-1.867-1.57a1.939,1.939,0,0,0,.922-.223,1.463,1.463,0,0,0,.625-.6V39.572h-.844q-1.7,0-1.805,1.171l-.007.133a.9.9,0,0,0,.3.7,1.151,1.151,0,0,0,.812.273" fill="#12263f"/>
            <path id="Trazado_208585" data-name="Trazado 208585" d="M166.683,41.751a1.478,1.478,0,0,0,1.016-.344,1.208,1.208,0,0,0,.406-.914h2.117a2.9,2.9,0,0,1-.469,1.574,3.093,3.093,0,0,1-1.261,1.11,3.967,3.967,0,0,1-1.77.394,3.665,3.665,0,0,1-2.859-1.152,4.556,4.556,0,0,1-1.047-3.184v-.148a4.506,4.506,0,0,1,1.039-3.117,3.622,3.622,0,0,1,2.851-1.164,3.552,3.552,0,0,1,2.543.9,3.2,3.2,0,0,1,.973,2.4H168.1a1.559,1.559,0,0,0-.406-1.072,1.511,1.511,0,0,0-2.223.163,3.327,3.327,0,0,0-.4,1.866V39.3a3.374,3.374,0,0,0,.4,1.878,1.376,1.376,0,0,0,1.211.571" fill="#12263f"/>
            <path id="Trazado_208586" data-name="Trazado 208586" d="M171.5,32.775a1.109,1.109,0,0,1,.34-.836,1.461,1.461,0,0,1,1.847,0,1.193,1.193,0,0,1,0,1.679,1.449,1.449,0,0,1-1.836,0,1.106,1.106,0,0,1-.348-.843m2.4,10.64h-2.266V34.962h2.266Z" fill="#12263f"/>
            <path id="Trazado_208587" data-name="Trazado 208587" d="M175.4,39.11a5.009,5.009,0,0,1,.484-2.242,3.542,3.542,0,0,1,1.394-1.523,4.063,4.063,0,0,1,2.114-.539,3.85,3.85,0,0,1,2.793,1.046A4.209,4.209,0,0,1,183.4,38.7l.015.578a4.418,4.418,0,0,1-1.086,3.121,4.208,4.208,0,0,1-5.832,0,4.5,4.5,0,0,1-1.089-3.187Zm2.257.16a3.16,3.16,0,0,0,.453,1.843,1.628,1.628,0,0,0,2.579.008,3.462,3.462,0,0,0,.46-2.015,3.13,3.13,0,0,0-.46-1.831,1.5,1.5,0,0,0-1.3-.649,1.474,1.474,0,0,0-1.282.645,3.518,3.518,0,0,0-.453,2m2.18-7.855H182.3l-2.164,2.422H178.3Z" fill="#12263f"/>
            <path id="Trazado_208588" data-name="Trazado 208588" d="M186.879,34.962l.07.977a2.952,2.952,0,0,1,2.43-1.133,2.45,2.45,0,0,1,2,.789,3.687,3.687,0,0,1,.672,2.359v5.461h-2.258V38a1.474,1.474,0,0,0-.312-1.045,1.4,1.4,0,0,0-1.04-.325,1.552,1.552,0,0,0-1.429.815v5.974h-2.258V34.962Z" fill="#12263f"/>
          </g>
        </g>
        <path id="Trazado_208589" data-name="Trazado 208589" d="M387.446,41.532h4.977v1.883H385.1V32.04h2.344Z" fill="#12263f"/>
        <g id="Grupo_152433" data-name="Grupo 152433">
          <g id="Grupo_152432" data-name="Grupo 152432" clip-path="url(#clip-path)">
            <path id="Trazado_208590" data-name="Trazado 208590" d="M398.516,43.415a2.488,2.488,0,0,1-.226-.758,2.731,2.731,0,0,1-2.133.915,3,3,0,0,1-2.059-.719,2.313,2.313,0,0,1-.816-1.813,2.389,2.389,0,0,1,1-2.062,4.906,4.906,0,0,1,2.879-.727H398.2v-.484a1.4,1.4,0,0,0-.3-.938,1.185,1.185,0,0,0-.949-.351,1.348,1.348,0,0,0-.9.273.931.931,0,0,0-.324.75h-2.258a2.269,2.269,0,0,1,.453-1.359,3,3,0,0,1,1.282-.981,4.665,4.665,0,0,1,1.859-.355,3.694,3.694,0,0,1,2.481.785,2.75,2.75,0,0,1,.918,2.207v3.664a4.034,4.034,0,0,0,.335,1.82v.133Zm-1.867-1.57a1.939,1.939,0,0,0,.922-.223,1.463,1.463,0,0,0,.625-.6V39.572h-.844q-1.7,0-1.8,1.171l-.007.133a.9.9,0,0,0,.3.7,1.151,1.151,0,0,0,.812.273" fill="#12263f"/>
            <path id="Trazado_208591" data-name="Trazado 208591" d="M413.79,39.267A5.072,5.072,0,0,1,412.9,42.4a2.843,2.843,0,0,1-2.394,1.176,2.633,2.633,0,0,1-2.071-.891v3.984H406.18v-11.7h2.094l.078.828a2.655,2.655,0,0,1,2.141-.984,2.867,2.867,0,0,1,2.43,1.156,5.208,5.208,0,0,1,.867,3.188Zm-2.258-.172a3.353,3.353,0,0,0-.418-1.826,1.36,1.36,0,0,0-1.215-.643,1.479,1.479,0,0,0-1.461.815v3.471a1.5,1.5,0,0,0,1.477.839q1.617,0,1.617-2.656" fill="#12263f"/>
            <path id="Trazado_208592" data-name="Trazado 208592" d="M419.938,37.079a6.075,6.075,0,0,0-.812-.062,1.653,1.653,0,0,0-1.68.867v5.531h-2.258V34.962h2.133l.062,1.008a2.09,2.09,0,0,1,1.883-1.164,2.384,2.384,0,0,1,.7.1Z" fill="#12263f"/>
            <path id="Trazado_208593" data-name="Trazado 208593" d="M420.391,39.111a5,5,0,0,1,.485-2.242,3.538,3.538,0,0,1,1.394-1.524,4.072,4.072,0,0,1,2.113-.539,3.848,3.848,0,0,1,2.793,1.047,4.2,4.2,0,0,1,1.207,2.844l.016.578a4.418,4.418,0,0,1-1.086,3.121,4.208,4.208,0,0,1-5.832,0,4.494,4.494,0,0,1-1.09-3.188Zm2.258.16a3.16,3.16,0,0,0,.453,1.843,1.629,1.629,0,0,0,2.578.008,3.461,3.461,0,0,0,.461-2.015,3.13,3.13,0,0,0-.461-1.831,1.5,1.5,0,0,0-1.3-.65,1.472,1.472,0,0,0-1.281.646,3.518,3.518,0,0,0-.453,2" fill="#12263f"/>
            <path id="Trazado_208594" data-name="Trazado 208594" d="M432.492,32.884v2.078h1.445v1.656h-1.445v4.219a1.007,1.007,0,0,0,.18.672.9.9,0,0,0,.687.2,3.554,3.554,0,0,0,.664-.055v1.711a4.629,4.629,0,0,1-1.367.2,2.156,2.156,0,0,1-2.422-2.4V36.618H429V34.962h1.234V32.884Z" fill="#12263f"/>
            <path id="Trazado_208595" data-name="Trazado 208595" d="M439.086,43.571a4.152,4.152,0,0,1-3.028-1.14,4.059,4.059,0,0,1-1.168-3.039v-.219a5.1,5.1,0,0,1,.493-2.277,3.616,3.616,0,0,1,1.394-1.547,3.907,3.907,0,0,1,2.059-.543,3.508,3.508,0,0,1,2.73,1.093,4.446,4.446,0,0,1,1,3.1v.922H437.18a2.093,2.093,0,0,0,.66,1.328,2,2,0,0,0,1.394.5,2.436,2.436,0,0,0,2.039-.945l1.11,1.242a3.4,3.4,0,0,1-1.375,1.121,4.5,4.5,0,0,1-1.922.4m-.258-6.945a1.408,1.408,0,0,0-1.09.455,2.356,2.356,0,0,0-.535,1.3h3.141V38.2a1.681,1.681,0,0,0-.407-1.165,1.457,1.457,0,0,0-1.109-.412" fill="#12263f"/>
            <path id="Trazado_208596" data-name="Trazado 208596" d="M447.36,41.751a1.478,1.478,0,0,0,1.016-.344,1.208,1.208,0,0,0,.406-.914H450.9a2.894,2.894,0,0,1-.469,1.574,3.093,3.093,0,0,1-1.261,1.11,3.967,3.967,0,0,1-1.77.394,3.665,3.665,0,0,1-2.859-1.152,4.556,4.556,0,0,1-1.047-3.184v-.148a4.506,4.506,0,0,1,1.039-3.117,3.622,3.622,0,0,1,2.851-1.164,3.552,3.552,0,0,1,2.543.9,3.2,3.2,0,0,1,.973,2.4h-2.117a1.559,1.559,0,0,0-.406-1.072,1.511,1.511,0,0,0-2.223.163,3.327,3.327,0,0,0-.4,1.866V39.3a3.374,3.374,0,0,0,.4,1.878,1.376,1.376,0,0,0,1.211.571" fill="#12263f"/>
            <path id="Trazado_208597" data-name="Trazado 208597" d="M455.7,41.751a1.478,1.478,0,0,0,1.016-.344,1.208,1.208,0,0,0,.406-.914h2.117a2.9,2.9,0,0,1-.469,1.574,3.093,3.093,0,0,1-1.261,1.11,3.967,3.967,0,0,1-1.77.394,3.665,3.665,0,0,1-2.859-1.152,4.556,4.556,0,0,1-1.047-3.184v-.148a4.506,4.506,0,0,1,1.039-3.117,3.622,3.622,0,0,1,2.851-1.164,3.552,3.552,0,0,1,2.543.9,3.2,3.2,0,0,1,.973,2.4h-2.117a1.559,1.559,0,0,0-.406-1.072,1.511,1.511,0,0,0-2.223.163,3.327,3.327,0,0,0-.4,1.866V39.3a3.374,3.374,0,0,0,.4,1.878,1.376,1.376,0,0,0,1.211.571" fill="#12263f"/>
            <path id="Trazado_208598" data-name="Trazado 208598" d="M460.516,32.775a1.109,1.109,0,0,1,.34-.836,1.461,1.461,0,0,1,1.847,0,1.193,1.193,0,0,1,0,1.679,1.449,1.449,0,0,1-1.836,0,1.106,1.106,0,0,1-.348-.843m2.4,10.64h-2.266V34.962h2.266Z" fill="#12263f"/>
            <path id="Trazado_208599" data-name="Trazado 208599" d="M464.423,39.11a5.009,5.009,0,0,1,.484-2.242,3.542,3.542,0,0,1,1.394-1.523,4.063,4.063,0,0,1,2.114-.539,3.85,3.85,0,0,1,2.793,1.046,4.209,4.209,0,0,1,1.207,2.844l.015.578a4.418,4.418,0,0,1-1.086,3.121,4.208,4.208,0,0,1-5.832,0,4.5,4.5,0,0,1-1.089-3.187Zm2.257.16a3.16,3.16,0,0,0,.453,1.843,1.628,1.628,0,0,0,2.579.008,3.462,3.462,0,0,0,.46-2.015,3.13,3.13,0,0,0-.46-1.831,1.5,1.5,0,0,0-1.3-.649,1.474,1.474,0,0,0-1.282.645,3.518,3.518,0,0,0-.453,2m2.18-7.855h2.461l-2.164,2.422h-1.836Z" fill="#12263f"/>
            <path id="Trazado_208600" data-name="Trazado 208600" d="M475.9,34.962l.07.977a2.952,2.952,0,0,1,2.43-1.133,2.45,2.45,0,0,1,2,.789,3.687,3.687,0,0,1,.672,2.359v5.461h-2.258V38a1.474,1.474,0,0,0-.312-1.045,1.4,1.4,0,0,0-1.04-.325,1.552,1.552,0,0,0-1.429.815v5.974h-2.258V34.962Z" fill="#12263f"/>
          </g>
        </g>
        <path id="Trazado_208601" data-name="Trazado 208601" d="M701.416,41.532h4.977v1.883h-7.321V32.04h2.344Z" fill="#12263f"/>
        <g id="Grupo_152435" data-name="Grupo 152435">
          <g id="Grupo_152434" data-name="Grupo 152434" clip-path="url(#clip-path)">
            <path id="Trazado_208602" data-name="Trazado 208602" d="M712.486,43.415a2.489,2.489,0,0,1-.226-.758,2.731,2.731,0,0,1-2.133.915,3,3,0,0,1-2.059-.719,2.313,2.313,0,0,1-.816-1.813,2.389,2.389,0,0,1,1-2.062,4.908,4.908,0,0,1,2.879-.727h1.039v-.484a1.4,1.4,0,0,0-.3-.938,1.183,1.183,0,0,0-.949-.351,1.348,1.348,0,0,0-.9.273.934.934,0,0,0-.324.75h-2.258a2.276,2.276,0,0,1,.453-1.359,3,3,0,0,1,1.282-.981,4.665,4.665,0,0,1,1.859-.355,3.694,3.694,0,0,1,2.481.785,2.747,2.747,0,0,1,.918,2.207v3.664a4.033,4.033,0,0,0,.335,1.82v.133Zm-1.867-1.57a1.939,1.939,0,0,0,.922-.223,1.463,1.463,0,0,0,.625-.6V39.572h-.844q-1.7,0-1.8,1.171l-.007.133a.9.9,0,0,0,.3.7,1.153,1.153,0,0,0,.812.273" fill="#12263f"/>
            <path id="Trazado_208603" data-name="Trazado 208603" d="M727.76,39.267a5.071,5.071,0,0,1-.887,3.129,2.843,2.843,0,0,1-2.394,1.176,2.635,2.635,0,0,1-2.071-.891v3.984H720.15v-11.7h2.094l.078.828a2.655,2.655,0,0,1,2.141-.984,2.865,2.865,0,0,1,2.43,1.156,5.208,5.208,0,0,1,.867,3.188ZM725.5,39.1a3.352,3.352,0,0,0-.418-1.826,1.359,1.359,0,0,0-1.215-.643,1.479,1.479,0,0,0-1.461.815v3.471a1.5,1.5,0,0,0,1.477.839q1.617,0,1.617-2.656" fill="#12263f"/>
            <path id="Trazado_208604" data-name="Trazado 208604" d="M733.908,37.079a6.076,6.076,0,0,0-.812-.062,1.653,1.653,0,0,0-1.68.867v5.531h-2.258V34.962h2.133l.062,1.008a2.09,2.09,0,0,1,1.883-1.164,2.385,2.385,0,0,1,.7.1Z" fill="#12263f"/>
            <path id="Trazado_208605" data-name="Trazado 208605" d="M738.736,43.571a4.154,4.154,0,0,1-3.028-1.14,4.059,4.059,0,0,1-1.168-3.039v-.219a5.1,5.1,0,0,1,.493-2.277,3.616,3.616,0,0,1,1.394-1.547,3.907,3.907,0,0,1,2.059-.543,3.507,3.507,0,0,1,2.73,1.093,4.446,4.446,0,0,1,1,3.1v.922H736.83a2.1,2.1,0,0,0,.66,1.328,2,2,0,0,0,1.394.5,2.436,2.436,0,0,0,2.039-.945l1.11,1.242a3.4,3.4,0,0,1-1.375,1.121,4.5,4.5,0,0,1-1.922.4m-.258-6.945a1.408,1.408,0,0,0-1.09.455,2.363,2.363,0,0,0-.535,1.3h3.141V38.2a1.681,1.681,0,0,0-.407-1.165,1.457,1.457,0,0,0-1.109-.412" fill="#12263f"/>
            <path id="Trazado_208606" data-name="Trazado 208606" d="M746.557,40.657l1.57-5.695h2.36l-2.852,8.453h-2.156l-2.852-8.453h2.36Z" fill="#12263f"/>
            <path id="Trazado_208607" data-name="Trazado 208607" d="M755.268,43.571a4.154,4.154,0,0,1-3.028-1.14,4.058,4.058,0,0,1-1.168-3.039v-.219a5.1,5.1,0,0,1,.493-2.277,3.616,3.616,0,0,1,1.394-1.547,3.907,3.907,0,0,1,2.059-.543,3.507,3.507,0,0,1,2.73,1.093,4.446,4.446,0,0,1,1,3.1v.922h-5.382a2.1,2.1,0,0,0,.66,1.328,2,2,0,0,0,1.394.5,2.436,2.436,0,0,0,2.039-.945l1.11,1.242a3.4,3.4,0,0,1-1.375,1.121,4.5,4.5,0,0,1-1.922.4m-.258-6.945a1.408,1.408,0,0,0-1.09.455,2.364,2.364,0,0,0-.535,1.3h3.141V38.2a1.681,1.681,0,0,0-.407-1.165,1.457,1.457,0,0,0-1.109-.412" fill="#12263f"/>
            <path id="Trazado_208608" data-name="Trazado 208608" d="M762.1,34.962l.07.977a2.953,2.953,0,0,1,2.43-1.133,2.45,2.45,0,0,1,2,.789,3.687,3.687,0,0,1,.672,2.359v5.461h-2.258V38a1.474,1.474,0,0,0-.312-1.045,1.4,1.4,0,0,0-1.04-.325,1.552,1.552,0,0,0-1.429.815v5.974h-2.258V34.962Z" fill="#12263f"/>
            <path id="Trazado_208609" data-name="Trazado 208609" d="M772.5,41.751a1.478,1.478,0,0,0,1.016-.344,1.208,1.208,0,0,0,.406-.914h2.117a2.887,2.887,0,0,1-.469,1.574,3.087,3.087,0,0,1-1.261,1.11,3.967,3.967,0,0,1-1.77.394,3.667,3.667,0,0,1-2.859-1.152,4.556,4.556,0,0,1-1.047-3.184v-.148a4.506,4.506,0,0,1,1.039-3.117,3.622,3.622,0,0,1,2.851-1.164,3.55,3.55,0,0,1,2.543.9,3.2,3.2,0,0,1,.973,2.4h-2.117a1.559,1.559,0,0,0-.406-1.072,1.511,1.511,0,0,0-2.223.163,3.327,3.327,0,0,0-.4,1.866V39.3a3.374,3.374,0,0,0,.4,1.878,1.376,1.376,0,0,0,1.211.571" fill="#12263f"/>
            <path id="Trazado_208610" data-name="Trazado 208610" d="M777.314,32.775a1.112,1.112,0,0,1,.34-.836,1.462,1.462,0,0,1,1.848,0,1.191,1.191,0,0,1,0,1.679,1.449,1.449,0,0,1-1.836,0,1.106,1.106,0,0,1-.348-.843m2.4,10.64h-2.266V34.962h2.266Z" fill="#12263f"/>
            <path id="Trazado_208611" data-name="Trazado 208611" d="M781.221,39.11a5.009,5.009,0,0,1,.484-2.242,3.548,3.548,0,0,1,1.394-1.523,4.066,4.066,0,0,1,2.114-.539,3.85,3.85,0,0,1,2.793,1.046,4.2,4.2,0,0,1,1.207,2.844l.015.578a4.418,4.418,0,0,1-1.086,3.121,4.208,4.208,0,0,1-5.832,0,4.5,4.5,0,0,1-1.089-3.187Zm2.257.16a3.167,3.167,0,0,0,.453,1.843,1.628,1.628,0,0,0,2.579.008,3.462,3.462,0,0,0,.46-2.015,3.13,3.13,0,0,0-.46-1.831,1.5,1.5,0,0,0-1.3-.649,1.475,1.475,0,0,0-1.282.645,3.526,3.526,0,0,0-.453,2m2.18-7.855h2.461l-2.164,2.422h-1.836Z" fill="#12263f"/>
            <path id="Trazado_208612" data-name="Trazado 208612" d="M792.7,34.962l.07.977a2.953,2.953,0,0,1,2.43-1.133,2.45,2.45,0,0,1,2,.789,3.687,3.687,0,0,1,.672,2.359v5.461h-2.258V38a1.474,1.474,0,0,0-.312-1.045,1.4,1.4,0,0,0-1.04-.325,1.552,1.552,0,0,0-1.429.815v5.974h-2.258V34.962Z" fill="#12263f"/>
          </g>
        </g>
        <path id="Trazado_208613" data-name="Trazado 208613" d="M1000.91,31.532h4.977v1.883h-7.321V22.04h2.344Z" fill="#12263f"/>
        <g id="Grupo_152437" data-name="Grupo 152437">
          <g id="Grupo_152436" data-name="Grupo 152436" clip-path="url(#clip-path)">
            <path id="Trazado_208614" data-name="Trazado 208614" d="M1011.98,33.415a2.488,2.488,0,0,1-.226-.758,2.731,2.731,0,0,1-2.133.915,3,3,0,0,1-2.059-.719,2.313,2.313,0,0,1-.816-1.813,2.389,2.389,0,0,1,1-2.062,4.908,4.908,0,0,1,2.879-.727h1.039v-.484a1.4,1.4,0,0,0-.3-.938,1.184,1.184,0,0,0-.949-.351,1.348,1.348,0,0,0-.895.273.934.934,0,0,0-.324.75h-2.258a2.276,2.276,0,0,1,.453-1.359,3,3,0,0,1,1.282-.981,4.665,4.665,0,0,1,1.859-.355,3.694,3.694,0,0,1,2.481.785,2.747,2.747,0,0,1,.918,2.207v3.664a4.034,4.034,0,0,0,.335,1.82v.133Zm-1.867-1.57a1.939,1.939,0,0,0,.922-.223,1.463,1.463,0,0,0,.625-.6V29.572h-.844q-1.7,0-1.8,1.171l-.007.133a.9.9,0,0,0,.3.7,1.153,1.153,0,0,0,.812.273" fill="#12263f"/>
            <path id="Trazado_208615" data-name="Trazado 208615" d="M1020.238,31.079a.728.728,0,0,0-.41-.652,4.623,4.623,0,0,0-1.317-.426q-3.015-.633-3.015-2.563a2.324,2.324,0,0,1,.933-1.879,3.77,3.77,0,0,1,2.442-.753,4.055,4.055,0,0,1,2.574.757,2.387,2.387,0,0,1,.965,1.969h-2.258a1.094,1.094,0,0,0-.312-.8,1.324,1.324,0,0,0-.977-.316,1.351,1.351,0,0,0-.883.258.813.813,0,0,0-.312.656.694.694,0,0,0,.355.6,3.649,3.649,0,0,0,1.2.4,9.719,9.719,0,0,1,1.422.379,2.335,2.335,0,0,1,1.789,2.273,2.2,2.2,0,0,1-.992,1.871,4.274,4.274,0,0,1-2.562.715,4.468,4.468,0,0,1-1.887-.379,3.155,3.155,0,0,1-1.293-1.039,2.41,2.41,0,0,1-.469-1.426h2.141a1.176,1.176,0,0,0,.445.922,1.765,1.765,0,0,0,1.11.321,1.636,1.636,0,0,0,.98-.246.766.766,0,0,0,.332-.645" fill="#12263f"/>
            <path id="Trazado_208616" data-name="Trazado 208616" d="M1029.949,24.962l.07.977a2.953,2.953,0,0,1,2.43-1.133,2.45,2.45,0,0,1,2,.789,3.686,3.686,0,0,1,.672,2.359v5.461h-2.258V28a1.474,1.474,0,0,0-.312-1.045,1.4,1.4,0,0,0-1.04-.325,1.552,1.552,0,0,0-1.429.815v5.974h-2.258V24.962Z" fill="#12263f"/>
            <path id="Trazado_208617" data-name="Trazado 208617" d="M1040.723,33.571a4.154,4.154,0,0,1-3.028-1.14,4.059,4.059,0,0,1-1.168-3.039v-.219a5.1,5.1,0,0,1,.493-2.277,3.616,3.616,0,0,1,1.394-1.547,3.907,3.907,0,0,1,2.059-.543,3.508,3.508,0,0,1,2.73,1.093,4.447,4.447,0,0,1,1,3.1v.922h-5.382a2.1,2.1,0,0,0,.66,1.328,2,2,0,0,0,1.394.5,2.436,2.436,0,0,0,2.039-.945l1.11,1.242a3.4,3.4,0,0,1-1.375,1.121,4.5,4.5,0,0,1-1.922.4m-.258-6.945a1.408,1.408,0,0,0-1.09.455,2.364,2.364,0,0,0-.535,1.3h3.141V28.2a1.681,1.681,0,0,0-.407-1.165,1.457,1.457,0,0,0-1.109-.412" fill="#12263f"/>
            <path id="Trazado_208618" data-name="Trazado 208618" d="M1049,31.751a1.478,1.478,0,0,0,1.016-.344,1.208,1.208,0,0,0,.406-.914h2.117a2.887,2.887,0,0,1-.469,1.574,3.087,3.087,0,0,1-1.261,1.11,3.967,3.967,0,0,1-1.77.394,3.667,3.667,0,0,1-2.859-1.152,4.556,4.556,0,0,1-1.047-3.184v-.148a4.506,4.506,0,0,1,1.039-3.117,3.622,3.622,0,0,1,2.851-1.164,3.551,3.551,0,0,1,2.543.9,3.2,3.2,0,0,1,.973,2.4h-2.117a1.559,1.559,0,0,0-.406-1.072,1.511,1.511,0,0,0-2.223.163,3.328,3.328,0,0,0-.4,1.866V29.3a3.374,3.374,0,0,0,.4,1.878,1.376,1.376,0,0,0,1.211.571" fill="#12263f"/>
            <path id="Trazado_208619" data-name="Trazado 208619" d="M1057.715,33.571a4.154,4.154,0,0,1-3.028-1.14,4.059,4.059,0,0,1-1.168-3.039v-.219a5.1,5.1,0,0,1,.493-2.277,3.616,3.616,0,0,1,1.394-1.547,3.907,3.907,0,0,1,2.059-.543,3.507,3.507,0,0,1,2.73,1.093,4.446,4.446,0,0,1,1,3.1v.922h-5.382a2.1,2.1,0,0,0,.66,1.328,2,2,0,0,0,1.394.5,2.436,2.436,0,0,0,2.039-.945l1.11,1.242a3.4,3.4,0,0,1-1.375,1.121,4.5,4.5,0,0,1-1.922.4m-.258-6.945a1.408,1.408,0,0,0-1.09.455,2.364,2.364,0,0,0-.535,1.3h3.141V28.2a1.681,1.681,0,0,0-.407-1.165,1.457,1.457,0,0,0-1.109-.412" fill="#12263f"/>
            <path id="Trazado_208620" data-name="Trazado 208620" d="M1067.051,31.079a.728.728,0,0,0-.41-.652,4.624,4.624,0,0,0-1.317-.426q-3.015-.633-3.015-2.563a2.324,2.324,0,0,1,.933-1.879,3.771,3.771,0,0,1,2.442-.753,4.055,4.055,0,0,1,2.574.757,2.387,2.387,0,0,1,.965,1.969h-2.258a1.094,1.094,0,0,0-.312-.8,1.324,1.324,0,0,0-.977-.316,1.351,1.351,0,0,0-.883.258.814.814,0,0,0-.312.656.694.694,0,0,0,.355.6,3.649,3.649,0,0,0,1.2.4,9.719,9.719,0,0,1,1.422.379,2.335,2.335,0,0,1,1.789,2.273,2.2,2.2,0,0,1-.992,1.871,4.274,4.274,0,0,1-2.562.715,4.468,4.468,0,0,1-1.887-.379,3.155,3.155,0,0,1-1.293-1.039,2.41,2.41,0,0,1-.469-1.426h2.141a1.176,1.176,0,0,0,.445.922,1.765,1.765,0,0,0,1.11.321,1.636,1.636,0,0,0,.98-.246.766.766,0,0,0,.332-.645" fill="#12263f"/>
            <path id="Trazado_208621" data-name="Trazado 208621" d="M1070.683,22.775a1.112,1.112,0,0,1,.34-.836,1.462,1.462,0,0,1,1.848,0,1.191,1.191,0,0,1,0,1.679,1.449,1.449,0,0,1-1.836,0,1.11,1.11,0,0,1-.348-.843m2.4,10.64h-2.266V24.962h2.266Z" fill="#12263f"/>
            <path id="Trazado_208622" data-name="Trazado 208622" d="M1074.589,29.126a5.1,5.1,0,0,1,.887-3.149,2.877,2.877,0,0,1,2.426-1.171,2.591,2.591,0,0,1,2.04.921V21.415h2.264v12h-2.039l-.109-.9a2.655,2.655,0,0,1-2.172,1.055,2.866,2.866,0,0,1-2.394-1.176,5.262,5.262,0,0,1-.9-3.269m2.259.16a3.356,3.356,0,0,0,.413,1.829,1.347,1.347,0,0,0,1.2.636,1.512,1.512,0,0,0,1.478-.887V27.513a1.491,1.491,0,0,0-1.462-.887q-1.633,0-1.632,2.66" fill="#12263f"/>
            <path id="Trazado_208623" data-name="Trazado 208623" d="M1088.855,33.415a2.489,2.489,0,0,1-.226-.758,2.731,2.731,0,0,1-2.133.915,3,3,0,0,1-2.059-.719,2.313,2.313,0,0,1-.816-1.813,2.389,2.389,0,0,1,1-2.062,4.908,4.908,0,0,1,2.879-.727h1.039v-.484a1.4,1.4,0,0,0-.3-.938,1.183,1.183,0,0,0-.949-.351,1.348,1.348,0,0,0-.9.273.934.934,0,0,0-.324.75h-2.258a2.276,2.276,0,0,1,.453-1.359,3,3,0,0,1,1.282-.981,4.665,4.665,0,0,1,1.859-.355,3.694,3.694,0,0,1,2.481.785,2.747,2.747,0,0,1,.918,2.207v3.664a4.034,4.034,0,0,0,.335,1.82v.133Zm-1.867-1.57a1.939,1.939,0,0,0,.922-.223,1.463,1.463,0,0,0,.625-.6V29.572h-.844q-1.7,0-1.805,1.171l-.007.133a.9.9,0,0,0,.3.7,1.153,1.153,0,0,0,.812.273" fill="#12263f"/>
            <path id="Trazado_208624" data-name="Trazado 208624" d="M1092.183,29.126a5.1,5.1,0,0,1,.887-3.149,2.876,2.876,0,0,1,2.426-1.171,2.589,2.589,0,0,1,2.039.921V21.415h2.265v12h-2.039l-.109-.9a2.655,2.655,0,0,1-2.172,1.055,2.864,2.864,0,0,1-2.394-1.176,5.255,5.255,0,0,1-.9-3.269m2.258.16a3.356,3.356,0,0,0,.414,1.829,1.347,1.347,0,0,0,1.2.636,1.511,1.511,0,0,0,1.477-.887V27.513a1.49,1.49,0,0,0-1.461-.887q-1.633,0-1.633,2.66" fill="#12263f"/>
            <path id="Trazado_208625" data-name="Trazado 208625" d="M1105.441,33.571a4.154,4.154,0,0,1-3.028-1.14,4.059,4.059,0,0,1-1.168-3.039v-.219a5.1,5.1,0,0,1,.493-2.277,3.616,3.616,0,0,1,1.394-1.547,3.907,3.907,0,0,1,2.059-.543,3.508,3.508,0,0,1,2.73,1.093,4.447,4.447,0,0,1,1,3.1v.922h-5.382a2.1,2.1,0,0,0,.66,1.328,2,2,0,0,0,1.394.5,2.436,2.436,0,0,0,2.039-.945l1.11,1.242a3.4,3.4,0,0,1-1.375,1.121,4.5,4.5,0,0,1-1.922.4m-.258-6.945a1.408,1.408,0,0,0-1.09.455,2.363,2.363,0,0,0-.535,1.3h3.141V28.2a1.681,1.681,0,0,0-.407-1.165,1.457,1.457,0,0,0-1.109-.412" fill="#12263f"/>
            <path id="Trazado_208626" data-name="Trazado 208626" d="M1114.777,31.079a.728.728,0,0,0-.41-.652A4.622,4.622,0,0,0,1113.05,30q-3.015-.633-3.015-2.563a2.324,2.324,0,0,1,.933-1.879,3.77,3.77,0,0,1,2.442-.753,4.055,4.055,0,0,1,2.574.757,2.387,2.387,0,0,1,.965,1.969h-2.258a1.094,1.094,0,0,0-.312-.8,1.324,1.324,0,0,0-.977-.316,1.351,1.351,0,0,0-.883.258.814.814,0,0,0-.312.656.694.694,0,0,0,.355.6,3.649,3.649,0,0,0,1.2.4,9.719,9.719,0,0,1,1.422.379,2.335,2.335,0,0,1,1.789,2.273,2.2,2.2,0,0,1-.992,1.871,4.274,4.274,0,0,1-2.562.715,4.468,4.468,0,0,1-1.887-.379,3.155,3.155,0,0,1-1.293-1.039,2.41,2.41,0,0,1-.469-1.426h2.141a1.176,1.176,0,0,0,.445.922,1.765,1.765,0,0,0,1.11.321,1.635,1.635,0,0,0,.98-.246.766.766,0,0,0,.332-.645" fill="#12263f"/>
            <path id="Trazado_208627" data-name="Trazado 208627" d="M999.9,51.079a.728.728,0,0,0-.41-.652A4.634,4.634,0,0,0,998.175,50q-3.015-.633-3.015-2.563a2.324,2.324,0,0,1,.933-1.879,3.768,3.768,0,0,1,2.442-.753,4.055,4.055,0,0,1,2.574.757,2.39,2.39,0,0,1,.965,1.969h-2.258a1.094,1.094,0,0,0-.312-.8,1.326,1.326,0,0,0-.977-.316,1.351,1.351,0,0,0-.883.258.814.814,0,0,0-.312.656.694.694,0,0,0,.355.6,3.649,3.649,0,0,0,1.2.4,9.719,9.719,0,0,1,1.422.379,2.335,2.335,0,0,1,1.789,2.273,2.2,2.2,0,0,1-.992,1.871,4.274,4.274,0,0,1-2.562.715,4.462,4.462,0,0,1-1.887-.379,3.155,3.155,0,0,1-1.293-1.039,2.41,2.41,0,0,1-.469-1.426h2.141a1.176,1.176,0,0,0,.445.922,1.765,1.765,0,0,0,1.11.321,1.636,1.636,0,0,0,.98-.246.768.768,0,0,0,.332-.645" fill="#12263f"/>
            <path id="Trazado_208628" data-name="Trazado 208628" d="M1003.2,49.111a5,5,0,0,1,.485-2.242,3.538,3.538,0,0,1,1.394-1.524,4.072,4.072,0,0,1,2.113-.539,3.848,3.848,0,0,1,2.793,1.047,4.2,4.2,0,0,1,1.207,2.844l.016.578a4.418,4.418,0,0,1-1.086,3.121,4.208,4.208,0,0,1-5.832,0,4.494,4.494,0,0,1-1.09-3.188Zm2.258.16a3.16,3.16,0,0,0,.453,1.843,1.629,1.629,0,0,0,2.578.008,3.461,3.461,0,0,0,.461-2.015,3.13,3.13,0,0,0-.461-1.831,1.5,1.5,0,0,0-1.3-.65,1.472,1.472,0,0,0-1.281.646,3.518,3.518,0,0,0-.453,2" fill="#12263f"/>
            <path id="Trazado_208629" data-name="Trazado 208629" d="M1016.113,51.751a1.479,1.479,0,0,0,1.016-.344,1.208,1.208,0,0,0,.406-.914h2.117a2.9,2.9,0,0,1-.469,1.574,3.093,3.093,0,0,1-1.261,1.11,3.967,3.967,0,0,1-1.77.394,3.665,3.665,0,0,1-2.859-1.152,4.556,4.556,0,0,1-1.047-3.184v-.148a4.506,4.506,0,0,1,1.039-3.117,3.622,3.622,0,0,1,2.851-1.164,3.552,3.552,0,0,1,2.543.9,3.2,3.2,0,0,1,.973,2.4h-2.117a1.559,1.559,0,0,0-.406-1.072,1.511,1.511,0,0,0-2.223.163,3.327,3.327,0,0,0-.4,1.866V49.3a3.374,3.374,0,0,0,.4,1.878,1.376,1.376,0,0,0,1.211.571" fill="#12263f"/>
            <path id="Trazado_208630" data-name="Trazado 208630" d="M1020.926,42.775a1.111,1.111,0,0,1,.339-.836,1.462,1.462,0,0,1,1.848,0,1.192,1.192,0,0,1,0,1.679,1.449,1.449,0,0,1-1.836,0,1.106,1.106,0,0,1-.347-.843m2.4,10.64h-2.266V44.962h2.266Z" fill="#12263f"/>
            <path id="Trazado_208631" data-name="Trazado 208631" d="M1024.832,49.111a5,5,0,0,1,.485-2.242,3.538,3.538,0,0,1,1.394-1.524,4.071,4.071,0,0,1,2.113-.539,3.848,3.848,0,0,1,2.793,1.047,4.2,4.2,0,0,1,1.207,2.844l.016.578a4.418,4.418,0,0,1-1.086,3.121,4.208,4.208,0,0,1-5.832,0,4.494,4.494,0,0,1-1.09-3.188Zm2.258.16a3.16,3.16,0,0,0,.453,1.843,1.629,1.629,0,0,0,2.578.008,3.461,3.461,0,0,0,.461-2.015,3.13,3.13,0,0,0-.461-1.831,1.5,1.5,0,0,0-1.3-.65,1.472,1.472,0,0,0-1.281.646,3.518,3.518,0,0,0-.453,2" fill="#12263f"/>
            <path id="Trazado_208632" data-name="Trazado 208632" d="M1038.121,53.571a4.152,4.152,0,0,1-3.028-1.14,4.058,4.058,0,0,1-1.168-3.039v-.219a5.1,5.1,0,0,1,.493-2.277,3.616,3.616,0,0,1,1.394-1.547,3.907,3.907,0,0,1,2.059-.543,3.507,3.507,0,0,1,2.73,1.093,4.446,4.446,0,0,1,1,3.1v.922h-5.382a2.093,2.093,0,0,0,.66,1.328,2,2,0,0,0,1.394.5,2.436,2.436,0,0,0,2.039-.945l1.11,1.242a3.4,3.4,0,0,1-1.375,1.121,4.5,4.5,0,0,1-1.922.4m-.258-6.945a1.408,1.408,0,0,0-1.09.455,2.357,2.357,0,0,0-.535,1.3h3.141V48.2a1.681,1.681,0,0,0-.407-1.165,1.457,1.457,0,0,0-1.109-.412" fill="#12263f"/>
            <path id="Trazado_208633" data-name="Trazado 208633" d="M1046.394,51.751a1.478,1.478,0,0,0,1.016-.344,1.208,1.208,0,0,0,.406-.914h2.117a2.9,2.9,0,0,1-.469,1.574,3.093,3.093,0,0,1-1.261,1.11,3.967,3.967,0,0,1-1.77.394,3.665,3.665,0,0,1-2.859-1.152,4.556,4.556,0,0,1-1.047-3.184v-.148a4.506,4.506,0,0,1,1.039-3.117,3.622,3.622,0,0,1,2.851-1.164,3.552,3.552,0,0,1,2.543.9,3.2,3.2,0,0,1,.973,2.4h-2.117a1.559,1.559,0,0,0-.406-1.072,1.511,1.511,0,0,0-2.223.163,3.327,3.327,0,0,0-.4,1.866V49.3a3.374,3.374,0,0,0,.4,1.878,1.377,1.377,0,0,0,1.211.571" fill="#12263f"/>
            <path id="Trazado_208634" data-name="Trazado 208634" d="M1050.871,49.111a5,5,0,0,1,.485-2.242,3.538,3.538,0,0,1,1.394-1.524,4.072,4.072,0,0,1,2.113-.539,3.848,3.848,0,0,1,2.793,1.047,4.2,4.2,0,0,1,1.207,2.844l.016.578a4.418,4.418,0,0,1-1.086,3.121,4.208,4.208,0,0,1-5.832,0,4.494,4.494,0,0,1-1.09-3.188Zm2.258.16a3.16,3.16,0,0,0,.453,1.843,1.629,1.629,0,0,0,2.578.008,3.461,3.461,0,0,0,.461-2.015,3.13,3.13,0,0,0-.461-1.831,1.5,1.5,0,0,0-1.3-.65,1.472,1.472,0,0,0-1.281.646,3.518,3.518,0,0,0-.453,2" fill="#12263f"/>
            <path id="Trazado_208635" data-name="Trazado 208635" d="M1062.348,44.962l.069.977a2.953,2.953,0,0,1,2.431-1.133,2.451,2.451,0,0,1,2,.789,3.7,3.7,0,0,1,.672,2.359v5.461h-2.259V48a1.474,1.474,0,0,0-.312-1.045,1.4,1.4,0,0,0-1.04-.325,1.552,1.552,0,0,0-1.429.815v5.974h-2.257V44.962Z" fill="#12263f"/>
            <path id="Trazado_208636" data-name="Trazado 208636" d="M1068.879,49.11a5.009,5.009,0,0,1,.484-2.242,3.542,3.542,0,0,1,1.394-1.523,4.064,4.064,0,0,1,2.114-.539,3.85,3.85,0,0,1,2.793,1.046,4.208,4.208,0,0,1,1.207,2.844l.015.578A4.418,4.418,0,0,1,1075.8,52.4a4.208,4.208,0,0,1-5.832,0,4.5,4.5,0,0,1-1.089-3.187Zm2.257.16a3.16,3.16,0,0,0,.453,1.843,1.628,1.628,0,0,0,2.579.008,3.462,3.462,0,0,0,.46-2.015,3.13,3.13,0,0,0-.46-1.831,1.5,1.5,0,0,0-1.3-.649,1.474,1.474,0,0,0-1.282.645,3.518,3.518,0,0,0-.453,2m2.18-7.855h2.461l-2.164,2.422h-1.836Z" fill="#12263f"/>
            <path id="Trazado_208637" data-name="Trazado 208637" d="M1080.394,44.962l.07.945a2.972,2.972,0,0,1,2.43-1.1,2.253,2.253,0,0,1,2.242,1.289,2.9,2.9,0,0,1,2.539-1.289,2.518,2.518,0,0,1,2.047.8,3.678,3.678,0,0,1,.672,2.41v5.4h-2.266v-5.4a1.613,1.613,0,0,0-.281-1.053,1.243,1.243,0,0,0-.992-.333,1.409,1.409,0,0,0-1.406.971l.007,5.818H1083.2v-5.4a1.6,1.6,0,0,0-.289-1.065,1.255,1.255,0,0,0-.985-.329,1.463,1.463,0,0,0-1.39.8v5.99h-2.258V44.962Z" fill="#12263f"/>
            <path id="Trazado_208638" data-name="Trazado 208638" d="M1092.113,42.775a1.108,1.108,0,0,1,.34-.836,1.462,1.462,0,0,1,1.848,0,1.194,1.194,0,0,1,0,1.679,1.449,1.449,0,0,1-1.836,0,1.106,1.106,0,0,1-.348-.843m2.4,10.64h-2.266V44.962h2.266Z" fill="#12263f"/>
            <path id="Trazado_208639" data-name="Trazado 208639" d="M1099.887,51.751a1.48,1.48,0,0,0,1.016-.344,1.214,1.214,0,0,0,.406-.914h2.117a2.9,2.9,0,0,1-.469,1.574,3.093,3.093,0,0,1-1.261,1.11,3.967,3.967,0,0,1-1.77.394,3.665,3.665,0,0,1-2.859-1.152,4.556,4.556,0,0,1-1.047-3.184v-.148a4.5,4.5,0,0,1,1.039-3.117,3.621,3.621,0,0,1,2.851-1.164,3.552,3.552,0,0,1,2.543.9,3.2,3.2,0,0,1,.973,2.4h-2.117a1.568,1.568,0,0,0-.406-1.072,1.511,1.511,0,0,0-2.223.163,3.327,3.327,0,0,0-.4,1.866V49.3a3.374,3.374,0,0,0,.4,1.878,1.375,1.375,0,0,0,1.211.571" fill="#12263f"/>
            <path id="Trazado_208640" data-name="Trazado 208640" d="M1109.613,53.415a2.489,2.489,0,0,1-.226-.758,2.731,2.731,0,0,1-2.133.915,3,3,0,0,1-2.059-.719,2.313,2.313,0,0,1-.816-1.813,2.389,2.389,0,0,1,1-2.062,4.906,4.906,0,0,1,2.879-.727h1.039v-.484a1.4,1.4,0,0,0-.3-.938,1.185,1.185,0,0,0-.949-.351,1.348,1.348,0,0,0-.9.273.931.931,0,0,0-.324.75h-2.258a2.269,2.269,0,0,1,.453-1.359,3,3,0,0,1,1.282-.981,4.665,4.665,0,0,1,1.859-.355,3.694,3.694,0,0,1,2.481.785,2.75,2.75,0,0,1,.918,2.207v3.664a4.034,4.034,0,0,0,.335,1.82v.133Zm-1.867-1.57a1.939,1.939,0,0,0,.922-.223,1.463,1.463,0,0,0,.625-.6V49.572h-.844q-1.7,0-1.8,1.171l-.007.133a.9.9,0,0,0,.3.7,1.151,1.151,0,0,0,.812.273" fill="#12263f"/>
            <path id="Trazado_208641" data-name="Trazado 208641" d="M1117.871,51.079a.728.728,0,0,0-.41-.652,4.635,4.635,0,0,0-1.317-.426q-3.015-.633-3.015-2.563a2.324,2.324,0,0,1,.933-1.879,3.769,3.769,0,0,1,2.442-.753,4.055,4.055,0,0,1,2.574.757,2.39,2.39,0,0,1,.965,1.969h-2.258a1.094,1.094,0,0,0-.312-.8,1.326,1.326,0,0,0-.977-.316,1.351,1.351,0,0,0-.883.258.814.814,0,0,0-.312.656.694.694,0,0,0,.355.6,3.649,3.649,0,0,0,1.2.4,9.719,9.719,0,0,1,1.422.379,2.335,2.335,0,0,1,1.789,2.273,2.2,2.2,0,0,1-.992,1.871,4.274,4.274,0,0,1-2.562.715,4.462,4.462,0,0,1-1.887-.379,3.155,3.155,0,0,1-1.293-1.039,2.41,2.41,0,0,1-.469-1.426H1115a1.176,1.176,0,0,0,.445.922,1.765,1.765,0,0,0,1.11.321,1.635,1.635,0,0,0,.98-.246.768.768,0,0,0,.332-.645" fill="#12263f"/>
          </g>
        </g>
      </g>
    </g>
  </g>
</svg>
